%TF.GenerationSoftware,KiCad,Pcbnew,7.0.5*%
%TF.CreationDate,2023-11-04T20:07:06-04:00*%
%TF.ProjectId,modular,6d6f6475-6c61-4722-9e6b-696361645f70,rev?*%
%TF.SameCoordinates,Original*%
%TF.FileFunction,Copper,L3,Inr*%
%TF.FilePolarity,Positive*%
%FSLAX46Y46*%
G04 Gerber Fmt 4.6, Leading zero omitted, Abs format (unit mm)*
G04 Created by KiCad (PCBNEW 7.0.5) date 2023-11-04 20:07:06*
%MOMM*%
%LPD*%
G01*
G04 APERTURE LIST*
%TA.AperFunction,ComponentPad*%
%ADD10C,4.500000*%
%TD*%
%TA.AperFunction,ComponentPad*%
%ADD11R,1.700000X1.700000*%
%TD*%
%TA.AperFunction,ComponentPad*%
%ADD12R,1.650000X1.650000*%
%TD*%
%TA.AperFunction,ComponentPad*%
%ADD13C,1.650000*%
%TD*%
%TA.AperFunction,ComponentPad*%
%ADD14R,2.250000X2.250000*%
%TD*%
%TA.AperFunction,ComponentPad*%
%ADD15C,2.400000*%
%TD*%
%TA.AperFunction,ViaPad*%
%ADD16C,0.800000*%
%TD*%
G04 APERTURE END LIST*
D10*
%TO.N,N/C*%
%TO.C,*%
X109030000Y-64500000D03*
%TD*%
%TO.N,N/C*%
%TO.C,*%
X153180000Y-87720000D03*
%TD*%
%TO.N,N/C*%
%TO.C,*%
X153180000Y-64500000D03*
%TD*%
%TO.N,N/C*%
%TO.C,*%
X109030000Y-87720000D03*
%TD*%
D11*
%TO.N,Net-(J4-Pin_1)*%
%TO.C,J4*%
X132020000Y-89680000D03*
%TD*%
D12*
%TO.N,+3.3V*%
%TO.C,J1*%
X133232500Y-67180000D03*
D13*
%TO.N,GND*%
X128232500Y-67180000D03*
%TD*%
D14*
%TO.N,Power_Amp_Out*%
%TO.C,J2*%
X151985000Y-79680000D03*
D15*
%TO.N,GND*%
X149445000Y-77140000D03*
X149445000Y-82220000D03*
X154525000Y-82220000D03*
X154525000Y-77140000D03*
%TD*%
D14*
%TO.N,Power_Amp_In*%
%TO.C,J3*%
X110165000Y-79680000D03*
D15*
%TO.N,GND*%
X112705000Y-82220000D03*
X112705000Y-77140000D03*
X107625000Y-77140000D03*
X107625000Y-82220000D03*
%TD*%
D16*
%TO.N,GND*%
X137922856Y-77729810D03*
X140707144Y-80360000D03*
X119492723Y-71649528D03*
X133020000Y-78520000D03*
X107940977Y-71172878D03*
X134633362Y-83930268D03*
X147960000Y-78780000D03*
X114380000Y-80810000D03*
X145450000Y-80410000D03*
X127320000Y-80220000D03*
X147278599Y-85864905D03*
X111252000Y-90659441D03*
X114046000Y-75184000D03*
X120417985Y-87378969D03*
X117981432Y-80820000D03*
X108966000Y-72898000D03*
X137044649Y-69238241D03*
X139708280Y-89818294D03*
X137132860Y-80360000D03*
X121398572Y-78100000D03*
X124876062Y-65817578D03*
X125984000Y-73660000D03*
X116492634Y-74481388D03*
X141530764Y-83061083D03*
X114894456Y-72602827D03*
X139515716Y-80360000D03*
X141898572Y-80360000D03*
X113913118Y-64583897D03*
X152129211Y-70612114D03*
X142688568Y-77729810D03*
X133860000Y-80930000D03*
X116913207Y-90154753D03*
X134840000Y-80770000D03*
X147951516Y-65172699D03*
X123978839Y-67387719D03*
X116240290Y-87154663D03*
X137156802Y-86285478D03*
X134128674Y-73472012D03*
X135810967Y-90154753D03*
X135941432Y-80360000D03*
X147740000Y-80450000D03*
X126010000Y-78140000D03*
X117726316Y-66238152D03*
X112286901Y-67668101D03*
X152858204Y-73668280D03*
X130203323Y-83061083D03*
X116225043Y-65290591D03*
X141867223Y-62705336D03*
X129641331Y-63776527D03*
X127147157Y-83902230D03*
X126321432Y-80820000D03*
X147194484Y-68537285D03*
X123754533Y-86593899D03*
X121555716Y-80820000D03*
X108333512Y-68228865D03*
X118455309Y-84995720D03*
X140305712Y-77729810D03*
X136731428Y-77729810D03*
X138530674Y-83369504D03*
X115371105Y-69827044D03*
X122747144Y-80820000D03*
X126238000Y-69088000D03*
X132164771Y-64743846D03*
X110744799Y-70808381D03*
X123938572Y-80820000D03*
X143090000Y-80360000D03*
X116801054Y-83061083D03*
X149521656Y-74901961D03*
X124090991Y-84350841D03*
X138324288Y-80360000D03*
X123726495Y-64079209D03*
X117824288Y-78100000D03*
X124821432Y-78120000D03*
X106680000Y-72644000D03*
X133020000Y-80390000D03*
X121371284Y-84743376D03*
X120207144Y-78100000D03*
X110492455Y-72350483D03*
X118959997Y-68593362D03*
X132080656Y-69832783D03*
X137969910Y-63181986D03*
X115399143Y-66826954D03*
X140970000Y-74930000D03*
X122296545Y-89958485D03*
X139114284Y-77729810D03*
X125689170Y-86145287D03*
X115610000Y-80810000D03*
X146829987Y-88332268D03*
X127876151Y-87098587D03*
X125130000Y-80820000D03*
X115441432Y-78100000D03*
X128200000Y-78710000D03*
X139700000Y-72390000D03*
X113184124Y-71649528D03*
X139876509Y-85388255D03*
X119015716Y-78100000D03*
X126949662Y-64659731D03*
X141497140Y-77729810D03*
X138430000Y-74930000D03*
X148590000Y-72390000D03*
X123474151Y-74453350D03*
X144780000Y-63500000D03*
X135362356Y-82556395D03*
X139315745Y-87687389D03*
X113716850Y-86005096D03*
X119352532Y-63714712D03*
X125633094Y-88977147D03*
X128540000Y-80210000D03*
X116910000Y-80820000D03*
X116100099Y-85444332D03*
X144780000Y-67310000D03*
X121371284Y-82472280D03*
X142175643Y-86958396D03*
X135540000Y-77729810D03*
X149858115Y-68593362D03*
X119172860Y-80820000D03*
X143880000Y-77729810D03*
X127060000Y-78710000D03*
X112595322Y-87630000D03*
X117612935Y-71346846D03*
X120361908Y-74537464D03*
X143465401Y-89257530D03*
X122689080Y-69013935D03*
X145063580Y-82948930D03*
X134477924Y-63524183D03*
X146050000Y-71120000D03*
X124343335Y-70219579D03*
X133510605Y-70758044D03*
X117612935Y-69117808D03*
X122174000Y-72136000D03*
X143156981Y-84799453D03*
X121399322Y-66854992D03*
X117698277Y-88304230D03*
X130048000Y-69088000D03*
X143510000Y-71120000D03*
X114370000Y-78510000D03*
X146520000Y-80430000D03*
X120333870Y-89425759D03*
X129780000Y-77250000D03*
X120364288Y-80820000D03*
X140970000Y-64770000D03*
X134633362Y-87014472D03*
X144783197Y-86285478D03*
X146050000Y-73660000D03*
X116632860Y-78100000D03*
X123781432Y-78100000D03*
X114698188Y-89369682D03*
X143510000Y-73660000D03*
X122590000Y-78100000D03*
X146790000Y-78740000D03*
X144281432Y-80360000D03*
%TO.N,+3.3V*%
X126810000Y-76650000D03*
X138680000Y-65590000D03*
X135910000Y-76290000D03*
X132520000Y-74820000D03*
%TO.N,Net-(J4-Pin_1)*%
X132340000Y-81440000D03*
%TD*%
%TA.AperFunction,Conductor*%
%TO.N,+3.3V*%
G36*
X156362539Y-61390185D02*
G01*
X156408294Y-61442989D01*
X156419500Y-61494500D01*
X156419500Y-76697836D01*
X156399815Y-76764875D01*
X156347011Y-76810630D01*
X156277853Y-76820574D01*
X156214297Y-76791549D01*
X156176523Y-76732771D01*
X156174609Y-76725429D01*
X156154509Y-76637369D01*
X156154508Y-76637363D01*
X156061393Y-76400112D01*
X155933959Y-76179388D01*
X155775050Y-75980123D01*
X155588217Y-75806768D01*
X155377634Y-75663195D01*
X155377628Y-75663192D01*
X155377627Y-75663191D01*
X155377626Y-75663190D01*
X155148006Y-75552612D01*
X155148008Y-75552612D01*
X154904466Y-75477489D01*
X154904462Y-75477488D01*
X154904458Y-75477487D01*
X154783231Y-75459214D01*
X154652440Y-75439500D01*
X154652435Y-75439500D01*
X154397565Y-75439500D01*
X154397559Y-75439500D01*
X154246870Y-75462214D01*
X154145542Y-75477487D01*
X154145538Y-75477488D01*
X154145539Y-75477488D01*
X154145533Y-75477489D01*
X153901992Y-75552612D01*
X153672373Y-75663190D01*
X153672372Y-75663191D01*
X153461782Y-75806768D01*
X153274952Y-75980121D01*
X153274950Y-75980123D01*
X153116041Y-76179388D01*
X152988608Y-76400109D01*
X152895492Y-76637362D01*
X152895490Y-76637369D01*
X152838777Y-76885845D01*
X152819732Y-77139995D01*
X152819732Y-77140004D01*
X152838777Y-77394154D01*
X152890639Y-77621378D01*
X152895492Y-77642637D01*
X152988202Y-77878857D01*
X152990302Y-77884206D01*
X152988433Y-77884939D01*
X152998420Y-77945664D01*
X152970685Y-78009793D01*
X152912682Y-78048747D01*
X152875351Y-78054500D01*
X151094649Y-78054500D01*
X151027610Y-78034815D01*
X150981855Y-77982011D01*
X150971911Y-77912853D01*
X150980542Y-77884538D01*
X150979698Y-77884207D01*
X151008466Y-77810907D01*
X151074508Y-77642637D01*
X151131222Y-77394157D01*
X151139862Y-77278856D01*
X151150268Y-77140004D01*
X151150268Y-77139995D01*
X151131222Y-76885845D01*
X151130279Y-76881715D01*
X151074508Y-76637363D01*
X150981393Y-76400112D01*
X150853959Y-76179388D01*
X150695050Y-75980123D01*
X150508217Y-75806768D01*
X150297634Y-75663195D01*
X150297631Y-75663194D01*
X150297629Y-75663192D01*
X150272519Y-75651100D01*
X150220659Y-75604277D01*
X150202347Y-75536850D01*
X150223395Y-75470226D01*
X150234167Y-75456413D01*
X150254189Y-75434177D01*
X150348835Y-75270245D01*
X150407330Y-75090217D01*
X150427116Y-74901961D01*
X150407330Y-74713705D01*
X150352768Y-74545784D01*
X150348837Y-74533683D01*
X150348836Y-74533682D01*
X150348835Y-74533677D01*
X150254189Y-74369745D01*
X150127527Y-74229073D01*
X150127526Y-74229072D01*
X149974390Y-74117812D01*
X149974385Y-74117809D01*
X149801463Y-74040818D01*
X149801458Y-74040816D01*
X149634123Y-74005249D01*
X149616302Y-74001461D01*
X149427010Y-74001461D01*
X149409189Y-74005249D01*
X149241853Y-74040816D01*
X149241848Y-74040818D01*
X149068926Y-74117809D01*
X149068921Y-74117812D01*
X148915785Y-74229072D01*
X148789122Y-74369746D01*
X148694477Y-74533676D01*
X148694474Y-74533683D01*
X148656101Y-74651784D01*
X148635982Y-74713705D01*
X148616196Y-74901961D01*
X148635982Y-75090217D01*
X148635983Y-75090220D01*
X148694474Y-75270238D01*
X148694477Y-75270245D01*
X148782956Y-75423496D01*
X148799429Y-75491397D01*
X148776576Y-75557423D01*
X148729371Y-75597216D01*
X148592370Y-75663192D01*
X148381782Y-75806768D01*
X148194952Y-75980121D01*
X148194950Y-75980123D01*
X148036041Y-76179388D01*
X147908608Y-76400109D01*
X147815492Y-76637362D01*
X147815490Y-76637369D01*
X147758777Y-76885845D01*
X147739732Y-77139995D01*
X147739732Y-77140004D01*
X147758777Y-77394154D01*
X147815490Y-77642630D01*
X147815493Y-77642642D01*
X147851689Y-77734867D01*
X147857858Y-77804464D01*
X147825420Y-77866347D01*
X147764675Y-77900870D01*
X147762042Y-77901459D01*
X147680197Y-77918855D01*
X147680192Y-77918857D01*
X147507270Y-77995848D01*
X147507266Y-77995851D01*
X147475411Y-78018995D01*
X147409605Y-78042474D01*
X147341551Y-78026648D01*
X147329643Y-78018995D01*
X147242730Y-77955849D01*
X147242729Y-77955848D01*
X147069807Y-77878857D01*
X147069802Y-77878855D01*
X146920453Y-77847111D01*
X146884646Y-77839500D01*
X146695354Y-77839500D01*
X146662897Y-77846398D01*
X146510197Y-77878855D01*
X146510192Y-77878857D01*
X146337270Y-77955848D01*
X146337265Y-77955851D01*
X146184129Y-78067111D01*
X146057466Y-78207785D01*
X145962821Y-78371715D01*
X145962818Y-78371722D01*
X145904327Y-78551740D01*
X145904326Y-78551744D01*
X145884540Y-78740000D01*
X145904326Y-78928256D01*
X145904327Y-78928259D01*
X145962818Y-79108277D01*
X145962821Y-79108284D01*
X146057467Y-79272216D01*
X146181979Y-79410500D01*
X146186219Y-79415209D01*
X146216449Y-79478200D01*
X146207824Y-79547535D01*
X146163083Y-79601201D01*
X146144506Y-79611460D01*
X146067264Y-79645851D01*
X146061642Y-79649098D01*
X146060278Y-79646735D01*
X146005785Y-79666150D01*
X145937738Y-79650293D01*
X145925879Y-79642667D01*
X145902734Y-79625851D01*
X145902729Y-79625848D01*
X145729807Y-79548857D01*
X145729802Y-79548855D01*
X145584000Y-79517865D01*
X145544646Y-79509500D01*
X145355354Y-79509500D01*
X145322897Y-79516398D01*
X145170197Y-79548855D01*
X145170192Y-79548857D01*
X144997269Y-79625849D01*
X144973006Y-79643476D01*
X144907198Y-79666953D01*
X144839145Y-79651125D01*
X144827240Y-79643473D01*
X144734166Y-79575851D01*
X144734161Y-79575848D01*
X144561239Y-79498857D01*
X144561234Y-79498855D01*
X144415433Y-79467865D01*
X144376078Y-79459500D01*
X144186786Y-79459500D01*
X144154329Y-79466398D01*
X144001629Y-79498855D01*
X144001624Y-79498857D01*
X143828703Y-79575848D01*
X143758598Y-79626781D01*
X143692792Y-79650259D01*
X143624738Y-79634432D01*
X143612830Y-79626779D01*
X143542734Y-79575851D01*
X143542729Y-79575848D01*
X143369807Y-79498857D01*
X143369802Y-79498855D01*
X143224000Y-79467865D01*
X143184646Y-79459500D01*
X142995354Y-79459500D01*
X142962897Y-79466398D01*
X142810197Y-79498855D01*
X142810192Y-79498857D01*
X142637270Y-79575848D01*
X142637265Y-79575851D01*
X142567171Y-79626778D01*
X142501365Y-79650258D01*
X142433311Y-79634432D01*
X142421401Y-79626778D01*
X142351306Y-79575851D01*
X142351301Y-79575848D01*
X142178379Y-79498857D01*
X142178374Y-79498855D01*
X142032573Y-79467865D01*
X141993218Y-79459500D01*
X141803926Y-79459500D01*
X141771469Y-79466398D01*
X141618769Y-79498855D01*
X141618764Y-79498857D01*
X141445842Y-79575848D01*
X141445837Y-79575851D01*
X141375743Y-79626778D01*
X141309937Y-79650258D01*
X141241883Y-79634432D01*
X141229973Y-79626778D01*
X141159878Y-79575851D01*
X141159873Y-79575848D01*
X140986951Y-79498857D01*
X140986946Y-79498855D01*
X140841145Y-79467865D01*
X140801790Y-79459500D01*
X140612498Y-79459500D01*
X140580041Y-79466398D01*
X140427341Y-79498855D01*
X140427336Y-79498857D01*
X140254414Y-79575848D01*
X140254409Y-79575851D01*
X140184315Y-79626778D01*
X140118509Y-79650258D01*
X140050455Y-79634432D01*
X140038545Y-79626778D01*
X139968450Y-79575851D01*
X139968445Y-79575848D01*
X139795523Y-79498857D01*
X139795518Y-79498855D01*
X139649717Y-79467865D01*
X139610362Y-79459500D01*
X139421070Y-79459500D01*
X139388613Y-79466398D01*
X139235913Y-79498855D01*
X139235908Y-79498857D01*
X139062986Y-79575848D01*
X139062981Y-79575851D01*
X138992887Y-79626778D01*
X138927081Y-79650258D01*
X138859027Y-79634432D01*
X138847117Y-79626778D01*
X138777022Y-79575851D01*
X138777017Y-79575848D01*
X138604095Y-79498857D01*
X138604090Y-79498855D01*
X138458288Y-79467865D01*
X138418934Y-79459500D01*
X138229642Y-79459500D01*
X138197185Y-79466398D01*
X138044485Y-79498855D01*
X138044480Y-79498857D01*
X137871558Y-79575848D01*
X137871553Y-79575851D01*
X137801459Y-79626778D01*
X137735653Y-79650258D01*
X137667599Y-79634432D01*
X137655689Y-79626778D01*
X137585594Y-79575851D01*
X137585589Y-79575848D01*
X137412667Y-79498857D01*
X137412662Y-79498855D01*
X137266861Y-79467865D01*
X137227506Y-79459500D01*
X137038214Y-79459500D01*
X137005757Y-79466398D01*
X136853057Y-79498855D01*
X136853052Y-79498857D01*
X136680130Y-79575848D01*
X136610029Y-79626779D01*
X136544222Y-79650258D01*
X136476168Y-79634432D01*
X136464261Y-79626779D01*
X136409762Y-79587183D01*
X136394161Y-79575848D01*
X136221239Y-79498857D01*
X136221234Y-79498855D01*
X136075432Y-79467865D01*
X136036078Y-79459500D01*
X135846786Y-79459500D01*
X135814329Y-79466398D01*
X135661629Y-79498855D01*
X135661624Y-79498857D01*
X135488702Y-79575848D01*
X135488697Y-79575851D01*
X135335561Y-79687111D01*
X135208897Y-79827785D01*
X135202512Y-79838845D01*
X135151943Y-79887059D01*
X135083335Y-79900279D01*
X135069346Y-79898131D01*
X135017255Y-79887059D01*
X134934646Y-79869500D01*
X134745354Y-79869500D01*
X134712897Y-79876398D01*
X134560197Y-79908855D01*
X134560192Y-79908857D01*
X134387270Y-79985848D01*
X134387265Y-79985851D01*
X134280321Y-80063551D01*
X134214515Y-80087031D01*
X134157002Y-80076513D01*
X134139806Y-80068857D01*
X134139801Y-80068855D01*
X133984511Y-80035848D01*
X133954646Y-80029500D01*
X133954645Y-80029500D01*
X133923265Y-80029500D01*
X133856226Y-80009815D01*
X133815878Y-79967500D01*
X133752534Y-79857785D01*
X133625870Y-79717111D01*
X133472734Y-79605851D01*
X133472729Y-79605848D01*
X133388348Y-79568279D01*
X133335111Y-79523029D01*
X133314790Y-79456180D01*
X133333836Y-79388956D01*
X133386202Y-79342701D01*
X133388348Y-79341721D01*
X133419062Y-79328045D01*
X133472730Y-79304151D01*
X133625871Y-79192888D01*
X133752533Y-79052216D01*
X133847179Y-78888284D01*
X133905674Y-78708256D01*
X133925460Y-78520000D01*
X133905674Y-78331744D01*
X133847179Y-78151716D01*
X133752533Y-77987784D01*
X133625871Y-77847112D01*
X133615394Y-77839500D01*
X133472734Y-77735851D01*
X133472729Y-77735848D01*
X133459168Y-77729810D01*
X134634540Y-77729810D01*
X134654326Y-77918066D01*
X134654327Y-77918069D01*
X134712818Y-78098087D01*
X134712821Y-78098094D01*
X134807467Y-78262026D01*
X134879226Y-78341722D01*
X134934129Y-78402698D01*
X135087265Y-78513958D01*
X135087270Y-78513961D01*
X135260192Y-78590952D01*
X135260197Y-78590954D01*
X135445354Y-78630310D01*
X135445355Y-78630310D01*
X135634644Y-78630310D01*
X135634646Y-78630310D01*
X135819803Y-78590954D01*
X135992730Y-78513961D01*
X136062830Y-78463030D01*
X136128634Y-78439551D01*
X136196688Y-78455376D01*
X136208590Y-78463024D01*
X136278694Y-78513958D01*
X136278698Y-78513961D01*
X136451620Y-78590952D01*
X136451625Y-78590954D01*
X136636782Y-78630310D01*
X136636783Y-78630310D01*
X136826072Y-78630310D01*
X136826074Y-78630310D01*
X137011231Y-78590954D01*
X137184158Y-78513961D01*
X137254258Y-78463030D01*
X137320062Y-78439551D01*
X137388116Y-78455376D01*
X137400018Y-78463024D01*
X137470122Y-78513958D01*
X137470126Y-78513961D01*
X137643048Y-78590952D01*
X137643053Y-78590954D01*
X137828210Y-78630310D01*
X137828211Y-78630310D01*
X138017500Y-78630310D01*
X138017502Y-78630310D01*
X138202659Y-78590954D01*
X138375586Y-78513961D01*
X138445686Y-78463030D01*
X138511490Y-78439551D01*
X138579544Y-78455376D01*
X138591446Y-78463024D01*
X138661550Y-78513958D01*
X138661554Y-78513961D01*
X138834476Y-78590952D01*
X138834481Y-78590954D01*
X139019638Y-78630310D01*
X139019639Y-78630310D01*
X139208928Y-78630310D01*
X139208930Y-78630310D01*
X139394087Y-78590954D01*
X139567014Y-78513961D01*
X139637114Y-78463030D01*
X139702918Y-78439551D01*
X139770972Y-78455376D01*
X139782874Y-78463024D01*
X139852978Y-78513958D01*
X139852982Y-78513961D01*
X140025904Y-78590952D01*
X140025909Y-78590954D01*
X140211066Y-78630310D01*
X140211067Y-78630310D01*
X140400356Y-78630310D01*
X140400358Y-78630310D01*
X140585515Y-78590954D01*
X140758442Y-78513961D01*
X140828542Y-78463030D01*
X140894346Y-78439551D01*
X140962400Y-78455376D01*
X140974302Y-78463024D01*
X141044406Y-78513958D01*
X141044410Y-78513961D01*
X141217332Y-78590952D01*
X141217337Y-78590954D01*
X141402494Y-78630310D01*
X141402495Y-78630310D01*
X141591784Y-78630310D01*
X141591786Y-78630310D01*
X141776943Y-78590954D01*
X141949870Y-78513961D01*
X142019970Y-78463030D01*
X142085774Y-78439551D01*
X142153828Y-78455376D01*
X142165730Y-78463024D01*
X142235834Y-78513958D01*
X142235838Y-78513961D01*
X142408760Y-78590952D01*
X142408765Y-78590954D01*
X142593922Y-78630310D01*
X142593923Y-78630310D01*
X142783212Y-78630310D01*
X142783214Y-78630310D01*
X142968371Y-78590954D01*
X143141298Y-78513961D01*
X143211399Y-78463029D01*
X143277205Y-78439550D01*
X143345259Y-78455375D01*
X143357163Y-78463025D01*
X143427266Y-78513958D01*
X143427270Y-78513961D01*
X143600192Y-78590952D01*
X143600197Y-78590954D01*
X143785354Y-78630310D01*
X143785355Y-78630310D01*
X143974644Y-78630310D01*
X143974646Y-78630310D01*
X144159803Y-78590954D01*
X144332730Y-78513961D01*
X144485871Y-78402698D01*
X144612533Y-78262026D01*
X144707179Y-78098094D01*
X144765674Y-77918066D01*
X144785460Y-77729810D01*
X144765674Y-77541554D01*
X144708886Y-77366779D01*
X144707181Y-77361532D01*
X144707180Y-77361531D01*
X144707179Y-77361526D01*
X144612533Y-77197594D01*
X144485871Y-77056922D01*
X144475715Y-77049543D01*
X144332734Y-76945661D01*
X144332729Y-76945658D01*
X144159807Y-76868667D01*
X144159802Y-76868665D01*
X144014001Y-76837675D01*
X143974646Y-76829310D01*
X143785354Y-76829310D01*
X143752897Y-76836208D01*
X143600197Y-76868665D01*
X143600192Y-76868667D01*
X143427270Y-76945658D01*
X143427266Y-76945661D01*
X143357168Y-76996589D01*
X143291361Y-77020068D01*
X143223307Y-77004242D01*
X143211400Y-76996589D01*
X143141301Y-76945661D01*
X143141297Y-76945658D01*
X142968375Y-76868667D01*
X142968370Y-76868665D01*
X142822569Y-76837675D01*
X142783214Y-76829310D01*
X142593922Y-76829310D01*
X142561465Y-76836208D01*
X142408765Y-76868665D01*
X142408760Y-76868667D01*
X142235838Y-76945658D01*
X142235833Y-76945661D01*
X142165739Y-76996588D01*
X142099933Y-77020068D01*
X142031879Y-77004242D01*
X142019969Y-76996588D01*
X141949874Y-76945661D01*
X141949869Y-76945658D01*
X141776947Y-76868667D01*
X141776942Y-76868665D01*
X141631141Y-76837675D01*
X141591786Y-76829310D01*
X141402494Y-76829310D01*
X141370037Y-76836208D01*
X141217337Y-76868665D01*
X141217332Y-76868667D01*
X141044410Y-76945658D01*
X141044405Y-76945661D01*
X140974311Y-76996588D01*
X140908505Y-77020068D01*
X140840451Y-77004242D01*
X140828541Y-76996588D01*
X140758446Y-76945661D01*
X140758441Y-76945658D01*
X140585519Y-76868667D01*
X140585514Y-76868665D01*
X140439712Y-76837675D01*
X140400358Y-76829310D01*
X140211066Y-76829310D01*
X140178609Y-76836208D01*
X140025909Y-76868665D01*
X140025904Y-76868667D01*
X139852982Y-76945658D01*
X139852977Y-76945661D01*
X139782883Y-76996588D01*
X139717077Y-77020068D01*
X139649023Y-77004242D01*
X139637113Y-76996588D01*
X139567018Y-76945661D01*
X139567013Y-76945658D01*
X139394091Y-76868667D01*
X139394086Y-76868665D01*
X139248285Y-76837675D01*
X139208930Y-76829310D01*
X139019638Y-76829310D01*
X138987181Y-76836208D01*
X138834481Y-76868665D01*
X138834476Y-76868667D01*
X138661554Y-76945658D01*
X138661549Y-76945661D01*
X138591455Y-76996588D01*
X138525649Y-77020068D01*
X138457595Y-77004242D01*
X138445685Y-76996588D01*
X138375590Y-76945661D01*
X138375585Y-76945658D01*
X138202663Y-76868667D01*
X138202658Y-76868665D01*
X138056856Y-76837675D01*
X138017502Y-76829310D01*
X137828210Y-76829310D01*
X137795753Y-76836208D01*
X137643053Y-76868665D01*
X137643048Y-76868667D01*
X137470126Y-76945658D01*
X137470121Y-76945661D01*
X137400027Y-76996588D01*
X137334221Y-77020068D01*
X137266167Y-77004242D01*
X137254257Y-76996588D01*
X137184162Y-76945661D01*
X137184157Y-76945658D01*
X137011235Y-76868667D01*
X137011230Y-76868665D01*
X136865428Y-76837675D01*
X136826074Y-76829310D01*
X136636782Y-76829310D01*
X136604325Y-76836208D01*
X136451625Y-76868665D01*
X136451620Y-76868667D01*
X136278698Y-76945658D01*
X136278693Y-76945661D01*
X136208599Y-76996588D01*
X136142793Y-77020068D01*
X136074739Y-77004242D01*
X136062829Y-76996588D01*
X135992734Y-76945661D01*
X135992729Y-76945658D01*
X135819807Y-76868667D01*
X135819802Y-76868665D01*
X135674000Y-76837675D01*
X135634646Y-76829310D01*
X135445354Y-76829310D01*
X135412897Y-76836208D01*
X135260197Y-76868665D01*
X135260192Y-76868667D01*
X135087270Y-76945658D01*
X135087265Y-76945661D01*
X134934129Y-77056921D01*
X134807466Y-77197595D01*
X134712821Y-77361525D01*
X134712818Y-77361532D01*
X134664946Y-77508869D01*
X134654326Y-77541554D01*
X134634540Y-77729810D01*
X133459168Y-77729810D01*
X133299807Y-77658857D01*
X133299802Y-77658855D01*
X133123481Y-77621378D01*
X133114646Y-77619500D01*
X132925354Y-77619500D01*
X132916519Y-77621378D01*
X132740197Y-77658855D01*
X132740192Y-77658857D01*
X132567270Y-77735848D01*
X132567265Y-77735851D01*
X132414129Y-77847111D01*
X132287466Y-77987785D01*
X132192821Y-78151715D01*
X132192818Y-78151722D01*
X132144680Y-78299877D01*
X132134326Y-78331744D01*
X132114540Y-78520000D01*
X132134326Y-78708256D01*
X132134327Y-78708259D01*
X132192818Y-78888277D01*
X132192821Y-78888284D01*
X132287467Y-79052216D01*
X132405125Y-79182888D01*
X132414129Y-79192888D01*
X132567265Y-79304148D01*
X132567267Y-79304149D01*
X132567270Y-79304151D01*
X132628257Y-79331304D01*
X132651652Y-79341721D01*
X132704888Y-79386972D01*
X132725209Y-79453821D01*
X132706163Y-79521045D01*
X132653797Y-79567299D01*
X132651652Y-79568279D01*
X132567267Y-79605850D01*
X132567265Y-79605851D01*
X132414129Y-79717111D01*
X132287466Y-79857785D01*
X132192821Y-80021715D01*
X132192818Y-80021722D01*
X132152861Y-80144699D01*
X132134326Y-80201744D01*
X132128020Y-80261744D01*
X132114540Y-80390000D01*
X132121655Y-80457703D01*
X132109085Y-80526433D01*
X132061352Y-80577456D01*
X132048771Y-80583942D01*
X131887267Y-80655850D01*
X131887265Y-80655851D01*
X131734129Y-80767111D01*
X131607466Y-80907785D01*
X131512821Y-81071715D01*
X131512818Y-81071722D01*
X131461482Y-81229719D01*
X131454326Y-81251744D01*
X131434540Y-81440000D01*
X131454326Y-81628256D01*
X131454327Y-81628259D01*
X131512818Y-81808277D01*
X131512821Y-81808284D01*
X131607467Y-81972216D01*
X131654255Y-82024179D01*
X131734129Y-82112888D01*
X131887265Y-82224148D01*
X131887270Y-82224151D01*
X132060192Y-82301142D01*
X132060197Y-82301144D01*
X132245354Y-82340500D01*
X132245355Y-82340500D01*
X132434644Y-82340500D01*
X132434646Y-82340500D01*
X132619803Y-82301144D01*
X132792730Y-82224151D01*
X132945871Y-82112888D01*
X133072533Y-81972216D01*
X133167179Y-81808284D01*
X133185036Y-81753325D01*
X133224473Y-81695650D01*
X133288831Y-81668451D01*
X133357677Y-81680365D01*
X133375852Y-81691325D01*
X133407265Y-81714148D01*
X133407270Y-81714151D01*
X133580192Y-81791142D01*
X133580197Y-81791144D01*
X133765354Y-81830500D01*
X133765355Y-81830500D01*
X133954644Y-81830500D01*
X133954646Y-81830500D01*
X134139803Y-81791144D01*
X134312730Y-81714151D01*
X134419681Y-81636446D01*
X134485483Y-81612968D01*
X134543001Y-81623488D01*
X134560192Y-81631142D01*
X134560193Y-81631142D01*
X134560197Y-81631144D01*
X134708364Y-81662637D01*
X134769845Y-81695829D01*
X134803622Y-81756992D01*
X134798970Y-81826706D01*
X134760644Y-81878415D01*
X134761314Y-81879159D01*
X134757645Y-81882462D01*
X134757366Y-81882839D01*
X134756578Y-81883422D01*
X134756485Y-81883506D01*
X134629822Y-82024180D01*
X134535177Y-82188110D01*
X134535174Y-82188117D01*
X134476683Y-82368135D01*
X134476682Y-82368139D01*
X134456896Y-82556395D01*
X134476682Y-82744651D01*
X134476683Y-82744654D01*
X134524788Y-82892707D01*
X134526783Y-82962548D01*
X134490703Y-83022381D01*
X134432638Y-83052315D01*
X134353559Y-83069123D01*
X134353554Y-83069125D01*
X134180632Y-83146116D01*
X134180627Y-83146119D01*
X134027491Y-83257379D01*
X133900828Y-83398053D01*
X133806183Y-83561983D01*
X133806180Y-83561990D01*
X133749060Y-83737788D01*
X133747688Y-83742012D01*
X133727902Y-83930268D01*
X133747688Y-84118524D01*
X133747689Y-84118527D01*
X133806180Y-84298545D01*
X133806183Y-84298552D01*
X133900829Y-84462484D01*
X134009511Y-84583187D01*
X134027491Y-84603156D01*
X134180627Y-84714416D01*
X134180632Y-84714419D01*
X134353554Y-84791410D01*
X134353559Y-84791412D01*
X134538716Y-84830768D01*
X134538717Y-84830768D01*
X134728006Y-84830768D01*
X134728008Y-84830768D01*
X134913165Y-84791412D01*
X135086092Y-84714419D01*
X135239233Y-84603156D01*
X135365895Y-84462484D01*
X135460541Y-84298552D01*
X135519036Y-84118524D01*
X135538822Y-83930268D01*
X135519036Y-83742012D01*
X135470928Y-83593954D01*
X135468934Y-83524114D01*
X135505014Y-83464281D01*
X135563076Y-83434348D01*
X135642159Y-83417539D01*
X135750046Y-83369504D01*
X137625214Y-83369504D01*
X137645000Y-83557760D01*
X137645001Y-83557763D01*
X137703492Y-83737781D01*
X137703495Y-83737788D01*
X137798141Y-83901720D01*
X137870933Y-83982563D01*
X137924803Y-84042392D01*
X138077939Y-84153652D01*
X138077944Y-84153655D01*
X138250866Y-84230646D01*
X138250871Y-84230648D01*
X138436028Y-84270004D01*
X138436029Y-84270004D01*
X138625318Y-84270004D01*
X138625320Y-84270004D01*
X138810477Y-84230648D01*
X138983404Y-84153655D01*
X139136545Y-84042392D01*
X139263207Y-83901720D01*
X139357853Y-83737788D01*
X139416348Y-83557760D01*
X139436134Y-83369504D01*
X139416348Y-83181248D01*
X139377304Y-83061083D01*
X140625304Y-83061083D01*
X140645090Y-83249339D01*
X140645091Y-83249342D01*
X140703582Y-83429360D01*
X140703585Y-83429367D01*
X140798231Y-83593299D01*
X140891431Y-83696808D01*
X140924893Y-83733971D01*
X141078029Y-83845231D01*
X141078034Y-83845234D01*
X141250956Y-83922225D01*
X141250961Y-83922227D01*
X141436118Y-83961583D01*
X141436119Y-83961583D01*
X141625408Y-83961583D01*
X141625410Y-83961583D01*
X141810567Y-83922227D01*
X141983494Y-83845234D01*
X142136635Y-83733971D01*
X142263297Y-83593299D01*
X142357943Y-83429367D01*
X142416438Y-83249339D01*
X142436224Y-83061083D01*
X142424437Y-82948930D01*
X144158120Y-82948930D01*
X144177906Y-83137186D01*
X144177907Y-83137189D01*
X144236398Y-83317207D01*
X144236401Y-83317214D01*
X144331047Y-83481146D01*
X144408073Y-83566692D01*
X144457709Y-83621818D01*
X144610845Y-83733078D01*
X144610850Y-83733081D01*
X144783772Y-83810072D01*
X144783777Y-83810074D01*
X144968934Y-83849430D01*
X144968935Y-83849430D01*
X145158224Y-83849430D01*
X145158226Y-83849430D01*
X145343383Y-83810074D01*
X145516310Y-83733081D01*
X145669451Y-83621818D01*
X145796113Y-83481146D01*
X145890759Y-83317214D01*
X145949254Y-83137186D01*
X145969040Y-82948930D01*
X145949254Y-82760674D01*
X145890759Y-82580646D01*
X145796113Y-82416714D01*
X145669451Y-82276042D01*
X145669450Y-82276041D01*
X145516314Y-82164781D01*
X145516309Y-82164778D01*
X145343387Y-82087787D01*
X145343382Y-82087785D01*
X145197580Y-82056795D01*
X145158226Y-82048430D01*
X144968934Y-82048430D01*
X144936477Y-82055328D01*
X144783777Y-82087785D01*
X144783772Y-82087787D01*
X144610850Y-82164778D01*
X144610845Y-82164781D01*
X144457709Y-82276041D01*
X144331046Y-82416715D01*
X144236401Y-82580645D01*
X144236398Y-82580652D01*
X144190267Y-82722630D01*
X144177906Y-82760674D01*
X144158120Y-82948930D01*
X142424437Y-82948930D01*
X142416438Y-82872827D01*
X142357943Y-82692799D01*
X142263297Y-82528867D01*
X142136635Y-82388195D01*
X142136634Y-82388194D01*
X141983498Y-82276934D01*
X141983493Y-82276931D01*
X141810571Y-82199940D01*
X141810566Y-82199938D01*
X141645160Y-82164781D01*
X141625410Y-82160583D01*
X141436118Y-82160583D01*
X141416368Y-82164781D01*
X141250961Y-82199938D01*
X141250956Y-82199940D01*
X141078034Y-82276931D01*
X141078029Y-82276934D01*
X140924893Y-82388194D01*
X140798230Y-82528868D01*
X140703585Y-82692798D01*
X140703582Y-82692805D01*
X140656637Y-82837288D01*
X140645090Y-82872827D01*
X140625304Y-83061083D01*
X139377304Y-83061083D01*
X139357853Y-83001220D01*
X139263207Y-82837288D01*
X139136545Y-82696616D01*
X139131300Y-82692805D01*
X138983408Y-82585355D01*
X138983403Y-82585352D01*
X138810481Y-82508361D01*
X138810476Y-82508359D01*
X138640732Y-82472280D01*
X138625320Y-82469004D01*
X138436028Y-82469004D01*
X138420616Y-82472280D01*
X138250871Y-82508359D01*
X138250866Y-82508361D01*
X138077944Y-82585352D01*
X138077939Y-82585355D01*
X137924803Y-82696615D01*
X137798140Y-82837289D01*
X137703495Y-83001219D01*
X137703492Y-83001226D01*
X137645001Y-83181244D01*
X137645000Y-83181248D01*
X137625214Y-83369504D01*
X135750046Y-83369504D01*
X135815086Y-83340546D01*
X135968227Y-83229283D01*
X136094889Y-83088611D01*
X136189535Y-82924679D01*
X136248030Y-82744651D01*
X136267816Y-82556395D01*
X136248030Y-82368139D01*
X136189535Y-82188111D01*
X136094889Y-82024179D01*
X135968227Y-81883507D01*
X135965938Y-81881844D01*
X135815090Y-81772246D01*
X135815085Y-81772243D01*
X135642163Y-81695252D01*
X135642158Y-81695250D01*
X135493991Y-81663757D01*
X135432509Y-81630565D01*
X135398733Y-81569402D01*
X135403385Y-81499687D01*
X135441710Y-81447978D01*
X135441042Y-81447236D01*
X135444708Y-81443934D01*
X135444990Y-81443555D01*
X135445782Y-81442967D01*
X135445865Y-81442891D01*
X135445871Y-81442888D01*
X135572533Y-81302216D01*
X135578915Y-81291160D01*
X135629478Y-81242945D01*
X135698084Y-81229719D01*
X135712076Y-81231866D01*
X135846786Y-81260500D01*
X135846787Y-81260500D01*
X136036076Y-81260500D01*
X136036078Y-81260500D01*
X136221235Y-81221144D01*
X136394162Y-81144151D01*
X136464262Y-81093220D01*
X136530066Y-81069741D01*
X136598120Y-81085566D01*
X136610022Y-81093214D01*
X136673539Y-81139362D01*
X136680130Y-81144151D01*
X136853052Y-81221142D01*
X136853057Y-81221144D01*
X137038214Y-81260500D01*
X137038215Y-81260500D01*
X137227504Y-81260500D01*
X137227506Y-81260500D01*
X137412663Y-81221144D01*
X137585590Y-81144151D01*
X137655690Y-81093220D01*
X137721494Y-81069741D01*
X137789548Y-81085566D01*
X137801450Y-81093214D01*
X137864967Y-81139362D01*
X137871558Y-81144151D01*
X138044480Y-81221142D01*
X138044485Y-81221144D01*
X138229642Y-81260500D01*
X138229643Y-81260500D01*
X138418932Y-81260500D01*
X138418934Y-81260500D01*
X138604091Y-81221144D01*
X138777018Y-81144151D01*
X138847118Y-81093220D01*
X138912922Y-81069741D01*
X138980976Y-81085566D01*
X138992878Y-81093214D01*
X139056395Y-81139362D01*
X139062986Y-81144151D01*
X139235908Y-81221142D01*
X139235913Y-81221144D01*
X139421070Y-81260500D01*
X139421071Y-81260500D01*
X139610360Y-81260500D01*
X139610362Y-81260500D01*
X139795519Y-81221144D01*
X139968446Y-81144151D01*
X140038546Y-81093220D01*
X140104350Y-81069741D01*
X140172404Y-81085566D01*
X140184306Y-81093214D01*
X140247823Y-81139362D01*
X140254414Y-81144151D01*
X140427336Y-81221142D01*
X140427341Y-81221144D01*
X140612498Y-81260500D01*
X140612499Y-81260500D01*
X140801788Y-81260500D01*
X140801790Y-81260500D01*
X140986947Y-81221144D01*
X141159874Y-81144151D01*
X141229974Y-81093220D01*
X141295778Y-81069741D01*
X141363832Y-81085566D01*
X141375734Y-81093214D01*
X141439251Y-81139362D01*
X141445842Y-81144151D01*
X141618764Y-81221142D01*
X141618769Y-81221144D01*
X141803926Y-81260500D01*
X141803927Y-81260500D01*
X141993216Y-81260500D01*
X141993218Y-81260500D01*
X142178375Y-81221144D01*
X142351302Y-81144151D01*
X142421402Y-81093220D01*
X142487206Y-81069741D01*
X142555260Y-81085566D01*
X142567162Y-81093214D01*
X142630679Y-81139362D01*
X142637270Y-81144151D01*
X142810192Y-81221142D01*
X142810197Y-81221144D01*
X142995354Y-81260500D01*
X142995355Y-81260500D01*
X143184644Y-81260500D01*
X143184646Y-81260500D01*
X143369803Y-81221144D01*
X143542730Y-81144151D01*
X143612831Y-81093219D01*
X143678637Y-81069740D01*
X143746691Y-81085565D01*
X143758595Y-81093215D01*
X143824357Y-81140994D01*
X143828702Y-81144151D01*
X144001624Y-81221142D01*
X144001629Y-81221144D01*
X144186786Y-81260500D01*
X144186787Y-81260500D01*
X144376076Y-81260500D01*
X144376078Y-81260500D01*
X144561235Y-81221144D01*
X144734162Y-81144151D01*
X144758421Y-81126525D01*
X144824226Y-81103046D01*
X144892280Y-81118871D01*
X144904191Y-81126526D01*
X144997265Y-81194148D01*
X144997270Y-81194151D01*
X145170192Y-81271142D01*
X145170197Y-81271144D01*
X145355354Y-81310500D01*
X145355355Y-81310500D01*
X145544644Y-81310500D01*
X145544646Y-81310500D01*
X145729803Y-81271144D01*
X145902730Y-81194151D01*
X145902731Y-81194149D01*
X145908359Y-81190902D01*
X145909736Y-81193288D01*
X145964056Y-81173858D01*
X146032123Y-81189628D01*
X146044115Y-81197327D01*
X146067269Y-81214150D01*
X146067270Y-81214151D01*
X146240192Y-81291142D01*
X146240197Y-81291144D01*
X146425354Y-81330500D01*
X146425355Y-81330500D01*
X146614644Y-81330500D01*
X146614646Y-81330500D01*
X146799803Y-81291144D01*
X146972730Y-81214151D01*
X147043349Y-81162842D01*
X147109155Y-81139362D01*
X147177209Y-81155187D01*
X147189120Y-81162842D01*
X147287265Y-81234148D01*
X147287270Y-81234151D01*
X147460192Y-81311142D01*
X147460197Y-81311144D01*
X147645354Y-81350500D01*
X147645355Y-81350500D01*
X147777602Y-81350500D01*
X147844641Y-81370185D01*
X147890396Y-81422989D01*
X147900340Y-81492147D01*
X147893031Y-81519797D01*
X147852336Y-81623488D01*
X147815492Y-81717362D01*
X147815490Y-81717369D01*
X147758777Y-81965845D01*
X147739732Y-82219995D01*
X147739732Y-82220004D01*
X147758777Y-82474154D01*
X147809552Y-82696616D01*
X147815492Y-82722637D01*
X147908607Y-82959888D01*
X148036041Y-83180612D01*
X148194950Y-83379877D01*
X148381783Y-83553232D01*
X148592366Y-83696805D01*
X148592371Y-83696807D01*
X148592372Y-83696808D01*
X148592373Y-83696809D01*
X148677468Y-83737788D01*
X148821992Y-83807387D01*
X148821993Y-83807387D01*
X148821996Y-83807389D01*
X149065542Y-83882513D01*
X149317565Y-83920500D01*
X149572435Y-83920500D01*
X149824458Y-83882513D01*
X150068004Y-83807389D01*
X150297634Y-83696805D01*
X150508217Y-83553232D01*
X150695050Y-83379877D01*
X150853959Y-83180612D01*
X150981393Y-82959888D01*
X151074508Y-82722637D01*
X151131222Y-82474157D01*
X151144187Y-82301144D01*
X151150268Y-82220004D01*
X151150268Y-82219995D01*
X151135594Y-82024179D01*
X151131222Y-81965843D01*
X151074508Y-81717363D01*
X150981393Y-81480112D01*
X150981392Y-81480110D01*
X150979698Y-81475794D01*
X150981576Y-81475056D01*
X150971572Y-81414387D01*
X150999280Y-81350246D01*
X151057267Y-81311268D01*
X151094648Y-81305499D01*
X152875352Y-81305499D01*
X152942391Y-81325184D01*
X152988146Y-81377988D01*
X152998090Y-81447146D01*
X152989457Y-81475462D01*
X152990302Y-81475794D01*
X152988607Y-81480110D01*
X152988607Y-81480112D01*
X152980697Y-81500266D01*
X152895492Y-81717362D01*
X152895490Y-81717369D01*
X152838777Y-81965845D01*
X152819732Y-82219995D01*
X152819732Y-82220004D01*
X152838777Y-82474154D01*
X152889552Y-82696616D01*
X152895492Y-82722637D01*
X152988607Y-82959888D01*
X153116041Y-83180612D01*
X153274950Y-83379877D01*
X153461783Y-83553232D01*
X153672366Y-83696805D01*
X153672371Y-83696807D01*
X153672372Y-83696808D01*
X153672373Y-83696809D01*
X153757468Y-83737788D01*
X153901992Y-83807387D01*
X153901993Y-83807387D01*
X153901996Y-83807389D01*
X154145542Y-83882513D01*
X154397565Y-83920500D01*
X154652435Y-83920500D01*
X154904458Y-83882513D01*
X155148004Y-83807389D01*
X155377634Y-83696805D01*
X155588217Y-83553232D01*
X155775050Y-83379877D01*
X155933959Y-83180612D01*
X156061393Y-82959888D01*
X156154508Y-82722637D01*
X156174608Y-82634570D01*
X156208718Y-82573592D01*
X156270379Y-82540734D01*
X156340016Y-82546429D01*
X156395520Y-82588869D01*
X156419268Y-82654579D01*
X156419500Y-82662163D01*
X156419500Y-91175500D01*
X156399815Y-91242539D01*
X156347011Y-91288294D01*
X156295500Y-91299500D01*
X135936300Y-91299500D01*
X135869261Y-91279815D01*
X135823506Y-91227011D01*
X135813562Y-91157853D01*
X135842587Y-91094297D01*
X135901365Y-91056523D01*
X135910513Y-91054211D01*
X136090770Y-91015897D01*
X136263697Y-90938904D01*
X136416838Y-90827641D01*
X136543500Y-90686969D01*
X136638146Y-90523037D01*
X136696641Y-90343009D01*
X136716427Y-90154753D01*
X136696641Y-89966497D01*
X136648487Y-89818294D01*
X138802820Y-89818294D01*
X138822606Y-90006550D01*
X138822607Y-90006553D01*
X138881098Y-90186571D01*
X138881101Y-90186578D01*
X138975747Y-90350510D01*
X139016217Y-90395456D01*
X139102409Y-90491182D01*
X139255545Y-90602442D01*
X139255550Y-90602445D01*
X139428472Y-90679436D01*
X139428477Y-90679438D01*
X139613634Y-90718794D01*
X139613635Y-90718794D01*
X139802924Y-90718794D01*
X139802926Y-90718794D01*
X139988083Y-90679438D01*
X140161010Y-90602445D01*
X140314151Y-90491182D01*
X140440813Y-90350510D01*
X140535459Y-90186578D01*
X140593954Y-90006550D01*
X140613740Y-89818294D01*
X140593954Y-89630038D01*
X140535459Y-89450010D01*
X140440813Y-89286078D01*
X140415108Y-89257530D01*
X142559941Y-89257530D01*
X142579727Y-89445786D01*
X142579728Y-89445789D01*
X142638219Y-89625807D01*
X142638222Y-89625814D01*
X142732868Y-89789746D01*
X142859530Y-89930417D01*
X142859530Y-89930418D01*
X143012666Y-90041678D01*
X143012671Y-90041681D01*
X143185593Y-90118672D01*
X143185598Y-90118674D01*
X143370755Y-90158030D01*
X143370756Y-90158030D01*
X143560045Y-90158030D01*
X143560047Y-90158030D01*
X143745204Y-90118674D01*
X143918131Y-90041681D01*
X144071272Y-89930418D01*
X144197934Y-89789746D01*
X144292580Y-89625814D01*
X144351075Y-89445786D01*
X144370861Y-89257530D01*
X144351075Y-89069274D01*
X144292580Y-88889246D01*
X144197934Y-88725314D01*
X144071272Y-88584642D01*
X144071271Y-88584641D01*
X143918135Y-88473381D01*
X143918130Y-88473378D01*
X143745208Y-88396387D01*
X143745203Y-88396385D01*
X143599401Y-88365395D01*
X143560047Y-88357030D01*
X143370755Y-88357030D01*
X143355479Y-88360277D01*
X143185598Y-88396385D01*
X143185593Y-88396387D01*
X143012671Y-88473378D01*
X143012666Y-88473381D01*
X142859530Y-88584641D01*
X142732867Y-88725315D01*
X142638222Y-88889245D01*
X142638219Y-88889252D01*
X142583395Y-89057985D01*
X142579727Y-89069274D01*
X142559941Y-89257530D01*
X140415108Y-89257530D01*
X140314151Y-89145406D01*
X140274250Y-89116416D01*
X140161014Y-89034145D01*
X140161009Y-89034142D01*
X139988087Y-88957151D01*
X139988082Y-88957149D01*
X139842281Y-88926159D01*
X139802926Y-88917794D01*
X139613634Y-88917794D01*
X139581177Y-88924692D01*
X139428477Y-88957149D01*
X139428472Y-88957151D01*
X139255550Y-89034142D01*
X139255545Y-89034145D01*
X139102409Y-89145405D01*
X138975746Y-89286079D01*
X138881101Y-89450009D01*
X138881098Y-89450016D01*
X138823978Y-89625814D01*
X138822606Y-89630038D01*
X138802820Y-89818294D01*
X136648487Y-89818294D01*
X136638146Y-89786469D01*
X136543500Y-89622537D01*
X136416838Y-89481865D01*
X136416837Y-89481864D01*
X136263701Y-89370604D01*
X136263696Y-89370601D01*
X136090774Y-89293610D01*
X136090769Y-89293608D01*
X135921025Y-89257529D01*
X135905613Y-89254253D01*
X135716321Y-89254253D01*
X135700909Y-89257529D01*
X135531164Y-89293608D01*
X135531159Y-89293610D01*
X135358237Y-89370601D01*
X135358232Y-89370604D01*
X135205096Y-89481864D01*
X135078433Y-89622538D01*
X134983788Y-89786468D01*
X134983785Y-89786475D01*
X134927896Y-89958485D01*
X134925293Y-89966497D01*
X134905507Y-90154753D01*
X134925293Y-90343009D01*
X134925294Y-90343012D01*
X134983785Y-90523030D01*
X134983788Y-90523037D01*
X135078434Y-90686969D01*
X135128557Y-90742636D01*
X135205096Y-90827641D01*
X135358232Y-90938901D01*
X135358237Y-90938904D01*
X135531159Y-91015895D01*
X135531164Y-91015897D01*
X135711415Y-91054210D01*
X135772897Y-91087402D01*
X135806673Y-91148565D01*
X135802021Y-91218280D01*
X135760416Y-91274412D01*
X135695069Y-91299141D01*
X135685634Y-91299500D01*
X117038540Y-91299500D01*
X116971501Y-91279815D01*
X116925746Y-91227011D01*
X116915802Y-91157853D01*
X116944827Y-91094297D01*
X117003605Y-91056523D01*
X117012753Y-91054211D01*
X117193010Y-91015897D01*
X117365937Y-90938904D01*
X117519078Y-90827641D01*
X117645740Y-90686969D01*
X117740386Y-90523037D01*
X117798881Y-90343009D01*
X117818667Y-90154753D01*
X117798881Y-89966497D01*
X117740386Y-89786469D01*
X117645740Y-89622537D01*
X117519078Y-89481865D01*
X117519077Y-89481864D01*
X117441855Y-89425759D01*
X119428410Y-89425759D01*
X119448196Y-89614015D01*
X119448197Y-89614018D01*
X119506688Y-89794036D01*
X119506691Y-89794043D01*
X119601337Y-89957975D01*
X119677507Y-90042570D01*
X119727999Y-90098647D01*
X119881135Y-90209907D01*
X119881140Y-90209910D01*
X120054062Y-90286901D01*
X120054067Y-90286903D01*
X120239224Y-90326259D01*
X120239225Y-90326259D01*
X120428514Y-90326259D01*
X120428516Y-90326259D01*
X120613673Y-90286903D01*
X120786600Y-90209910D01*
X120939741Y-90098647D01*
X121066403Y-89957975D01*
X121161049Y-89794043D01*
X121162049Y-89790963D01*
X121163111Y-89789410D01*
X121163695Y-89788100D01*
X121163934Y-89788206D01*
X121201485Y-89733286D01*
X121265842Y-89706086D01*
X121334689Y-89717998D01*
X121386167Y-89765240D01*
X121403932Y-89832813D01*
X121403303Y-89842238D01*
X121391139Y-89957975D01*
X121391085Y-89958485D01*
X121410871Y-90146741D01*
X121410872Y-90146744D01*
X121469363Y-90326762D01*
X121469366Y-90326769D01*
X121564012Y-90490701D01*
X121664627Y-90602445D01*
X121690674Y-90631373D01*
X121843810Y-90742633D01*
X121843815Y-90742636D01*
X122016737Y-90819627D01*
X122016742Y-90819629D01*
X122201899Y-90858985D01*
X122201900Y-90858985D01*
X122391189Y-90858985D01*
X122391191Y-90858985D01*
X122576348Y-90819629D01*
X122749275Y-90742636D01*
X122902416Y-90631373D01*
X122950590Y-90577870D01*
X130669500Y-90577870D01*
X130669501Y-90577876D01*
X130675908Y-90637483D01*
X130726202Y-90772328D01*
X130726206Y-90772335D01*
X130812452Y-90887544D01*
X130812455Y-90887547D01*
X130927664Y-90973793D01*
X130927671Y-90973797D01*
X131062517Y-91024091D01*
X131062516Y-91024091D01*
X131069444Y-91024835D01*
X131122127Y-91030500D01*
X132917872Y-91030499D01*
X132977483Y-91024091D01*
X133112331Y-90973796D01*
X133227546Y-90887546D01*
X133313796Y-90772331D01*
X133364091Y-90637483D01*
X133370500Y-90577873D01*
X133370499Y-88782128D01*
X133364091Y-88722517D01*
X133354618Y-88697119D01*
X133313797Y-88587671D01*
X133313793Y-88587664D01*
X133227547Y-88472455D01*
X133227544Y-88472452D01*
X133112335Y-88386206D01*
X133112328Y-88386202D01*
X132977482Y-88335908D01*
X132977483Y-88335908D01*
X132917883Y-88329501D01*
X132917881Y-88329500D01*
X132917873Y-88329500D01*
X132917864Y-88329500D01*
X131122129Y-88329500D01*
X131122123Y-88329501D01*
X131062516Y-88335908D01*
X130927671Y-88386202D01*
X130927664Y-88386206D01*
X130812455Y-88472452D01*
X130812452Y-88472455D01*
X130726206Y-88587664D01*
X130726202Y-88587671D01*
X130675908Y-88722517D01*
X130672645Y-88752871D01*
X130669501Y-88782123D01*
X130669500Y-88782135D01*
X130669500Y-90577870D01*
X122950590Y-90577870D01*
X123029078Y-90490701D01*
X123123724Y-90326769D01*
X123182219Y-90146741D01*
X123202005Y-89958485D01*
X123182219Y-89770229D01*
X123123724Y-89590201D01*
X123029078Y-89426269D01*
X122902416Y-89285597D01*
X122898390Y-89282672D01*
X122749279Y-89174336D01*
X122749274Y-89174333D01*
X122576352Y-89097342D01*
X122576347Y-89097340D01*
X122430545Y-89066350D01*
X122391191Y-89057985D01*
X122201899Y-89057985D01*
X122169442Y-89064883D01*
X122016742Y-89097340D01*
X122016737Y-89097342D01*
X121843815Y-89174333D01*
X121843810Y-89174336D01*
X121690674Y-89285596D01*
X121564011Y-89426270D01*
X121469366Y-89590200D01*
X121469359Y-89590215D01*
X121468359Y-89593295D01*
X121467297Y-89594847D01*
X121466720Y-89596144D01*
X121466482Y-89596038D01*
X121428917Y-89650967D01*
X121364556Y-89678159D01*
X121295710Y-89666238D01*
X121244239Y-89618989D01*
X121226483Y-89551414D01*
X121227108Y-89542042D01*
X121239330Y-89425759D01*
X121219544Y-89237503D01*
X121161049Y-89057475D01*
X121114672Y-88977147D01*
X124727634Y-88977147D01*
X124747420Y-89165403D01*
X124747421Y-89165406D01*
X124805912Y-89345424D01*
X124805915Y-89345431D01*
X124900561Y-89509363D01*
X124994793Y-89614018D01*
X125027223Y-89650035D01*
X125180359Y-89761295D01*
X125180364Y-89761298D01*
X125353286Y-89838289D01*
X125353291Y-89838291D01*
X125538448Y-89877647D01*
X125538449Y-89877647D01*
X125727738Y-89877647D01*
X125727740Y-89877647D01*
X125912897Y-89838291D01*
X126085824Y-89761298D01*
X126238965Y-89650035D01*
X126365627Y-89509363D01*
X126460273Y-89345431D01*
X126518768Y-89165403D01*
X126538554Y-88977147D01*
X126518768Y-88788891D01*
X126460273Y-88608863D01*
X126365627Y-88444931D01*
X126238965Y-88304259D01*
X126205533Y-88279969D01*
X126085828Y-88192998D01*
X126085823Y-88192995D01*
X125912901Y-88116004D01*
X125912896Y-88116002D01*
X125767095Y-88085012D01*
X125727740Y-88076647D01*
X125538448Y-88076647D01*
X125505991Y-88083545D01*
X125353291Y-88116002D01*
X125353286Y-88116004D01*
X125180364Y-88192995D01*
X125180359Y-88192998D01*
X125027223Y-88304258D01*
X124900560Y-88444932D01*
X124805915Y-88608862D01*
X124805912Y-88608869D01*
X124749617Y-88782128D01*
X124747420Y-88788891D01*
X124727634Y-88977147D01*
X121114672Y-88977147D01*
X121066403Y-88893543D01*
X120939741Y-88752871D01*
X120939740Y-88752870D01*
X120786604Y-88641610D01*
X120786599Y-88641607D01*
X120613677Y-88564616D01*
X120613672Y-88564614D01*
X120453173Y-88530500D01*
X120428516Y-88525259D01*
X120428515Y-88525259D01*
X120426163Y-88524759D01*
X120376386Y-88497886D01*
X120374693Y-88500171D01*
X120309346Y-88524900D01*
X120299911Y-88525259D01*
X120239224Y-88525259D01*
X120214567Y-88530500D01*
X120054067Y-88564614D01*
X120054062Y-88564616D01*
X119881140Y-88641607D01*
X119881135Y-88641610D01*
X119727999Y-88752870D01*
X119601336Y-88893544D01*
X119506691Y-89057474D01*
X119506688Y-89057481D01*
X119448197Y-89237499D01*
X119448196Y-89237503D01*
X119428410Y-89425759D01*
X117441855Y-89425759D01*
X117416882Y-89407615D01*
X117374216Y-89352285D01*
X117368237Y-89282672D01*
X117400843Y-89220877D01*
X117461681Y-89186520D01*
X117515545Y-89186007D01*
X117603631Y-89204730D01*
X117603632Y-89204730D01*
X117792921Y-89204730D01*
X117792923Y-89204730D01*
X117978080Y-89165374D01*
X118151007Y-89088381D01*
X118304148Y-88977118D01*
X118430810Y-88836446D01*
X118525456Y-88672514D01*
X118583951Y-88492486D01*
X118603737Y-88304230D01*
X118583951Y-88115974D01*
X118525456Y-87935946D01*
X118430810Y-87772014D01*
X118304148Y-87631342D01*
X118304147Y-87631341D01*
X118151011Y-87520081D01*
X118151006Y-87520078D01*
X117978084Y-87443087D01*
X117978079Y-87443085D01*
X117832278Y-87412095D01*
X117792923Y-87403730D01*
X117603631Y-87403730D01*
X117571174Y-87410628D01*
X117418474Y-87443085D01*
X117418469Y-87443087D01*
X117292871Y-87499008D01*
X117223621Y-87508293D01*
X117160344Y-87478665D01*
X117123131Y-87419530D01*
X117123517Y-87378969D01*
X119512525Y-87378969D01*
X119532311Y-87567225D01*
X119532312Y-87567228D01*
X119590803Y-87747246D01*
X119590806Y-87747253D01*
X119685452Y-87911185D01*
X119800863Y-88039361D01*
X119812114Y-88051857D01*
X119965250Y-88163117D01*
X119965255Y-88163120D01*
X120138177Y-88240111D01*
X120138182Y-88240113D01*
X120323339Y-88279469D01*
X120323340Y-88279469D01*
X120325692Y-88279969D01*
X120375468Y-88306841D01*
X120377162Y-88304557D01*
X120442509Y-88279828D01*
X120451944Y-88279469D01*
X120512629Y-88279469D01*
X120512631Y-88279469D01*
X120697788Y-88240113D01*
X120870715Y-88163120D01*
X121023856Y-88051857D01*
X121150518Y-87911185D01*
X121245164Y-87747253D01*
X121303659Y-87567225D01*
X121323445Y-87378969D01*
X121303659Y-87190713D01*
X121246404Y-87014500D01*
X121245166Y-87010691D01*
X121245165Y-87010690D01*
X121245164Y-87010685D01*
X121150518Y-86846753D01*
X121023856Y-86706081D01*
X121023855Y-86706080D01*
X120870719Y-86594820D01*
X120870714Y-86594817D01*
X120868652Y-86593899D01*
X122849073Y-86593899D01*
X122868859Y-86782155D01*
X122868860Y-86782158D01*
X122927351Y-86962176D01*
X122927354Y-86962183D01*
X123022000Y-87126115D01*
X123090983Y-87202728D01*
X123148662Y-87266787D01*
X123301798Y-87378047D01*
X123301803Y-87378050D01*
X123474725Y-87455041D01*
X123474730Y-87455043D01*
X123659887Y-87494399D01*
X123659888Y-87494399D01*
X123849177Y-87494399D01*
X123849179Y-87494399D01*
X124034336Y-87455043D01*
X124207263Y-87378050D01*
X124360404Y-87266787D01*
X124487066Y-87126115D01*
X124502959Y-87098587D01*
X126970691Y-87098587D01*
X126990477Y-87286843D01*
X126990478Y-87286846D01*
X127048969Y-87466864D01*
X127048972Y-87466871D01*
X127143618Y-87630803D01*
X127244233Y-87742547D01*
X127270280Y-87771475D01*
X127423416Y-87882735D01*
X127423421Y-87882738D01*
X127596343Y-87959729D01*
X127596348Y-87959731D01*
X127781505Y-87999087D01*
X127781506Y-87999087D01*
X127970795Y-87999087D01*
X127970797Y-87999087D01*
X128155954Y-87959731D01*
X128328881Y-87882738D01*
X128482022Y-87771475D01*
X128608684Y-87630803D01*
X128703330Y-87466871D01*
X128761825Y-87286843D01*
X128781611Y-87098587D01*
X128772770Y-87014472D01*
X133727902Y-87014472D01*
X133747688Y-87202728D01*
X133747689Y-87202731D01*
X133806180Y-87382749D01*
X133806183Y-87382756D01*
X133900829Y-87546688D01*
X133975844Y-87630000D01*
X134027491Y-87687360D01*
X134180627Y-87798620D01*
X134180632Y-87798623D01*
X134353554Y-87875614D01*
X134353559Y-87875616D01*
X134538716Y-87914972D01*
X134538717Y-87914972D01*
X134728006Y-87914972D01*
X134728008Y-87914972D01*
X134913165Y-87875616D01*
X135086092Y-87798623D01*
X135239193Y-87687389D01*
X138410285Y-87687389D01*
X138430071Y-87875645D01*
X138430072Y-87875648D01*
X138488563Y-88055666D01*
X138488566Y-88055673D01*
X138583212Y-88219605D01*
X138661760Y-88306841D01*
X138709874Y-88360277D01*
X138863010Y-88471537D01*
X138863015Y-88471540D01*
X139035937Y-88548531D01*
X139035942Y-88548533D01*
X139221099Y-88587889D01*
X139221100Y-88587889D01*
X139410389Y-88587889D01*
X139410391Y-88587889D01*
X139595548Y-88548533D01*
X139768475Y-88471540D01*
X139921616Y-88360277D01*
X139946835Y-88332268D01*
X145924527Y-88332268D01*
X145944313Y-88520524D01*
X145944314Y-88520527D01*
X146002805Y-88700545D01*
X146002808Y-88700552D01*
X146097454Y-88864484D01*
X146198896Y-88977146D01*
X146224116Y-89005156D01*
X146377252Y-89116416D01*
X146377257Y-89116419D01*
X146550179Y-89193410D01*
X146550184Y-89193412D01*
X146735341Y-89232768D01*
X146735342Y-89232768D01*
X146924631Y-89232768D01*
X146924633Y-89232768D01*
X147109790Y-89193412D01*
X147282717Y-89116419D01*
X147435858Y-89005156D01*
X147562520Y-88864484D01*
X147657166Y-88700552D01*
X147715661Y-88520524D01*
X147735447Y-88332268D01*
X147715661Y-88144012D01*
X147657166Y-87963984D01*
X147562520Y-87800052D01*
X147490440Y-87719999D01*
X150424473Y-87719999D01*
X150444563Y-88052136D01*
X150444563Y-88052141D01*
X150444564Y-88052142D01*
X150504544Y-88379441D01*
X150504545Y-88379445D01*
X150504546Y-88379449D01*
X150603530Y-88697104D01*
X150603534Y-88697116D01*
X150603537Y-88697123D01*
X150740102Y-89000557D01*
X150912246Y-89285318D01*
X150912251Y-89285326D01*
X151117460Y-89547255D01*
X151352744Y-89782539D01*
X151614673Y-89987748D01*
X151614678Y-89987751D01*
X151614682Y-89987754D01*
X151899443Y-90159898D01*
X152202877Y-90296463D01*
X152202890Y-90296467D01*
X152202895Y-90296469D01*
X152345067Y-90340771D01*
X152520559Y-90395456D01*
X152847858Y-90455436D01*
X153180000Y-90475527D01*
X153512142Y-90455436D01*
X153839441Y-90395456D01*
X154157123Y-90296463D01*
X154460557Y-90159898D01*
X154745318Y-89987754D01*
X154746853Y-89986552D01*
X154888869Y-89875289D01*
X155007252Y-89782542D01*
X155242542Y-89547252D01*
X155441258Y-89293610D01*
X155447748Y-89285326D01*
X155447748Y-89285324D01*
X155447754Y-89285318D01*
X155619898Y-89000557D01*
X155756463Y-88697123D01*
X155855456Y-88379441D01*
X155915436Y-88052142D01*
X155935527Y-87720000D01*
X155915436Y-87387858D01*
X155855456Y-87060559D01*
X155782442Y-86826246D01*
X155756469Y-86742895D01*
X155756467Y-86742890D01*
X155756463Y-86742877D01*
X155619898Y-86439443D01*
X155447754Y-86154682D01*
X155447751Y-86154678D01*
X155447748Y-86154673D01*
X155242539Y-85892744D01*
X155007255Y-85657460D01*
X154745326Y-85452251D01*
X154745318Y-85452246D01*
X154460557Y-85280102D01*
X154157123Y-85143537D01*
X154157116Y-85143534D01*
X154157104Y-85143530D01*
X153839449Y-85044546D01*
X153839445Y-85044545D01*
X153839441Y-85044544D01*
X153512142Y-84984564D01*
X153512141Y-84984563D01*
X153512136Y-84984563D01*
X153208800Y-84966215D01*
X153180000Y-84964473D01*
X153179999Y-84964473D01*
X152847863Y-84984563D01*
X152847857Y-84984564D01*
X152847858Y-84984564D01*
X152520559Y-85044544D01*
X152520556Y-85044544D01*
X152520550Y-85044546D01*
X152202895Y-85143530D01*
X152202879Y-85143536D01*
X152202877Y-85143537D01*
X152077433Y-85199995D01*
X151909464Y-85275592D01*
X151899443Y-85280102D01*
X151892757Y-85284144D01*
X151614673Y-85452251D01*
X151352744Y-85657460D01*
X151117460Y-85892744D01*
X150912251Y-86154673D01*
X150833159Y-86285508D01*
X150740102Y-86439443D01*
X150609194Y-86730309D01*
X150603536Y-86742880D01*
X150603530Y-86742895D01*
X150504546Y-87060550D01*
X150504544Y-87060556D01*
X150504544Y-87060559D01*
X150467679Y-87261722D01*
X150444563Y-87387863D01*
X150424473Y-87719999D01*
X147490440Y-87719999D01*
X147435858Y-87659380D01*
X147397267Y-87631342D01*
X147282721Y-87548119D01*
X147282716Y-87548116D01*
X147109794Y-87471125D01*
X147109789Y-87471123D01*
X146963987Y-87440133D01*
X146924633Y-87431768D01*
X146735341Y-87431768D01*
X146702884Y-87438666D01*
X146550184Y-87471123D01*
X146550179Y-87471125D01*
X146377257Y-87548116D01*
X146377252Y-87548119D01*
X146224116Y-87659379D01*
X146097453Y-87800053D01*
X146002808Y-87963983D01*
X146002805Y-87963990D01*
X145953413Y-88116004D01*
X145944313Y-88144012D01*
X145924527Y-88332268D01*
X139946835Y-88332268D01*
X140048278Y-88219605D01*
X140142924Y-88055673D01*
X140201419Y-87875645D01*
X140221205Y-87687389D01*
X140201419Y-87499133D01*
X140142924Y-87319105D01*
X140048278Y-87155173D01*
X139921616Y-87014501D01*
X139916364Y-87010685D01*
X139844395Y-86958396D01*
X141270183Y-86958396D01*
X141289969Y-87146652D01*
X141289970Y-87146655D01*
X141348461Y-87326673D01*
X141348464Y-87326680D01*
X141443110Y-87490612D01*
X141494887Y-87548116D01*
X141569772Y-87631284D01*
X141722908Y-87742544D01*
X141722913Y-87742547D01*
X141895835Y-87819538D01*
X141895840Y-87819540D01*
X142080997Y-87858896D01*
X142080998Y-87858896D01*
X142270287Y-87858896D01*
X142270289Y-87858896D01*
X142455446Y-87819540D01*
X142628373Y-87742547D01*
X142781514Y-87631284D01*
X142908176Y-87490612D01*
X143002822Y-87326680D01*
X143061317Y-87146652D01*
X143081103Y-86958396D01*
X143061317Y-86770140D01*
X143004351Y-86594817D01*
X143002824Y-86590118D01*
X143002823Y-86590117D01*
X143002822Y-86590112D01*
X142908176Y-86426180D01*
X142781514Y-86285508D01*
X142781473Y-86285478D01*
X143877737Y-86285478D01*
X143897523Y-86473734D01*
X143897524Y-86473737D01*
X143956015Y-86653755D01*
X143956018Y-86653762D01*
X144050664Y-86817694D01*
X144151279Y-86929438D01*
X144177326Y-86958366D01*
X144330462Y-87069626D01*
X144330467Y-87069629D01*
X144503389Y-87146620D01*
X144503394Y-87146622D01*
X144688551Y-87185978D01*
X144688552Y-87185978D01*
X144877841Y-87185978D01*
X144877843Y-87185978D01*
X145063000Y-87146622D01*
X145235927Y-87069629D01*
X145389068Y-86958366D01*
X145515730Y-86817694D01*
X145610376Y-86653762D01*
X145668871Y-86473734D01*
X145688657Y-86285478D01*
X145668871Y-86097222D01*
X145610376Y-85917194D01*
X145580187Y-85864905D01*
X146373139Y-85864905D01*
X146392925Y-86053161D01*
X146392926Y-86053164D01*
X146451417Y-86233182D01*
X146451420Y-86233189D01*
X146546066Y-86397121D01*
X146622288Y-86481774D01*
X146672728Y-86537793D01*
X146825864Y-86649053D01*
X146825869Y-86649056D01*
X146998791Y-86726047D01*
X146998796Y-86726049D01*
X147183953Y-86765405D01*
X147183954Y-86765405D01*
X147373243Y-86765405D01*
X147373245Y-86765405D01*
X147558402Y-86726049D01*
X147731329Y-86649056D01*
X147884470Y-86537793D01*
X148011132Y-86397121D01*
X148105778Y-86233189D01*
X148164273Y-86053161D01*
X148184059Y-85864905D01*
X148164273Y-85676649D01*
X148105778Y-85496621D01*
X148011132Y-85332689D01*
X147884470Y-85192017D01*
X147873407Y-85183979D01*
X147731333Y-85080756D01*
X147731328Y-85080753D01*
X147558406Y-85003762D01*
X147558401Y-85003760D01*
X147412599Y-84972770D01*
X147373245Y-84964405D01*
X147183953Y-84964405D01*
X147151496Y-84971303D01*
X146998796Y-85003760D01*
X146998791Y-85003762D01*
X146825869Y-85080753D01*
X146825864Y-85080756D01*
X146672728Y-85192016D01*
X146546065Y-85332690D01*
X146451420Y-85496620D01*
X146451417Y-85496627D01*
X146392926Y-85676645D01*
X146392925Y-85676649D01*
X146373139Y-85864905D01*
X145580187Y-85864905D01*
X145515730Y-85753262D01*
X145389068Y-85612590D01*
X145377958Y-85604518D01*
X145235931Y-85501329D01*
X145235926Y-85501326D01*
X145063004Y-85424335D01*
X145062999Y-85424333D01*
X144893255Y-85388254D01*
X144877843Y-85384978D01*
X144688551Y-85384978D01*
X144673139Y-85388254D01*
X144503394Y-85424333D01*
X144503389Y-85424335D01*
X144330467Y-85501326D01*
X144330462Y-85501329D01*
X144177326Y-85612589D01*
X144050663Y-85753263D01*
X143956018Y-85917193D01*
X143956015Y-85917200D01*
X143909070Y-86061683D01*
X143897523Y-86097222D01*
X143877737Y-86285478D01*
X142781473Y-86285478D01*
X142628377Y-86174247D01*
X142628372Y-86174244D01*
X142455450Y-86097253D01*
X142455445Y-86097251D01*
X142288110Y-86061684D01*
X142270289Y-86057896D01*
X142080997Y-86057896D01*
X142063176Y-86061684D01*
X141895840Y-86097251D01*
X141895835Y-86097253D01*
X141722913Y-86174244D01*
X141722908Y-86174247D01*
X141569772Y-86285507D01*
X141443109Y-86426181D01*
X141348464Y-86590111D01*
X141348461Y-86590118D01*
X141290386Y-86768856D01*
X141289969Y-86770140D01*
X141270183Y-86958396D01*
X139844395Y-86958396D01*
X139768479Y-86903240D01*
X139768474Y-86903237D01*
X139595552Y-86826246D01*
X139595547Y-86826244D01*
X139449746Y-86795254D01*
X139410391Y-86786889D01*
X139221099Y-86786889D01*
X139188642Y-86793787D01*
X139035942Y-86826244D01*
X139035937Y-86826246D01*
X138863015Y-86903237D01*
X138863010Y-86903240D01*
X138709874Y-87014500D01*
X138583211Y-87155174D01*
X138488566Y-87319104D01*
X138488563Y-87319111D01*
X138430072Y-87499129D01*
X138430071Y-87499133D01*
X138410285Y-87687389D01*
X135239193Y-87687389D01*
X135239233Y-87687360D01*
X135365895Y-87546688D01*
X135460541Y-87382756D01*
X135519036Y-87202728D01*
X135538822Y-87014472D01*
X135519036Y-86826216D01*
X135460541Y-86646188D01*
X135365895Y-86482256D01*
X135239233Y-86341584D01*
X135228170Y-86333546D01*
X135162010Y-86285478D01*
X136251342Y-86285478D01*
X136271128Y-86473734D01*
X136271129Y-86473737D01*
X136329620Y-86653755D01*
X136329623Y-86653762D01*
X136424269Y-86817694D01*
X136524884Y-86929438D01*
X136550931Y-86958366D01*
X136704067Y-87069626D01*
X136704072Y-87069629D01*
X136876994Y-87146620D01*
X136876999Y-87146622D01*
X137062156Y-87185978D01*
X137062157Y-87185978D01*
X137251446Y-87185978D01*
X137251448Y-87185978D01*
X137436605Y-87146622D01*
X137609532Y-87069629D01*
X137762673Y-86958366D01*
X137889335Y-86817694D01*
X137983981Y-86653762D01*
X138042476Y-86473734D01*
X138062262Y-86285478D01*
X138042476Y-86097222D01*
X137983981Y-85917194D01*
X137889335Y-85753262D01*
X137762673Y-85612590D01*
X137751563Y-85604518D01*
X137609536Y-85501329D01*
X137609531Y-85501326D01*
X137436609Y-85424335D01*
X137436604Y-85424333D01*
X137266865Y-85388255D01*
X138971049Y-85388255D01*
X138990835Y-85576511D01*
X138990836Y-85576514D01*
X139049327Y-85756532D01*
X139049330Y-85756539D01*
X139143976Y-85920471D01*
X139220173Y-86005096D01*
X139270638Y-86061143D01*
X139423774Y-86172403D01*
X139423779Y-86172406D01*
X139596701Y-86249397D01*
X139596706Y-86249399D01*
X139781863Y-86288755D01*
X139781864Y-86288755D01*
X139971153Y-86288755D01*
X139971155Y-86288755D01*
X140156312Y-86249399D01*
X140329239Y-86172406D01*
X140482380Y-86061143D01*
X140609042Y-85920471D01*
X140703688Y-85756539D01*
X140762183Y-85576511D01*
X140781969Y-85388255D01*
X140762183Y-85199999D01*
X140703688Y-85019971D01*
X140609042Y-84856039D01*
X140558092Y-84799453D01*
X142251521Y-84799453D01*
X142271307Y-84987709D01*
X142271308Y-84987712D01*
X142329799Y-85167730D01*
X142329802Y-85167737D01*
X142424448Y-85331669D01*
X142507884Y-85424334D01*
X142551110Y-85472341D01*
X142704246Y-85583601D01*
X142704251Y-85583604D01*
X142877173Y-85660595D01*
X142877178Y-85660597D01*
X143062335Y-85699953D01*
X143062336Y-85699953D01*
X143251625Y-85699953D01*
X143251627Y-85699953D01*
X143436784Y-85660597D01*
X143609711Y-85583604D01*
X143762852Y-85472341D01*
X143889514Y-85331669D01*
X143984160Y-85167737D01*
X144042655Y-84987709D01*
X144062441Y-84799453D01*
X144042655Y-84611197D01*
X143984160Y-84431169D01*
X143889514Y-84267237D01*
X143762852Y-84126565D01*
X143751789Y-84118527D01*
X143609715Y-84015304D01*
X143609710Y-84015301D01*
X143436788Y-83938310D01*
X143436783Y-83938308D01*
X143267044Y-83902230D01*
X143251627Y-83898953D01*
X143062335Y-83898953D01*
X143046918Y-83902230D01*
X142877178Y-83938308D01*
X142877173Y-83938310D01*
X142704251Y-84015301D01*
X142704246Y-84015304D01*
X142551110Y-84126564D01*
X142424447Y-84267238D01*
X142329802Y-84431168D01*
X142329799Y-84431175D01*
X142273611Y-84604106D01*
X142271307Y-84611197D01*
X142251521Y-84799453D01*
X140558092Y-84799453D01*
X140482380Y-84715367D01*
X140482379Y-84715366D01*
X140329243Y-84604106D01*
X140329238Y-84604103D01*
X140156316Y-84527112D01*
X140156311Y-84527110D01*
X140010510Y-84496120D01*
X139971155Y-84487755D01*
X139781863Y-84487755D01*
X139749406Y-84494653D01*
X139596706Y-84527110D01*
X139596701Y-84527112D01*
X139423779Y-84604103D01*
X139423774Y-84604106D01*
X139270638Y-84715366D01*
X139143975Y-84856040D01*
X139049330Y-85019970D01*
X139049327Y-85019977D01*
X138990836Y-85199995D01*
X138990835Y-85199999D01*
X138971049Y-85388255D01*
X137266865Y-85388255D01*
X137266860Y-85388254D01*
X137251448Y-85384978D01*
X137062156Y-85384978D01*
X137046744Y-85388254D01*
X136876999Y-85424333D01*
X136876994Y-85424335D01*
X136704072Y-85501326D01*
X136704067Y-85501329D01*
X136550931Y-85612589D01*
X136424268Y-85753263D01*
X136329623Y-85917193D01*
X136329620Y-85917200D01*
X136282675Y-86061683D01*
X136271128Y-86097222D01*
X136251342Y-86285478D01*
X135162010Y-86285478D01*
X135086096Y-86230323D01*
X135086091Y-86230320D01*
X134913169Y-86153329D01*
X134913164Y-86153327D01*
X134767363Y-86122337D01*
X134728008Y-86113972D01*
X134538716Y-86113972D01*
X134506259Y-86120870D01*
X134353559Y-86153327D01*
X134353554Y-86153329D01*
X134180632Y-86230320D01*
X134180627Y-86230323D01*
X134027491Y-86341583D01*
X133900828Y-86482257D01*
X133806183Y-86646187D01*
X133806180Y-86646194D01*
X133747689Y-86826212D01*
X133747688Y-86826216D01*
X133727902Y-87014472D01*
X128772770Y-87014472D01*
X128761825Y-86910331D01*
X128703330Y-86730303D01*
X128608684Y-86566371D01*
X128482022Y-86425699D01*
X128464702Y-86413115D01*
X128328885Y-86314438D01*
X128328880Y-86314435D01*
X128155958Y-86237444D01*
X128155953Y-86237442D01*
X127986562Y-86201438D01*
X127970797Y-86198087D01*
X127781505Y-86198087D01*
X127765740Y-86201438D01*
X127596348Y-86237442D01*
X127596343Y-86237444D01*
X127423421Y-86314435D01*
X127423416Y-86314438D01*
X127270280Y-86425698D01*
X127143617Y-86566372D01*
X127048972Y-86730302D01*
X127048969Y-86730309D01*
X126990478Y-86910327D01*
X126990477Y-86910331D01*
X126970691Y-87098587D01*
X124502959Y-87098587D01*
X124581712Y-86962183D01*
X124640207Y-86782155D01*
X124658353Y-86609494D01*
X124684937Y-86544882D01*
X124742235Y-86504897D01*
X124812054Y-86502237D01*
X124872227Y-86537746D01*
X124889061Y-86560458D01*
X124895381Y-86571404D01*
X124956637Y-86677503D01*
X125057252Y-86789247D01*
X125083299Y-86818175D01*
X125236435Y-86929435D01*
X125236440Y-86929438D01*
X125409362Y-87006429D01*
X125409367Y-87006431D01*
X125594524Y-87045787D01*
X125594525Y-87045787D01*
X125783814Y-87045787D01*
X125783816Y-87045787D01*
X125968973Y-87006431D01*
X126141900Y-86929438D01*
X126295041Y-86818175D01*
X126421703Y-86677503D01*
X126516349Y-86513571D01*
X126574844Y-86333543D01*
X126594630Y-86145287D01*
X126574844Y-85957031D01*
X126516349Y-85777003D01*
X126421703Y-85613071D01*
X126295041Y-85472399D01*
X126295040Y-85472398D01*
X126141904Y-85361138D01*
X126141899Y-85361135D01*
X125968977Y-85284144D01*
X125968972Y-85284142D01*
X125814650Y-85251341D01*
X125783816Y-85244787D01*
X125594524Y-85244787D01*
X125563690Y-85251341D01*
X125409367Y-85284142D01*
X125409362Y-85284144D01*
X125236440Y-85361135D01*
X125236435Y-85361138D01*
X125083299Y-85472398D01*
X124956636Y-85613072D01*
X124861991Y-85777002D01*
X124861988Y-85777009D01*
X124803497Y-85957027D01*
X124803496Y-85957031D01*
X124793393Y-86053161D01*
X124785349Y-86129689D01*
X124758764Y-86194304D01*
X124701467Y-86234288D01*
X124631648Y-86236948D01*
X124571474Y-86201438D01*
X124554641Y-86178727D01*
X124487066Y-86061683D01*
X124360404Y-85921011D01*
X124355159Y-85917200D01*
X124207267Y-85809750D01*
X124207262Y-85809747D01*
X124034340Y-85732756D01*
X124034335Y-85732754D01*
X123880013Y-85699953D01*
X123849179Y-85693399D01*
X123659887Y-85693399D01*
X123629053Y-85699953D01*
X123474730Y-85732754D01*
X123474725Y-85732756D01*
X123301803Y-85809747D01*
X123301798Y-85809750D01*
X123148662Y-85921010D01*
X123021999Y-86061684D01*
X122927354Y-86225614D01*
X122927351Y-86225621D01*
X122871628Y-86397121D01*
X122868859Y-86405643D01*
X122849073Y-86593899D01*
X120868652Y-86593899D01*
X120697792Y-86517826D01*
X120697787Y-86517824D01*
X120530452Y-86482257D01*
X120512631Y-86478469D01*
X120323339Y-86478469D01*
X120305518Y-86482257D01*
X120138182Y-86517824D01*
X120138177Y-86517826D01*
X119965255Y-86594817D01*
X119965250Y-86594820D01*
X119812114Y-86706080D01*
X119685451Y-86846754D01*
X119590806Y-87010684D01*
X119590803Y-87010691D01*
X119532312Y-87190709D01*
X119532311Y-87190713D01*
X119519508Y-87312531D01*
X119512622Y-87378050D01*
X119512525Y-87378969D01*
X117123517Y-87378969D01*
X117123796Y-87349664D01*
X117124474Y-87347504D01*
X117125964Y-87342919D01*
X117145750Y-87154663D01*
X117125964Y-86966407D01*
X117067469Y-86786379D01*
X116972823Y-86622447D01*
X116846161Y-86481775D01*
X116835098Y-86473737D01*
X116693025Y-86370515D01*
X116693022Y-86370513D01*
X116693020Y-86370512D01*
X116681088Y-86365199D01*
X116627854Y-86319949D01*
X116607534Y-86253100D01*
X116626580Y-86185877D01*
X116658640Y-86151606D01*
X116705970Y-86117220D01*
X116832632Y-85976548D01*
X116927278Y-85812616D01*
X116985773Y-85632588D01*
X117005559Y-85444332D01*
X116985773Y-85256076D01*
X116927278Y-85076048D01*
X116880901Y-84995720D01*
X117549849Y-84995720D01*
X117569635Y-85183976D01*
X117569636Y-85183979D01*
X117628127Y-85363997D01*
X117628130Y-85364004D01*
X117722776Y-85527936D01*
X117839400Y-85657460D01*
X117849438Y-85668608D01*
X118002574Y-85779868D01*
X118002579Y-85779871D01*
X118175501Y-85856862D01*
X118175506Y-85856864D01*
X118360663Y-85896220D01*
X118360664Y-85896220D01*
X118549953Y-85896220D01*
X118549955Y-85896220D01*
X118735112Y-85856864D01*
X118908039Y-85779871D01*
X119061180Y-85668608D01*
X119187842Y-85527936D01*
X119282488Y-85364004D01*
X119340983Y-85183976D01*
X119360769Y-84995720D01*
X119340983Y-84807464D01*
X119320159Y-84743376D01*
X120465824Y-84743376D01*
X120485610Y-84931632D01*
X120485611Y-84931635D01*
X120544102Y-85111653D01*
X120544105Y-85111660D01*
X120638751Y-85275592D01*
X120718358Y-85364004D01*
X120765413Y-85416264D01*
X120918549Y-85527524D01*
X120918554Y-85527527D01*
X121091476Y-85604518D01*
X121091481Y-85604520D01*
X121276638Y-85643876D01*
X121276639Y-85643876D01*
X121465928Y-85643876D01*
X121465930Y-85643876D01*
X121651087Y-85604520D01*
X121824014Y-85527527D01*
X121977155Y-85416264D01*
X122103817Y-85275592D01*
X122198463Y-85111660D01*
X122256958Y-84931632D01*
X122276744Y-84743376D01*
X122256958Y-84555120D01*
X122198463Y-84375092D01*
X122184462Y-84350841D01*
X123185531Y-84350841D01*
X123205317Y-84539097D01*
X123205318Y-84539100D01*
X123263809Y-84719118D01*
X123263812Y-84719125D01*
X123358458Y-84883057D01*
X123452690Y-84987712D01*
X123485120Y-85023729D01*
X123638256Y-85134989D01*
X123638261Y-85134992D01*
X123811183Y-85211983D01*
X123811188Y-85211985D01*
X123996345Y-85251341D01*
X123996346Y-85251341D01*
X124185635Y-85251341D01*
X124185637Y-85251341D01*
X124370794Y-85211985D01*
X124543721Y-85134992D01*
X124696862Y-85023729D01*
X124823524Y-84883057D01*
X124918170Y-84719125D01*
X124976665Y-84539097D01*
X124996451Y-84350841D01*
X124976665Y-84162585D01*
X124918170Y-83982557D01*
X124871793Y-83902230D01*
X126241697Y-83902230D01*
X126261483Y-84090486D01*
X126261484Y-84090489D01*
X126319975Y-84270507D01*
X126319978Y-84270514D01*
X126414624Y-84434446D01*
X126508855Y-84539100D01*
X126541286Y-84575118D01*
X126694422Y-84686378D01*
X126694427Y-84686381D01*
X126867349Y-84763372D01*
X126867354Y-84763374D01*
X127052511Y-84802730D01*
X127052512Y-84802730D01*
X127241801Y-84802730D01*
X127241803Y-84802730D01*
X127426960Y-84763374D01*
X127599887Y-84686381D01*
X127753028Y-84575118D01*
X127879690Y-84434446D01*
X127974336Y-84270514D01*
X128032831Y-84090486D01*
X128052617Y-83902230D01*
X128032831Y-83713974D01*
X127974336Y-83533946D01*
X127879690Y-83370014D01*
X127753028Y-83229342D01*
X127752947Y-83229283D01*
X127599891Y-83118081D01*
X127599886Y-83118078D01*
X127471875Y-83061083D01*
X129297863Y-83061083D01*
X129317649Y-83249339D01*
X129317650Y-83249342D01*
X129376141Y-83429360D01*
X129376144Y-83429367D01*
X129470790Y-83593299D01*
X129563990Y-83696808D01*
X129597452Y-83733971D01*
X129750588Y-83845231D01*
X129750593Y-83845234D01*
X129923515Y-83922225D01*
X129923520Y-83922227D01*
X130108677Y-83961583D01*
X130108678Y-83961583D01*
X130297967Y-83961583D01*
X130297969Y-83961583D01*
X130483126Y-83922227D01*
X130656053Y-83845234D01*
X130809194Y-83733971D01*
X130935856Y-83593299D01*
X131030502Y-83429367D01*
X131088997Y-83249339D01*
X131108783Y-83061083D01*
X131088997Y-82872827D01*
X131030502Y-82692799D01*
X130935856Y-82528867D01*
X130809194Y-82388195D01*
X130809193Y-82388194D01*
X130656057Y-82276934D01*
X130656052Y-82276931D01*
X130483130Y-82199940D01*
X130483125Y-82199938D01*
X130317719Y-82164781D01*
X130297969Y-82160583D01*
X130108677Y-82160583D01*
X130088927Y-82164781D01*
X129923520Y-82199938D01*
X129923515Y-82199940D01*
X129750593Y-82276931D01*
X129750588Y-82276934D01*
X129597452Y-82388194D01*
X129470789Y-82528868D01*
X129376144Y-82692798D01*
X129376141Y-82692805D01*
X129329196Y-82837288D01*
X129317649Y-82872827D01*
X129297863Y-83061083D01*
X127471875Y-83061083D01*
X127426964Y-83041087D01*
X127426959Y-83041085D01*
X127281158Y-83010095D01*
X127241803Y-83001730D01*
X127052511Y-83001730D01*
X127039498Y-83004496D01*
X126867354Y-83041085D01*
X126867349Y-83041087D01*
X126694427Y-83118078D01*
X126694422Y-83118081D01*
X126541286Y-83229341D01*
X126414623Y-83370015D01*
X126319978Y-83533945D01*
X126319975Y-83533952D01*
X126267060Y-83696809D01*
X126261483Y-83713974D01*
X126241697Y-83902230D01*
X124871793Y-83902230D01*
X124823524Y-83818625D01*
X124696862Y-83677953D01*
X124696861Y-83677952D01*
X124543725Y-83566692D01*
X124543720Y-83566689D01*
X124370798Y-83489698D01*
X124370793Y-83489696D01*
X124216471Y-83456895D01*
X124185637Y-83450341D01*
X123996345Y-83450341D01*
X123965511Y-83456895D01*
X123811188Y-83489696D01*
X123811183Y-83489698D01*
X123638261Y-83566689D01*
X123638256Y-83566692D01*
X123485120Y-83677952D01*
X123358457Y-83818626D01*
X123263812Y-83982556D01*
X123263809Y-83982563D01*
X123205318Y-84162581D01*
X123205317Y-84162585D01*
X123185531Y-84350841D01*
X122184462Y-84350841D01*
X122103817Y-84211160D01*
X121977155Y-84070488D01*
X121977154Y-84070487D01*
X121824018Y-83959227D01*
X121824013Y-83959224D01*
X121651091Y-83882233D01*
X121651086Y-83882231D01*
X121496764Y-83849430D01*
X121465930Y-83842876D01*
X121276638Y-83842876D01*
X121245804Y-83849430D01*
X121091481Y-83882231D01*
X121091476Y-83882233D01*
X120918554Y-83959224D01*
X120918549Y-83959227D01*
X120765413Y-84070487D01*
X120638750Y-84211161D01*
X120544105Y-84375091D01*
X120544102Y-84375098D01*
X120485611Y-84555116D01*
X120485610Y-84555120D01*
X120465824Y-84743376D01*
X119320159Y-84743376D01*
X119282488Y-84627436D01*
X119187842Y-84463504D01*
X119061180Y-84322832D01*
X119061179Y-84322831D01*
X118908043Y-84211571D01*
X118908038Y-84211568D01*
X118735116Y-84134577D01*
X118735111Y-84134575D01*
X118589310Y-84103585D01*
X118549955Y-84095220D01*
X118360663Y-84095220D01*
X118328206Y-84102118D01*
X118175506Y-84134575D01*
X118175501Y-84134577D01*
X118002579Y-84211568D01*
X118002574Y-84211571D01*
X117849438Y-84322831D01*
X117722775Y-84463505D01*
X117628130Y-84627435D01*
X117628127Y-84627442D01*
X117572238Y-84799453D01*
X117569635Y-84807464D01*
X117549849Y-84995720D01*
X116880901Y-84995720D01*
X116832632Y-84912116D01*
X116705970Y-84771444D01*
X116667338Y-84743376D01*
X116552833Y-84660183D01*
X116552828Y-84660180D01*
X116379906Y-84583189D01*
X116379901Y-84583187D01*
X116234100Y-84552197D01*
X116194745Y-84543832D01*
X116005453Y-84543832D01*
X115972996Y-84550730D01*
X115820296Y-84583187D01*
X115820291Y-84583189D01*
X115647369Y-84660180D01*
X115647364Y-84660183D01*
X115494228Y-84771443D01*
X115367565Y-84912117D01*
X115272920Y-85076047D01*
X115272917Y-85076054D01*
X115214426Y-85256072D01*
X115214425Y-85256076D01*
X115194639Y-85444332D01*
X115214425Y-85632588D01*
X115214426Y-85632591D01*
X115272917Y-85812609D01*
X115272920Y-85812616D01*
X115367566Y-85976548D01*
X115443736Y-86061143D01*
X115494228Y-86117220D01*
X115647364Y-86228480D01*
X115647366Y-86228481D01*
X115647369Y-86228483D01*
X115659297Y-86233793D01*
X115712532Y-86279042D01*
X115732854Y-86345891D01*
X115713809Y-86413115D01*
X115681746Y-86447390D01*
X115634417Y-86481776D01*
X115507756Y-86622448D01*
X115413111Y-86786378D01*
X115413108Y-86786385D01*
X115355988Y-86962183D01*
X115354616Y-86966407D01*
X115334830Y-87154663D01*
X115354616Y-87342919D01*
X115354617Y-87342922D01*
X115413108Y-87522940D01*
X115413111Y-87522947D01*
X115507757Y-87686879D01*
X115608372Y-87798623D01*
X115634419Y-87827551D01*
X115787555Y-87938811D01*
X115787560Y-87938814D01*
X115960482Y-88015805D01*
X115960487Y-88015807D01*
X116145644Y-88055163D01*
X116145645Y-88055163D01*
X116334934Y-88055163D01*
X116334936Y-88055163D01*
X116520093Y-88015807D01*
X116645697Y-87959883D01*
X116714944Y-87950598D01*
X116778221Y-87980226D01*
X116815435Y-88039361D01*
X116814771Y-88109227D01*
X116814065Y-88111472D01*
X116812604Y-88115968D01*
X116812604Y-88115970D01*
X116812603Y-88115974D01*
X116792817Y-88304230D01*
X116812603Y-88492486D01*
X116812604Y-88492489D01*
X116871095Y-88672507D01*
X116871098Y-88672514D01*
X116965744Y-88836446D01*
X117074426Y-88957149D01*
X117092406Y-88977118D01*
X117194601Y-89051367D01*
X117237267Y-89106697D01*
X117243246Y-89176310D01*
X117210640Y-89238105D01*
X117149802Y-89272462D01*
X117095936Y-89272975D01*
X117007854Y-89254253D01*
X117007853Y-89254253D01*
X116818561Y-89254253D01*
X116803149Y-89257529D01*
X116633404Y-89293608D01*
X116633399Y-89293610D01*
X116460477Y-89370601D01*
X116460472Y-89370604D01*
X116307336Y-89481864D01*
X116180673Y-89622538D01*
X116086028Y-89786468D01*
X116086025Y-89786475D01*
X116030136Y-89958485D01*
X116027533Y-89966497D01*
X116007747Y-90154753D01*
X116027533Y-90343009D01*
X116027534Y-90343012D01*
X116086025Y-90523030D01*
X116086028Y-90523037D01*
X116180674Y-90686969D01*
X116230797Y-90742636D01*
X116307336Y-90827641D01*
X116460472Y-90938901D01*
X116460477Y-90938904D01*
X116633399Y-91015895D01*
X116633404Y-91015897D01*
X116813655Y-91054210D01*
X116875137Y-91087402D01*
X116908913Y-91148565D01*
X116904261Y-91218280D01*
X116862656Y-91274412D01*
X116797309Y-91299141D01*
X116787874Y-91299500D01*
X112137044Y-91299500D01*
X112070005Y-91279815D01*
X112024250Y-91227011D01*
X112014306Y-91157853D01*
X112029657Y-91113500D01*
X112040744Y-91094297D01*
X112079179Y-91027725D01*
X112137674Y-90847697D01*
X112157460Y-90659441D01*
X112137674Y-90471185D01*
X112079179Y-90291157D01*
X111984533Y-90127225D01*
X111857871Y-89986553D01*
X111857870Y-89986552D01*
X111704734Y-89875292D01*
X111704729Y-89875289D01*
X111531807Y-89798298D01*
X111531802Y-89798296D01*
X111386000Y-89767306D01*
X111346646Y-89758941D01*
X111180216Y-89758941D01*
X111113177Y-89739256D01*
X111067422Y-89686452D01*
X111057478Y-89617294D01*
X111086503Y-89553738D01*
X111092535Y-89547260D01*
X111092539Y-89547255D01*
X111092538Y-89547255D01*
X111092542Y-89547252D01*
X111231659Y-89369682D01*
X113792728Y-89369682D01*
X113812514Y-89557938D01*
X113812515Y-89557941D01*
X113871006Y-89737959D01*
X113871009Y-89737966D01*
X113965655Y-89901898D01*
X114059887Y-90006553D01*
X114092317Y-90042570D01*
X114245453Y-90153830D01*
X114245458Y-90153833D01*
X114418380Y-90230824D01*
X114418385Y-90230826D01*
X114603542Y-90270182D01*
X114603543Y-90270182D01*
X114792832Y-90270182D01*
X114792834Y-90270182D01*
X114977991Y-90230826D01*
X115150918Y-90153833D01*
X115304059Y-90042570D01*
X115430721Y-89901898D01*
X115525367Y-89737966D01*
X115583862Y-89557938D01*
X115603648Y-89369682D01*
X115583862Y-89181426D01*
X115525367Y-89001398D01*
X115430721Y-88837466D01*
X115304059Y-88696794D01*
X115304058Y-88696793D01*
X115150922Y-88585533D01*
X115150917Y-88585530D01*
X114977995Y-88508539D01*
X114977990Y-88508537D01*
X114832189Y-88477547D01*
X114792834Y-88469182D01*
X114603542Y-88469182D01*
X114583787Y-88473381D01*
X114418385Y-88508537D01*
X114418380Y-88508539D01*
X114245458Y-88585530D01*
X114245453Y-88585533D01*
X114092317Y-88696793D01*
X113965654Y-88837467D01*
X113871009Y-89001397D01*
X113871006Y-89001404D01*
X113814176Y-89176310D01*
X113812514Y-89181426D01*
X113792728Y-89369682D01*
X111231659Y-89369682D01*
X111291258Y-89293610D01*
X111297748Y-89285326D01*
X111297748Y-89285324D01*
X111297754Y-89285318D01*
X111469898Y-89000557D01*
X111606463Y-88697123D01*
X111705456Y-88379441D01*
X111719699Y-88301718D01*
X111751144Y-88239327D01*
X111811331Y-88203840D01*
X111881149Y-88206525D01*
X111933816Y-88241099D01*
X111968688Y-88279828D01*
X111989451Y-88302888D01*
X112142587Y-88414148D01*
X112142592Y-88414151D01*
X112315514Y-88491142D01*
X112315519Y-88491144D01*
X112500676Y-88530500D01*
X112500677Y-88530500D01*
X112689966Y-88530500D01*
X112689968Y-88530500D01*
X112875125Y-88491144D01*
X113048052Y-88414151D01*
X113201193Y-88302888D01*
X113327855Y-88162216D01*
X113422501Y-87998284D01*
X113480996Y-87818256D01*
X113500782Y-87630000D01*
X113480996Y-87441744D01*
X113422501Y-87261716D01*
X113327855Y-87097784D01*
X113302504Y-87069629D01*
X113297158Y-87063691D01*
X113266929Y-87000700D01*
X113275555Y-86931364D01*
X113320297Y-86877699D01*
X113386949Y-86856742D01*
X113430431Y-86865558D01*
X113430863Y-86864231D01*
X113437047Y-86866240D01*
X113622204Y-86905596D01*
X113622205Y-86905596D01*
X113811494Y-86905596D01*
X113811496Y-86905596D01*
X113996653Y-86866240D01*
X114169580Y-86789247D01*
X114322721Y-86677984D01*
X114449383Y-86537312D01*
X114544029Y-86373380D01*
X114602524Y-86193352D01*
X114622310Y-86005096D01*
X114602524Y-85816840D01*
X114544029Y-85636812D01*
X114449383Y-85472880D01*
X114322721Y-85332208D01*
X114322720Y-85332207D01*
X114169584Y-85220947D01*
X114169579Y-85220944D01*
X113996657Y-85143953D01*
X113996652Y-85143951D01*
X113844697Y-85111653D01*
X113811496Y-85104596D01*
X113622204Y-85104596D01*
X113589747Y-85111494D01*
X113437047Y-85143951D01*
X113437042Y-85143953D01*
X113264120Y-85220944D01*
X113264115Y-85220947D01*
X113110979Y-85332207D01*
X112984316Y-85472881D01*
X112889671Y-85636811D01*
X112889668Y-85636818D01*
X112832548Y-85812616D01*
X112831176Y-85816840D01*
X112811390Y-86005096D01*
X112831176Y-86193352D01*
X112831177Y-86193355D01*
X112889668Y-86373373D01*
X112889671Y-86373380D01*
X112984317Y-86537312D01*
X113001115Y-86555968D01*
X113015013Y-86571404D01*
X113045242Y-86634396D01*
X113036616Y-86703731D01*
X112991874Y-86757396D01*
X112925222Y-86778353D01*
X112881739Y-86769539D01*
X112881309Y-86770865D01*
X112875124Y-86768855D01*
X112729323Y-86737865D01*
X112689968Y-86729500D01*
X112500676Y-86729500D01*
X112468219Y-86736398D01*
X112315519Y-86768855D01*
X112315514Y-86768857D01*
X112142592Y-86845848D01*
X112142587Y-86845851D01*
X111989451Y-86957111D01*
X111989450Y-86957112D01*
X111900261Y-87056166D01*
X111840774Y-87092814D01*
X111770917Y-87091483D01*
X111712869Y-87052596D01*
X111689728Y-87010087D01*
X111606463Y-86742877D01*
X111469898Y-86439443D01*
X111297754Y-86154682D01*
X111297751Y-86154678D01*
X111297748Y-86154673D01*
X111092539Y-85892744D01*
X110857255Y-85657460D01*
X110595326Y-85452251D01*
X110595318Y-85452246D01*
X110310557Y-85280102D01*
X110007123Y-85143537D01*
X110007116Y-85143534D01*
X110007104Y-85143530D01*
X109689449Y-85044546D01*
X109689445Y-85044545D01*
X109689441Y-85044544D01*
X109362142Y-84984564D01*
X109362141Y-84984563D01*
X109362136Y-84984563D01*
X109030000Y-84964473D01*
X108697863Y-84984563D01*
X108697857Y-84984564D01*
X108697858Y-84984564D01*
X108370559Y-85044544D01*
X108370556Y-85044544D01*
X108370550Y-85044546D01*
X108052895Y-85143530D01*
X108052879Y-85143536D01*
X108052877Y-85143537D01*
X107927433Y-85199995D01*
X107759464Y-85275592D01*
X107749443Y-85280102D01*
X107742757Y-85284144D01*
X107464673Y-85452251D01*
X107202744Y-85657460D01*
X106967460Y-85892744D01*
X106762251Y-86154673D01*
X106683159Y-86285508D01*
X106590102Y-86439443D01*
X106459194Y-86730309D01*
X106453536Y-86742880D01*
X106453530Y-86742895D01*
X106354546Y-87060550D01*
X106354544Y-87060556D01*
X106354544Y-87060559D01*
X106317679Y-87261722D01*
X106294563Y-87387863D01*
X106274473Y-87720000D01*
X106294563Y-88052136D01*
X106294563Y-88052141D01*
X106294564Y-88052142D01*
X106354544Y-88379441D01*
X106354545Y-88379445D01*
X106354546Y-88379449D01*
X106453530Y-88697104D01*
X106453534Y-88697116D01*
X106453537Y-88697123D01*
X106590102Y-89000557D01*
X106762246Y-89285318D01*
X106762251Y-89285326D01*
X106967460Y-89547255D01*
X107202744Y-89782539D01*
X107464673Y-89987748D01*
X107464678Y-89987751D01*
X107464682Y-89987754D01*
X107749443Y-90159898D01*
X108052877Y-90296463D01*
X108052890Y-90296467D01*
X108052895Y-90296469D01*
X108195067Y-90340771D01*
X108370559Y-90395456D01*
X108697858Y-90455436D01*
X109030000Y-90475527D01*
X109362142Y-90455436D01*
X109689441Y-90395456D01*
X110007123Y-90296463D01*
X110238992Y-90192106D01*
X110308203Y-90182544D01*
X110371598Y-90211918D01*
X110409049Y-90270902D01*
X110408665Y-90340771D01*
X110407813Y-90343501D01*
X110405537Y-90350508D01*
X110366326Y-90471185D01*
X110346540Y-90659441D01*
X110366326Y-90847697D01*
X110366327Y-90847700D01*
X110424818Y-91027718D01*
X110424821Y-91027725D01*
X110474343Y-91113500D01*
X110490816Y-91181401D01*
X110467963Y-91247428D01*
X110413042Y-91290618D01*
X110366956Y-91299500D01*
X105744500Y-91299500D01*
X105677461Y-91279815D01*
X105631706Y-91227011D01*
X105620500Y-91175500D01*
X105620500Y-82220004D01*
X105919732Y-82220004D01*
X105938777Y-82474154D01*
X105989552Y-82696616D01*
X105995492Y-82722637D01*
X106088607Y-82959888D01*
X106216041Y-83180612D01*
X106374950Y-83379877D01*
X106561783Y-83553232D01*
X106772366Y-83696805D01*
X106772371Y-83696807D01*
X106772372Y-83696808D01*
X106772373Y-83696809D01*
X106857468Y-83737788D01*
X107001992Y-83807387D01*
X107001993Y-83807387D01*
X107001996Y-83807389D01*
X107245542Y-83882513D01*
X107497565Y-83920500D01*
X107752435Y-83920500D01*
X108004458Y-83882513D01*
X108248004Y-83807389D01*
X108477634Y-83696805D01*
X108688217Y-83553232D01*
X108875050Y-83379877D01*
X109033959Y-83180612D01*
X109161393Y-82959888D01*
X109254508Y-82722637D01*
X109311222Y-82474157D01*
X109324187Y-82301144D01*
X109330268Y-82220004D01*
X109330268Y-82219995D01*
X109315594Y-82024179D01*
X109311222Y-81965843D01*
X109254508Y-81717363D01*
X109161393Y-81480112D01*
X109161392Y-81480110D01*
X109159698Y-81475794D01*
X109161576Y-81475056D01*
X109151572Y-81414387D01*
X109179280Y-81350246D01*
X109237267Y-81311268D01*
X109274648Y-81305499D01*
X111055352Y-81305499D01*
X111122391Y-81325184D01*
X111168146Y-81377988D01*
X111178090Y-81447146D01*
X111169457Y-81475462D01*
X111170302Y-81475794D01*
X111168607Y-81480110D01*
X111168607Y-81480112D01*
X111160697Y-81500266D01*
X111075492Y-81717362D01*
X111075490Y-81717369D01*
X111018777Y-81965845D01*
X110999732Y-82219995D01*
X110999732Y-82220004D01*
X111018777Y-82474154D01*
X111069552Y-82696616D01*
X111075492Y-82722637D01*
X111168607Y-82959888D01*
X111296041Y-83180612D01*
X111454950Y-83379877D01*
X111641783Y-83553232D01*
X111852366Y-83696805D01*
X111852371Y-83696807D01*
X111852372Y-83696808D01*
X111852373Y-83696809D01*
X111937468Y-83737788D01*
X112081992Y-83807387D01*
X112081993Y-83807387D01*
X112081996Y-83807389D01*
X112325542Y-83882513D01*
X112577565Y-83920500D01*
X112832435Y-83920500D01*
X113084458Y-83882513D01*
X113328004Y-83807389D01*
X113557634Y-83696805D01*
X113768217Y-83553232D01*
X113955050Y-83379877D01*
X114113959Y-83180612D01*
X114182969Y-83061083D01*
X115895594Y-83061083D01*
X115915380Y-83249339D01*
X115915381Y-83249342D01*
X115973872Y-83429360D01*
X115973875Y-83429367D01*
X116068521Y-83593299D01*
X116161721Y-83696808D01*
X116195183Y-83733971D01*
X116348319Y-83845231D01*
X116348324Y-83845234D01*
X116521246Y-83922225D01*
X116521251Y-83922227D01*
X116706408Y-83961583D01*
X116706409Y-83961583D01*
X116895698Y-83961583D01*
X116895700Y-83961583D01*
X117080857Y-83922227D01*
X117253784Y-83845234D01*
X117406925Y-83733971D01*
X117533587Y-83593299D01*
X117628233Y-83429367D01*
X117686728Y-83249339D01*
X117706514Y-83061083D01*
X117686728Y-82872827D01*
X117628233Y-82692799D01*
X117533587Y-82528867D01*
X117406925Y-82388195D01*
X117406924Y-82388194D01*
X117253788Y-82276934D01*
X117253783Y-82276931D01*
X117080861Y-82199940D01*
X117080856Y-82199938D01*
X116915450Y-82164781D01*
X116895700Y-82160583D01*
X116706408Y-82160583D01*
X116686658Y-82164781D01*
X116521251Y-82199938D01*
X116521246Y-82199940D01*
X116348324Y-82276931D01*
X116348319Y-82276934D01*
X116195183Y-82388194D01*
X116068520Y-82528868D01*
X115973875Y-82692798D01*
X115973872Y-82692805D01*
X115926927Y-82837288D01*
X115915380Y-82872827D01*
X115895594Y-83061083D01*
X114182969Y-83061083D01*
X114241393Y-82959888D01*
X114334508Y-82722637D01*
X114391222Y-82474157D01*
X114404187Y-82301144D01*
X114410268Y-82220004D01*
X114410268Y-82219995D01*
X114395594Y-82024179D01*
X114391222Y-81965843D01*
X114367370Y-81861344D01*
X114371644Y-81791605D01*
X114412943Y-81735247D01*
X114468557Y-81713115D01*
X114468289Y-81711851D01*
X114474645Y-81710500D01*
X114474646Y-81710500D01*
X114659803Y-81671144D01*
X114832730Y-81594151D01*
X114922116Y-81529208D01*
X114987921Y-81505729D01*
X115055974Y-81521554D01*
X115067874Y-81529201D01*
X115102215Y-81554151D01*
X115157270Y-81594151D01*
X115330192Y-81671142D01*
X115330197Y-81671144D01*
X115515354Y-81710500D01*
X115515355Y-81710500D01*
X115704644Y-81710500D01*
X115704646Y-81710500D01*
X115889803Y-81671144D01*
X116062730Y-81594151D01*
X116180233Y-81508780D01*
X116246038Y-81485301D01*
X116314092Y-81501126D01*
X116326002Y-81508780D01*
X116354853Y-81529741D01*
X116457270Y-81604151D01*
X116630192Y-81681142D01*
X116630197Y-81681144D01*
X116815354Y-81720500D01*
X116815355Y-81720500D01*
X117004644Y-81720500D01*
X117004646Y-81720500D01*
X117189803Y-81681144D01*
X117362730Y-81604151D01*
X117372829Y-81596812D01*
X117438633Y-81573332D01*
X117506687Y-81589156D01*
X117518592Y-81596805D01*
X117528702Y-81604151D01*
X117643373Y-81655206D01*
X117701624Y-81681142D01*
X117701629Y-81681144D01*
X117886786Y-81720500D01*
X117886787Y-81720500D01*
X118076076Y-81720500D01*
X118076078Y-81720500D01*
X118261235Y-81681144D01*
X118434162Y-81604151D01*
X118504261Y-81553220D01*
X118570064Y-81529741D01*
X118638119Y-81545566D01*
X118650030Y-81553221D01*
X118720125Y-81604148D01*
X118720130Y-81604151D01*
X118893052Y-81681142D01*
X118893057Y-81681144D01*
X119078214Y-81720500D01*
X119078215Y-81720500D01*
X119267504Y-81720500D01*
X119267506Y-81720500D01*
X119452663Y-81681144D01*
X119625590Y-81604151D01*
X119695690Y-81553220D01*
X119761494Y-81529741D01*
X119829548Y-81545566D01*
X119841450Y-81553214D01*
X119909820Y-81602888D01*
X119911558Y-81604151D01*
X120084480Y-81681142D01*
X120084485Y-81681144D01*
X120269642Y-81720500D01*
X120269643Y-81720500D01*
X120458932Y-81720500D01*
X120458934Y-81720500D01*
X120552508Y-81700610D01*
X120622173Y-81705926D01*
X120677906Y-81748063D01*
X120702012Y-81813642D01*
X120686835Y-81881844D01*
X120670438Y-81904871D01*
X120638750Y-81940064D01*
X120544105Y-82103995D01*
X120544102Y-82104002D01*
X120485611Y-82284020D01*
X120485610Y-82284024D01*
X120465824Y-82472280D01*
X120485610Y-82660536D01*
X120485611Y-82660539D01*
X120544102Y-82840557D01*
X120544105Y-82840564D01*
X120638751Y-83004496D01*
X120714487Y-83088609D01*
X120765413Y-83145168D01*
X120918549Y-83256428D01*
X120918554Y-83256431D01*
X121091476Y-83333422D01*
X121091481Y-83333424D01*
X121276638Y-83372780D01*
X121276639Y-83372780D01*
X121465928Y-83372780D01*
X121465930Y-83372780D01*
X121651087Y-83333424D01*
X121824014Y-83256431D01*
X121977155Y-83145168D01*
X122103817Y-83004496D01*
X122198463Y-82840564D01*
X122256958Y-82660536D01*
X122276744Y-82472280D01*
X122256958Y-82284024D01*
X122198463Y-82103996D01*
X122103817Y-81940064D01*
X121989202Y-81812771D01*
X121974653Y-81796613D01*
X121944423Y-81733622D01*
X121953048Y-81664286D01*
X121997790Y-81610621D01*
X122004808Y-81606251D01*
X122008442Y-81604152D01*
X122008446Y-81604151D01*
X122078544Y-81553221D01*
X122144348Y-81529741D01*
X122212403Y-81545566D01*
X122224314Y-81553221D01*
X122294409Y-81604148D01*
X122294414Y-81604151D01*
X122467336Y-81681142D01*
X122467341Y-81681144D01*
X122652498Y-81720500D01*
X122652499Y-81720500D01*
X122841788Y-81720500D01*
X122841790Y-81720500D01*
X123026947Y-81681144D01*
X123199874Y-81604151D01*
X123269974Y-81553220D01*
X123335778Y-81529741D01*
X123403832Y-81545566D01*
X123415734Y-81553214D01*
X123484104Y-81602888D01*
X123485842Y-81604151D01*
X123658764Y-81681142D01*
X123658769Y-81681144D01*
X123843926Y-81720500D01*
X123843927Y-81720500D01*
X124033216Y-81720500D01*
X124033218Y-81720500D01*
X124218375Y-81681144D01*
X124391302Y-81604151D01*
X124461402Y-81553220D01*
X124527206Y-81529741D01*
X124595260Y-81545566D01*
X124607162Y-81553214D01*
X124675532Y-81602888D01*
X124677270Y-81604151D01*
X124850192Y-81681142D01*
X124850197Y-81681144D01*
X125035354Y-81720500D01*
X125035355Y-81720500D01*
X125224644Y-81720500D01*
X125224646Y-81720500D01*
X125409803Y-81681144D01*
X125582730Y-81604151D01*
X125652832Y-81553218D01*
X125718635Y-81529740D01*
X125786689Y-81545565D01*
X125798600Y-81553220D01*
X125868697Y-81604148D01*
X125868702Y-81604151D01*
X126041624Y-81681142D01*
X126041629Y-81681144D01*
X126226786Y-81720500D01*
X126226787Y-81720500D01*
X126416076Y-81720500D01*
X126416078Y-81720500D01*
X126601235Y-81681144D01*
X126774162Y-81604151D01*
X126927303Y-81492888D01*
X127053965Y-81352216D01*
X127082832Y-81302217D01*
X127151861Y-81182656D01*
X127154506Y-81184183D01*
X127191035Y-81140994D01*
X127257834Y-81120509D01*
X127259317Y-81120500D01*
X127414644Y-81120500D01*
X127414646Y-81120500D01*
X127599803Y-81081144D01*
X127772730Y-81004151D01*
X127863997Y-80937841D01*
X127929803Y-80914362D01*
X127997857Y-80930187D01*
X128009763Y-80937839D01*
X128087266Y-80994148D01*
X128087270Y-80994151D01*
X128260192Y-81071142D01*
X128260197Y-81071144D01*
X128445354Y-81110500D01*
X128445355Y-81110500D01*
X128634644Y-81110500D01*
X128634646Y-81110500D01*
X128819803Y-81071144D01*
X128992730Y-80994151D01*
X129145871Y-80882888D01*
X129272533Y-80742216D01*
X129367179Y-80578284D01*
X129425674Y-80398256D01*
X129445460Y-80210000D01*
X129425674Y-80021744D01*
X129367179Y-79841716D01*
X129272533Y-79677784D01*
X129145871Y-79537112D01*
X129128032Y-79524151D01*
X128992734Y-79425851D01*
X128992732Y-79425850D01*
X128992730Y-79425849D01*
X128986309Y-79422990D01*
X128933074Y-79377740D01*
X128912753Y-79310891D01*
X128929360Y-79247712D01*
X128966786Y-79182888D01*
X129027179Y-79078284D01*
X129085674Y-78898256D01*
X129105460Y-78710000D01*
X129085674Y-78521744D01*
X129027179Y-78341716D01*
X128932533Y-78177784D01*
X128805871Y-78037112D01*
X128805870Y-78037111D01*
X128652734Y-77925851D01*
X128652729Y-77925848D01*
X128479807Y-77848857D01*
X128479802Y-77848855D01*
X128301265Y-77810907D01*
X128294646Y-77809500D01*
X128105354Y-77809500D01*
X128098735Y-77810907D01*
X127920197Y-77848855D01*
X127920192Y-77848857D01*
X127747270Y-77925848D01*
X127747266Y-77925851D01*
X127702884Y-77958096D01*
X127637077Y-77981575D01*
X127569024Y-77965749D01*
X127557116Y-77958096D01*
X127512733Y-77925851D01*
X127512729Y-77925848D01*
X127339807Y-77848857D01*
X127339802Y-77848855D01*
X127161265Y-77810907D01*
X127154646Y-77809500D01*
X126965354Y-77809500D01*
X126958733Y-77810907D01*
X126889067Y-77805586D01*
X126833336Y-77763446D01*
X126825581Y-77751628D01*
X126742533Y-77607784D01*
X126615871Y-77467112D01*
X126614931Y-77466429D01*
X126462734Y-77355851D01*
X126462729Y-77355848D01*
X126289807Y-77278857D01*
X126289802Y-77278855D01*
X126154045Y-77250000D01*
X128874540Y-77250000D01*
X128894326Y-77438256D01*
X128894327Y-77438259D01*
X128952818Y-77618277D01*
X128952821Y-77618284D01*
X129047467Y-77782216D01*
X129154304Y-77900870D01*
X129174129Y-77922888D01*
X129327265Y-78034148D01*
X129327270Y-78034151D01*
X129500192Y-78111142D01*
X129500197Y-78111144D01*
X129685354Y-78150500D01*
X129685355Y-78150500D01*
X129874644Y-78150500D01*
X129874646Y-78150500D01*
X130059803Y-78111144D01*
X130232730Y-78034151D01*
X130385871Y-77922888D01*
X130512533Y-77782216D01*
X130607179Y-77618284D01*
X130665674Y-77438256D01*
X130685460Y-77250000D01*
X130665674Y-77061744D01*
X130607179Y-76881716D01*
X130512533Y-76717784D01*
X130385871Y-76577112D01*
X130385870Y-76577111D01*
X130232734Y-76465851D01*
X130232729Y-76465848D01*
X130059807Y-76388857D01*
X130059802Y-76388855D01*
X129914000Y-76357865D01*
X129874646Y-76349500D01*
X129685354Y-76349500D01*
X129652897Y-76356398D01*
X129500197Y-76388855D01*
X129500192Y-76388857D01*
X129327270Y-76465848D01*
X129327265Y-76465851D01*
X129174129Y-76577111D01*
X129047466Y-76717785D01*
X128952821Y-76881715D01*
X128952818Y-76881722D01*
X128894327Y-77061740D01*
X128894326Y-77061744D01*
X128874540Y-77250000D01*
X126154045Y-77250000D01*
X126144000Y-77247865D01*
X126104646Y-77239500D01*
X125915354Y-77239500D01*
X125882897Y-77246398D01*
X125730197Y-77278855D01*
X125730192Y-77278857D01*
X125557270Y-77355848D01*
X125557266Y-77355851D01*
X125502363Y-77395740D01*
X125436557Y-77419219D01*
X125368503Y-77403393D01*
X125356595Y-77395740D01*
X125274162Y-77335849D01*
X125274161Y-77335848D01*
X125101239Y-77258857D01*
X125101234Y-77258855D01*
X124955432Y-77227865D01*
X124916078Y-77219500D01*
X124726786Y-77219500D01*
X124694329Y-77226398D01*
X124541629Y-77258855D01*
X124541624Y-77258857D01*
X124367753Y-77336271D01*
X124298503Y-77345556D01*
X124244432Y-77323310D01*
X124234166Y-77315851D01*
X124234161Y-77315848D01*
X124061239Y-77238857D01*
X124061234Y-77238855D01*
X123915432Y-77207865D01*
X123876078Y-77199500D01*
X123686786Y-77199500D01*
X123654329Y-77206398D01*
X123501629Y-77238855D01*
X123501624Y-77238857D01*
X123328702Y-77315848D01*
X123328698Y-77315851D01*
X123258600Y-77366779D01*
X123192793Y-77390258D01*
X123124739Y-77374432D01*
X123112832Y-77366779D01*
X123042733Y-77315851D01*
X123042729Y-77315848D01*
X122869807Y-77238857D01*
X122869802Y-77238855D01*
X122724001Y-77207865D01*
X122684646Y-77199500D01*
X122495354Y-77199500D01*
X122462897Y-77206398D01*
X122310197Y-77238855D01*
X122310192Y-77238857D01*
X122137270Y-77315848D01*
X122137265Y-77315851D01*
X122067171Y-77366778D01*
X122001365Y-77390258D01*
X121933311Y-77374432D01*
X121921401Y-77366778D01*
X121851306Y-77315851D01*
X121851301Y-77315848D01*
X121678379Y-77238857D01*
X121678374Y-77238855D01*
X121532572Y-77207865D01*
X121493218Y-77199500D01*
X121303926Y-77199500D01*
X121271469Y-77206398D01*
X121118769Y-77238855D01*
X121118764Y-77238857D01*
X120945842Y-77315848D01*
X120945837Y-77315851D01*
X120875743Y-77366778D01*
X120809937Y-77390258D01*
X120741883Y-77374432D01*
X120729973Y-77366778D01*
X120659878Y-77315851D01*
X120659873Y-77315848D01*
X120486951Y-77238857D01*
X120486946Y-77238855D01*
X120341144Y-77207865D01*
X120301790Y-77199500D01*
X120112498Y-77199500D01*
X120080041Y-77206398D01*
X119927341Y-77238855D01*
X119927336Y-77238857D01*
X119754414Y-77315848D01*
X119754410Y-77315850D01*
X119684313Y-77366779D01*
X119618507Y-77390258D01*
X119550453Y-77374432D01*
X119538555Y-77366785D01*
X119468449Y-77315851D01*
X119468445Y-77315848D01*
X119295523Y-77238857D01*
X119295518Y-77238855D01*
X119149716Y-77207865D01*
X119110362Y-77199500D01*
X118921070Y-77199500D01*
X118888613Y-77206398D01*
X118735913Y-77238855D01*
X118735908Y-77238857D01*
X118562986Y-77315848D01*
X118562981Y-77315851D01*
X118492887Y-77366778D01*
X118427081Y-77390258D01*
X118359027Y-77374432D01*
X118347117Y-77366778D01*
X118277022Y-77315851D01*
X118277017Y-77315848D01*
X118104095Y-77238857D01*
X118104090Y-77238855D01*
X117958288Y-77207865D01*
X117918934Y-77199500D01*
X117729642Y-77199500D01*
X117697185Y-77206398D01*
X117544485Y-77238855D01*
X117544480Y-77238857D01*
X117371558Y-77315848D01*
X117371553Y-77315851D01*
X117301459Y-77366778D01*
X117235653Y-77390258D01*
X117167599Y-77374432D01*
X117155689Y-77366778D01*
X117085594Y-77315851D01*
X117085589Y-77315848D01*
X116912667Y-77238857D01*
X116912662Y-77238855D01*
X116766860Y-77207865D01*
X116727506Y-77199500D01*
X116538214Y-77199500D01*
X116505757Y-77206398D01*
X116353057Y-77238855D01*
X116353052Y-77238857D01*
X116180130Y-77315848D01*
X116180125Y-77315851D01*
X116110031Y-77366778D01*
X116044225Y-77390258D01*
X115976171Y-77374432D01*
X115964261Y-77366778D01*
X115894166Y-77315851D01*
X115894161Y-77315848D01*
X115721239Y-77238857D01*
X115721234Y-77238855D01*
X115575433Y-77207865D01*
X115536078Y-77199500D01*
X115346786Y-77199500D01*
X115314329Y-77206398D01*
X115161629Y-77238855D01*
X115161624Y-77238857D01*
X114988702Y-77315848D01*
X114988697Y-77315851D01*
X114835561Y-77427111D01*
X114708898Y-77567785D01*
X114705793Y-77573163D01*
X114655225Y-77621378D01*
X114586618Y-77634599D01*
X114572629Y-77632452D01*
X114470858Y-77610820D01*
X114409379Y-77577629D01*
X114375602Y-77516467D01*
X114375749Y-77461943D01*
X114391222Y-77394157D01*
X114391514Y-77390258D01*
X114410268Y-77140004D01*
X114410268Y-77139995D01*
X114391222Y-76885845D01*
X114390279Y-76881715D01*
X114334508Y-76637363D01*
X114241393Y-76400112D01*
X114153414Y-76247727D01*
X114136942Y-76179829D01*
X114159795Y-76113802D01*
X114214716Y-76070611D01*
X114235004Y-76064443D01*
X114325803Y-76045144D01*
X114498730Y-75968151D01*
X114651871Y-75856888D01*
X114778533Y-75716216D01*
X114873179Y-75552284D01*
X114931674Y-75372256D01*
X114951460Y-75184000D01*
X114931674Y-74995744D01*
X114873179Y-74815716D01*
X114778533Y-74651784D01*
X114651871Y-74511112D01*
X114651870Y-74511111D01*
X114610960Y-74481388D01*
X115587174Y-74481388D01*
X115606960Y-74669644D01*
X115606961Y-74669647D01*
X115665452Y-74849665D01*
X115665455Y-74849672D01*
X115760101Y-75013604D01*
X115886762Y-75154275D01*
X115886763Y-75154276D01*
X116039899Y-75265536D01*
X116039904Y-75265539D01*
X116212826Y-75342530D01*
X116212831Y-75342532D01*
X116397988Y-75381888D01*
X116397989Y-75381888D01*
X116587278Y-75381888D01*
X116587280Y-75381888D01*
X116772437Y-75342532D01*
X116945364Y-75265539D01*
X117098505Y-75154276D01*
X117225167Y-75013604D01*
X117319813Y-74849672D01*
X117378308Y-74669644D01*
X117392200Y-74537464D01*
X119456448Y-74537464D01*
X119476234Y-74725720D01*
X119476235Y-74725723D01*
X119534726Y-74905741D01*
X119534729Y-74905748D01*
X119629375Y-75069680D01*
X119756037Y-75210351D01*
X119756037Y-75210352D01*
X119909173Y-75321612D01*
X119909178Y-75321615D01*
X120082100Y-75398606D01*
X120082105Y-75398608D01*
X120267262Y-75437964D01*
X120267263Y-75437964D01*
X120456552Y-75437964D01*
X120456554Y-75437964D01*
X120641711Y-75398608D01*
X120814638Y-75321615D01*
X120967779Y-75210352D01*
X121094441Y-75069680D01*
X121189087Y-74905748D01*
X121247582Y-74725720D01*
X121267368Y-74537464D01*
X121258527Y-74453350D01*
X122568691Y-74453350D01*
X122588477Y-74641606D01*
X122588478Y-74641609D01*
X122646969Y-74821627D01*
X122646972Y-74821634D01*
X122741618Y-74985566D01*
X122835849Y-75090220D01*
X122868280Y-75126238D01*
X123021416Y-75237498D01*
X123021421Y-75237501D01*
X123194343Y-75314492D01*
X123194348Y-75314494D01*
X123379505Y-75353850D01*
X123379506Y-75353850D01*
X123568795Y-75353850D01*
X123568797Y-75353850D01*
X123753954Y-75314494D01*
X123926881Y-75237501D01*
X124080022Y-75126238D01*
X124206684Y-74985566D01*
X124238765Y-74930000D01*
X137524540Y-74930000D01*
X137544326Y-75118256D01*
X137544327Y-75118259D01*
X137602818Y-75298277D01*
X137602821Y-75298284D01*
X137697467Y-75462216D01*
X137802362Y-75578713D01*
X137824129Y-75602888D01*
X137977265Y-75714148D01*
X137977270Y-75714151D01*
X138150192Y-75791142D01*
X138150197Y-75791144D01*
X138335354Y-75830500D01*
X138335355Y-75830500D01*
X138524644Y-75830500D01*
X138524646Y-75830500D01*
X138709803Y-75791144D01*
X138882730Y-75714151D01*
X139035871Y-75602888D01*
X139162533Y-75462216D01*
X139257179Y-75298284D01*
X139315674Y-75118256D01*
X139335460Y-74930000D01*
X140064540Y-74930000D01*
X140084326Y-75118256D01*
X140084327Y-75118259D01*
X140142818Y-75298277D01*
X140142821Y-75298284D01*
X140237467Y-75462216D01*
X140342362Y-75578713D01*
X140364129Y-75602888D01*
X140517265Y-75714148D01*
X140517270Y-75714151D01*
X140690192Y-75791142D01*
X140690197Y-75791144D01*
X140875354Y-75830500D01*
X140875355Y-75830500D01*
X141064644Y-75830500D01*
X141064646Y-75830500D01*
X141249803Y-75791144D01*
X141422730Y-75714151D01*
X141575871Y-75602888D01*
X141702533Y-75462216D01*
X141797179Y-75298284D01*
X141855674Y-75118256D01*
X141875460Y-74930000D01*
X141855674Y-74741744D01*
X141797179Y-74561716D01*
X141702533Y-74397784D01*
X141575871Y-74257112D01*
X141574561Y-74256160D01*
X141422734Y-74145851D01*
X141422729Y-74145848D01*
X141249807Y-74068857D01*
X141249802Y-74068855D01*
X141097847Y-74036557D01*
X141064646Y-74029500D01*
X140875354Y-74029500D01*
X140842897Y-74036398D01*
X140690197Y-74068855D01*
X140690192Y-74068857D01*
X140517270Y-74145848D01*
X140517265Y-74145851D01*
X140364129Y-74257111D01*
X140237466Y-74397785D01*
X140142821Y-74561715D01*
X140142818Y-74561722D01*
X140084327Y-74741740D01*
X140084326Y-74741744D01*
X140064540Y-74930000D01*
X139335460Y-74930000D01*
X139315674Y-74741744D01*
X139257179Y-74561716D01*
X139162533Y-74397784D01*
X139035871Y-74257112D01*
X139034561Y-74256160D01*
X138882734Y-74145851D01*
X138882729Y-74145848D01*
X138709807Y-74068857D01*
X138709802Y-74068855D01*
X138557847Y-74036557D01*
X138524646Y-74029500D01*
X138335354Y-74029500D01*
X138302897Y-74036398D01*
X138150197Y-74068855D01*
X138150192Y-74068857D01*
X137977270Y-74145848D01*
X137977265Y-74145851D01*
X137824129Y-74257111D01*
X137697466Y-74397785D01*
X137602821Y-74561715D01*
X137602818Y-74561722D01*
X137544327Y-74741740D01*
X137544326Y-74741744D01*
X137524540Y-74930000D01*
X124238765Y-74930000D01*
X124301330Y-74821634D01*
X124359825Y-74641606D01*
X124379611Y-74453350D01*
X124359825Y-74265094D01*
X124301330Y-74085066D01*
X124206684Y-73921134D01*
X124080022Y-73780462D01*
X124080021Y-73780461D01*
X123926885Y-73669201D01*
X123926880Y-73669198D01*
X123906221Y-73660000D01*
X125078540Y-73660000D01*
X125098326Y-73848256D01*
X125098327Y-73848259D01*
X125156818Y-74028277D01*
X125156821Y-74028284D01*
X125251467Y-74192216D01*
X125369095Y-74322855D01*
X125378129Y-74332888D01*
X125531265Y-74444148D01*
X125531270Y-74444151D01*
X125704192Y-74521142D01*
X125704197Y-74521144D01*
X125889354Y-74560500D01*
X125889355Y-74560500D01*
X126078644Y-74560500D01*
X126078646Y-74560500D01*
X126263803Y-74521144D01*
X126436730Y-74444151D01*
X126589871Y-74332888D01*
X126716533Y-74192216D01*
X126811179Y-74028284D01*
X126869674Y-73848256D01*
X126889460Y-73660000D01*
X126869702Y-73472012D01*
X133223214Y-73472012D01*
X133243000Y-73660268D01*
X133243001Y-73660271D01*
X133301492Y-73840289D01*
X133301495Y-73840296D01*
X133396141Y-74004228D01*
X133494173Y-74113103D01*
X133522803Y-74144900D01*
X133675939Y-74256160D01*
X133675944Y-74256163D01*
X133848866Y-74333154D01*
X133848871Y-74333156D01*
X134034028Y-74372512D01*
X134034029Y-74372512D01*
X134223318Y-74372512D01*
X134223320Y-74372512D01*
X134408477Y-74333156D01*
X134581404Y-74256163D01*
X134734545Y-74144900D01*
X134861207Y-74004228D01*
X134955853Y-73840296D01*
X135014348Y-73660268D01*
X135014376Y-73660000D01*
X142604540Y-73660000D01*
X142624326Y-73848256D01*
X142624327Y-73848259D01*
X142682818Y-74028277D01*
X142682821Y-74028284D01*
X142777467Y-74192216D01*
X142895095Y-74322855D01*
X142904129Y-74332888D01*
X143057265Y-74444148D01*
X143057270Y-74444151D01*
X143230192Y-74521142D01*
X143230197Y-74521144D01*
X143415354Y-74560500D01*
X143415355Y-74560500D01*
X143604644Y-74560500D01*
X143604646Y-74560500D01*
X143789803Y-74521144D01*
X143962730Y-74444151D01*
X144115871Y-74332888D01*
X144242533Y-74192216D01*
X144337179Y-74028284D01*
X144395674Y-73848256D01*
X144415460Y-73660000D01*
X145144540Y-73660000D01*
X145164326Y-73848256D01*
X145164327Y-73848259D01*
X145222818Y-74028277D01*
X145222821Y-74028284D01*
X145317467Y-74192216D01*
X145435095Y-74322855D01*
X145444129Y-74332888D01*
X145597265Y-74444148D01*
X145597270Y-74444151D01*
X145770192Y-74521142D01*
X145770197Y-74521144D01*
X145955354Y-74560500D01*
X145955355Y-74560500D01*
X146144644Y-74560500D01*
X146144646Y-74560500D01*
X146329803Y-74521144D01*
X146502730Y-74444151D01*
X146655871Y-74332888D01*
X146782533Y-74192216D01*
X146877179Y-74028284D01*
X146935674Y-73848256D01*
X146954590Y-73668280D01*
X151952744Y-73668280D01*
X151972530Y-73856536D01*
X151972531Y-73856539D01*
X152031022Y-74036557D01*
X152031025Y-74036564D01*
X152125671Y-74200496D01*
X152209081Y-74293132D01*
X152252333Y-74341168D01*
X152405469Y-74452428D01*
X152405474Y-74452431D01*
X152578396Y-74529422D01*
X152578401Y-74529424D01*
X152763558Y-74568780D01*
X152763559Y-74568780D01*
X152952848Y-74568780D01*
X152952850Y-74568780D01*
X153138007Y-74529424D01*
X153310934Y-74452431D01*
X153464075Y-74341168D01*
X153590737Y-74200496D01*
X153685383Y-74036564D01*
X153743878Y-73856536D01*
X153763664Y-73668280D01*
X153743878Y-73480024D01*
X153685383Y-73299996D01*
X153590737Y-73136064D01*
X153464075Y-72995392D01*
X153464074Y-72995391D01*
X153310938Y-72884131D01*
X153310933Y-72884128D01*
X153138011Y-72807137D01*
X153138006Y-72807135D01*
X152992205Y-72776145D01*
X152952850Y-72767780D01*
X152763558Y-72767780D01*
X152731101Y-72774678D01*
X152578401Y-72807135D01*
X152578396Y-72807137D01*
X152405474Y-72884128D01*
X152405469Y-72884131D01*
X152252333Y-72995391D01*
X152125670Y-73136065D01*
X152031025Y-73299995D01*
X152031022Y-73300002D01*
X151975133Y-73472012D01*
X151972530Y-73480024D01*
X151952744Y-73668280D01*
X146954590Y-73668280D01*
X146955460Y-73660000D01*
X146935674Y-73471744D01*
X146877179Y-73291716D01*
X146782533Y-73127784D01*
X146655871Y-72987112D01*
X146644640Y-72978952D01*
X146502734Y-72875851D01*
X146502729Y-72875848D01*
X146329807Y-72798857D01*
X146329802Y-72798855D01*
X146183601Y-72767780D01*
X146144646Y-72759500D01*
X145955354Y-72759500D01*
X145922897Y-72766398D01*
X145770197Y-72798855D01*
X145770192Y-72798857D01*
X145597270Y-72875848D01*
X145597265Y-72875851D01*
X145444129Y-72987111D01*
X145317466Y-73127785D01*
X145222821Y-73291715D01*
X145222818Y-73291722D01*
X145164327Y-73471740D01*
X145164326Y-73471744D01*
X145144540Y-73660000D01*
X144415460Y-73660000D01*
X144395674Y-73471744D01*
X144337179Y-73291716D01*
X144242533Y-73127784D01*
X144115871Y-72987112D01*
X144104640Y-72978952D01*
X143962734Y-72875851D01*
X143962729Y-72875848D01*
X143789807Y-72798857D01*
X143789802Y-72798855D01*
X143643601Y-72767780D01*
X143604646Y-72759500D01*
X143415354Y-72759500D01*
X143382897Y-72766398D01*
X143230197Y-72798855D01*
X143230192Y-72798857D01*
X143057270Y-72875848D01*
X143057265Y-72875851D01*
X142904129Y-72987111D01*
X142777466Y-73127785D01*
X142682821Y-73291715D01*
X142682818Y-73291722D01*
X142624327Y-73471740D01*
X142624326Y-73471744D01*
X142604540Y-73660000D01*
X135014376Y-73660000D01*
X135034134Y-73472012D01*
X135014348Y-73283756D01*
X134955853Y-73103728D01*
X134861207Y-72939796D01*
X134734545Y-72799124D01*
X134734178Y-72798857D01*
X134581408Y-72687863D01*
X134581403Y-72687860D01*
X134408481Y-72610869D01*
X134408476Y-72610867D01*
X134255048Y-72578256D01*
X134223320Y-72571512D01*
X134034028Y-72571512D01*
X134002300Y-72578256D01*
X133848871Y-72610867D01*
X133848866Y-72610869D01*
X133675944Y-72687860D01*
X133675939Y-72687863D01*
X133522803Y-72799123D01*
X133396140Y-72939797D01*
X133301495Y-73103727D01*
X133301492Y-73103734D01*
X133243001Y-73283752D01*
X133243000Y-73283756D01*
X133241293Y-73300002D01*
X133223243Y-73471740D01*
X133223214Y-73472012D01*
X126869702Y-73472012D01*
X126869674Y-73471744D01*
X126811179Y-73291716D01*
X126716533Y-73127784D01*
X126589871Y-72987112D01*
X126578640Y-72978952D01*
X126436734Y-72875851D01*
X126436729Y-72875848D01*
X126263807Y-72798857D01*
X126263802Y-72798855D01*
X126117601Y-72767780D01*
X126078646Y-72759500D01*
X125889354Y-72759500D01*
X125856897Y-72766398D01*
X125704197Y-72798855D01*
X125704192Y-72798857D01*
X125531270Y-72875848D01*
X125531265Y-72875851D01*
X125378129Y-72987111D01*
X125251466Y-73127785D01*
X125156821Y-73291715D01*
X125156818Y-73291722D01*
X125098327Y-73471740D01*
X125098326Y-73471744D01*
X125078540Y-73660000D01*
X123906221Y-73660000D01*
X123753958Y-73592207D01*
X123753953Y-73592205D01*
X123608152Y-73561215D01*
X123568797Y-73552850D01*
X123379505Y-73552850D01*
X123347048Y-73559748D01*
X123194348Y-73592205D01*
X123194343Y-73592207D01*
X123021421Y-73669198D01*
X123021416Y-73669201D01*
X122868280Y-73780461D01*
X122741617Y-73921135D01*
X122646972Y-74085065D01*
X122646969Y-74085072D01*
X122588478Y-74265090D01*
X122588477Y-74265094D01*
X122568691Y-74453350D01*
X121258527Y-74453350D01*
X121247582Y-74349208D01*
X121189087Y-74169180D01*
X121094441Y-74005248D01*
X120967779Y-73864576D01*
X120956713Y-73856536D01*
X120814642Y-73753315D01*
X120814637Y-73753312D01*
X120641715Y-73676321D01*
X120641710Y-73676319D01*
X120495909Y-73645329D01*
X120456554Y-73636964D01*
X120267262Y-73636964D01*
X120234805Y-73643862D01*
X120082105Y-73676319D01*
X120082100Y-73676321D01*
X119909178Y-73753312D01*
X119909173Y-73753315D01*
X119756037Y-73864575D01*
X119629374Y-74005249D01*
X119534729Y-74169179D01*
X119534726Y-74169186D01*
X119478846Y-74341168D01*
X119476234Y-74349208D01*
X119456448Y-74537464D01*
X117392200Y-74537464D01*
X117398094Y-74481388D01*
X117378308Y-74293132D01*
X117319813Y-74113104D01*
X117225167Y-73949172D01*
X117098505Y-73808500D01*
X117098504Y-73808499D01*
X116945368Y-73697239D01*
X116945363Y-73697236D01*
X116772441Y-73620245D01*
X116772436Y-73620243D01*
X116626635Y-73589253D01*
X116587280Y-73580888D01*
X116397988Y-73580888D01*
X116365531Y-73587786D01*
X116212831Y-73620243D01*
X116212826Y-73620245D01*
X116039904Y-73697236D01*
X116039899Y-73697239D01*
X115886763Y-73808499D01*
X115760100Y-73949173D01*
X115665455Y-74113103D01*
X115665452Y-74113110D01*
X115606961Y-74293128D01*
X115606960Y-74293132D01*
X115587174Y-74481388D01*
X114610960Y-74481388D01*
X114498734Y-74399851D01*
X114498729Y-74399848D01*
X114325807Y-74322857D01*
X114325802Y-74322855D01*
X114180000Y-74291865D01*
X114140646Y-74283500D01*
X113951354Y-74283500D01*
X113918897Y-74290398D01*
X113766197Y-74322855D01*
X113766192Y-74322857D01*
X113593270Y-74399848D01*
X113593265Y-74399851D01*
X113440129Y-74511111D01*
X113313466Y-74651785D01*
X113218821Y-74815715D01*
X113218818Y-74815722D01*
X113163633Y-74985566D01*
X113160326Y-74995744D01*
X113146611Y-75126238D01*
X113140540Y-75184000D01*
X113156024Y-75331324D01*
X113143454Y-75400054D01*
X113095722Y-75451077D01*
X113027982Y-75468195D01*
X113014221Y-75466900D01*
X112832440Y-75439500D01*
X112832435Y-75439500D01*
X112577565Y-75439500D01*
X112577559Y-75439500D01*
X112426870Y-75462214D01*
X112325542Y-75477487D01*
X112325538Y-75477488D01*
X112325539Y-75477488D01*
X112325533Y-75477489D01*
X112081992Y-75552612D01*
X111852373Y-75663190D01*
X111852372Y-75663191D01*
X111641782Y-75806768D01*
X111454952Y-75980121D01*
X111454950Y-75980123D01*
X111296041Y-76179388D01*
X111168608Y-76400109D01*
X111075492Y-76637362D01*
X111075490Y-76637369D01*
X111018777Y-76885845D01*
X110999732Y-77139995D01*
X110999732Y-77140004D01*
X111018777Y-77394154D01*
X111070639Y-77621378D01*
X111075492Y-77642637D01*
X111168202Y-77878857D01*
X111170302Y-77884206D01*
X111168433Y-77884939D01*
X111178420Y-77945664D01*
X111150685Y-78009793D01*
X111092682Y-78048747D01*
X111055351Y-78054500D01*
X109274649Y-78054500D01*
X109207610Y-78034815D01*
X109161855Y-77982011D01*
X109151911Y-77912853D01*
X109160542Y-77884538D01*
X109159698Y-77884207D01*
X109188466Y-77810907D01*
X109254508Y-77642637D01*
X109311222Y-77394157D01*
X109319862Y-77278856D01*
X109330268Y-77140004D01*
X109330268Y-77139995D01*
X109311222Y-76885845D01*
X109310279Y-76881715D01*
X109254508Y-76637363D01*
X109161393Y-76400112D01*
X109033959Y-76179388D01*
X108875050Y-75980123D01*
X108688217Y-75806768D01*
X108477634Y-75663195D01*
X108477628Y-75663192D01*
X108477627Y-75663191D01*
X108477626Y-75663190D01*
X108248006Y-75552612D01*
X108248008Y-75552612D01*
X108004466Y-75477489D01*
X108004462Y-75477488D01*
X108004458Y-75477487D01*
X107883231Y-75459214D01*
X107752440Y-75439500D01*
X107752435Y-75439500D01*
X107497565Y-75439500D01*
X107497559Y-75439500D01*
X107346870Y-75462214D01*
X107245542Y-75477487D01*
X107245538Y-75477488D01*
X107245539Y-75477488D01*
X107245533Y-75477489D01*
X107001992Y-75552612D01*
X106772373Y-75663190D01*
X106772372Y-75663191D01*
X106561782Y-75806768D01*
X106374952Y-75980121D01*
X106374950Y-75980123D01*
X106216041Y-76179388D01*
X106088608Y-76400109D01*
X105995492Y-76637362D01*
X105995490Y-76637369D01*
X105938777Y-76885845D01*
X105919732Y-77139995D01*
X105919732Y-77140004D01*
X105938777Y-77394154D01*
X105990639Y-77621378D01*
X105995492Y-77642637D01*
X106088202Y-77878857D01*
X106088608Y-77879890D01*
X106091292Y-77884538D01*
X106216041Y-78100612D01*
X106374950Y-78299877D01*
X106561783Y-78473232D01*
X106772366Y-78616805D01*
X106772371Y-78616807D01*
X106772372Y-78616808D01*
X106772373Y-78616809D01*
X106865421Y-78661618D01*
X107001992Y-78727387D01*
X107001993Y-78727387D01*
X107001996Y-78727389D01*
X107245542Y-78802513D01*
X107497565Y-78840500D01*
X107752435Y-78840500D01*
X108004458Y-78802513D01*
X108248004Y-78727389D01*
X108361700Y-78672635D01*
X108430639Y-78661284D01*
X108494774Y-78689006D01*
X108533740Y-78747001D01*
X108539500Y-78784356D01*
X108539500Y-80575643D01*
X108519815Y-80642682D01*
X108467011Y-80688437D01*
X108397853Y-80698381D01*
X108361699Y-80687363D01*
X108248006Y-80632612D01*
X108248008Y-80632612D01*
X108004466Y-80557489D01*
X108004462Y-80557488D01*
X108004458Y-80557487D01*
X107883231Y-80539214D01*
X107752440Y-80519500D01*
X107752435Y-80519500D01*
X107497565Y-80519500D01*
X107497559Y-80519500D01*
X107340609Y-80543157D01*
X107245542Y-80557487D01*
X107245538Y-80557488D01*
X107245539Y-80557488D01*
X107245533Y-80557489D01*
X107001992Y-80632612D01*
X106772373Y-80743190D01*
X106772372Y-80743191D01*
X106561782Y-80886768D01*
X106374952Y-81060121D01*
X106374950Y-81060123D01*
X106216041Y-81259388D01*
X106088608Y-81480109D01*
X105995492Y-81717362D01*
X105995490Y-81717369D01*
X105938777Y-81965845D01*
X105919732Y-82219995D01*
X105919732Y-82220004D01*
X105620500Y-82220004D01*
X105620500Y-73072665D01*
X105640185Y-73005626D01*
X105692989Y-72959871D01*
X105762147Y-72949927D01*
X105825703Y-72978952D01*
X105851887Y-73010666D01*
X105947463Y-73176211D01*
X105947465Y-73176214D01*
X106074129Y-73316888D01*
X106227265Y-73428148D01*
X106227270Y-73428151D01*
X106400192Y-73505142D01*
X106400197Y-73505144D01*
X106585354Y-73544500D01*
X106585355Y-73544500D01*
X106774644Y-73544500D01*
X106774646Y-73544500D01*
X106959803Y-73505144D01*
X107132730Y-73428151D01*
X107285871Y-73316888D01*
X107412533Y-73176216D01*
X107507179Y-73012284D01*
X107565674Y-72832256D01*
X107585460Y-72644000D01*
X107565674Y-72455744D01*
X107507179Y-72275716D01*
X107456892Y-72188616D01*
X107440419Y-72120715D01*
X107463272Y-72054689D01*
X107518193Y-72011498D01*
X107587747Y-72004857D01*
X107614713Y-72013336D01*
X107661174Y-72034022D01*
X107846331Y-72073378D01*
X107846332Y-72073378D01*
X108035621Y-72073378D01*
X108035623Y-72073378D01*
X108220780Y-72034022D01*
X108220787Y-72034018D01*
X108220834Y-72034004D01*
X108220870Y-72034002D01*
X108227137Y-72032671D01*
X108227380Y-72033816D01*
X108290675Y-72032003D01*
X108350511Y-72068079D01*
X108381343Y-72130778D01*
X108373384Y-72200193D01*
X108351311Y-72234904D01*
X108233466Y-72365784D01*
X108138821Y-72529715D01*
X108138818Y-72529722D01*
X108080327Y-72709740D01*
X108080326Y-72709744D01*
X108060540Y-72898000D01*
X108080326Y-73086256D01*
X108080327Y-73086259D01*
X108138818Y-73266277D01*
X108138821Y-73266284D01*
X108233467Y-73430216D01*
X108360128Y-73570888D01*
X108360129Y-73570888D01*
X108513265Y-73682148D01*
X108513270Y-73682151D01*
X108686192Y-73759142D01*
X108686197Y-73759144D01*
X108871354Y-73798500D01*
X108871355Y-73798500D01*
X109060644Y-73798500D01*
X109060646Y-73798500D01*
X109245803Y-73759144D01*
X109418730Y-73682151D01*
X109571871Y-73570888D01*
X109698533Y-73430216D01*
X109793179Y-73266284D01*
X109822131Y-73177178D01*
X109861568Y-73119504D01*
X109925927Y-73092305D01*
X109994773Y-73104219D01*
X110012944Y-73115176D01*
X110030297Y-73127784D01*
X110039725Y-73134634D01*
X110212647Y-73211625D01*
X110212652Y-73211627D01*
X110397809Y-73250983D01*
X110397810Y-73250983D01*
X110587099Y-73250983D01*
X110587101Y-73250983D01*
X110772258Y-73211627D01*
X110945185Y-73134634D01*
X111098326Y-73023371D01*
X111224988Y-72882699D01*
X111319634Y-72718767D01*
X111378129Y-72538739D01*
X111397915Y-72350483D01*
X111378129Y-72162227D01*
X111319634Y-71982199D01*
X111252512Y-71865940D01*
X111224990Y-71818270D01*
X111224989Y-71818269D01*
X111224988Y-71818267D01*
X111183404Y-71772084D01*
X111153176Y-71709095D01*
X111160586Y-71649528D01*
X112278664Y-71649528D01*
X112298450Y-71837784D01*
X112298451Y-71837787D01*
X112356942Y-72017805D01*
X112356945Y-72017812D01*
X112451591Y-72181744D01*
X112569599Y-72312805D01*
X112578253Y-72322416D01*
X112731389Y-72433676D01*
X112731394Y-72433679D01*
X112904316Y-72510670D01*
X112904321Y-72510672D01*
X113089478Y-72550028D01*
X113089479Y-72550028D01*
X113278768Y-72550028D01*
X113278770Y-72550028D01*
X113463927Y-72510672D01*
X113636854Y-72433679D01*
X113789995Y-72322416D01*
X113793297Y-72318748D01*
X113852777Y-72282098D01*
X113922634Y-72283423D01*
X113980686Y-72322305D01*
X114008500Y-72386399D01*
X114008770Y-72414675D01*
X113988996Y-72602827D01*
X114008782Y-72791083D01*
X114008783Y-72791086D01*
X114067274Y-72971104D01*
X114067277Y-72971111D01*
X114161923Y-73135043D01*
X114199863Y-73177179D01*
X114288585Y-73275715D01*
X114441721Y-73386975D01*
X114441726Y-73386978D01*
X114614648Y-73463969D01*
X114614653Y-73463971D01*
X114799810Y-73503327D01*
X114799811Y-73503327D01*
X114989100Y-73503327D01*
X114989102Y-73503327D01*
X115174259Y-73463971D01*
X115347186Y-73386978D01*
X115500327Y-73275715D01*
X115626989Y-73135043D01*
X115721635Y-72971111D01*
X115780130Y-72791083D01*
X115799916Y-72602827D01*
X115780130Y-72414571D01*
X115721635Y-72234543D01*
X115626989Y-72070611D01*
X115500327Y-71929939D01*
X115430301Y-71879062D01*
X115347190Y-71818678D01*
X115347185Y-71818675D01*
X115174263Y-71741684D01*
X115174258Y-71741682D01*
X115020943Y-71709095D01*
X114989102Y-71702327D01*
X114799810Y-71702327D01*
X114767969Y-71709095D01*
X114614653Y-71741682D01*
X114614648Y-71741684D01*
X114441726Y-71818675D01*
X114441721Y-71818678D01*
X114288585Y-71929938D01*
X114288581Y-71929942D01*
X114285275Y-71933614D01*
X114225787Y-71970260D01*
X114155930Y-71968927D01*
X114097884Y-71930038D01*
X114070077Y-71865940D01*
X114069808Y-71837687D01*
X114089584Y-71649528D01*
X114069798Y-71461272D01*
X114032618Y-71346846D01*
X116707475Y-71346846D01*
X116727261Y-71535102D01*
X116727262Y-71535105D01*
X116785753Y-71715123D01*
X116785756Y-71715130D01*
X116880402Y-71879062D01*
X116973267Y-71982199D01*
X117007064Y-72019734D01*
X117160200Y-72130994D01*
X117160205Y-72130997D01*
X117333127Y-72207988D01*
X117333132Y-72207990D01*
X117518289Y-72247346D01*
X117518290Y-72247346D01*
X117707579Y-72247346D01*
X117707581Y-72247346D01*
X117892738Y-72207990D01*
X118065665Y-72130997D01*
X118218806Y-72019734D01*
X118345468Y-71879062D01*
X118382178Y-71815477D01*
X118432744Y-71767263D01*
X118501351Y-71754039D01*
X118566216Y-71780007D01*
X118606745Y-71836921D01*
X118607496Y-71839160D01*
X118665541Y-72017805D01*
X118665544Y-72017812D01*
X118760190Y-72181744D01*
X118878198Y-72312805D01*
X118886852Y-72322416D01*
X119039988Y-72433676D01*
X119039993Y-72433679D01*
X119212915Y-72510670D01*
X119212920Y-72510672D01*
X119398077Y-72550028D01*
X119398078Y-72550028D01*
X119587367Y-72550028D01*
X119587369Y-72550028D01*
X119772526Y-72510672D01*
X119945453Y-72433679D01*
X120098594Y-72322416D01*
X120225256Y-72181744D01*
X120251666Y-72136000D01*
X121268540Y-72136000D01*
X121288326Y-72324256D01*
X121288327Y-72324259D01*
X121346818Y-72504277D01*
X121346821Y-72504284D01*
X121441467Y-72668216D01*
X121522559Y-72758277D01*
X121568129Y-72808888D01*
X121721265Y-72920148D01*
X121721270Y-72920151D01*
X121894192Y-72997142D01*
X121894197Y-72997144D01*
X122079354Y-73036500D01*
X122079355Y-73036500D01*
X122268644Y-73036500D01*
X122268646Y-73036500D01*
X122453803Y-72997144D01*
X122626730Y-72920151D01*
X122779871Y-72808888D01*
X122906533Y-72668216D01*
X123001179Y-72504284D01*
X123038312Y-72390000D01*
X138794540Y-72390000D01*
X138814326Y-72578256D01*
X138814327Y-72578259D01*
X138872818Y-72758277D01*
X138872821Y-72758284D01*
X138967467Y-72922216D01*
X139034931Y-72997142D01*
X139094129Y-73062888D01*
X139247265Y-73174148D01*
X139247270Y-73174151D01*
X139420192Y-73251142D01*
X139420197Y-73251144D01*
X139605354Y-73290500D01*
X139605355Y-73290500D01*
X139794644Y-73290500D01*
X139794646Y-73290500D01*
X139979803Y-73251144D01*
X140152730Y-73174151D01*
X140305871Y-73062888D01*
X140432533Y-72922216D01*
X140527179Y-72758284D01*
X140585674Y-72578256D01*
X140605460Y-72390000D01*
X147684540Y-72390000D01*
X147704326Y-72578256D01*
X147704327Y-72578259D01*
X147762818Y-72758277D01*
X147762821Y-72758284D01*
X147857467Y-72922216D01*
X147924931Y-72997142D01*
X147984129Y-73062888D01*
X148137265Y-73174148D01*
X148137270Y-73174151D01*
X148310192Y-73251142D01*
X148310197Y-73251144D01*
X148495354Y-73290500D01*
X148495355Y-73290500D01*
X148684644Y-73290500D01*
X148684646Y-73290500D01*
X148869803Y-73251144D01*
X149042730Y-73174151D01*
X149195871Y-73062888D01*
X149322533Y-72922216D01*
X149417179Y-72758284D01*
X149475674Y-72578256D01*
X149495460Y-72390000D01*
X149475674Y-72201744D01*
X149417179Y-72021716D01*
X149322533Y-71857784D01*
X149195871Y-71717112D01*
X149193143Y-71715130D01*
X149042734Y-71605851D01*
X149042729Y-71605848D01*
X148869807Y-71528857D01*
X148869802Y-71528855D01*
X148724001Y-71497865D01*
X148684646Y-71489500D01*
X148495354Y-71489500D01*
X148462897Y-71496398D01*
X148310197Y-71528855D01*
X148310192Y-71528857D01*
X148137270Y-71605848D01*
X148137265Y-71605851D01*
X147984129Y-71717111D01*
X147857466Y-71857785D01*
X147762821Y-72021715D01*
X147762818Y-72021722D01*
X147704830Y-72200193D01*
X147704326Y-72201744D01*
X147684540Y-72390000D01*
X140605460Y-72390000D01*
X140585674Y-72201744D01*
X140527179Y-72021716D01*
X140432533Y-71857784D01*
X140305871Y-71717112D01*
X140303143Y-71715130D01*
X140152734Y-71605851D01*
X140152729Y-71605848D01*
X139979807Y-71528857D01*
X139979802Y-71528855D01*
X139834000Y-71497865D01*
X139794646Y-71489500D01*
X139605354Y-71489500D01*
X139572897Y-71496398D01*
X139420197Y-71528855D01*
X139420192Y-71528857D01*
X139247270Y-71605848D01*
X139247265Y-71605851D01*
X139094129Y-71717111D01*
X138967466Y-71857785D01*
X138872821Y-72021715D01*
X138872818Y-72021722D01*
X138814830Y-72200193D01*
X138814326Y-72201744D01*
X138794540Y-72390000D01*
X123038312Y-72390000D01*
X123059674Y-72324256D01*
X123079460Y-72136000D01*
X123059674Y-71947744D01*
X123001179Y-71767716D01*
X122906533Y-71603784D01*
X122779871Y-71463112D01*
X122779870Y-71463111D01*
X122626734Y-71351851D01*
X122626729Y-71351848D01*
X122453807Y-71274857D01*
X122453802Y-71274855D01*
X122300793Y-71242333D01*
X122268646Y-71235500D01*
X122079354Y-71235500D01*
X122047207Y-71242333D01*
X121894197Y-71274855D01*
X121894192Y-71274857D01*
X121721270Y-71351848D01*
X121721265Y-71351851D01*
X121568129Y-71463111D01*
X121441466Y-71603785D01*
X121346821Y-71767715D01*
X121346818Y-71767722D01*
X121294111Y-71929939D01*
X121288326Y-71947744D01*
X121268540Y-72136000D01*
X120251666Y-72136000D01*
X120319902Y-72017812D01*
X120378397Y-71837784D01*
X120398183Y-71649528D01*
X120378397Y-71461272D01*
X120323835Y-71293351D01*
X120319904Y-71281250D01*
X120319903Y-71281249D01*
X120319902Y-71281244D01*
X120225256Y-71117312D01*
X120098594Y-70976640D01*
X120056839Y-70946303D01*
X119945457Y-70865379D01*
X119945452Y-70865376D01*
X119772530Y-70788385D01*
X119772525Y-70788383D01*
X119626724Y-70757393D01*
X119587369Y-70749028D01*
X119398077Y-70749028D01*
X119365620Y-70755926D01*
X119212920Y-70788383D01*
X119212915Y-70788385D01*
X119039993Y-70865376D01*
X119039988Y-70865379D01*
X118886852Y-70976639D01*
X118760188Y-71117313D01*
X118760186Y-71117316D01*
X118723478Y-71180896D01*
X118672911Y-71229111D01*
X118604304Y-71242333D01*
X118539439Y-71216365D01*
X118498911Y-71159450D01*
X118498179Y-71157269D01*
X118440711Y-70980398D01*
X118440116Y-70978567D01*
X118440113Y-70978561D01*
X118439004Y-70976640D01*
X118345468Y-70814630D01*
X118218806Y-70673958D01*
X118189759Y-70652854D01*
X118065669Y-70562697D01*
X118065664Y-70562694D01*
X117892742Y-70485703D01*
X117892737Y-70485701D01*
X117746936Y-70454711D01*
X117707581Y-70446346D01*
X117518289Y-70446346D01*
X117485832Y-70453244D01*
X117333132Y-70485701D01*
X117333127Y-70485703D01*
X117160205Y-70562694D01*
X117160200Y-70562697D01*
X117007064Y-70673957D01*
X116880401Y-70814631D01*
X116785756Y-70978561D01*
X116785753Y-70978568D01*
X116731895Y-71144328D01*
X116727261Y-71158590D01*
X116707475Y-71346846D01*
X114032618Y-71346846D01*
X114015236Y-71293351D01*
X114011305Y-71281250D01*
X114011304Y-71281249D01*
X114011303Y-71281244D01*
X113916657Y-71117312D01*
X113789995Y-70976640D01*
X113748240Y-70946303D01*
X113636858Y-70865379D01*
X113636853Y-70865376D01*
X113463931Y-70788385D01*
X113463926Y-70788383D01*
X113318125Y-70757393D01*
X113278770Y-70749028D01*
X113089478Y-70749028D01*
X113057021Y-70755926D01*
X112904321Y-70788383D01*
X112904316Y-70788385D01*
X112731394Y-70865376D01*
X112731389Y-70865379D01*
X112578253Y-70976639D01*
X112451590Y-71117313D01*
X112356945Y-71281243D01*
X112356942Y-71281250D01*
X112319573Y-71396262D01*
X112298450Y-71461272D01*
X112278664Y-71649528D01*
X111160586Y-71649528D01*
X111161801Y-71639760D01*
X111202671Y-71588796D01*
X111350670Y-71481269D01*
X111477332Y-71340597D01*
X111571978Y-71176665D01*
X111630473Y-70996637D01*
X111650259Y-70808381D01*
X111630473Y-70620125D01*
X111571978Y-70440097D01*
X111477332Y-70276165D01*
X111350670Y-70135493D01*
X111350669Y-70135492D01*
X111197533Y-70024232D01*
X111197528Y-70024229D01*
X111024606Y-69947238D01*
X111024601Y-69947236D01*
X110870279Y-69914435D01*
X110839445Y-69907881D01*
X110650153Y-69907881D01*
X110619319Y-69914435D01*
X110464996Y-69947236D01*
X110464991Y-69947238D01*
X110292069Y-70024229D01*
X110292064Y-70024232D01*
X110138928Y-70135492D01*
X110012265Y-70276166D01*
X109917620Y-70440096D01*
X109917617Y-70440103D01*
X109860162Y-70616934D01*
X109859125Y-70620125D01*
X109839339Y-70808381D01*
X109859125Y-70996637D01*
X109859126Y-70996640D01*
X109917617Y-71176658D01*
X109917620Y-71176665D01*
X110012266Y-71340597D01*
X110053847Y-71386777D01*
X110084077Y-71449768D01*
X110075452Y-71519103D01*
X110034583Y-71570067D01*
X109886582Y-71677596D01*
X109759921Y-71818268D01*
X109665276Y-71982198D01*
X109665274Y-71982202D01*
X109636323Y-72071304D01*
X109596885Y-72128979D01*
X109532526Y-72156177D01*
X109463679Y-72144262D01*
X109445507Y-72133303D01*
X109418734Y-72113851D01*
X109418729Y-72113848D01*
X109245807Y-72036857D01*
X109245802Y-72036855D01*
X109095258Y-72004857D01*
X109060646Y-71997500D01*
X108871354Y-71997500D01*
X108846513Y-72002780D01*
X108686186Y-72036857D01*
X108686119Y-72036880D01*
X108686077Y-72036881D01*
X108679840Y-72038207D01*
X108679597Y-72037065D01*
X108616278Y-72038868D01*
X108556449Y-72002780D01*
X108525629Y-71940076D01*
X108533601Y-71870662D01*
X108555661Y-71835977D01*
X108673510Y-71705094D01*
X108768156Y-71541162D01*
X108826651Y-71361134D01*
X108846437Y-71172878D01*
X108826651Y-70984622D01*
X108771417Y-70814630D01*
X108768158Y-70804600D01*
X108768157Y-70804599D01*
X108768156Y-70804594D01*
X108673510Y-70640662D01*
X108546848Y-70499990D01*
X108546847Y-70499989D01*
X108393711Y-70388729D01*
X108393706Y-70388726D01*
X108220784Y-70311735D01*
X108220779Y-70311733D01*
X108053444Y-70276166D01*
X108035623Y-70272378D01*
X107846331Y-70272378D01*
X107828510Y-70276166D01*
X107661174Y-70311733D01*
X107661169Y-70311735D01*
X107488247Y-70388726D01*
X107488242Y-70388729D01*
X107335106Y-70499989D01*
X107208443Y-70640663D01*
X107113798Y-70804593D01*
X107113795Y-70804600D01*
X107056675Y-70980398D01*
X107055303Y-70984622D01*
X107035517Y-71172878D01*
X107055303Y-71361134D01*
X107055304Y-71361137D01*
X107113795Y-71541155D01*
X107113797Y-71541159D01*
X107113798Y-71541162D01*
X107151145Y-71605849D01*
X107164085Y-71628262D01*
X107180557Y-71696162D01*
X107157704Y-71762189D01*
X107102782Y-71805379D01*
X107033229Y-71812020D01*
X107006261Y-71803540D01*
X106959807Y-71782857D01*
X106959802Y-71782855D01*
X106814000Y-71751865D01*
X106774646Y-71743500D01*
X106585354Y-71743500D01*
X106552897Y-71750398D01*
X106400197Y-71782855D01*
X106400192Y-71782857D01*
X106227270Y-71859848D01*
X106227265Y-71859851D01*
X106074129Y-71971111D01*
X105947466Y-72111785D01*
X105851887Y-72277334D01*
X105801320Y-72325549D01*
X105732713Y-72338773D01*
X105667849Y-72312805D01*
X105627320Y-72255891D01*
X105620500Y-72215334D01*
X105620500Y-69827044D01*
X114465645Y-69827044D01*
X114485431Y-70015300D01*
X114485432Y-70015303D01*
X114543923Y-70195321D01*
X114543926Y-70195328D01*
X114638572Y-70359260D01*
X114711364Y-70440103D01*
X114765234Y-70499932D01*
X114918370Y-70611192D01*
X114918375Y-70611195D01*
X115091297Y-70688186D01*
X115091302Y-70688188D01*
X115276459Y-70727544D01*
X115276460Y-70727544D01*
X115465749Y-70727544D01*
X115465751Y-70727544D01*
X115650908Y-70688188D01*
X115823835Y-70611195D01*
X115976976Y-70499932D01*
X116103638Y-70359260D01*
X116184283Y-70219579D01*
X123437875Y-70219579D01*
X123457661Y-70407835D01*
X123457662Y-70407838D01*
X123516153Y-70587856D01*
X123516156Y-70587863D01*
X123610802Y-70751795D01*
X123667379Y-70814630D01*
X123737464Y-70892467D01*
X123890600Y-71003727D01*
X123890605Y-71003730D01*
X124063527Y-71080721D01*
X124063532Y-71080723D01*
X124248689Y-71120079D01*
X124248690Y-71120079D01*
X124437979Y-71120079D01*
X124437981Y-71120079D01*
X124623138Y-71080723D01*
X124796065Y-71003730D01*
X124949206Y-70892467D01*
X125075868Y-70751795D01*
X125170514Y-70587863D01*
X125229009Y-70407835D01*
X125248795Y-70219579D01*
X125229009Y-70031323D01*
X125170514Y-69851295D01*
X125075868Y-69687363D01*
X124949206Y-69546691D01*
X124889950Y-69503639D01*
X124796069Y-69435430D01*
X124796064Y-69435427D01*
X124623142Y-69358436D01*
X124623137Y-69358434D01*
X124477336Y-69327444D01*
X124437981Y-69319079D01*
X124248689Y-69319079D01*
X124216232Y-69325977D01*
X124063532Y-69358434D01*
X124063527Y-69358436D01*
X123890605Y-69435427D01*
X123890600Y-69435430D01*
X123737467Y-69546688D01*
X123737464Y-69546690D01*
X123737464Y-69546691D01*
X123649376Y-69644523D01*
X123645694Y-69648612D01*
X123597744Y-69678152D01*
X123590663Y-69721523D01*
X123586258Y-69729873D01*
X123516155Y-69851297D01*
X123516153Y-69851301D01*
X123459965Y-70024232D01*
X123457661Y-70031323D01*
X123437875Y-70219579D01*
X116184283Y-70219579D01*
X116198284Y-70195328D01*
X116256779Y-70015300D01*
X116276565Y-69827044D01*
X116256779Y-69638788D01*
X116198284Y-69458760D01*
X116103638Y-69294828D01*
X115976976Y-69154156D01*
X115976975Y-69154155D01*
X115926948Y-69117808D01*
X116707475Y-69117808D01*
X116727261Y-69306064D01*
X116727262Y-69306067D01*
X116785753Y-69486085D01*
X116785756Y-69486092D01*
X116880402Y-69650024D01*
X116980225Y-69760888D01*
X117007064Y-69790696D01*
X117160200Y-69901956D01*
X117160205Y-69901959D01*
X117333127Y-69978950D01*
X117333132Y-69978952D01*
X117518289Y-70018308D01*
X117518290Y-70018308D01*
X117707579Y-70018308D01*
X117707581Y-70018308D01*
X117892738Y-69978952D01*
X118065665Y-69901959D01*
X118218806Y-69790696D01*
X118345468Y-69650024D01*
X118405440Y-69546149D01*
X118440109Y-69486101D01*
X118440109Y-69486099D01*
X118440114Y-69486092D01*
X118440116Y-69486083D01*
X118441125Y-69483819D01*
X118442067Y-69482710D01*
X118443364Y-69480464D01*
X118443774Y-69480700D01*
X118486367Y-69430576D01*
X118553213Y-69410244D01*
X118604845Y-69420958D01*
X118680194Y-69454506D01*
X118865351Y-69493862D01*
X118865352Y-69493862D01*
X119054641Y-69493862D01*
X119054643Y-69493862D01*
X119239800Y-69454506D01*
X119412727Y-69377513D01*
X119565868Y-69266250D01*
X119692530Y-69125578D01*
X119756987Y-69013935D01*
X121783620Y-69013935D01*
X121803406Y-69202191D01*
X121803407Y-69202194D01*
X121861898Y-69382212D01*
X121861901Y-69382219D01*
X121956547Y-69546151D01*
X122048804Y-69648612D01*
X122083209Y-69686823D01*
X122236345Y-69798083D01*
X122236350Y-69798086D01*
X122409272Y-69875077D01*
X122409277Y-69875079D01*
X122594434Y-69914435D01*
X122594435Y-69914435D01*
X122783724Y-69914435D01*
X122783726Y-69914435D01*
X122968883Y-69875079D01*
X123141810Y-69798086D01*
X123294951Y-69686823D01*
X123386723Y-69584900D01*
X123434669Y-69555360D01*
X123441751Y-69511989D01*
X123446157Y-69503639D01*
X123451802Y-69493862D01*
X123516259Y-69382219D01*
X123574754Y-69202191D01*
X123586756Y-69088000D01*
X125332540Y-69088000D01*
X125352326Y-69276256D01*
X125352327Y-69276259D01*
X125410818Y-69456277D01*
X125410821Y-69456284D01*
X125505467Y-69620216D01*
X125604203Y-69729873D01*
X125632129Y-69760888D01*
X125785265Y-69872148D01*
X125785270Y-69872151D01*
X125958192Y-69949142D01*
X125958197Y-69949144D01*
X126143354Y-69988500D01*
X126143355Y-69988500D01*
X126332644Y-69988500D01*
X126332646Y-69988500D01*
X126517803Y-69949144D01*
X126690730Y-69872151D01*
X126843871Y-69760888D01*
X126970533Y-69620216D01*
X127065179Y-69456284D01*
X127123674Y-69276256D01*
X127143460Y-69088000D01*
X129142540Y-69088000D01*
X129162326Y-69276256D01*
X129162327Y-69276259D01*
X129220818Y-69456277D01*
X129220821Y-69456284D01*
X129315467Y-69620216D01*
X129414203Y-69729873D01*
X129442129Y-69760888D01*
X129595265Y-69872148D01*
X129595270Y-69872151D01*
X129768192Y-69949142D01*
X129768197Y-69949144D01*
X129953354Y-69988500D01*
X129953355Y-69988500D01*
X130142644Y-69988500D01*
X130142646Y-69988500D01*
X130327803Y-69949144D01*
X130500730Y-69872151D01*
X130554916Y-69832783D01*
X131175196Y-69832783D01*
X131194982Y-70021039D01*
X131194983Y-70021042D01*
X131253474Y-70201060D01*
X131253477Y-70201067D01*
X131348123Y-70364999D01*
X131422058Y-70447112D01*
X131474785Y-70505671D01*
X131627921Y-70616931D01*
X131627926Y-70616934D01*
X131800848Y-70693925D01*
X131800853Y-70693927D01*
X131986010Y-70733283D01*
X131986011Y-70733283D01*
X132175300Y-70733283D01*
X132175302Y-70733283D01*
X132360459Y-70693927D01*
X132431853Y-70662139D01*
X132501101Y-70652854D01*
X132564378Y-70682482D01*
X132601592Y-70741617D01*
X132605608Y-70762454D01*
X132624931Y-70946300D01*
X132624932Y-70946303D01*
X132683423Y-71126321D01*
X132683426Y-71126328D01*
X132778072Y-71290260D01*
X132864977Y-71386777D01*
X132904734Y-71430932D01*
X133057870Y-71542192D01*
X133057875Y-71542195D01*
X133230797Y-71619186D01*
X133230802Y-71619188D01*
X133415959Y-71658544D01*
X133415960Y-71658544D01*
X133605249Y-71658544D01*
X133605251Y-71658544D01*
X133790408Y-71619188D01*
X133963335Y-71542195D01*
X134116476Y-71430932D01*
X134243138Y-71290260D01*
X134337784Y-71126328D01*
X134339840Y-71120000D01*
X142604540Y-71120000D01*
X142624326Y-71308256D01*
X142624327Y-71308259D01*
X142682818Y-71488277D01*
X142682821Y-71488284D01*
X142777467Y-71652216D01*
X142885400Y-71772087D01*
X142904129Y-71792888D01*
X143057265Y-71904148D01*
X143057270Y-71904151D01*
X143230192Y-71981142D01*
X143230197Y-71981144D01*
X143415354Y-72020500D01*
X143415355Y-72020500D01*
X143604644Y-72020500D01*
X143604646Y-72020500D01*
X143789803Y-71981144D01*
X143962730Y-71904151D01*
X144115871Y-71792888D01*
X144242533Y-71652216D01*
X144337179Y-71488284D01*
X144395674Y-71308256D01*
X144415460Y-71120000D01*
X145144540Y-71120000D01*
X145164326Y-71308256D01*
X145164327Y-71308259D01*
X145222818Y-71488277D01*
X145222821Y-71488284D01*
X145317467Y-71652216D01*
X145425400Y-71772087D01*
X145444129Y-71792888D01*
X145597265Y-71904148D01*
X145597270Y-71904151D01*
X145770192Y-71981142D01*
X145770197Y-71981144D01*
X145955354Y-72020500D01*
X145955355Y-72020500D01*
X146144644Y-72020500D01*
X146144646Y-72020500D01*
X146329803Y-71981144D01*
X146502730Y-71904151D01*
X146655871Y-71792888D01*
X146782533Y-71652216D01*
X146877179Y-71488284D01*
X146935674Y-71308256D01*
X146955460Y-71120000D01*
X146935674Y-70931744D01*
X146877179Y-70751716D01*
X146796580Y-70612114D01*
X151223751Y-70612114D01*
X151243537Y-70800370D01*
X151243538Y-70800373D01*
X151302029Y-70980391D01*
X151302032Y-70980398D01*
X151396678Y-71144330D01*
X151478768Y-71235500D01*
X151523338Y-71285000D01*
X151523340Y-71285002D01*
X151676476Y-71396262D01*
X151676481Y-71396265D01*
X151849403Y-71473256D01*
X151849408Y-71473258D01*
X152034565Y-71512614D01*
X152034566Y-71512614D01*
X152223855Y-71512614D01*
X152223857Y-71512614D01*
X152409014Y-71473258D01*
X152581941Y-71396265D01*
X152735082Y-71285002D01*
X152861744Y-71144330D01*
X152956390Y-70980398D01*
X153014885Y-70800370D01*
X153034671Y-70612114D01*
X153014885Y-70423858D01*
X152956390Y-70243830D01*
X152861744Y-70079898D01*
X152735082Y-69939226D01*
X152733355Y-69937971D01*
X152581945Y-69827965D01*
X152581940Y-69827962D01*
X152409018Y-69750971D01*
X152409013Y-69750969D01*
X152263212Y-69719979D01*
X152223857Y-69711614D01*
X152034565Y-69711614D01*
X152002108Y-69718512D01*
X151849408Y-69750969D01*
X151849403Y-69750971D01*
X151676481Y-69827962D01*
X151676476Y-69827965D01*
X151523340Y-69939225D01*
X151396677Y-70079899D01*
X151302032Y-70243829D01*
X151302029Y-70243836D01*
X151254616Y-70389760D01*
X151243537Y-70423858D01*
X151230864Y-70544438D01*
X151223848Y-70611195D01*
X151223751Y-70612114D01*
X146796580Y-70612114D01*
X146782533Y-70587784D01*
X146655871Y-70447112D01*
X146646216Y-70440097D01*
X146502734Y-70335851D01*
X146502729Y-70335848D01*
X146329807Y-70258857D01*
X146329802Y-70258855D01*
X146174417Y-70225828D01*
X146144646Y-70219500D01*
X145955354Y-70219500D01*
X145925583Y-70225828D01*
X145770197Y-70258855D01*
X145770192Y-70258857D01*
X145597270Y-70335848D01*
X145597265Y-70335851D01*
X145444129Y-70447111D01*
X145317466Y-70587785D01*
X145222821Y-70751715D01*
X145222818Y-70751722D01*
X145164327Y-70931740D01*
X145164326Y-70931744D01*
X145144540Y-71120000D01*
X144415460Y-71120000D01*
X144395674Y-70931744D01*
X144337179Y-70751716D01*
X144242533Y-70587784D01*
X144115871Y-70447112D01*
X144106216Y-70440097D01*
X143962734Y-70335851D01*
X143962729Y-70335848D01*
X143789807Y-70258857D01*
X143789802Y-70258855D01*
X143634417Y-70225828D01*
X143604646Y-70219500D01*
X143415354Y-70219500D01*
X143385583Y-70225828D01*
X143230197Y-70258855D01*
X143230192Y-70258857D01*
X143057270Y-70335848D01*
X143057265Y-70335851D01*
X142904129Y-70447111D01*
X142777466Y-70587785D01*
X142682821Y-70751715D01*
X142682818Y-70751722D01*
X142624327Y-70931740D01*
X142624326Y-70931744D01*
X142604540Y-71120000D01*
X134339840Y-71120000D01*
X134396279Y-70946300D01*
X134416065Y-70758044D01*
X134396279Y-70569788D01*
X134337784Y-70389760D01*
X134243138Y-70225828D01*
X134116476Y-70085156D01*
X134116475Y-70085155D01*
X133963339Y-69973895D01*
X133963334Y-69973892D01*
X133790412Y-69896901D01*
X133790407Y-69896899D01*
X133644605Y-69865909D01*
X133605251Y-69857544D01*
X133415959Y-69857544D01*
X133383502Y-69864442D01*
X133230802Y-69896899D01*
X133159407Y-69928687D01*
X133090157Y-69937971D01*
X133026881Y-69908343D01*
X132989668Y-69849208D01*
X132985653Y-69828379D01*
X132966330Y-69644527D01*
X132907835Y-69464499D01*
X132813189Y-69300567D01*
X132757070Y-69238241D01*
X136139189Y-69238241D01*
X136158975Y-69426497D01*
X136158976Y-69426500D01*
X136217467Y-69606518D01*
X136217470Y-69606525D01*
X136312116Y-69770457D01*
X136425965Y-69896899D01*
X136438778Y-69911129D01*
X136591914Y-70022389D01*
X136591919Y-70022392D01*
X136764841Y-70099383D01*
X136764846Y-70099385D01*
X136950003Y-70138741D01*
X136950004Y-70138741D01*
X137139293Y-70138741D01*
X137139295Y-70138741D01*
X137324452Y-70099385D01*
X137497379Y-70022392D01*
X137650520Y-69911129D01*
X137777182Y-69770457D01*
X137871828Y-69606525D01*
X137930323Y-69426497D01*
X137950109Y-69238241D01*
X137930323Y-69049985D01*
X137871828Y-68869957D01*
X137777182Y-68706025D01*
X137650520Y-68565353D01*
X137637351Y-68555785D01*
X137611888Y-68537285D01*
X146289024Y-68537285D01*
X146308810Y-68725541D01*
X146308811Y-68725544D01*
X146367302Y-68905562D01*
X146367305Y-68905569D01*
X146461951Y-69069501D01*
X146581426Y-69202191D01*
X146588613Y-69210173D01*
X146741749Y-69321433D01*
X146741754Y-69321436D01*
X146914676Y-69398427D01*
X146914681Y-69398429D01*
X147099838Y-69437785D01*
X147099839Y-69437785D01*
X147289128Y-69437785D01*
X147289130Y-69437785D01*
X147474287Y-69398429D01*
X147647214Y-69321436D01*
X147800355Y-69210173D01*
X147927017Y-69069501D01*
X148021663Y-68905569D01*
X148080158Y-68725541D01*
X148094050Y-68593362D01*
X148952655Y-68593362D01*
X148972441Y-68781618D01*
X148972442Y-68781621D01*
X149030933Y-68961639D01*
X149030936Y-68961646D01*
X149125582Y-69125578D01*
X149194565Y-69202191D01*
X149252244Y-69266250D01*
X149405380Y-69377510D01*
X149405385Y-69377513D01*
X149578307Y-69454504D01*
X149578312Y-69454506D01*
X149763469Y-69493862D01*
X149763470Y-69493862D01*
X149952759Y-69493862D01*
X149952761Y-69493862D01*
X150137918Y-69454506D01*
X150310845Y-69377513D01*
X150463986Y-69266250D01*
X150590648Y-69125578D01*
X150685294Y-68961646D01*
X150743789Y-68781618D01*
X150763575Y-68593362D01*
X150743789Y-68405106D01*
X150686823Y-68229783D01*
X150685296Y-68225084D01*
X150685295Y-68225083D01*
X150685294Y-68225078D01*
X150590648Y-68061146D01*
X150463986Y-67920474D01*
X150463985Y-67920473D01*
X150310849Y-67809213D01*
X150310844Y-67809210D01*
X150137922Y-67732219D01*
X150137917Y-67732217D01*
X149970582Y-67696650D01*
X149952761Y-67692862D01*
X149763469Y-67692862D01*
X149745648Y-67696650D01*
X149578312Y-67732217D01*
X149578307Y-67732219D01*
X149405385Y-67809210D01*
X149405380Y-67809213D01*
X149252244Y-67920473D01*
X149125581Y-68061147D01*
X149030936Y-68225077D01*
X149030933Y-68225084D01*
X148981541Y-68377098D01*
X148972441Y-68405106D01*
X148952655Y-68593362D01*
X148094050Y-68593362D01*
X148099944Y-68537285D01*
X148080158Y-68349029D01*
X148021663Y-68169001D01*
X147927017Y-68005069D01*
X147800355Y-67864397D01*
X147795103Y-67860581D01*
X147647218Y-67753136D01*
X147647213Y-67753133D01*
X147474291Y-67676142D01*
X147474286Y-67676140D01*
X147328485Y-67645150D01*
X147289130Y-67636785D01*
X147099838Y-67636785D01*
X147067381Y-67643683D01*
X146914681Y-67676140D01*
X146914676Y-67676142D01*
X146741754Y-67753133D01*
X146741749Y-67753136D01*
X146588613Y-67864396D01*
X146461950Y-68005070D01*
X146367305Y-68169000D01*
X146367302Y-68169007D01*
X146308811Y-68349025D01*
X146308810Y-68349029D01*
X146289024Y-68537285D01*
X137611888Y-68537285D01*
X137497383Y-68454092D01*
X137497378Y-68454089D01*
X137324456Y-68377098D01*
X137324451Y-68377096D01*
X137178649Y-68346106D01*
X137139295Y-68337741D01*
X136950003Y-68337741D01*
X136917546Y-68344639D01*
X136764846Y-68377096D01*
X136764841Y-68377098D01*
X136591919Y-68454089D01*
X136591914Y-68454092D01*
X136438778Y-68565352D01*
X136312115Y-68706026D01*
X136217470Y-68869956D01*
X136217467Y-68869963D01*
X136159414Y-69048634D01*
X136158975Y-69049985D01*
X136139189Y-69238241D01*
X132757070Y-69238241D01*
X132686527Y-69159895D01*
X132678627Y-69154155D01*
X132533390Y-69048634D01*
X132533385Y-69048631D01*
X132360463Y-68971640D01*
X132360458Y-68971638D01*
X132214657Y-68940648D01*
X132175302Y-68932283D01*
X131986010Y-68932283D01*
X131953553Y-68939181D01*
X131800853Y-68971638D01*
X131800848Y-68971640D01*
X131627926Y-69048631D01*
X131627921Y-69048634D01*
X131474785Y-69159894D01*
X131348122Y-69300568D01*
X131253477Y-69464498D01*
X131253474Y-69464505D01*
X131194983Y-69644523D01*
X131194982Y-69644527D01*
X131175196Y-69832783D01*
X130554916Y-69832783D01*
X130653871Y-69760888D01*
X130780533Y-69620216D01*
X130875179Y-69456284D01*
X130933674Y-69276256D01*
X130953460Y-69088000D01*
X130933674Y-68899744D01*
X130875179Y-68719716D01*
X130780533Y-68555784D01*
X130653871Y-68415112D01*
X130640099Y-68405106D01*
X130500734Y-68303851D01*
X130500729Y-68303848D01*
X130327807Y-68226857D01*
X130327802Y-68226855D01*
X130182001Y-68195865D01*
X130142646Y-68187500D01*
X129953354Y-68187500D01*
X129920897Y-68194398D01*
X129768197Y-68226855D01*
X129768192Y-68226857D01*
X129595270Y-68303848D01*
X129595265Y-68303851D01*
X129442129Y-68415111D01*
X129315466Y-68555785D01*
X129220821Y-68719715D01*
X129220818Y-68719722D01*
X129172004Y-68869957D01*
X129162326Y-68899744D01*
X129142540Y-69088000D01*
X127143460Y-69088000D01*
X127123674Y-68899744D01*
X127065179Y-68719716D01*
X126970533Y-68555784D01*
X126843871Y-68415112D01*
X126830099Y-68405106D01*
X126690734Y-68303851D01*
X126690729Y-68303848D01*
X126517807Y-68226857D01*
X126517802Y-68226855D01*
X126372000Y-68195865D01*
X126332646Y-68187500D01*
X126143354Y-68187500D01*
X126110897Y-68194398D01*
X125958197Y-68226855D01*
X125958192Y-68226857D01*
X125785270Y-68303848D01*
X125785265Y-68303851D01*
X125632129Y-68415111D01*
X125505466Y-68555785D01*
X125410821Y-68719715D01*
X125410818Y-68719722D01*
X125362004Y-68869957D01*
X125352326Y-68899744D01*
X125332540Y-69088000D01*
X123586756Y-69088000D01*
X123594540Y-69013935D01*
X123574754Y-68825679D01*
X123516259Y-68645651D01*
X123421613Y-68481719D01*
X123294951Y-68341047D01*
X123294950Y-68341046D01*
X123141814Y-68229786D01*
X123141809Y-68229783D01*
X122968887Y-68152792D01*
X122968882Y-68152790D01*
X122823081Y-68121800D01*
X122783726Y-68113435D01*
X122594434Y-68113435D01*
X122561977Y-68120333D01*
X122409277Y-68152790D01*
X122409272Y-68152792D01*
X122236350Y-68229783D01*
X122236345Y-68229786D01*
X122083209Y-68341046D01*
X121956546Y-68481720D01*
X121861901Y-68645650D01*
X121861898Y-68645657D01*
X121824395Y-68761081D01*
X121803406Y-68825679D01*
X121783620Y-69013935D01*
X119756987Y-69013935D01*
X119787176Y-68961646D01*
X119845671Y-68781618D01*
X119865457Y-68593362D01*
X119845671Y-68405106D01*
X119788705Y-68229783D01*
X119787178Y-68225084D01*
X119787177Y-68225083D01*
X119787176Y-68225078D01*
X119692530Y-68061146D01*
X119565868Y-67920474D01*
X119565867Y-67920473D01*
X119412731Y-67809213D01*
X119412726Y-67809210D01*
X119239804Y-67732219D01*
X119239799Y-67732217D01*
X119072464Y-67696650D01*
X119054643Y-67692862D01*
X118865351Y-67692862D01*
X118847530Y-67696650D01*
X118680194Y-67732217D01*
X118680189Y-67732219D01*
X118507267Y-67809210D01*
X118507262Y-67809213D01*
X118354126Y-67920473D01*
X118227463Y-68061147D01*
X118132818Y-68225077D01*
X118131794Y-68227378D01*
X118130847Y-68228490D01*
X118129569Y-68230706D01*
X118129163Y-68230471D01*
X118086538Y-68280610D01*
X118019687Y-68300925D01*
X117968083Y-68290210D01*
X117892741Y-68256665D01*
X117892737Y-68256663D01*
X117746936Y-68225673D01*
X117707581Y-68217308D01*
X117518289Y-68217308D01*
X117485832Y-68224206D01*
X117333132Y-68256663D01*
X117333127Y-68256665D01*
X117160205Y-68333656D01*
X117160200Y-68333659D01*
X117007064Y-68444919D01*
X116880401Y-68585593D01*
X116785756Y-68749523D01*
X116785753Y-68749530D01*
X116728238Y-68926544D01*
X116727261Y-68929552D01*
X116707475Y-69117808D01*
X115926948Y-69117808D01*
X115823839Y-69042895D01*
X115823834Y-69042892D01*
X115650912Y-68965901D01*
X115650907Y-68965899D01*
X115492751Y-68932283D01*
X115465751Y-68926544D01*
X115276459Y-68926544D01*
X115249459Y-68932283D01*
X115091302Y-68965899D01*
X115091297Y-68965901D01*
X114918375Y-69042892D01*
X114918370Y-69042895D01*
X114765234Y-69154155D01*
X114638571Y-69294829D01*
X114543926Y-69458759D01*
X114543923Y-69458766D01*
X114495916Y-69606518D01*
X114485431Y-69638788D01*
X114465645Y-69827044D01*
X105620500Y-69827044D01*
X105620500Y-64500000D01*
X106274473Y-64500000D01*
X106274863Y-64506440D01*
X106294563Y-64832136D01*
X106294563Y-64832141D01*
X106294564Y-64832142D01*
X106354544Y-65159441D01*
X106354545Y-65159445D01*
X106354546Y-65159449D01*
X106453530Y-65477104D01*
X106453534Y-65477116D01*
X106453537Y-65477123D01*
X106590102Y-65780557D01*
X106752921Y-66049892D01*
X106762251Y-66065326D01*
X106967460Y-66327255D01*
X107202744Y-66562539D01*
X107464673Y-66767748D01*
X107464678Y-66767751D01*
X107464682Y-66767754D01*
X107749443Y-66939898D01*
X108052877Y-67076463D01*
X108156129Y-67108637D01*
X108214275Y-67147374D01*
X108242249Y-67211399D01*
X108231168Y-67280384D01*
X108184549Y-67332427D01*
X108145019Y-67348312D01*
X108053708Y-67367721D01*
X108053704Y-67367722D01*
X107880782Y-67444713D01*
X107880777Y-67444716D01*
X107727641Y-67555976D01*
X107600978Y-67696650D01*
X107506333Y-67860580D01*
X107506330Y-67860587D01*
X107449210Y-68036385D01*
X107447838Y-68040609D01*
X107428052Y-68228865D01*
X107447838Y-68417121D01*
X107447839Y-68417124D01*
X107506330Y-68597142D01*
X107506333Y-68597149D01*
X107600979Y-68761081D01*
X107699011Y-68869956D01*
X107727641Y-68901753D01*
X107880777Y-69013013D01*
X107880782Y-69013016D01*
X108053704Y-69090007D01*
X108053709Y-69090009D01*
X108238866Y-69129365D01*
X108238867Y-69129365D01*
X108428156Y-69129365D01*
X108428158Y-69129365D01*
X108613315Y-69090009D01*
X108786242Y-69013016D01*
X108939383Y-68901753D01*
X109066045Y-68761081D01*
X109160691Y-68597149D01*
X109219186Y-68417121D01*
X109238972Y-68228865D01*
X109219186Y-68040609D01*
X109160691Y-67860581D01*
X109066045Y-67696649D01*
X109040340Y-67668101D01*
X111381441Y-67668101D01*
X111401227Y-67856357D01*
X111401228Y-67856360D01*
X111459719Y-68036378D01*
X111459722Y-68036385D01*
X111554368Y-68200317D01*
X111644956Y-68300925D01*
X111681030Y-68340989D01*
X111834166Y-68452249D01*
X111834171Y-68452252D01*
X112007093Y-68529243D01*
X112007098Y-68529245D01*
X112192255Y-68568601D01*
X112192256Y-68568601D01*
X112381545Y-68568601D01*
X112381547Y-68568601D01*
X112566704Y-68529245D01*
X112739631Y-68452252D01*
X112892772Y-68340989D01*
X113019434Y-68200317D01*
X113114080Y-68036385D01*
X113172575Y-67856357D01*
X113192361Y-67668101D01*
X113172575Y-67479845D01*
X113114080Y-67299817D01*
X113019434Y-67135885D01*
X112892772Y-66995213D01*
X112892771Y-66995212D01*
X112739635Y-66883952D01*
X112739630Y-66883949D01*
X112611619Y-66826954D01*
X114493683Y-66826954D01*
X114513469Y-67015210D01*
X114513470Y-67015213D01*
X114571961Y-67195231D01*
X114571964Y-67195238D01*
X114666610Y-67359170D01*
X114743636Y-67444716D01*
X114793272Y-67499842D01*
X114946408Y-67611102D01*
X114946413Y-67611105D01*
X115119335Y-67688096D01*
X115119340Y-67688098D01*
X115304497Y-67727454D01*
X115304498Y-67727454D01*
X115493787Y-67727454D01*
X115493789Y-67727454D01*
X115678946Y-67688098D01*
X115851873Y-67611105D01*
X116005014Y-67499842D01*
X116131676Y-67359170D01*
X116226322Y-67195238D01*
X116284817Y-67015210D01*
X116304603Y-66826954D01*
X116284817Y-66638698D01*
X116226322Y-66458670D01*
X116179221Y-66377089D01*
X116162749Y-66309191D01*
X116185602Y-66243164D01*
X116240523Y-66199973D01*
X116286609Y-66191091D01*
X116319687Y-66191091D01*
X116319689Y-66191091D01*
X116504846Y-66151735D01*
X116649694Y-66087243D01*
X116718940Y-66077958D01*
X116782217Y-66107586D01*
X116819431Y-66166721D01*
X116823448Y-66213481D01*
X116820856Y-66238149D01*
X116820856Y-66238152D01*
X116840642Y-66426408D01*
X116840643Y-66426411D01*
X116899134Y-66606429D01*
X116899137Y-66606436D01*
X116993783Y-66770368D01*
X117053038Y-66836177D01*
X117120445Y-66911040D01*
X117273581Y-67022300D01*
X117273586Y-67022303D01*
X117446508Y-67099294D01*
X117446513Y-67099296D01*
X117631670Y-67138652D01*
X117631671Y-67138652D01*
X117820960Y-67138652D01*
X117820962Y-67138652D01*
X118006119Y-67099296D01*
X118179046Y-67022303D01*
X118332187Y-66911040D01*
X118382653Y-66854992D01*
X120493862Y-66854992D01*
X120513648Y-67043248D01*
X120513649Y-67043251D01*
X120572140Y-67223269D01*
X120572143Y-67223276D01*
X120666789Y-67387208D01*
X120793450Y-67527879D01*
X120793451Y-67527880D01*
X120946587Y-67639140D01*
X120946592Y-67639143D01*
X121119514Y-67716134D01*
X121119519Y-67716136D01*
X121304676Y-67755492D01*
X121304677Y-67755492D01*
X121493966Y-67755492D01*
X121493968Y-67755492D01*
X121679125Y-67716136D01*
X121852052Y-67639143D01*
X122005193Y-67527880D01*
X122131395Y-67387719D01*
X123073379Y-67387719D01*
X123093165Y-67575975D01*
X123093166Y-67575978D01*
X123151657Y-67755996D01*
X123151660Y-67756003D01*
X123246306Y-67919935D01*
X123351152Y-68036378D01*
X123372968Y-68060607D01*
X123526104Y-68171867D01*
X123526109Y-68171870D01*
X123699031Y-68248861D01*
X123699036Y-68248863D01*
X123884193Y-68288219D01*
X123884194Y-68288219D01*
X124073483Y-68288219D01*
X124073485Y-68288219D01*
X124258642Y-68248863D01*
X124431569Y-68171870D01*
X124584710Y-68060607D01*
X124711372Y-67919935D01*
X124806018Y-67756003D01*
X124864513Y-67575975D01*
X124884299Y-67387719D01*
X124864513Y-67199463D01*
X124858189Y-67180001D01*
X126901937Y-67180001D01*
X126922150Y-67411044D01*
X126922151Y-67411051D01*
X126982178Y-67635074D01*
X126982179Y-67635076D01*
X126982180Y-67635079D01*
X127080199Y-67845282D01*
X127213230Y-68035269D01*
X127377231Y-68199270D01*
X127567218Y-68332301D01*
X127777421Y-68430320D01*
X128001450Y-68490349D01*
X128166485Y-68504787D01*
X128232498Y-68510563D01*
X128232500Y-68510563D01*
X128232502Y-68510563D01*
X128296086Y-68505000D01*
X128463550Y-68490349D01*
X128687579Y-68430320D01*
X128897782Y-68332301D01*
X129087769Y-68199270D01*
X129251770Y-68035269D01*
X129384801Y-67845282D01*
X129482820Y-67635079D01*
X129542849Y-67411050D01*
X129561730Y-67195238D01*
X129563063Y-67180001D01*
X129563063Y-67179998D01*
X129554005Y-67076463D01*
X129542849Y-66948950D01*
X129482820Y-66724921D01*
X129384801Y-66514719D01*
X129384799Y-66514716D01*
X129384798Y-66514714D01*
X129251773Y-66324735D01*
X129251768Y-66324729D01*
X129087769Y-66160730D01*
X129074923Y-66151735D01*
X128897782Y-66027699D01*
X128687579Y-65929680D01*
X128687576Y-65929679D01*
X128687574Y-65929678D01*
X128463551Y-65869651D01*
X128463544Y-65869650D01*
X128232502Y-65849437D01*
X128232498Y-65849437D01*
X128001455Y-65869650D01*
X128001448Y-65869651D01*
X127777417Y-65929681D01*
X127567218Y-66027699D01*
X127567214Y-66027701D01*
X127377235Y-66160726D01*
X127377229Y-66160731D01*
X127213231Y-66324729D01*
X127213226Y-66324735D01*
X127080201Y-66514714D01*
X127080199Y-66514718D01*
X126982181Y-66724917D01*
X126922151Y-66948948D01*
X126922150Y-66948955D01*
X126901937Y-67179998D01*
X126901937Y-67180001D01*
X124858189Y-67180001D01*
X124806018Y-67019435D01*
X124765100Y-66948562D01*
X124739417Y-66904078D01*
X124722944Y-66836177D01*
X124745797Y-66770150D01*
X124800718Y-66726960D01*
X124846804Y-66718078D01*
X124970706Y-66718078D01*
X124970708Y-66718078D01*
X125155865Y-66678722D01*
X125328792Y-66601729D01*
X125481933Y-66490466D01*
X125608595Y-66349794D01*
X125703241Y-66185862D01*
X125761736Y-66005834D01*
X125781522Y-65817578D01*
X125761736Y-65629322D01*
X125703241Y-65449294D01*
X125608595Y-65285362D01*
X125481933Y-65144690D01*
X125473116Y-65138284D01*
X125328796Y-65033429D01*
X125328791Y-65033426D01*
X125155869Y-64956435D01*
X125155864Y-64956433D01*
X124995337Y-64922313D01*
X124970708Y-64917078D01*
X124781416Y-64917078D01*
X124756787Y-64922313D01*
X124596259Y-64956433D01*
X124596254Y-64956435D01*
X124423332Y-65033426D01*
X124423327Y-65033429D01*
X124270191Y-65144689D01*
X124143528Y-65285363D01*
X124048883Y-65449293D01*
X124048880Y-65449300D01*
X123990389Y-65629318D01*
X123990388Y-65629322D01*
X123970602Y-65817578D01*
X123990388Y-66005834D01*
X123990389Y-66005837D01*
X124048880Y-66185855D01*
X124048883Y-66185862D01*
X124115484Y-66301219D01*
X124131957Y-66369120D01*
X124109104Y-66435147D01*
X124054183Y-66478337D01*
X124008097Y-66487219D01*
X123884193Y-66487219D01*
X123868917Y-66490466D01*
X123699036Y-66526574D01*
X123699031Y-66526576D01*
X123526109Y-66603567D01*
X123526104Y-66603570D01*
X123372968Y-66714830D01*
X123246305Y-66855504D01*
X123151660Y-67019434D01*
X123151657Y-67019441D01*
X123093166Y-67199459D01*
X123093165Y-67199463D01*
X123073379Y-67387719D01*
X122131395Y-67387719D01*
X122131855Y-67387208D01*
X122226501Y-67223276D01*
X122284996Y-67043248D01*
X122304782Y-66854992D01*
X122284996Y-66666736D01*
X122226501Y-66486708D01*
X122131855Y-66322776D01*
X122005193Y-66182104D01*
X121984260Y-66166895D01*
X121852056Y-66070843D01*
X121852051Y-66070840D01*
X121679129Y-65993849D01*
X121679124Y-65993847D01*
X121533322Y-65962857D01*
X121493968Y-65954492D01*
X121304676Y-65954492D01*
X121272219Y-65961390D01*
X121119519Y-65993847D01*
X121119514Y-65993849D01*
X120946592Y-66070840D01*
X120946587Y-66070843D01*
X120793451Y-66182103D01*
X120666788Y-66322777D01*
X120572143Y-66486707D01*
X120572140Y-66486714D01*
X120523273Y-66637112D01*
X120513648Y-66666736D01*
X120493862Y-66854992D01*
X118382653Y-66854992D01*
X118458849Y-66770368D01*
X118553495Y-66606436D01*
X118611990Y-66426408D01*
X118631776Y-66238152D01*
X118611990Y-66049896D01*
X118553495Y-65869868D01*
X118458849Y-65705936D01*
X118332187Y-65565264D01*
X118325260Y-65560231D01*
X118179050Y-65454003D01*
X118179045Y-65454000D01*
X118006123Y-65377009D01*
X118006118Y-65377007D01*
X117860317Y-65346017D01*
X117820962Y-65337652D01*
X117631670Y-65337652D01*
X117599213Y-65344550D01*
X117446513Y-65377007D01*
X117446508Y-65377009D01*
X117301667Y-65441498D01*
X117232417Y-65450783D01*
X117169140Y-65421155D01*
X117131927Y-65362020D01*
X117127910Y-65315259D01*
X117130503Y-65290591D01*
X117110717Y-65102335D01*
X117052222Y-64922307D01*
X116957576Y-64758375D01*
X116830914Y-64617703D01*
X116830913Y-64617702D01*
X116677777Y-64506442D01*
X116677772Y-64506439D01*
X116504850Y-64429448D01*
X116504845Y-64429446D01*
X116345781Y-64395637D01*
X116319689Y-64390091D01*
X116130397Y-64390091D01*
X116104305Y-64395637D01*
X115945240Y-64429446D01*
X115945235Y-64429448D01*
X115772313Y-64506439D01*
X115772308Y-64506442D01*
X115619172Y-64617702D01*
X115492509Y-64758376D01*
X115397864Y-64922306D01*
X115397861Y-64922313D01*
X115339370Y-65102331D01*
X115339369Y-65102335D01*
X115319583Y-65290591D01*
X115339369Y-65478847D01*
X115339370Y-65478850D01*
X115397861Y-65658868D01*
X115397864Y-65658875D01*
X115444964Y-65740454D01*
X115461437Y-65808354D01*
X115438584Y-65874381D01*
X115383663Y-65917572D01*
X115337577Y-65926454D01*
X115304497Y-65926454D01*
X115272040Y-65933352D01*
X115119340Y-65965809D01*
X115119335Y-65965811D01*
X114946413Y-66042802D01*
X114946408Y-66042805D01*
X114793272Y-66154065D01*
X114666609Y-66294739D01*
X114571964Y-66458669D01*
X114571961Y-66458676D01*
X114513984Y-66637112D01*
X114513469Y-66638698D01*
X114493683Y-66826954D01*
X112611619Y-66826954D01*
X112566708Y-66806958D01*
X112566703Y-66806956D01*
X112420901Y-66775966D01*
X112381547Y-66767601D01*
X112192255Y-66767601D01*
X112159798Y-66774499D01*
X112007098Y-66806956D01*
X112007093Y-66806958D01*
X111834171Y-66883949D01*
X111834166Y-66883952D01*
X111681030Y-66995212D01*
X111554367Y-67135886D01*
X111459722Y-67299816D01*
X111459719Y-67299823D01*
X111412641Y-67444716D01*
X111401227Y-67479845D01*
X111381441Y-67668101D01*
X109040340Y-67668101D01*
X108939383Y-67555977D01*
X108900711Y-67527880D01*
X108823810Y-67472008D01*
X108781144Y-67416678D01*
X108775165Y-67347065D01*
X108807771Y-67285270D01*
X108868609Y-67250913D01*
X108904179Y-67247916D01*
X109030000Y-67255527D01*
X109362142Y-67235436D01*
X109689441Y-67175456D01*
X110007123Y-67076463D01*
X110310557Y-66939898D01*
X110595318Y-66767754D01*
X110595514Y-66767601D01*
X110708959Y-66678722D01*
X110857252Y-66562542D01*
X111092542Y-66327252D01*
X111291580Y-66073199D01*
X111297748Y-66065326D01*
X111297748Y-66065324D01*
X111297754Y-66065318D01*
X111469898Y-65780557D01*
X111606463Y-65477123D01*
X111705456Y-65159441D01*
X111765436Y-64832142D01*
X111780452Y-64583897D01*
X113007658Y-64583897D01*
X113027444Y-64772153D01*
X113027445Y-64772156D01*
X113085936Y-64952174D01*
X113085939Y-64952181D01*
X113180585Y-65116113D01*
X113307246Y-65256785D01*
X113307247Y-65256785D01*
X113460383Y-65368045D01*
X113460388Y-65368048D01*
X113633310Y-65445039D01*
X113633315Y-65445041D01*
X113818472Y-65484397D01*
X113818473Y-65484397D01*
X114007762Y-65484397D01*
X114007764Y-65484397D01*
X114192921Y-65445041D01*
X114365848Y-65368048D01*
X114518989Y-65256785D01*
X114645651Y-65116113D01*
X114740297Y-64952181D01*
X114798792Y-64772153D01*
X114818578Y-64583897D01*
X114798792Y-64395641D01*
X114740297Y-64215613D01*
X114645651Y-64051681D01*
X114518989Y-63911009D01*
X114516026Y-63908856D01*
X114365852Y-63799748D01*
X114365847Y-63799745D01*
X114192925Y-63722754D01*
X114192920Y-63722752D01*
X114155094Y-63714712D01*
X118447072Y-63714712D01*
X118466858Y-63902968D01*
X118466859Y-63902971D01*
X118525350Y-64082989D01*
X118525353Y-64082996D01*
X118619999Y-64246928D01*
X118722838Y-64361142D01*
X118746661Y-64387600D01*
X118899797Y-64498860D01*
X118899802Y-64498863D01*
X119072724Y-64575854D01*
X119072729Y-64575856D01*
X119257886Y-64615212D01*
X119257887Y-64615212D01*
X119447176Y-64615212D01*
X119447178Y-64615212D01*
X119632335Y-64575856D01*
X119805262Y-64498863D01*
X119958403Y-64387600D01*
X120085065Y-64246928D01*
X120179711Y-64082996D01*
X120180941Y-64079209D01*
X122821035Y-64079209D01*
X122840821Y-64267465D01*
X122840822Y-64267468D01*
X122899313Y-64447486D01*
X122899316Y-64447493D01*
X122993962Y-64611425D01*
X123113194Y-64743845D01*
X123120624Y-64752097D01*
X123273760Y-64863357D01*
X123273765Y-64863360D01*
X123446687Y-64940351D01*
X123446692Y-64940353D01*
X123631849Y-64979709D01*
X123631850Y-64979709D01*
X123821139Y-64979709D01*
X123821141Y-64979709D01*
X124006298Y-64940353D01*
X124179225Y-64863360D01*
X124332366Y-64752097D01*
X124415533Y-64659731D01*
X126044202Y-64659731D01*
X126063988Y-64847987D01*
X126063989Y-64847990D01*
X126122480Y-65028008D01*
X126122483Y-65028015D01*
X126217129Y-65191947D01*
X126305948Y-65290590D01*
X126343791Y-65332619D01*
X126496927Y-65443879D01*
X126496932Y-65443882D01*
X126669854Y-65520873D01*
X126669859Y-65520875D01*
X126855016Y-65560231D01*
X126855017Y-65560231D01*
X127044306Y-65560231D01*
X127044308Y-65560231D01*
X127229465Y-65520875D01*
X127402392Y-65443882D01*
X127555533Y-65332619D01*
X127682195Y-65191947D01*
X127776841Y-65028015D01*
X127835336Y-64847987D01*
X127846281Y-64743846D01*
X131259311Y-64743846D01*
X131279097Y-64932102D01*
X131279098Y-64932105D01*
X131337589Y-65112123D01*
X131337592Y-65112130D01*
X131432238Y-65276062D01*
X131558899Y-65416733D01*
X131558900Y-65416734D01*
X131712036Y-65527994D01*
X131712041Y-65527997D01*
X131884963Y-65604988D01*
X131884968Y-65604990D01*
X132070125Y-65644346D01*
X132070126Y-65644346D01*
X132194787Y-65644346D01*
X132261826Y-65664031D01*
X132307581Y-65716835D01*
X132317525Y-65785993D01*
X132288500Y-65849549D01*
X132238120Y-65884528D01*
X132165413Y-65911645D01*
X132165406Y-65911649D01*
X132050312Y-65997809D01*
X132050309Y-65997812D01*
X131964149Y-66112906D01*
X131964145Y-66112913D01*
X131913903Y-66247620D01*
X131913901Y-66247627D01*
X131907500Y-66307155D01*
X131907500Y-66930000D01*
X132631772Y-66930000D01*
X132609400Y-66977543D01*
X132578627Y-67138862D01*
X132588939Y-67302766D01*
X132630280Y-67430000D01*
X131907500Y-67430000D01*
X131907500Y-68052844D01*
X131913901Y-68112372D01*
X131913903Y-68112379D01*
X131964145Y-68247086D01*
X131964149Y-68247093D01*
X132050309Y-68362187D01*
X132050312Y-68362190D01*
X132165406Y-68448350D01*
X132165413Y-68448354D01*
X132300120Y-68498596D01*
X132300127Y-68498598D01*
X132359655Y-68504999D01*
X132359672Y-68505000D01*
X132982500Y-68505000D01*
X132982499Y-67784310D01*
X132991317Y-67789158D01*
X133150386Y-67830000D01*
X133273394Y-67830000D01*
X133395433Y-67814583D01*
X133482500Y-67780110D01*
X133482500Y-68505000D01*
X134105328Y-68505000D01*
X134105344Y-68504999D01*
X134164872Y-68498598D01*
X134164879Y-68498596D01*
X134299586Y-68448354D01*
X134299593Y-68448350D01*
X134414687Y-68362190D01*
X134414690Y-68362187D01*
X134500850Y-68247093D01*
X134500854Y-68247086D01*
X134551096Y-68112379D01*
X134551098Y-68112372D01*
X134557499Y-68052844D01*
X134557500Y-68052827D01*
X134557500Y-67430000D01*
X133833228Y-67430000D01*
X133855600Y-67382457D01*
X133869422Y-67310000D01*
X143874540Y-67310000D01*
X143894326Y-67498256D01*
X143894327Y-67498259D01*
X143952818Y-67678277D01*
X143952821Y-67678284D01*
X144047467Y-67842216D01*
X144117444Y-67919933D01*
X144174129Y-67982888D01*
X144327265Y-68094148D01*
X144327270Y-68094151D01*
X144500192Y-68171142D01*
X144500197Y-68171144D01*
X144685354Y-68210500D01*
X144685355Y-68210500D01*
X144874644Y-68210500D01*
X144874646Y-68210500D01*
X145059803Y-68171144D01*
X145232730Y-68094151D01*
X145385871Y-67982888D01*
X145512533Y-67842216D01*
X145607179Y-67678284D01*
X145665674Y-67498256D01*
X145685460Y-67310000D01*
X145665674Y-67121744D01*
X145609531Y-66948955D01*
X145607181Y-66941722D01*
X145607180Y-66941721D01*
X145607179Y-66941716D01*
X145512533Y-66777784D01*
X145385871Y-66637112D01*
X145346201Y-66608290D01*
X145232734Y-66525851D01*
X145232729Y-66525848D01*
X145059807Y-66448857D01*
X145059802Y-66448855D01*
X144914001Y-66417865D01*
X144874646Y-66409500D01*
X144685354Y-66409500D01*
X144652897Y-66416398D01*
X144500197Y-66448855D01*
X144500192Y-66448857D01*
X144327270Y-66525848D01*
X144327265Y-66525851D01*
X144174129Y-66637111D01*
X144047466Y-66777785D01*
X143952821Y-66941715D01*
X143952818Y-66941722D01*
X143898585Y-67108636D01*
X143894326Y-67121744D01*
X143874540Y-67310000D01*
X133869422Y-67310000D01*
X133886373Y-67221138D01*
X133876061Y-67057234D01*
X133834720Y-66930000D01*
X134557500Y-66930000D01*
X134557500Y-66307172D01*
X134557499Y-66307155D01*
X134551098Y-66247627D01*
X134551096Y-66247620D01*
X134500854Y-66112913D01*
X134500850Y-66112906D01*
X134414690Y-65997812D01*
X134414687Y-65997809D01*
X134299593Y-65911649D01*
X134299586Y-65911645D01*
X134164879Y-65861403D01*
X134164872Y-65861401D01*
X134105344Y-65855000D01*
X133482500Y-65855000D01*
X133482500Y-66575689D01*
X133473683Y-66570842D01*
X133314614Y-66530000D01*
X133191606Y-66530000D01*
X133069567Y-66545417D01*
X132982500Y-66579889D01*
X132982500Y-65855000D01*
X132448150Y-65855000D01*
X132381111Y-65835315D01*
X132335356Y-65782511D01*
X132325412Y-65713353D01*
X132354437Y-65649797D01*
X132413215Y-65612023D01*
X132422369Y-65609710D01*
X132433706Y-65607299D01*
X132444574Y-65604990D01*
X132617501Y-65527997D01*
X132770642Y-65416734D01*
X132897304Y-65276062D01*
X132991950Y-65112130D01*
X133050445Y-64932102D01*
X133067482Y-64770000D01*
X140064540Y-64770000D01*
X140084326Y-64958256D01*
X140084327Y-64958259D01*
X140142818Y-65138277D01*
X140142821Y-65138284D01*
X140237467Y-65302216D01*
X140362877Y-65441498D01*
X140364129Y-65442888D01*
X140517265Y-65554148D01*
X140517270Y-65554151D01*
X140690192Y-65631142D01*
X140690197Y-65631144D01*
X140875354Y-65670500D01*
X140875355Y-65670500D01*
X141064644Y-65670500D01*
X141064646Y-65670500D01*
X141249803Y-65631144D01*
X141422730Y-65554151D01*
X141575871Y-65442888D01*
X141702533Y-65302216D01*
X141777310Y-65172699D01*
X147046056Y-65172699D01*
X147065842Y-65360955D01*
X147065843Y-65360958D01*
X147124334Y-65540976D01*
X147124337Y-65540983D01*
X147218983Y-65704915D01*
X147312120Y-65808354D01*
X147345645Y-65845587D01*
X147498781Y-65956847D01*
X147498786Y-65956850D01*
X147671708Y-66033841D01*
X147671713Y-66033843D01*
X147856870Y-66073199D01*
X147856871Y-66073199D01*
X148046160Y-66073199D01*
X148046162Y-66073199D01*
X148231319Y-66033843D01*
X148404246Y-65956850D01*
X148557387Y-65845587D01*
X148684049Y-65704915D01*
X148778695Y-65540983D01*
X148837190Y-65360955D01*
X148856976Y-65172699D01*
X148837190Y-64984443D01*
X148778695Y-64804415D01*
X148684049Y-64640483D01*
X148557557Y-64500000D01*
X150424473Y-64500000D01*
X150424863Y-64506440D01*
X150444563Y-64832136D01*
X150444563Y-64832141D01*
X150444564Y-64832142D01*
X150504544Y-65159441D01*
X150504545Y-65159445D01*
X150504546Y-65159449D01*
X150603530Y-65477104D01*
X150603534Y-65477116D01*
X150603537Y-65477123D01*
X150740102Y-65780557D01*
X150902921Y-66049892D01*
X150912251Y-66065326D01*
X151117460Y-66327255D01*
X151352744Y-66562539D01*
X151614673Y-66767748D01*
X151614678Y-66767751D01*
X151614682Y-66767754D01*
X151899443Y-66939898D01*
X152202877Y-67076463D01*
X152202890Y-67076467D01*
X152202895Y-67076469D01*
X152393570Y-67135885D01*
X152520559Y-67175456D01*
X152847858Y-67235436D01*
X153180000Y-67255527D01*
X153512142Y-67235436D01*
X153839441Y-67175456D01*
X154157123Y-67076463D01*
X154460557Y-66939898D01*
X154745318Y-66767754D01*
X154745514Y-66767601D01*
X154858959Y-66678722D01*
X155007252Y-66562542D01*
X155242542Y-66327252D01*
X155441580Y-66073199D01*
X155447748Y-66065326D01*
X155447748Y-66065324D01*
X155447754Y-66065318D01*
X155619898Y-65780557D01*
X155756463Y-65477123D01*
X155855456Y-65159441D01*
X155915436Y-64832142D01*
X155935527Y-64500000D01*
X155915436Y-64167858D01*
X155855456Y-63840559D01*
X155815533Y-63712442D01*
X155756469Y-63522895D01*
X155756467Y-63522890D01*
X155756463Y-63522877D01*
X155619898Y-63219443D01*
X155447754Y-62934682D01*
X155447751Y-62934678D01*
X155447748Y-62934673D01*
X155242539Y-62672744D01*
X155007255Y-62437460D01*
X154745326Y-62232251D01*
X154647513Y-62173121D01*
X154460557Y-62060102D01*
X154157123Y-61923537D01*
X154157116Y-61923534D01*
X154157104Y-61923530D01*
X153839449Y-61824546D01*
X153839445Y-61824545D01*
X153839441Y-61824544D01*
X153512142Y-61764564D01*
X153512141Y-61764563D01*
X153512136Y-61764563D01*
X153208800Y-61746215D01*
X153180000Y-61744473D01*
X153179999Y-61744473D01*
X152847863Y-61764563D01*
X152847857Y-61764564D01*
X152847858Y-61764564D01*
X152520559Y-61824544D01*
X152520556Y-61824544D01*
X152520550Y-61824546D01*
X152202895Y-61923530D01*
X152202879Y-61923536D01*
X152202877Y-61923537D01*
X152009656Y-62010498D01*
X151899447Y-62060100D01*
X151899445Y-62060101D01*
X151614673Y-62232251D01*
X151352744Y-62437460D01*
X151117460Y-62672744D01*
X150912251Y-62934673D01*
X150810108Y-63103639D01*
X150740935Y-63218066D01*
X150740101Y-63219445D01*
X150740100Y-63219447D01*
X150603536Y-63522880D01*
X150603530Y-63522895D01*
X150504546Y-63840550D01*
X150504544Y-63840556D01*
X150504544Y-63840559D01*
X150467422Y-64043128D01*
X150444563Y-64167863D01*
X150427649Y-64447493D01*
X150424473Y-64500000D01*
X148557557Y-64500000D01*
X148557387Y-64499811D01*
X148557386Y-64499810D01*
X148404250Y-64388550D01*
X148404245Y-64388547D01*
X148231323Y-64311556D01*
X148231318Y-64311554D01*
X148085516Y-64280564D01*
X148046162Y-64272199D01*
X147856870Y-64272199D01*
X147824413Y-64279097D01*
X147671713Y-64311554D01*
X147671708Y-64311556D01*
X147498786Y-64388547D01*
X147498781Y-64388550D01*
X147345645Y-64499810D01*
X147218982Y-64640484D01*
X147124337Y-64804414D01*
X147124334Y-64804421D01*
X147067380Y-64979709D01*
X147065842Y-64984443D01*
X147046056Y-65172699D01*
X141777310Y-65172699D01*
X141797179Y-65138284D01*
X141855674Y-64958256D01*
X141875460Y-64770000D01*
X141855674Y-64581744D01*
X141797179Y-64401716D01*
X141702533Y-64237784D01*
X141575871Y-64097112D01*
X141556442Y-64082996D01*
X141422734Y-63985851D01*
X141422729Y-63985848D01*
X141249807Y-63908857D01*
X141249802Y-63908855D01*
X141093250Y-63875580D01*
X141064646Y-63869500D01*
X140875354Y-63869500D01*
X140846754Y-63875579D01*
X140690197Y-63908855D01*
X140690192Y-63908857D01*
X140517270Y-63985848D01*
X140517265Y-63985851D01*
X140364129Y-64097111D01*
X140237466Y-64237785D01*
X140142821Y-64401715D01*
X140142818Y-64401722D01*
X140086239Y-64575856D01*
X140084326Y-64581744D01*
X140064540Y-64770000D01*
X133067482Y-64770000D01*
X133070231Y-64743846D01*
X133050445Y-64555590D01*
X132991950Y-64375562D01*
X132897304Y-64211630D01*
X132770642Y-64070958D01*
X132770641Y-64070957D01*
X132617505Y-63959697D01*
X132617500Y-63959694D01*
X132444578Y-63882703D01*
X132444573Y-63882701D01*
X132298771Y-63851711D01*
X132259417Y-63843346D01*
X132070125Y-63843346D01*
X132037668Y-63850244D01*
X131884968Y-63882701D01*
X131884963Y-63882703D01*
X131712041Y-63959694D01*
X131712036Y-63959697D01*
X131558900Y-64070957D01*
X131432237Y-64211631D01*
X131337592Y-64375561D01*
X131337589Y-64375568D01*
X131295066Y-64506442D01*
X131279097Y-64555590D01*
X131259311Y-64743846D01*
X127846281Y-64743846D01*
X127855122Y-64659731D01*
X127835336Y-64471475D01*
X127776841Y-64291447D01*
X127682195Y-64127515D01*
X127555533Y-63986843D01*
X127554165Y-63985849D01*
X127402396Y-63875582D01*
X127402391Y-63875579D01*
X127229469Y-63798588D01*
X127229464Y-63798586D01*
X127125681Y-63776527D01*
X128735871Y-63776527D01*
X128755657Y-63964783D01*
X128755658Y-63964786D01*
X128814149Y-64144804D01*
X128814152Y-64144811D01*
X128908798Y-64308743D01*
X128987038Y-64395637D01*
X129035460Y-64449415D01*
X129188596Y-64560675D01*
X129188601Y-64560678D01*
X129361523Y-64637669D01*
X129361528Y-64637671D01*
X129546685Y-64677027D01*
X129546686Y-64677027D01*
X129735975Y-64677027D01*
X129735977Y-64677027D01*
X129921134Y-64637671D01*
X130094061Y-64560678D01*
X130247202Y-64449415D01*
X130373864Y-64308743D01*
X130468510Y-64144811D01*
X130527005Y-63964783D01*
X130546791Y-63776527D01*
X130527005Y-63588271D01*
X130506181Y-63524183D01*
X133572464Y-63524183D01*
X133592250Y-63712439D01*
X133592251Y-63712442D01*
X133650742Y-63892460D01*
X133650745Y-63892467D01*
X133745391Y-64056399D01*
X133872053Y-64197071D01*
X134025189Y-64308331D01*
X134025194Y-64308334D01*
X134198116Y-64385325D01*
X134198121Y-64385327D01*
X134383278Y-64424683D01*
X134383279Y-64424683D01*
X134572568Y-64424683D01*
X134572570Y-64424683D01*
X134757727Y-64385327D01*
X134930654Y-64308334D01*
X135083795Y-64197071D01*
X135210457Y-64056399D01*
X135305103Y-63892467D01*
X135363598Y-63712439D01*
X135383384Y-63524183D01*
X135363598Y-63335927D01*
X135313579Y-63181986D01*
X137064450Y-63181986D01*
X137084236Y-63370242D01*
X137084237Y-63370245D01*
X137142728Y-63550263D01*
X137142731Y-63550270D01*
X137237377Y-63714202D01*
X137314403Y-63799748D01*
X137364039Y-63854874D01*
X137517175Y-63966134D01*
X137517180Y-63966137D01*
X137690102Y-64043128D01*
X137690107Y-64043130D01*
X137875264Y-64082486D01*
X137875265Y-64082486D01*
X138064554Y-64082486D01*
X138064556Y-64082486D01*
X138249713Y-64043130D01*
X138422640Y-63966137D01*
X138575781Y-63854874D01*
X138702443Y-63714202D01*
X138797089Y-63550270D01*
X138855584Y-63370242D01*
X138875370Y-63181986D01*
X138855584Y-62993730D01*
X138797089Y-62813702D01*
X138734524Y-62705336D01*
X140961763Y-62705336D01*
X140981549Y-62893592D01*
X140981550Y-62893595D01*
X141040041Y-63073613D01*
X141040044Y-63073620D01*
X141134690Y-63237552D01*
X141201493Y-63311744D01*
X141261352Y-63378224D01*
X141414488Y-63489484D01*
X141414493Y-63489487D01*
X141587415Y-63566478D01*
X141587420Y-63566480D01*
X141772577Y-63605836D01*
X141772578Y-63605836D01*
X141961867Y-63605836D01*
X141961869Y-63605836D01*
X142147026Y-63566480D01*
X142296341Y-63500000D01*
X143874540Y-63500000D01*
X143894326Y-63688256D01*
X143894327Y-63688259D01*
X143952818Y-63868277D01*
X143952821Y-63868284D01*
X144047467Y-64032216D01*
X144093190Y-64082996D01*
X144174129Y-64172888D01*
X144327265Y-64284148D01*
X144327270Y-64284151D01*
X144500192Y-64361142D01*
X144500197Y-64361144D01*
X144685354Y-64400500D01*
X144685355Y-64400500D01*
X144874644Y-64400500D01*
X144874646Y-64400500D01*
X145059803Y-64361144D01*
X145232730Y-64284151D01*
X145385871Y-64172888D01*
X145512533Y-64032216D01*
X145607179Y-63868284D01*
X145665674Y-63688256D01*
X145685460Y-63500000D01*
X145665674Y-63311744D01*
X145607179Y-63131716D01*
X145512533Y-62967784D01*
X145385871Y-62827112D01*
X145367414Y-62813702D01*
X145232734Y-62715851D01*
X145232729Y-62715848D01*
X145059807Y-62638857D01*
X145059802Y-62638855D01*
X144914001Y-62607865D01*
X144874646Y-62599500D01*
X144685354Y-62599500D01*
X144652897Y-62606398D01*
X144500197Y-62638855D01*
X144500192Y-62638857D01*
X144327270Y-62715848D01*
X144327265Y-62715851D01*
X144174129Y-62827111D01*
X144047466Y-62967785D01*
X143952821Y-63131715D01*
X143952818Y-63131722D01*
X143899747Y-63295060D01*
X143894326Y-63311744D01*
X143874540Y-63500000D01*
X142296341Y-63500000D01*
X142319953Y-63489487D01*
X142473094Y-63378224D01*
X142599756Y-63237552D01*
X142694402Y-63073620D01*
X142752897Y-62893592D01*
X142772683Y-62705336D01*
X142752897Y-62517080D01*
X142694402Y-62337052D01*
X142599756Y-62173120D01*
X142473094Y-62032448D01*
X142473093Y-62032447D01*
X142319957Y-61921187D01*
X142319952Y-61921184D01*
X142147030Y-61844193D01*
X142147025Y-61844191D01*
X142001223Y-61813201D01*
X141961869Y-61804836D01*
X141772577Y-61804836D01*
X141740120Y-61811734D01*
X141587420Y-61844191D01*
X141587415Y-61844193D01*
X141414493Y-61921184D01*
X141414488Y-61921187D01*
X141261352Y-62032447D01*
X141134689Y-62173121D01*
X141040044Y-62337051D01*
X141040041Y-62337058D01*
X140981550Y-62517076D01*
X140981549Y-62517080D01*
X140961763Y-62705336D01*
X138734524Y-62705336D01*
X138702443Y-62649770D01*
X138575781Y-62509098D01*
X138575780Y-62509097D01*
X138422644Y-62397837D01*
X138422639Y-62397834D01*
X138249717Y-62320843D01*
X138249712Y-62320841D01*
X138103910Y-62289851D01*
X138064556Y-62281486D01*
X137875264Y-62281486D01*
X137842807Y-62288384D01*
X137690107Y-62320841D01*
X137690102Y-62320843D01*
X137517180Y-62397834D01*
X137517175Y-62397837D01*
X137364039Y-62509097D01*
X137237376Y-62649771D01*
X137142731Y-62813701D01*
X137142728Y-62813708D01*
X137084676Y-62992375D01*
X137084236Y-62993730D01*
X137064450Y-63181986D01*
X135313579Y-63181986D01*
X135305103Y-63155899D01*
X135210457Y-62991967D01*
X135083795Y-62851295D01*
X135050510Y-62827112D01*
X134930658Y-62740034D01*
X134930653Y-62740031D01*
X134757731Y-62663040D01*
X134757726Y-62663038D01*
X134611924Y-62632048D01*
X134572570Y-62623683D01*
X134383278Y-62623683D01*
X134350821Y-62630581D01*
X134198121Y-62663038D01*
X134198116Y-62663040D01*
X134025194Y-62740031D01*
X134025189Y-62740034D01*
X133872053Y-62851294D01*
X133745390Y-62991968D01*
X133650745Y-63155898D01*
X133650742Y-63155905D01*
X133592251Y-63335923D01*
X133592250Y-63335927D01*
X133572464Y-63524183D01*
X130506181Y-63524183D01*
X130468510Y-63408243D01*
X130373864Y-63244311D01*
X130247202Y-63103639D01*
X130247201Y-63103638D01*
X130094065Y-62992378D01*
X130094060Y-62992375D01*
X129921138Y-62915384D01*
X129921133Y-62915382D01*
X129775331Y-62884392D01*
X129735977Y-62876027D01*
X129546685Y-62876027D01*
X129514228Y-62882925D01*
X129361528Y-62915382D01*
X129361523Y-62915384D01*
X129188601Y-62992375D01*
X129188596Y-62992378D01*
X129035460Y-63103638D01*
X128908797Y-63244312D01*
X128814152Y-63408242D01*
X128814149Y-63408249D01*
X128768004Y-63550270D01*
X128755657Y-63588271D01*
X128735871Y-63776527D01*
X127125681Y-63776527D01*
X127083663Y-63767596D01*
X127044308Y-63759231D01*
X126855016Y-63759231D01*
X126822559Y-63766129D01*
X126669859Y-63798586D01*
X126669854Y-63798588D01*
X126496932Y-63875579D01*
X126496927Y-63875582D01*
X126343791Y-63986842D01*
X126217128Y-64127516D01*
X126122483Y-64291446D01*
X126122480Y-64291453D01*
X126063989Y-64471471D01*
X126063988Y-64471475D01*
X126044202Y-64659731D01*
X124415533Y-64659731D01*
X124459028Y-64611425D01*
X124553674Y-64447493D01*
X124612169Y-64267465D01*
X124631955Y-64079209D01*
X124612169Y-63890953D01*
X124557517Y-63722752D01*
X124553676Y-63710931D01*
X124553675Y-63710930D01*
X124553674Y-63710925D01*
X124459028Y-63546993D01*
X124332366Y-63406321D01*
X124293694Y-63378224D01*
X124179229Y-63295060D01*
X124179224Y-63295057D01*
X124006302Y-63218066D01*
X124006297Y-63218064D01*
X123838962Y-63182497D01*
X123821141Y-63178709D01*
X123631849Y-63178709D01*
X123614028Y-63182497D01*
X123446692Y-63218064D01*
X123446687Y-63218066D01*
X123273765Y-63295057D01*
X123273760Y-63295060D01*
X123120624Y-63406320D01*
X122993961Y-63546994D01*
X122899316Y-63710924D01*
X122899313Y-63710931D01*
X122840822Y-63890949D01*
X122840821Y-63890953D01*
X122821035Y-64079209D01*
X120180941Y-64079209D01*
X120238206Y-63902968D01*
X120257992Y-63714712D01*
X120238206Y-63526456D01*
X120179711Y-63346428D01*
X120085065Y-63182496D01*
X119958403Y-63041824D01*
X119958402Y-63041823D01*
X119805266Y-62930563D01*
X119805261Y-62930560D01*
X119632339Y-62853569D01*
X119632334Y-62853567D01*
X119486532Y-62822577D01*
X119447178Y-62814212D01*
X119257886Y-62814212D01*
X119225429Y-62821110D01*
X119072729Y-62853567D01*
X119072724Y-62853569D01*
X118899802Y-62930560D01*
X118899797Y-62930563D01*
X118746661Y-63041823D01*
X118619998Y-63182497D01*
X118525353Y-63346427D01*
X118525350Y-63346434D01*
X118466859Y-63526452D01*
X118466858Y-63526456D01*
X118447072Y-63714712D01*
X114155094Y-63714712D01*
X114030624Y-63688256D01*
X114007764Y-63683397D01*
X113818472Y-63683397D01*
X113795612Y-63688256D01*
X113633315Y-63722752D01*
X113633310Y-63722754D01*
X113460388Y-63799745D01*
X113460383Y-63799748D01*
X113307247Y-63911008D01*
X113180584Y-64051682D01*
X113085939Y-64215612D01*
X113085936Y-64215619D01*
X113029748Y-64388550D01*
X113027444Y-64395641D01*
X113007658Y-64583897D01*
X111780452Y-64583897D01*
X111785527Y-64500000D01*
X111765436Y-64167858D01*
X111705456Y-63840559D01*
X111665533Y-63712442D01*
X111606469Y-63522895D01*
X111606467Y-63522890D01*
X111606463Y-63522877D01*
X111469898Y-63219443D01*
X111297754Y-62934682D01*
X111297751Y-62934678D01*
X111297748Y-62934673D01*
X111092539Y-62672744D01*
X110857255Y-62437460D01*
X110595326Y-62232251D01*
X110497513Y-62173121D01*
X110310557Y-62060102D01*
X110007123Y-61923537D01*
X110007116Y-61923534D01*
X110007104Y-61923530D01*
X109689449Y-61824546D01*
X109689445Y-61824545D01*
X109689441Y-61824544D01*
X109362142Y-61764564D01*
X109362141Y-61764563D01*
X109362136Y-61764563D01*
X109058800Y-61746215D01*
X109030000Y-61744473D01*
X109029999Y-61744473D01*
X108697863Y-61764563D01*
X108697857Y-61764564D01*
X108697858Y-61764564D01*
X108370559Y-61824544D01*
X108370556Y-61824544D01*
X108370550Y-61824546D01*
X108052895Y-61923530D01*
X108052879Y-61923536D01*
X108052877Y-61923537D01*
X107859656Y-62010498D01*
X107749447Y-62060100D01*
X107749445Y-62060101D01*
X107464673Y-62232251D01*
X107202744Y-62437460D01*
X106967460Y-62672744D01*
X106762251Y-62934673D01*
X106660108Y-63103639D01*
X106590935Y-63218066D01*
X106590101Y-63219445D01*
X106590100Y-63219447D01*
X106453536Y-63522880D01*
X106453530Y-63522895D01*
X106354546Y-63840550D01*
X106354544Y-63840556D01*
X106354544Y-63840559D01*
X106317422Y-64043128D01*
X106294563Y-64167863D01*
X106277649Y-64447493D01*
X106274473Y-64500000D01*
X105620500Y-64500000D01*
X105620500Y-61494500D01*
X105640185Y-61427461D01*
X105692989Y-61381706D01*
X105744500Y-61370500D01*
X156295500Y-61370500D01*
X156362539Y-61390185D01*
G37*
%TD.AperFunction*%
%TD*%
M02*
