%TF.GenerationSoftware,KiCad,Pcbnew,7.0.5*%
%TF.CreationDate,2023-11-04T20:07:04-04:00*%
%TF.ProjectId,modular,6d6f6475-6c61-4722-9e6b-696361645f70,rev?*%
%TF.SameCoordinates,Original*%
%TF.FileFunction,Drillmap*%
%TF.FilePolarity,Positive*%
%FSLAX45Y45*%
G04 Gerber Fmt 4.5, Leading zero omitted, Abs format (unit mm)*
G04 Created by KiCad (PCBNEW 7.0.5) date 2023-11-04 20:07:04*
%MOMM*%
%LPD*%
G01*
G04 APERTURE LIST*
%ADD10C,0.200000*%
G04 APERTURE END LIST*
D10*
X10562000Y-6137000D02*
X15642000Y-6137000D01*
X15642000Y-9130000D01*
X10562000Y-9130000D01*
X10562000Y-6137000D01*
X10812777Y-9451484D02*
X10812777Y-9251484D01*
X10812777Y-9251484D02*
X10860396Y-9251484D01*
X10860396Y-9251484D02*
X10888967Y-9261008D01*
X10888967Y-9261008D02*
X10908015Y-9280055D01*
X10908015Y-9280055D02*
X10917539Y-9299103D01*
X10917539Y-9299103D02*
X10927063Y-9337198D01*
X10927063Y-9337198D02*
X10927063Y-9365770D01*
X10927063Y-9365770D02*
X10917539Y-9403865D01*
X10917539Y-9403865D02*
X10908015Y-9422912D01*
X10908015Y-9422912D02*
X10888967Y-9441960D01*
X10888967Y-9441960D02*
X10860396Y-9451484D01*
X10860396Y-9451484D02*
X10812777Y-9451484D01*
X11012777Y-9451484D02*
X11012777Y-9318150D01*
X11012777Y-9356246D02*
X11022301Y-9337198D01*
X11022301Y-9337198D02*
X11031824Y-9327674D01*
X11031824Y-9327674D02*
X11050872Y-9318150D01*
X11050872Y-9318150D02*
X11069920Y-9318150D01*
X11136586Y-9451484D02*
X11136586Y-9318150D01*
X11136586Y-9251484D02*
X11127063Y-9261008D01*
X11127063Y-9261008D02*
X11136586Y-9270531D01*
X11136586Y-9270531D02*
X11146110Y-9261008D01*
X11146110Y-9261008D02*
X11136586Y-9251484D01*
X11136586Y-9251484D02*
X11136586Y-9270531D01*
X11260396Y-9451484D02*
X11241348Y-9441960D01*
X11241348Y-9441960D02*
X11231824Y-9422912D01*
X11231824Y-9422912D02*
X11231824Y-9251484D01*
X11365158Y-9451484D02*
X11346110Y-9441960D01*
X11346110Y-9441960D02*
X11336586Y-9422912D01*
X11336586Y-9422912D02*
X11336586Y-9251484D01*
X11593729Y-9451484D02*
X11593729Y-9251484D01*
X11593729Y-9251484D02*
X11660396Y-9394341D01*
X11660396Y-9394341D02*
X11727062Y-9251484D01*
X11727062Y-9251484D02*
X11727062Y-9451484D01*
X11908015Y-9451484D02*
X11908015Y-9346722D01*
X11908015Y-9346722D02*
X11898491Y-9327674D01*
X11898491Y-9327674D02*
X11879443Y-9318150D01*
X11879443Y-9318150D02*
X11841348Y-9318150D01*
X11841348Y-9318150D02*
X11822301Y-9327674D01*
X11908015Y-9441960D02*
X11888967Y-9451484D01*
X11888967Y-9451484D02*
X11841348Y-9451484D01*
X11841348Y-9451484D02*
X11822301Y-9441960D01*
X11822301Y-9441960D02*
X11812777Y-9422912D01*
X11812777Y-9422912D02*
X11812777Y-9403865D01*
X11812777Y-9403865D02*
X11822301Y-9384817D01*
X11822301Y-9384817D02*
X11841348Y-9375293D01*
X11841348Y-9375293D02*
X11888967Y-9375293D01*
X11888967Y-9375293D02*
X11908015Y-9365770D01*
X12003253Y-9318150D02*
X12003253Y-9518150D01*
X12003253Y-9327674D02*
X12022301Y-9318150D01*
X12022301Y-9318150D02*
X12060396Y-9318150D01*
X12060396Y-9318150D02*
X12079443Y-9327674D01*
X12079443Y-9327674D02*
X12088967Y-9337198D01*
X12088967Y-9337198D02*
X12098491Y-9356246D01*
X12098491Y-9356246D02*
X12098491Y-9413389D01*
X12098491Y-9413389D02*
X12088967Y-9432436D01*
X12088967Y-9432436D02*
X12079443Y-9441960D01*
X12079443Y-9441960D02*
X12060396Y-9451484D01*
X12060396Y-9451484D02*
X12022301Y-9451484D01*
X12022301Y-9451484D02*
X12003253Y-9441960D01*
X12184205Y-9432436D02*
X12193729Y-9441960D01*
X12193729Y-9441960D02*
X12184205Y-9451484D01*
X12184205Y-9451484D02*
X12174682Y-9441960D01*
X12174682Y-9441960D02*
X12184205Y-9432436D01*
X12184205Y-9432436D02*
X12184205Y-9451484D01*
X12184205Y-9327674D02*
X12193729Y-9337198D01*
X12193729Y-9337198D02*
X12184205Y-9346722D01*
X12184205Y-9346722D02*
X12174682Y-9337198D01*
X12174682Y-9337198D02*
X12184205Y-9327674D01*
X12184205Y-9327674D02*
X12184205Y-9346722D01*
M02*
