%TF.GenerationSoftware,KiCad,Pcbnew,7.0.5*%
%TF.CreationDate,2023-11-04T20:07:06-04:00*%
%TF.ProjectId,modular,6d6f6475-6c61-4722-9e6b-696361645f70,rev?*%
%TF.SameCoordinates,Original*%
%TF.FileFunction,Legend,Top*%
%TF.FilePolarity,Positive*%
%FSLAX46Y46*%
G04 Gerber Fmt 4.6, Leading zero omitted, Abs format (unit mm)*
G04 Created by KiCad (PCBNEW 7.0.5) date 2023-11-04 20:07:06*
%MOMM*%
%LPD*%
G01*
G04 APERTURE LIST*
%ADD10C,0.076200*%
%ADD11C,0.101600*%
%ADD12C,0.279400*%
%ADD13C,0.300000*%
%ADD14C,0.150000*%
%ADD15C,0.254000*%
%ADD16C,0.120000*%
%ADD17C,0.127000*%
%ADD18C,0.200000*%
%ADD19C,0.100000*%
G04 APERTURE END LIST*
D10*
X144503559Y-74367962D02*
X144503559Y-73605962D01*
X144503559Y-73605962D02*
X144793845Y-73605962D01*
X144793845Y-73605962D02*
X144866416Y-73642248D01*
X144866416Y-73642248D02*
X144902702Y-73678534D01*
X144902702Y-73678534D02*
X144938988Y-73751105D01*
X144938988Y-73751105D02*
X144938988Y-73859962D01*
X144938988Y-73859962D02*
X144902702Y-73932534D01*
X144902702Y-73932534D02*
X144866416Y-73968819D01*
X144866416Y-73968819D02*
X144793845Y-74005105D01*
X144793845Y-74005105D02*
X144503559Y-74005105D01*
X145410702Y-73605962D02*
X145555845Y-73605962D01*
X145555845Y-73605962D02*
X145628416Y-73642248D01*
X145628416Y-73642248D02*
X145700988Y-73714819D01*
X145700988Y-73714819D02*
X145737273Y-73859962D01*
X145737273Y-73859962D02*
X145737273Y-74113962D01*
X145737273Y-74113962D02*
X145700988Y-74259105D01*
X145700988Y-74259105D02*
X145628416Y-74331677D01*
X145628416Y-74331677D02*
X145555845Y-74367962D01*
X145555845Y-74367962D02*
X145410702Y-74367962D01*
X145410702Y-74367962D02*
X145338131Y-74331677D01*
X145338131Y-74331677D02*
X145265559Y-74259105D01*
X145265559Y-74259105D02*
X145229273Y-74113962D01*
X145229273Y-74113962D02*
X145229273Y-73859962D01*
X145229273Y-73859962D02*
X145265559Y-73714819D01*
X145265559Y-73714819D02*
X145338131Y-73642248D01*
X145338131Y-73642248D02*
X145410702Y-73605962D01*
X145991274Y-73605962D02*
X146172702Y-74367962D01*
X146172702Y-74367962D02*
X146317845Y-73823677D01*
X146317845Y-73823677D02*
X146462988Y-74367962D01*
X146462988Y-74367962D02*
X146644417Y-73605962D01*
X146934702Y-73968819D02*
X147188702Y-73968819D01*
X147297559Y-74367962D02*
X146934702Y-74367962D01*
X146934702Y-74367962D02*
X146934702Y-73605962D01*
X146934702Y-73605962D02*
X147297559Y-73605962D01*
X148059560Y-74367962D02*
X147805560Y-74005105D01*
X147624131Y-74367962D02*
X147624131Y-73605962D01*
X147624131Y-73605962D02*
X147914417Y-73605962D01*
X147914417Y-73605962D02*
X147986988Y-73642248D01*
X147986988Y-73642248D02*
X148023274Y-73678534D01*
X148023274Y-73678534D02*
X148059560Y-73751105D01*
X148059560Y-73751105D02*
X148059560Y-73859962D01*
X148059560Y-73859962D02*
X148023274Y-73932534D01*
X148023274Y-73932534D02*
X147986988Y-73968819D01*
X147986988Y-73968819D02*
X147914417Y-74005105D01*
X147914417Y-74005105D02*
X147624131Y-74005105D01*
X148930416Y-74150248D02*
X149293274Y-74150248D01*
X148857845Y-74367962D02*
X149111845Y-73605962D01*
X149111845Y-73605962D02*
X149365845Y-74367962D01*
X149619845Y-74367962D02*
X149619845Y-73605962D01*
X149619845Y-73605962D02*
X149873845Y-74150248D01*
X149873845Y-74150248D02*
X150127845Y-73605962D01*
X150127845Y-73605962D02*
X150127845Y-74367962D01*
X150490702Y-74367962D02*
X150490702Y-73605962D01*
X150490702Y-73605962D02*
X150780988Y-73605962D01*
X150780988Y-73605962D02*
X150853559Y-73642248D01*
X150853559Y-73642248D02*
X150889845Y-73678534D01*
X150889845Y-73678534D02*
X150926131Y-73751105D01*
X150926131Y-73751105D02*
X150926131Y-73859962D01*
X150926131Y-73859962D02*
X150889845Y-73932534D01*
X150889845Y-73932534D02*
X150853559Y-73968819D01*
X150853559Y-73968819D02*
X150780988Y-74005105D01*
X150780988Y-74005105D02*
X150490702Y-74005105D01*
X151978416Y-73605962D02*
X152123559Y-73605962D01*
X152123559Y-73605962D02*
X152196130Y-73642248D01*
X152196130Y-73642248D02*
X152268702Y-73714819D01*
X152268702Y-73714819D02*
X152304987Y-73859962D01*
X152304987Y-73859962D02*
X152304987Y-74113962D01*
X152304987Y-74113962D02*
X152268702Y-74259105D01*
X152268702Y-74259105D02*
X152196130Y-74331677D01*
X152196130Y-74331677D02*
X152123559Y-74367962D01*
X152123559Y-74367962D02*
X151978416Y-74367962D01*
X151978416Y-74367962D02*
X151905845Y-74331677D01*
X151905845Y-74331677D02*
X151833273Y-74259105D01*
X151833273Y-74259105D02*
X151796987Y-74113962D01*
X151796987Y-74113962D02*
X151796987Y-73859962D01*
X151796987Y-73859962D02*
X151833273Y-73714819D01*
X151833273Y-73714819D02*
X151905845Y-73642248D01*
X151905845Y-73642248D02*
X151978416Y-73605962D01*
X152631559Y-73605962D02*
X152631559Y-74222819D01*
X152631559Y-74222819D02*
X152667845Y-74295391D01*
X152667845Y-74295391D02*
X152704131Y-74331677D01*
X152704131Y-74331677D02*
X152776702Y-74367962D01*
X152776702Y-74367962D02*
X152921845Y-74367962D01*
X152921845Y-74367962D02*
X152994416Y-74331677D01*
X152994416Y-74331677D02*
X153030702Y-74295391D01*
X153030702Y-74295391D02*
X153066988Y-74222819D01*
X153066988Y-74222819D02*
X153066988Y-73605962D01*
X153320988Y-73605962D02*
X153756417Y-73605962D01*
X153538702Y-74367962D02*
X153538702Y-73605962D01*
X154010416Y-74367962D02*
X154010416Y-73605962D01*
X154010416Y-73605962D02*
X154300702Y-73605962D01*
X154300702Y-73605962D02*
X154373273Y-73642248D01*
X154373273Y-73642248D02*
X154409559Y-73678534D01*
X154409559Y-73678534D02*
X154445845Y-73751105D01*
X154445845Y-73751105D02*
X154445845Y-73859962D01*
X154445845Y-73859962D02*
X154409559Y-73932534D01*
X154409559Y-73932534D02*
X154373273Y-73968819D01*
X154373273Y-73968819D02*
X154300702Y-74005105D01*
X154300702Y-74005105D02*
X154010416Y-74005105D01*
X154772416Y-73605962D02*
X154772416Y-74222819D01*
X154772416Y-74222819D02*
X154808702Y-74295391D01*
X154808702Y-74295391D02*
X154844988Y-74331677D01*
X154844988Y-74331677D02*
X154917559Y-74367962D01*
X154917559Y-74367962D02*
X155062702Y-74367962D01*
X155062702Y-74367962D02*
X155135273Y-74331677D01*
X155135273Y-74331677D02*
X155171559Y-74295391D01*
X155171559Y-74295391D02*
X155207845Y-74222819D01*
X155207845Y-74222819D02*
X155207845Y-73605962D01*
X155461845Y-73605962D02*
X155897274Y-73605962D01*
X155679559Y-74367962D02*
X155679559Y-73605962D01*
D11*
X112371127Y-90598451D02*
X112443699Y-90622641D01*
X112443699Y-90622641D02*
X112467889Y-90646832D01*
X112467889Y-90646832D02*
X112492080Y-90695213D01*
X112492080Y-90695213D02*
X112492080Y-90767784D01*
X112492080Y-90767784D02*
X112467889Y-90816165D01*
X112467889Y-90816165D02*
X112443699Y-90840356D01*
X112443699Y-90840356D02*
X112395318Y-90864546D01*
X112395318Y-90864546D02*
X112201794Y-90864546D01*
X112201794Y-90864546D02*
X112201794Y-90356546D01*
X112201794Y-90356546D02*
X112371127Y-90356546D01*
X112371127Y-90356546D02*
X112419508Y-90380736D01*
X112419508Y-90380736D02*
X112443699Y-90404927D01*
X112443699Y-90404927D02*
X112467889Y-90453308D01*
X112467889Y-90453308D02*
X112467889Y-90501689D01*
X112467889Y-90501689D02*
X112443699Y-90550070D01*
X112443699Y-90550070D02*
X112419508Y-90574260D01*
X112419508Y-90574260D02*
X112371127Y-90598451D01*
X112371127Y-90598451D02*
X112201794Y-90598451D01*
X112661413Y-90525879D02*
X112782365Y-90864546D01*
X112903318Y-90525879D02*
X112782365Y-90864546D01*
X112782365Y-90864546D02*
X112733984Y-90985498D01*
X112733984Y-90985498D02*
X112709794Y-91009689D01*
X112709794Y-91009689D02*
X112661413Y-91033879D01*
X113096842Y-90816165D02*
X113121032Y-90840356D01*
X113121032Y-90840356D02*
X113096842Y-90864546D01*
X113096842Y-90864546D02*
X113072651Y-90840356D01*
X113072651Y-90840356D02*
X113096842Y-90816165D01*
X113096842Y-90816165D02*
X113096842Y-90864546D01*
X113096842Y-90550070D02*
X113121032Y-90574260D01*
X113121032Y-90574260D02*
X113096842Y-90598451D01*
X113096842Y-90598451D02*
X113072651Y-90574260D01*
X113072651Y-90574260D02*
X113096842Y-90550070D01*
X113096842Y-90550070D02*
X113096842Y-90598451D01*
X113338747Y-90864546D02*
X113338747Y-90356546D01*
X113338747Y-90356546D02*
X113532271Y-90356546D01*
X113532271Y-90356546D02*
X113580652Y-90380736D01*
X113580652Y-90380736D02*
X113604842Y-90404927D01*
X113604842Y-90404927D02*
X113629033Y-90453308D01*
X113629033Y-90453308D02*
X113629033Y-90525879D01*
X113629033Y-90525879D02*
X113604842Y-90574260D01*
X113604842Y-90574260D02*
X113580652Y-90598451D01*
X113580652Y-90598451D02*
X113532271Y-90622641D01*
X113532271Y-90622641D02*
X113338747Y-90622641D01*
X114064461Y-90864546D02*
X114064461Y-90598451D01*
X114064461Y-90598451D02*
X114040271Y-90550070D01*
X114040271Y-90550070D02*
X113991890Y-90525879D01*
X113991890Y-90525879D02*
X113895128Y-90525879D01*
X113895128Y-90525879D02*
X113846747Y-90550070D01*
X114064461Y-90840356D02*
X114016080Y-90864546D01*
X114016080Y-90864546D02*
X113895128Y-90864546D01*
X113895128Y-90864546D02*
X113846747Y-90840356D01*
X113846747Y-90840356D02*
X113822556Y-90791975D01*
X113822556Y-90791975D02*
X113822556Y-90743594D01*
X113822556Y-90743594D02*
X113846747Y-90695213D01*
X113846747Y-90695213D02*
X113895128Y-90671022D01*
X113895128Y-90671022D02*
X114016080Y-90671022D01*
X114016080Y-90671022D02*
X114064461Y-90646832D01*
X114233794Y-90525879D02*
X114427318Y-90525879D01*
X114306366Y-90356546D02*
X114306366Y-90791975D01*
X114306366Y-90791975D02*
X114330556Y-90840356D01*
X114330556Y-90840356D02*
X114378937Y-90864546D01*
X114378937Y-90864546D02*
X114427318Y-90864546D01*
X114596652Y-90864546D02*
X114596652Y-90525879D01*
X114596652Y-90622641D02*
X114620842Y-90574260D01*
X114620842Y-90574260D02*
X114645033Y-90550070D01*
X114645033Y-90550070D02*
X114693414Y-90525879D01*
X114693414Y-90525879D02*
X114741795Y-90525879D01*
X114911128Y-90864546D02*
X114911128Y-90525879D01*
X114911128Y-90356546D02*
X114886937Y-90380736D01*
X114886937Y-90380736D02*
X114911128Y-90404927D01*
X114911128Y-90404927D02*
X114935318Y-90380736D01*
X114935318Y-90380736D02*
X114911128Y-90356546D01*
X114911128Y-90356546D02*
X114911128Y-90404927D01*
X115370747Y-90840356D02*
X115322366Y-90864546D01*
X115322366Y-90864546D02*
X115225604Y-90864546D01*
X115225604Y-90864546D02*
X115177223Y-90840356D01*
X115177223Y-90840356D02*
X115153033Y-90816165D01*
X115153033Y-90816165D02*
X115128842Y-90767784D01*
X115128842Y-90767784D02*
X115128842Y-90622641D01*
X115128842Y-90622641D02*
X115153033Y-90574260D01*
X115153033Y-90574260D02*
X115177223Y-90550070D01*
X115177223Y-90550070D02*
X115225604Y-90525879D01*
X115225604Y-90525879D02*
X115322366Y-90525879D01*
X115322366Y-90525879D02*
X115370747Y-90550070D01*
X115588462Y-90864546D02*
X115588462Y-90356546D01*
X115636843Y-90671022D02*
X115781986Y-90864546D01*
X115781986Y-90525879D02*
X115588462Y-90719403D01*
X116556081Y-90598451D02*
X116628653Y-90622641D01*
X116628653Y-90622641D02*
X116652843Y-90646832D01*
X116652843Y-90646832D02*
X116677034Y-90695213D01*
X116677034Y-90695213D02*
X116677034Y-90767784D01*
X116677034Y-90767784D02*
X116652843Y-90816165D01*
X116652843Y-90816165D02*
X116628653Y-90840356D01*
X116628653Y-90840356D02*
X116580272Y-90864546D01*
X116580272Y-90864546D02*
X116386748Y-90864546D01*
X116386748Y-90864546D02*
X116386748Y-90356546D01*
X116386748Y-90356546D02*
X116556081Y-90356546D01*
X116556081Y-90356546D02*
X116604462Y-90380736D01*
X116604462Y-90380736D02*
X116628653Y-90404927D01*
X116628653Y-90404927D02*
X116652843Y-90453308D01*
X116652843Y-90453308D02*
X116652843Y-90501689D01*
X116652843Y-90501689D02*
X116628653Y-90550070D01*
X116628653Y-90550070D02*
X116604462Y-90574260D01*
X116604462Y-90574260D02*
X116556081Y-90598451D01*
X116556081Y-90598451D02*
X116386748Y-90598451D01*
X116967319Y-90864546D02*
X116918938Y-90840356D01*
X116918938Y-90840356D02*
X116894748Y-90791975D01*
X116894748Y-90791975D02*
X116894748Y-90356546D01*
X117378557Y-90864546D02*
X117378557Y-90598451D01*
X117378557Y-90598451D02*
X117354367Y-90550070D01*
X117354367Y-90550070D02*
X117305986Y-90525879D01*
X117305986Y-90525879D02*
X117209224Y-90525879D01*
X117209224Y-90525879D02*
X117160843Y-90550070D01*
X117378557Y-90840356D02*
X117330176Y-90864546D01*
X117330176Y-90864546D02*
X117209224Y-90864546D01*
X117209224Y-90864546D02*
X117160843Y-90840356D01*
X117160843Y-90840356D02*
X117136652Y-90791975D01*
X117136652Y-90791975D02*
X117136652Y-90743594D01*
X117136652Y-90743594D02*
X117160843Y-90695213D01*
X117160843Y-90695213D02*
X117209224Y-90671022D01*
X117209224Y-90671022D02*
X117330176Y-90671022D01*
X117330176Y-90671022D02*
X117378557Y-90646832D01*
X117620462Y-90525879D02*
X117620462Y-90864546D01*
X117620462Y-90574260D02*
X117644652Y-90550070D01*
X117644652Y-90550070D02*
X117693033Y-90525879D01*
X117693033Y-90525879D02*
X117765605Y-90525879D01*
X117765605Y-90525879D02*
X117813986Y-90550070D01*
X117813986Y-90550070D02*
X117838176Y-90598451D01*
X117838176Y-90598451D02*
X117838176Y-90864546D01*
X118297795Y-90840356D02*
X118249414Y-90864546D01*
X118249414Y-90864546D02*
X118152652Y-90864546D01*
X118152652Y-90864546D02*
X118104271Y-90840356D01*
X118104271Y-90840356D02*
X118080081Y-90816165D01*
X118080081Y-90816165D02*
X118055890Y-90767784D01*
X118055890Y-90767784D02*
X118055890Y-90622641D01*
X118055890Y-90622641D02*
X118080081Y-90574260D01*
X118080081Y-90574260D02*
X118104271Y-90550070D01*
X118104271Y-90550070D02*
X118152652Y-90525879D01*
X118152652Y-90525879D02*
X118249414Y-90525879D01*
X118249414Y-90525879D02*
X118297795Y-90550070D01*
X118515510Y-90864546D02*
X118515510Y-90356546D01*
X118733224Y-90864546D02*
X118733224Y-90598451D01*
X118733224Y-90598451D02*
X118709034Y-90550070D01*
X118709034Y-90550070D02*
X118660653Y-90525879D01*
X118660653Y-90525879D02*
X118588081Y-90525879D01*
X118588081Y-90525879D02*
X118539700Y-90550070D01*
X118539700Y-90550070D02*
X118515510Y-90574260D01*
X119192843Y-90864546D02*
X119192843Y-90598451D01*
X119192843Y-90598451D02*
X119168653Y-90550070D01*
X119168653Y-90550070D02*
X119120272Y-90525879D01*
X119120272Y-90525879D02*
X119023510Y-90525879D01*
X119023510Y-90525879D02*
X118975129Y-90550070D01*
X119192843Y-90840356D02*
X119144462Y-90864546D01*
X119144462Y-90864546D02*
X119023510Y-90864546D01*
X119023510Y-90864546D02*
X118975129Y-90840356D01*
X118975129Y-90840356D02*
X118950938Y-90791975D01*
X118950938Y-90791975D02*
X118950938Y-90743594D01*
X118950938Y-90743594D02*
X118975129Y-90695213D01*
X118975129Y-90695213D02*
X119023510Y-90671022D01*
X119023510Y-90671022D02*
X119144462Y-90671022D01*
X119144462Y-90671022D02*
X119192843Y-90646832D01*
X119434748Y-90864546D02*
X119434748Y-90525879D01*
X119434748Y-90622641D02*
X119458938Y-90574260D01*
X119458938Y-90574260D02*
X119483129Y-90550070D01*
X119483129Y-90550070D02*
X119531510Y-90525879D01*
X119531510Y-90525879D02*
X119579891Y-90525879D01*
X119966938Y-90864546D02*
X119966938Y-90356546D01*
X119966938Y-90840356D02*
X119918557Y-90864546D01*
X119918557Y-90864546D02*
X119821795Y-90864546D01*
X119821795Y-90864546D02*
X119773414Y-90840356D01*
X119773414Y-90840356D02*
X119749224Y-90816165D01*
X119749224Y-90816165D02*
X119725033Y-90767784D01*
X119725033Y-90767784D02*
X119725033Y-90622641D01*
X119725033Y-90622641D02*
X119749224Y-90574260D01*
X119749224Y-90574260D02*
X119773414Y-90550070D01*
X119773414Y-90550070D02*
X119821795Y-90525879D01*
X119821795Y-90525879D02*
X119918557Y-90525879D01*
X119918557Y-90525879D02*
X119966938Y-90550070D01*
D12*
X112306672Y-89968962D02*
X112306672Y-88444962D01*
X112306672Y-88444962D02*
X112887243Y-88444962D01*
X112887243Y-88444962D02*
X113032386Y-88517533D01*
X113032386Y-88517533D02*
X113104957Y-88590105D01*
X113104957Y-88590105D02*
X113177529Y-88735248D01*
X113177529Y-88735248D02*
X113177529Y-88952962D01*
X113177529Y-88952962D02*
X113104957Y-89098105D01*
X113104957Y-89098105D02*
X113032386Y-89170676D01*
X113032386Y-89170676D02*
X112887243Y-89243248D01*
X112887243Y-89243248D02*
X112306672Y-89243248D01*
X114048386Y-89968962D02*
X113903243Y-89896391D01*
X113903243Y-89896391D02*
X113830672Y-89823819D01*
X113830672Y-89823819D02*
X113758100Y-89678676D01*
X113758100Y-89678676D02*
X113758100Y-89243248D01*
X113758100Y-89243248D02*
X113830672Y-89098105D01*
X113830672Y-89098105D02*
X113903243Y-89025533D01*
X113903243Y-89025533D02*
X114048386Y-88952962D01*
X114048386Y-88952962D02*
X114266100Y-88952962D01*
X114266100Y-88952962D02*
X114411243Y-89025533D01*
X114411243Y-89025533D02*
X114483815Y-89098105D01*
X114483815Y-89098105D02*
X114556386Y-89243248D01*
X114556386Y-89243248D02*
X114556386Y-89678676D01*
X114556386Y-89678676D02*
X114483815Y-89823819D01*
X114483815Y-89823819D02*
X114411243Y-89896391D01*
X114411243Y-89896391D02*
X114266100Y-89968962D01*
X114266100Y-89968962D02*
X114048386Y-89968962D01*
X115064386Y-88952962D02*
X115354672Y-89968962D01*
X115354672Y-89968962D02*
X115644957Y-89243248D01*
X115644957Y-89243248D02*
X115935243Y-89968962D01*
X115935243Y-89968962D02*
X116225529Y-88952962D01*
X117386671Y-89896391D02*
X117241528Y-89968962D01*
X117241528Y-89968962D02*
X116951243Y-89968962D01*
X116951243Y-89968962D02*
X116806100Y-89896391D01*
X116806100Y-89896391D02*
X116733528Y-89751248D01*
X116733528Y-89751248D02*
X116733528Y-89170676D01*
X116733528Y-89170676D02*
X116806100Y-89025533D01*
X116806100Y-89025533D02*
X116951243Y-88952962D01*
X116951243Y-88952962D02*
X117241528Y-88952962D01*
X117241528Y-88952962D02*
X117386671Y-89025533D01*
X117386671Y-89025533D02*
X117459243Y-89170676D01*
X117459243Y-89170676D02*
X117459243Y-89315819D01*
X117459243Y-89315819D02*
X116733528Y-89460962D01*
X118112386Y-89968962D02*
X118112386Y-88952962D01*
X118112386Y-89243248D02*
X118184957Y-89098105D01*
X118184957Y-89098105D02*
X118257529Y-89025533D01*
X118257529Y-89025533D02*
X118402671Y-88952962D01*
X118402671Y-88952962D02*
X118547814Y-88952962D01*
X120144386Y-89533533D02*
X120870101Y-89533533D01*
X119999243Y-89968962D02*
X120507243Y-88444962D01*
X120507243Y-88444962D02*
X121015243Y-89968962D01*
X121523244Y-89968962D02*
X121523244Y-88952962D01*
X121523244Y-89098105D02*
X121595815Y-89025533D01*
X121595815Y-89025533D02*
X121740958Y-88952962D01*
X121740958Y-88952962D02*
X121958672Y-88952962D01*
X121958672Y-88952962D02*
X122103815Y-89025533D01*
X122103815Y-89025533D02*
X122176387Y-89170676D01*
X122176387Y-89170676D02*
X122176387Y-89968962D01*
X122176387Y-89170676D02*
X122248958Y-89025533D01*
X122248958Y-89025533D02*
X122394101Y-88952962D01*
X122394101Y-88952962D02*
X122611815Y-88952962D01*
X122611815Y-88952962D02*
X122756958Y-89025533D01*
X122756958Y-89025533D02*
X122829529Y-89170676D01*
X122829529Y-89170676D02*
X122829529Y-89968962D01*
X123555244Y-88952962D02*
X123555244Y-90476962D01*
X123555244Y-89025533D02*
X123700387Y-88952962D01*
X123700387Y-88952962D02*
X123990672Y-88952962D01*
X123990672Y-88952962D02*
X124135815Y-89025533D01*
X124135815Y-89025533D02*
X124208387Y-89098105D01*
X124208387Y-89098105D02*
X124280958Y-89243248D01*
X124280958Y-89243248D02*
X124280958Y-89678676D01*
X124280958Y-89678676D02*
X124208387Y-89823819D01*
X124208387Y-89823819D02*
X124135815Y-89896391D01*
X124135815Y-89896391D02*
X123990672Y-89968962D01*
X123990672Y-89968962D02*
X123700387Y-89968962D01*
X123700387Y-89968962D02*
X123555244Y-89896391D01*
X125151815Y-89968962D02*
X125006672Y-89896391D01*
X125006672Y-89896391D02*
X124934101Y-89751248D01*
X124934101Y-89751248D02*
X124934101Y-88444962D01*
X125732387Y-89968962D02*
X125732387Y-88952962D01*
X125732387Y-88444962D02*
X125659815Y-88517533D01*
X125659815Y-88517533D02*
X125732387Y-88590105D01*
X125732387Y-88590105D02*
X125804958Y-88517533D01*
X125804958Y-88517533D02*
X125732387Y-88444962D01*
X125732387Y-88444962D02*
X125732387Y-88590105D01*
X126240386Y-88952962D02*
X126820958Y-88952962D01*
X126458101Y-89968962D02*
X126458101Y-88662676D01*
X126458101Y-88662676D02*
X126530672Y-88517533D01*
X126530672Y-88517533D02*
X126675815Y-88444962D01*
X126675815Y-88444962D02*
X126820958Y-88444962D01*
X127328958Y-89968962D02*
X127328958Y-88952962D01*
X127328958Y-88444962D02*
X127256386Y-88517533D01*
X127256386Y-88517533D02*
X127328958Y-88590105D01*
X127328958Y-88590105D02*
X127401529Y-88517533D01*
X127401529Y-88517533D02*
X127328958Y-88444962D01*
X127328958Y-88444962D02*
X127328958Y-88590105D01*
X128635243Y-89896391D02*
X128490100Y-89968962D01*
X128490100Y-89968962D02*
X128199815Y-89968962D01*
X128199815Y-89968962D02*
X128054672Y-89896391D01*
X128054672Y-89896391D02*
X127982100Y-89751248D01*
X127982100Y-89751248D02*
X127982100Y-89170676D01*
X127982100Y-89170676D02*
X128054672Y-89025533D01*
X128054672Y-89025533D02*
X128199815Y-88952962D01*
X128199815Y-88952962D02*
X128490100Y-88952962D01*
X128490100Y-88952962D02*
X128635243Y-89025533D01*
X128635243Y-89025533D02*
X128707815Y-89170676D01*
X128707815Y-89170676D02*
X128707815Y-89315819D01*
X128707815Y-89315819D02*
X127982100Y-89460962D01*
X129360958Y-89968962D02*
X129360958Y-88952962D01*
X129360958Y-89243248D02*
X129433529Y-89098105D01*
X129433529Y-89098105D02*
X129506101Y-89025533D01*
X129506101Y-89025533D02*
X129651243Y-88952962D01*
X129651243Y-88952962D02*
X129796386Y-88952962D01*
D13*
X132634510Y-70349400D02*
X133777368Y-70349400D01*
X133205939Y-70920828D02*
X133205939Y-69777971D01*
X127554510Y-70349400D02*
X128697368Y-70349400D01*
D11*
X105912270Y-74366641D02*
X105912270Y-73604641D01*
X105912270Y-73604641D02*
X106202556Y-73604641D01*
X106202556Y-73604641D02*
X106275127Y-73640927D01*
X106275127Y-73640927D02*
X106311413Y-73677213D01*
X106311413Y-73677213D02*
X106347699Y-73749784D01*
X106347699Y-73749784D02*
X106347699Y-73858641D01*
X106347699Y-73858641D02*
X106311413Y-73931213D01*
X106311413Y-73931213D02*
X106275127Y-73967498D01*
X106275127Y-73967498D02*
X106202556Y-74003784D01*
X106202556Y-74003784D02*
X105912270Y-74003784D01*
X106819413Y-73604641D02*
X106964556Y-73604641D01*
X106964556Y-73604641D02*
X107037127Y-73640927D01*
X107037127Y-73640927D02*
X107109699Y-73713498D01*
X107109699Y-73713498D02*
X107145984Y-73858641D01*
X107145984Y-73858641D02*
X107145984Y-74112641D01*
X107145984Y-74112641D02*
X107109699Y-74257784D01*
X107109699Y-74257784D02*
X107037127Y-74330356D01*
X107037127Y-74330356D02*
X106964556Y-74366641D01*
X106964556Y-74366641D02*
X106819413Y-74366641D01*
X106819413Y-74366641D02*
X106746842Y-74330356D01*
X106746842Y-74330356D02*
X106674270Y-74257784D01*
X106674270Y-74257784D02*
X106637984Y-74112641D01*
X106637984Y-74112641D02*
X106637984Y-73858641D01*
X106637984Y-73858641D02*
X106674270Y-73713498D01*
X106674270Y-73713498D02*
X106746842Y-73640927D01*
X106746842Y-73640927D02*
X106819413Y-73604641D01*
X107399985Y-73604641D02*
X107581413Y-74366641D01*
X107581413Y-74366641D02*
X107726556Y-73822356D01*
X107726556Y-73822356D02*
X107871699Y-74366641D01*
X107871699Y-74366641D02*
X108053128Y-73604641D01*
X108343413Y-73967498D02*
X108597413Y-73967498D01*
X108706270Y-74366641D02*
X108343413Y-74366641D01*
X108343413Y-74366641D02*
X108343413Y-73604641D01*
X108343413Y-73604641D02*
X108706270Y-73604641D01*
X109468271Y-74366641D02*
X109214271Y-74003784D01*
X109032842Y-74366641D02*
X109032842Y-73604641D01*
X109032842Y-73604641D02*
X109323128Y-73604641D01*
X109323128Y-73604641D02*
X109395699Y-73640927D01*
X109395699Y-73640927D02*
X109431985Y-73677213D01*
X109431985Y-73677213D02*
X109468271Y-73749784D01*
X109468271Y-73749784D02*
X109468271Y-73858641D01*
X109468271Y-73858641D02*
X109431985Y-73931213D01*
X109431985Y-73931213D02*
X109395699Y-73967498D01*
X109395699Y-73967498D02*
X109323128Y-74003784D01*
X109323128Y-74003784D02*
X109032842Y-74003784D01*
X110339127Y-74148927D02*
X110701985Y-74148927D01*
X110266556Y-74366641D02*
X110520556Y-73604641D01*
X110520556Y-73604641D02*
X110774556Y-74366641D01*
X111028556Y-74366641D02*
X111028556Y-73604641D01*
X111028556Y-73604641D02*
X111282556Y-74148927D01*
X111282556Y-74148927D02*
X111536556Y-73604641D01*
X111536556Y-73604641D02*
X111536556Y-74366641D01*
X111899413Y-74366641D02*
X111899413Y-73604641D01*
X111899413Y-73604641D02*
X112189699Y-73604641D01*
X112189699Y-73604641D02*
X112262270Y-73640927D01*
X112262270Y-73640927D02*
X112298556Y-73677213D01*
X112298556Y-73677213D02*
X112334842Y-73749784D01*
X112334842Y-73749784D02*
X112334842Y-73858641D01*
X112334842Y-73858641D02*
X112298556Y-73931213D01*
X112298556Y-73931213D02*
X112262270Y-73967498D01*
X112262270Y-73967498D02*
X112189699Y-74003784D01*
X112189699Y-74003784D02*
X111899413Y-74003784D01*
X113241984Y-74366641D02*
X113241984Y-73604641D01*
X113604841Y-74366641D02*
X113604841Y-73604641D01*
X113604841Y-73604641D02*
X114040270Y-74366641D01*
X114040270Y-74366641D02*
X114040270Y-73604641D01*
X114403127Y-74366641D02*
X114403127Y-73604641D01*
X114403127Y-73604641D02*
X114693413Y-73604641D01*
X114693413Y-73604641D02*
X114765984Y-73640927D01*
X114765984Y-73640927D02*
X114802270Y-73677213D01*
X114802270Y-73677213D02*
X114838556Y-73749784D01*
X114838556Y-73749784D02*
X114838556Y-73858641D01*
X114838556Y-73858641D02*
X114802270Y-73931213D01*
X114802270Y-73931213D02*
X114765984Y-73967498D01*
X114765984Y-73967498D02*
X114693413Y-74003784D01*
X114693413Y-74003784D02*
X114403127Y-74003784D01*
X115165127Y-73604641D02*
X115165127Y-74221498D01*
X115165127Y-74221498D02*
X115201413Y-74294070D01*
X115201413Y-74294070D02*
X115237699Y-74330356D01*
X115237699Y-74330356D02*
X115310270Y-74366641D01*
X115310270Y-74366641D02*
X115455413Y-74366641D01*
X115455413Y-74366641D02*
X115527984Y-74330356D01*
X115527984Y-74330356D02*
X115564270Y-74294070D01*
X115564270Y-74294070D02*
X115600556Y-74221498D01*
X115600556Y-74221498D02*
X115600556Y-73604641D01*
X115854556Y-73604641D02*
X116289985Y-73604641D01*
X116072270Y-74366641D02*
X116072270Y-73604641D01*
D14*
%TO.C,*%
%TO.C,L3*%
X142223333Y-82174819D02*
X141747143Y-82174819D01*
X141747143Y-82174819D02*
X141747143Y-81174819D01*
X142461429Y-81174819D02*
X143080476Y-81174819D01*
X143080476Y-81174819D02*
X142747143Y-81555771D01*
X142747143Y-81555771D02*
X142890000Y-81555771D01*
X142890000Y-81555771D02*
X142985238Y-81603390D01*
X142985238Y-81603390D02*
X143032857Y-81651009D01*
X143032857Y-81651009D02*
X143080476Y-81746247D01*
X143080476Y-81746247D02*
X143080476Y-81984342D01*
X143080476Y-81984342D02*
X143032857Y-82079580D01*
X143032857Y-82079580D02*
X142985238Y-82127200D01*
X142985238Y-82127200D02*
X142890000Y-82174819D01*
X142890000Y-82174819D02*
X142604286Y-82174819D01*
X142604286Y-82174819D02*
X142509048Y-82127200D01*
X142509048Y-82127200D02*
X142461429Y-82079580D01*
%TO.C,*%
%TO.C,D1*%
X138729777Y-70926153D02*
X138729777Y-69923271D01*
X138729777Y-69923271D02*
X138968558Y-69923271D01*
X138968558Y-69923271D02*
X139111827Y-69971027D01*
X139111827Y-69971027D02*
X139207340Y-70066540D01*
X139207340Y-70066540D02*
X139255096Y-70162052D01*
X139255096Y-70162052D02*
X139302852Y-70353077D01*
X139302852Y-70353077D02*
X139302852Y-70496346D01*
X139302852Y-70496346D02*
X139255096Y-70687371D01*
X139255096Y-70687371D02*
X139207340Y-70782884D01*
X139207340Y-70782884D02*
X139111827Y-70878397D01*
X139111827Y-70878397D02*
X138968558Y-70926153D01*
X138968558Y-70926153D02*
X138729777Y-70926153D01*
X140257978Y-70926153D02*
X139684903Y-70926153D01*
X139971440Y-70926153D02*
X139971440Y-69923271D01*
X139971440Y-69923271D02*
X139875928Y-70066540D01*
X139875928Y-70066540D02*
X139780415Y-70162052D01*
X139780415Y-70162052D02*
X139684903Y-70209809D01*
%TO.C,C1*%
X128400833Y-74249580D02*
X128353214Y-74297200D01*
X128353214Y-74297200D02*
X128210357Y-74344819D01*
X128210357Y-74344819D02*
X128115119Y-74344819D01*
X128115119Y-74344819D02*
X127972262Y-74297200D01*
X127972262Y-74297200D02*
X127877024Y-74201961D01*
X127877024Y-74201961D02*
X127829405Y-74106723D01*
X127829405Y-74106723D02*
X127781786Y-73916247D01*
X127781786Y-73916247D02*
X127781786Y-73773390D01*
X127781786Y-73773390D02*
X127829405Y-73582914D01*
X127829405Y-73582914D02*
X127877024Y-73487676D01*
X127877024Y-73487676D02*
X127972262Y-73392438D01*
X127972262Y-73392438D02*
X128115119Y-73344819D01*
X128115119Y-73344819D02*
X128210357Y-73344819D01*
X128210357Y-73344819D02*
X128353214Y-73392438D01*
X128353214Y-73392438D02*
X128400833Y-73440057D01*
X129353214Y-74344819D02*
X128781786Y-74344819D01*
X129067500Y-74344819D02*
X129067500Y-73344819D01*
X129067500Y-73344819D02*
X128972262Y-73487676D01*
X128972262Y-73487676D02*
X128877024Y-73582914D01*
X128877024Y-73582914D02*
X128781786Y-73630533D01*
%TO.C,R1*%
X141561333Y-70568819D02*
X141228000Y-70092628D01*
X140989905Y-70568819D02*
X140989905Y-69568819D01*
X140989905Y-69568819D02*
X141370857Y-69568819D01*
X141370857Y-69568819D02*
X141466095Y-69616438D01*
X141466095Y-69616438D02*
X141513714Y-69664057D01*
X141513714Y-69664057D02*
X141561333Y-69759295D01*
X141561333Y-69759295D02*
X141561333Y-69902152D01*
X141561333Y-69902152D02*
X141513714Y-69997390D01*
X141513714Y-69997390D02*
X141466095Y-70045009D01*
X141466095Y-70045009D02*
X141370857Y-70092628D01*
X141370857Y-70092628D02*
X140989905Y-70092628D01*
X142513714Y-70568819D02*
X141942286Y-70568819D01*
X142228000Y-70568819D02*
X142228000Y-69568819D01*
X142228000Y-69568819D02*
X142132762Y-69711676D01*
X142132762Y-69711676D02*
X142037524Y-69806914D01*
X142037524Y-69806914D02*
X141942286Y-69854533D01*
%TO.C,*%
%TO.C,L1*%
X118550833Y-82654819D02*
X118074643Y-82654819D01*
X118074643Y-82654819D02*
X118074643Y-81654819D01*
X119407976Y-82654819D02*
X118836548Y-82654819D01*
X119122262Y-82654819D02*
X119122262Y-81654819D01*
X119122262Y-81654819D02*
X119027024Y-81797676D01*
X119027024Y-81797676D02*
X118931786Y-81892914D01*
X118931786Y-81892914D02*
X118836548Y-81940533D01*
%TO.C,J4*%
X131686666Y-86364819D02*
X131686666Y-87079104D01*
X131686666Y-87079104D02*
X131639047Y-87221961D01*
X131639047Y-87221961D02*
X131543809Y-87317200D01*
X131543809Y-87317200D02*
X131400952Y-87364819D01*
X131400952Y-87364819D02*
X131305714Y-87364819D01*
X132591428Y-86698152D02*
X132591428Y-87364819D01*
X132353333Y-86317200D02*
X132115238Y-87031485D01*
X132115238Y-87031485D02*
X132734285Y-87031485D01*
%TO.C,L2*%
X134310833Y-76574819D02*
X133834643Y-76574819D01*
X133834643Y-76574819D02*
X133834643Y-75574819D01*
X134596548Y-75670057D02*
X134644167Y-75622438D01*
X134644167Y-75622438D02*
X134739405Y-75574819D01*
X134739405Y-75574819D02*
X134977500Y-75574819D01*
X134977500Y-75574819D02*
X135072738Y-75622438D01*
X135072738Y-75622438D02*
X135120357Y-75670057D01*
X135120357Y-75670057D02*
X135167976Y-75765295D01*
X135167976Y-75765295D02*
X135167976Y-75860533D01*
X135167976Y-75860533D02*
X135120357Y-76003390D01*
X135120357Y-76003390D02*
X134548929Y-76574819D01*
X134548929Y-76574819D02*
X135167976Y-76574819D01*
%TO.C,J1*%
X135926666Y-72234819D02*
X135926666Y-72949104D01*
X135926666Y-72949104D02*
X135879047Y-73091961D01*
X135879047Y-73091961D02*
X135783809Y-73187200D01*
X135783809Y-73187200D02*
X135640952Y-73234819D01*
X135640952Y-73234819D02*
X135545714Y-73234819D01*
X136926666Y-73234819D02*
X136355238Y-73234819D01*
X136640952Y-73234819D02*
X136640952Y-72234819D01*
X136640952Y-72234819D02*
X136545714Y-72377676D01*
X136545714Y-72377676D02*
X136450476Y-72472914D01*
X136450476Y-72472914D02*
X136355238Y-72520533D01*
D15*
%TO.C,J2*%
X149182667Y-84648318D02*
X149182667Y-85555461D01*
X149182667Y-85555461D02*
X149122190Y-85736889D01*
X149122190Y-85736889D02*
X149001238Y-85857842D01*
X149001238Y-85857842D02*
X148819809Y-85918318D01*
X148819809Y-85918318D02*
X148698857Y-85918318D01*
X149726952Y-84769270D02*
X149787428Y-84708794D01*
X149787428Y-84708794D02*
X149908381Y-84648318D01*
X149908381Y-84648318D02*
X150210762Y-84648318D01*
X150210762Y-84648318D02*
X150331714Y-84708794D01*
X150331714Y-84708794D02*
X150392190Y-84769270D01*
X150392190Y-84769270D02*
X150452667Y-84890222D01*
X150452667Y-84890222D02*
X150452667Y-85011175D01*
X150452667Y-85011175D02*
X150392190Y-85192603D01*
X150392190Y-85192603D02*
X149666476Y-85918318D01*
X149666476Y-85918318D02*
X150452667Y-85918318D01*
D14*
%TO.C,C5*%
X137893333Y-82099580D02*
X137845714Y-82147200D01*
X137845714Y-82147200D02*
X137702857Y-82194819D01*
X137702857Y-82194819D02*
X137607619Y-82194819D01*
X137607619Y-82194819D02*
X137464762Y-82147200D01*
X137464762Y-82147200D02*
X137369524Y-82051961D01*
X137369524Y-82051961D02*
X137321905Y-81956723D01*
X137321905Y-81956723D02*
X137274286Y-81766247D01*
X137274286Y-81766247D02*
X137274286Y-81623390D01*
X137274286Y-81623390D02*
X137321905Y-81432914D01*
X137321905Y-81432914D02*
X137369524Y-81337676D01*
X137369524Y-81337676D02*
X137464762Y-81242438D01*
X137464762Y-81242438D02*
X137607619Y-81194819D01*
X137607619Y-81194819D02*
X137702857Y-81194819D01*
X137702857Y-81194819D02*
X137845714Y-81242438D01*
X137845714Y-81242438D02*
X137893333Y-81290057D01*
X138798095Y-81194819D02*
X138321905Y-81194819D01*
X138321905Y-81194819D02*
X138274286Y-81671009D01*
X138274286Y-81671009D02*
X138321905Y-81623390D01*
X138321905Y-81623390D02*
X138417143Y-81575771D01*
X138417143Y-81575771D02*
X138655238Y-81575771D01*
X138655238Y-81575771D02*
X138750476Y-81623390D01*
X138750476Y-81623390D02*
X138798095Y-81671009D01*
X138798095Y-81671009D02*
X138845714Y-81766247D01*
X138845714Y-81766247D02*
X138845714Y-82004342D01*
X138845714Y-82004342D02*
X138798095Y-82099580D01*
X138798095Y-82099580D02*
X138750476Y-82147200D01*
X138750476Y-82147200D02*
X138655238Y-82194819D01*
X138655238Y-82194819D02*
X138417143Y-82194819D01*
X138417143Y-82194819D02*
X138321905Y-82147200D01*
X138321905Y-82147200D02*
X138274286Y-82099580D01*
%TO.C,C4*%
X130769583Y-74249580D02*
X130721964Y-74297200D01*
X130721964Y-74297200D02*
X130579107Y-74344819D01*
X130579107Y-74344819D02*
X130483869Y-74344819D01*
X130483869Y-74344819D02*
X130341012Y-74297200D01*
X130341012Y-74297200D02*
X130245774Y-74201961D01*
X130245774Y-74201961D02*
X130198155Y-74106723D01*
X130198155Y-74106723D02*
X130150536Y-73916247D01*
X130150536Y-73916247D02*
X130150536Y-73773390D01*
X130150536Y-73773390D02*
X130198155Y-73582914D01*
X130198155Y-73582914D02*
X130245774Y-73487676D01*
X130245774Y-73487676D02*
X130341012Y-73392438D01*
X130341012Y-73392438D02*
X130483869Y-73344819D01*
X130483869Y-73344819D02*
X130579107Y-73344819D01*
X130579107Y-73344819D02*
X130721964Y-73392438D01*
X130721964Y-73392438D02*
X130769583Y-73440057D01*
X131626726Y-73678152D02*
X131626726Y-74344819D01*
X131388631Y-73297200D02*
X131150536Y-74011485D01*
X131150536Y-74011485D02*
X131769583Y-74011485D01*
%TO.C,C3*%
X124573333Y-82519580D02*
X124525714Y-82567200D01*
X124525714Y-82567200D02*
X124382857Y-82614819D01*
X124382857Y-82614819D02*
X124287619Y-82614819D01*
X124287619Y-82614819D02*
X124144762Y-82567200D01*
X124144762Y-82567200D02*
X124049524Y-82471961D01*
X124049524Y-82471961D02*
X124001905Y-82376723D01*
X124001905Y-82376723D02*
X123954286Y-82186247D01*
X123954286Y-82186247D02*
X123954286Y-82043390D01*
X123954286Y-82043390D02*
X124001905Y-81852914D01*
X124001905Y-81852914D02*
X124049524Y-81757676D01*
X124049524Y-81757676D02*
X124144762Y-81662438D01*
X124144762Y-81662438D02*
X124287619Y-81614819D01*
X124287619Y-81614819D02*
X124382857Y-81614819D01*
X124382857Y-81614819D02*
X124525714Y-81662438D01*
X124525714Y-81662438D02*
X124573333Y-81710057D01*
X124906667Y-81614819D02*
X125525714Y-81614819D01*
X125525714Y-81614819D02*
X125192381Y-81995771D01*
X125192381Y-81995771D02*
X125335238Y-81995771D01*
X125335238Y-81995771D02*
X125430476Y-82043390D01*
X125430476Y-82043390D02*
X125478095Y-82091009D01*
X125478095Y-82091009D02*
X125525714Y-82186247D01*
X125525714Y-82186247D02*
X125525714Y-82424342D01*
X125525714Y-82424342D02*
X125478095Y-82519580D01*
X125478095Y-82519580D02*
X125430476Y-82567200D01*
X125430476Y-82567200D02*
X125335238Y-82614819D01*
X125335238Y-82614819D02*
X125049524Y-82614819D01*
X125049524Y-82614819D02*
X124954286Y-82567200D01*
X124954286Y-82567200D02*
X124906667Y-82519580D01*
%TO.C,C6*%
X145123333Y-76119580D02*
X145075714Y-76167200D01*
X145075714Y-76167200D02*
X144932857Y-76214819D01*
X144932857Y-76214819D02*
X144837619Y-76214819D01*
X144837619Y-76214819D02*
X144694762Y-76167200D01*
X144694762Y-76167200D02*
X144599524Y-76071961D01*
X144599524Y-76071961D02*
X144551905Y-75976723D01*
X144551905Y-75976723D02*
X144504286Y-75786247D01*
X144504286Y-75786247D02*
X144504286Y-75643390D01*
X144504286Y-75643390D02*
X144551905Y-75452914D01*
X144551905Y-75452914D02*
X144599524Y-75357676D01*
X144599524Y-75357676D02*
X144694762Y-75262438D01*
X144694762Y-75262438D02*
X144837619Y-75214819D01*
X144837619Y-75214819D02*
X144932857Y-75214819D01*
X144932857Y-75214819D02*
X145075714Y-75262438D01*
X145075714Y-75262438D02*
X145123333Y-75310057D01*
X145980476Y-75214819D02*
X145790000Y-75214819D01*
X145790000Y-75214819D02*
X145694762Y-75262438D01*
X145694762Y-75262438D02*
X145647143Y-75310057D01*
X145647143Y-75310057D02*
X145551905Y-75452914D01*
X145551905Y-75452914D02*
X145504286Y-75643390D01*
X145504286Y-75643390D02*
X145504286Y-76024342D01*
X145504286Y-76024342D02*
X145551905Y-76119580D01*
X145551905Y-76119580D02*
X145599524Y-76167200D01*
X145599524Y-76167200D02*
X145694762Y-76214819D01*
X145694762Y-76214819D02*
X145885238Y-76214819D01*
X145885238Y-76214819D02*
X145980476Y-76167200D01*
X145980476Y-76167200D02*
X146028095Y-76119580D01*
X146028095Y-76119580D02*
X146075714Y-76024342D01*
X146075714Y-76024342D02*
X146075714Y-75786247D01*
X146075714Y-75786247D02*
X146028095Y-75691009D01*
X146028095Y-75691009D02*
X145980476Y-75643390D01*
X145980476Y-75643390D02*
X145885238Y-75595771D01*
X145885238Y-75595771D02*
X145694762Y-75595771D01*
X145694762Y-75595771D02*
X145599524Y-75643390D01*
X145599524Y-75643390D02*
X145551905Y-75691009D01*
X145551905Y-75691009D02*
X145504286Y-75786247D01*
%TO.C,C2*%
X121453333Y-76409580D02*
X121405714Y-76457200D01*
X121405714Y-76457200D02*
X121262857Y-76504819D01*
X121262857Y-76504819D02*
X121167619Y-76504819D01*
X121167619Y-76504819D02*
X121024762Y-76457200D01*
X121024762Y-76457200D02*
X120929524Y-76361961D01*
X120929524Y-76361961D02*
X120881905Y-76266723D01*
X120881905Y-76266723D02*
X120834286Y-76076247D01*
X120834286Y-76076247D02*
X120834286Y-75933390D01*
X120834286Y-75933390D02*
X120881905Y-75742914D01*
X120881905Y-75742914D02*
X120929524Y-75647676D01*
X120929524Y-75647676D02*
X121024762Y-75552438D01*
X121024762Y-75552438D02*
X121167619Y-75504819D01*
X121167619Y-75504819D02*
X121262857Y-75504819D01*
X121262857Y-75504819D02*
X121405714Y-75552438D01*
X121405714Y-75552438D02*
X121453333Y-75600057D01*
X121834286Y-75600057D02*
X121881905Y-75552438D01*
X121881905Y-75552438D02*
X121977143Y-75504819D01*
X121977143Y-75504819D02*
X122215238Y-75504819D01*
X122215238Y-75504819D02*
X122310476Y-75552438D01*
X122310476Y-75552438D02*
X122358095Y-75600057D01*
X122358095Y-75600057D02*
X122405714Y-75695295D01*
X122405714Y-75695295D02*
X122405714Y-75790533D01*
X122405714Y-75790533D02*
X122358095Y-75933390D01*
X122358095Y-75933390D02*
X121786667Y-76504819D01*
X121786667Y-76504819D02*
X122405714Y-76504819D01*
%TO.C,U1*%
X130322380Y-81278276D02*
X130322380Y-81796371D01*
X130322380Y-81796371D02*
X130352857Y-81857323D01*
X130352857Y-81857323D02*
X130383333Y-81887800D01*
X130383333Y-81887800D02*
X130444285Y-81918276D01*
X130444285Y-81918276D02*
X130566190Y-81918276D01*
X130566190Y-81918276D02*
X130627142Y-81887800D01*
X130627142Y-81887800D02*
X130657619Y-81857323D01*
X130657619Y-81857323D02*
X130688095Y-81796371D01*
X130688095Y-81796371D02*
X130688095Y-81278276D01*
X131328095Y-81918276D02*
X130962380Y-81918276D01*
X131145237Y-81918276D02*
X131145237Y-81278276D01*
X131145237Y-81278276D02*
X131084285Y-81369704D01*
X131084285Y-81369704D02*
X131023333Y-81430657D01*
X131023333Y-81430657D02*
X130962380Y-81461133D01*
D15*
%TO.C,J3*%
X112352667Y-84902318D02*
X112352667Y-85809461D01*
X112352667Y-85809461D02*
X112292190Y-85990889D01*
X112292190Y-85990889D02*
X112171238Y-86111842D01*
X112171238Y-86111842D02*
X111989809Y-86172318D01*
X111989809Y-86172318D02*
X111868857Y-86172318D01*
X112836476Y-84902318D02*
X113622667Y-84902318D01*
X113622667Y-84902318D02*
X113199333Y-85386127D01*
X113199333Y-85386127D02*
X113380762Y-85386127D01*
X113380762Y-85386127D02*
X113501714Y-85446603D01*
X113501714Y-85446603D02*
X113562190Y-85507080D01*
X113562190Y-85507080D02*
X113622667Y-85628032D01*
X113622667Y-85628032D02*
X113622667Y-85930413D01*
X113622667Y-85930413D02*
X113562190Y-86051365D01*
X113562190Y-86051365D02*
X113501714Y-86111842D01*
X113501714Y-86111842D02*
X113380762Y-86172318D01*
X113380762Y-86172318D02*
X113017905Y-86172318D01*
X113017905Y-86172318D02*
X112896952Y-86111842D01*
X112896952Y-86111842D02*
X112836476Y-86051365D01*
D16*
%TO.C,L3*%
X142048733Y-78582500D02*
X142391267Y-78582500D01*
X142048733Y-79602500D02*
X142391267Y-79602500D01*
D17*
%TO.C,D1*%
X138850000Y-67615000D02*
X138850000Y-67445000D01*
X139750000Y-67445000D02*
X139750000Y-67615000D01*
D18*
X139400000Y-69530000D02*
G75*
G03*
X139400000Y-69530000I-100000J0D01*
G01*
D16*
%TO.C,C1*%
X129050000Y-76153733D02*
X129050000Y-76446267D01*
X128030000Y-76153733D02*
X128030000Y-76446267D01*
%TO.C,R1*%
X140955500Y-67818724D02*
X140955500Y-67309276D01*
X142000500Y-67818724D02*
X142000500Y-67309276D01*
%TO.C,L1*%
X118558733Y-78922500D02*
X118901267Y-78922500D01*
X118558733Y-79942500D02*
X118901267Y-79942500D01*
%TO.C,J4*%
X130690000Y-90890000D02*
X130690000Y-91010000D01*
X130690000Y-91010000D02*
X133350000Y-91010000D01*
X132020000Y-88350000D02*
X133350000Y-88350000D01*
X133350000Y-88350000D02*
X133350000Y-89680000D01*
X133350000Y-90890000D02*
X133350000Y-91010000D01*
%TO.C,L2*%
X134820000Y-78413733D02*
X134820000Y-78706267D01*
X133800000Y-78413733D02*
X133800000Y-78706267D01*
D17*
%TO.C,J1*%
X125732500Y-71680000D02*
X125732500Y-62680000D01*
X135732500Y-62680000D02*
X125732500Y-62680000D01*
X135732500Y-62680000D02*
X135732500Y-71680000D01*
X135732500Y-71680000D02*
X125732500Y-71680000D01*
D18*
X136482500Y-67180000D02*
G75*
G03*
X136482500Y-67180000I-100000J0D01*
G01*
D19*
%TO.C,J2*%
X148285000Y-79680000D02*
X148285000Y-79680000D01*
X148385000Y-79680000D02*
X148385000Y-79680000D01*
D18*
X148835000Y-80880000D02*
X148835000Y-78480000D01*
X150735000Y-76530000D02*
X153135000Y-76530000D01*
X153135000Y-82830000D02*
X150735000Y-82830000D01*
X155135000Y-78480000D02*
X155135000Y-80880000D01*
X155935000Y-76955000D02*
X163035000Y-76955000D01*
X163035000Y-76955000D02*
X163035000Y-82405000D01*
X163035000Y-82405000D02*
X155935000Y-82405000D01*
D19*
X148385000Y-79680000D02*
G75*
G03*
X148285000Y-79680000I-50000J0D01*
G01*
X148285000Y-79680000D02*
G75*
G03*
X148385000Y-79680000I50000J0D01*
G01*
D16*
%TO.C,C5*%
X137983733Y-78582500D02*
X138276267Y-78582500D01*
X137983733Y-79602500D02*
X138276267Y-79602500D01*
%TO.C,C4*%
X130526250Y-76446267D02*
X130526250Y-76153733D01*
X131546250Y-76446267D02*
X131546250Y-76153733D01*
%TO.C,C3*%
X124613733Y-78922500D02*
X124906267Y-78922500D01*
X124613733Y-79942500D02*
X124906267Y-79942500D01*
%TO.C,C6*%
X144860000Y-78376267D02*
X144860000Y-78083733D01*
X145880000Y-78376267D02*
X145880000Y-78083733D01*
%TO.C,C2*%
X121160000Y-78716267D02*
X121160000Y-78423733D01*
X122180000Y-78716267D02*
X122180000Y-78423733D01*
D17*
%TO.C,U1*%
X129847500Y-78470000D02*
X131847500Y-78470000D01*
X129847500Y-80890000D02*
X131847500Y-80890000D01*
D18*
X129022500Y-78930000D02*
G75*
G03*
X129022500Y-78930000I-100000J0D01*
G01*
D19*
%TO.C,J3*%
X113865000Y-79680000D02*
X113865000Y-79680000D01*
X113765000Y-79680000D02*
X113765000Y-79680000D01*
D18*
X113315000Y-78480000D02*
X113315000Y-80880000D01*
X111415000Y-82830000D02*
X109015000Y-82830000D01*
X109015000Y-76530000D02*
X111415000Y-76530000D01*
X107015000Y-80880000D02*
X107015000Y-78480000D01*
X106215000Y-82405000D02*
X99115000Y-82405000D01*
X99115000Y-82405000D02*
X99115000Y-76955000D01*
X99115000Y-76955000D02*
X106215000Y-76955000D01*
D19*
X113765000Y-79680000D02*
G75*
G03*
X113865000Y-79680000I50000J0D01*
G01*
X113865000Y-79680000D02*
G75*
G03*
X113765000Y-79680000I-50000J0D01*
G01*
%TD*%
M02*
