%TF.GenerationSoftware,KiCad,Pcbnew,7.0.5*%
%TF.CreationDate,2023-11-04T20:07:04-04:00*%
%TF.ProjectId,modular,6d6f6475-6c61-4722-9e6b-696361645f70,rev?*%
%TF.SameCoordinates,Original*%
%TF.FileFunction,Drillmap*%
%TF.FilePolarity,Positive*%
%FSLAX45Y45*%
G04 Gerber Fmt 4.5, Leading zero omitted, Abs format (unit mm)*
G04 Created by KiCad (PCBNEW 7.0.5) date 2023-11-04 20:07:04*
%MOMM*%
%LPD*%
G01*
G04 APERTURE LIST*
%ADD10C,0.200000*%
%ADD11C,0.040000*%
%ADD12C,0.100000*%
%ADD13C,0.130000*%
%ADD14C,0.150000*%
%ADD15C,0.160000*%
%ADD16C,0.270000*%
G04 APERTURE END LIST*
D10*
X10562000Y-6137000D02*
X15642000Y-6137000D01*
X15642000Y-9130000D01*
X10562000Y-9130000D01*
X10562000Y-6137000D01*
D11*
X10648000Y-7244400D02*
X10688000Y-7284400D01*
X10688000Y-7244400D02*
X10648000Y-7284400D01*
X10774098Y-7097288D02*
X10814098Y-7137288D01*
X10814098Y-7097288D02*
X10774098Y-7137288D01*
X10813351Y-6802886D02*
X10853351Y-6842886D01*
X10853351Y-6802886D02*
X10813351Y-6842886D01*
X10876600Y-7269800D02*
X10916600Y-7309800D01*
X10916600Y-7269800D02*
X10876600Y-7309800D01*
X11029246Y-7215048D02*
X11069246Y-7255048D01*
X11069246Y-7215048D02*
X11029246Y-7255048D01*
X11054480Y-7060838D02*
X11094480Y-7100838D01*
X11094480Y-7060838D02*
X11054480Y-7100838D01*
X11105200Y-9045944D02*
X11145200Y-9085944D01*
X11145200Y-9045944D02*
X11105200Y-9085944D01*
X11208690Y-6746810D02*
X11248690Y-6786810D01*
X11248690Y-6746810D02*
X11208690Y-6786810D01*
X11239532Y-8743000D02*
X11279532Y-8783000D01*
X11279532Y-8743000D02*
X11239532Y-8783000D01*
X11298412Y-7144953D02*
X11338412Y-7184953D01*
X11338412Y-7144953D02*
X11298412Y-7184953D01*
X11351685Y-8580510D02*
X11391685Y-8620510D01*
X11391685Y-8580510D02*
X11351685Y-8620510D01*
X11371312Y-6438390D02*
X11411312Y-6478390D01*
X11411312Y-6438390D02*
X11371312Y-6478390D01*
X11384600Y-7498400D02*
X11424600Y-7538400D01*
X11424600Y-7498400D02*
X11384600Y-7538400D01*
X11417000Y-7831000D02*
X11457000Y-7871000D01*
X11457000Y-7831000D02*
X11417000Y-7871000D01*
X11418000Y-8061000D02*
X11458000Y-8101000D01*
X11458000Y-8061000D02*
X11418000Y-8101000D01*
X11449819Y-8916968D02*
X11489819Y-8956968D01*
X11489819Y-8916968D02*
X11449819Y-8956968D01*
X11469446Y-7240283D02*
X11509446Y-7280283D01*
X11509446Y-7240283D02*
X11469446Y-7280283D01*
X11517110Y-6962704D02*
X11557110Y-7002704D01*
X11557110Y-6962704D02*
X11517110Y-7002704D01*
X11519914Y-6662695D02*
X11559914Y-6702695D01*
X11559914Y-6662695D02*
X11519914Y-6702695D01*
X11524143Y-7790000D02*
X11564143Y-7830000D01*
X11564143Y-7790000D02*
X11524143Y-7830000D01*
X11541000Y-8061000D02*
X11581000Y-8101000D01*
X11581000Y-8061000D02*
X11541000Y-8101000D01*
X11590010Y-8524433D02*
X11630010Y-8564433D01*
X11630010Y-8524433D02*
X11590010Y-8564433D01*
X11602504Y-6509059D02*
X11642504Y-6549059D01*
X11642504Y-6509059D02*
X11602504Y-6549059D01*
X11604029Y-8695466D02*
X11644029Y-8735466D01*
X11644029Y-8695466D02*
X11604029Y-8735466D01*
X11629263Y-7428139D02*
X11669263Y-7468139D01*
X11669263Y-7428139D02*
X11629263Y-7468139D01*
X11643286Y-7790000D02*
X11683286Y-7830000D01*
X11683286Y-7790000D02*
X11643286Y-7830000D01*
X11660105Y-8286108D02*
X11700105Y-8326108D01*
X11700105Y-8286108D02*
X11660105Y-8326108D01*
X11671000Y-8062000D02*
X11711000Y-8102000D01*
X11711000Y-8062000D02*
X11671000Y-8102000D01*
X11671321Y-8995475D02*
X11711321Y-9035475D01*
X11711321Y-8995475D02*
X11671321Y-9035475D01*
X11741293Y-6891781D02*
X11781293Y-6931781D01*
X11781293Y-6891781D02*
X11741293Y-6931781D01*
X11741293Y-7114685D02*
X11781293Y-7154685D01*
X11781293Y-7114685D02*
X11741293Y-7154685D01*
X11749828Y-8810423D02*
X11789828Y-8850423D01*
X11789828Y-8810423D02*
X11749828Y-8850423D01*
X11752632Y-6603815D02*
X11792632Y-6643815D01*
X11792632Y-6603815D02*
X11752632Y-6643815D01*
X11762429Y-7790000D02*
X11802429Y-7830000D01*
X11802429Y-7790000D02*
X11762429Y-7830000D01*
X11778143Y-8062000D02*
X11818143Y-8102000D01*
X11818143Y-8062000D02*
X11778143Y-8102000D01*
X11825531Y-8479572D02*
X11865531Y-8519572D01*
X11865531Y-8479572D02*
X11825531Y-8519572D01*
X11876000Y-6839336D02*
X11916000Y-6879336D01*
X11916000Y-6839336D02*
X11876000Y-6879336D01*
X11881572Y-7790000D02*
X11921572Y-7830000D01*
X11921572Y-7790000D02*
X11881572Y-7830000D01*
X11897286Y-8062000D02*
X11937286Y-8102000D01*
X11937286Y-8062000D02*
X11897286Y-8102000D01*
X11915253Y-6351471D02*
X11955253Y-6391471D01*
X11955253Y-6351471D02*
X11915253Y-6391471D01*
X11929272Y-7144953D02*
X11969272Y-7184953D01*
X11969272Y-7144953D02*
X11929272Y-7184953D01*
X12000714Y-7790000D02*
X12040714Y-7830000D01*
X12040714Y-7790000D02*
X12000714Y-7830000D01*
X12013387Y-8922576D02*
X12053387Y-8962576D01*
X12053387Y-8922576D02*
X12013387Y-8962576D01*
X12016191Y-7433746D02*
X12056191Y-7473746D01*
X12056191Y-7433746D02*
X12016191Y-7473746D01*
X12016429Y-8062000D02*
X12056429Y-8102000D01*
X12056429Y-8062000D02*
X12016429Y-8102000D01*
X12021798Y-8717897D02*
X12061798Y-8757897D01*
X12061798Y-8717897D02*
X12021798Y-8757897D01*
X12117128Y-8227228D02*
X12157128Y-8267228D01*
X12157128Y-8227228D02*
X12117128Y-8267228D01*
X12117128Y-8454338D02*
X12157128Y-8494338D01*
X12157128Y-8454338D02*
X12117128Y-8494338D01*
X12119857Y-7790000D02*
X12159857Y-7830000D01*
X12159857Y-7790000D02*
X12119857Y-7830000D01*
X12119932Y-6665499D02*
X12159932Y-6705499D01*
X12159932Y-6665499D02*
X12119932Y-6705499D01*
X12135572Y-8062000D02*
X12175572Y-8102000D01*
X12175572Y-8062000D02*
X12135572Y-8102000D01*
X12197400Y-7193600D02*
X12237400Y-7233600D01*
X12237400Y-7193600D02*
X12197400Y-7233600D01*
X12209654Y-8975849D02*
X12249654Y-9015849D01*
X12249654Y-8975849D02*
X12209654Y-9015849D01*
X12239000Y-7790000D02*
X12279000Y-7830000D01*
X12279000Y-7790000D02*
X12239000Y-7830000D01*
X12248908Y-6881393D02*
X12288908Y-6921393D01*
X12288908Y-6881393D02*
X12248908Y-6921393D01*
X12254714Y-8062000D02*
X12294714Y-8102000D01*
X12294714Y-8062000D02*
X12254714Y-8102000D01*
X12327415Y-7425335D02*
X12367415Y-7465335D01*
X12367415Y-7425335D02*
X12327415Y-7465335D01*
X12352649Y-6387921D02*
X12392649Y-6427921D01*
X12392649Y-6387921D02*
X12352649Y-6427921D01*
X12355453Y-8639390D02*
X12395453Y-8679390D01*
X12395453Y-8639390D02*
X12355453Y-8679390D01*
X12358143Y-7790000D02*
X12398143Y-7830000D01*
X12398143Y-7790000D02*
X12358143Y-7830000D01*
X12373857Y-8062000D02*
X12413857Y-8102000D01*
X12413857Y-8062000D02*
X12373857Y-8102000D01*
X12377884Y-6718772D02*
X12417884Y-6758772D01*
X12417884Y-6718772D02*
X12377884Y-6758772D01*
X12389099Y-8415084D02*
X12429099Y-8455084D01*
X12429099Y-8415084D02*
X12389099Y-8455084D01*
X12414333Y-7001958D02*
X12454333Y-7041958D01*
X12454333Y-7001958D02*
X12414333Y-7041958D01*
X12462143Y-7792000D02*
X12502143Y-7832000D01*
X12502143Y-7792000D02*
X12462143Y-7832000D01*
X12467606Y-6561758D02*
X12507606Y-6601758D01*
X12507606Y-6561758D02*
X12467606Y-6601758D01*
X12493000Y-8062000D02*
X12533000Y-8102000D01*
X12533000Y-8062000D02*
X12493000Y-8102000D01*
X12543309Y-8877715D02*
X12583309Y-8917715D01*
X12583309Y-8877715D02*
X12543309Y-8917715D01*
X12548917Y-8594529D02*
X12588917Y-8634529D01*
X12588917Y-8594529D02*
X12548917Y-8634529D01*
X12578400Y-7346000D02*
X12618400Y-7386000D01*
X12618400Y-7346000D02*
X12578400Y-7386000D01*
X12581000Y-7794000D02*
X12621000Y-7834000D01*
X12621000Y-7794000D02*
X12581000Y-7834000D01*
X12603800Y-6888800D02*
X12643800Y-6928800D01*
X12643800Y-6888800D02*
X12603800Y-6928800D01*
X12612143Y-8062000D02*
X12652143Y-8102000D01*
X12652143Y-8062000D02*
X12612143Y-8102000D01*
X12661000Y-7645000D02*
X12701000Y-7685000D01*
X12701000Y-7645000D02*
X12661000Y-7685000D01*
X12674966Y-6445973D02*
X12714966Y-6485973D01*
X12714966Y-6445973D02*
X12674966Y-6485973D01*
X12686000Y-7851000D02*
X12726000Y-7891000D01*
X12726000Y-7851000D02*
X12686000Y-7891000D01*
X12694716Y-8370223D02*
X12734716Y-8410223D01*
X12734716Y-8370223D02*
X12694716Y-8410223D01*
X12712000Y-8002000D02*
X12752000Y-8042000D01*
X12752000Y-8002000D02*
X12712000Y-8042000D01*
X12767615Y-8689859D02*
X12807615Y-8729859D01*
X12807615Y-8689859D02*
X12767615Y-8729859D01*
X12800000Y-7851000D02*
X12840000Y-7891000D01*
X12840000Y-7851000D02*
X12800000Y-7891000D01*
X12834000Y-8001000D02*
X12874000Y-8041000D01*
X12874000Y-8001000D02*
X12834000Y-8041000D01*
X12944133Y-6357653D02*
X12984133Y-6397653D01*
X12984133Y-6357653D02*
X12944133Y-6397653D01*
X12958000Y-7705000D02*
X12998000Y-7745000D01*
X12998000Y-7705000D02*
X12958000Y-7745000D01*
X12984800Y-6888800D02*
X13024800Y-6928800D01*
X13024800Y-6888800D02*
X12984800Y-6928800D01*
X13000332Y-8286108D02*
X13040332Y-8326108D01*
X13040332Y-8286108D02*
X13000332Y-8326108D01*
X13188066Y-6963278D02*
X13228066Y-7003278D01*
X13228066Y-6963278D02*
X13188066Y-7003278D01*
X13196477Y-6454385D02*
X13236477Y-6494385D01*
X13236477Y-6454385D02*
X13196477Y-6494385D01*
X13214000Y-8124000D02*
X13254000Y-8164000D01*
X13254000Y-8124000D02*
X13214000Y-8164000D01*
X13232000Y-7462000D02*
X13272000Y-7502000D01*
X13272000Y-7462000D02*
X13232000Y-7502000D01*
X13282000Y-7832000D02*
X13322000Y-7872000D01*
X13322000Y-7832000D02*
X13282000Y-7872000D01*
X13282000Y-8019000D02*
X13322000Y-8059000D01*
X13322000Y-8019000D02*
X13282000Y-8059000D01*
X13331060Y-7055804D02*
X13371060Y-7095804D01*
X13371060Y-7055804D02*
X13331060Y-7095804D01*
X13366000Y-8073000D02*
X13406000Y-8113000D01*
X13406000Y-8073000D02*
X13366000Y-8113000D01*
X13392867Y-7327201D02*
X13432867Y-7367201D01*
X13432867Y-7327201D02*
X13392867Y-7367201D01*
X13427792Y-6332418D02*
X13467792Y-6372418D01*
X13467792Y-6332418D02*
X13427792Y-6372418D01*
X13443336Y-8373027D02*
X13483336Y-8413027D01*
X13483336Y-8373027D02*
X13443336Y-8413027D01*
X13443336Y-8681447D02*
X13483336Y-8721447D01*
X13483336Y-8681447D02*
X13443336Y-8721447D01*
X13464000Y-8057000D02*
X13504000Y-8097000D01*
X13504000Y-8057000D02*
X13464000Y-8097000D01*
X13516236Y-8235639D02*
X13556236Y-8275639D01*
X13556236Y-8235639D02*
X13516236Y-8275639D01*
X13534000Y-7752981D02*
X13574000Y-7792981D01*
X13574000Y-7752981D02*
X13534000Y-7792981D01*
X13561097Y-8995475D02*
X13601097Y-9035475D01*
X13601097Y-8995475D02*
X13561097Y-9035475D01*
X13571000Y-7609000D02*
X13611000Y-7649000D01*
X13611000Y-7609000D02*
X13571000Y-7649000D01*
X13574143Y-8016000D02*
X13614143Y-8056000D01*
X13614143Y-8016000D02*
X13574143Y-8056000D01*
X13653143Y-7752981D02*
X13693143Y-7792981D01*
X13693143Y-7752981D02*
X13653143Y-7792981D01*
X13684465Y-6903824D02*
X13724465Y-6943824D01*
X13724465Y-6903824D02*
X13684465Y-6943824D01*
X13693286Y-8016000D02*
X13733286Y-8056000D01*
X13733286Y-8016000D02*
X13693286Y-8056000D01*
X13695680Y-8608548D02*
X13735680Y-8648548D01*
X13735680Y-8608548D02*
X13695680Y-8648548D01*
X13772286Y-7752981D02*
X13812286Y-7792981D01*
X13812286Y-7752981D02*
X13772286Y-7792981D01*
X13776991Y-6298199D02*
X13816991Y-6338199D01*
X13816991Y-6298199D02*
X13776991Y-6338199D01*
X13812429Y-8016000D02*
X13852429Y-8056000D01*
X13852429Y-8016000D02*
X13812429Y-8056000D01*
X13823000Y-7473000D02*
X13863000Y-7513000D01*
X13863000Y-7473000D02*
X13823000Y-7513000D01*
X13833067Y-8316950D02*
X13873067Y-8356950D01*
X13873067Y-8316950D02*
X13833067Y-8356950D01*
X13848000Y-6539000D02*
X13888000Y-6579000D01*
X13888000Y-6539000D02*
X13848000Y-6579000D01*
X13891428Y-7752981D02*
X13931428Y-7792981D01*
X13931428Y-7752981D02*
X13891428Y-7792981D01*
X13911574Y-8748739D02*
X13951574Y-8788739D01*
X13951574Y-8748739D02*
X13911574Y-8788739D01*
X13931572Y-8016000D02*
X13971572Y-8056000D01*
X13971572Y-8016000D02*
X13931572Y-8056000D01*
X13950000Y-7219000D02*
X13990000Y-7259000D01*
X13990000Y-7219000D02*
X13950000Y-7259000D01*
X13950828Y-8961829D02*
X13990828Y-9001829D01*
X13990828Y-8961829D02*
X13950828Y-9001829D01*
X13967651Y-8518826D02*
X14007651Y-8558826D01*
X14007651Y-8518826D02*
X13967651Y-8558826D01*
X14010571Y-7752981D02*
X14050571Y-7792981D01*
X14050571Y-7752981D02*
X14010571Y-7792981D01*
X14050714Y-8016000D02*
X14090714Y-8056000D01*
X14090714Y-8016000D02*
X14050714Y-8056000D01*
X14077000Y-6457000D02*
X14117000Y-6497000D01*
X14117000Y-6457000D02*
X14077000Y-6497000D01*
X14077000Y-7473000D02*
X14117000Y-7513000D01*
X14117000Y-7473000D02*
X14077000Y-7513000D01*
X14129714Y-7752981D02*
X14169714Y-7792981D01*
X14169714Y-7752981D02*
X14129714Y-7792981D01*
X14133076Y-8286108D02*
X14173076Y-8326108D01*
X14173076Y-8286108D02*
X14133076Y-8326108D01*
X14166722Y-6250534D02*
X14206722Y-6290534D01*
X14206722Y-6250534D02*
X14166722Y-6290534D01*
X14169857Y-8016000D02*
X14209857Y-8056000D01*
X14209857Y-8016000D02*
X14169857Y-8056000D01*
X14197564Y-8675840D02*
X14237564Y-8715840D01*
X14237564Y-8675840D02*
X14197564Y-8715840D01*
X14248857Y-7752981D02*
X14288857Y-7792981D01*
X14288857Y-7752981D02*
X14248857Y-7792981D01*
X14289000Y-8016000D02*
X14329000Y-8056000D01*
X14329000Y-8016000D02*
X14289000Y-8056000D01*
X14295698Y-8459945D02*
X14335698Y-8499945D01*
X14335698Y-8459945D02*
X14295698Y-8499945D01*
X14326540Y-8905753D02*
X14366540Y-8945753D01*
X14366540Y-8905753D02*
X14326540Y-8945753D01*
X14331000Y-7092000D02*
X14371000Y-7132000D01*
X14371000Y-7092000D02*
X14331000Y-7132000D01*
X14331000Y-7346000D02*
X14371000Y-7386000D01*
X14371000Y-7346000D02*
X14331000Y-7386000D01*
X14368000Y-7752981D02*
X14408000Y-7792981D01*
X14408000Y-7752981D02*
X14368000Y-7792981D01*
X14408143Y-8016000D02*
X14448143Y-8056000D01*
X14448143Y-8016000D02*
X14408143Y-8056000D01*
X14458000Y-6330000D02*
X14498000Y-6370000D01*
X14498000Y-6330000D02*
X14458000Y-6370000D01*
X14458000Y-6711000D02*
X14498000Y-6751000D01*
X14498000Y-6711000D02*
X14458000Y-6751000D01*
X14458320Y-8608548D02*
X14498320Y-8648548D01*
X14498320Y-8608548D02*
X14458320Y-8648548D01*
X14486358Y-8274893D02*
X14526358Y-8314893D01*
X14526358Y-8274893D02*
X14486358Y-8314893D01*
X14525000Y-8021000D02*
X14565000Y-8061000D01*
X14565000Y-8021000D02*
X14525000Y-8061000D01*
X14585000Y-7092000D02*
X14625000Y-7132000D01*
X14625000Y-7092000D02*
X14585000Y-7132000D01*
X14585000Y-7346000D02*
X14625000Y-7386000D01*
X14625000Y-7346000D02*
X14585000Y-7386000D01*
X14632000Y-8023000D02*
X14672000Y-8063000D01*
X14672000Y-8023000D02*
X14632000Y-8063000D01*
X14659000Y-7854000D02*
X14699000Y-7894000D01*
X14699000Y-7854000D02*
X14659000Y-7894000D01*
X14662999Y-8813227D02*
X14702999Y-8853227D01*
X14702999Y-8813227D02*
X14662999Y-8853227D01*
X14699448Y-6833728D02*
X14739448Y-6873728D01*
X14739448Y-6833728D02*
X14699448Y-6873728D01*
X14707860Y-8566491D02*
X14747860Y-8606491D01*
X14747860Y-8566491D02*
X14707860Y-8606491D01*
X14754000Y-8025000D02*
X14794000Y-8065000D01*
X14794000Y-8025000D02*
X14754000Y-8065000D01*
X14775152Y-6497270D02*
X14815152Y-6537270D01*
X14815152Y-6497270D02*
X14775152Y-6537270D01*
X14776000Y-7858000D02*
X14816000Y-7898000D01*
X14816000Y-7858000D02*
X14776000Y-7898000D01*
X14839000Y-7219000D02*
X14879000Y-7259000D01*
X14879000Y-7219000D02*
X14839000Y-7259000D01*
X14932166Y-7470196D02*
X14972166Y-7510196D01*
X14972166Y-7470196D02*
X14932166Y-7510196D01*
X14965811Y-6839336D02*
X15005811Y-6879336D01*
X15005811Y-6839336D02*
X14965811Y-6879336D01*
X15192921Y-7041211D02*
X15232921Y-7081211D01*
X15232921Y-7041211D02*
X15192921Y-7081211D01*
X15265820Y-7346828D02*
X15305820Y-7386828D01*
X15305820Y-7346828D02*
X15265820Y-7386828D01*
D12*
X13252000Y-8968000D02*
G75*
G03*
X13252000Y-8968000I-50000J0D01*
G01*
D13*
X12823250Y-6653000D02*
X12823250Y-6783000D01*
X12758250Y-6718000D02*
X12888250Y-6718000D01*
X13323250Y-6653000D02*
X13323250Y-6783000D01*
X13258250Y-6718000D02*
X13388250Y-6718000D01*
D14*
X11069534Y-8021033D02*
X11069534Y-7914966D01*
X10963467Y-7914966D01*
X10963467Y-8021033D01*
X11069534Y-8021033D01*
X15251533Y-8021033D02*
X15251533Y-7914966D01*
X15145466Y-7914966D01*
X15145466Y-8021033D01*
X15251533Y-8021033D01*
D15*
X10762500Y-7794000D02*
X10842500Y-7714000D01*
X10762500Y-7634000D01*
X10682500Y-7714000D01*
X10762500Y-7794000D01*
X10762500Y-8302000D02*
X10842500Y-8222000D01*
X10762500Y-8142000D01*
X10682500Y-8222000D01*
X10762500Y-8302000D01*
X11270500Y-7794000D02*
X11350500Y-7714000D01*
X11270500Y-7634000D01*
X11190500Y-7714000D01*
X11270500Y-7794000D01*
X11270500Y-8302000D02*
X11350500Y-8222000D01*
X11270500Y-8142000D01*
X11190500Y-8222000D01*
X11270500Y-8302000D01*
X14944500Y-7794000D02*
X15024500Y-7714000D01*
X14944500Y-7634000D01*
X14864500Y-7714000D01*
X14944500Y-7794000D01*
X14944500Y-8302000D02*
X15024500Y-8222000D01*
X14944500Y-8142000D01*
X14864500Y-8222000D01*
X14944500Y-8302000D01*
X15452500Y-7794000D02*
X15532500Y-7714000D01*
X15452500Y-7634000D01*
X15372500Y-7714000D01*
X15452500Y-7794000D01*
X15452500Y-8302000D02*
X15532500Y-8222000D01*
X15452500Y-8142000D01*
X15372500Y-8222000D01*
X15452500Y-8302000D01*
D16*
X10768000Y-6315000D02*
X11038000Y-6585000D01*
X11038000Y-6315000D02*
X10768000Y-6585000D01*
X11038000Y-6450000D02*
G75*
G03*
X11038000Y-6450000I-135000J0D01*
G01*
X10768000Y-8637000D02*
X11038000Y-8907000D01*
X11038000Y-8637000D02*
X10768000Y-8907000D01*
X11038000Y-8772000D02*
G75*
G03*
X11038000Y-8772000I-135000J0D01*
G01*
X15183000Y-6315000D02*
X15453000Y-6585000D01*
X15453000Y-6315000D02*
X15183000Y-6585000D01*
X15453000Y-6450000D02*
G75*
G03*
X15453000Y-6450000I-135000J0D01*
G01*
X15183000Y-8637000D02*
X15453000Y-8907000D01*
X15453000Y-8637000D02*
X15183000Y-8907000D01*
X15453000Y-8772000D02*
G75*
G03*
X15453000Y-8772000I-135000J0D01*
G01*
D10*
X10812777Y-9451484D02*
X10812777Y-9251484D01*
X10812777Y-9251484D02*
X10860396Y-9251484D01*
X10860396Y-9251484D02*
X10888967Y-9261008D01*
X10888967Y-9261008D02*
X10908015Y-9280055D01*
X10908015Y-9280055D02*
X10917539Y-9299103D01*
X10917539Y-9299103D02*
X10927063Y-9337198D01*
X10927063Y-9337198D02*
X10927063Y-9365770D01*
X10927063Y-9365770D02*
X10917539Y-9403865D01*
X10917539Y-9403865D02*
X10908015Y-9422912D01*
X10908015Y-9422912D02*
X10888967Y-9441960D01*
X10888967Y-9441960D02*
X10860396Y-9451484D01*
X10860396Y-9451484D02*
X10812777Y-9451484D01*
X11012777Y-9451484D02*
X11012777Y-9318150D01*
X11012777Y-9356246D02*
X11022301Y-9337198D01*
X11022301Y-9337198D02*
X11031824Y-9327674D01*
X11031824Y-9327674D02*
X11050872Y-9318150D01*
X11050872Y-9318150D02*
X11069920Y-9318150D01*
X11136586Y-9451484D02*
X11136586Y-9318150D01*
X11136586Y-9251484D02*
X11127063Y-9261008D01*
X11127063Y-9261008D02*
X11136586Y-9270531D01*
X11136586Y-9270531D02*
X11146110Y-9261008D01*
X11146110Y-9261008D02*
X11136586Y-9251484D01*
X11136586Y-9251484D02*
X11136586Y-9270531D01*
X11260396Y-9451484D02*
X11241348Y-9441960D01*
X11241348Y-9441960D02*
X11231824Y-9422912D01*
X11231824Y-9422912D02*
X11231824Y-9251484D01*
X11365158Y-9451484D02*
X11346110Y-9441960D01*
X11346110Y-9441960D02*
X11336586Y-9422912D01*
X11336586Y-9422912D02*
X11336586Y-9251484D01*
X11593729Y-9451484D02*
X11593729Y-9251484D01*
X11593729Y-9251484D02*
X11660396Y-9394341D01*
X11660396Y-9394341D02*
X11727062Y-9251484D01*
X11727062Y-9251484D02*
X11727062Y-9451484D01*
X11908015Y-9451484D02*
X11908015Y-9346722D01*
X11908015Y-9346722D02*
X11898491Y-9327674D01*
X11898491Y-9327674D02*
X11879443Y-9318150D01*
X11879443Y-9318150D02*
X11841348Y-9318150D01*
X11841348Y-9318150D02*
X11822301Y-9327674D01*
X11908015Y-9441960D02*
X11888967Y-9451484D01*
X11888967Y-9451484D02*
X11841348Y-9451484D01*
X11841348Y-9451484D02*
X11822301Y-9441960D01*
X11822301Y-9441960D02*
X11812777Y-9422912D01*
X11812777Y-9422912D02*
X11812777Y-9403865D01*
X11812777Y-9403865D02*
X11822301Y-9384817D01*
X11822301Y-9384817D02*
X11841348Y-9375293D01*
X11841348Y-9375293D02*
X11888967Y-9375293D01*
X11888967Y-9375293D02*
X11908015Y-9365770D01*
X12003253Y-9318150D02*
X12003253Y-9518150D01*
X12003253Y-9327674D02*
X12022301Y-9318150D01*
X12022301Y-9318150D02*
X12060396Y-9318150D01*
X12060396Y-9318150D02*
X12079443Y-9327674D01*
X12079443Y-9327674D02*
X12088967Y-9337198D01*
X12088967Y-9337198D02*
X12098491Y-9356246D01*
X12098491Y-9356246D02*
X12098491Y-9413389D01*
X12098491Y-9413389D02*
X12088967Y-9432436D01*
X12088967Y-9432436D02*
X12079443Y-9441960D01*
X12079443Y-9441960D02*
X12060396Y-9451484D01*
X12060396Y-9451484D02*
X12022301Y-9451484D01*
X12022301Y-9451484D02*
X12003253Y-9441960D01*
X12184205Y-9432436D02*
X12193729Y-9441960D01*
X12193729Y-9441960D02*
X12184205Y-9451484D01*
X12184205Y-9451484D02*
X12174682Y-9441960D01*
X12174682Y-9441960D02*
X12184205Y-9432436D01*
X12184205Y-9432436D02*
X12184205Y-9451484D01*
X12184205Y-9327674D02*
X12193729Y-9337198D01*
X12193729Y-9337198D02*
X12184205Y-9346722D01*
X12184205Y-9346722D02*
X12174682Y-9337198D01*
X12174682Y-9337198D02*
X12184205Y-9327674D01*
X12184205Y-9327674D02*
X12184205Y-9346722D01*
D11*
X10512000Y-9760000D02*
X10552000Y-9800000D01*
X10552000Y-9760000D02*
X10512000Y-9800000D01*
D10*
X10850872Y-9671484D02*
X10869920Y-9671484D01*
X10869920Y-9671484D02*
X10888967Y-9681008D01*
X10888967Y-9681008D02*
X10898491Y-9690531D01*
X10898491Y-9690531D02*
X10908015Y-9709579D01*
X10908015Y-9709579D02*
X10917539Y-9747674D01*
X10917539Y-9747674D02*
X10917539Y-9795293D01*
X10917539Y-9795293D02*
X10908015Y-9833389D01*
X10908015Y-9833389D02*
X10898491Y-9852436D01*
X10898491Y-9852436D02*
X10888967Y-9861960D01*
X10888967Y-9861960D02*
X10869920Y-9871484D01*
X10869920Y-9871484D02*
X10850872Y-9871484D01*
X10850872Y-9871484D02*
X10831824Y-9861960D01*
X10831824Y-9861960D02*
X10822301Y-9852436D01*
X10822301Y-9852436D02*
X10812777Y-9833389D01*
X10812777Y-9833389D02*
X10803253Y-9795293D01*
X10803253Y-9795293D02*
X10803253Y-9747674D01*
X10803253Y-9747674D02*
X10812777Y-9709579D01*
X10812777Y-9709579D02*
X10822301Y-9690531D01*
X10822301Y-9690531D02*
X10831824Y-9681008D01*
X10831824Y-9681008D02*
X10850872Y-9671484D01*
X11003253Y-9852436D02*
X11012777Y-9861960D01*
X11012777Y-9861960D02*
X11003253Y-9871484D01*
X11003253Y-9871484D02*
X10993729Y-9861960D01*
X10993729Y-9861960D02*
X11003253Y-9852436D01*
X11003253Y-9852436D02*
X11003253Y-9871484D01*
X11184205Y-9738150D02*
X11184205Y-9871484D01*
X11136586Y-9661960D02*
X11088967Y-9804817D01*
X11088967Y-9804817D02*
X11212777Y-9804817D01*
X11327062Y-9671484D02*
X11346110Y-9671484D01*
X11346110Y-9671484D02*
X11365158Y-9681008D01*
X11365158Y-9681008D02*
X11374682Y-9690531D01*
X11374682Y-9690531D02*
X11384205Y-9709579D01*
X11384205Y-9709579D02*
X11393729Y-9747674D01*
X11393729Y-9747674D02*
X11393729Y-9795293D01*
X11393729Y-9795293D02*
X11384205Y-9833389D01*
X11384205Y-9833389D02*
X11374682Y-9852436D01*
X11374682Y-9852436D02*
X11365158Y-9861960D01*
X11365158Y-9861960D02*
X11346110Y-9871484D01*
X11346110Y-9871484D02*
X11327062Y-9871484D01*
X11327062Y-9871484D02*
X11308015Y-9861960D01*
X11308015Y-9861960D02*
X11298491Y-9852436D01*
X11298491Y-9852436D02*
X11288967Y-9833389D01*
X11288967Y-9833389D02*
X11279443Y-9795293D01*
X11279443Y-9795293D02*
X11279443Y-9747674D01*
X11279443Y-9747674D02*
X11288967Y-9709579D01*
X11288967Y-9709579D02*
X11298491Y-9690531D01*
X11298491Y-9690531D02*
X11308015Y-9681008D01*
X11308015Y-9681008D02*
X11327062Y-9671484D01*
X11517539Y-9671484D02*
X11536586Y-9671484D01*
X11536586Y-9671484D02*
X11555634Y-9681008D01*
X11555634Y-9681008D02*
X11565158Y-9690531D01*
X11565158Y-9690531D02*
X11574682Y-9709579D01*
X11574682Y-9709579D02*
X11584205Y-9747674D01*
X11584205Y-9747674D02*
X11584205Y-9795293D01*
X11584205Y-9795293D02*
X11574682Y-9833389D01*
X11574682Y-9833389D02*
X11565158Y-9852436D01*
X11565158Y-9852436D02*
X11555634Y-9861960D01*
X11555634Y-9861960D02*
X11536586Y-9871484D01*
X11536586Y-9871484D02*
X11517539Y-9871484D01*
X11517539Y-9871484D02*
X11498491Y-9861960D01*
X11498491Y-9861960D02*
X11488967Y-9852436D01*
X11488967Y-9852436D02*
X11479443Y-9833389D01*
X11479443Y-9833389D02*
X11469920Y-9795293D01*
X11469920Y-9795293D02*
X11469920Y-9747674D01*
X11469920Y-9747674D02*
X11479443Y-9709579D01*
X11479443Y-9709579D02*
X11488967Y-9690531D01*
X11488967Y-9690531D02*
X11498491Y-9681008D01*
X11498491Y-9681008D02*
X11517539Y-9671484D01*
X11669920Y-9871484D02*
X11669920Y-9738150D01*
X11669920Y-9757198D02*
X11679443Y-9747674D01*
X11679443Y-9747674D02*
X11698491Y-9738150D01*
X11698491Y-9738150D02*
X11727063Y-9738150D01*
X11727063Y-9738150D02*
X11746110Y-9747674D01*
X11746110Y-9747674D02*
X11755634Y-9766722D01*
X11755634Y-9766722D02*
X11755634Y-9871484D01*
X11755634Y-9766722D02*
X11765158Y-9747674D01*
X11765158Y-9747674D02*
X11784205Y-9738150D01*
X11784205Y-9738150D02*
X11812777Y-9738150D01*
X11812777Y-9738150D02*
X11831824Y-9747674D01*
X11831824Y-9747674D02*
X11841348Y-9766722D01*
X11841348Y-9766722D02*
X11841348Y-9871484D01*
X11936586Y-9871484D02*
X11936586Y-9738150D01*
X11936586Y-9757198D02*
X11946110Y-9747674D01*
X11946110Y-9747674D02*
X11965158Y-9738150D01*
X11965158Y-9738150D02*
X11993729Y-9738150D01*
X11993729Y-9738150D02*
X12012777Y-9747674D01*
X12012777Y-9747674D02*
X12022301Y-9766722D01*
X12022301Y-9766722D02*
X12022301Y-9871484D01*
X12022301Y-9766722D02*
X12031824Y-9747674D01*
X12031824Y-9747674D02*
X12050872Y-9738150D01*
X12050872Y-9738150D02*
X12079443Y-9738150D01*
X12079443Y-9738150D02*
X12098491Y-9747674D01*
X12098491Y-9747674D02*
X12108015Y-9766722D01*
X12108015Y-9766722D02*
X12108015Y-9871484D01*
X12498491Y-9661960D02*
X12327063Y-9919103D01*
X12755634Y-9671484D02*
X12774682Y-9671484D01*
X12774682Y-9671484D02*
X12793729Y-9681008D01*
X12793729Y-9681008D02*
X12803253Y-9690531D01*
X12803253Y-9690531D02*
X12812777Y-9709579D01*
X12812777Y-9709579D02*
X12822301Y-9747674D01*
X12822301Y-9747674D02*
X12822301Y-9795293D01*
X12822301Y-9795293D02*
X12812777Y-9833389D01*
X12812777Y-9833389D02*
X12803253Y-9852436D01*
X12803253Y-9852436D02*
X12793729Y-9861960D01*
X12793729Y-9861960D02*
X12774682Y-9871484D01*
X12774682Y-9871484D02*
X12755634Y-9871484D01*
X12755634Y-9871484D02*
X12736586Y-9861960D01*
X12736586Y-9861960D02*
X12727063Y-9852436D01*
X12727063Y-9852436D02*
X12717539Y-9833389D01*
X12717539Y-9833389D02*
X12708015Y-9795293D01*
X12708015Y-9795293D02*
X12708015Y-9747674D01*
X12708015Y-9747674D02*
X12717539Y-9709579D01*
X12717539Y-9709579D02*
X12727063Y-9690531D01*
X12727063Y-9690531D02*
X12736586Y-9681008D01*
X12736586Y-9681008D02*
X12755634Y-9671484D01*
X12908015Y-9852436D02*
X12917539Y-9861960D01*
X12917539Y-9861960D02*
X12908015Y-9871484D01*
X12908015Y-9871484D02*
X12898491Y-9861960D01*
X12898491Y-9861960D02*
X12908015Y-9852436D01*
X12908015Y-9852436D02*
X12908015Y-9871484D01*
X13041348Y-9671484D02*
X13060396Y-9671484D01*
X13060396Y-9671484D02*
X13079444Y-9681008D01*
X13079444Y-9681008D02*
X13088967Y-9690531D01*
X13088967Y-9690531D02*
X13098491Y-9709579D01*
X13098491Y-9709579D02*
X13108015Y-9747674D01*
X13108015Y-9747674D02*
X13108015Y-9795293D01*
X13108015Y-9795293D02*
X13098491Y-9833389D01*
X13098491Y-9833389D02*
X13088967Y-9852436D01*
X13088967Y-9852436D02*
X13079444Y-9861960D01*
X13079444Y-9861960D02*
X13060396Y-9871484D01*
X13060396Y-9871484D02*
X13041348Y-9871484D01*
X13041348Y-9871484D02*
X13022301Y-9861960D01*
X13022301Y-9861960D02*
X13012777Y-9852436D01*
X13012777Y-9852436D02*
X13003253Y-9833389D01*
X13003253Y-9833389D02*
X12993729Y-9795293D01*
X12993729Y-9795293D02*
X12993729Y-9747674D01*
X12993729Y-9747674D02*
X13003253Y-9709579D01*
X13003253Y-9709579D02*
X13012777Y-9690531D01*
X13012777Y-9690531D02*
X13022301Y-9681008D01*
X13022301Y-9681008D02*
X13041348Y-9671484D01*
X13298491Y-9871484D02*
X13184206Y-9871484D01*
X13241348Y-9871484D02*
X13241348Y-9671484D01*
X13241348Y-9671484D02*
X13222301Y-9700055D01*
X13222301Y-9700055D02*
X13203253Y-9719103D01*
X13203253Y-9719103D02*
X13184206Y-9728627D01*
X13479444Y-9671484D02*
X13384206Y-9671484D01*
X13384206Y-9671484D02*
X13374682Y-9766722D01*
X13374682Y-9766722D02*
X13384206Y-9757198D01*
X13384206Y-9757198D02*
X13403253Y-9747674D01*
X13403253Y-9747674D02*
X13450872Y-9747674D01*
X13450872Y-9747674D02*
X13469920Y-9757198D01*
X13469920Y-9757198D02*
X13479444Y-9766722D01*
X13479444Y-9766722D02*
X13488967Y-9785770D01*
X13488967Y-9785770D02*
X13488967Y-9833389D01*
X13488967Y-9833389D02*
X13479444Y-9852436D01*
X13479444Y-9852436D02*
X13469920Y-9861960D01*
X13469920Y-9861960D02*
X13450872Y-9871484D01*
X13450872Y-9871484D02*
X13403253Y-9871484D01*
X13403253Y-9871484D02*
X13384206Y-9861960D01*
X13384206Y-9861960D02*
X13374682Y-9852436D01*
X13555634Y-9671484D02*
X13688967Y-9671484D01*
X13688967Y-9671484D02*
X13603253Y-9871484D01*
X13755634Y-9671484D02*
X13755634Y-9709579D01*
X13831825Y-9671484D02*
X13831825Y-9709579D01*
X14127063Y-9947674D02*
X14117539Y-9938150D01*
X14117539Y-9938150D02*
X14098491Y-9909579D01*
X14098491Y-9909579D02*
X14088968Y-9890531D01*
X14088968Y-9890531D02*
X14079444Y-9861960D01*
X14079444Y-9861960D02*
X14069920Y-9814341D01*
X14069920Y-9814341D02*
X14069920Y-9776246D01*
X14069920Y-9776246D02*
X14079444Y-9728627D01*
X14079444Y-9728627D02*
X14088968Y-9700055D01*
X14088968Y-9700055D02*
X14098491Y-9681008D01*
X14098491Y-9681008D02*
X14117539Y-9652436D01*
X14117539Y-9652436D02*
X14127063Y-9642912D01*
X14308015Y-9871484D02*
X14193729Y-9871484D01*
X14250872Y-9871484D02*
X14250872Y-9671484D01*
X14250872Y-9671484D02*
X14231825Y-9700055D01*
X14231825Y-9700055D02*
X14212777Y-9719103D01*
X14212777Y-9719103D02*
X14193729Y-9728627D01*
X14488968Y-9671484D02*
X14393729Y-9671484D01*
X14393729Y-9671484D02*
X14384206Y-9766722D01*
X14384206Y-9766722D02*
X14393729Y-9757198D01*
X14393729Y-9757198D02*
X14412777Y-9747674D01*
X14412777Y-9747674D02*
X14460396Y-9747674D01*
X14460396Y-9747674D02*
X14479444Y-9757198D01*
X14479444Y-9757198D02*
X14488968Y-9766722D01*
X14488968Y-9766722D02*
X14498491Y-9785770D01*
X14498491Y-9785770D02*
X14498491Y-9833389D01*
X14498491Y-9833389D02*
X14488968Y-9852436D01*
X14488968Y-9852436D02*
X14479444Y-9861960D01*
X14479444Y-9861960D02*
X14460396Y-9871484D01*
X14460396Y-9871484D02*
X14412777Y-9871484D01*
X14412777Y-9871484D02*
X14393729Y-9861960D01*
X14393729Y-9861960D02*
X14384206Y-9852436D01*
X14669920Y-9671484D02*
X14631825Y-9671484D01*
X14631825Y-9671484D02*
X14612777Y-9681008D01*
X14612777Y-9681008D02*
X14603253Y-9690531D01*
X14603253Y-9690531D02*
X14584206Y-9719103D01*
X14584206Y-9719103D02*
X14574682Y-9757198D01*
X14574682Y-9757198D02*
X14574682Y-9833389D01*
X14574682Y-9833389D02*
X14584206Y-9852436D01*
X14584206Y-9852436D02*
X14593729Y-9861960D01*
X14593729Y-9861960D02*
X14612777Y-9871484D01*
X14612777Y-9871484D02*
X14650872Y-9871484D01*
X14650872Y-9871484D02*
X14669920Y-9861960D01*
X14669920Y-9861960D02*
X14679444Y-9852436D01*
X14679444Y-9852436D02*
X14688968Y-9833389D01*
X14688968Y-9833389D02*
X14688968Y-9785770D01*
X14688968Y-9785770D02*
X14679444Y-9766722D01*
X14679444Y-9766722D02*
X14669920Y-9757198D01*
X14669920Y-9757198D02*
X14650872Y-9747674D01*
X14650872Y-9747674D02*
X14612777Y-9747674D01*
X14612777Y-9747674D02*
X14593729Y-9757198D01*
X14593729Y-9757198D02*
X14584206Y-9766722D01*
X14584206Y-9766722D02*
X14574682Y-9785770D01*
X14927063Y-9871484D02*
X14927063Y-9671484D01*
X15012777Y-9871484D02*
X15012777Y-9766722D01*
X15012777Y-9766722D02*
X15003253Y-9747674D01*
X15003253Y-9747674D02*
X14984206Y-9738150D01*
X14984206Y-9738150D02*
X14955634Y-9738150D01*
X14955634Y-9738150D02*
X14936587Y-9747674D01*
X14936587Y-9747674D02*
X14927063Y-9757198D01*
X15136587Y-9871484D02*
X15117539Y-9861960D01*
X15117539Y-9861960D02*
X15108015Y-9852436D01*
X15108015Y-9852436D02*
X15098491Y-9833389D01*
X15098491Y-9833389D02*
X15098491Y-9776246D01*
X15098491Y-9776246D02*
X15108015Y-9757198D01*
X15108015Y-9757198D02*
X15117539Y-9747674D01*
X15117539Y-9747674D02*
X15136587Y-9738150D01*
X15136587Y-9738150D02*
X15165158Y-9738150D01*
X15165158Y-9738150D02*
X15184206Y-9747674D01*
X15184206Y-9747674D02*
X15193730Y-9757198D01*
X15193730Y-9757198D02*
X15203253Y-9776246D01*
X15203253Y-9776246D02*
X15203253Y-9833389D01*
X15203253Y-9833389D02*
X15193730Y-9852436D01*
X15193730Y-9852436D02*
X15184206Y-9861960D01*
X15184206Y-9861960D02*
X15165158Y-9871484D01*
X15165158Y-9871484D02*
X15136587Y-9871484D01*
X15317539Y-9871484D02*
X15298491Y-9861960D01*
X15298491Y-9861960D02*
X15288968Y-9842912D01*
X15288968Y-9842912D02*
X15288968Y-9671484D01*
X15469920Y-9861960D02*
X15450872Y-9871484D01*
X15450872Y-9871484D02*
X15412777Y-9871484D01*
X15412777Y-9871484D02*
X15393730Y-9861960D01*
X15393730Y-9861960D02*
X15384206Y-9842912D01*
X15384206Y-9842912D02*
X15384206Y-9766722D01*
X15384206Y-9766722D02*
X15393730Y-9747674D01*
X15393730Y-9747674D02*
X15412777Y-9738150D01*
X15412777Y-9738150D02*
X15450872Y-9738150D01*
X15450872Y-9738150D02*
X15469920Y-9747674D01*
X15469920Y-9747674D02*
X15479444Y-9766722D01*
X15479444Y-9766722D02*
X15479444Y-9785770D01*
X15479444Y-9785770D02*
X15384206Y-9804817D01*
X15555634Y-9861960D02*
X15574682Y-9871484D01*
X15574682Y-9871484D02*
X15612777Y-9871484D01*
X15612777Y-9871484D02*
X15631825Y-9861960D01*
X15631825Y-9861960D02*
X15641349Y-9842912D01*
X15641349Y-9842912D02*
X15641349Y-9833389D01*
X15641349Y-9833389D02*
X15631825Y-9814341D01*
X15631825Y-9814341D02*
X15612777Y-9804817D01*
X15612777Y-9804817D02*
X15584206Y-9804817D01*
X15584206Y-9804817D02*
X15565158Y-9795293D01*
X15565158Y-9795293D02*
X15555634Y-9776246D01*
X15555634Y-9776246D02*
X15555634Y-9766722D01*
X15555634Y-9766722D02*
X15565158Y-9747674D01*
X15565158Y-9747674D02*
X15584206Y-9738150D01*
X15584206Y-9738150D02*
X15612777Y-9738150D01*
X15612777Y-9738150D02*
X15631825Y-9747674D01*
X15708015Y-9947674D02*
X15717539Y-9938150D01*
X15717539Y-9938150D02*
X15736587Y-9909579D01*
X15736587Y-9909579D02*
X15746111Y-9890531D01*
X15746111Y-9890531D02*
X15755634Y-9861960D01*
X15755634Y-9861960D02*
X15765158Y-9814341D01*
X15765158Y-9814341D02*
X15765158Y-9776246D01*
X15765158Y-9776246D02*
X15755634Y-9728627D01*
X15755634Y-9728627D02*
X15746111Y-9700055D01*
X15746111Y-9700055D02*
X15736587Y-9681008D01*
X15736587Y-9681008D02*
X15717539Y-9652436D01*
X15717539Y-9652436D02*
X15708015Y-9642912D01*
D12*
X10552000Y-10044000D02*
G75*
G03*
X10552000Y-10044000I-50000J0D01*
G01*
D10*
X10917539Y-10135484D02*
X10803253Y-10135484D01*
X10860396Y-10135484D02*
X10860396Y-9935484D01*
X10860396Y-9935484D02*
X10841348Y-9964055D01*
X10841348Y-9964055D02*
X10822301Y-9983103D01*
X10822301Y-9983103D02*
X10803253Y-9992627D01*
X11003253Y-10116436D02*
X11012777Y-10125960D01*
X11012777Y-10125960D02*
X11003253Y-10135484D01*
X11003253Y-10135484D02*
X10993729Y-10125960D01*
X10993729Y-10125960D02*
X11003253Y-10116436D01*
X11003253Y-10116436D02*
X11003253Y-10135484D01*
X11136586Y-9935484D02*
X11155634Y-9935484D01*
X11155634Y-9935484D02*
X11174682Y-9945008D01*
X11174682Y-9945008D02*
X11184205Y-9954531D01*
X11184205Y-9954531D02*
X11193729Y-9973579D01*
X11193729Y-9973579D02*
X11203253Y-10011674D01*
X11203253Y-10011674D02*
X11203253Y-10059293D01*
X11203253Y-10059293D02*
X11193729Y-10097389D01*
X11193729Y-10097389D02*
X11184205Y-10116436D01*
X11184205Y-10116436D02*
X11174682Y-10125960D01*
X11174682Y-10125960D02*
X11155634Y-10135484D01*
X11155634Y-10135484D02*
X11136586Y-10135484D01*
X11136586Y-10135484D02*
X11117539Y-10125960D01*
X11117539Y-10125960D02*
X11108015Y-10116436D01*
X11108015Y-10116436D02*
X11098491Y-10097389D01*
X11098491Y-10097389D02*
X11088967Y-10059293D01*
X11088967Y-10059293D02*
X11088967Y-10011674D01*
X11088967Y-10011674D02*
X11098491Y-9973579D01*
X11098491Y-9973579D02*
X11108015Y-9954531D01*
X11108015Y-9954531D02*
X11117539Y-9945008D01*
X11117539Y-9945008D02*
X11136586Y-9935484D01*
X11327062Y-9935484D02*
X11346110Y-9935484D01*
X11346110Y-9935484D02*
X11365158Y-9945008D01*
X11365158Y-9945008D02*
X11374682Y-9954531D01*
X11374682Y-9954531D02*
X11384205Y-9973579D01*
X11384205Y-9973579D02*
X11393729Y-10011674D01*
X11393729Y-10011674D02*
X11393729Y-10059293D01*
X11393729Y-10059293D02*
X11384205Y-10097389D01*
X11384205Y-10097389D02*
X11374682Y-10116436D01*
X11374682Y-10116436D02*
X11365158Y-10125960D01*
X11365158Y-10125960D02*
X11346110Y-10135484D01*
X11346110Y-10135484D02*
X11327062Y-10135484D01*
X11327062Y-10135484D02*
X11308015Y-10125960D01*
X11308015Y-10125960D02*
X11298491Y-10116436D01*
X11298491Y-10116436D02*
X11288967Y-10097389D01*
X11288967Y-10097389D02*
X11279443Y-10059293D01*
X11279443Y-10059293D02*
X11279443Y-10011674D01*
X11279443Y-10011674D02*
X11288967Y-9973579D01*
X11288967Y-9973579D02*
X11298491Y-9954531D01*
X11298491Y-9954531D02*
X11308015Y-9945008D01*
X11308015Y-9945008D02*
X11327062Y-9935484D01*
X11517539Y-9935484D02*
X11536586Y-9935484D01*
X11536586Y-9935484D02*
X11555634Y-9945008D01*
X11555634Y-9945008D02*
X11565158Y-9954531D01*
X11565158Y-9954531D02*
X11574682Y-9973579D01*
X11574682Y-9973579D02*
X11584205Y-10011674D01*
X11584205Y-10011674D02*
X11584205Y-10059293D01*
X11584205Y-10059293D02*
X11574682Y-10097389D01*
X11574682Y-10097389D02*
X11565158Y-10116436D01*
X11565158Y-10116436D02*
X11555634Y-10125960D01*
X11555634Y-10125960D02*
X11536586Y-10135484D01*
X11536586Y-10135484D02*
X11517539Y-10135484D01*
X11517539Y-10135484D02*
X11498491Y-10125960D01*
X11498491Y-10125960D02*
X11488967Y-10116436D01*
X11488967Y-10116436D02*
X11479443Y-10097389D01*
X11479443Y-10097389D02*
X11469920Y-10059293D01*
X11469920Y-10059293D02*
X11469920Y-10011674D01*
X11469920Y-10011674D02*
X11479443Y-9973579D01*
X11479443Y-9973579D02*
X11488967Y-9954531D01*
X11488967Y-9954531D02*
X11498491Y-9945008D01*
X11498491Y-9945008D02*
X11517539Y-9935484D01*
X11669920Y-10135484D02*
X11669920Y-10002150D01*
X11669920Y-10021198D02*
X11679443Y-10011674D01*
X11679443Y-10011674D02*
X11698491Y-10002150D01*
X11698491Y-10002150D02*
X11727063Y-10002150D01*
X11727063Y-10002150D02*
X11746110Y-10011674D01*
X11746110Y-10011674D02*
X11755634Y-10030722D01*
X11755634Y-10030722D02*
X11755634Y-10135484D01*
X11755634Y-10030722D02*
X11765158Y-10011674D01*
X11765158Y-10011674D02*
X11784205Y-10002150D01*
X11784205Y-10002150D02*
X11812777Y-10002150D01*
X11812777Y-10002150D02*
X11831824Y-10011674D01*
X11831824Y-10011674D02*
X11841348Y-10030722D01*
X11841348Y-10030722D02*
X11841348Y-10135484D01*
X11936586Y-10135484D02*
X11936586Y-10002150D01*
X11936586Y-10021198D02*
X11946110Y-10011674D01*
X11946110Y-10011674D02*
X11965158Y-10002150D01*
X11965158Y-10002150D02*
X11993729Y-10002150D01*
X11993729Y-10002150D02*
X12012777Y-10011674D01*
X12012777Y-10011674D02*
X12022301Y-10030722D01*
X12022301Y-10030722D02*
X12022301Y-10135484D01*
X12022301Y-10030722D02*
X12031824Y-10011674D01*
X12031824Y-10011674D02*
X12050872Y-10002150D01*
X12050872Y-10002150D02*
X12079443Y-10002150D01*
X12079443Y-10002150D02*
X12098491Y-10011674D01*
X12098491Y-10011674D02*
X12108015Y-10030722D01*
X12108015Y-10030722D02*
X12108015Y-10135484D01*
X12498491Y-9925960D02*
X12327063Y-10183103D01*
X12755634Y-9935484D02*
X12774682Y-9935484D01*
X12774682Y-9935484D02*
X12793729Y-9945008D01*
X12793729Y-9945008D02*
X12803253Y-9954531D01*
X12803253Y-9954531D02*
X12812777Y-9973579D01*
X12812777Y-9973579D02*
X12822301Y-10011674D01*
X12822301Y-10011674D02*
X12822301Y-10059293D01*
X12822301Y-10059293D02*
X12812777Y-10097389D01*
X12812777Y-10097389D02*
X12803253Y-10116436D01*
X12803253Y-10116436D02*
X12793729Y-10125960D01*
X12793729Y-10125960D02*
X12774682Y-10135484D01*
X12774682Y-10135484D02*
X12755634Y-10135484D01*
X12755634Y-10135484D02*
X12736586Y-10125960D01*
X12736586Y-10125960D02*
X12727063Y-10116436D01*
X12727063Y-10116436D02*
X12717539Y-10097389D01*
X12717539Y-10097389D02*
X12708015Y-10059293D01*
X12708015Y-10059293D02*
X12708015Y-10011674D01*
X12708015Y-10011674D02*
X12717539Y-9973579D01*
X12717539Y-9973579D02*
X12727063Y-9954531D01*
X12727063Y-9954531D02*
X12736586Y-9945008D01*
X12736586Y-9945008D02*
X12755634Y-9935484D01*
X12908015Y-10116436D02*
X12917539Y-10125960D01*
X12917539Y-10125960D02*
X12908015Y-10135484D01*
X12908015Y-10135484D02*
X12898491Y-10125960D01*
X12898491Y-10125960D02*
X12908015Y-10116436D01*
X12908015Y-10116436D02*
X12908015Y-10135484D01*
X13041348Y-9935484D02*
X13060396Y-9935484D01*
X13060396Y-9935484D02*
X13079444Y-9945008D01*
X13079444Y-9945008D02*
X13088967Y-9954531D01*
X13088967Y-9954531D02*
X13098491Y-9973579D01*
X13098491Y-9973579D02*
X13108015Y-10011674D01*
X13108015Y-10011674D02*
X13108015Y-10059293D01*
X13108015Y-10059293D02*
X13098491Y-10097389D01*
X13098491Y-10097389D02*
X13088967Y-10116436D01*
X13088967Y-10116436D02*
X13079444Y-10125960D01*
X13079444Y-10125960D02*
X13060396Y-10135484D01*
X13060396Y-10135484D02*
X13041348Y-10135484D01*
X13041348Y-10135484D02*
X13022301Y-10125960D01*
X13022301Y-10125960D02*
X13012777Y-10116436D01*
X13012777Y-10116436D02*
X13003253Y-10097389D01*
X13003253Y-10097389D02*
X12993729Y-10059293D01*
X12993729Y-10059293D02*
X12993729Y-10011674D01*
X12993729Y-10011674D02*
X13003253Y-9973579D01*
X13003253Y-9973579D02*
X13012777Y-9954531D01*
X13012777Y-9954531D02*
X13022301Y-9945008D01*
X13022301Y-9945008D02*
X13041348Y-9935484D01*
X13174682Y-9935484D02*
X13298491Y-9935484D01*
X13298491Y-9935484D02*
X13231825Y-10011674D01*
X13231825Y-10011674D02*
X13260396Y-10011674D01*
X13260396Y-10011674D02*
X13279444Y-10021198D01*
X13279444Y-10021198D02*
X13288967Y-10030722D01*
X13288967Y-10030722D02*
X13298491Y-10049770D01*
X13298491Y-10049770D02*
X13298491Y-10097389D01*
X13298491Y-10097389D02*
X13288967Y-10116436D01*
X13288967Y-10116436D02*
X13279444Y-10125960D01*
X13279444Y-10125960D02*
X13260396Y-10135484D01*
X13260396Y-10135484D02*
X13203253Y-10135484D01*
X13203253Y-10135484D02*
X13184206Y-10125960D01*
X13184206Y-10125960D02*
X13174682Y-10116436D01*
X13393729Y-10135484D02*
X13431825Y-10135484D01*
X13431825Y-10135484D02*
X13450872Y-10125960D01*
X13450872Y-10125960D02*
X13460396Y-10116436D01*
X13460396Y-10116436D02*
X13479444Y-10087865D01*
X13479444Y-10087865D02*
X13488967Y-10049770D01*
X13488967Y-10049770D02*
X13488967Y-9973579D01*
X13488967Y-9973579D02*
X13479444Y-9954531D01*
X13479444Y-9954531D02*
X13469920Y-9945008D01*
X13469920Y-9945008D02*
X13450872Y-9935484D01*
X13450872Y-9935484D02*
X13412777Y-9935484D01*
X13412777Y-9935484D02*
X13393729Y-9945008D01*
X13393729Y-9945008D02*
X13384206Y-9954531D01*
X13384206Y-9954531D02*
X13374682Y-9973579D01*
X13374682Y-9973579D02*
X13374682Y-10021198D01*
X13374682Y-10021198D02*
X13384206Y-10040246D01*
X13384206Y-10040246D02*
X13393729Y-10049770D01*
X13393729Y-10049770D02*
X13412777Y-10059293D01*
X13412777Y-10059293D02*
X13450872Y-10059293D01*
X13450872Y-10059293D02*
X13469920Y-10049770D01*
X13469920Y-10049770D02*
X13479444Y-10040246D01*
X13479444Y-10040246D02*
X13488967Y-10021198D01*
X13660396Y-10002150D02*
X13660396Y-10135484D01*
X13612777Y-9925960D02*
X13565158Y-10068817D01*
X13565158Y-10068817D02*
X13688967Y-10068817D01*
X13755634Y-9935484D02*
X13755634Y-9973579D01*
X13831825Y-9935484D02*
X13831825Y-9973579D01*
X14127063Y-10211674D02*
X14117539Y-10202150D01*
X14117539Y-10202150D02*
X14098491Y-10173579D01*
X14098491Y-10173579D02*
X14088968Y-10154531D01*
X14088968Y-10154531D02*
X14079444Y-10125960D01*
X14079444Y-10125960D02*
X14069920Y-10078341D01*
X14069920Y-10078341D02*
X14069920Y-10040246D01*
X14069920Y-10040246D02*
X14079444Y-9992627D01*
X14079444Y-9992627D02*
X14088968Y-9964055D01*
X14088968Y-9964055D02*
X14098491Y-9945008D01*
X14098491Y-9945008D02*
X14117539Y-9916436D01*
X14117539Y-9916436D02*
X14127063Y-9906912D01*
X14308015Y-10135484D02*
X14193729Y-10135484D01*
X14250872Y-10135484D02*
X14250872Y-9935484D01*
X14250872Y-9935484D02*
X14231825Y-9964055D01*
X14231825Y-9964055D02*
X14212777Y-9983103D01*
X14212777Y-9983103D02*
X14193729Y-9992627D01*
X14546110Y-10135484D02*
X14546110Y-9935484D01*
X14631825Y-10135484D02*
X14631825Y-10030722D01*
X14631825Y-10030722D02*
X14622301Y-10011674D01*
X14622301Y-10011674D02*
X14603253Y-10002150D01*
X14603253Y-10002150D02*
X14574682Y-10002150D01*
X14574682Y-10002150D02*
X14555634Y-10011674D01*
X14555634Y-10011674D02*
X14546110Y-10021198D01*
X14755634Y-10135484D02*
X14736587Y-10125960D01*
X14736587Y-10125960D02*
X14727063Y-10116436D01*
X14727063Y-10116436D02*
X14717539Y-10097389D01*
X14717539Y-10097389D02*
X14717539Y-10040246D01*
X14717539Y-10040246D02*
X14727063Y-10021198D01*
X14727063Y-10021198D02*
X14736587Y-10011674D01*
X14736587Y-10011674D02*
X14755634Y-10002150D01*
X14755634Y-10002150D02*
X14784206Y-10002150D01*
X14784206Y-10002150D02*
X14803253Y-10011674D01*
X14803253Y-10011674D02*
X14812777Y-10021198D01*
X14812777Y-10021198D02*
X14822301Y-10040246D01*
X14822301Y-10040246D02*
X14822301Y-10097389D01*
X14822301Y-10097389D02*
X14812777Y-10116436D01*
X14812777Y-10116436D02*
X14803253Y-10125960D01*
X14803253Y-10125960D02*
X14784206Y-10135484D01*
X14784206Y-10135484D02*
X14755634Y-10135484D01*
X14936587Y-10135484D02*
X14917539Y-10125960D01*
X14917539Y-10125960D02*
X14908015Y-10106912D01*
X14908015Y-10106912D02*
X14908015Y-9935484D01*
X15088968Y-10125960D02*
X15069920Y-10135484D01*
X15069920Y-10135484D02*
X15031825Y-10135484D01*
X15031825Y-10135484D02*
X15012777Y-10125960D01*
X15012777Y-10125960D02*
X15003253Y-10106912D01*
X15003253Y-10106912D02*
X15003253Y-10030722D01*
X15003253Y-10030722D02*
X15012777Y-10011674D01*
X15012777Y-10011674D02*
X15031825Y-10002150D01*
X15031825Y-10002150D02*
X15069920Y-10002150D01*
X15069920Y-10002150D02*
X15088968Y-10011674D01*
X15088968Y-10011674D02*
X15098491Y-10030722D01*
X15098491Y-10030722D02*
X15098491Y-10049770D01*
X15098491Y-10049770D02*
X15003253Y-10068817D01*
X15165158Y-10211674D02*
X15174682Y-10202150D01*
X15174682Y-10202150D02*
X15193730Y-10173579D01*
X15193730Y-10173579D02*
X15203253Y-10154531D01*
X15203253Y-10154531D02*
X15212777Y-10125960D01*
X15212777Y-10125960D02*
X15222301Y-10078341D01*
X15222301Y-10078341D02*
X15222301Y-10040246D01*
X15222301Y-10040246D02*
X15212777Y-9992627D01*
X15212777Y-9992627D02*
X15203253Y-9964055D01*
X15203253Y-9964055D02*
X15193730Y-9945008D01*
X15193730Y-9945008D02*
X15174682Y-9916436D01*
X15174682Y-9916436D02*
X15165158Y-9906912D01*
D13*
X10487000Y-10243000D02*
X10487000Y-10373000D01*
X10422000Y-10308000D02*
X10552000Y-10308000D01*
D10*
X10917539Y-10399484D02*
X10803253Y-10399484D01*
X10860396Y-10399484D02*
X10860396Y-10199484D01*
X10860396Y-10199484D02*
X10841348Y-10228055D01*
X10841348Y-10228055D02*
X10822301Y-10247103D01*
X10822301Y-10247103D02*
X10803253Y-10256627D01*
X11003253Y-10380436D02*
X11012777Y-10389960D01*
X11012777Y-10389960D02*
X11003253Y-10399484D01*
X11003253Y-10399484D02*
X10993729Y-10389960D01*
X10993729Y-10389960D02*
X11003253Y-10380436D01*
X11003253Y-10380436D02*
X11003253Y-10399484D01*
X11079444Y-10199484D02*
X11203253Y-10199484D01*
X11203253Y-10199484D02*
X11136586Y-10275674D01*
X11136586Y-10275674D02*
X11165158Y-10275674D01*
X11165158Y-10275674D02*
X11184205Y-10285198D01*
X11184205Y-10285198D02*
X11193729Y-10294722D01*
X11193729Y-10294722D02*
X11203253Y-10313770D01*
X11203253Y-10313770D02*
X11203253Y-10361389D01*
X11203253Y-10361389D02*
X11193729Y-10380436D01*
X11193729Y-10380436D02*
X11184205Y-10389960D01*
X11184205Y-10389960D02*
X11165158Y-10399484D01*
X11165158Y-10399484D02*
X11108015Y-10399484D01*
X11108015Y-10399484D02*
X11088967Y-10389960D01*
X11088967Y-10389960D02*
X11079444Y-10380436D01*
X11327062Y-10199484D02*
X11346110Y-10199484D01*
X11346110Y-10199484D02*
X11365158Y-10209008D01*
X11365158Y-10209008D02*
X11374682Y-10218531D01*
X11374682Y-10218531D02*
X11384205Y-10237579D01*
X11384205Y-10237579D02*
X11393729Y-10275674D01*
X11393729Y-10275674D02*
X11393729Y-10323293D01*
X11393729Y-10323293D02*
X11384205Y-10361389D01*
X11384205Y-10361389D02*
X11374682Y-10380436D01*
X11374682Y-10380436D02*
X11365158Y-10389960D01*
X11365158Y-10389960D02*
X11346110Y-10399484D01*
X11346110Y-10399484D02*
X11327062Y-10399484D01*
X11327062Y-10399484D02*
X11308015Y-10389960D01*
X11308015Y-10389960D02*
X11298491Y-10380436D01*
X11298491Y-10380436D02*
X11288967Y-10361389D01*
X11288967Y-10361389D02*
X11279443Y-10323293D01*
X11279443Y-10323293D02*
X11279443Y-10275674D01*
X11279443Y-10275674D02*
X11288967Y-10237579D01*
X11288967Y-10237579D02*
X11298491Y-10218531D01*
X11298491Y-10218531D02*
X11308015Y-10209008D01*
X11308015Y-10209008D02*
X11327062Y-10199484D01*
X11517539Y-10199484D02*
X11536586Y-10199484D01*
X11536586Y-10199484D02*
X11555634Y-10209008D01*
X11555634Y-10209008D02*
X11565158Y-10218531D01*
X11565158Y-10218531D02*
X11574682Y-10237579D01*
X11574682Y-10237579D02*
X11584205Y-10275674D01*
X11584205Y-10275674D02*
X11584205Y-10323293D01*
X11584205Y-10323293D02*
X11574682Y-10361389D01*
X11574682Y-10361389D02*
X11565158Y-10380436D01*
X11565158Y-10380436D02*
X11555634Y-10389960D01*
X11555634Y-10389960D02*
X11536586Y-10399484D01*
X11536586Y-10399484D02*
X11517539Y-10399484D01*
X11517539Y-10399484D02*
X11498491Y-10389960D01*
X11498491Y-10389960D02*
X11488967Y-10380436D01*
X11488967Y-10380436D02*
X11479443Y-10361389D01*
X11479443Y-10361389D02*
X11469920Y-10323293D01*
X11469920Y-10323293D02*
X11469920Y-10275674D01*
X11469920Y-10275674D02*
X11479443Y-10237579D01*
X11479443Y-10237579D02*
X11488967Y-10218531D01*
X11488967Y-10218531D02*
X11498491Y-10209008D01*
X11498491Y-10209008D02*
X11517539Y-10199484D01*
X11669920Y-10399484D02*
X11669920Y-10266150D01*
X11669920Y-10285198D02*
X11679443Y-10275674D01*
X11679443Y-10275674D02*
X11698491Y-10266150D01*
X11698491Y-10266150D02*
X11727063Y-10266150D01*
X11727063Y-10266150D02*
X11746110Y-10275674D01*
X11746110Y-10275674D02*
X11755634Y-10294722D01*
X11755634Y-10294722D02*
X11755634Y-10399484D01*
X11755634Y-10294722D02*
X11765158Y-10275674D01*
X11765158Y-10275674D02*
X11784205Y-10266150D01*
X11784205Y-10266150D02*
X11812777Y-10266150D01*
X11812777Y-10266150D02*
X11831824Y-10275674D01*
X11831824Y-10275674D02*
X11841348Y-10294722D01*
X11841348Y-10294722D02*
X11841348Y-10399484D01*
X11936586Y-10399484D02*
X11936586Y-10266150D01*
X11936586Y-10285198D02*
X11946110Y-10275674D01*
X11946110Y-10275674D02*
X11965158Y-10266150D01*
X11965158Y-10266150D02*
X11993729Y-10266150D01*
X11993729Y-10266150D02*
X12012777Y-10275674D01*
X12012777Y-10275674D02*
X12022301Y-10294722D01*
X12022301Y-10294722D02*
X12022301Y-10399484D01*
X12022301Y-10294722D02*
X12031824Y-10275674D01*
X12031824Y-10275674D02*
X12050872Y-10266150D01*
X12050872Y-10266150D02*
X12079443Y-10266150D01*
X12079443Y-10266150D02*
X12098491Y-10275674D01*
X12098491Y-10275674D02*
X12108015Y-10294722D01*
X12108015Y-10294722D02*
X12108015Y-10399484D01*
X12498491Y-10189960D02*
X12327063Y-10447103D01*
X12755634Y-10199484D02*
X12774682Y-10199484D01*
X12774682Y-10199484D02*
X12793729Y-10209008D01*
X12793729Y-10209008D02*
X12803253Y-10218531D01*
X12803253Y-10218531D02*
X12812777Y-10237579D01*
X12812777Y-10237579D02*
X12822301Y-10275674D01*
X12822301Y-10275674D02*
X12822301Y-10323293D01*
X12822301Y-10323293D02*
X12812777Y-10361389D01*
X12812777Y-10361389D02*
X12803253Y-10380436D01*
X12803253Y-10380436D02*
X12793729Y-10389960D01*
X12793729Y-10389960D02*
X12774682Y-10399484D01*
X12774682Y-10399484D02*
X12755634Y-10399484D01*
X12755634Y-10399484D02*
X12736586Y-10389960D01*
X12736586Y-10389960D02*
X12727063Y-10380436D01*
X12727063Y-10380436D02*
X12717539Y-10361389D01*
X12717539Y-10361389D02*
X12708015Y-10323293D01*
X12708015Y-10323293D02*
X12708015Y-10275674D01*
X12708015Y-10275674D02*
X12717539Y-10237579D01*
X12717539Y-10237579D02*
X12727063Y-10218531D01*
X12727063Y-10218531D02*
X12736586Y-10209008D01*
X12736586Y-10209008D02*
X12755634Y-10199484D01*
X12908015Y-10380436D02*
X12917539Y-10389960D01*
X12917539Y-10389960D02*
X12908015Y-10399484D01*
X12908015Y-10399484D02*
X12898491Y-10389960D01*
X12898491Y-10389960D02*
X12908015Y-10380436D01*
X12908015Y-10380436D02*
X12908015Y-10399484D01*
X13041348Y-10199484D02*
X13060396Y-10199484D01*
X13060396Y-10199484D02*
X13079444Y-10209008D01*
X13079444Y-10209008D02*
X13088967Y-10218531D01*
X13088967Y-10218531D02*
X13098491Y-10237579D01*
X13098491Y-10237579D02*
X13108015Y-10275674D01*
X13108015Y-10275674D02*
X13108015Y-10323293D01*
X13108015Y-10323293D02*
X13098491Y-10361389D01*
X13098491Y-10361389D02*
X13088967Y-10380436D01*
X13088967Y-10380436D02*
X13079444Y-10389960D01*
X13079444Y-10389960D02*
X13060396Y-10399484D01*
X13060396Y-10399484D02*
X13041348Y-10399484D01*
X13041348Y-10399484D02*
X13022301Y-10389960D01*
X13022301Y-10389960D02*
X13012777Y-10380436D01*
X13012777Y-10380436D02*
X13003253Y-10361389D01*
X13003253Y-10361389D02*
X12993729Y-10323293D01*
X12993729Y-10323293D02*
X12993729Y-10275674D01*
X12993729Y-10275674D02*
X13003253Y-10237579D01*
X13003253Y-10237579D02*
X13012777Y-10218531D01*
X13012777Y-10218531D02*
X13022301Y-10209008D01*
X13022301Y-10209008D02*
X13041348Y-10199484D01*
X13288967Y-10199484D02*
X13193729Y-10199484D01*
X13193729Y-10199484D02*
X13184206Y-10294722D01*
X13184206Y-10294722D02*
X13193729Y-10285198D01*
X13193729Y-10285198D02*
X13212777Y-10275674D01*
X13212777Y-10275674D02*
X13260396Y-10275674D01*
X13260396Y-10275674D02*
X13279444Y-10285198D01*
X13279444Y-10285198D02*
X13288967Y-10294722D01*
X13288967Y-10294722D02*
X13298491Y-10313770D01*
X13298491Y-10313770D02*
X13298491Y-10361389D01*
X13298491Y-10361389D02*
X13288967Y-10380436D01*
X13288967Y-10380436D02*
X13279444Y-10389960D01*
X13279444Y-10389960D02*
X13260396Y-10399484D01*
X13260396Y-10399484D02*
X13212777Y-10399484D01*
X13212777Y-10399484D02*
X13193729Y-10389960D01*
X13193729Y-10389960D02*
X13184206Y-10380436D01*
X13488967Y-10399484D02*
X13374682Y-10399484D01*
X13431825Y-10399484D02*
X13431825Y-10199484D01*
X13431825Y-10199484D02*
X13412777Y-10228055D01*
X13412777Y-10228055D02*
X13393729Y-10247103D01*
X13393729Y-10247103D02*
X13374682Y-10256627D01*
X13565158Y-10218531D02*
X13574682Y-10209008D01*
X13574682Y-10209008D02*
X13593729Y-10199484D01*
X13593729Y-10199484D02*
X13641348Y-10199484D01*
X13641348Y-10199484D02*
X13660396Y-10209008D01*
X13660396Y-10209008D02*
X13669920Y-10218531D01*
X13669920Y-10218531D02*
X13679444Y-10237579D01*
X13679444Y-10237579D02*
X13679444Y-10256627D01*
X13679444Y-10256627D02*
X13669920Y-10285198D01*
X13669920Y-10285198D02*
X13555634Y-10399484D01*
X13555634Y-10399484D02*
X13679444Y-10399484D01*
X13755634Y-10199484D02*
X13755634Y-10237579D01*
X13831825Y-10199484D02*
X13831825Y-10237579D01*
X14127063Y-10475674D02*
X14117539Y-10466150D01*
X14117539Y-10466150D02*
X14098491Y-10437579D01*
X14098491Y-10437579D02*
X14088968Y-10418531D01*
X14088968Y-10418531D02*
X14079444Y-10389960D01*
X14079444Y-10389960D02*
X14069920Y-10342341D01*
X14069920Y-10342341D02*
X14069920Y-10304246D01*
X14069920Y-10304246D02*
X14079444Y-10256627D01*
X14079444Y-10256627D02*
X14088968Y-10228055D01*
X14088968Y-10228055D02*
X14098491Y-10209008D01*
X14098491Y-10209008D02*
X14117539Y-10180436D01*
X14117539Y-10180436D02*
X14127063Y-10170912D01*
X14193729Y-10218531D02*
X14203253Y-10209008D01*
X14203253Y-10209008D02*
X14222301Y-10199484D01*
X14222301Y-10199484D02*
X14269920Y-10199484D01*
X14269920Y-10199484D02*
X14288968Y-10209008D01*
X14288968Y-10209008D02*
X14298491Y-10218531D01*
X14298491Y-10218531D02*
X14308015Y-10237579D01*
X14308015Y-10237579D02*
X14308015Y-10256627D01*
X14308015Y-10256627D02*
X14298491Y-10285198D01*
X14298491Y-10285198D02*
X14184206Y-10399484D01*
X14184206Y-10399484D02*
X14308015Y-10399484D01*
X14546110Y-10399484D02*
X14546110Y-10199484D01*
X14631825Y-10399484D02*
X14631825Y-10294722D01*
X14631825Y-10294722D02*
X14622301Y-10275674D01*
X14622301Y-10275674D02*
X14603253Y-10266150D01*
X14603253Y-10266150D02*
X14574682Y-10266150D01*
X14574682Y-10266150D02*
X14555634Y-10275674D01*
X14555634Y-10275674D02*
X14546110Y-10285198D01*
X14755634Y-10399484D02*
X14736587Y-10389960D01*
X14736587Y-10389960D02*
X14727063Y-10380436D01*
X14727063Y-10380436D02*
X14717539Y-10361389D01*
X14717539Y-10361389D02*
X14717539Y-10304246D01*
X14717539Y-10304246D02*
X14727063Y-10285198D01*
X14727063Y-10285198D02*
X14736587Y-10275674D01*
X14736587Y-10275674D02*
X14755634Y-10266150D01*
X14755634Y-10266150D02*
X14784206Y-10266150D01*
X14784206Y-10266150D02*
X14803253Y-10275674D01*
X14803253Y-10275674D02*
X14812777Y-10285198D01*
X14812777Y-10285198D02*
X14822301Y-10304246D01*
X14822301Y-10304246D02*
X14822301Y-10361389D01*
X14822301Y-10361389D02*
X14812777Y-10380436D01*
X14812777Y-10380436D02*
X14803253Y-10389960D01*
X14803253Y-10389960D02*
X14784206Y-10399484D01*
X14784206Y-10399484D02*
X14755634Y-10399484D01*
X14936587Y-10399484D02*
X14917539Y-10389960D01*
X14917539Y-10389960D02*
X14908015Y-10370912D01*
X14908015Y-10370912D02*
X14908015Y-10199484D01*
X15088968Y-10389960D02*
X15069920Y-10399484D01*
X15069920Y-10399484D02*
X15031825Y-10399484D01*
X15031825Y-10399484D02*
X15012777Y-10389960D01*
X15012777Y-10389960D02*
X15003253Y-10370912D01*
X15003253Y-10370912D02*
X15003253Y-10294722D01*
X15003253Y-10294722D02*
X15012777Y-10275674D01*
X15012777Y-10275674D02*
X15031825Y-10266150D01*
X15031825Y-10266150D02*
X15069920Y-10266150D01*
X15069920Y-10266150D02*
X15088968Y-10275674D01*
X15088968Y-10275674D02*
X15098491Y-10294722D01*
X15098491Y-10294722D02*
X15098491Y-10313770D01*
X15098491Y-10313770D02*
X15003253Y-10332817D01*
X15174682Y-10389960D02*
X15193730Y-10399484D01*
X15193730Y-10399484D02*
X15231825Y-10399484D01*
X15231825Y-10399484D02*
X15250872Y-10389960D01*
X15250872Y-10389960D02*
X15260396Y-10370912D01*
X15260396Y-10370912D02*
X15260396Y-10361389D01*
X15260396Y-10361389D02*
X15250872Y-10342341D01*
X15250872Y-10342341D02*
X15231825Y-10332817D01*
X15231825Y-10332817D02*
X15203253Y-10332817D01*
X15203253Y-10332817D02*
X15184206Y-10323293D01*
X15184206Y-10323293D02*
X15174682Y-10304246D01*
X15174682Y-10304246D02*
X15174682Y-10294722D01*
X15174682Y-10294722D02*
X15184206Y-10275674D01*
X15184206Y-10275674D02*
X15203253Y-10266150D01*
X15203253Y-10266150D02*
X15231825Y-10266150D01*
X15231825Y-10266150D02*
X15250872Y-10275674D01*
X15327063Y-10475674D02*
X15336587Y-10466150D01*
X15336587Y-10466150D02*
X15355634Y-10437579D01*
X15355634Y-10437579D02*
X15365158Y-10418531D01*
X15365158Y-10418531D02*
X15374682Y-10389960D01*
X15374682Y-10389960D02*
X15384206Y-10342341D01*
X15384206Y-10342341D02*
X15384206Y-10304246D01*
X15384206Y-10304246D02*
X15374682Y-10256627D01*
X15374682Y-10256627D02*
X15365158Y-10228055D01*
X15365158Y-10228055D02*
X15355634Y-10209008D01*
X15355634Y-10209008D02*
X15336587Y-10180436D01*
X15336587Y-10180436D02*
X15327063Y-10170912D01*
D14*
X10530034Y-10625034D02*
X10530034Y-10518967D01*
X10423967Y-10518967D01*
X10423967Y-10625034D01*
X10530034Y-10625034D01*
D10*
X10917539Y-10663484D02*
X10803253Y-10663484D01*
X10860396Y-10663484D02*
X10860396Y-10463484D01*
X10860396Y-10463484D02*
X10841348Y-10492055D01*
X10841348Y-10492055D02*
X10822301Y-10511103D01*
X10822301Y-10511103D02*
X10803253Y-10520627D01*
X11003253Y-10644436D02*
X11012777Y-10653960D01*
X11012777Y-10653960D02*
X11003253Y-10663484D01*
X11003253Y-10663484D02*
X10993729Y-10653960D01*
X10993729Y-10653960D02*
X11003253Y-10644436D01*
X11003253Y-10644436D02*
X11003253Y-10663484D01*
X11193729Y-10463484D02*
X11098491Y-10463484D01*
X11098491Y-10463484D02*
X11088967Y-10558722D01*
X11088967Y-10558722D02*
X11098491Y-10549198D01*
X11098491Y-10549198D02*
X11117539Y-10539674D01*
X11117539Y-10539674D02*
X11165158Y-10539674D01*
X11165158Y-10539674D02*
X11184205Y-10549198D01*
X11184205Y-10549198D02*
X11193729Y-10558722D01*
X11193729Y-10558722D02*
X11203253Y-10577770D01*
X11203253Y-10577770D02*
X11203253Y-10625389D01*
X11203253Y-10625389D02*
X11193729Y-10644436D01*
X11193729Y-10644436D02*
X11184205Y-10653960D01*
X11184205Y-10653960D02*
X11165158Y-10663484D01*
X11165158Y-10663484D02*
X11117539Y-10663484D01*
X11117539Y-10663484D02*
X11098491Y-10653960D01*
X11098491Y-10653960D02*
X11088967Y-10644436D01*
X11327062Y-10463484D02*
X11346110Y-10463484D01*
X11346110Y-10463484D02*
X11365158Y-10473008D01*
X11365158Y-10473008D02*
X11374682Y-10482531D01*
X11374682Y-10482531D02*
X11384205Y-10501579D01*
X11384205Y-10501579D02*
X11393729Y-10539674D01*
X11393729Y-10539674D02*
X11393729Y-10587293D01*
X11393729Y-10587293D02*
X11384205Y-10625389D01*
X11384205Y-10625389D02*
X11374682Y-10644436D01*
X11374682Y-10644436D02*
X11365158Y-10653960D01*
X11365158Y-10653960D02*
X11346110Y-10663484D01*
X11346110Y-10663484D02*
X11327062Y-10663484D01*
X11327062Y-10663484D02*
X11308015Y-10653960D01*
X11308015Y-10653960D02*
X11298491Y-10644436D01*
X11298491Y-10644436D02*
X11288967Y-10625389D01*
X11288967Y-10625389D02*
X11279443Y-10587293D01*
X11279443Y-10587293D02*
X11279443Y-10539674D01*
X11279443Y-10539674D02*
X11288967Y-10501579D01*
X11288967Y-10501579D02*
X11298491Y-10482531D01*
X11298491Y-10482531D02*
X11308015Y-10473008D01*
X11308015Y-10473008D02*
X11327062Y-10463484D01*
X11517539Y-10463484D02*
X11536586Y-10463484D01*
X11536586Y-10463484D02*
X11555634Y-10473008D01*
X11555634Y-10473008D02*
X11565158Y-10482531D01*
X11565158Y-10482531D02*
X11574682Y-10501579D01*
X11574682Y-10501579D02*
X11584205Y-10539674D01*
X11584205Y-10539674D02*
X11584205Y-10587293D01*
X11584205Y-10587293D02*
X11574682Y-10625389D01*
X11574682Y-10625389D02*
X11565158Y-10644436D01*
X11565158Y-10644436D02*
X11555634Y-10653960D01*
X11555634Y-10653960D02*
X11536586Y-10663484D01*
X11536586Y-10663484D02*
X11517539Y-10663484D01*
X11517539Y-10663484D02*
X11498491Y-10653960D01*
X11498491Y-10653960D02*
X11488967Y-10644436D01*
X11488967Y-10644436D02*
X11479443Y-10625389D01*
X11479443Y-10625389D02*
X11469920Y-10587293D01*
X11469920Y-10587293D02*
X11469920Y-10539674D01*
X11469920Y-10539674D02*
X11479443Y-10501579D01*
X11479443Y-10501579D02*
X11488967Y-10482531D01*
X11488967Y-10482531D02*
X11498491Y-10473008D01*
X11498491Y-10473008D02*
X11517539Y-10463484D01*
X11669920Y-10663484D02*
X11669920Y-10530150D01*
X11669920Y-10549198D02*
X11679443Y-10539674D01*
X11679443Y-10539674D02*
X11698491Y-10530150D01*
X11698491Y-10530150D02*
X11727063Y-10530150D01*
X11727063Y-10530150D02*
X11746110Y-10539674D01*
X11746110Y-10539674D02*
X11755634Y-10558722D01*
X11755634Y-10558722D02*
X11755634Y-10663484D01*
X11755634Y-10558722D02*
X11765158Y-10539674D01*
X11765158Y-10539674D02*
X11784205Y-10530150D01*
X11784205Y-10530150D02*
X11812777Y-10530150D01*
X11812777Y-10530150D02*
X11831824Y-10539674D01*
X11831824Y-10539674D02*
X11841348Y-10558722D01*
X11841348Y-10558722D02*
X11841348Y-10663484D01*
X11936586Y-10663484D02*
X11936586Y-10530150D01*
X11936586Y-10549198D02*
X11946110Y-10539674D01*
X11946110Y-10539674D02*
X11965158Y-10530150D01*
X11965158Y-10530150D02*
X11993729Y-10530150D01*
X11993729Y-10530150D02*
X12012777Y-10539674D01*
X12012777Y-10539674D02*
X12022301Y-10558722D01*
X12022301Y-10558722D02*
X12022301Y-10663484D01*
X12022301Y-10558722D02*
X12031824Y-10539674D01*
X12031824Y-10539674D02*
X12050872Y-10530150D01*
X12050872Y-10530150D02*
X12079443Y-10530150D01*
X12079443Y-10530150D02*
X12098491Y-10539674D01*
X12098491Y-10539674D02*
X12108015Y-10558722D01*
X12108015Y-10558722D02*
X12108015Y-10663484D01*
X12498491Y-10453960D02*
X12327063Y-10711103D01*
X12755634Y-10463484D02*
X12774682Y-10463484D01*
X12774682Y-10463484D02*
X12793729Y-10473008D01*
X12793729Y-10473008D02*
X12803253Y-10482531D01*
X12803253Y-10482531D02*
X12812777Y-10501579D01*
X12812777Y-10501579D02*
X12822301Y-10539674D01*
X12822301Y-10539674D02*
X12822301Y-10587293D01*
X12822301Y-10587293D02*
X12812777Y-10625389D01*
X12812777Y-10625389D02*
X12803253Y-10644436D01*
X12803253Y-10644436D02*
X12793729Y-10653960D01*
X12793729Y-10653960D02*
X12774682Y-10663484D01*
X12774682Y-10663484D02*
X12755634Y-10663484D01*
X12755634Y-10663484D02*
X12736586Y-10653960D01*
X12736586Y-10653960D02*
X12727063Y-10644436D01*
X12727063Y-10644436D02*
X12717539Y-10625389D01*
X12717539Y-10625389D02*
X12708015Y-10587293D01*
X12708015Y-10587293D02*
X12708015Y-10539674D01*
X12708015Y-10539674D02*
X12717539Y-10501579D01*
X12717539Y-10501579D02*
X12727063Y-10482531D01*
X12727063Y-10482531D02*
X12736586Y-10473008D01*
X12736586Y-10473008D02*
X12755634Y-10463484D01*
X12908015Y-10644436D02*
X12917539Y-10653960D01*
X12917539Y-10653960D02*
X12908015Y-10663484D01*
X12908015Y-10663484D02*
X12898491Y-10653960D01*
X12898491Y-10653960D02*
X12908015Y-10644436D01*
X12908015Y-10644436D02*
X12908015Y-10663484D01*
X13041348Y-10463484D02*
X13060396Y-10463484D01*
X13060396Y-10463484D02*
X13079444Y-10473008D01*
X13079444Y-10473008D02*
X13088967Y-10482531D01*
X13088967Y-10482531D02*
X13098491Y-10501579D01*
X13098491Y-10501579D02*
X13108015Y-10539674D01*
X13108015Y-10539674D02*
X13108015Y-10587293D01*
X13108015Y-10587293D02*
X13098491Y-10625389D01*
X13098491Y-10625389D02*
X13088967Y-10644436D01*
X13088967Y-10644436D02*
X13079444Y-10653960D01*
X13079444Y-10653960D02*
X13060396Y-10663484D01*
X13060396Y-10663484D02*
X13041348Y-10663484D01*
X13041348Y-10663484D02*
X13022301Y-10653960D01*
X13022301Y-10653960D02*
X13012777Y-10644436D01*
X13012777Y-10644436D02*
X13003253Y-10625389D01*
X13003253Y-10625389D02*
X12993729Y-10587293D01*
X12993729Y-10587293D02*
X12993729Y-10539674D01*
X12993729Y-10539674D02*
X13003253Y-10501579D01*
X13003253Y-10501579D02*
X13012777Y-10482531D01*
X13012777Y-10482531D02*
X13022301Y-10473008D01*
X13022301Y-10473008D02*
X13041348Y-10463484D01*
X13288967Y-10463484D02*
X13193729Y-10463484D01*
X13193729Y-10463484D02*
X13184206Y-10558722D01*
X13184206Y-10558722D02*
X13193729Y-10549198D01*
X13193729Y-10549198D02*
X13212777Y-10539674D01*
X13212777Y-10539674D02*
X13260396Y-10539674D01*
X13260396Y-10539674D02*
X13279444Y-10549198D01*
X13279444Y-10549198D02*
X13288967Y-10558722D01*
X13288967Y-10558722D02*
X13298491Y-10577770D01*
X13298491Y-10577770D02*
X13298491Y-10625389D01*
X13298491Y-10625389D02*
X13288967Y-10644436D01*
X13288967Y-10644436D02*
X13279444Y-10653960D01*
X13279444Y-10653960D02*
X13260396Y-10663484D01*
X13260396Y-10663484D02*
X13212777Y-10663484D01*
X13212777Y-10663484D02*
X13193729Y-10653960D01*
X13193729Y-10653960D02*
X13184206Y-10644436D01*
X13393729Y-10663484D02*
X13431825Y-10663484D01*
X13431825Y-10663484D02*
X13450872Y-10653960D01*
X13450872Y-10653960D02*
X13460396Y-10644436D01*
X13460396Y-10644436D02*
X13479444Y-10615865D01*
X13479444Y-10615865D02*
X13488967Y-10577770D01*
X13488967Y-10577770D02*
X13488967Y-10501579D01*
X13488967Y-10501579D02*
X13479444Y-10482531D01*
X13479444Y-10482531D02*
X13469920Y-10473008D01*
X13469920Y-10473008D02*
X13450872Y-10463484D01*
X13450872Y-10463484D02*
X13412777Y-10463484D01*
X13412777Y-10463484D02*
X13393729Y-10473008D01*
X13393729Y-10473008D02*
X13384206Y-10482531D01*
X13384206Y-10482531D02*
X13374682Y-10501579D01*
X13374682Y-10501579D02*
X13374682Y-10549198D01*
X13374682Y-10549198D02*
X13384206Y-10568246D01*
X13384206Y-10568246D02*
X13393729Y-10577770D01*
X13393729Y-10577770D02*
X13412777Y-10587293D01*
X13412777Y-10587293D02*
X13450872Y-10587293D01*
X13450872Y-10587293D02*
X13469920Y-10577770D01*
X13469920Y-10577770D02*
X13479444Y-10568246D01*
X13479444Y-10568246D02*
X13488967Y-10549198D01*
X13679444Y-10663484D02*
X13565158Y-10663484D01*
X13622301Y-10663484D02*
X13622301Y-10463484D01*
X13622301Y-10463484D02*
X13603253Y-10492055D01*
X13603253Y-10492055D02*
X13584206Y-10511103D01*
X13584206Y-10511103D02*
X13565158Y-10520627D01*
X13755634Y-10463484D02*
X13755634Y-10501579D01*
X13831825Y-10463484D02*
X13831825Y-10501579D01*
X14127063Y-10739674D02*
X14117539Y-10730150D01*
X14117539Y-10730150D02*
X14098491Y-10701579D01*
X14098491Y-10701579D02*
X14088968Y-10682531D01*
X14088968Y-10682531D02*
X14079444Y-10653960D01*
X14079444Y-10653960D02*
X14069920Y-10606341D01*
X14069920Y-10606341D02*
X14069920Y-10568246D01*
X14069920Y-10568246D02*
X14079444Y-10520627D01*
X14079444Y-10520627D02*
X14088968Y-10492055D01*
X14088968Y-10492055D02*
X14098491Y-10473008D01*
X14098491Y-10473008D02*
X14117539Y-10444436D01*
X14117539Y-10444436D02*
X14127063Y-10434912D01*
X14193729Y-10482531D02*
X14203253Y-10473008D01*
X14203253Y-10473008D02*
X14222301Y-10463484D01*
X14222301Y-10463484D02*
X14269920Y-10463484D01*
X14269920Y-10463484D02*
X14288968Y-10473008D01*
X14288968Y-10473008D02*
X14298491Y-10482531D01*
X14298491Y-10482531D02*
X14308015Y-10501579D01*
X14308015Y-10501579D02*
X14308015Y-10520627D01*
X14308015Y-10520627D02*
X14298491Y-10549198D01*
X14298491Y-10549198D02*
X14184206Y-10663484D01*
X14184206Y-10663484D02*
X14308015Y-10663484D01*
X14546110Y-10663484D02*
X14546110Y-10463484D01*
X14631825Y-10663484D02*
X14631825Y-10558722D01*
X14631825Y-10558722D02*
X14622301Y-10539674D01*
X14622301Y-10539674D02*
X14603253Y-10530150D01*
X14603253Y-10530150D02*
X14574682Y-10530150D01*
X14574682Y-10530150D02*
X14555634Y-10539674D01*
X14555634Y-10539674D02*
X14546110Y-10549198D01*
X14755634Y-10663484D02*
X14736587Y-10653960D01*
X14736587Y-10653960D02*
X14727063Y-10644436D01*
X14727063Y-10644436D02*
X14717539Y-10625389D01*
X14717539Y-10625389D02*
X14717539Y-10568246D01*
X14717539Y-10568246D02*
X14727063Y-10549198D01*
X14727063Y-10549198D02*
X14736587Y-10539674D01*
X14736587Y-10539674D02*
X14755634Y-10530150D01*
X14755634Y-10530150D02*
X14784206Y-10530150D01*
X14784206Y-10530150D02*
X14803253Y-10539674D01*
X14803253Y-10539674D02*
X14812777Y-10549198D01*
X14812777Y-10549198D02*
X14822301Y-10568246D01*
X14822301Y-10568246D02*
X14822301Y-10625389D01*
X14822301Y-10625389D02*
X14812777Y-10644436D01*
X14812777Y-10644436D02*
X14803253Y-10653960D01*
X14803253Y-10653960D02*
X14784206Y-10663484D01*
X14784206Y-10663484D02*
X14755634Y-10663484D01*
X14936587Y-10663484D02*
X14917539Y-10653960D01*
X14917539Y-10653960D02*
X14908015Y-10634912D01*
X14908015Y-10634912D02*
X14908015Y-10463484D01*
X15088968Y-10653960D02*
X15069920Y-10663484D01*
X15069920Y-10663484D02*
X15031825Y-10663484D01*
X15031825Y-10663484D02*
X15012777Y-10653960D01*
X15012777Y-10653960D02*
X15003253Y-10634912D01*
X15003253Y-10634912D02*
X15003253Y-10558722D01*
X15003253Y-10558722D02*
X15012777Y-10539674D01*
X15012777Y-10539674D02*
X15031825Y-10530150D01*
X15031825Y-10530150D02*
X15069920Y-10530150D01*
X15069920Y-10530150D02*
X15088968Y-10539674D01*
X15088968Y-10539674D02*
X15098491Y-10558722D01*
X15098491Y-10558722D02*
X15098491Y-10577770D01*
X15098491Y-10577770D02*
X15003253Y-10596817D01*
X15174682Y-10653960D02*
X15193730Y-10663484D01*
X15193730Y-10663484D02*
X15231825Y-10663484D01*
X15231825Y-10663484D02*
X15250872Y-10653960D01*
X15250872Y-10653960D02*
X15260396Y-10634912D01*
X15260396Y-10634912D02*
X15260396Y-10625389D01*
X15260396Y-10625389D02*
X15250872Y-10606341D01*
X15250872Y-10606341D02*
X15231825Y-10596817D01*
X15231825Y-10596817D02*
X15203253Y-10596817D01*
X15203253Y-10596817D02*
X15184206Y-10587293D01*
X15184206Y-10587293D02*
X15174682Y-10568246D01*
X15174682Y-10568246D02*
X15174682Y-10558722D01*
X15174682Y-10558722D02*
X15184206Y-10539674D01*
X15184206Y-10539674D02*
X15203253Y-10530150D01*
X15203253Y-10530150D02*
X15231825Y-10530150D01*
X15231825Y-10530150D02*
X15250872Y-10539674D01*
X15327063Y-10739674D02*
X15336587Y-10730150D01*
X15336587Y-10730150D02*
X15355634Y-10701579D01*
X15355634Y-10701579D02*
X15365158Y-10682531D01*
X15365158Y-10682531D02*
X15374682Y-10653960D01*
X15374682Y-10653960D02*
X15384206Y-10606341D01*
X15384206Y-10606341D02*
X15384206Y-10568246D01*
X15384206Y-10568246D02*
X15374682Y-10520627D01*
X15374682Y-10520627D02*
X15365158Y-10492055D01*
X15365158Y-10492055D02*
X15355634Y-10473008D01*
X15355634Y-10473008D02*
X15336587Y-10444436D01*
X15336587Y-10444436D02*
X15327063Y-10434912D01*
D15*
X10472000Y-10922000D02*
X10552000Y-10842000D01*
X10472000Y-10762000D01*
X10392000Y-10842000D01*
X10472000Y-10922000D01*
D10*
X10917539Y-10933484D02*
X10803253Y-10933484D01*
X10860396Y-10933484D02*
X10860396Y-10733484D01*
X10860396Y-10733484D02*
X10841348Y-10762055D01*
X10841348Y-10762055D02*
X10822301Y-10781103D01*
X10822301Y-10781103D02*
X10803253Y-10790627D01*
X11003253Y-10914436D02*
X11012777Y-10923960D01*
X11012777Y-10923960D02*
X11003253Y-10933484D01*
X11003253Y-10933484D02*
X10993729Y-10923960D01*
X10993729Y-10923960D02*
X11003253Y-10914436D01*
X11003253Y-10914436D02*
X11003253Y-10933484D01*
X11184205Y-10733484D02*
X11146110Y-10733484D01*
X11146110Y-10733484D02*
X11127063Y-10743008D01*
X11127063Y-10743008D02*
X11117539Y-10752531D01*
X11117539Y-10752531D02*
X11098491Y-10781103D01*
X11098491Y-10781103D02*
X11088967Y-10819198D01*
X11088967Y-10819198D02*
X11088967Y-10895389D01*
X11088967Y-10895389D02*
X11098491Y-10914436D01*
X11098491Y-10914436D02*
X11108015Y-10923960D01*
X11108015Y-10923960D02*
X11127063Y-10933484D01*
X11127063Y-10933484D02*
X11165158Y-10933484D01*
X11165158Y-10933484D02*
X11184205Y-10923960D01*
X11184205Y-10923960D02*
X11193729Y-10914436D01*
X11193729Y-10914436D02*
X11203253Y-10895389D01*
X11203253Y-10895389D02*
X11203253Y-10847770D01*
X11203253Y-10847770D02*
X11193729Y-10828722D01*
X11193729Y-10828722D02*
X11184205Y-10819198D01*
X11184205Y-10819198D02*
X11165158Y-10809674D01*
X11165158Y-10809674D02*
X11127063Y-10809674D01*
X11127063Y-10809674D02*
X11108015Y-10819198D01*
X11108015Y-10819198D02*
X11098491Y-10828722D01*
X11098491Y-10828722D02*
X11088967Y-10847770D01*
X11327062Y-10733484D02*
X11346110Y-10733484D01*
X11346110Y-10733484D02*
X11365158Y-10743008D01*
X11365158Y-10743008D02*
X11374682Y-10752531D01*
X11374682Y-10752531D02*
X11384205Y-10771579D01*
X11384205Y-10771579D02*
X11393729Y-10809674D01*
X11393729Y-10809674D02*
X11393729Y-10857293D01*
X11393729Y-10857293D02*
X11384205Y-10895389D01*
X11384205Y-10895389D02*
X11374682Y-10914436D01*
X11374682Y-10914436D02*
X11365158Y-10923960D01*
X11365158Y-10923960D02*
X11346110Y-10933484D01*
X11346110Y-10933484D02*
X11327062Y-10933484D01*
X11327062Y-10933484D02*
X11308015Y-10923960D01*
X11308015Y-10923960D02*
X11298491Y-10914436D01*
X11298491Y-10914436D02*
X11288967Y-10895389D01*
X11288967Y-10895389D02*
X11279443Y-10857293D01*
X11279443Y-10857293D02*
X11279443Y-10809674D01*
X11279443Y-10809674D02*
X11288967Y-10771579D01*
X11288967Y-10771579D02*
X11298491Y-10752531D01*
X11298491Y-10752531D02*
X11308015Y-10743008D01*
X11308015Y-10743008D02*
X11327062Y-10733484D01*
X11517539Y-10733484D02*
X11536586Y-10733484D01*
X11536586Y-10733484D02*
X11555634Y-10743008D01*
X11555634Y-10743008D02*
X11565158Y-10752531D01*
X11565158Y-10752531D02*
X11574682Y-10771579D01*
X11574682Y-10771579D02*
X11584205Y-10809674D01*
X11584205Y-10809674D02*
X11584205Y-10857293D01*
X11584205Y-10857293D02*
X11574682Y-10895389D01*
X11574682Y-10895389D02*
X11565158Y-10914436D01*
X11565158Y-10914436D02*
X11555634Y-10923960D01*
X11555634Y-10923960D02*
X11536586Y-10933484D01*
X11536586Y-10933484D02*
X11517539Y-10933484D01*
X11517539Y-10933484D02*
X11498491Y-10923960D01*
X11498491Y-10923960D02*
X11488967Y-10914436D01*
X11488967Y-10914436D02*
X11479443Y-10895389D01*
X11479443Y-10895389D02*
X11469920Y-10857293D01*
X11469920Y-10857293D02*
X11469920Y-10809674D01*
X11469920Y-10809674D02*
X11479443Y-10771579D01*
X11479443Y-10771579D02*
X11488967Y-10752531D01*
X11488967Y-10752531D02*
X11498491Y-10743008D01*
X11498491Y-10743008D02*
X11517539Y-10733484D01*
X11669920Y-10933484D02*
X11669920Y-10800150D01*
X11669920Y-10819198D02*
X11679443Y-10809674D01*
X11679443Y-10809674D02*
X11698491Y-10800150D01*
X11698491Y-10800150D02*
X11727063Y-10800150D01*
X11727063Y-10800150D02*
X11746110Y-10809674D01*
X11746110Y-10809674D02*
X11755634Y-10828722D01*
X11755634Y-10828722D02*
X11755634Y-10933484D01*
X11755634Y-10828722D02*
X11765158Y-10809674D01*
X11765158Y-10809674D02*
X11784205Y-10800150D01*
X11784205Y-10800150D02*
X11812777Y-10800150D01*
X11812777Y-10800150D02*
X11831824Y-10809674D01*
X11831824Y-10809674D02*
X11841348Y-10828722D01*
X11841348Y-10828722D02*
X11841348Y-10933484D01*
X11936586Y-10933484D02*
X11936586Y-10800150D01*
X11936586Y-10819198D02*
X11946110Y-10809674D01*
X11946110Y-10809674D02*
X11965158Y-10800150D01*
X11965158Y-10800150D02*
X11993729Y-10800150D01*
X11993729Y-10800150D02*
X12012777Y-10809674D01*
X12012777Y-10809674D02*
X12022301Y-10828722D01*
X12022301Y-10828722D02*
X12022301Y-10933484D01*
X12022301Y-10828722D02*
X12031824Y-10809674D01*
X12031824Y-10809674D02*
X12050872Y-10800150D01*
X12050872Y-10800150D02*
X12079443Y-10800150D01*
X12079443Y-10800150D02*
X12098491Y-10809674D01*
X12098491Y-10809674D02*
X12108015Y-10828722D01*
X12108015Y-10828722D02*
X12108015Y-10933484D01*
X12498491Y-10723960D02*
X12327063Y-10981103D01*
X12755634Y-10733484D02*
X12774682Y-10733484D01*
X12774682Y-10733484D02*
X12793729Y-10743008D01*
X12793729Y-10743008D02*
X12803253Y-10752531D01*
X12803253Y-10752531D02*
X12812777Y-10771579D01*
X12812777Y-10771579D02*
X12822301Y-10809674D01*
X12822301Y-10809674D02*
X12822301Y-10857293D01*
X12822301Y-10857293D02*
X12812777Y-10895389D01*
X12812777Y-10895389D02*
X12803253Y-10914436D01*
X12803253Y-10914436D02*
X12793729Y-10923960D01*
X12793729Y-10923960D02*
X12774682Y-10933484D01*
X12774682Y-10933484D02*
X12755634Y-10933484D01*
X12755634Y-10933484D02*
X12736586Y-10923960D01*
X12736586Y-10923960D02*
X12727063Y-10914436D01*
X12727063Y-10914436D02*
X12717539Y-10895389D01*
X12717539Y-10895389D02*
X12708015Y-10857293D01*
X12708015Y-10857293D02*
X12708015Y-10809674D01*
X12708015Y-10809674D02*
X12717539Y-10771579D01*
X12717539Y-10771579D02*
X12727063Y-10752531D01*
X12727063Y-10752531D02*
X12736586Y-10743008D01*
X12736586Y-10743008D02*
X12755634Y-10733484D01*
X12908015Y-10914436D02*
X12917539Y-10923960D01*
X12917539Y-10923960D02*
X12908015Y-10933484D01*
X12908015Y-10933484D02*
X12898491Y-10923960D01*
X12898491Y-10923960D02*
X12908015Y-10914436D01*
X12908015Y-10914436D02*
X12908015Y-10933484D01*
X13041348Y-10733484D02*
X13060396Y-10733484D01*
X13060396Y-10733484D02*
X13079444Y-10743008D01*
X13079444Y-10743008D02*
X13088967Y-10752531D01*
X13088967Y-10752531D02*
X13098491Y-10771579D01*
X13098491Y-10771579D02*
X13108015Y-10809674D01*
X13108015Y-10809674D02*
X13108015Y-10857293D01*
X13108015Y-10857293D02*
X13098491Y-10895389D01*
X13098491Y-10895389D02*
X13088967Y-10914436D01*
X13088967Y-10914436D02*
X13079444Y-10923960D01*
X13079444Y-10923960D02*
X13060396Y-10933484D01*
X13060396Y-10933484D02*
X13041348Y-10933484D01*
X13041348Y-10933484D02*
X13022301Y-10923960D01*
X13022301Y-10923960D02*
X13012777Y-10914436D01*
X13012777Y-10914436D02*
X13003253Y-10895389D01*
X13003253Y-10895389D02*
X12993729Y-10857293D01*
X12993729Y-10857293D02*
X12993729Y-10809674D01*
X12993729Y-10809674D02*
X13003253Y-10771579D01*
X13003253Y-10771579D02*
X13012777Y-10752531D01*
X13012777Y-10752531D02*
X13022301Y-10743008D01*
X13022301Y-10743008D02*
X13041348Y-10733484D01*
X13279444Y-10733484D02*
X13241348Y-10733484D01*
X13241348Y-10733484D02*
X13222301Y-10743008D01*
X13222301Y-10743008D02*
X13212777Y-10752531D01*
X13212777Y-10752531D02*
X13193729Y-10781103D01*
X13193729Y-10781103D02*
X13184206Y-10819198D01*
X13184206Y-10819198D02*
X13184206Y-10895389D01*
X13184206Y-10895389D02*
X13193729Y-10914436D01*
X13193729Y-10914436D02*
X13203253Y-10923960D01*
X13203253Y-10923960D02*
X13222301Y-10933484D01*
X13222301Y-10933484D02*
X13260396Y-10933484D01*
X13260396Y-10933484D02*
X13279444Y-10923960D01*
X13279444Y-10923960D02*
X13288967Y-10914436D01*
X13288967Y-10914436D02*
X13298491Y-10895389D01*
X13298491Y-10895389D02*
X13298491Y-10847770D01*
X13298491Y-10847770D02*
X13288967Y-10828722D01*
X13288967Y-10828722D02*
X13279444Y-10819198D01*
X13279444Y-10819198D02*
X13260396Y-10809674D01*
X13260396Y-10809674D02*
X13222301Y-10809674D01*
X13222301Y-10809674D02*
X13203253Y-10819198D01*
X13203253Y-10819198D02*
X13193729Y-10828722D01*
X13193729Y-10828722D02*
X13184206Y-10847770D01*
X13365158Y-10733484D02*
X13488967Y-10733484D01*
X13488967Y-10733484D02*
X13422301Y-10809674D01*
X13422301Y-10809674D02*
X13450872Y-10809674D01*
X13450872Y-10809674D02*
X13469920Y-10819198D01*
X13469920Y-10819198D02*
X13479444Y-10828722D01*
X13479444Y-10828722D02*
X13488967Y-10847770D01*
X13488967Y-10847770D02*
X13488967Y-10895389D01*
X13488967Y-10895389D02*
X13479444Y-10914436D01*
X13479444Y-10914436D02*
X13469920Y-10923960D01*
X13469920Y-10923960D02*
X13450872Y-10933484D01*
X13450872Y-10933484D02*
X13393729Y-10933484D01*
X13393729Y-10933484D02*
X13374682Y-10923960D01*
X13374682Y-10923960D02*
X13365158Y-10914436D01*
X13612777Y-10733484D02*
X13631825Y-10733484D01*
X13631825Y-10733484D02*
X13650872Y-10743008D01*
X13650872Y-10743008D02*
X13660396Y-10752531D01*
X13660396Y-10752531D02*
X13669920Y-10771579D01*
X13669920Y-10771579D02*
X13679444Y-10809674D01*
X13679444Y-10809674D02*
X13679444Y-10857293D01*
X13679444Y-10857293D02*
X13669920Y-10895389D01*
X13669920Y-10895389D02*
X13660396Y-10914436D01*
X13660396Y-10914436D02*
X13650872Y-10923960D01*
X13650872Y-10923960D02*
X13631825Y-10933484D01*
X13631825Y-10933484D02*
X13612777Y-10933484D01*
X13612777Y-10933484D02*
X13593729Y-10923960D01*
X13593729Y-10923960D02*
X13584206Y-10914436D01*
X13584206Y-10914436D02*
X13574682Y-10895389D01*
X13574682Y-10895389D02*
X13565158Y-10857293D01*
X13565158Y-10857293D02*
X13565158Y-10809674D01*
X13565158Y-10809674D02*
X13574682Y-10771579D01*
X13574682Y-10771579D02*
X13584206Y-10752531D01*
X13584206Y-10752531D02*
X13593729Y-10743008D01*
X13593729Y-10743008D02*
X13612777Y-10733484D01*
X13755634Y-10733484D02*
X13755634Y-10771579D01*
X13831825Y-10733484D02*
X13831825Y-10771579D01*
X14127063Y-11009674D02*
X14117539Y-11000150D01*
X14117539Y-11000150D02*
X14098491Y-10971579D01*
X14098491Y-10971579D02*
X14088968Y-10952531D01*
X14088968Y-10952531D02*
X14079444Y-10923960D01*
X14079444Y-10923960D02*
X14069920Y-10876341D01*
X14069920Y-10876341D02*
X14069920Y-10838246D01*
X14069920Y-10838246D02*
X14079444Y-10790627D01*
X14079444Y-10790627D02*
X14088968Y-10762055D01*
X14088968Y-10762055D02*
X14098491Y-10743008D01*
X14098491Y-10743008D02*
X14117539Y-10714436D01*
X14117539Y-10714436D02*
X14127063Y-10704912D01*
X14231825Y-10819198D02*
X14212777Y-10809674D01*
X14212777Y-10809674D02*
X14203253Y-10800150D01*
X14203253Y-10800150D02*
X14193729Y-10781103D01*
X14193729Y-10781103D02*
X14193729Y-10771579D01*
X14193729Y-10771579D02*
X14203253Y-10752531D01*
X14203253Y-10752531D02*
X14212777Y-10743008D01*
X14212777Y-10743008D02*
X14231825Y-10733484D01*
X14231825Y-10733484D02*
X14269920Y-10733484D01*
X14269920Y-10733484D02*
X14288968Y-10743008D01*
X14288968Y-10743008D02*
X14298491Y-10752531D01*
X14298491Y-10752531D02*
X14308015Y-10771579D01*
X14308015Y-10771579D02*
X14308015Y-10781103D01*
X14308015Y-10781103D02*
X14298491Y-10800150D01*
X14298491Y-10800150D02*
X14288968Y-10809674D01*
X14288968Y-10809674D02*
X14269920Y-10819198D01*
X14269920Y-10819198D02*
X14231825Y-10819198D01*
X14231825Y-10819198D02*
X14212777Y-10828722D01*
X14212777Y-10828722D02*
X14203253Y-10838246D01*
X14203253Y-10838246D02*
X14193729Y-10857293D01*
X14193729Y-10857293D02*
X14193729Y-10895389D01*
X14193729Y-10895389D02*
X14203253Y-10914436D01*
X14203253Y-10914436D02*
X14212777Y-10923960D01*
X14212777Y-10923960D02*
X14231825Y-10933484D01*
X14231825Y-10933484D02*
X14269920Y-10933484D01*
X14269920Y-10933484D02*
X14288968Y-10923960D01*
X14288968Y-10923960D02*
X14298491Y-10914436D01*
X14298491Y-10914436D02*
X14308015Y-10895389D01*
X14308015Y-10895389D02*
X14308015Y-10857293D01*
X14308015Y-10857293D02*
X14298491Y-10838246D01*
X14298491Y-10838246D02*
X14288968Y-10828722D01*
X14288968Y-10828722D02*
X14269920Y-10819198D01*
X14546110Y-10933484D02*
X14546110Y-10733484D01*
X14631825Y-10933484D02*
X14631825Y-10828722D01*
X14631825Y-10828722D02*
X14622301Y-10809674D01*
X14622301Y-10809674D02*
X14603253Y-10800150D01*
X14603253Y-10800150D02*
X14574682Y-10800150D01*
X14574682Y-10800150D02*
X14555634Y-10809674D01*
X14555634Y-10809674D02*
X14546110Y-10819198D01*
X14755634Y-10933484D02*
X14736587Y-10923960D01*
X14736587Y-10923960D02*
X14727063Y-10914436D01*
X14727063Y-10914436D02*
X14717539Y-10895389D01*
X14717539Y-10895389D02*
X14717539Y-10838246D01*
X14717539Y-10838246D02*
X14727063Y-10819198D01*
X14727063Y-10819198D02*
X14736587Y-10809674D01*
X14736587Y-10809674D02*
X14755634Y-10800150D01*
X14755634Y-10800150D02*
X14784206Y-10800150D01*
X14784206Y-10800150D02*
X14803253Y-10809674D01*
X14803253Y-10809674D02*
X14812777Y-10819198D01*
X14812777Y-10819198D02*
X14822301Y-10838246D01*
X14822301Y-10838246D02*
X14822301Y-10895389D01*
X14822301Y-10895389D02*
X14812777Y-10914436D01*
X14812777Y-10914436D02*
X14803253Y-10923960D01*
X14803253Y-10923960D02*
X14784206Y-10933484D01*
X14784206Y-10933484D02*
X14755634Y-10933484D01*
X14936587Y-10933484D02*
X14917539Y-10923960D01*
X14917539Y-10923960D02*
X14908015Y-10904912D01*
X14908015Y-10904912D02*
X14908015Y-10733484D01*
X15088968Y-10923960D02*
X15069920Y-10933484D01*
X15069920Y-10933484D02*
X15031825Y-10933484D01*
X15031825Y-10933484D02*
X15012777Y-10923960D01*
X15012777Y-10923960D02*
X15003253Y-10904912D01*
X15003253Y-10904912D02*
X15003253Y-10828722D01*
X15003253Y-10828722D02*
X15012777Y-10809674D01*
X15012777Y-10809674D02*
X15031825Y-10800150D01*
X15031825Y-10800150D02*
X15069920Y-10800150D01*
X15069920Y-10800150D02*
X15088968Y-10809674D01*
X15088968Y-10809674D02*
X15098491Y-10828722D01*
X15098491Y-10828722D02*
X15098491Y-10847770D01*
X15098491Y-10847770D02*
X15003253Y-10866817D01*
X15174682Y-10923960D02*
X15193730Y-10933484D01*
X15193730Y-10933484D02*
X15231825Y-10933484D01*
X15231825Y-10933484D02*
X15250872Y-10923960D01*
X15250872Y-10923960D02*
X15260396Y-10904912D01*
X15260396Y-10904912D02*
X15260396Y-10895389D01*
X15260396Y-10895389D02*
X15250872Y-10876341D01*
X15250872Y-10876341D02*
X15231825Y-10866817D01*
X15231825Y-10866817D02*
X15203253Y-10866817D01*
X15203253Y-10866817D02*
X15184206Y-10857293D01*
X15184206Y-10857293D02*
X15174682Y-10838246D01*
X15174682Y-10838246D02*
X15174682Y-10828722D01*
X15174682Y-10828722D02*
X15184206Y-10809674D01*
X15184206Y-10809674D02*
X15203253Y-10800150D01*
X15203253Y-10800150D02*
X15231825Y-10800150D01*
X15231825Y-10800150D02*
X15250872Y-10809674D01*
X15327063Y-11009674D02*
X15336587Y-11000150D01*
X15336587Y-11000150D02*
X15355634Y-10971579D01*
X15355634Y-10971579D02*
X15365158Y-10952531D01*
X15365158Y-10952531D02*
X15374682Y-10923960D01*
X15374682Y-10923960D02*
X15384206Y-10876341D01*
X15384206Y-10876341D02*
X15384206Y-10838246D01*
X15384206Y-10838246D02*
X15374682Y-10790627D01*
X15374682Y-10790627D02*
X15365158Y-10762055D01*
X15365158Y-10762055D02*
X15355634Y-10743008D01*
X15355634Y-10743008D02*
X15336587Y-10714436D01*
X15336587Y-10714436D02*
X15327063Y-10704912D01*
X10352000Y-11022000D02*
X10552000Y-11222000D01*
X10552000Y-11022000D02*
X10352000Y-11222000D01*
X10552000Y-11122000D02*
G75*
G03*
X10552000Y-11122000I-100000J0D01*
G01*
X10803253Y-11032531D02*
X10812777Y-11023008D01*
X10812777Y-11023008D02*
X10831824Y-11013484D01*
X10831824Y-11013484D02*
X10879444Y-11013484D01*
X10879444Y-11013484D02*
X10898491Y-11023008D01*
X10898491Y-11023008D02*
X10908015Y-11032531D01*
X10908015Y-11032531D02*
X10917539Y-11051579D01*
X10917539Y-11051579D02*
X10917539Y-11070627D01*
X10917539Y-11070627D02*
X10908015Y-11099198D01*
X10908015Y-11099198D02*
X10793729Y-11213484D01*
X10793729Y-11213484D02*
X10917539Y-11213484D01*
X11003253Y-11194436D02*
X11012777Y-11203960D01*
X11012777Y-11203960D02*
X11003253Y-11213484D01*
X11003253Y-11213484D02*
X10993729Y-11203960D01*
X10993729Y-11203960D02*
X11003253Y-11194436D01*
X11003253Y-11194436D02*
X11003253Y-11213484D01*
X11079444Y-11013484D02*
X11212777Y-11013484D01*
X11212777Y-11013484D02*
X11127063Y-11213484D01*
X11327062Y-11013484D02*
X11346110Y-11013484D01*
X11346110Y-11013484D02*
X11365158Y-11023008D01*
X11365158Y-11023008D02*
X11374682Y-11032531D01*
X11374682Y-11032531D02*
X11384205Y-11051579D01*
X11384205Y-11051579D02*
X11393729Y-11089674D01*
X11393729Y-11089674D02*
X11393729Y-11137293D01*
X11393729Y-11137293D02*
X11384205Y-11175389D01*
X11384205Y-11175389D02*
X11374682Y-11194436D01*
X11374682Y-11194436D02*
X11365158Y-11203960D01*
X11365158Y-11203960D02*
X11346110Y-11213484D01*
X11346110Y-11213484D02*
X11327062Y-11213484D01*
X11327062Y-11213484D02*
X11308015Y-11203960D01*
X11308015Y-11203960D02*
X11298491Y-11194436D01*
X11298491Y-11194436D02*
X11288967Y-11175389D01*
X11288967Y-11175389D02*
X11279443Y-11137293D01*
X11279443Y-11137293D02*
X11279443Y-11089674D01*
X11279443Y-11089674D02*
X11288967Y-11051579D01*
X11288967Y-11051579D02*
X11298491Y-11032531D01*
X11298491Y-11032531D02*
X11308015Y-11023008D01*
X11308015Y-11023008D02*
X11327062Y-11013484D01*
X11517539Y-11013484D02*
X11536586Y-11013484D01*
X11536586Y-11013484D02*
X11555634Y-11023008D01*
X11555634Y-11023008D02*
X11565158Y-11032531D01*
X11565158Y-11032531D02*
X11574682Y-11051579D01*
X11574682Y-11051579D02*
X11584205Y-11089674D01*
X11584205Y-11089674D02*
X11584205Y-11137293D01*
X11584205Y-11137293D02*
X11574682Y-11175389D01*
X11574682Y-11175389D02*
X11565158Y-11194436D01*
X11565158Y-11194436D02*
X11555634Y-11203960D01*
X11555634Y-11203960D02*
X11536586Y-11213484D01*
X11536586Y-11213484D02*
X11517539Y-11213484D01*
X11517539Y-11213484D02*
X11498491Y-11203960D01*
X11498491Y-11203960D02*
X11488967Y-11194436D01*
X11488967Y-11194436D02*
X11479443Y-11175389D01*
X11479443Y-11175389D02*
X11469920Y-11137293D01*
X11469920Y-11137293D02*
X11469920Y-11089674D01*
X11469920Y-11089674D02*
X11479443Y-11051579D01*
X11479443Y-11051579D02*
X11488967Y-11032531D01*
X11488967Y-11032531D02*
X11498491Y-11023008D01*
X11498491Y-11023008D02*
X11517539Y-11013484D01*
X11669920Y-11213484D02*
X11669920Y-11080150D01*
X11669920Y-11099198D02*
X11679443Y-11089674D01*
X11679443Y-11089674D02*
X11698491Y-11080150D01*
X11698491Y-11080150D02*
X11727063Y-11080150D01*
X11727063Y-11080150D02*
X11746110Y-11089674D01*
X11746110Y-11089674D02*
X11755634Y-11108722D01*
X11755634Y-11108722D02*
X11755634Y-11213484D01*
X11755634Y-11108722D02*
X11765158Y-11089674D01*
X11765158Y-11089674D02*
X11784205Y-11080150D01*
X11784205Y-11080150D02*
X11812777Y-11080150D01*
X11812777Y-11080150D02*
X11831824Y-11089674D01*
X11831824Y-11089674D02*
X11841348Y-11108722D01*
X11841348Y-11108722D02*
X11841348Y-11213484D01*
X11936586Y-11213484D02*
X11936586Y-11080150D01*
X11936586Y-11099198D02*
X11946110Y-11089674D01*
X11946110Y-11089674D02*
X11965158Y-11080150D01*
X11965158Y-11080150D02*
X11993729Y-11080150D01*
X11993729Y-11080150D02*
X12012777Y-11089674D01*
X12012777Y-11089674D02*
X12022301Y-11108722D01*
X12022301Y-11108722D02*
X12022301Y-11213484D01*
X12022301Y-11108722D02*
X12031824Y-11089674D01*
X12031824Y-11089674D02*
X12050872Y-11080150D01*
X12050872Y-11080150D02*
X12079443Y-11080150D01*
X12079443Y-11080150D02*
X12098491Y-11089674D01*
X12098491Y-11089674D02*
X12108015Y-11108722D01*
X12108015Y-11108722D02*
X12108015Y-11213484D01*
X12498491Y-11003960D02*
X12327063Y-11261103D01*
X12755634Y-11013484D02*
X12774682Y-11013484D01*
X12774682Y-11013484D02*
X12793729Y-11023008D01*
X12793729Y-11023008D02*
X12803253Y-11032531D01*
X12803253Y-11032531D02*
X12812777Y-11051579D01*
X12812777Y-11051579D02*
X12822301Y-11089674D01*
X12822301Y-11089674D02*
X12822301Y-11137293D01*
X12822301Y-11137293D02*
X12812777Y-11175389D01*
X12812777Y-11175389D02*
X12803253Y-11194436D01*
X12803253Y-11194436D02*
X12793729Y-11203960D01*
X12793729Y-11203960D02*
X12774682Y-11213484D01*
X12774682Y-11213484D02*
X12755634Y-11213484D01*
X12755634Y-11213484D02*
X12736586Y-11203960D01*
X12736586Y-11203960D02*
X12727063Y-11194436D01*
X12727063Y-11194436D02*
X12717539Y-11175389D01*
X12717539Y-11175389D02*
X12708015Y-11137293D01*
X12708015Y-11137293D02*
X12708015Y-11089674D01*
X12708015Y-11089674D02*
X12717539Y-11051579D01*
X12717539Y-11051579D02*
X12727063Y-11032531D01*
X12727063Y-11032531D02*
X12736586Y-11023008D01*
X12736586Y-11023008D02*
X12755634Y-11013484D01*
X12908015Y-11194436D02*
X12917539Y-11203960D01*
X12917539Y-11203960D02*
X12908015Y-11213484D01*
X12908015Y-11213484D02*
X12898491Y-11203960D01*
X12898491Y-11203960D02*
X12908015Y-11194436D01*
X12908015Y-11194436D02*
X12908015Y-11213484D01*
X13108015Y-11213484D02*
X12993729Y-11213484D01*
X13050872Y-11213484D02*
X13050872Y-11013484D01*
X13050872Y-11013484D02*
X13031825Y-11042055D01*
X13031825Y-11042055D02*
X13012777Y-11061103D01*
X13012777Y-11061103D02*
X12993729Y-11070627D01*
X13231825Y-11013484D02*
X13250872Y-11013484D01*
X13250872Y-11013484D02*
X13269920Y-11023008D01*
X13269920Y-11023008D02*
X13279444Y-11032531D01*
X13279444Y-11032531D02*
X13288967Y-11051579D01*
X13288967Y-11051579D02*
X13298491Y-11089674D01*
X13298491Y-11089674D02*
X13298491Y-11137293D01*
X13298491Y-11137293D02*
X13288967Y-11175389D01*
X13288967Y-11175389D02*
X13279444Y-11194436D01*
X13279444Y-11194436D02*
X13269920Y-11203960D01*
X13269920Y-11203960D02*
X13250872Y-11213484D01*
X13250872Y-11213484D02*
X13231825Y-11213484D01*
X13231825Y-11213484D02*
X13212777Y-11203960D01*
X13212777Y-11203960D02*
X13203253Y-11194436D01*
X13203253Y-11194436D02*
X13193729Y-11175389D01*
X13193729Y-11175389D02*
X13184206Y-11137293D01*
X13184206Y-11137293D02*
X13184206Y-11089674D01*
X13184206Y-11089674D02*
X13193729Y-11051579D01*
X13193729Y-11051579D02*
X13203253Y-11032531D01*
X13203253Y-11032531D02*
X13212777Y-11023008D01*
X13212777Y-11023008D02*
X13231825Y-11013484D01*
X13469920Y-11013484D02*
X13431825Y-11013484D01*
X13431825Y-11013484D02*
X13412777Y-11023008D01*
X13412777Y-11023008D02*
X13403253Y-11032531D01*
X13403253Y-11032531D02*
X13384206Y-11061103D01*
X13384206Y-11061103D02*
X13374682Y-11099198D01*
X13374682Y-11099198D02*
X13374682Y-11175389D01*
X13374682Y-11175389D02*
X13384206Y-11194436D01*
X13384206Y-11194436D02*
X13393729Y-11203960D01*
X13393729Y-11203960D02*
X13412777Y-11213484D01*
X13412777Y-11213484D02*
X13450872Y-11213484D01*
X13450872Y-11213484D02*
X13469920Y-11203960D01*
X13469920Y-11203960D02*
X13479444Y-11194436D01*
X13479444Y-11194436D02*
X13488967Y-11175389D01*
X13488967Y-11175389D02*
X13488967Y-11127770D01*
X13488967Y-11127770D02*
X13479444Y-11108722D01*
X13479444Y-11108722D02*
X13469920Y-11099198D01*
X13469920Y-11099198D02*
X13450872Y-11089674D01*
X13450872Y-11089674D02*
X13412777Y-11089674D01*
X13412777Y-11089674D02*
X13393729Y-11099198D01*
X13393729Y-11099198D02*
X13384206Y-11108722D01*
X13384206Y-11108722D02*
X13374682Y-11127770D01*
X13555634Y-11013484D02*
X13679444Y-11013484D01*
X13679444Y-11013484D02*
X13612777Y-11089674D01*
X13612777Y-11089674D02*
X13641348Y-11089674D01*
X13641348Y-11089674D02*
X13660396Y-11099198D01*
X13660396Y-11099198D02*
X13669920Y-11108722D01*
X13669920Y-11108722D02*
X13679444Y-11127770D01*
X13679444Y-11127770D02*
X13679444Y-11175389D01*
X13679444Y-11175389D02*
X13669920Y-11194436D01*
X13669920Y-11194436D02*
X13660396Y-11203960D01*
X13660396Y-11203960D02*
X13641348Y-11213484D01*
X13641348Y-11213484D02*
X13584206Y-11213484D01*
X13584206Y-11213484D02*
X13565158Y-11203960D01*
X13565158Y-11203960D02*
X13555634Y-11194436D01*
X13755634Y-11013484D02*
X13755634Y-11051579D01*
X13831825Y-11013484D02*
X13831825Y-11051579D01*
X14127063Y-11289674D02*
X14117539Y-11280150D01*
X14117539Y-11280150D02*
X14098491Y-11251579D01*
X14098491Y-11251579D02*
X14088968Y-11232531D01*
X14088968Y-11232531D02*
X14079444Y-11203960D01*
X14079444Y-11203960D02*
X14069920Y-11156341D01*
X14069920Y-11156341D02*
X14069920Y-11118246D01*
X14069920Y-11118246D02*
X14079444Y-11070627D01*
X14079444Y-11070627D02*
X14088968Y-11042055D01*
X14088968Y-11042055D02*
X14098491Y-11023008D01*
X14098491Y-11023008D02*
X14117539Y-10994436D01*
X14117539Y-10994436D02*
X14127063Y-10984912D01*
X14288968Y-11080150D02*
X14288968Y-11213484D01*
X14241348Y-11003960D02*
X14193729Y-11146817D01*
X14193729Y-11146817D02*
X14317539Y-11146817D01*
X14546110Y-11213484D02*
X14546110Y-11013484D01*
X14631825Y-11213484D02*
X14631825Y-11108722D01*
X14631825Y-11108722D02*
X14622301Y-11089674D01*
X14622301Y-11089674D02*
X14603253Y-11080150D01*
X14603253Y-11080150D02*
X14574682Y-11080150D01*
X14574682Y-11080150D02*
X14555634Y-11089674D01*
X14555634Y-11089674D02*
X14546110Y-11099198D01*
X14755634Y-11213484D02*
X14736587Y-11203960D01*
X14736587Y-11203960D02*
X14727063Y-11194436D01*
X14727063Y-11194436D02*
X14717539Y-11175389D01*
X14717539Y-11175389D02*
X14717539Y-11118246D01*
X14717539Y-11118246D02*
X14727063Y-11099198D01*
X14727063Y-11099198D02*
X14736587Y-11089674D01*
X14736587Y-11089674D02*
X14755634Y-11080150D01*
X14755634Y-11080150D02*
X14784206Y-11080150D01*
X14784206Y-11080150D02*
X14803253Y-11089674D01*
X14803253Y-11089674D02*
X14812777Y-11099198D01*
X14812777Y-11099198D02*
X14822301Y-11118246D01*
X14822301Y-11118246D02*
X14822301Y-11175389D01*
X14822301Y-11175389D02*
X14812777Y-11194436D01*
X14812777Y-11194436D02*
X14803253Y-11203960D01*
X14803253Y-11203960D02*
X14784206Y-11213484D01*
X14784206Y-11213484D02*
X14755634Y-11213484D01*
X14936587Y-11213484D02*
X14917539Y-11203960D01*
X14917539Y-11203960D02*
X14908015Y-11184912D01*
X14908015Y-11184912D02*
X14908015Y-11013484D01*
X15088968Y-11203960D02*
X15069920Y-11213484D01*
X15069920Y-11213484D02*
X15031825Y-11213484D01*
X15031825Y-11213484D02*
X15012777Y-11203960D01*
X15012777Y-11203960D02*
X15003253Y-11184912D01*
X15003253Y-11184912D02*
X15003253Y-11108722D01*
X15003253Y-11108722D02*
X15012777Y-11089674D01*
X15012777Y-11089674D02*
X15031825Y-11080150D01*
X15031825Y-11080150D02*
X15069920Y-11080150D01*
X15069920Y-11080150D02*
X15088968Y-11089674D01*
X15088968Y-11089674D02*
X15098491Y-11108722D01*
X15098491Y-11108722D02*
X15098491Y-11127770D01*
X15098491Y-11127770D02*
X15003253Y-11146817D01*
X15174682Y-11203960D02*
X15193730Y-11213484D01*
X15193730Y-11213484D02*
X15231825Y-11213484D01*
X15231825Y-11213484D02*
X15250872Y-11203960D01*
X15250872Y-11203960D02*
X15260396Y-11184912D01*
X15260396Y-11184912D02*
X15260396Y-11175389D01*
X15260396Y-11175389D02*
X15250872Y-11156341D01*
X15250872Y-11156341D02*
X15231825Y-11146817D01*
X15231825Y-11146817D02*
X15203253Y-11146817D01*
X15203253Y-11146817D02*
X15184206Y-11137293D01*
X15184206Y-11137293D02*
X15174682Y-11118246D01*
X15174682Y-11118246D02*
X15174682Y-11108722D01*
X15174682Y-11108722D02*
X15184206Y-11089674D01*
X15184206Y-11089674D02*
X15203253Y-11080150D01*
X15203253Y-11080150D02*
X15231825Y-11080150D01*
X15231825Y-11080150D02*
X15250872Y-11089674D01*
X15327063Y-11289674D02*
X15336587Y-11280150D01*
X15336587Y-11280150D02*
X15355634Y-11251579D01*
X15355634Y-11251579D02*
X15365158Y-11232531D01*
X15365158Y-11232531D02*
X15374682Y-11203960D01*
X15374682Y-11203960D02*
X15384206Y-11156341D01*
X15384206Y-11156341D02*
X15384206Y-11118246D01*
X15384206Y-11118246D02*
X15374682Y-11070627D01*
X15374682Y-11070627D02*
X15365158Y-11042055D01*
X15365158Y-11042055D02*
X15355634Y-11023008D01*
X15355634Y-11023008D02*
X15336587Y-10994436D01*
X15336587Y-10994436D02*
X15327063Y-10984912D01*
M02*
