M48
; DRILL file {KiCad 7.0.5} date Sat Nov  4 20:07:05 2023
; FORMAT={-:-/ absolute / inch / decimal}
; #@! TF.CreationDate,2023-11-04T20:07:05-04:00
; #@! TF.GenerationSoftware,Kicad,Pcbnew,7.0.5
; #@! TF.FileFunction,Plated,1,4,PTH
FMAT,2
INCH
; #@! TA.AperFunction,Plated,PTH,ViaDrill
T1C0.0157
; #@! TA.AperFunction,Plated,PTH,ComponentDrill
T2C0.0394
; #@! TA.AperFunction,Plated,PTH,ComponentDrill
T3C0.0512
; #@! TA.AperFunction,Plated,PTH,ComponentDrill
T4C0.0591
; #@! TA.AperFunction,Plated,PTH,ComponentDrill
T5C0.0630
; #@! TA.AperFunction,Plated,PTH,ComponentDrill
T6C0.1063
%
G90
G05
T1
X4.2Y-2.86
X4.2496Y-2.8021
X4.2651Y-2.6862
X4.29Y-2.87
X4.3501Y-2.8484
X4.36Y-2.7877
X4.38Y-3.5693
X4.4207Y-2.6641
X4.4329Y-3.45
X4.4561Y-2.8208
X4.477Y-3.386
X4.4848Y-2.5427
X4.49Y-2.96
X4.5028Y-3.0909
X4.5031Y-3.1815
X4.5157Y-3.5185
X4.5234Y-2.8584
X4.5422Y-2.7491
X4.5433Y-2.631
X4.5449Y-3.0748
X4.5516Y-3.1815
X4.5709Y-3.364
X4.5758Y-2.5705
X4.5764Y-3.4313
X4.5863Y-2.9323
X4.5918Y-3.0748
X4.5985Y-3.2701
X4.6028Y-3.1819
X4.6029Y-3.5494
X4.6304Y-2.7212
X4.6304Y-2.8089
X4.6338Y-3.4765
X4.6349Y-2.6078
X4.6388Y-3.0748
X4.6449Y-3.1819
X4.6636Y-3.3463
X4.6835Y-2.7005
X4.6857Y-3.0748
X4.6918Y-3.1819
X4.6989Y-2.5085
X4.7044Y-2.8208
X4.7326Y-3.0748
X4.7376Y-3.5207
X4.7387Y-2.9345
X4.7388Y-3.1819
X4.7409Y-3.4401
X4.7784Y-3.2469
X4.7784Y-3.3364
X4.7795Y-3.0748
X4.7795Y-2.6321
X4.7857Y-3.1819
X4.81Y-2.84
X4.8148Y-3.5417
X4.8264Y-3.0748
X4.8303Y-2.7171
X4.8326Y-3.1819
X4.8612Y-2.9312
X4.8711Y-2.5228
X4.8722Y-3.4092
X4.8733Y-3.0748
X4.8795Y-3.1819
X4.8811Y-2.6531
X4.8855Y-3.3209
X4.8954Y-2.7646
X4.9142Y-3.0756
X4.9164Y-2.5912
X4.9264Y-3.1819
X4.9462Y-3.503
X4.9484Y-3.3915
X4.96Y-2.9
X4.961Y-3.0764
X4.97Y-2.72
X4.9733Y-3.1819
X4.9925Y-3.0177
X4.998Y-2.5457
X5.0024Y-3.0988
X5.0058Y-3.3032
X5.0126Y-3.1583
X5.0345Y-3.4291
X5.0472Y-3.0988
X5.0606Y-3.1579
X5.104Y-2.5109
X5.1094Y-3.0413
X5.12Y-2.72
X5.1261Y-3.2701
X5.2Y-2.7493
X5.2033Y-2.549
X5.2102Y-3.2063
X5.2173Y-2.9457
X5.237Y-3.0913
X5.237Y-3.165
X5.2563Y-2.7857
X5.2701Y-3.1862
X5.2807Y-2.8926
X5.2944Y-2.501
X5.3005Y-3.3043
X5.3005Y-3.4258
X5.3087Y-3.1799
X5.3292Y-3.2503
X5.3362Y-3.0602
X5.3469Y-3.5494
X5.3508Y-3.0035
X5.352Y-3.1638
X5.3831Y-3.0602
X5.3955Y-2.7259
X5.3989Y-3.1638
X5.3999Y-3.3971
X5.43Y-3.0602
X5.4319Y-2.4875
X5.4458Y-3.1638
X5.45Y-2.95
X5.454Y-3.2823
X5.4598Y-2.5823
X5.4769Y-3.0602
X5.4849Y-3.4523
X5.4927Y-3.1638
X5.5Y-2.85
X5.5003Y-3.5362
X5.5069Y-3.3617
X5.5238Y-3.0602
X5.5397Y-3.1638
X5.55Y-2.55
X5.55Y-2.95
X5.5708Y-3.0602
X5.5721Y-3.2701
X5.5853Y-2.4687
X5.5866Y-3.1638
X5.5975Y-3.4236
X5.6177Y-3.0602
X5.6335Y-3.1638
X5.6361Y-3.3386
X5.6482Y-3.5141
X5.65Y-2.8
X5.65Y-2.9
X5.6646Y-3.0602
X5.6804Y-3.1638
X5.7Y-2.5
X5.7Y-2.65
X5.7001Y-3.3971
X5.7112Y-3.2657
X5.7264Y-3.1657
X5.75Y-2.8
X5.75Y-2.9
X5.7685Y-3.1665
X5.7791Y-3.1
X5.7807Y-3.4776
X5.7951Y-2.6983
X5.7984Y-3.3805
X5.8165Y-3.1673
X5.8249Y-2.5659
X5.8252Y-3.1016
X5.85Y-2.85
X5.8867Y-2.9489
X5.8999Y-2.7005
X5.9893Y-2.78
X6.018Y-2.9003
T2
X5.1976Y-3.5307
T3
X5.0485Y-2.6449
X5.2454Y-2.6449
T4
X4.3372Y-3.137
X5.9837Y-3.137
T5
X4.2372Y-3.037
X4.2372Y-3.237
X4.4372Y-3.037
X4.4372Y-3.237
X5.8837Y-3.037
X5.8837Y-3.237
X6.0837Y-3.037
X6.0837Y-3.237
T6
X4.2925Y-2.5394
X4.2925Y-3.4535
X6.0307Y-2.5394
X6.0307Y-3.4535
T0
M30
