%TF.GenerationSoftware,KiCad,Pcbnew,7.0.5*%
%TF.CreationDate,2023-11-05T09:22:56-05:00*%
%TF.ProjectId,radio,72616469-6f2e-46b6-9963-61645f706362,rev?*%
%TF.SameCoordinates,Original*%
%TF.FileFunction,Copper,L1,Top*%
%TF.FilePolarity,Positive*%
%FSLAX46Y46*%
G04 Gerber Fmt 4.6, Leading zero omitted, Abs format (unit mm)*
G04 Created by KiCad (PCBNEW 7.0.5) date 2023-11-05 09:22:56*
%MOMM*%
%LPD*%
G01*
G04 APERTURE LIST*
G04 Aperture macros list*
%AMRoundRect*
0 Rectangle with rounded corners*
0 $1 Rounding radius*
0 $2 $3 $4 $5 $6 $7 $8 $9 X,Y pos of 4 corners*
0 Add a 4 corners polygon primitive as box body*
4,1,4,$2,$3,$4,$5,$6,$7,$8,$9,$2,$3,0*
0 Add four circle primitives for the rounded corners*
1,1,$1+$1,$2,$3*
1,1,$1+$1,$4,$5*
1,1,$1+$1,$6,$7*
1,1,$1+$1,$8,$9*
0 Add four rect primitives between the rounded corners*
20,1,$1+$1,$2,$3,$4,$5,0*
20,1,$1+$1,$4,$5,$6,$7,0*
20,1,$1+$1,$6,$7,$8,$9,0*
20,1,$1+$1,$8,$9,$2,$3,0*%
G04 Aperture macros list end*
%TA.AperFunction,SMDPad,CuDef*%
%ADD10R,0.930000X0.810000*%
%TD*%
%TA.AperFunction,ComponentPad*%
%ADD11R,1.700000X1.700000*%
%TD*%
%TA.AperFunction,ComponentPad*%
%ADD12O,1.700000X1.700000*%
%TD*%
%TA.AperFunction,SMDPad,CuDef*%
%ADD13RoundRect,0.237500X-0.237500X0.250000X-0.237500X-0.250000X0.237500X-0.250000X0.237500X0.250000X0*%
%TD*%
%TA.AperFunction,SMDPad,CuDef*%
%ADD14RoundRect,0.237500X0.237500X-0.250000X0.237500X0.250000X-0.237500X0.250000X-0.237500X-0.250000X0*%
%TD*%
%TA.AperFunction,SMDPad,CuDef*%
%ADD15RoundRect,0.237500X0.237500X-0.300000X0.237500X0.300000X-0.237500X0.300000X-0.237500X-0.300000X0*%
%TD*%
%TA.AperFunction,ComponentPad*%
%ADD16R,2.250000X2.250000*%
%TD*%
%TA.AperFunction,ComponentPad*%
%ADD17C,2.400000*%
%TD*%
%TA.AperFunction,SMDPad,CuDef*%
%ADD18R,0.650000X1.050000*%
%TD*%
%TA.AperFunction,SMDPad,CuDef*%
%ADD19R,0.600000X0.800000*%
%TD*%
%TA.AperFunction,SMDPad,CuDef*%
%ADD20RoundRect,0.237500X0.250000X0.237500X-0.250000X0.237500X-0.250000X-0.237500X0.250000X-0.237500X0*%
%TD*%
%TA.AperFunction,SMDPad,CuDef*%
%ADD21RoundRect,0.237500X0.300000X0.237500X-0.300000X0.237500X-0.300000X-0.237500X0.300000X-0.237500X0*%
%TD*%
%TA.AperFunction,SMDPad,CuDef*%
%ADD22R,0.800000X0.350000*%
%TD*%
%TA.AperFunction,SMDPad,CuDef*%
%ADD23R,0.350000X0.800000*%
%TD*%
%TA.AperFunction,SMDPad,CuDef*%
%ADD24R,4.800000X4.800000*%
%TD*%
%TA.AperFunction,ComponentPad*%
%ADD25R,1.650000X1.650000*%
%TD*%
%TA.AperFunction,ComponentPad*%
%ADD26C,1.650000*%
%TD*%
%TA.AperFunction,ViaPad*%
%ADD27C,0.800000*%
%TD*%
%TA.AperFunction,Conductor*%
%ADD28C,0.203200*%
%TD*%
%TA.AperFunction,Conductor*%
%ADD29C,0.250000*%
%TD*%
%TA.AperFunction,Conductor*%
%ADD30C,0.348996*%
%TD*%
G04 APERTURE END LIST*
D10*
%TO.P,D2,A*%
%TO.N,Antenna_State*%
X127203200Y-72774400D03*
%TO.P,D2,C*%
%TO.N,Net-(D2-PadC)*%
X127203200Y-74394400D03*
%TD*%
D11*
%TO.P,J2,1,Pin_1*%
%TO.N,Net-(J2-Pin_1)*%
X105079800Y-90119200D03*
D12*
%TO.P,J2,2,Pin_2*%
%TO.N,Net-(J2-Pin_2)*%
X105079800Y-87579200D03*
%TO.P,J2,3,Pin_3*%
%TO.N,Net-(J2-Pin_3)*%
X105079800Y-85039200D03*
%TO.P,J2,4,Pin_4*%
%TO.N,Net-(J2-Pin_4)*%
X105079800Y-82499200D03*
%TD*%
D11*
%TO.P,J3,1,Pin_1*%
%TO.N,Antenna_State*%
X107264200Y-74091800D03*
%TD*%
D13*
%TO.P,R3,1*%
%TO.N,GND*%
X125323600Y-72671900D03*
%TO.P,R3,2*%
%TO.N,Net-(D1-PadC)*%
X125323600Y-74496900D03*
%TD*%
D14*
%TO.P,R2,1*%
%TO.N,+3.3V*%
X137464800Y-75310200D03*
%TO.P,R2,2*%
%TO.N,Net-(U1-~{RESET})*%
X137464800Y-73485200D03*
%TD*%
D15*
%TO.P,C7,1*%
%TO.N,+3.3V*%
X110159800Y-82371100D03*
%TO.P,C7,2*%
%TO.N,GND*%
X110159800Y-80646100D03*
%TD*%
D16*
%TO.P,J6,1,1*%
%TO.N,Power_Amp_In*%
X119964200Y-98806000D03*
D17*
%TO.P,J6,2,2*%
%TO.N,GND*%
X122504200Y-96266000D03*
%TO.P,J6,3,3*%
X117424200Y-96266000D03*
%TO.P,J6,4,4*%
X117424200Y-101346000D03*
%TO.P,J6,5,5*%
X122504200Y-101346000D03*
%TD*%
D15*
%TO.P,C5,1*%
%TO.N,+3.3V*%
X113360200Y-82371100D03*
%TO.P,C5,2*%
%TO.N,GND*%
X113360200Y-80646100D03*
%TD*%
D18*
%TO.P,S1,1,1*%
%TO.N,Net-(U1-~{RESET})*%
X131665400Y-75405900D03*
%TO.P,S1,2,2*%
X131665400Y-71255900D03*
%TO.P,S1,3,3*%
%TO.N,GND*%
X133815400Y-75405900D03*
%TO.P,S1,4,4*%
X133815400Y-71255900D03*
%TD*%
D19*
%TO.P,Y1,1,GND*%
%TO.N,GND*%
X127620600Y-82583900D03*
%TO.P,Y1,2,GND*%
X125820600Y-82583900D03*
%TO.P,Y1,3,OUTPUT*%
%TO.N,Net-(Y1-OUTPUT)*%
X125820600Y-83783900D03*
%TO.P,Y1,4,+VCC*%
%TO.N,+3.3V*%
X127620600Y-83783900D03*
%TD*%
D10*
%TO.P,D1,A*%
%TO.N,+3.3V*%
X123342400Y-72749000D03*
%TO.P,D1,C*%
%TO.N,Net-(D1-PadC)*%
X123342400Y-74369000D03*
%TD*%
D20*
%TO.P,R1,1*%
%TO.N,Net-(Y1-OUTPUT)*%
X124305700Y-83793500D03*
%TO.P,R1,2*%
%TO.N,Net-(U1-XTA)*%
X122480700Y-83793500D03*
%TD*%
D15*
%TO.P,C6,1*%
%TO.N,+3.3V*%
X111785400Y-82371100D03*
%TO.P,C6,2*%
%TO.N,GND*%
X111785400Y-80646100D03*
%TD*%
D16*
%TO.P,J5,1,1*%
%TO.N,LNA_OUTPUT*%
X135940800Y-87579200D03*
D17*
%TO.P,J5,2,2*%
%TO.N,GND*%
X133400800Y-85039200D03*
%TO.P,J5,3,3*%
X133400800Y-90119200D03*
%TO.P,J5,4,4*%
X138480800Y-90119200D03*
%TO.P,J5,5,5*%
X138480800Y-85039200D03*
%TD*%
D21*
%TO.P,C2,1*%
%TO.N,Net-(U1-VR_PA)*%
X116153100Y-91160600D03*
%TO.P,C2,2*%
%TO.N,GND*%
X114428100Y-91160600D03*
%TD*%
D15*
%TO.P,C1,1*%
%TO.N,Net-(Y1-OUTPUT)*%
X124282200Y-82065200D03*
%TO.P,C1,2*%
%TO.N,GND*%
X124282200Y-80340200D03*
%TD*%
D22*
%TO.P,U1,1,RFI_LF*%
%TO.N,LNA_OUTPUT*%
X121033800Y-87573400D03*
%TO.P,U1,2,VR_ANA*%
%TO.N,Net-(U1-VR_ANA)*%
X121033800Y-86923400D03*
%TO.P,U1,3,VBAT_ANA*%
%TO.N,+3.3V*%
X121033800Y-86273400D03*
%TO.P,U1,4,VR_DIG*%
%TO.N,Net-(U1-VR_DIG)*%
X121033800Y-85623400D03*
%TO.P,U1,5,XTA*%
%TO.N,Net-(U1-XTA)*%
X121033800Y-84973400D03*
%TO.P,U1,6,XTB*%
%TO.N,unconnected-(U1-XTB-Pad6)*%
X121033800Y-84323400D03*
%TO.P,U1,7,~{RESET}*%
%TO.N,Net-(U1-~{RESET})*%
X121033800Y-83673400D03*
D23*
%TO.P,U1,8,DIO0*%
%TO.N,/DIO0*%
X119983800Y-82623400D03*
%TO.P,U1,9,DIO1/DCLK*%
%TO.N,/DIO1*%
X119333800Y-82623400D03*
%TO.P,U1,10,DIO2/DATA*%
%TO.N,/DIO2*%
X118683800Y-82623400D03*
%TO.P,U1,11,DIO3*%
%TO.N,/DIO3*%
X118033800Y-82623400D03*
%TO.P,U1,12,DIO4*%
%TO.N,/DIO4*%
X117383800Y-82623400D03*
%TO.P,U1,13,DIO5*%
%TO.N,/DIO5*%
X116733800Y-82623400D03*
%TO.P,U1,14,VBAT_DIG*%
%TO.N,+3.3V*%
X116083800Y-82623400D03*
D22*
%TO.P,U1,15,GND*%
%TO.N,GND*%
X115033800Y-83673400D03*
%TO.P,U1,16,SCK*%
%TO.N,Net-(J2-Pin_4)*%
X115033800Y-84323400D03*
%TO.P,U1,17,MISO*%
%TO.N,Net-(J2-Pin_3)*%
X115033800Y-84973400D03*
%TO.P,U1,18,MOSI*%
%TO.N,Net-(J2-Pin_2)*%
X115033800Y-85623400D03*
%TO.P,U1,19,~{SS}*%
%TO.N,Net-(J2-Pin_1)*%
X115033800Y-86273400D03*
%TO.P,U1,20,RXTX/RFMOD*%
%TO.N,Antenna_State*%
X115033800Y-86923400D03*
%TO.P,U1,21,GND*%
%TO.N,GND*%
X115033800Y-87573400D03*
D23*
%TO.P,U1,22,GND*%
X116083800Y-88623400D03*
%TO.P,U1,23,GND*%
X116733800Y-88623400D03*
%TO.P,U1,24,VBAT_RF*%
%TO.N,+3.3V*%
X117383800Y-88623400D03*
%TO.P,U1,25,VR_PA*%
%TO.N,Net-(U1-VR_PA)*%
X118033800Y-88623400D03*
%TO.P,U1,26,GND*%
%TO.N,GND*%
X118683800Y-88623400D03*
%TO.P,U1,27,PA_BOOST*%
%TO.N,unconnected-(U1-PA_BOOST-Pad27)*%
X119333800Y-88623400D03*
%TO.P,U1,28,RFO_LF*%
%TO.N,Power_Amp_In*%
X119983800Y-88623400D03*
D24*
%TO.P,U1,29,EXP*%
%TO.N,GND*%
X118033800Y-85623400D03*
%TD*%
D15*
%TO.P,C3,1*%
%TO.N,Net-(U1-VR_DIG)*%
X122758200Y-79958100D03*
%TO.P,C3,2*%
%TO.N,GND*%
X122758200Y-78233100D03*
%TD*%
%TO.P,C4,1*%
%TO.N,Net-(U1-VR_ANA)*%
X121081800Y-79932700D03*
%TO.P,C4,2*%
%TO.N,GND*%
X121081800Y-78207700D03*
%TD*%
D11*
%TO.P,J1,1,Pin_1*%
%TO.N,/DIO0*%
X101015800Y-80314800D03*
D12*
%TO.P,J1,2,Pin_2*%
%TO.N,/DIO1*%
X101015800Y-82854800D03*
%TO.P,J1,3,Pin_3*%
%TO.N,/DIO2*%
X101015800Y-85394800D03*
%TO.P,J1,4,Pin_4*%
%TO.N,/DIO3*%
X101015800Y-87934800D03*
%TO.P,J1,5,Pin_5*%
%TO.N,/DIO4*%
X101015800Y-90474800D03*
%TO.P,J1,6,Pin_6*%
%TO.N,/DIO5*%
X101015800Y-93014800D03*
%TD*%
D25*
%TO.P,J4,01,01*%
%TO.N,+3.3V*%
X118849300Y-70993000D03*
D26*
%TO.P,J4,02,02*%
%TO.N,GND*%
X113849300Y-70993000D03*
%TD*%
D13*
%TO.P,R4,1*%
%TO.N,GND*%
X128930400Y-72697300D03*
%TO.P,R4,2*%
%TO.N,Net-(D2-PadC)*%
X128930400Y-74522300D03*
%TD*%
D27*
%TO.N,GND*%
X128828800Y-86817200D03*
X129540000Y-94488000D03*
X129032000Y-89916000D03*
X131394200Y-86817200D03*
X130073400Y-86817200D03*
X112268000Y-92456000D03*
X100076000Y-71628000D03*
X110744000Y-102616000D03*
X131064000Y-100584000D03*
X111760000Y-90932000D03*
X120777000Y-90792300D03*
X130556000Y-79248000D03*
X126263400Y-86817200D03*
X120777000Y-93256100D03*
X134620000Y-95504000D03*
X107696000Y-90932000D03*
X120980200Y-88442800D03*
X127000000Y-101092000D03*
X139018507Y-70787274D03*
X105156000Y-76708000D03*
X112776000Y-96520000D03*
X103632000Y-98044000D03*
X102108000Y-96520000D03*
X114300000Y-88900000D03*
X132842000Y-86817200D03*
X136652000Y-93472000D03*
X133096000Y-80264000D03*
X135128000Y-97536000D03*
X125831600Y-81355100D03*
X140208000Y-74168000D03*
X135082844Y-78731483D03*
X114808000Y-95504000D03*
X117856000Y-76708000D03*
X138176000Y-79248000D03*
X112776000Y-98552000D03*
X120777000Y-95719900D03*
X120777000Y-89560400D03*
X124714000Y-71755000D03*
X105156000Y-100076000D03*
X108712000Y-98044000D03*
X132816600Y-88442800D03*
X114808000Y-92964000D03*
X128803400Y-82574300D03*
X119227600Y-93306900D03*
X123469400Y-88442800D03*
X116840000Y-92964000D03*
X137160000Y-80264000D03*
X122224800Y-88442800D03*
X106172000Y-98044000D03*
X119227600Y-95770700D03*
X135255000Y-71425900D03*
X119227600Y-90843100D03*
X129032000Y-78232000D03*
X134620000Y-101092000D03*
X111252000Y-94488000D03*
X114808000Y-100076000D03*
X124790200Y-88442800D03*
X135229600Y-76277300D03*
X113792000Y-76708000D03*
X120777000Y-96951800D03*
X124815600Y-86817200D03*
X127508000Y-97536000D03*
X131572000Y-97536000D03*
X107188000Y-99568000D03*
X99568000Y-96012000D03*
X131368800Y-88442800D03*
X127584200Y-86817200D03*
X108712000Y-94488000D03*
X119227600Y-89611200D03*
X114935000Y-82677000D03*
X109220000Y-88900000D03*
X104140000Y-102108000D03*
X127508000Y-80264000D03*
X138176000Y-96520000D03*
X130048000Y-88442800D03*
X100076000Y-75184000D03*
X124460000Y-91948000D03*
X120777000Y-92024200D03*
X100076000Y-98552000D03*
X104648000Y-96012000D03*
X132588000Y-93472000D03*
X125984000Y-93980000D03*
X110236000Y-92456000D03*
X135128000Y-81280000D03*
X126238000Y-88442800D03*
X125552200Y-80161300D03*
X119227600Y-97002600D03*
X102108000Y-100076000D03*
X113284000Y-94488000D03*
X110744000Y-97536000D03*
X107460319Y-76490342D03*
X100076000Y-101092000D03*
X107696000Y-102108000D03*
X128803400Y-88442800D03*
X103632000Y-70612000D03*
X125984000Y-89916000D03*
X137160000Y-99568000D03*
X128016000Y-91948000D03*
X111013348Y-76781872D03*
X119227600Y-94538800D03*
X107188000Y-96012000D03*
X101600000Y-102616000D03*
X109728000Y-100076000D03*
X131572000Y-81788000D03*
X129311700Y-71526700D03*
X122936000Y-89916000D03*
X110744000Y-87884000D03*
X112776000Y-101092000D03*
X119227600Y-92075000D03*
X109728000Y-96012000D03*
X101611486Y-73684360D03*
X114808000Y-97536000D03*
X120777000Y-94488000D03*
X127558800Y-88442800D03*
%TO.N,Net-(U1-VR_DIG)*%
X122503519Y-85051400D03*
X121818400Y-81203800D03*
%TO.N,Net-(U1-VR_ANA)*%
X123952000Y-85344000D03*
X120611900Y-80924400D03*
%TO.N,+3.3V*%
X112649000Y-83566000D03*
X122174000Y-73152000D03*
X139192000Y-75692000D03*
X108458000Y-81661000D03*
X109093000Y-83566000D03*
X115316000Y-81661000D03*
X122123200Y-86308100D03*
X116789200Y-89916000D03*
X128879600Y-83869700D03*
%TO.N,Antenna_State*%
X126492000Y-71501000D03*
X113741200Y-87071200D03*
%TO.N,/DIO0*%
X119634000Y-78613000D03*
%TO.N,/DIO1*%
X119316155Y-79483277D03*
%TO.N,/DIO2*%
X118831598Y-80316858D03*
%TO.N,/DIO3*%
X117905121Y-80310031D03*
%TO.N,/DIO4*%
X116967000Y-80765100D03*
%TO.N,/DIO5*%
X116755700Y-81764312D03*
%TO.N,Net-(U1-~{RESET})*%
X134391400Y-73534100D03*
X120904000Y-82499200D03*
%TD*%
D28*
%TO.N,Net-(Y1-OUTPUT)*%
X124305700Y-82088700D02*
X124282200Y-82065200D01*
X124305700Y-83793500D02*
X124305700Y-82088700D01*
X124305700Y-83793500D02*
X125811000Y-83793500D01*
X125811000Y-83793500D02*
X125820600Y-83783900D01*
%TO.N,GND*%
X118683800Y-86273400D02*
X118033800Y-85623400D01*
X128930400Y-71908000D02*
X128930400Y-72697300D01*
X115078800Y-87573400D02*
X116083800Y-87573400D01*
X125820600Y-81366100D02*
X125831600Y-81355100D01*
D29*
X114300000Y-88900000D02*
X114576600Y-88623400D01*
D28*
X124714000Y-71755000D02*
X125323600Y-72364600D01*
X115033800Y-83673400D02*
X115033800Y-82775800D01*
X125373300Y-80340200D02*
X125552200Y-80161300D01*
X115033800Y-82775800D02*
X114935000Y-82677000D01*
X125323600Y-72364600D02*
X125323600Y-72671900D01*
D29*
X116733800Y-88623400D02*
X116083800Y-88623400D01*
D28*
X135085000Y-71255900D02*
X135255000Y-71425900D01*
D29*
X114576600Y-88623400D02*
X116083800Y-88623400D01*
D28*
X127620600Y-82583900D02*
X128793800Y-82583900D01*
X116733800Y-88578400D02*
X116733800Y-86923400D01*
X115033800Y-83673400D02*
X116083800Y-83673400D01*
X116733800Y-88904600D02*
X116733800Y-88578400D01*
X116083800Y-88578400D02*
X116083800Y-87573400D01*
D29*
X115033800Y-88166200D02*
X114300000Y-88900000D01*
D28*
X133815400Y-71255900D02*
X135085000Y-71255900D01*
D29*
X115033800Y-87573400D02*
X115033800Y-88166200D01*
D28*
X125820600Y-82583900D02*
X125820600Y-81366100D01*
X118683800Y-88578400D02*
X118683800Y-86273400D01*
X124282200Y-80340200D02*
X125373300Y-80340200D01*
X129311700Y-71526700D02*
X128930400Y-71908000D01*
X116083800Y-87573400D02*
X118033800Y-85623400D01*
X116083800Y-83673400D02*
X118033800Y-85623400D01*
X128793800Y-82583900D02*
X128803400Y-82574300D01*
X116733800Y-86923400D02*
X118033800Y-85623400D01*
X133815400Y-75405900D02*
X134358200Y-75405900D01*
X134358200Y-75405900D02*
X135229600Y-76277300D01*
%TO.N,Net-(U1-VR_PA)*%
X116153100Y-91160600D02*
X116433575Y-91160600D01*
X118033800Y-89560375D02*
X118033800Y-88578400D01*
X116433575Y-91160600D02*
X118033800Y-89560375D01*
%TO.N,Net-(U1-VR_DIG)*%
X122503519Y-85051400D02*
X121983419Y-85571500D01*
X121065000Y-85547200D02*
X120988800Y-85623400D01*
X121983419Y-85571500D02*
X121065000Y-85571500D01*
X122758200Y-79958100D02*
X122758200Y-80264000D01*
X122758200Y-80264000D02*
X121818400Y-81203800D01*
%TO.N,Net-(U1-VR_ANA)*%
X121047100Y-86936700D02*
X121033800Y-86923400D01*
X123952000Y-86360000D02*
X123375300Y-86936700D01*
X123952000Y-85344000D02*
X123952000Y-86360000D01*
X123375300Y-86936700D02*
X121047100Y-86936700D01*
X121081800Y-80454500D02*
X121081800Y-79932700D01*
X120611900Y-80924400D02*
X121081800Y-80454500D01*
%TO.N,+3.3V*%
X117383800Y-88578400D02*
X117383800Y-89321400D01*
X110159800Y-82371100D02*
X109168100Y-82371100D01*
X116083800Y-82428800D02*
X115316000Y-81661000D01*
X122112800Y-86297700D02*
X122123200Y-86308100D01*
X111785400Y-82371100D02*
X110590500Y-83566000D01*
X117383800Y-89321400D02*
X116789200Y-89916000D01*
X122174000Y-73152000D02*
X122577000Y-72749000D01*
X110590500Y-83566000D02*
X109093000Y-83566000D01*
X120988800Y-86297700D02*
X122112800Y-86297700D01*
D29*
X139192000Y-75692000D02*
X137846600Y-75692000D01*
D28*
X109168100Y-82371100D02*
X108458000Y-81661000D01*
D29*
X137846600Y-75692000D02*
X137464800Y-75310200D01*
D28*
X113360200Y-82854800D02*
X112649000Y-83566000D01*
X116083800Y-82623400D02*
X116083800Y-82428800D01*
X127620600Y-83783900D02*
X128793800Y-83783900D01*
X113360200Y-82371100D02*
X113360200Y-82854800D01*
X128793800Y-83783900D02*
X128879600Y-83869700D01*
X122577000Y-72749000D02*
X123342400Y-72749000D01*
%TO.N,Net-(D1-PadC)*%
X125195700Y-74369000D02*
X125323600Y-74496900D01*
X123342400Y-74369000D02*
X125195700Y-74369000D01*
%TO.N,Net-(D2-PadC)*%
X128802500Y-74394400D02*
X128930400Y-74522300D01*
X127203200Y-74394400D02*
X128802500Y-74394400D01*
%TO.N,Antenna_State*%
X127203200Y-72212200D02*
X126492000Y-71501000D01*
X113889000Y-86923400D02*
X113741200Y-87071200D01*
X127203200Y-72774400D02*
X127203200Y-72212200D01*
X115078800Y-86923400D02*
X113889000Y-86923400D01*
%TO.N,/DIO0*%
X119634000Y-78613000D02*
X119983800Y-78962800D01*
X119983800Y-78962800D02*
X119983800Y-82668400D01*
%TO.N,/DIO1*%
X119459698Y-79626820D02*
X119459698Y-82542502D01*
X119316155Y-79483277D02*
X119459698Y-79626820D01*
X119459698Y-82542502D02*
X119333800Y-82668400D01*
%TO.N,/DIO2*%
X118683800Y-80464656D02*
X118683800Y-82668400D01*
X118831598Y-80316858D02*
X118683800Y-80464656D01*
%TO.N,/DIO3*%
X117905121Y-80310031D02*
X118033800Y-80438710D01*
X118033800Y-80438710D02*
X118033800Y-82668400D01*
%TO.N,/DIO4*%
X117383800Y-81181900D02*
X117383800Y-82668400D01*
X116967000Y-80765100D02*
X117383800Y-81181900D01*
%TO.N,/DIO5*%
X116733800Y-81786212D02*
X116733800Y-82668400D01*
X116755700Y-81764312D02*
X116733800Y-81786212D01*
%TO.N,Net-(J2-Pin_1)*%
X115078800Y-86273400D02*
X108925600Y-86273400D01*
X108925600Y-86273400D02*
X105079800Y-90119200D01*
%TO.N,Net-(J2-Pin_2)*%
X115078800Y-85623400D02*
X107035600Y-85623400D01*
X107035600Y-85623400D02*
X105079800Y-87579200D01*
%TO.N,Net-(J2-Pin_3)*%
X115078800Y-84973400D02*
X115013000Y-85039200D01*
X115013000Y-85039200D02*
X105079800Y-85039200D01*
%TO.N,Net-(J2-Pin_4)*%
X106904000Y-84323400D02*
X105079800Y-82499200D01*
X115078800Y-84323400D02*
X106904000Y-84323400D01*
%TO.N,Net-(U1-XTA)*%
X121276500Y-84973400D02*
X120988800Y-84973400D01*
X122480700Y-83793500D02*
X121276500Y-84997700D01*
%TO.N,Net-(U1-~{RESET})*%
X134391400Y-73534100D02*
X133943600Y-73534100D01*
X120988800Y-83673400D02*
X120988800Y-82584000D01*
X137415900Y-73534100D02*
X137464800Y-73485200D01*
X132519600Y-75405900D02*
X131665400Y-75405900D01*
X134391400Y-73534100D02*
X137415900Y-73534100D01*
X134391400Y-73534100D02*
X132519600Y-75405900D01*
X120988800Y-82584000D02*
X120904000Y-82499200D01*
X133943600Y-73534100D02*
X131665400Y-71255900D01*
D30*
%TO.N,Power_Amp_In*%
X119989600Y-88584200D02*
X119989600Y-98755200D01*
X119983800Y-88578400D02*
X119989600Y-88584200D01*
%TO.N,LNA_OUTPUT*%
X135935000Y-87573400D02*
X135940800Y-87579200D01*
X121033800Y-87573400D02*
X135935000Y-87573400D01*
%TD*%
%TA.AperFunction,Conductor*%
%TO.N,GND*%
G36*
X119235118Y-96608136D02*
G01*
X119290622Y-96650576D01*
X119314370Y-96716286D01*
X119314602Y-96723870D01*
X119314602Y-97056500D01*
X119294917Y-97123539D01*
X119242113Y-97169294D01*
X119190602Y-97180500D01*
X119073293Y-97180500D01*
X119006254Y-97160815D01*
X118960499Y-97108011D01*
X118950555Y-97038853D01*
X118959256Y-97010307D01*
X118958447Y-97009990D01*
X119053226Y-96768494D01*
X119053232Y-96768475D01*
X119069711Y-96696278D01*
X119103819Y-96635299D01*
X119165481Y-96602441D01*
X119235118Y-96608136D01*
G37*
%TD.AperFunction*%
%TA.AperFunction,Conductor*%
G36*
X120869801Y-96793599D02*
G01*
X120904026Y-96842010D01*
X120969953Y-97009990D01*
X120968140Y-97010701D01*
X120978182Y-97071618D01*
X120950471Y-97135758D01*
X120892482Y-97174733D01*
X120855107Y-97180500D01*
X120788598Y-97180500D01*
X120721559Y-97160815D01*
X120675804Y-97108011D01*
X120664598Y-97056500D01*
X120664598Y-96887312D01*
X120684283Y-96820273D01*
X120737087Y-96774518D01*
X120806245Y-96764574D01*
X120869801Y-96793599D01*
G37*
%TD.AperFunction*%
%TA.AperFunction,Conductor*%
G36*
X114540902Y-82133131D02*
G01*
X114567086Y-82164844D01*
X114583466Y-82193214D01*
X114583465Y-82193214D01*
X114710129Y-82333888D01*
X114863265Y-82445148D01*
X114863270Y-82445151D01*
X115036192Y-82522142D01*
X115036197Y-82522144D01*
X115221354Y-82561500D01*
X115284300Y-82561500D01*
X115351339Y-82581185D01*
X115397094Y-82633989D01*
X115408300Y-82685500D01*
X115408300Y-82705559D01*
X115388615Y-82772598D01*
X115358611Y-82804825D01*
X115276614Y-82866208D01*
X115276609Y-82866213D01*
X115202817Y-82964786D01*
X115208800Y-82990102D01*
X115208800Y-83523900D01*
X115189115Y-83590939D01*
X115136311Y-83636694D01*
X115084800Y-83647900D01*
X114982800Y-83647900D01*
X114915761Y-83628215D01*
X114870006Y-83575411D01*
X114858800Y-83523900D01*
X114858800Y-82998400D01*
X114585955Y-82998400D01*
X114526427Y-83004801D01*
X114526416Y-83004804D01*
X114470082Y-83025815D01*
X114400390Y-83030799D01*
X114339068Y-82997313D01*
X114305583Y-82935990D01*
X114309044Y-82870631D01*
X114325374Y-82821353D01*
X114335700Y-82720277D01*
X114335699Y-82226843D01*
X114355383Y-82159805D01*
X114408187Y-82114050D01*
X114477346Y-82104106D01*
X114540902Y-82133131D01*
G37*
%TD.AperFunction*%
%TA.AperFunction,Conductor*%
G36*
X113540838Y-69489185D02*
G01*
X113586593Y-69541989D01*
X113596537Y-69611147D01*
X113567512Y-69674703D01*
X113508734Y-69712477D01*
X113505892Y-69713275D01*
X113394399Y-69743148D01*
X113394390Y-69743152D01*
X113184271Y-69841132D01*
X113184269Y-69841133D01*
X113105877Y-69896024D01*
X113105876Y-69896024D01*
X113601765Y-70391913D01*
X113533671Y-70418874D01*
X113400808Y-70515405D01*
X113296125Y-70641945D01*
X113247668Y-70744920D01*
X112752324Y-70249576D01*
X112752324Y-70249577D01*
X112697433Y-70327969D01*
X112697432Y-70327971D01*
X112599452Y-70538090D01*
X112599448Y-70538099D01*
X112539447Y-70762031D01*
X112539445Y-70762041D01*
X112519239Y-70992999D01*
X112519239Y-70993000D01*
X112539445Y-71223958D01*
X112539447Y-71223968D01*
X112599448Y-71447900D01*
X112599452Y-71447909D01*
X112697432Y-71658029D01*
X112697433Y-71658031D01*
X112752323Y-71736422D01*
X112752324Y-71736423D01*
X113246752Y-71241994D01*
X113256488Y-71271956D01*
X113344486Y-71410619D01*
X113464203Y-71523040D01*
X113598810Y-71597041D01*
X113105875Y-72089975D01*
X113184273Y-72144868D01*
X113394390Y-72242847D01*
X113394399Y-72242851D01*
X113618331Y-72302852D01*
X113618341Y-72302854D01*
X113849299Y-72323061D01*
X113849301Y-72323061D01*
X114080258Y-72302854D01*
X114080268Y-72302852D01*
X114304200Y-72242851D01*
X114304209Y-72242847D01*
X114514330Y-72144867D01*
X114592723Y-72089975D01*
X114096834Y-71594086D01*
X114164929Y-71567126D01*
X114297792Y-71470595D01*
X114402475Y-71344055D01*
X114450931Y-71241079D01*
X114946275Y-71736423D01*
X115001167Y-71658030D01*
X115099147Y-71447909D01*
X115099151Y-71447900D01*
X115159152Y-71223968D01*
X115159154Y-71223958D01*
X115179361Y-70993000D01*
X115179361Y-70992999D01*
X115159154Y-70762041D01*
X115159152Y-70762031D01*
X115099151Y-70538099D01*
X115099147Y-70538090D01*
X115001168Y-70327972D01*
X114946274Y-70249576D01*
X114451846Y-70744004D01*
X114442112Y-70714044D01*
X114354114Y-70575381D01*
X114234397Y-70462960D01*
X114099789Y-70388958D01*
X114592723Y-69896024D01*
X114592722Y-69896023D01*
X114514331Y-69841133D01*
X114514329Y-69841132D01*
X114304209Y-69743152D01*
X114304200Y-69743148D01*
X114192708Y-69713275D01*
X114133048Y-69676910D01*
X114102518Y-69614064D01*
X114110812Y-69544688D01*
X114155297Y-69490810D01*
X114221849Y-69469535D01*
X114224801Y-69469500D01*
X117777571Y-69469500D01*
X117844610Y-69489185D01*
X117890365Y-69541989D01*
X117900309Y-69611147D01*
X117871284Y-69674703D01*
X117820904Y-69709682D01*
X117781971Y-69724202D01*
X117781964Y-69724206D01*
X117666755Y-69810452D01*
X117666752Y-69810455D01*
X117580506Y-69925664D01*
X117580502Y-69925671D01*
X117530208Y-70060517D01*
X117523801Y-70120116D01*
X117523801Y-70120123D01*
X117523800Y-70120135D01*
X117523800Y-71865870D01*
X117523801Y-71865876D01*
X117530208Y-71925483D01*
X117580502Y-72060328D01*
X117580506Y-72060335D01*
X117666752Y-72175544D01*
X117666755Y-72175547D01*
X117781964Y-72261793D01*
X117781971Y-72261797D01*
X117916817Y-72312091D01*
X117916816Y-72312091D01*
X117923744Y-72312835D01*
X117976427Y-72318500D01*
X119722172Y-72318499D01*
X119781783Y-72312091D01*
X119916631Y-72261796D01*
X120031846Y-72175546D01*
X120118096Y-72060331D01*
X120168391Y-71925483D01*
X120174800Y-71865873D01*
X120174799Y-70120128D01*
X120168391Y-70060517D01*
X120118096Y-69925669D01*
X120118095Y-69925668D01*
X120118093Y-69925664D01*
X120031847Y-69810455D01*
X120031844Y-69810452D01*
X119916635Y-69724206D01*
X119916628Y-69724202D01*
X119877696Y-69709682D01*
X119821763Y-69667811D01*
X119797345Y-69602347D01*
X119812196Y-69534074D01*
X119861601Y-69484668D01*
X119921029Y-69469500D01*
X140502600Y-69469500D01*
X140569639Y-69489185D01*
X140615394Y-69541989D01*
X140626600Y-69593500D01*
X140626600Y-103609100D01*
X140606915Y-103676139D01*
X140554111Y-103721894D01*
X140502600Y-103733100D01*
X98308200Y-103733100D01*
X98241161Y-103713415D01*
X98195406Y-103660611D01*
X98184200Y-103609100D01*
X98184200Y-93014800D01*
X99660141Y-93014800D01*
X99680736Y-93250203D01*
X99680738Y-93250213D01*
X99741894Y-93478455D01*
X99741896Y-93478459D01*
X99741897Y-93478463D01*
X99841764Y-93692630D01*
X99841765Y-93692630D01*
X99841767Y-93692634D01*
X99950081Y-93847321D01*
X99977305Y-93886201D01*
X100144399Y-94053295D01*
X100241184Y-94121064D01*
X100337965Y-94188832D01*
X100337967Y-94188833D01*
X100337970Y-94188835D01*
X100552137Y-94288703D01*
X100780392Y-94349863D01*
X100968718Y-94366339D01*
X101015799Y-94370459D01*
X101015800Y-94370459D01*
X101015801Y-94370459D01*
X101055034Y-94367026D01*
X101251208Y-94349863D01*
X101479463Y-94288703D01*
X101693630Y-94188835D01*
X101887201Y-94053295D01*
X102054295Y-93886201D01*
X102189835Y-93692630D01*
X102289703Y-93478463D01*
X102350863Y-93250208D01*
X102371459Y-93014800D01*
X102350863Y-92779392D01*
X102289703Y-92551137D01*
X102189835Y-92336971D01*
X102054295Y-92143399D01*
X102054294Y-92143397D01*
X101887202Y-91976306D01*
X101887196Y-91976301D01*
X101701642Y-91846375D01*
X101658017Y-91791798D01*
X101650823Y-91722300D01*
X101682346Y-91659945D01*
X101701642Y-91643225D01*
X101723826Y-91627691D01*
X101887201Y-91513295D01*
X102054295Y-91346201D01*
X102189835Y-91152630D01*
X102289703Y-90938463D01*
X102350863Y-90710208D01*
X102371459Y-90474800D01*
X102350863Y-90239392D01*
X102289703Y-90011137D01*
X102189835Y-89796971D01*
X102141360Y-89727740D01*
X102054294Y-89603397D01*
X101887202Y-89436306D01*
X101887196Y-89436301D01*
X101701642Y-89306375D01*
X101658017Y-89251798D01*
X101650823Y-89182300D01*
X101682346Y-89119945D01*
X101701642Y-89103225D01*
X101770720Y-89054856D01*
X101887201Y-88973295D01*
X102054295Y-88806201D01*
X102189835Y-88612630D01*
X102289703Y-88398463D01*
X102350863Y-88170208D01*
X102371459Y-87934800D01*
X102350863Y-87699392D01*
X102318658Y-87579200D01*
X103724141Y-87579200D01*
X103744736Y-87814603D01*
X103744738Y-87814613D01*
X103805894Y-88042855D01*
X103805896Y-88042859D01*
X103805897Y-88042863D01*
X103875326Y-88191754D01*
X103905765Y-88257030D01*
X103905767Y-88257034D01*
X104041301Y-88450595D01*
X104041306Y-88450602D01*
X104163230Y-88572526D01*
X104196715Y-88633849D01*
X104191731Y-88703541D01*
X104149859Y-88759474D01*
X104118883Y-88776389D01*
X103987469Y-88825403D01*
X103987464Y-88825406D01*
X103872255Y-88911652D01*
X103872252Y-88911655D01*
X103786006Y-89026864D01*
X103786002Y-89026871D01*
X103735708Y-89161717D01*
X103729301Y-89221316D01*
X103729300Y-89221335D01*
X103729300Y-91017070D01*
X103729301Y-91017076D01*
X103735708Y-91076683D01*
X103786002Y-91211528D01*
X103786006Y-91211535D01*
X103872252Y-91326744D01*
X103872255Y-91326747D01*
X103987464Y-91412993D01*
X103987471Y-91412997D01*
X104122317Y-91463291D01*
X104122316Y-91463291D01*
X104129244Y-91464035D01*
X104181927Y-91469700D01*
X105977672Y-91469699D01*
X106037283Y-91463291D01*
X106172131Y-91412996D01*
X106175332Y-91410600D01*
X113390601Y-91410600D01*
X113390601Y-91447254D01*
X113400919Y-91548252D01*
X113455146Y-91711900D01*
X113455151Y-91711911D01*
X113545652Y-91858634D01*
X113545655Y-91858638D01*
X113667561Y-91980544D01*
X113667565Y-91980547D01*
X113814288Y-92071048D01*
X113814299Y-92071053D01*
X113977947Y-92125280D01*
X114078951Y-92135599D01*
X114178100Y-92135598D01*
X114178100Y-91410600D01*
X113390601Y-91410600D01*
X106175332Y-91410600D01*
X106287346Y-91326746D01*
X106373596Y-91211531D01*
X106423891Y-91076683D01*
X106430300Y-91017073D01*
X106430300Y-90910600D01*
X113390600Y-90910600D01*
X114178100Y-90910600D01*
X114178100Y-90185599D01*
X114078960Y-90185600D01*
X114078944Y-90185601D01*
X113977947Y-90195919D01*
X113814299Y-90250146D01*
X113814288Y-90250151D01*
X113667565Y-90340652D01*
X113667561Y-90340655D01*
X113545655Y-90462561D01*
X113545652Y-90462565D01*
X113455151Y-90609288D01*
X113455146Y-90609299D01*
X113400919Y-90772947D01*
X113390600Y-90873945D01*
X113390600Y-90910600D01*
X106430300Y-90910600D01*
X106430299Y-89671558D01*
X106449984Y-89604520D01*
X106466613Y-89583883D01*
X109138678Y-86911819D01*
X109200002Y-86878334D01*
X109226360Y-86875500D01*
X112718593Y-86875500D01*
X112785632Y-86895185D01*
X112831387Y-86947989D01*
X112841913Y-87012459D01*
X112835740Y-87071200D01*
X112855526Y-87259456D01*
X112855527Y-87259459D01*
X112914018Y-87439477D01*
X112914021Y-87439484D01*
X113008667Y-87603416D01*
X113095088Y-87699396D01*
X113135329Y-87744088D01*
X113288465Y-87855348D01*
X113288470Y-87855351D01*
X113461392Y-87932342D01*
X113461397Y-87932344D01*
X113646554Y-87971700D01*
X113646555Y-87971700D01*
X113835844Y-87971700D01*
X113835846Y-87971700D01*
X114021003Y-87932344D01*
X114027298Y-87929540D01*
X114096548Y-87920253D01*
X114159826Y-87949878D01*
X114186572Y-87983392D01*
X114190450Y-87990494D01*
X114276609Y-88105587D01*
X114276612Y-88105590D01*
X114391706Y-88191750D01*
X114391713Y-88191754D01*
X114526420Y-88241996D01*
X114526427Y-88241998D01*
X114585955Y-88248399D01*
X114585972Y-88248400D01*
X114858800Y-88248400D01*
X114858800Y-87722899D01*
X114878485Y-87655860D01*
X114931289Y-87610105D01*
X114982797Y-87598899D01*
X115084801Y-87598899D01*
X115151839Y-87618584D01*
X115197594Y-87671388D01*
X115208800Y-87722899D01*
X115208800Y-88256697D01*
X115202817Y-88282013D01*
X115276609Y-88380586D01*
X115276610Y-88380587D01*
X115375187Y-88454381D01*
X115400501Y-88448400D01*
X116584300Y-88448400D01*
X116651339Y-88468085D01*
X116697094Y-88520889D01*
X116708300Y-88572399D01*
X116708301Y-88674399D01*
X116688617Y-88741438D01*
X116635814Y-88787194D01*
X116584301Y-88798400D01*
X115408800Y-88798400D01*
X115408800Y-89071244D01*
X115415201Y-89130772D01*
X115415203Y-89130779D01*
X115465445Y-89265486D01*
X115465449Y-89265493D01*
X115551609Y-89380587D01*
X115551612Y-89380590D01*
X115666706Y-89466750D01*
X115666713Y-89466754D01*
X115801420Y-89516996D01*
X115814362Y-89518388D01*
X115878914Y-89545125D01*
X115918763Y-89602517D01*
X115921258Y-89672342D01*
X115919040Y-89679996D01*
X115903527Y-89727740D01*
X115903526Y-89727744D01*
X115883740Y-89916000D01*
X115894345Y-90016904D01*
X115897876Y-90050494D01*
X115885306Y-90119223D01*
X115837574Y-90170247D01*
X115787157Y-90186813D01*
X115702847Y-90195426D01*
X115539084Y-90249692D01*
X115539081Y-90249693D01*
X115392248Y-90340261D01*
X115377925Y-90354584D01*
X115316601Y-90388068D01*
X115246909Y-90383082D01*
X115202565Y-90354582D01*
X115188638Y-90340655D01*
X115188634Y-90340652D01*
X115041911Y-90250151D01*
X115041900Y-90250146D01*
X114878252Y-90195919D01*
X114777254Y-90185600D01*
X114678099Y-90185600D01*
X114678100Y-90910600D01*
X114678099Y-92135598D01*
X114678100Y-92135599D01*
X114777240Y-92135599D01*
X114777254Y-92135598D01*
X114878252Y-92125280D01*
X115041900Y-92071053D01*
X115041911Y-92071048D01*
X115188635Y-91980547D01*
X115202560Y-91966621D01*
X115263882Y-91933133D01*
X115333573Y-91938114D01*
X115377927Y-91966617D01*
X115392250Y-91980940D01*
X115539084Y-92071508D01*
X115702847Y-92125774D01*
X115803923Y-92136100D01*
X116502276Y-92136099D01*
X116502284Y-92136098D01*
X116502287Y-92136098D01*
X116557630Y-92130444D01*
X116603353Y-92125774D01*
X116767116Y-92071508D01*
X116913950Y-91980940D01*
X117035940Y-91858950D01*
X117126508Y-91712116D01*
X117180774Y-91548353D01*
X117191100Y-91447277D01*
X117191099Y-91305934D01*
X117210783Y-91238895D01*
X117227413Y-91218258D01*
X118428774Y-90016896D01*
X118434864Y-90011555D01*
X118463222Y-89989797D01*
X118559733Y-89864022D01*
X118620402Y-89717555D01*
X118635900Y-89599835D01*
X118635900Y-89599829D01*
X118637902Y-89584620D01*
X118666165Y-89520725D01*
X118724488Y-89482252D01*
X118794353Y-89481417D01*
X118848522Y-89513122D01*
X118858800Y-89523400D01*
X118906628Y-89523400D01*
X118906644Y-89523399D01*
X118966175Y-89516998D01*
X118973726Y-89515214D01*
X118974115Y-89516862D01*
X119034424Y-89512540D01*
X119051187Y-89517460D01*
X119051311Y-89517488D01*
X119051317Y-89517491D01*
X119110927Y-89523900D01*
X119190603Y-89523899D01*
X119257640Y-89543583D01*
X119303396Y-89596386D01*
X119314602Y-89647899D01*
X119314602Y-95808129D01*
X119294917Y-95875168D01*
X119242113Y-95920923D01*
X119172955Y-95930867D01*
X119109399Y-95901842D01*
X119071625Y-95843064D01*
X119069711Y-95835722D01*
X119053231Y-95763522D01*
X119053226Y-95763505D01*
X118960141Y-95526328D01*
X118960142Y-95526328D01*
X118832744Y-95305671D01*
X118790745Y-95253005D01*
X118140860Y-95902890D01*
X118053623Y-95764052D01*
X117926148Y-95636577D01*
X117787308Y-95549338D01*
X118437385Y-94899261D01*
X118276577Y-94789624D01*
X118276576Y-94789623D01*
X118047023Y-94679078D01*
X118047025Y-94679078D01*
X117803547Y-94603975D01*
X117803541Y-94603973D01*
X117551604Y-94566000D01*
X117296795Y-94566000D01*
X117044858Y-94603973D01*
X117044852Y-94603975D01*
X116801375Y-94679078D01*
X116571824Y-94789623D01*
X116571816Y-94789628D01*
X116411013Y-94899261D01*
X117061091Y-95549338D01*
X116922252Y-95636577D01*
X116794777Y-95764052D01*
X116707538Y-95902891D01*
X116057653Y-95253006D01*
X116015655Y-95305670D01*
X115888258Y-95526328D01*
X115795173Y-95763505D01*
X115795168Y-95763522D01*
X115738473Y-96011920D01*
X115719433Y-96265995D01*
X115719433Y-96266004D01*
X115738473Y-96520079D01*
X115795168Y-96768477D01*
X115795173Y-96768494D01*
X115888258Y-97005671D01*
X115888257Y-97005671D01*
X116015657Y-97226332D01*
X116057652Y-97278993D01*
X116057653Y-97278993D01*
X116707538Y-96629108D01*
X116794777Y-96767948D01*
X116922252Y-96895423D01*
X117061090Y-96982661D01*
X116411013Y-97632737D01*
X116571823Y-97742375D01*
X116571824Y-97742376D01*
X116801376Y-97852921D01*
X116801374Y-97852921D01*
X117044852Y-97928024D01*
X117044858Y-97928026D01*
X117296795Y-97965999D01*
X117296804Y-97966000D01*
X117551596Y-97966000D01*
X117551604Y-97965999D01*
X117803541Y-97928026D01*
X117803547Y-97928024D01*
X118047021Y-97852922D01*
X118160898Y-97798082D01*
X118229839Y-97786730D01*
X118293974Y-97814452D01*
X118332940Y-97872447D01*
X118338700Y-97909802D01*
X118338700Y-99702197D01*
X118319015Y-99769236D01*
X118266211Y-99814991D01*
X118197053Y-99824935D01*
X118160899Y-99813917D01*
X118047023Y-99759078D01*
X118047025Y-99759078D01*
X117803547Y-99683975D01*
X117803541Y-99683973D01*
X117551604Y-99646000D01*
X117296795Y-99646000D01*
X117044858Y-99683973D01*
X117044852Y-99683975D01*
X116801375Y-99759078D01*
X116571824Y-99869623D01*
X116571816Y-99869628D01*
X116411013Y-99979261D01*
X117061091Y-100629338D01*
X116922252Y-100716577D01*
X116794777Y-100844052D01*
X116707538Y-100982891D01*
X116057653Y-100333006D01*
X116015655Y-100385670D01*
X115888258Y-100606328D01*
X115795173Y-100843505D01*
X115795168Y-100843522D01*
X115738473Y-101091920D01*
X115719433Y-101345995D01*
X115719433Y-101346004D01*
X115738473Y-101600079D01*
X115795168Y-101848477D01*
X115795173Y-101848494D01*
X115888258Y-102085671D01*
X115888257Y-102085671D01*
X116015657Y-102306332D01*
X116057652Y-102358993D01*
X116707538Y-101709107D01*
X116794777Y-101847948D01*
X116922252Y-101975423D01*
X117061090Y-102062660D01*
X116411013Y-102712737D01*
X116571823Y-102822375D01*
X116571824Y-102822376D01*
X116801376Y-102932921D01*
X116801374Y-102932921D01*
X117044852Y-103008024D01*
X117044858Y-103008026D01*
X117296795Y-103045999D01*
X117296804Y-103046000D01*
X117551596Y-103046000D01*
X117551604Y-103045999D01*
X117803541Y-103008026D01*
X117803547Y-103008024D01*
X118047024Y-102932921D01*
X118276581Y-102822373D01*
X118437385Y-102712737D01*
X117787308Y-102062661D01*
X117926148Y-101975423D01*
X118053623Y-101847948D01*
X118140861Y-101709108D01*
X118790745Y-102358993D01*
X118832745Y-102306327D01*
X118960141Y-102085671D01*
X119053226Y-101848494D01*
X119053231Y-101848477D01*
X119109926Y-101600079D01*
X119128967Y-101346004D01*
X119128967Y-101345995D01*
X119109926Y-101091920D01*
X119053231Y-100843522D01*
X119053226Y-100843505D01*
X118958447Y-100602010D01*
X118960251Y-100601301D01*
X118950223Y-100540341D01*
X118977955Y-100476210D01*
X119035956Y-100437254D01*
X119073287Y-100431499D01*
X120855107Y-100431499D01*
X120922146Y-100451184D01*
X120967901Y-100503988D01*
X120977845Y-100573146D01*
X120969147Y-100601693D01*
X120969953Y-100602010D01*
X120875173Y-100843505D01*
X120875168Y-100843522D01*
X120818473Y-101091920D01*
X120799433Y-101345995D01*
X120799433Y-101346004D01*
X120818473Y-101600079D01*
X120875168Y-101848477D01*
X120875173Y-101848494D01*
X120968258Y-102085671D01*
X120968257Y-102085671D01*
X121095657Y-102306332D01*
X121137652Y-102358993D01*
X121787538Y-101709107D01*
X121874777Y-101847948D01*
X122002252Y-101975423D01*
X122141090Y-102062661D01*
X121491013Y-102712737D01*
X121651823Y-102822375D01*
X121651824Y-102822376D01*
X121881376Y-102932921D01*
X121881374Y-102932921D01*
X122124852Y-103008024D01*
X122124858Y-103008026D01*
X122376795Y-103045999D01*
X122376804Y-103046000D01*
X122631596Y-103046000D01*
X122631604Y-103045999D01*
X122883541Y-103008026D01*
X122883547Y-103008024D01*
X123127024Y-102932921D01*
X123356581Y-102822373D01*
X123517385Y-102712737D01*
X122867308Y-102062661D01*
X123006148Y-101975423D01*
X123133623Y-101847948D01*
X123220861Y-101709109D01*
X123870745Y-102358993D01*
X123912745Y-102306327D01*
X124040141Y-102085671D01*
X124133226Y-101848494D01*
X124133231Y-101848477D01*
X124189926Y-101600079D01*
X124208967Y-101346004D01*
X124208967Y-101345995D01*
X124189926Y-101091920D01*
X124133231Y-100843522D01*
X124133226Y-100843505D01*
X124040141Y-100606328D01*
X124040142Y-100606328D01*
X123912744Y-100385671D01*
X123870746Y-100333006D01*
X123220861Y-100982890D01*
X123133623Y-100844052D01*
X123006148Y-100716577D01*
X122867308Y-100629338D01*
X123517385Y-99979261D01*
X123356577Y-99869624D01*
X123356576Y-99869623D01*
X123127023Y-99759078D01*
X123127025Y-99759078D01*
X122883547Y-99683975D01*
X122883541Y-99683973D01*
X122631604Y-99646000D01*
X122376795Y-99646000D01*
X122124858Y-99683973D01*
X122124852Y-99683975D01*
X121881375Y-99759078D01*
X121767500Y-99813918D01*
X121698559Y-99825270D01*
X121634425Y-99797548D01*
X121595459Y-99739552D01*
X121589699Y-99702203D01*
X121589699Y-97909801D01*
X121609384Y-97842763D01*
X121662188Y-97797008D01*
X121731346Y-97787064D01*
X121767500Y-97798082D01*
X121881376Y-97852921D01*
X121881374Y-97852921D01*
X122124852Y-97928024D01*
X122124858Y-97928026D01*
X122376795Y-97965999D01*
X122376804Y-97966000D01*
X122631596Y-97966000D01*
X122631604Y-97965999D01*
X122883541Y-97928026D01*
X122883547Y-97928024D01*
X123127024Y-97852921D01*
X123356581Y-97742373D01*
X123517385Y-97632737D01*
X122867308Y-96982661D01*
X123006148Y-96895423D01*
X123133623Y-96767948D01*
X123220861Y-96629109D01*
X123870745Y-97278993D01*
X123912745Y-97226327D01*
X124040141Y-97005671D01*
X124133226Y-96768494D01*
X124133231Y-96768477D01*
X124189926Y-96520079D01*
X124208967Y-96266004D01*
X124208967Y-96265995D01*
X124189926Y-96011920D01*
X124133231Y-95763522D01*
X124133226Y-95763505D01*
X124040141Y-95526328D01*
X124040142Y-95526328D01*
X123912744Y-95305671D01*
X123870746Y-95253006D01*
X123220861Y-95902890D01*
X123133623Y-95764052D01*
X123006148Y-95636577D01*
X122867307Y-95549337D01*
X123517385Y-94899261D01*
X123356577Y-94789624D01*
X123356576Y-94789623D01*
X123127023Y-94679078D01*
X123127025Y-94679078D01*
X122883547Y-94603975D01*
X122883541Y-94603973D01*
X122631604Y-94566000D01*
X122376795Y-94566000D01*
X122124858Y-94603973D01*
X122124852Y-94603975D01*
X121881375Y-94679078D01*
X121651824Y-94789623D01*
X121651816Y-94789628D01*
X121491013Y-94899261D01*
X122141091Y-95549338D01*
X122002252Y-95636577D01*
X121874777Y-95764052D01*
X121787538Y-95902891D01*
X121137653Y-95253006D01*
X121095655Y-95305670D01*
X120968258Y-95526328D01*
X120904026Y-95689989D01*
X120861210Y-95745203D01*
X120795340Y-95768504D01*
X120727330Y-95752493D01*
X120678771Y-95702255D01*
X120664598Y-95644687D01*
X120664598Y-88606472D01*
X120664711Y-88602727D01*
X120668315Y-88543142D01*
X120668258Y-88542197D01*
X120668413Y-88541517D01*
X120668768Y-88535658D01*
X120669742Y-88535716D01*
X120683855Y-88474091D01*
X120717720Y-88435437D01*
X120790989Y-88380587D01*
X120852376Y-88298587D01*
X120908310Y-88256717D01*
X120951642Y-88248899D01*
X121481669Y-88248899D01*
X121481672Y-88248899D01*
X121483032Y-88248752D01*
X121489660Y-88248398D01*
X132875606Y-88248398D01*
X132942645Y-88268083D01*
X132988400Y-88320887D01*
X132998344Y-88390045D01*
X132969319Y-88453601D01*
X132912156Y-88490889D01*
X132777975Y-88532278D01*
X132548424Y-88642823D01*
X132548416Y-88642828D01*
X132387613Y-88752461D01*
X133037691Y-89402538D01*
X132898852Y-89489777D01*
X132771377Y-89617252D01*
X132684139Y-89756090D01*
X132034253Y-89106206D01*
X131992255Y-89158870D01*
X131864858Y-89379528D01*
X131771773Y-89616705D01*
X131771768Y-89616722D01*
X131715073Y-89865120D01*
X131696033Y-90119195D01*
X131696033Y-90119204D01*
X131715073Y-90373279D01*
X131771768Y-90621677D01*
X131771773Y-90621694D01*
X131864858Y-90858871D01*
X131864857Y-90858871D01*
X131992257Y-91079532D01*
X132034252Y-91132193D01*
X132684138Y-90482307D01*
X132771377Y-90621148D01*
X132898852Y-90748623D01*
X133037690Y-90835860D01*
X132387613Y-91485937D01*
X132548423Y-91595575D01*
X132548424Y-91595576D01*
X132777976Y-91706121D01*
X132777974Y-91706121D01*
X133021452Y-91781224D01*
X133021458Y-91781226D01*
X133273395Y-91819199D01*
X133273404Y-91819200D01*
X133528196Y-91819200D01*
X133528204Y-91819199D01*
X133780141Y-91781226D01*
X133780147Y-91781224D01*
X134023624Y-91706121D01*
X134253181Y-91595573D01*
X134413985Y-91485937D01*
X133763908Y-90835861D01*
X133902748Y-90748623D01*
X134030223Y-90621148D01*
X134117461Y-90482308D01*
X134767345Y-91132193D01*
X134809345Y-91079527D01*
X134936741Y-90858871D01*
X135029826Y-90621694D01*
X135029831Y-90621677D01*
X135086526Y-90373279D01*
X135105567Y-90119204D01*
X135105567Y-90119195D01*
X135086526Y-89865120D01*
X135029831Y-89616722D01*
X135029826Y-89616705D01*
X134935047Y-89375210D01*
X134936851Y-89374501D01*
X134926823Y-89313541D01*
X134954555Y-89249410D01*
X135012556Y-89210454D01*
X135049887Y-89204699D01*
X136831707Y-89204699D01*
X136898746Y-89224384D01*
X136944501Y-89277188D01*
X136954445Y-89346346D01*
X136945747Y-89374893D01*
X136946553Y-89375210D01*
X136851773Y-89616705D01*
X136851768Y-89616722D01*
X136795073Y-89865120D01*
X136776033Y-90119195D01*
X136776033Y-90119204D01*
X136795073Y-90373279D01*
X136851768Y-90621677D01*
X136851773Y-90621694D01*
X136944858Y-90858871D01*
X136944857Y-90858871D01*
X137072257Y-91079532D01*
X137114252Y-91132193D01*
X137764138Y-90482307D01*
X137851377Y-90621148D01*
X137978852Y-90748623D01*
X138117690Y-90835861D01*
X137467613Y-91485937D01*
X137628423Y-91595575D01*
X137628424Y-91595576D01*
X137857976Y-91706121D01*
X137857974Y-91706121D01*
X138101452Y-91781224D01*
X138101458Y-91781226D01*
X138353395Y-91819199D01*
X138353404Y-91819200D01*
X138608196Y-91819200D01*
X138608204Y-91819199D01*
X138860141Y-91781226D01*
X138860147Y-91781224D01*
X139103624Y-91706121D01*
X139333181Y-91595573D01*
X139493985Y-91485937D01*
X138843908Y-90835861D01*
X138982748Y-90748623D01*
X139110223Y-90621148D01*
X139197461Y-90482308D01*
X139847345Y-91132193D01*
X139889345Y-91079527D01*
X140016741Y-90858871D01*
X140109826Y-90621694D01*
X140109831Y-90621677D01*
X140166526Y-90373279D01*
X140185567Y-90119204D01*
X140185567Y-90119195D01*
X140166526Y-89865120D01*
X140109831Y-89616722D01*
X140109826Y-89616705D01*
X140016741Y-89379528D01*
X140016742Y-89379528D01*
X139889344Y-89158871D01*
X139847346Y-89106206D01*
X139197461Y-89756090D01*
X139110223Y-89617252D01*
X138982748Y-89489777D01*
X138843908Y-89402538D01*
X139493985Y-88752461D01*
X139333177Y-88642824D01*
X139333176Y-88642823D01*
X139103623Y-88532278D01*
X139103625Y-88532278D01*
X138860147Y-88457175D01*
X138860141Y-88457173D01*
X138608204Y-88419200D01*
X138353395Y-88419200D01*
X138101458Y-88457173D01*
X138101452Y-88457175D01*
X137857975Y-88532278D01*
X137744100Y-88587118D01*
X137675159Y-88598470D01*
X137611025Y-88570748D01*
X137572059Y-88512752D01*
X137566299Y-88475403D01*
X137566299Y-86683001D01*
X137585984Y-86615963D01*
X137638788Y-86570208D01*
X137707946Y-86560264D01*
X137744100Y-86571282D01*
X137857976Y-86626121D01*
X137857974Y-86626121D01*
X138101452Y-86701224D01*
X138101458Y-86701226D01*
X138353395Y-86739199D01*
X138353404Y-86739200D01*
X138608196Y-86739200D01*
X138608204Y-86739199D01*
X138860141Y-86701226D01*
X138860147Y-86701224D01*
X139103624Y-86626121D01*
X139333181Y-86515573D01*
X139493985Y-86405937D01*
X138843908Y-85755861D01*
X138982748Y-85668623D01*
X139110223Y-85541148D01*
X139197461Y-85402308D01*
X139847345Y-86052193D01*
X139889345Y-85999527D01*
X140016741Y-85778871D01*
X140109826Y-85541694D01*
X140109831Y-85541677D01*
X140166526Y-85293279D01*
X140185567Y-85039204D01*
X140185567Y-85039195D01*
X140166526Y-84785120D01*
X140109831Y-84536722D01*
X140109826Y-84536705D01*
X140016741Y-84299528D01*
X140016742Y-84299528D01*
X139889344Y-84078871D01*
X139847345Y-84026205D01*
X139197460Y-84676090D01*
X139110223Y-84537252D01*
X138982748Y-84409777D01*
X138843907Y-84322537D01*
X139493985Y-83672461D01*
X139333177Y-83562824D01*
X139333176Y-83562823D01*
X139103623Y-83452278D01*
X139103625Y-83452278D01*
X138860147Y-83377175D01*
X138860141Y-83377173D01*
X138608204Y-83339200D01*
X138353395Y-83339200D01*
X138101458Y-83377173D01*
X138101452Y-83377175D01*
X137857975Y-83452278D01*
X137628424Y-83562823D01*
X137628416Y-83562828D01*
X137467613Y-83672461D01*
X138117691Y-84322538D01*
X137978852Y-84409777D01*
X137851377Y-84537252D01*
X137764138Y-84676091D01*
X137114253Y-84026206D01*
X137072255Y-84078870D01*
X136944858Y-84299528D01*
X136851773Y-84536705D01*
X136851768Y-84536722D01*
X136795073Y-84785120D01*
X136776033Y-85039195D01*
X136776033Y-85039204D01*
X136795073Y-85293279D01*
X136851768Y-85541677D01*
X136851773Y-85541694D01*
X136946553Y-85783190D01*
X136944740Y-85783901D01*
X136954782Y-85844818D01*
X136927071Y-85908958D01*
X136869082Y-85947933D01*
X136831707Y-85953700D01*
X135049893Y-85953700D01*
X134982854Y-85934015D01*
X134937099Y-85881211D01*
X134927155Y-85812053D01*
X134935856Y-85783507D01*
X134935047Y-85783190D01*
X135029826Y-85541694D01*
X135029831Y-85541677D01*
X135086526Y-85293279D01*
X135105567Y-85039204D01*
X135105567Y-85039195D01*
X135086526Y-84785120D01*
X135029831Y-84536722D01*
X135029826Y-84536705D01*
X134936741Y-84299528D01*
X134936742Y-84299528D01*
X134809344Y-84078871D01*
X134767345Y-84026205D01*
X134117460Y-84676090D01*
X134030223Y-84537252D01*
X133902748Y-84409777D01*
X133763908Y-84322538D01*
X134413985Y-83672461D01*
X134253177Y-83562824D01*
X134253176Y-83562823D01*
X134023623Y-83452278D01*
X134023625Y-83452278D01*
X133780147Y-83377175D01*
X133780141Y-83377173D01*
X133528204Y-83339200D01*
X133273395Y-83339200D01*
X133021458Y-83377173D01*
X133021452Y-83377175D01*
X132777975Y-83452278D01*
X132548424Y-83562823D01*
X132548416Y-83562828D01*
X132387613Y-83672461D01*
X133037691Y-84322538D01*
X132898852Y-84409777D01*
X132771377Y-84537252D01*
X132684138Y-84676091D01*
X132034253Y-84026206D01*
X131992255Y-84078870D01*
X131864858Y-84299528D01*
X131771773Y-84536705D01*
X131771768Y-84536722D01*
X131715073Y-84785120D01*
X131696033Y-85039195D01*
X131696033Y-85039204D01*
X131715073Y-85293279D01*
X131771768Y-85541677D01*
X131771773Y-85541694D01*
X131864858Y-85778871D01*
X131864857Y-85778871D01*
X131992257Y-85999532D01*
X132034252Y-86052193D01*
X132034253Y-86052193D01*
X132684138Y-85402308D01*
X132771377Y-85541148D01*
X132898852Y-85668623D01*
X133037690Y-85755861D01*
X132387613Y-86405937D01*
X132548423Y-86515575D01*
X132548424Y-86515576D01*
X132777976Y-86626121D01*
X132777974Y-86626121D01*
X132874550Y-86655911D01*
X132932809Y-86694482D01*
X132960967Y-86758426D01*
X132950083Y-86827443D01*
X132903614Y-86879620D01*
X132838000Y-86898402D01*
X124549246Y-86898402D01*
X124482207Y-86878717D01*
X124436452Y-86825913D01*
X124426508Y-86756755D01*
X124450870Y-86698916D01*
X124477933Y-86663647D01*
X124538602Y-86517180D01*
X124540683Y-86501371D01*
X124541355Y-86496272D01*
X124549645Y-86433295D01*
X124554100Y-86399460D01*
X124554100Y-86399454D01*
X124559294Y-86360000D01*
X124554630Y-86324576D01*
X124554100Y-86316480D01*
X124554100Y-86207625D01*
X124554100Y-86068672D01*
X124573783Y-86001636D01*
X124585943Y-85985709D01*
X124684533Y-85876216D01*
X124779179Y-85712284D01*
X124837674Y-85532256D01*
X124857460Y-85344000D01*
X124837674Y-85155744D01*
X124779179Y-84975716D01*
X124738342Y-84904985D01*
X124721870Y-84837085D01*
X124744723Y-84771059D01*
X124799644Y-84727868D01*
X124806709Y-84725286D01*
X124869716Y-84704408D01*
X125016550Y-84613840D01*
X125044694Y-84585695D01*
X125106016Y-84552210D01*
X125175708Y-84557194D01*
X125206685Y-84574108D01*
X125278268Y-84627695D01*
X125278271Y-84627697D01*
X125323218Y-84644461D01*
X125413117Y-84677991D01*
X125472727Y-84684400D01*
X126168472Y-84684399D01*
X126228083Y-84677991D01*
X126362931Y-84627696D01*
X126478146Y-84541446D01*
X126564396Y-84426231D01*
X126604417Y-84318926D01*
X126646287Y-84262994D01*
X126711751Y-84238576D01*
X126780024Y-84253427D01*
X126829430Y-84302832D01*
X126836781Y-84318926D01*
X126876803Y-84426230D01*
X126876806Y-84426235D01*
X126963052Y-84541444D01*
X126963055Y-84541447D01*
X127078264Y-84627693D01*
X127078271Y-84627697D01*
X127123218Y-84644461D01*
X127213117Y-84677991D01*
X127272727Y-84684400D01*
X127968472Y-84684399D01*
X128028083Y-84677991D01*
X128162931Y-84627696D01*
X128201985Y-84598459D01*
X128267446Y-84574041D01*
X128335719Y-84588891D01*
X128349174Y-84597402D01*
X128390871Y-84627696D01*
X128426870Y-84653851D01*
X128599792Y-84730842D01*
X128599797Y-84730844D01*
X128784954Y-84770200D01*
X128784955Y-84770200D01*
X128974244Y-84770200D01*
X128974246Y-84770200D01*
X129159403Y-84730844D01*
X129332330Y-84653851D01*
X129485471Y-84542588D01*
X129612133Y-84401916D01*
X129706779Y-84237984D01*
X129765274Y-84057956D01*
X129785060Y-83869700D01*
X129765274Y-83681444D01*
X129706779Y-83501416D01*
X129612133Y-83337484D01*
X129485471Y-83196812D01*
X129458249Y-83177034D01*
X129332334Y-83085551D01*
X129332329Y-83085548D01*
X129159407Y-83008557D01*
X129159402Y-83008555D01*
X128992876Y-82973160D01*
X128974246Y-82969200D01*
X128784954Y-82969200D01*
X128766324Y-82973160D01*
X128599797Y-83008555D01*
X128599796Y-83008555D01*
X128595035Y-83010676D01*
X128525785Y-83019960D01*
X128462508Y-82990331D01*
X128425296Y-82931196D01*
X128420600Y-82897396D01*
X128420600Y-82833900D01*
X127494600Y-82833900D01*
X127427561Y-82814215D01*
X127381806Y-82761411D01*
X127370600Y-82709900D01*
X127370600Y-81683900D01*
X127870600Y-81683900D01*
X127870600Y-82333900D01*
X128420600Y-82333900D01*
X128420600Y-82136072D01*
X128420599Y-82136055D01*
X128414198Y-82076527D01*
X128414196Y-82076520D01*
X128363954Y-81941813D01*
X128363950Y-81941806D01*
X128277790Y-81826712D01*
X128277787Y-81826709D01*
X128162693Y-81740549D01*
X128162686Y-81740545D01*
X128027979Y-81690303D01*
X128027972Y-81690301D01*
X127968444Y-81683900D01*
X127870600Y-81683900D01*
X127370600Y-81683900D01*
X127272755Y-81683900D01*
X127213227Y-81690301D01*
X127213220Y-81690303D01*
X127078513Y-81740545D01*
X127078506Y-81740549D01*
X126963412Y-81826709D01*
X126963409Y-81826712D01*
X126877249Y-81941806D01*
X126877245Y-81941813D01*
X126836782Y-82050301D01*
X126794911Y-82106235D01*
X126729446Y-82130652D01*
X126661173Y-82115800D01*
X126611768Y-82066395D01*
X126604418Y-82050301D01*
X126563954Y-81941813D01*
X126563950Y-81941806D01*
X126477790Y-81826712D01*
X126477787Y-81826709D01*
X126362693Y-81740549D01*
X126362686Y-81740545D01*
X126227979Y-81690303D01*
X126227972Y-81690301D01*
X126168444Y-81683900D01*
X126070600Y-81683900D01*
X126070600Y-82709900D01*
X126050915Y-82776939D01*
X125998111Y-82822694D01*
X125946600Y-82833900D01*
X125694600Y-82833900D01*
X125627561Y-82814215D01*
X125581806Y-82761411D01*
X125570600Y-82709900D01*
X125570600Y-81683900D01*
X125472755Y-81683900D01*
X125413227Y-81690301D01*
X125413221Y-81690302D01*
X125408400Y-81692101D01*
X125338708Y-81697082D01*
X125277386Y-81663594D01*
X125247365Y-81614921D01*
X125193108Y-81451184D01*
X125102540Y-81304350D01*
X125088217Y-81290027D01*
X125054732Y-81228704D01*
X125059716Y-81159012D01*
X125088221Y-81114660D01*
X125102147Y-81100735D01*
X125192648Y-80954011D01*
X125192653Y-80954000D01*
X125246880Y-80790352D01*
X125257199Y-80689354D01*
X125257200Y-80689341D01*
X125257200Y-80590200D01*
X124156200Y-80590200D01*
X124089161Y-80570515D01*
X124043406Y-80517711D01*
X124032200Y-80466200D01*
X124032199Y-79302700D01*
X124532200Y-79302700D01*
X124532200Y-80090200D01*
X125257198Y-80090200D01*
X125257199Y-79991060D01*
X125257198Y-79991045D01*
X125246880Y-79890047D01*
X125192653Y-79726399D01*
X125192648Y-79726388D01*
X125102147Y-79579665D01*
X125102144Y-79579661D01*
X124980238Y-79457755D01*
X124980234Y-79457752D01*
X124833511Y-79367251D01*
X124833500Y-79367246D01*
X124669852Y-79313019D01*
X124568854Y-79302700D01*
X124532200Y-79302700D01*
X124032199Y-79302700D01*
X123995561Y-79302700D01*
X123995543Y-79302701D01*
X123894544Y-79313019D01*
X123784524Y-79349475D01*
X123714696Y-79351876D01*
X123654655Y-79316144D01*
X123639986Y-79296870D01*
X123578540Y-79197250D01*
X123564217Y-79182927D01*
X123530732Y-79121604D01*
X123535716Y-79051912D01*
X123564221Y-79007560D01*
X123578147Y-78993635D01*
X123668648Y-78846911D01*
X123668653Y-78846900D01*
X123722880Y-78683252D01*
X123733199Y-78582254D01*
X123733200Y-78582241D01*
X123733200Y-78483100D01*
X121819962Y-78483100D01*
X121752923Y-78463415D01*
X121745831Y-78457700D01*
X120955800Y-78457700D01*
X120888761Y-78438015D01*
X120843006Y-78385211D01*
X120831800Y-78333700D01*
X120831800Y-77170200D01*
X121331800Y-77170200D01*
X121331800Y-77957700D01*
X122020038Y-77957700D01*
X122087077Y-77977385D01*
X122094169Y-77983100D01*
X122508199Y-77983100D01*
X122508199Y-77195600D01*
X123008200Y-77195600D01*
X123008200Y-77983100D01*
X123733198Y-77983100D01*
X123733199Y-77883960D01*
X123733198Y-77883945D01*
X123722880Y-77782947D01*
X123668653Y-77619299D01*
X123668648Y-77619288D01*
X123578147Y-77472565D01*
X123578144Y-77472561D01*
X123456238Y-77350655D01*
X123456234Y-77350652D01*
X123309511Y-77260151D01*
X123309500Y-77260146D01*
X123145852Y-77205919D01*
X123044854Y-77195600D01*
X123008200Y-77195600D01*
X122508199Y-77195600D01*
X122471561Y-77195600D01*
X122471543Y-77195601D01*
X122370547Y-77205919D01*
X122206899Y-77260146D01*
X122206888Y-77260151D01*
X122060165Y-77350652D01*
X122060161Y-77350655D01*
X122020381Y-77390436D01*
X121959058Y-77423921D01*
X121889366Y-77418937D01*
X121845019Y-77390436D01*
X121779838Y-77325255D01*
X121779834Y-77325252D01*
X121633111Y-77234751D01*
X121633100Y-77234746D01*
X121469452Y-77180519D01*
X121368454Y-77170200D01*
X121331800Y-77170200D01*
X120831800Y-77170200D01*
X120795161Y-77170200D01*
X120795143Y-77170201D01*
X120694147Y-77180519D01*
X120530499Y-77234746D01*
X120530488Y-77234751D01*
X120383765Y-77325252D01*
X120383761Y-77325255D01*
X120261855Y-77447161D01*
X120261852Y-77447165D01*
X120171351Y-77593888D01*
X120171346Y-77593899D01*
X120135688Y-77701509D01*
X120095915Y-77758954D01*
X120031399Y-77785777D01*
X119967545Y-77775784D01*
X119951884Y-77768811D01*
X119913802Y-77751855D01*
X119768000Y-77720865D01*
X119728646Y-77712500D01*
X119539354Y-77712500D01*
X119506897Y-77719398D01*
X119354197Y-77751855D01*
X119354192Y-77751857D01*
X119181270Y-77828848D01*
X119181265Y-77828851D01*
X119028129Y-77940111D01*
X118901466Y-78080785D01*
X118806821Y-78244715D01*
X118806818Y-78244722D01*
X118761171Y-78385211D01*
X118748326Y-78424744D01*
X118728540Y-78613000D01*
X118739438Y-78716696D01*
X118726868Y-78785425D01*
X118708267Y-78812628D01*
X118583621Y-78951062D01*
X118488976Y-79114992D01*
X118488973Y-79114999D01*
X118430482Y-79295017D01*
X118430481Y-79295021D01*
X118423934Y-79357316D01*
X118421895Y-79376714D01*
X118395310Y-79441329D01*
X118338012Y-79481313D01*
X118268193Y-79483973D01*
X118248139Y-79477032D01*
X118184923Y-79448886D01*
X118034511Y-79416916D01*
X117999767Y-79409531D01*
X117810475Y-79409531D01*
X117778018Y-79416429D01*
X117625318Y-79448886D01*
X117625313Y-79448888D01*
X117452391Y-79525879D01*
X117452386Y-79525882D01*
X117299250Y-79637142D01*
X117172586Y-79777816D01*
X117158278Y-79802600D01*
X117107711Y-79850816D01*
X117050891Y-79864600D01*
X116872354Y-79864600D01*
X116839897Y-79871498D01*
X116687197Y-79903955D01*
X116687192Y-79903957D01*
X116514270Y-79980948D01*
X116514265Y-79980951D01*
X116361129Y-80092211D01*
X116234466Y-80232885D01*
X116139821Y-80396815D01*
X116139818Y-80396822D01*
X116083382Y-80570515D01*
X116081326Y-80576844D01*
X116062023Y-80760500D01*
X116061540Y-80765100D01*
X116069352Y-80839433D01*
X116056782Y-80908162D01*
X116009049Y-80959186D01*
X115941309Y-80976303D01*
X115875068Y-80954080D01*
X115873146Y-80952711D01*
X115768734Y-80876851D01*
X115768729Y-80876848D01*
X115595807Y-80799857D01*
X115595802Y-80799855D01*
X115432287Y-80765100D01*
X115410646Y-80760500D01*
X115221354Y-80760500D01*
X115199713Y-80765100D01*
X115036197Y-80799855D01*
X115036192Y-80799857D01*
X114863270Y-80876848D01*
X114863265Y-80876851D01*
X114710129Y-80988111D01*
X114583465Y-81128785D01*
X114583463Y-81128788D01*
X114554729Y-81178557D01*
X114504162Y-81226772D01*
X114435555Y-81239994D01*
X114370690Y-81214026D01*
X114330162Y-81157111D01*
X114326892Y-81103261D01*
X114324193Y-81102986D01*
X114335199Y-80995254D01*
X114335200Y-80995241D01*
X114335200Y-80896100D01*
X109184801Y-80896100D01*
X109155506Y-80925395D01*
X109094182Y-80958879D01*
X109024491Y-80953894D01*
X108994943Y-80938033D01*
X108910730Y-80876849D01*
X108910729Y-80876848D01*
X108737807Y-80799857D01*
X108737802Y-80799855D01*
X108574287Y-80765100D01*
X108552646Y-80760500D01*
X108363354Y-80760500D01*
X108341713Y-80765100D01*
X108178197Y-80799855D01*
X108178192Y-80799857D01*
X108005270Y-80876848D01*
X108005265Y-80876851D01*
X107852129Y-80988111D01*
X107725466Y-81128785D01*
X107630821Y-81292715D01*
X107630818Y-81292722D01*
X107572327Y-81472740D01*
X107572326Y-81472744D01*
X107552540Y-81661000D01*
X107572326Y-81849256D01*
X107572327Y-81849259D01*
X107630818Y-82029277D01*
X107630821Y-82029284D01*
X107725467Y-82193216D01*
X107755746Y-82226844D01*
X107852129Y-82333888D01*
X108005265Y-82445148D01*
X108005270Y-82445151D01*
X108178192Y-82522142D01*
X108178197Y-82522144D01*
X108363354Y-82561500D01*
X108455640Y-82561500D01*
X108522679Y-82581185D01*
X108543321Y-82597819D01*
X108588045Y-82642543D01*
X108621530Y-82703866D01*
X108616546Y-82773558D01*
X108574674Y-82829491D01*
X108573249Y-82830542D01*
X108487129Y-82893111D01*
X108360466Y-83033785D01*
X108265821Y-83197715D01*
X108265818Y-83197722D01*
X108207511Y-83377175D01*
X108207326Y-83377744D01*
X108197029Y-83475719D01*
X108187541Y-83565994D01*
X108187540Y-83566000D01*
X108189467Y-83584339D01*
X108176899Y-83653067D01*
X108129167Y-83704092D01*
X108066147Y-83721300D01*
X107204760Y-83721300D01*
X107137721Y-83701615D01*
X107117079Y-83684981D01*
X106413044Y-82980946D01*
X106379559Y-82919623D01*
X106380950Y-82861171D01*
X106382657Y-82854800D01*
X106414863Y-82734608D01*
X106435459Y-82499200D01*
X106414863Y-82263792D01*
X106361971Y-82066395D01*
X106353705Y-82035544D01*
X106353704Y-82035543D01*
X106353703Y-82035537D01*
X106253835Y-81821371D01*
X106214326Y-81764945D01*
X106118294Y-81627797D01*
X105951202Y-81460706D01*
X105951195Y-81460701D01*
X105937603Y-81451184D01*
X105874695Y-81407135D01*
X105757634Y-81325167D01*
X105757630Y-81325165D01*
X105688041Y-81292715D01*
X105543463Y-81225297D01*
X105543459Y-81225296D01*
X105543455Y-81225294D01*
X105315213Y-81164138D01*
X105315203Y-81164136D01*
X105079801Y-81143541D01*
X105079799Y-81143541D01*
X104844396Y-81164136D01*
X104844386Y-81164138D01*
X104616144Y-81225294D01*
X104616135Y-81225298D01*
X104401971Y-81325164D01*
X104401969Y-81325165D01*
X104208397Y-81460705D01*
X104041305Y-81627797D01*
X103905765Y-81821369D01*
X103905764Y-81821371D01*
X103805898Y-82035535D01*
X103805894Y-82035544D01*
X103744738Y-82263786D01*
X103744736Y-82263796D01*
X103724141Y-82499199D01*
X103724141Y-82499200D01*
X103744736Y-82734603D01*
X103744738Y-82734613D01*
X103805894Y-82962855D01*
X103805896Y-82962859D01*
X103805897Y-82962863D01*
X103867584Y-83095150D01*
X103905765Y-83177030D01*
X103905767Y-83177034D01*
X104004798Y-83318464D01*
X104023034Y-83344508D01*
X104041301Y-83370595D01*
X104041306Y-83370602D01*
X104208397Y-83537693D01*
X104208403Y-83537698D01*
X104393958Y-83667625D01*
X104437583Y-83722202D01*
X104444777Y-83791700D01*
X104413254Y-83854055D01*
X104393958Y-83870775D01*
X104208397Y-84000705D01*
X104041305Y-84167797D01*
X103905765Y-84361369D01*
X103905764Y-84361371D01*
X103805898Y-84575535D01*
X103805894Y-84575544D01*
X103744738Y-84803786D01*
X103744736Y-84803796D01*
X103724141Y-85039199D01*
X103724141Y-85039200D01*
X103744736Y-85274603D01*
X103744738Y-85274613D01*
X103805894Y-85502855D01*
X103805896Y-85502859D01*
X103805897Y-85502863D01*
X103901793Y-85708511D01*
X103905765Y-85717030D01*
X103905767Y-85717034D01*
X104004798Y-85858464D01*
X104038001Y-85905883D01*
X104041301Y-85910595D01*
X104041306Y-85910602D01*
X104208397Y-86077693D01*
X104208403Y-86077698D01*
X104393958Y-86207625D01*
X104437583Y-86262202D01*
X104444777Y-86331700D01*
X104413254Y-86394055D01*
X104393958Y-86410775D01*
X104208397Y-86540705D01*
X104041305Y-86707797D01*
X103905765Y-86901369D01*
X103905764Y-86901371D01*
X103805898Y-87115535D01*
X103805894Y-87115544D01*
X103744738Y-87343786D01*
X103744736Y-87343796D01*
X103724141Y-87579199D01*
X103724141Y-87579200D01*
X102318658Y-87579200D01*
X102289703Y-87471137D01*
X102189835Y-87256971D01*
X102162006Y-87217226D01*
X102054294Y-87063397D01*
X101887202Y-86896306D01*
X101887196Y-86896301D01*
X101701642Y-86766375D01*
X101658017Y-86711798D01*
X101650823Y-86642300D01*
X101682346Y-86579945D01*
X101701642Y-86563225D01*
X101767408Y-86517175D01*
X101887201Y-86433295D01*
X102054295Y-86266201D01*
X102189835Y-86072630D01*
X102289703Y-85858463D01*
X102350863Y-85630208D01*
X102371459Y-85394800D01*
X102350863Y-85159392D01*
X102301648Y-84975716D01*
X102289705Y-84931144D01*
X102289704Y-84931143D01*
X102289703Y-84931137D01*
X102189835Y-84716971D01*
X102181039Y-84704408D01*
X102054294Y-84523397D01*
X101887202Y-84356306D01*
X101887196Y-84356301D01*
X101701642Y-84226375D01*
X101658017Y-84171798D01*
X101650823Y-84102300D01*
X101682346Y-84039945D01*
X101701642Y-84023225D01*
X101797816Y-83955883D01*
X101887201Y-83893295D01*
X102054295Y-83726201D01*
X102189835Y-83532630D01*
X102289703Y-83318463D01*
X102350863Y-83090208D01*
X102371459Y-82854800D01*
X102350863Y-82619392D01*
X102289703Y-82391137D01*
X102189835Y-82176971D01*
X102177815Y-82159805D01*
X102054296Y-81983400D01*
X102012702Y-81941806D01*
X101932367Y-81861471D01*
X101898884Y-81800151D01*
X101903868Y-81730459D01*
X101945739Y-81674525D01*
X101976715Y-81657610D01*
X102108131Y-81608596D01*
X102223346Y-81522346D01*
X102309596Y-81407131D01*
X102359891Y-81272283D01*
X102366300Y-81212673D01*
X102366300Y-80396100D01*
X109184800Y-80396100D01*
X109909800Y-80396100D01*
X109909800Y-79608600D01*
X110409800Y-79608600D01*
X110409800Y-80396100D01*
X111535400Y-80396100D01*
X111535400Y-79608600D01*
X112035400Y-79608600D01*
X112035400Y-80396100D01*
X113110200Y-80396100D01*
X113110200Y-79608600D01*
X113610200Y-79608600D01*
X113610200Y-80396100D01*
X114335198Y-80396100D01*
X114335199Y-80296960D01*
X114335198Y-80296945D01*
X114324880Y-80195947D01*
X114270653Y-80032299D01*
X114270648Y-80032288D01*
X114180147Y-79885565D01*
X114180144Y-79885561D01*
X114058238Y-79763655D01*
X114058234Y-79763652D01*
X113911511Y-79673151D01*
X113911500Y-79673146D01*
X113747852Y-79618919D01*
X113646854Y-79608600D01*
X113610200Y-79608600D01*
X113110200Y-79608600D01*
X113073561Y-79608600D01*
X113073543Y-79608601D01*
X112972547Y-79618919D01*
X112808899Y-79673146D01*
X112808888Y-79673151D01*
X112662165Y-79763652D01*
X112662162Y-79763654D01*
X112660474Y-79765343D01*
X112659031Y-79766130D01*
X112656499Y-79768133D01*
X112656156Y-79767700D01*
X112599148Y-79798823D01*
X112529457Y-79793834D01*
X112489225Y-79767974D01*
X112489101Y-79768133D01*
X112487490Y-79766859D01*
X112485111Y-79765330D01*
X112483432Y-79763650D01*
X112336711Y-79673151D01*
X112336700Y-79673146D01*
X112173052Y-79618919D01*
X112072054Y-79608600D01*
X112035400Y-79608600D01*
X111535400Y-79608600D01*
X111498761Y-79608600D01*
X111498743Y-79608601D01*
X111397747Y-79618919D01*
X111234099Y-79673146D01*
X111234088Y-79673151D01*
X111087365Y-79763652D01*
X111060279Y-79790738D01*
X110998955Y-79824222D01*
X110929264Y-79819236D01*
X110884916Y-79790735D01*
X110857833Y-79763651D01*
X110711111Y-79673151D01*
X110711100Y-79673146D01*
X110547452Y-79618919D01*
X110446454Y-79608600D01*
X110409800Y-79608600D01*
X109909800Y-79608600D01*
X109873161Y-79608600D01*
X109873143Y-79608601D01*
X109772147Y-79618919D01*
X109608499Y-79673146D01*
X109608488Y-79673151D01*
X109461765Y-79763652D01*
X109461761Y-79763655D01*
X109339855Y-79885561D01*
X109339852Y-79885565D01*
X109249351Y-80032288D01*
X109249346Y-80032299D01*
X109195119Y-80195947D01*
X109184800Y-80296945D01*
X109184800Y-80396100D01*
X102366300Y-80396100D01*
X102366299Y-79416928D01*
X102359891Y-79357317D01*
X102354955Y-79344084D01*
X102309597Y-79222471D01*
X102309593Y-79222464D01*
X102223347Y-79107255D01*
X102223344Y-79107252D01*
X102108135Y-79021006D01*
X102108128Y-79021002D01*
X101973282Y-78970708D01*
X101973283Y-78970708D01*
X101913683Y-78964301D01*
X101913681Y-78964300D01*
X101913673Y-78964300D01*
X101913664Y-78964300D01*
X100117929Y-78964300D01*
X100117923Y-78964301D01*
X100058316Y-78970708D01*
X99923471Y-79021002D01*
X99923464Y-79021006D01*
X99808255Y-79107252D01*
X99808252Y-79107255D01*
X99722006Y-79222464D01*
X99722002Y-79222471D01*
X99671708Y-79357317D01*
X99666095Y-79409531D01*
X99665301Y-79416923D01*
X99665300Y-79416935D01*
X99665300Y-81212670D01*
X99665301Y-81212676D01*
X99671708Y-81272283D01*
X99722002Y-81407128D01*
X99722006Y-81407135D01*
X99808252Y-81522344D01*
X99808255Y-81522347D01*
X99923464Y-81608593D01*
X99923471Y-81608597D01*
X100054881Y-81657610D01*
X100110815Y-81699481D01*
X100135232Y-81764945D01*
X100120380Y-81833218D01*
X100099230Y-81861473D01*
X99977303Y-81983400D01*
X99841765Y-82176969D01*
X99841764Y-82176971D01*
X99741898Y-82391135D01*
X99741894Y-82391144D01*
X99680738Y-82619386D01*
X99680736Y-82619396D01*
X99660141Y-82854799D01*
X99660141Y-82854800D01*
X99680736Y-83090203D01*
X99680738Y-83090213D01*
X99741894Y-83318455D01*
X99741896Y-83318459D01*
X99741897Y-83318463D01*
X99827311Y-83501633D01*
X99841765Y-83532630D01*
X99841767Y-83532634D01*
X99977301Y-83726195D01*
X99977306Y-83726202D01*
X100144397Y-83893293D01*
X100144403Y-83893298D01*
X100329958Y-84023225D01*
X100373583Y-84077802D01*
X100380777Y-84147300D01*
X100349254Y-84209655D01*
X100329958Y-84226375D01*
X100144397Y-84356305D01*
X99977305Y-84523397D01*
X99841765Y-84716969D01*
X99841764Y-84716971D01*
X99741898Y-84931135D01*
X99741894Y-84931144D01*
X99680738Y-85159386D01*
X99680736Y-85159396D01*
X99660141Y-85394799D01*
X99660141Y-85394800D01*
X99680736Y-85630203D01*
X99680738Y-85630213D01*
X99741894Y-85858455D01*
X99741896Y-85858459D01*
X99741897Y-85858463D01*
X99815772Y-86016888D01*
X99841765Y-86072630D01*
X99841767Y-86072634D01*
X99896914Y-86151391D01*
X99962589Y-86245185D01*
X99977301Y-86266195D01*
X99977306Y-86266202D01*
X100144397Y-86433293D01*
X100144403Y-86433298D01*
X100329958Y-86563225D01*
X100373583Y-86617802D01*
X100380777Y-86687300D01*
X100349254Y-86749655D01*
X100329958Y-86766375D01*
X100144397Y-86896305D01*
X99977305Y-87063397D01*
X99841765Y-87256969D01*
X99841764Y-87256971D01*
X99741898Y-87471135D01*
X99741894Y-87471144D01*
X99680738Y-87699386D01*
X99680736Y-87699396D01*
X99660141Y-87934799D01*
X99660141Y-87934800D01*
X99680736Y-88170203D01*
X99680738Y-88170213D01*
X99741894Y-88398455D01*
X99741896Y-88398459D01*
X99741897Y-88398463D01*
X99809033Y-88542436D01*
X99841765Y-88612630D01*
X99841767Y-88612634D01*
X99977301Y-88806195D01*
X99977306Y-88806202D01*
X100144397Y-88973293D01*
X100144403Y-88973298D01*
X100329958Y-89103225D01*
X100373583Y-89157802D01*
X100380777Y-89227300D01*
X100349254Y-89289655D01*
X100329958Y-89306375D01*
X100144397Y-89436305D01*
X99977305Y-89603397D01*
X99841765Y-89796969D01*
X99841764Y-89796971D01*
X99741898Y-90011135D01*
X99741894Y-90011144D01*
X99680738Y-90239386D01*
X99680736Y-90239396D01*
X99660141Y-90474799D01*
X99660141Y-90474800D01*
X99680736Y-90710203D01*
X99680738Y-90710213D01*
X99741894Y-90938455D01*
X99741896Y-90938459D01*
X99741897Y-90938463D01*
X99807679Y-91079532D01*
X99841765Y-91152630D01*
X99841767Y-91152634D01*
X99902168Y-91238895D01*
X99963682Y-91326746D01*
X99977301Y-91346195D01*
X99977306Y-91346202D01*
X100144397Y-91513293D01*
X100144403Y-91513298D01*
X100329958Y-91643225D01*
X100373583Y-91697802D01*
X100380777Y-91767300D01*
X100349254Y-91829655D01*
X100329958Y-91846375D01*
X100144397Y-91976305D01*
X99977305Y-92143397D01*
X99841765Y-92336969D01*
X99841764Y-92336971D01*
X99741898Y-92551135D01*
X99741894Y-92551144D01*
X99680738Y-92779386D01*
X99680736Y-92779396D01*
X99660141Y-93014799D01*
X99660141Y-93014800D01*
X98184200Y-93014800D01*
X98184200Y-75978770D01*
X130839900Y-75978770D01*
X130839901Y-75978776D01*
X130846308Y-76038383D01*
X130896602Y-76173228D01*
X130896606Y-76173235D01*
X130982852Y-76288444D01*
X130982855Y-76288447D01*
X131098064Y-76374693D01*
X131098071Y-76374697D01*
X131143018Y-76391461D01*
X131232917Y-76424991D01*
X131292527Y-76431400D01*
X132038272Y-76431399D01*
X132097883Y-76424991D01*
X132232731Y-76374696D01*
X132347946Y-76288446D01*
X132434196Y-76173231D01*
X132434285Y-76172993D01*
X132466497Y-76086628D01*
X132508368Y-76030694D01*
X132566492Y-76007021D01*
X132676780Y-75992502D01*
X132823247Y-75931833D01*
X132823248Y-75931831D01*
X132825411Y-75930936D01*
X132894880Y-75923467D01*
X132957359Y-75954742D01*
X132993012Y-76014831D01*
X132996153Y-76032241D01*
X132996801Y-76038272D01*
X132996803Y-76038279D01*
X133047045Y-76172986D01*
X133047049Y-76172993D01*
X133133209Y-76288087D01*
X133133212Y-76288090D01*
X133248306Y-76374250D01*
X133248313Y-76374254D01*
X133383020Y-76424496D01*
X133383027Y-76424498D01*
X133442555Y-76430899D01*
X133442572Y-76430900D01*
X133565400Y-76430900D01*
X133565400Y-75655900D01*
X134065400Y-75655900D01*
X134065400Y-76430900D01*
X134188228Y-76430900D01*
X134188244Y-76430899D01*
X134247772Y-76424498D01*
X134247779Y-76424496D01*
X134382486Y-76374254D01*
X134382493Y-76374250D01*
X134497587Y-76288090D01*
X134497590Y-76288087D01*
X134583750Y-76172993D01*
X134583754Y-76172986D01*
X134633996Y-76038279D01*
X134633998Y-76038272D01*
X134640399Y-75978744D01*
X134640400Y-75978727D01*
X134640400Y-75655900D01*
X134065400Y-75655900D01*
X133565400Y-75655900D01*
X133565400Y-75279900D01*
X133585085Y-75212861D01*
X133637889Y-75167106D01*
X133689400Y-75155900D01*
X134640400Y-75155900D01*
X134640400Y-74833072D01*
X134640399Y-74833055D01*
X134633998Y-74773527D01*
X134633996Y-74773520D01*
X134583754Y-74638813D01*
X134583752Y-74638810D01*
X134554692Y-74599991D01*
X134530274Y-74534527D01*
X134545125Y-74466254D01*
X134594530Y-74416848D01*
X134628172Y-74404390D01*
X134671203Y-74395244D01*
X134844130Y-74318251D01*
X134997271Y-74206988D01*
X135024067Y-74177227D01*
X135083554Y-74140579D01*
X135116217Y-74136200D01*
X136538337Y-74136200D01*
X136605376Y-74155885D01*
X136639564Y-74190710D01*
X136639979Y-74190383D01*
X136643025Y-74194235D01*
X136643873Y-74195099D01*
X136644458Y-74196047D01*
X136644460Y-74196050D01*
X136758429Y-74310019D01*
X136791914Y-74371342D01*
X136786930Y-74441034D01*
X136758429Y-74485381D01*
X136644461Y-74599348D01*
X136553893Y-74746181D01*
X136553891Y-74746186D01*
X136544831Y-74773527D01*
X136499626Y-74909947D01*
X136499626Y-74909948D01*
X136499625Y-74909948D01*
X136489300Y-75011015D01*
X136489300Y-75609369D01*
X136489301Y-75609387D01*
X136499625Y-75710452D01*
X136530541Y-75803748D01*
X136549032Y-75859551D01*
X136553892Y-75874215D01*
X136553893Y-75874218D01*
X136557619Y-75880259D01*
X136644460Y-76021050D01*
X136766450Y-76143040D01*
X136913284Y-76233608D01*
X137077047Y-76287874D01*
X137178123Y-76298200D01*
X137665750Y-76298199D01*
X137685145Y-76299725D01*
X137700307Y-76302126D01*
X137716729Y-76304726D01*
X137722452Y-76305912D01*
X137767581Y-76317500D01*
X137787616Y-76317500D01*
X137807013Y-76319026D01*
X137826796Y-76322160D01*
X137873183Y-76317775D01*
X137879022Y-76317500D01*
X138488252Y-76317500D01*
X138555291Y-76337185D01*
X138580400Y-76358526D01*
X138586126Y-76364885D01*
X138586130Y-76364889D01*
X138739265Y-76476148D01*
X138739270Y-76476151D01*
X138912192Y-76553142D01*
X138912197Y-76553144D01*
X139097354Y-76592500D01*
X139097355Y-76592500D01*
X139286644Y-76592500D01*
X139286646Y-76592500D01*
X139471803Y-76553144D01*
X139644730Y-76476151D01*
X139797871Y-76364888D01*
X139924533Y-76224216D01*
X140019179Y-76060284D01*
X140077674Y-75880256D01*
X140097460Y-75692000D01*
X140077674Y-75503744D01*
X140019179Y-75323716D01*
X139924533Y-75159784D01*
X139797871Y-75019112D01*
X139797870Y-75019111D01*
X139644734Y-74907851D01*
X139644729Y-74907848D01*
X139471807Y-74830857D01*
X139471802Y-74830855D01*
X139326000Y-74799865D01*
X139286646Y-74791500D01*
X139097354Y-74791500D01*
X139064897Y-74798398D01*
X138912197Y-74830855D01*
X138912192Y-74830857D01*
X138739271Y-74907848D01*
X138625446Y-74990546D01*
X138559639Y-75014025D01*
X138491585Y-74998199D01*
X138442891Y-74948093D01*
X138431306Y-74916172D01*
X138429974Y-74909947D01*
X138404494Y-74833055D01*
X138375708Y-74746184D01*
X138285140Y-74599350D01*
X138171171Y-74485381D01*
X138137686Y-74424058D01*
X138142670Y-74354366D01*
X138171171Y-74310019D01*
X138171170Y-74310018D01*
X138285140Y-74196050D01*
X138375708Y-74049216D01*
X138429974Y-73885453D01*
X138440300Y-73784377D01*
X138440299Y-73186024D01*
X138436823Y-73152000D01*
X138429974Y-73084947D01*
X138375708Y-72921184D01*
X138285140Y-72774350D01*
X138163150Y-72652360D01*
X138016316Y-72561792D01*
X137852553Y-72507526D01*
X137852551Y-72507525D01*
X137751478Y-72497200D01*
X137178130Y-72497200D01*
X137178112Y-72497201D01*
X137077047Y-72507525D01*
X136913284Y-72561792D01*
X136913281Y-72561793D01*
X136766448Y-72652361D01*
X136644461Y-72774348D01*
X136638683Y-72783716D01*
X136583551Y-72873098D01*
X136531605Y-72919821D01*
X136478014Y-72932000D01*
X135116217Y-72932000D01*
X135049178Y-72912315D01*
X135024067Y-72890972D01*
X134997270Y-72861211D01*
X134844134Y-72749951D01*
X134844129Y-72749948D01*
X134671207Y-72672957D01*
X134671202Y-72672955D01*
X134525400Y-72641965D01*
X134486046Y-72633600D01*
X134296754Y-72633600D01*
X134257398Y-72641965D01*
X134111598Y-72672955D01*
X134111593Y-72672957D01*
X134066533Y-72693019D01*
X133997283Y-72702303D01*
X133934007Y-72672674D01*
X133928418Y-72667420D01*
X133601719Y-72340721D01*
X133568234Y-72279398D01*
X133565400Y-72253040D01*
X133565400Y-71505900D01*
X134065400Y-71505900D01*
X134065400Y-72280900D01*
X134188228Y-72280900D01*
X134188244Y-72280899D01*
X134247772Y-72274498D01*
X134247779Y-72274496D01*
X134382486Y-72224254D01*
X134382493Y-72224250D01*
X134497587Y-72138090D01*
X134497590Y-72138087D01*
X134583750Y-72022993D01*
X134583754Y-72022986D01*
X134633996Y-71888279D01*
X134633998Y-71888272D01*
X134640399Y-71828744D01*
X134640400Y-71828727D01*
X134640400Y-71505900D01*
X134065400Y-71505900D01*
X133565400Y-71505900D01*
X132990400Y-71505900D01*
X132966330Y-71529970D01*
X132905007Y-71563455D01*
X132835315Y-71558471D01*
X132790968Y-71529970D01*
X132527218Y-71266220D01*
X132493733Y-71204897D01*
X132490899Y-71178539D01*
X132490899Y-71005900D01*
X132990400Y-71005900D01*
X133565400Y-71005900D01*
X133565400Y-70230900D01*
X134065400Y-70230900D01*
X134065400Y-71005900D01*
X134640400Y-71005900D01*
X134640400Y-70683072D01*
X134640399Y-70683055D01*
X134633998Y-70623527D01*
X134633996Y-70623520D01*
X134583754Y-70488813D01*
X134583750Y-70488806D01*
X134497590Y-70373712D01*
X134497587Y-70373709D01*
X134382493Y-70287549D01*
X134382486Y-70287545D01*
X134247779Y-70237303D01*
X134247772Y-70237301D01*
X134188244Y-70230900D01*
X134065400Y-70230900D01*
X133565400Y-70230900D01*
X133442555Y-70230900D01*
X133383027Y-70237301D01*
X133383020Y-70237303D01*
X133248313Y-70287545D01*
X133248306Y-70287549D01*
X133133212Y-70373709D01*
X133133209Y-70373712D01*
X133047049Y-70488806D01*
X133047045Y-70488813D01*
X132996803Y-70623520D01*
X132996801Y-70623527D01*
X132990400Y-70683055D01*
X132990400Y-71005900D01*
X132490899Y-71005900D01*
X132490899Y-70683029D01*
X132490898Y-70683023D01*
X132490897Y-70683016D01*
X132484491Y-70623417D01*
X132452669Y-70538099D01*
X132434197Y-70488571D01*
X132434193Y-70488564D01*
X132347947Y-70373355D01*
X132347944Y-70373352D01*
X132232735Y-70287106D01*
X132232728Y-70287102D01*
X132097886Y-70236810D01*
X132097885Y-70236809D01*
X132097883Y-70236809D01*
X132038273Y-70230400D01*
X132038263Y-70230400D01*
X131292529Y-70230400D01*
X131292523Y-70230401D01*
X131232916Y-70236808D01*
X131098071Y-70287102D01*
X131098064Y-70287106D01*
X130982855Y-70373352D01*
X130982852Y-70373355D01*
X130896606Y-70488564D01*
X130896602Y-70488571D01*
X130846308Y-70623417D01*
X130839901Y-70683016D01*
X130839901Y-70683023D01*
X130839900Y-70683035D01*
X130839900Y-71828770D01*
X130839901Y-71828776D01*
X130846308Y-71888383D01*
X130896602Y-72023228D01*
X130896606Y-72023235D01*
X130982852Y-72138444D01*
X130982855Y-72138447D01*
X131098064Y-72224693D01*
X131098071Y-72224697D01*
X131129763Y-72236517D01*
X131232917Y-72274991D01*
X131292527Y-72281400D01*
X131788039Y-72281399D01*
X131855078Y-72301083D01*
X131875720Y-72317718D01*
X133228320Y-73670318D01*
X133261805Y-73731641D01*
X133256821Y-73801333D01*
X133228320Y-73845680D01*
X132535913Y-74538087D01*
X132474590Y-74571572D01*
X132404898Y-74566588D01*
X132354775Y-74529066D01*
X132354217Y-74529625D01*
X132350329Y-74525737D01*
X132348966Y-74524717D01*
X132347946Y-74523354D01*
X132347944Y-74523353D01*
X132347944Y-74523352D01*
X132232735Y-74437106D01*
X132232728Y-74437102D01*
X132097886Y-74386810D01*
X132097885Y-74386809D01*
X132097883Y-74386809D01*
X132038273Y-74380400D01*
X132038263Y-74380400D01*
X131292529Y-74380400D01*
X131292523Y-74380401D01*
X131232916Y-74386808D01*
X131098071Y-74437102D01*
X131098064Y-74437106D01*
X130982855Y-74523352D01*
X130982852Y-74523355D01*
X130896606Y-74638564D01*
X130896602Y-74638571D01*
X130846308Y-74773417D01*
X130839901Y-74833016D01*
X130839900Y-74833035D01*
X130839900Y-75978770D01*
X98184200Y-75978770D01*
X98184200Y-74989670D01*
X105913700Y-74989670D01*
X105913701Y-74989676D01*
X105920108Y-75049283D01*
X105970402Y-75184128D01*
X105970406Y-75184135D01*
X106056652Y-75299344D01*
X106056655Y-75299347D01*
X106171864Y-75385593D01*
X106171871Y-75385597D01*
X106306717Y-75435891D01*
X106306716Y-75435891D01*
X106313644Y-75436635D01*
X106366327Y-75442300D01*
X108162072Y-75442299D01*
X108221683Y-75435891D01*
X108356531Y-75385596D01*
X108471746Y-75299346D01*
X108557996Y-75184131D01*
X108608291Y-75049283D01*
X108614700Y-74989673D01*
X108614699Y-73193928D01*
X108610192Y-73152000D01*
X121268540Y-73152000D01*
X121288326Y-73340256D01*
X121288327Y-73340259D01*
X121346818Y-73520277D01*
X121346821Y-73520284D01*
X121441467Y-73684216D01*
X121530162Y-73782721D01*
X121568129Y-73824888D01*
X121721265Y-73936148D01*
X121721270Y-73936151D01*
X121894192Y-74013142D01*
X121894197Y-74013144D01*
X122079354Y-74052500D01*
X122079355Y-74052500D01*
X122252900Y-74052500D01*
X122319939Y-74072185D01*
X122365694Y-74124989D01*
X122376900Y-74176500D01*
X122376900Y-74821870D01*
X122376901Y-74821876D01*
X122383308Y-74881483D01*
X122433602Y-75016328D01*
X122433606Y-75016335D01*
X122519852Y-75131544D01*
X122519855Y-75131547D01*
X122635064Y-75217793D01*
X122635071Y-75217797D01*
X122769917Y-75268091D01*
X122769916Y-75268091D01*
X122776844Y-75268835D01*
X122829527Y-75274500D01*
X123855272Y-75274499D01*
X123914883Y-75268091D01*
X124049731Y-75217796D01*
X124164946Y-75131546D01*
X124215491Y-75064026D01*
X124271423Y-75022157D01*
X124341115Y-75017173D01*
X124402438Y-75050658D01*
X124420293Y-75073240D01*
X124503260Y-75207750D01*
X124625250Y-75329740D01*
X124772084Y-75420308D01*
X124935847Y-75474574D01*
X125036923Y-75484900D01*
X125610276Y-75484899D01*
X125610284Y-75484898D01*
X125610287Y-75484898D01*
X125665630Y-75479244D01*
X125711353Y-75474574D01*
X125875116Y-75420308D01*
X126021950Y-75329740D01*
X126143940Y-75207750D01*
X126172419Y-75161577D01*
X126224365Y-75114854D01*
X126293328Y-75103631D01*
X126357410Y-75131474D01*
X126377221Y-75152361D01*
X126380652Y-75156944D01*
X126380655Y-75156947D01*
X126495864Y-75243193D01*
X126495871Y-75243197D01*
X126630717Y-75293491D01*
X126630716Y-75293491D01*
X126637644Y-75294235D01*
X126690327Y-75299900D01*
X127716072Y-75299899D01*
X127775683Y-75293491D01*
X127910531Y-75243196D01*
X127944368Y-75217864D01*
X128009829Y-75193447D01*
X128078103Y-75208297D01*
X128106360Y-75229450D01*
X128110060Y-75233150D01*
X128232050Y-75355140D01*
X128378884Y-75445708D01*
X128542647Y-75499974D01*
X128643723Y-75510300D01*
X129217076Y-75510299D01*
X129217084Y-75510298D01*
X129217087Y-75510298D01*
X129281246Y-75503744D01*
X129318153Y-75499974D01*
X129481916Y-75445708D01*
X129628750Y-75355140D01*
X129750740Y-75233150D01*
X129841308Y-75086316D01*
X129895574Y-74922553D01*
X129905900Y-74821477D01*
X129905899Y-74223124D01*
X129903133Y-74196051D01*
X129895574Y-74122047D01*
X129872528Y-74052500D01*
X129841308Y-73958284D01*
X129750740Y-73811450D01*
X129636417Y-73697127D01*
X129602932Y-73635804D01*
X129607916Y-73566112D01*
X129636417Y-73521764D01*
X129750348Y-73407833D01*
X129840848Y-73261111D01*
X129840853Y-73261100D01*
X129895080Y-73097452D01*
X129905399Y-72996454D01*
X129905400Y-72996441D01*
X129905400Y-72947300D01*
X128804400Y-72947300D01*
X128737361Y-72927615D01*
X128691606Y-72874811D01*
X128680400Y-72823300D01*
X128680400Y-71709800D01*
X129180400Y-71709800D01*
X129180400Y-72447300D01*
X129905399Y-72447300D01*
X129905399Y-72398160D01*
X129905398Y-72398145D01*
X129895080Y-72297147D01*
X129840853Y-72133499D01*
X129840848Y-72133488D01*
X129750347Y-71986765D01*
X129750344Y-71986761D01*
X129628438Y-71864855D01*
X129628434Y-71864852D01*
X129481711Y-71774351D01*
X129481700Y-71774346D01*
X129318052Y-71720119D01*
X129217054Y-71709800D01*
X129180400Y-71709800D01*
X128680400Y-71709800D01*
X128643761Y-71709800D01*
X128643743Y-71709801D01*
X128542747Y-71720119D01*
X128379099Y-71774346D01*
X128379088Y-71774351D01*
X128232365Y-71864852D01*
X128135816Y-71961401D01*
X128074492Y-71994885D01*
X128004801Y-71989901D01*
X127973825Y-71972986D01*
X127910531Y-71925604D01*
X127910528Y-71925602D01*
X127775682Y-71875308D01*
X127775683Y-71875308D01*
X127749940Y-71872541D01*
X127685389Y-71845803D01*
X127664819Y-71824737D01*
X127656852Y-71814354D01*
X127656851Y-71814353D01*
X127655414Y-71812480D01*
X127655397Y-71812459D01*
X127632621Y-71782777D01*
X127621633Y-71774346D01*
X127604268Y-71761021D01*
X127598178Y-71755680D01*
X127433779Y-71591281D01*
X127400294Y-71529958D01*
X127397460Y-71503600D01*
X127397460Y-71501002D01*
X127394264Y-71470595D01*
X127377674Y-71312744D01*
X127319179Y-71132716D01*
X127224533Y-70968784D01*
X127097871Y-70828112D01*
X127097870Y-70828111D01*
X126944734Y-70716851D01*
X126944729Y-70716848D01*
X126771807Y-70639857D01*
X126771802Y-70639855D01*
X126626001Y-70608865D01*
X126586646Y-70600500D01*
X126397354Y-70600500D01*
X126364897Y-70607398D01*
X126212197Y-70639855D01*
X126212192Y-70639857D01*
X126039270Y-70716848D01*
X126039265Y-70716851D01*
X125886129Y-70828111D01*
X125759466Y-70968785D01*
X125664821Y-71132715D01*
X125664818Y-71132722D01*
X125606327Y-71312740D01*
X125606326Y-71312744D01*
X125602773Y-71346553D01*
X125586540Y-71501000D01*
X125596569Y-71596429D01*
X125583999Y-71665159D01*
X125573600Y-71679543D01*
X125573600Y-72797900D01*
X125553915Y-72864939D01*
X125501111Y-72910694D01*
X125449600Y-72921900D01*
X125197600Y-72921900D01*
X125130561Y-72902215D01*
X125084806Y-72849411D01*
X125073600Y-72797900D01*
X125073600Y-71684400D01*
X125036961Y-71684400D01*
X125036943Y-71684401D01*
X124935947Y-71694719D01*
X124772299Y-71748946D01*
X124772288Y-71748951D01*
X124625565Y-71839452D01*
X124625561Y-71839455D01*
X124503654Y-71961362D01*
X124437795Y-72068136D01*
X124385847Y-72114860D01*
X124316884Y-72126081D01*
X124252802Y-72098237D01*
X124232991Y-72077349D01*
X124164947Y-71986455D01*
X124164944Y-71986452D01*
X124049735Y-71900206D01*
X124049728Y-71900202D01*
X123914882Y-71849908D01*
X123914883Y-71849908D01*
X123855283Y-71843501D01*
X123855281Y-71843500D01*
X123855273Y-71843500D01*
X123855264Y-71843500D01*
X122829529Y-71843500D01*
X122829523Y-71843501D01*
X122769916Y-71849908D01*
X122635071Y-71900202D01*
X122635064Y-71900206D01*
X122519856Y-71986452D01*
X122519855Y-71986453D01*
X122519854Y-71986454D01*
X122517274Y-71989901D01*
X122433602Y-72101671D01*
X122428193Y-72116174D01*
X122386318Y-72172106D01*
X122359467Y-72187395D01*
X122273354Y-72223065D01*
X122269693Y-72225875D01*
X122204524Y-72251070D01*
X122194206Y-72251500D01*
X122079354Y-72251500D01*
X122046897Y-72258398D01*
X121894197Y-72290855D01*
X121894192Y-72290857D01*
X121721270Y-72367848D01*
X121721265Y-72367851D01*
X121568129Y-72479111D01*
X121441466Y-72619785D01*
X121346821Y-72783715D01*
X121346818Y-72783722D01*
X121301922Y-72921900D01*
X121288326Y-72963744D01*
X121268540Y-73152000D01*
X108610192Y-73152000D01*
X108608291Y-73134317D01*
X108594541Y-73097452D01*
X108557997Y-72999471D01*
X108557993Y-72999464D01*
X108471747Y-72884255D01*
X108471744Y-72884252D01*
X108356535Y-72798006D01*
X108356528Y-72798002D01*
X108221682Y-72747708D01*
X108221683Y-72747708D01*
X108162083Y-72741301D01*
X108162081Y-72741300D01*
X108162073Y-72741300D01*
X108162064Y-72741300D01*
X106366329Y-72741300D01*
X106366323Y-72741301D01*
X106306716Y-72747708D01*
X106171871Y-72798002D01*
X106171864Y-72798006D01*
X106056655Y-72884252D01*
X106056652Y-72884255D01*
X105970406Y-72999464D01*
X105970402Y-72999471D01*
X105920108Y-73134317D01*
X105914549Y-73186030D01*
X105913701Y-73193923D01*
X105913700Y-73193935D01*
X105913700Y-74989670D01*
X98184200Y-74989670D01*
X98184200Y-69593500D01*
X98203885Y-69526461D01*
X98256689Y-69480706D01*
X98308200Y-69469500D01*
X113473799Y-69469500D01*
X113540838Y-69489185D01*
G37*
%TD.AperFunction*%
%TD*%
M02*
