M48
; DRILL file {KiCad 7.0.5} date Sun Nov  5 09:22:54 2023
; FORMAT={-:-/ absolute / inch / decimal}
; #@! TF.CreationDate,2023-11-05T09:22:54-05:00
; #@! TF.GenerationSoftware,Kicad,Pcbnew,7.0.5
; #@! TF.FileFunction,Plated,1,4,PTH
FMAT,2
INCH
; #@! TA.AperFunction,Plated,PTH,ViaDrill
T1C0.0157
; #@! TA.AperFunction,Plated,PTH,ComponentDrill
T2C0.0394
; #@! TA.AperFunction,Plated,PTH,ComponentDrill
T3C0.0512
; #@! TA.AperFunction,Plated,PTH,ComponentDrill
T4C0.0591
; #@! TA.AperFunction,Plated,PTH,ComponentDrill
T5C0.0630
%
G90
G05
T1
X3.92Y-3.78
X3.94Y-2.82
X3.94Y-2.96
X3.94Y-3.88
X3.94Y-3.98
X4.0Y-4.04
X4.0005Y-2.901
X4.02Y-3.8
X4.02Y-3.94
X4.08Y-2.78
X4.08Y-3.86
X4.1Y-4.02
X4.12Y-3.78
X4.14Y-3.02
X4.14Y-3.94
X4.18Y-3.86
X4.22Y-3.78
X4.22Y-3.92
X4.2307Y-3.0114
X4.24Y-3.58
X4.24Y-4.02
X4.27Y-3.215
X4.28Y-3.72
X4.28Y-3.86
X4.295Y-3.29
X4.3Y-3.5
X4.32Y-3.78
X4.32Y-3.94
X4.34Y-3.64
X4.36Y-3.46
X4.36Y-3.84
X4.36Y-4.04
X4.3706Y-3.0229
X4.38Y-3.72
X4.4Y-3.58
X4.42Y-3.64
X4.435Y-3.29
X4.44Y-3.8
X4.44Y-3.88
X4.44Y-3.98
X4.46Y-3.72
X4.478Y-3.428
X4.48Y-3.02
X4.5Y-3.5
X4.52Y-3.66
X4.52Y-3.76
X4.52Y-3.84
X4.52Y-3.94
X4.525Y-3.255
X4.54Y-3.215
X4.5967Y-3.2191
X4.598Y-3.54
X4.6Y-3.66
X4.605Y-3.1797
X4.64Y-3.02
X4.6419Y-3.1618
X4.6784Y-3.1621
X4.694Y-3.528
X4.694Y-3.5765
X4.694Y-3.625
X4.694Y-3.6735
X4.694Y-3.722
X4.694Y-3.7705
X4.694Y-3.819
X4.6975Y-3.1293
X4.71Y-3.095
X4.7485Y-3.186
X4.755Y-3.526
X4.755Y-3.5745
X4.755Y-3.623
X4.755Y-3.6715
X4.755Y-3.72
X4.755Y-3.7685
X4.755Y-3.817
X4.76Y-3.248
X4.763Y-3.482
X4.796Y-3.197
X4.808Y-3.398
X4.81Y-2.88
X4.812Y-3.482
X4.823Y-3.3485
X4.84Y-3.54
X4.861Y-3.482
X4.88Y-3.36
X4.9Y-3.62
X4.91Y-2.825
X4.913Y-3.482
X4.914Y-3.418
X4.943Y-3.156
X4.954Y-3.203
X4.96Y-3.54
X4.96Y-3.7
X4.97Y-3.482
X4.971Y-3.418
X4.98Y-2.815
X5.0Y-3.98
X5.02Y-3.16
X5.02Y-3.84
X5.022Y-3.482
X5.023Y-3.418
X5.04Y-3.62
X5.071Y-3.251
X5.071Y-3.482
X5.072Y-3.418
X5.074Y-3.302
X5.08Y-3.08
X5.08Y-3.54
X5.091Y-2.816
X5.1Y-3.72
X5.12Y-3.482
X5.121Y-3.418
X5.14Y-3.12
X5.16Y-3.96
X5.172Y-3.482
X5.173Y-3.418
X5.18Y-3.22
X5.18Y-3.84
X5.22Y-3.68
X5.229Y-3.482
X5.23Y-3.418
X5.24Y-3.16
X5.291Y-2.895
X5.3Y-3.76
X5.3Y-3.98
X5.3182Y-3.0997
X5.32Y-3.2
X5.32Y-3.84
X5.324Y-3.003
X5.325Y-2.812
X5.38Y-3.68
X5.4Y-3.16
X5.4Y-3.92
X5.44Y-3.12
X5.44Y-3.8
X5.4732Y-2.7869
X5.48Y-2.98
X5.52Y-2.92
T2
X3.977Y-3.162
X3.977Y-3.262
X3.977Y-3.362
X3.977Y-3.462
X3.977Y-3.562
X3.977Y-3.662
X4.137Y-3.248
X4.137Y-3.348
X4.137Y-3.448
X4.137Y-3.548
X4.223Y-2.917
T3
X4.4823Y-2.795
X4.6791Y-2.795
T4
X4.723Y-3.89
X5.352Y-3.448
T5
X4.623Y-3.79
X4.623Y-3.99
X4.823Y-3.79
X4.823Y-3.99
X5.252Y-3.348
X5.252Y-3.548
X5.452Y-3.348
X5.452Y-3.548
T0
M30
