%TF.GenerationSoftware,KiCad,Pcbnew,7.0.5*%
%TF.CreationDate,2023-11-05T09:22:55-05:00*%
%TF.ProjectId,radio,72616469-6f2e-46b6-9963-61645f706362,rev?*%
%TF.SameCoordinates,Original*%
%TF.FileFunction,Drillmap*%
%TF.FilePolarity,Positive*%
%FSLAX45Y45*%
G04 Gerber Fmt 4.5, Leading zero omitted, Abs format (unit mm)*
G04 Created by KiCad (PCBNEW 7.0.5) date 2023-11-05 09:22:55*
%MOMM*%
%LPD*%
G01*
G04 APERTURE LIST*
%ADD10C,0.100000*%
%ADD11C,0.200000*%
G04 APERTURE END LIST*
D10*
X9818370Y-6946900D02*
X14062710Y-6946900D01*
X14062710Y-10373360D01*
X9818370Y-10373360D01*
X9818370Y-6946900D01*
D11*
X10074147Y-10689844D02*
X10074147Y-10489844D01*
X10074147Y-10489844D02*
X10121766Y-10489844D01*
X10121766Y-10489844D02*
X10150337Y-10499368D01*
X10150337Y-10499368D02*
X10169385Y-10518415D01*
X10169385Y-10518415D02*
X10178909Y-10537463D01*
X10178909Y-10537463D02*
X10188433Y-10575558D01*
X10188433Y-10575558D02*
X10188433Y-10604130D01*
X10188433Y-10604130D02*
X10178909Y-10642225D01*
X10178909Y-10642225D02*
X10169385Y-10661272D01*
X10169385Y-10661272D02*
X10150337Y-10680320D01*
X10150337Y-10680320D02*
X10121766Y-10689844D01*
X10121766Y-10689844D02*
X10074147Y-10689844D01*
X10274147Y-10689844D02*
X10274147Y-10556510D01*
X10274147Y-10594606D02*
X10283671Y-10575558D01*
X10283671Y-10575558D02*
X10293194Y-10566034D01*
X10293194Y-10566034D02*
X10312242Y-10556510D01*
X10312242Y-10556510D02*
X10331290Y-10556510D01*
X10397956Y-10689844D02*
X10397956Y-10556510D01*
X10397956Y-10489844D02*
X10388433Y-10499368D01*
X10388433Y-10499368D02*
X10397956Y-10508891D01*
X10397956Y-10508891D02*
X10407480Y-10499368D01*
X10407480Y-10499368D02*
X10397956Y-10489844D01*
X10397956Y-10489844D02*
X10397956Y-10508891D01*
X10521766Y-10689844D02*
X10502718Y-10680320D01*
X10502718Y-10680320D02*
X10493194Y-10661272D01*
X10493194Y-10661272D02*
X10493194Y-10489844D01*
X10626528Y-10689844D02*
X10607480Y-10680320D01*
X10607480Y-10680320D02*
X10597956Y-10661272D01*
X10597956Y-10661272D02*
X10597956Y-10489844D01*
X10855099Y-10689844D02*
X10855099Y-10489844D01*
X10855099Y-10489844D02*
X10921766Y-10632701D01*
X10921766Y-10632701D02*
X10988433Y-10489844D01*
X10988433Y-10489844D02*
X10988433Y-10689844D01*
X11169385Y-10689844D02*
X11169385Y-10585082D01*
X11169385Y-10585082D02*
X11159861Y-10566034D01*
X11159861Y-10566034D02*
X11140814Y-10556510D01*
X11140814Y-10556510D02*
X11102718Y-10556510D01*
X11102718Y-10556510D02*
X11083671Y-10566034D01*
X11169385Y-10680320D02*
X11150337Y-10689844D01*
X11150337Y-10689844D02*
X11102718Y-10689844D01*
X11102718Y-10689844D02*
X11083671Y-10680320D01*
X11083671Y-10680320D02*
X11074147Y-10661272D01*
X11074147Y-10661272D02*
X11074147Y-10642225D01*
X11074147Y-10642225D02*
X11083671Y-10623177D01*
X11083671Y-10623177D02*
X11102718Y-10613653D01*
X11102718Y-10613653D02*
X11150337Y-10613653D01*
X11150337Y-10613653D02*
X11169385Y-10604130D01*
X11264623Y-10556510D02*
X11264623Y-10756510D01*
X11264623Y-10566034D02*
X11283671Y-10556510D01*
X11283671Y-10556510D02*
X11321766Y-10556510D01*
X11321766Y-10556510D02*
X11340813Y-10566034D01*
X11340813Y-10566034D02*
X11350337Y-10575558D01*
X11350337Y-10575558D02*
X11359861Y-10594606D01*
X11359861Y-10594606D02*
X11359861Y-10651749D01*
X11359861Y-10651749D02*
X11350337Y-10670796D01*
X11350337Y-10670796D02*
X11340813Y-10680320D01*
X11340813Y-10680320D02*
X11321766Y-10689844D01*
X11321766Y-10689844D02*
X11283671Y-10689844D01*
X11283671Y-10689844D02*
X11264623Y-10680320D01*
X11445575Y-10670796D02*
X11455099Y-10680320D01*
X11455099Y-10680320D02*
X11445575Y-10689844D01*
X11445575Y-10689844D02*
X11436052Y-10680320D01*
X11436052Y-10680320D02*
X11445575Y-10670796D01*
X11445575Y-10670796D02*
X11445575Y-10689844D01*
X11445575Y-10566034D02*
X11455099Y-10575558D01*
X11455099Y-10575558D02*
X11445575Y-10585082D01*
X11445575Y-10585082D02*
X11436052Y-10575558D01*
X11436052Y-10575558D02*
X11445575Y-10566034D01*
X11445575Y-10566034D02*
X11445575Y-10585082D01*
M02*
