%TF.GenerationSoftware,KiCad,Pcbnew,7.0.5*%
%TF.CreationDate,2023-11-05T09:22:56-05:00*%
%TF.ProjectId,radio,72616469-6f2e-46b6-9963-61645f706362,rev?*%
%TF.SameCoordinates,Original*%
%TF.FileFunction,Copper,L4,Bot*%
%TF.FilePolarity,Positive*%
%FSLAX46Y46*%
G04 Gerber Fmt 4.6, Leading zero omitted, Abs format (unit mm)*
G04 Created by KiCad (PCBNEW 7.0.5) date 2023-11-05 09:22:56*
%MOMM*%
%LPD*%
G01*
G04 APERTURE LIST*
%TA.AperFunction,ComponentPad*%
%ADD10R,1.700000X1.700000*%
%TD*%
%TA.AperFunction,ComponentPad*%
%ADD11O,1.700000X1.700000*%
%TD*%
%TA.AperFunction,ComponentPad*%
%ADD12R,2.250000X2.250000*%
%TD*%
%TA.AperFunction,ComponentPad*%
%ADD13C,2.400000*%
%TD*%
%TA.AperFunction,ComponentPad*%
%ADD14R,1.650000X1.650000*%
%TD*%
%TA.AperFunction,ComponentPad*%
%ADD15C,1.650000*%
%TD*%
%TA.AperFunction,ViaPad*%
%ADD16C,0.800000*%
%TD*%
%TA.AperFunction,Conductor*%
%ADD17C,0.203200*%
%TD*%
G04 APERTURE END LIST*
D10*
%TO.P,J2,1,Pin_1*%
%TO.N,Net-(J2-Pin_1)*%
X105079800Y-90119200D03*
D11*
%TO.P,J2,2,Pin_2*%
%TO.N,Net-(J2-Pin_2)*%
X105079800Y-87579200D03*
%TO.P,J2,3,Pin_3*%
%TO.N,Net-(J2-Pin_3)*%
X105079800Y-85039200D03*
%TO.P,J2,4,Pin_4*%
%TO.N,Net-(J2-Pin_4)*%
X105079800Y-82499200D03*
%TD*%
D10*
%TO.P,J3,1,Pin_1*%
%TO.N,Antenna_State*%
X107264200Y-74091800D03*
%TD*%
D12*
%TO.P,J6,1,1*%
%TO.N,Power_Amp_In*%
X119964200Y-98806000D03*
D13*
%TO.P,J6,2,2*%
%TO.N,GND*%
X122504200Y-96266000D03*
%TO.P,J6,3,3*%
X117424200Y-96266000D03*
%TO.P,J6,4,4*%
X117424200Y-101346000D03*
%TO.P,J6,5,5*%
X122504200Y-101346000D03*
%TD*%
D12*
%TO.P,J5,1,1*%
%TO.N,LNA_OUTPUT*%
X135940800Y-87579200D03*
D13*
%TO.P,J5,2,2*%
%TO.N,GND*%
X133400800Y-85039200D03*
%TO.P,J5,3,3*%
X133400800Y-90119200D03*
%TO.P,J5,4,4*%
X138480800Y-90119200D03*
%TO.P,J5,5,5*%
X138480800Y-85039200D03*
%TD*%
D10*
%TO.P,J1,1,Pin_1*%
%TO.N,/DIO0*%
X101015800Y-80314800D03*
D11*
%TO.P,J1,2,Pin_2*%
%TO.N,/DIO1*%
X101015800Y-82854800D03*
%TO.P,J1,3,Pin_3*%
%TO.N,/DIO2*%
X101015800Y-85394800D03*
%TO.P,J1,4,Pin_4*%
%TO.N,/DIO3*%
X101015800Y-87934800D03*
%TO.P,J1,5,Pin_5*%
%TO.N,/DIO4*%
X101015800Y-90474800D03*
%TO.P,J1,6,Pin_6*%
%TO.N,/DIO5*%
X101015800Y-93014800D03*
%TD*%
D14*
%TO.P,J4,01,01*%
%TO.N,+3.3V*%
X118849300Y-70993000D03*
D15*
%TO.P,J4,02,02*%
%TO.N,GND*%
X113849300Y-70993000D03*
%TD*%
D16*
%TO.N,GND*%
X128828800Y-86817200D03*
X129540000Y-94488000D03*
X129032000Y-89916000D03*
X131394200Y-86817200D03*
X130073400Y-86817200D03*
X112268000Y-92456000D03*
X100076000Y-71628000D03*
X110744000Y-102616000D03*
X131064000Y-100584000D03*
X111760000Y-90932000D03*
X120777000Y-90792300D03*
X130556000Y-79248000D03*
X126263400Y-86817200D03*
X120777000Y-93256100D03*
X134620000Y-95504000D03*
X107696000Y-90932000D03*
X120980200Y-88442800D03*
X127000000Y-101092000D03*
X139018507Y-70787274D03*
X105156000Y-76708000D03*
X112776000Y-96520000D03*
X103632000Y-98044000D03*
X102108000Y-96520000D03*
X114300000Y-88900000D03*
X132842000Y-86817200D03*
X136652000Y-93472000D03*
X133096000Y-80264000D03*
X135128000Y-97536000D03*
X125831600Y-81355100D03*
X140208000Y-74168000D03*
X135082844Y-78731483D03*
X114808000Y-95504000D03*
X117856000Y-76708000D03*
X138176000Y-79248000D03*
X112776000Y-98552000D03*
X120777000Y-95719900D03*
X120777000Y-89560400D03*
X124714000Y-71755000D03*
X105156000Y-100076000D03*
X108712000Y-98044000D03*
X132816600Y-88442800D03*
X114808000Y-92964000D03*
X128803400Y-82574300D03*
X119227600Y-93306900D03*
X123469400Y-88442800D03*
X116840000Y-92964000D03*
X137160000Y-80264000D03*
X122224800Y-88442800D03*
X106172000Y-98044000D03*
X119227600Y-95770700D03*
X135255000Y-71425900D03*
X119227600Y-90843100D03*
X129032000Y-78232000D03*
X134620000Y-101092000D03*
X111252000Y-94488000D03*
X114808000Y-100076000D03*
X124790200Y-88442800D03*
X135229600Y-76277300D03*
X113792000Y-76708000D03*
X120777000Y-96951800D03*
X124815600Y-86817200D03*
X127508000Y-97536000D03*
X131572000Y-97536000D03*
X107188000Y-99568000D03*
X99568000Y-96012000D03*
X131368800Y-88442800D03*
X127584200Y-86817200D03*
X108712000Y-94488000D03*
X119227600Y-89611200D03*
X114935000Y-82677000D03*
X109220000Y-88900000D03*
X104140000Y-102108000D03*
X127508000Y-80264000D03*
X138176000Y-96520000D03*
X130048000Y-88442800D03*
X100076000Y-75184000D03*
X124460000Y-91948000D03*
X120777000Y-92024200D03*
X100076000Y-98552000D03*
X104648000Y-96012000D03*
X132588000Y-93472000D03*
X125984000Y-93980000D03*
X110236000Y-92456000D03*
X135128000Y-81280000D03*
X126238000Y-88442800D03*
X125552200Y-80161300D03*
X119227600Y-97002600D03*
X102108000Y-100076000D03*
X113284000Y-94488000D03*
X110744000Y-97536000D03*
X107460319Y-76490342D03*
X100076000Y-101092000D03*
X107696000Y-102108000D03*
X128803400Y-88442800D03*
X103632000Y-70612000D03*
X125984000Y-89916000D03*
X137160000Y-99568000D03*
X128016000Y-91948000D03*
X111013348Y-76781872D03*
X119227600Y-94538800D03*
X107188000Y-96012000D03*
X101600000Y-102616000D03*
X109728000Y-100076000D03*
X131572000Y-81788000D03*
X129311700Y-71526700D03*
X122936000Y-89916000D03*
X110744000Y-87884000D03*
X112776000Y-101092000D03*
X119227600Y-92075000D03*
X109728000Y-96012000D03*
X101611486Y-73684360D03*
X114808000Y-97536000D03*
X120777000Y-94488000D03*
X127558800Y-88442800D03*
%TO.N,Net-(U1-VR_DIG)*%
X122503519Y-85051400D03*
X121818400Y-81203800D03*
%TO.N,Net-(U1-VR_ANA)*%
X123952000Y-85344000D03*
X120611900Y-80924400D03*
%TO.N,+3.3V*%
X112649000Y-83566000D03*
X122174000Y-73152000D03*
X139192000Y-75692000D03*
X108458000Y-81661000D03*
X109093000Y-83566000D03*
X115316000Y-81661000D03*
X122123200Y-86308100D03*
X116789200Y-89916000D03*
X128879600Y-83869700D03*
%TO.N,Antenna_State*%
X126492000Y-71501000D03*
X113741200Y-87071200D03*
%TO.N,/DIO0*%
X119634000Y-78613000D03*
%TO.N,/DIO1*%
X119316155Y-79483277D03*
%TO.N,/DIO2*%
X118831598Y-80316858D03*
%TO.N,/DIO3*%
X117905121Y-80310031D03*
%TO.N,/DIO4*%
X116967000Y-80765100D03*
%TO.N,/DIO5*%
X116755700Y-81764312D03*
%TO.N,Net-(U1-~{RESET})*%
X134391400Y-73534100D03*
X120904000Y-82499200D03*
%TD*%
D17*
%TO.N,Net-(U1-VR_DIG)*%
X121234200Y-81203800D02*
X120275400Y-82162600D01*
X121818400Y-81203800D02*
X121234200Y-81203800D01*
X120275400Y-82162600D02*
X120275400Y-83445400D01*
X121881400Y-85051400D02*
X122503519Y-85051400D01*
X120275400Y-83445400D02*
X121881400Y-85051400D01*
%TO.N,Net-(U1-VR_ANA)*%
X119380000Y-82156300D02*
X120611900Y-80924400D01*
X119380000Y-84201000D02*
X119380000Y-82156300D01*
X120858500Y-85679500D02*
X119380000Y-84201000D01*
X123952000Y-85344000D02*
X123616500Y-85679500D01*
X123616500Y-85679500D02*
X120858500Y-85679500D01*
%TO.N,Antenna_State*%
X106719000Y-94093400D02*
X100569029Y-94093400D01*
X99937200Y-79236200D02*
X105081600Y-74091800D01*
X105081600Y-74091800D02*
X107264200Y-74091800D01*
X100569029Y-94093400D02*
X99937200Y-93461571D01*
X99937200Y-93461571D02*
X99937200Y-79236200D01*
X123901200Y-74091800D02*
X107264200Y-74091800D01*
X113741200Y-87071200D02*
X106719000Y-94093400D01*
X126492000Y-71501000D02*
X123901200Y-74091800D01*
%TO.N,/DIO0*%
X102717600Y-78613000D02*
X101015800Y-80314800D01*
X119634000Y-78613000D02*
X102717600Y-78613000D01*
%TO.N,/DIO1*%
X118953878Y-79121000D02*
X104749600Y-79121000D01*
X104749600Y-79121000D02*
X101015800Y-82854800D01*
X119316155Y-79483277D02*
X118953878Y-79121000D01*
%TO.N,/DIO2*%
X118831598Y-80316858D02*
X118143740Y-79629000D01*
X111548397Y-79629000D02*
X107216797Y-83960600D01*
X107216797Y-83960600D02*
X102450000Y-83960600D01*
X102450000Y-83960600D02*
X101015800Y-85394800D01*
X118143740Y-79629000D02*
X111548397Y-79629000D01*
%TO.N,/DIO3*%
X117732090Y-80137000D02*
X111507371Y-80137000D01*
X117905121Y-80310031D02*
X117732090Y-80137000D01*
X102463600Y-86487000D02*
X101015800Y-87934800D01*
X105157371Y-86487000D02*
X102463600Y-86487000D01*
X111507371Y-80137000D02*
X105157371Y-86487000D01*
%TO.N,/DIO4*%
X116967000Y-80765100D02*
X116846900Y-80645000D01*
X116846900Y-80645000D02*
X113539371Y-80645000D01*
X113539371Y-80645000D02*
X105143771Y-89040600D01*
X102450000Y-89040600D02*
X101015800Y-90474800D01*
X105143771Y-89040600D02*
X102450000Y-89040600D01*
%TO.N,/DIO5*%
X106158400Y-91197800D02*
X104341400Y-93014800D01*
X116755700Y-81764312D02*
X115966588Y-80975200D01*
X106158400Y-88786600D02*
X106158400Y-91197800D01*
X115966588Y-80975200D02*
X113969800Y-80975200D01*
X104341400Y-93014800D02*
X101015800Y-93014800D01*
X113969800Y-80975200D02*
X106158400Y-88786600D01*
%TO.N,Net-(U1-~{RESET})*%
X120904000Y-82499200D02*
X122148600Y-82499200D01*
X122148600Y-82499200D02*
X131089400Y-73558400D01*
X131902200Y-73534100D02*
X134391400Y-73534100D01*
X131089400Y-73558400D02*
X131902200Y-73558400D01*
%TD*%
%TA.AperFunction,Conductor*%
%TO.N,GND*%
G36*
X113540838Y-69489185D02*
G01*
X113586593Y-69541989D01*
X113596537Y-69611147D01*
X113567512Y-69674703D01*
X113508734Y-69712477D01*
X113505892Y-69713275D01*
X113394399Y-69743148D01*
X113394390Y-69743152D01*
X113184271Y-69841132D01*
X113184269Y-69841133D01*
X113105877Y-69896024D01*
X113105876Y-69896024D01*
X113601765Y-70391913D01*
X113533671Y-70418874D01*
X113400808Y-70515405D01*
X113296125Y-70641945D01*
X113247668Y-70744920D01*
X112752324Y-70249576D01*
X112752324Y-70249577D01*
X112697433Y-70327969D01*
X112697432Y-70327971D01*
X112599452Y-70538090D01*
X112599448Y-70538099D01*
X112539447Y-70762031D01*
X112539445Y-70762041D01*
X112519239Y-70992999D01*
X112519239Y-70993000D01*
X112539445Y-71223958D01*
X112539447Y-71223968D01*
X112599448Y-71447900D01*
X112599452Y-71447909D01*
X112697432Y-71658029D01*
X112697433Y-71658031D01*
X112752323Y-71736422D01*
X112752324Y-71736423D01*
X113246752Y-71241994D01*
X113256488Y-71271956D01*
X113344486Y-71410619D01*
X113464203Y-71523040D01*
X113598810Y-71597041D01*
X113105875Y-72089975D01*
X113184273Y-72144868D01*
X113394390Y-72242847D01*
X113394399Y-72242851D01*
X113618331Y-72302852D01*
X113618341Y-72302854D01*
X113849299Y-72323061D01*
X113849301Y-72323061D01*
X114080258Y-72302854D01*
X114080268Y-72302852D01*
X114304200Y-72242851D01*
X114304209Y-72242847D01*
X114514330Y-72144867D01*
X114592723Y-72089975D01*
X114096834Y-71594086D01*
X114164929Y-71567126D01*
X114297792Y-71470595D01*
X114402475Y-71344055D01*
X114450931Y-71241079D01*
X114946275Y-71736423D01*
X115001167Y-71658030D01*
X115099147Y-71447909D01*
X115099151Y-71447900D01*
X115159152Y-71223968D01*
X115159154Y-71223958D01*
X115179361Y-70993000D01*
X115179361Y-70992999D01*
X115159154Y-70762041D01*
X115159152Y-70762031D01*
X115099151Y-70538099D01*
X115099147Y-70538090D01*
X115001168Y-70327972D01*
X114946274Y-70249576D01*
X114451846Y-70744004D01*
X114442112Y-70714044D01*
X114354114Y-70575381D01*
X114234397Y-70462960D01*
X114099789Y-70388958D01*
X114592723Y-69896024D01*
X114592722Y-69896023D01*
X114514331Y-69841133D01*
X114514329Y-69841132D01*
X114304209Y-69743152D01*
X114304200Y-69743148D01*
X114192708Y-69713275D01*
X114133048Y-69676910D01*
X114102518Y-69614064D01*
X114110812Y-69544688D01*
X114155297Y-69490810D01*
X114221849Y-69469535D01*
X114224801Y-69469500D01*
X117777571Y-69469500D01*
X117844610Y-69489185D01*
X117890365Y-69541989D01*
X117900309Y-69611147D01*
X117871284Y-69674703D01*
X117820904Y-69709682D01*
X117781971Y-69724202D01*
X117781964Y-69724206D01*
X117666755Y-69810452D01*
X117666752Y-69810455D01*
X117580506Y-69925664D01*
X117580502Y-69925671D01*
X117530208Y-70060517D01*
X117523801Y-70120116D01*
X117523801Y-70120123D01*
X117523800Y-70120135D01*
X117523800Y-71865870D01*
X117523801Y-71865876D01*
X117530208Y-71925483D01*
X117580502Y-72060328D01*
X117580506Y-72060335D01*
X117666752Y-72175544D01*
X117666755Y-72175547D01*
X117781964Y-72261793D01*
X117781971Y-72261797D01*
X117916817Y-72312091D01*
X117916816Y-72312091D01*
X117923744Y-72312835D01*
X117976427Y-72318500D01*
X119722172Y-72318499D01*
X119781783Y-72312091D01*
X119916631Y-72261796D01*
X120031846Y-72175546D01*
X120118096Y-72060331D01*
X120168391Y-71925483D01*
X120174800Y-71865873D01*
X120174799Y-70120128D01*
X120168391Y-70060517D01*
X120118096Y-69925669D01*
X120118095Y-69925668D01*
X120118093Y-69925664D01*
X120031847Y-69810455D01*
X120031844Y-69810452D01*
X119916635Y-69724206D01*
X119916628Y-69724202D01*
X119877696Y-69709682D01*
X119821763Y-69667811D01*
X119797345Y-69602347D01*
X119812196Y-69534074D01*
X119861601Y-69484668D01*
X119921029Y-69469500D01*
X140502600Y-69469500D01*
X140569639Y-69489185D01*
X140615394Y-69541989D01*
X140626600Y-69593500D01*
X140626600Y-103609100D01*
X140606915Y-103676139D01*
X140554111Y-103721894D01*
X140502600Y-103733100D01*
X98308200Y-103733100D01*
X98241161Y-103713415D01*
X98195406Y-103660611D01*
X98184200Y-103609100D01*
X98184200Y-101346004D01*
X115719433Y-101346004D01*
X115738473Y-101600079D01*
X115795168Y-101848477D01*
X115795173Y-101848494D01*
X115888258Y-102085671D01*
X115888257Y-102085671D01*
X116015657Y-102306332D01*
X116057652Y-102358993D01*
X116707538Y-101709107D01*
X116794777Y-101847948D01*
X116922252Y-101975423D01*
X117061090Y-102062660D01*
X116411013Y-102712737D01*
X116571823Y-102822375D01*
X116571824Y-102822376D01*
X116801376Y-102932921D01*
X116801374Y-102932921D01*
X117044852Y-103008024D01*
X117044858Y-103008026D01*
X117296795Y-103045999D01*
X117296804Y-103046000D01*
X117551596Y-103046000D01*
X117551604Y-103045999D01*
X117803541Y-103008026D01*
X117803547Y-103008024D01*
X118047024Y-102932921D01*
X118276581Y-102822373D01*
X118437385Y-102712737D01*
X117787308Y-102062661D01*
X117926148Y-101975423D01*
X118053623Y-101847948D01*
X118140861Y-101709108D01*
X118790745Y-102358993D01*
X118832745Y-102306327D01*
X118960141Y-102085671D01*
X119053226Y-101848494D01*
X119053231Y-101848477D01*
X119109926Y-101600079D01*
X119128967Y-101346004D01*
X119128967Y-101345995D01*
X119109926Y-101091920D01*
X119053231Y-100843522D01*
X119053226Y-100843505D01*
X118958447Y-100602010D01*
X118960251Y-100601301D01*
X118950223Y-100540341D01*
X118977955Y-100476210D01*
X119035956Y-100437254D01*
X119073287Y-100431499D01*
X120855107Y-100431499D01*
X120922146Y-100451184D01*
X120967901Y-100503988D01*
X120977845Y-100573146D01*
X120969147Y-100601693D01*
X120969953Y-100602010D01*
X120875173Y-100843505D01*
X120875168Y-100843522D01*
X120818473Y-101091920D01*
X120799433Y-101345995D01*
X120799433Y-101346004D01*
X120818473Y-101600079D01*
X120875168Y-101848477D01*
X120875173Y-101848494D01*
X120968258Y-102085671D01*
X120968257Y-102085671D01*
X121095657Y-102306332D01*
X121137652Y-102358993D01*
X121787538Y-101709107D01*
X121874777Y-101847948D01*
X122002252Y-101975423D01*
X122141090Y-102062661D01*
X121491013Y-102712737D01*
X121651823Y-102822375D01*
X121651824Y-102822376D01*
X121881376Y-102932921D01*
X121881374Y-102932921D01*
X122124852Y-103008024D01*
X122124858Y-103008026D01*
X122376795Y-103045999D01*
X122376804Y-103046000D01*
X122631596Y-103046000D01*
X122631604Y-103045999D01*
X122883541Y-103008026D01*
X122883547Y-103008024D01*
X123127024Y-102932921D01*
X123356581Y-102822373D01*
X123517385Y-102712737D01*
X122867308Y-102062661D01*
X123006148Y-101975423D01*
X123133623Y-101847948D01*
X123220861Y-101709109D01*
X123870745Y-102358993D01*
X123912745Y-102306327D01*
X124040141Y-102085671D01*
X124133226Y-101848494D01*
X124133231Y-101848477D01*
X124189926Y-101600079D01*
X124208967Y-101346004D01*
X124208967Y-101345995D01*
X124189926Y-101091920D01*
X124133231Y-100843522D01*
X124133226Y-100843505D01*
X124040141Y-100606328D01*
X124040142Y-100606328D01*
X123912744Y-100385671D01*
X123870746Y-100333006D01*
X123220861Y-100982890D01*
X123133623Y-100844052D01*
X123006148Y-100716577D01*
X122867308Y-100629338D01*
X123517385Y-99979261D01*
X123356577Y-99869624D01*
X123356576Y-99869623D01*
X123127023Y-99759078D01*
X123127025Y-99759078D01*
X122883547Y-99683975D01*
X122883541Y-99683973D01*
X122631604Y-99646000D01*
X122376795Y-99646000D01*
X122124858Y-99683973D01*
X122124852Y-99683975D01*
X121881375Y-99759078D01*
X121767500Y-99813918D01*
X121698559Y-99825270D01*
X121634425Y-99797548D01*
X121595459Y-99739552D01*
X121589699Y-99702203D01*
X121589699Y-97909801D01*
X121609384Y-97842763D01*
X121662188Y-97797008D01*
X121731346Y-97787064D01*
X121767500Y-97798082D01*
X121881376Y-97852921D01*
X121881374Y-97852921D01*
X122124852Y-97928024D01*
X122124858Y-97928026D01*
X122376795Y-97965999D01*
X122376804Y-97966000D01*
X122631596Y-97966000D01*
X122631604Y-97965999D01*
X122883541Y-97928026D01*
X122883547Y-97928024D01*
X123127024Y-97852921D01*
X123356581Y-97742373D01*
X123517385Y-97632737D01*
X122867308Y-96982661D01*
X123006148Y-96895423D01*
X123133623Y-96767948D01*
X123220861Y-96629109D01*
X123870745Y-97278993D01*
X123912745Y-97226327D01*
X124040141Y-97005671D01*
X124133226Y-96768494D01*
X124133231Y-96768477D01*
X124189926Y-96520079D01*
X124208967Y-96266004D01*
X124208967Y-96265995D01*
X124189926Y-96011920D01*
X124133231Y-95763522D01*
X124133226Y-95763505D01*
X124040141Y-95526328D01*
X124040142Y-95526328D01*
X123912744Y-95305671D01*
X123870746Y-95253006D01*
X123220861Y-95902890D01*
X123133623Y-95764052D01*
X123006148Y-95636577D01*
X122867307Y-95549337D01*
X123517385Y-94899261D01*
X123356577Y-94789624D01*
X123356576Y-94789623D01*
X123127023Y-94679078D01*
X123127025Y-94679078D01*
X122883547Y-94603975D01*
X122883541Y-94603973D01*
X122631604Y-94566000D01*
X122376795Y-94566000D01*
X122124858Y-94603973D01*
X122124852Y-94603975D01*
X121881375Y-94679078D01*
X121651824Y-94789623D01*
X121651816Y-94789628D01*
X121491013Y-94899261D01*
X122141091Y-95549338D01*
X122002252Y-95636577D01*
X121874777Y-95764052D01*
X121787538Y-95902891D01*
X121137653Y-95253006D01*
X121095655Y-95305670D01*
X120968258Y-95526328D01*
X120875173Y-95763505D01*
X120875168Y-95763522D01*
X120818473Y-96011920D01*
X120799433Y-96265995D01*
X120799433Y-96266004D01*
X120818473Y-96520079D01*
X120875168Y-96768477D01*
X120875173Y-96768494D01*
X120969953Y-97009990D01*
X120968140Y-97010701D01*
X120978182Y-97071618D01*
X120950471Y-97135758D01*
X120892482Y-97174733D01*
X120855107Y-97180500D01*
X119073293Y-97180500D01*
X119006254Y-97160815D01*
X118960499Y-97108011D01*
X118950555Y-97038853D01*
X118959256Y-97010307D01*
X118958447Y-97009990D01*
X119053226Y-96768494D01*
X119053231Y-96768477D01*
X119109926Y-96520079D01*
X119128967Y-96266004D01*
X119128967Y-96265995D01*
X119109926Y-96011920D01*
X119053231Y-95763522D01*
X119053226Y-95763505D01*
X118960141Y-95526328D01*
X118960142Y-95526328D01*
X118832744Y-95305671D01*
X118790745Y-95253005D01*
X118140860Y-95902890D01*
X118053623Y-95764052D01*
X117926148Y-95636577D01*
X117787308Y-95549338D01*
X118437385Y-94899261D01*
X118276577Y-94789624D01*
X118276576Y-94789623D01*
X118047023Y-94679078D01*
X118047025Y-94679078D01*
X117803547Y-94603975D01*
X117803541Y-94603973D01*
X117551604Y-94566000D01*
X117296795Y-94566000D01*
X117044858Y-94603973D01*
X117044852Y-94603975D01*
X116801375Y-94679078D01*
X116571824Y-94789623D01*
X116571816Y-94789628D01*
X116411013Y-94899261D01*
X117061091Y-95549338D01*
X116922252Y-95636577D01*
X116794777Y-95764052D01*
X116707538Y-95902891D01*
X116057653Y-95253006D01*
X116015655Y-95305670D01*
X115888258Y-95526328D01*
X115795173Y-95763505D01*
X115795168Y-95763522D01*
X115738473Y-96011920D01*
X115719433Y-96265995D01*
X115719433Y-96266004D01*
X115738473Y-96520079D01*
X115795168Y-96768477D01*
X115795173Y-96768494D01*
X115888258Y-97005671D01*
X115888257Y-97005671D01*
X116015657Y-97226332D01*
X116057652Y-97278993D01*
X116057653Y-97278993D01*
X116707538Y-96629108D01*
X116794777Y-96767948D01*
X116922252Y-96895423D01*
X117061090Y-96982661D01*
X116411013Y-97632737D01*
X116571823Y-97742375D01*
X116571824Y-97742376D01*
X116801376Y-97852921D01*
X116801374Y-97852921D01*
X117044852Y-97928024D01*
X117044858Y-97928026D01*
X117296795Y-97965999D01*
X117296804Y-97966000D01*
X117551596Y-97966000D01*
X117551604Y-97965999D01*
X117803541Y-97928026D01*
X117803547Y-97928024D01*
X118047021Y-97852922D01*
X118160898Y-97798082D01*
X118229839Y-97786730D01*
X118293974Y-97814452D01*
X118332940Y-97872447D01*
X118338700Y-97909802D01*
X118338700Y-99702197D01*
X118319015Y-99769236D01*
X118266211Y-99814991D01*
X118197053Y-99824935D01*
X118160899Y-99813917D01*
X118047023Y-99759078D01*
X118047025Y-99759078D01*
X117803547Y-99683975D01*
X117803541Y-99683973D01*
X117551604Y-99646000D01*
X117296795Y-99646000D01*
X117044858Y-99683973D01*
X117044852Y-99683975D01*
X116801375Y-99759078D01*
X116571824Y-99869623D01*
X116571816Y-99869628D01*
X116411013Y-99979261D01*
X117061091Y-100629338D01*
X116922252Y-100716577D01*
X116794777Y-100844052D01*
X116707538Y-100982891D01*
X116057653Y-100333006D01*
X116015655Y-100385670D01*
X115888258Y-100606328D01*
X115795173Y-100843505D01*
X115795168Y-100843522D01*
X115738473Y-101091920D01*
X115719433Y-101345995D01*
X115719433Y-101346004D01*
X98184200Y-101346004D01*
X98184200Y-93461569D01*
X99329906Y-93461569D01*
X99334570Y-93497007D01*
X99335100Y-93501031D01*
X99348314Y-93601402D01*
X99350598Y-93618751D01*
X99411267Y-93765218D01*
X99436447Y-93798033D01*
X99483547Y-93859418D01*
X99483549Y-93859419D01*
X99507776Y-93890991D01*
X99507778Y-93890993D01*
X99536128Y-93912747D01*
X99542231Y-93918100D01*
X100112498Y-94488367D01*
X100117851Y-94494470D01*
X100117855Y-94494475D01*
X100139607Y-94522822D01*
X100170114Y-94546231D01*
X100170131Y-94546245D01*
X100262154Y-94616856D01*
X100263686Y-94618199D01*
X100265381Y-94619332D01*
X100265382Y-94619333D01*
X100411849Y-94680002D01*
X100529569Y-94695500D01*
X100529574Y-94695500D01*
X100531480Y-94695751D01*
X100569029Y-94700694D01*
X100569030Y-94700694D01*
X100604449Y-94696031D01*
X100612550Y-94695500D01*
X106675479Y-94695500D01*
X106683577Y-94696030D01*
X106704137Y-94698737D01*
X106718999Y-94700694D01*
X106719000Y-94700694D01*
X106719001Y-94700694D01*
X106754421Y-94696031D01*
X106756527Y-94695753D01*
X106756553Y-94695751D01*
X106758460Y-94695500D01*
X106876180Y-94680002D01*
X107022647Y-94619333D01*
X107022646Y-94619333D01*
X107022647Y-94619331D01*
X107060171Y-94603789D01*
X107083822Y-94572391D01*
X107116847Y-94547051D01*
X107116847Y-94547049D01*
X107124937Y-94540843D01*
X107124945Y-94540836D01*
X107127673Y-94538742D01*
X107148422Y-94522822D01*
X107170179Y-94494466D01*
X107175519Y-94488377D01*
X111747897Y-89916000D01*
X115883740Y-89916000D01*
X115903526Y-90104256D01*
X115903527Y-90104259D01*
X115962018Y-90284277D01*
X115962021Y-90284284D01*
X116056667Y-90448216D01*
X116183328Y-90588887D01*
X116183329Y-90588888D01*
X116336465Y-90700148D01*
X116336470Y-90700151D01*
X116509392Y-90777142D01*
X116509397Y-90777144D01*
X116694554Y-90816500D01*
X116694555Y-90816500D01*
X116883844Y-90816500D01*
X116883846Y-90816500D01*
X117069003Y-90777144D01*
X117241930Y-90700151D01*
X117395071Y-90588888D01*
X117521733Y-90448216D01*
X117616379Y-90284284D01*
X117670017Y-90119204D01*
X131696033Y-90119204D01*
X131715073Y-90373279D01*
X131771768Y-90621677D01*
X131771773Y-90621694D01*
X131864858Y-90858871D01*
X131864857Y-90858871D01*
X131992257Y-91079532D01*
X132034252Y-91132193D01*
X132684138Y-90482307D01*
X132771377Y-90621148D01*
X132898852Y-90748623D01*
X133037690Y-90835860D01*
X132387613Y-91485937D01*
X132548423Y-91595575D01*
X132548424Y-91595576D01*
X132777976Y-91706121D01*
X132777974Y-91706121D01*
X133021452Y-91781224D01*
X133021458Y-91781226D01*
X133273395Y-91819199D01*
X133273404Y-91819200D01*
X133528196Y-91819200D01*
X133528204Y-91819199D01*
X133780141Y-91781226D01*
X133780147Y-91781224D01*
X134023624Y-91706121D01*
X134253181Y-91595573D01*
X134413985Y-91485937D01*
X133763908Y-90835861D01*
X133902748Y-90748623D01*
X134030223Y-90621148D01*
X134117461Y-90482308D01*
X134767345Y-91132193D01*
X134809345Y-91079527D01*
X134936741Y-90858871D01*
X135029826Y-90621694D01*
X135029831Y-90621677D01*
X135086526Y-90373279D01*
X135105567Y-90119204D01*
X135105567Y-90119195D01*
X135086526Y-89865120D01*
X135029831Y-89616722D01*
X135029826Y-89616705D01*
X134935047Y-89375210D01*
X134936851Y-89374501D01*
X134926823Y-89313541D01*
X134954555Y-89249410D01*
X135012556Y-89210454D01*
X135049887Y-89204699D01*
X136831707Y-89204699D01*
X136898746Y-89224384D01*
X136944501Y-89277188D01*
X136954445Y-89346346D01*
X136945747Y-89374893D01*
X136946553Y-89375210D01*
X136851773Y-89616705D01*
X136851768Y-89616722D01*
X136795073Y-89865120D01*
X136776033Y-90119195D01*
X136776033Y-90119204D01*
X136795073Y-90373279D01*
X136851768Y-90621677D01*
X136851773Y-90621694D01*
X136944858Y-90858871D01*
X136944857Y-90858871D01*
X137072257Y-91079532D01*
X137114252Y-91132193D01*
X137764138Y-90482307D01*
X137851377Y-90621148D01*
X137978852Y-90748623D01*
X138117690Y-90835861D01*
X137467613Y-91485937D01*
X137628423Y-91595575D01*
X137628424Y-91595576D01*
X137857976Y-91706121D01*
X137857974Y-91706121D01*
X138101452Y-91781224D01*
X138101458Y-91781226D01*
X138353395Y-91819199D01*
X138353404Y-91819200D01*
X138608196Y-91819200D01*
X138608204Y-91819199D01*
X138860141Y-91781226D01*
X138860147Y-91781224D01*
X139103624Y-91706121D01*
X139333181Y-91595573D01*
X139493985Y-91485937D01*
X138843908Y-90835861D01*
X138982748Y-90748623D01*
X139110223Y-90621148D01*
X139197461Y-90482308D01*
X139847345Y-91132193D01*
X139889345Y-91079527D01*
X140016741Y-90858871D01*
X140109826Y-90621694D01*
X140109831Y-90621677D01*
X140166526Y-90373279D01*
X140185567Y-90119204D01*
X140185567Y-90119195D01*
X140166526Y-89865120D01*
X140109831Y-89616722D01*
X140109826Y-89616705D01*
X140016741Y-89379528D01*
X140016742Y-89379528D01*
X139889344Y-89158871D01*
X139847346Y-89106206D01*
X139197461Y-89756090D01*
X139110223Y-89617252D01*
X138982748Y-89489777D01*
X138843908Y-89402538D01*
X139493985Y-88752461D01*
X139333177Y-88642824D01*
X139333176Y-88642823D01*
X139103623Y-88532278D01*
X139103625Y-88532278D01*
X138860147Y-88457175D01*
X138860141Y-88457173D01*
X138608204Y-88419200D01*
X138353395Y-88419200D01*
X138101458Y-88457173D01*
X138101452Y-88457175D01*
X137857975Y-88532278D01*
X137744100Y-88587118D01*
X137675159Y-88598470D01*
X137611025Y-88570748D01*
X137572059Y-88512752D01*
X137566299Y-88475403D01*
X137566299Y-86683001D01*
X137585984Y-86615963D01*
X137638788Y-86570208D01*
X137707946Y-86560264D01*
X137744100Y-86571282D01*
X137857976Y-86626121D01*
X137857974Y-86626121D01*
X138101452Y-86701224D01*
X138101458Y-86701226D01*
X138353395Y-86739199D01*
X138353404Y-86739200D01*
X138608196Y-86739200D01*
X138608204Y-86739199D01*
X138860141Y-86701226D01*
X138860147Y-86701224D01*
X139103624Y-86626121D01*
X139333181Y-86515573D01*
X139493985Y-86405937D01*
X138843908Y-85755861D01*
X138982748Y-85668623D01*
X139110223Y-85541148D01*
X139197461Y-85402308D01*
X139847345Y-86052193D01*
X139889345Y-85999527D01*
X140016741Y-85778871D01*
X140109826Y-85541694D01*
X140109831Y-85541677D01*
X140166526Y-85293279D01*
X140185567Y-85039204D01*
X140185567Y-85039195D01*
X140166526Y-84785120D01*
X140109831Y-84536722D01*
X140109826Y-84536705D01*
X140016741Y-84299528D01*
X140016742Y-84299528D01*
X139889344Y-84078871D01*
X139847345Y-84026205D01*
X139197460Y-84676090D01*
X139110223Y-84537252D01*
X138982748Y-84409777D01*
X138843907Y-84322537D01*
X139493985Y-83672461D01*
X139333177Y-83562824D01*
X139333176Y-83562823D01*
X139103623Y-83452278D01*
X139103625Y-83452278D01*
X138860147Y-83377175D01*
X138860141Y-83377173D01*
X138608204Y-83339200D01*
X138353395Y-83339200D01*
X138101458Y-83377173D01*
X138101452Y-83377175D01*
X137857975Y-83452278D01*
X137628424Y-83562823D01*
X137628416Y-83562828D01*
X137467613Y-83672461D01*
X138117691Y-84322538D01*
X137978852Y-84409777D01*
X137851377Y-84537252D01*
X137764138Y-84676091D01*
X137114253Y-84026206D01*
X137072255Y-84078870D01*
X136944858Y-84299528D01*
X136851773Y-84536705D01*
X136851768Y-84536722D01*
X136795073Y-84785120D01*
X136776033Y-85039195D01*
X136776033Y-85039204D01*
X136795073Y-85293279D01*
X136851768Y-85541677D01*
X136851773Y-85541694D01*
X136946553Y-85783190D01*
X136944740Y-85783901D01*
X136954782Y-85844818D01*
X136927071Y-85908958D01*
X136869082Y-85947933D01*
X136831707Y-85953700D01*
X135049893Y-85953700D01*
X134982854Y-85934015D01*
X134937099Y-85881211D01*
X134927155Y-85812053D01*
X134935856Y-85783507D01*
X134935047Y-85783190D01*
X135029826Y-85541694D01*
X135029831Y-85541677D01*
X135086526Y-85293279D01*
X135105567Y-85039204D01*
X135105567Y-85039195D01*
X135086526Y-84785120D01*
X135029831Y-84536722D01*
X135029826Y-84536705D01*
X134936741Y-84299528D01*
X134936742Y-84299528D01*
X134809344Y-84078871D01*
X134767345Y-84026205D01*
X134117460Y-84676090D01*
X134030223Y-84537252D01*
X133902748Y-84409777D01*
X133763908Y-84322538D01*
X134413985Y-83672461D01*
X134253177Y-83562824D01*
X134253176Y-83562823D01*
X134023623Y-83452278D01*
X134023625Y-83452278D01*
X133780147Y-83377175D01*
X133780141Y-83377173D01*
X133528204Y-83339200D01*
X133273395Y-83339200D01*
X133021458Y-83377173D01*
X133021452Y-83377175D01*
X132777975Y-83452278D01*
X132548424Y-83562823D01*
X132548416Y-83562828D01*
X132387613Y-83672461D01*
X133037691Y-84322538D01*
X132898852Y-84409777D01*
X132771377Y-84537252D01*
X132684138Y-84676091D01*
X132034253Y-84026206D01*
X131992255Y-84078870D01*
X131864858Y-84299528D01*
X131771773Y-84536705D01*
X131771768Y-84536722D01*
X131715073Y-84785120D01*
X131696033Y-85039195D01*
X131696033Y-85039204D01*
X131715073Y-85293279D01*
X131771768Y-85541677D01*
X131771773Y-85541694D01*
X131864858Y-85778871D01*
X131864857Y-85778871D01*
X131992257Y-85999532D01*
X132034252Y-86052193D01*
X132034253Y-86052193D01*
X132684138Y-85402308D01*
X132771377Y-85541148D01*
X132898852Y-85668623D01*
X133037690Y-85755861D01*
X132387613Y-86405937D01*
X132548423Y-86515575D01*
X132548424Y-86515576D01*
X132777976Y-86626121D01*
X132777974Y-86626121D01*
X133021452Y-86701224D01*
X133021458Y-86701226D01*
X133273395Y-86739199D01*
X133273404Y-86739200D01*
X133528196Y-86739200D01*
X133528204Y-86739199D01*
X133780141Y-86701226D01*
X133780147Y-86701224D01*
X134023621Y-86626122D01*
X134137498Y-86571282D01*
X134206439Y-86559930D01*
X134270574Y-86587652D01*
X134309540Y-86645647D01*
X134315300Y-86683002D01*
X134315300Y-88475397D01*
X134295615Y-88542436D01*
X134242811Y-88588191D01*
X134173653Y-88598135D01*
X134137499Y-88587117D01*
X134023623Y-88532278D01*
X134023625Y-88532278D01*
X133780147Y-88457175D01*
X133780141Y-88457173D01*
X133528204Y-88419200D01*
X133273395Y-88419200D01*
X133021458Y-88457173D01*
X133021452Y-88457175D01*
X132777975Y-88532278D01*
X132548424Y-88642823D01*
X132548416Y-88642828D01*
X132387613Y-88752461D01*
X133037691Y-89402538D01*
X132898852Y-89489777D01*
X132771377Y-89617252D01*
X132684139Y-89756090D01*
X132034253Y-89106206D01*
X131992255Y-89158870D01*
X131864858Y-89379528D01*
X131771773Y-89616705D01*
X131771768Y-89616722D01*
X131715073Y-89865120D01*
X131696033Y-90119195D01*
X131696033Y-90119204D01*
X117670017Y-90119204D01*
X117674874Y-90104256D01*
X117694660Y-89916000D01*
X117674874Y-89727744D01*
X117616379Y-89547716D01*
X117521733Y-89383784D01*
X117395071Y-89243112D01*
X117395070Y-89243111D01*
X117241934Y-89131851D01*
X117241929Y-89131848D01*
X117069007Y-89054857D01*
X117069002Y-89054855D01*
X116923200Y-89023865D01*
X116883846Y-89015500D01*
X116694554Y-89015500D01*
X116671882Y-89020319D01*
X116509397Y-89054855D01*
X116509392Y-89054857D01*
X116336470Y-89131848D01*
X116336465Y-89131851D01*
X116183329Y-89243111D01*
X116056666Y-89383785D01*
X115962021Y-89547715D01*
X115962018Y-89547722D01*
X115907605Y-89715189D01*
X115903526Y-89727744D01*
X115883740Y-89916000D01*
X111747897Y-89916000D01*
X113655878Y-88008019D01*
X113717202Y-87974534D01*
X113743560Y-87971700D01*
X113835844Y-87971700D01*
X113835846Y-87971700D01*
X114021003Y-87932344D01*
X114193930Y-87855351D01*
X114347071Y-87744088D01*
X114473733Y-87603416D01*
X114568379Y-87439484D01*
X114626874Y-87259456D01*
X114646660Y-87071200D01*
X114626874Y-86882944D01*
X114568379Y-86702916D01*
X114473733Y-86538984D01*
X114347071Y-86398312D01*
X114339263Y-86392639D01*
X114193934Y-86287051D01*
X114193929Y-86287048D01*
X114021007Y-86210057D01*
X114021002Y-86210055D01*
X113875201Y-86179065D01*
X113835846Y-86170700D01*
X113646554Y-86170700D01*
X113614097Y-86177598D01*
X113461397Y-86210055D01*
X113461392Y-86210057D01*
X113288470Y-86287048D01*
X113288465Y-86287051D01*
X113135329Y-86398311D01*
X113008666Y-86538985D01*
X112914021Y-86702915D01*
X112914018Y-86702922D01*
X112855527Y-86882940D01*
X112855526Y-86882944D01*
X112840855Y-87022536D01*
X112835740Y-87071202D01*
X112835740Y-87073799D01*
X112835314Y-87075246D01*
X112835061Y-87077663D01*
X112834619Y-87077616D01*
X112816055Y-87140838D01*
X112799421Y-87161480D01*
X106505921Y-93454981D01*
X106444598Y-93488466D01*
X106418240Y-93491300D01*
X105015759Y-93491300D01*
X104948720Y-93471615D01*
X104902965Y-93418811D01*
X104893021Y-93349653D01*
X104922046Y-93286097D01*
X104928078Y-93279619D01*
X104928077Y-93279619D01*
X106553377Y-91654319D01*
X106559468Y-91648977D01*
X106587822Y-91627222D01*
X106612048Y-91595649D01*
X106612051Y-91595647D01*
X106684333Y-91501447D01*
X106745002Y-91354980D01*
X106748719Y-91326746D01*
X106760500Y-91237260D01*
X106760500Y-91237259D01*
X106760751Y-91235353D01*
X106760754Y-91235325D01*
X106761085Y-91232807D01*
X106765694Y-91197800D01*
X106761028Y-91162359D01*
X106760500Y-91154295D01*
X106760500Y-89087359D01*
X106780185Y-89020319D01*
X106796814Y-88999683D01*
X111722338Y-84074158D01*
X111783659Y-84040675D01*
X111853351Y-84045659D01*
X111909284Y-84087531D01*
X111915014Y-84096216D01*
X111916465Y-84098214D01*
X112043129Y-84238888D01*
X112196265Y-84350148D01*
X112196268Y-84350150D01*
X112369192Y-84427142D01*
X112369197Y-84427144D01*
X112554354Y-84466500D01*
X112554355Y-84466500D01*
X112743644Y-84466500D01*
X112743646Y-84466500D01*
X112928803Y-84427144D01*
X113101730Y-84350151D01*
X113101730Y-84350150D01*
X113101732Y-84350150D01*
X113101734Y-84350148D01*
X113151675Y-84313864D01*
X113254871Y-84238888D01*
X113381533Y-84098216D01*
X113476179Y-83934284D01*
X113534674Y-83754256D01*
X113554460Y-83566000D01*
X113534674Y-83377744D01*
X113476179Y-83197716D01*
X113381533Y-83033784D01*
X113254871Y-82893112D01*
X113168748Y-82830540D01*
X113126084Y-82775211D01*
X113120105Y-82705598D01*
X113152711Y-82643803D01*
X113153878Y-82642618D01*
X114182878Y-81613619D01*
X114244202Y-81580134D01*
X114270560Y-81577300D01*
X114290093Y-81577300D01*
X114357132Y-81596985D01*
X114402887Y-81649789D01*
X114413412Y-81688335D01*
X114430326Y-81849256D01*
X114430327Y-81849259D01*
X114488818Y-82029277D01*
X114488821Y-82029284D01*
X114583467Y-82193216D01*
X114708963Y-82332593D01*
X114710129Y-82333888D01*
X114863265Y-82445148D01*
X114863270Y-82445151D01*
X115036192Y-82522142D01*
X115036197Y-82522144D01*
X115221354Y-82561500D01*
X115221355Y-82561500D01*
X115410644Y-82561500D01*
X115410646Y-82561500D01*
X115595803Y-82522144D01*
X115768730Y-82445151D01*
X115913119Y-82340246D01*
X115978921Y-82316768D01*
X116046975Y-82332593D01*
X116078151Y-82357594D01*
X116149829Y-82437200D01*
X116302965Y-82548460D01*
X116302970Y-82548463D01*
X116475892Y-82625454D01*
X116475897Y-82625456D01*
X116661054Y-82664812D01*
X116661055Y-82664812D01*
X116850344Y-82664812D01*
X116850346Y-82664812D01*
X117035503Y-82625456D01*
X117208430Y-82548463D01*
X117361571Y-82437200D01*
X117488233Y-82296528D01*
X117582879Y-82132596D01*
X117641374Y-81952568D01*
X117661160Y-81764312D01*
X117641374Y-81576056D01*
X117612365Y-81486779D01*
X117610371Y-81416939D01*
X117638146Y-81365491D01*
X117699533Y-81297316D01*
X117713842Y-81272530D01*
X117764408Y-81224316D01*
X117821229Y-81210531D01*
X117999765Y-81210531D01*
X117999767Y-81210531D01*
X118184924Y-81171175D01*
X118310259Y-81115371D01*
X118379505Y-81106086D01*
X118411126Y-81115371D01*
X118551795Y-81178002D01*
X118736952Y-81217358D01*
X118736953Y-81217358D01*
X118926242Y-81217358D01*
X118926244Y-81217358D01*
X119111401Y-81178002D01*
X119212923Y-81132800D01*
X119282171Y-81123515D01*
X119345448Y-81153143D01*
X119382662Y-81212278D01*
X119381998Y-81282144D01*
X119351039Y-81333761D01*
X118985026Y-81699775D01*
X118978923Y-81705127D01*
X118950577Y-81726878D01*
X118926348Y-81758452D01*
X118926349Y-81758453D01*
X118864229Y-81839409D01*
X118854067Y-81852650D01*
X118854067Y-81852651D01*
X118793398Y-81999119D01*
X118793397Y-81999121D01*
X118777368Y-82120875D01*
X118777369Y-82120876D01*
X118772706Y-82156301D01*
X118777369Y-82191718D01*
X118777900Y-82199820D01*
X118777900Y-84157479D01*
X118777369Y-84165580D01*
X118772706Y-84200998D01*
X118777370Y-84236436D01*
X118792341Y-84350150D01*
X118793398Y-84358178D01*
X118793398Y-84358180D01*
X118828682Y-84443364D01*
X118854067Y-84504647D01*
X118865221Y-84519183D01*
X118926347Y-84598847D01*
X118926349Y-84598848D01*
X118950576Y-84630420D01*
X118950578Y-84630422D01*
X118978928Y-84652176D01*
X118985031Y-84657529D01*
X120401969Y-86074467D01*
X120407322Y-86080570D01*
X120419664Y-86096654D01*
X120429078Y-86108922D01*
X120459735Y-86132446D01*
X120459753Y-86132461D01*
X120554852Y-86205433D01*
X120615520Y-86230562D01*
X120701320Y-86266102D01*
X120753713Y-86272999D01*
X120858498Y-86286795D01*
X120858500Y-86286795D01*
X120858501Y-86286795D01*
X120868786Y-86285440D01*
X120893930Y-86282130D01*
X120902028Y-86281600D01*
X121103305Y-86281600D01*
X121170344Y-86301285D01*
X121216099Y-86354089D01*
X121226624Y-86392634D01*
X121237526Y-86496356D01*
X121237527Y-86496359D01*
X121296018Y-86676377D01*
X121296021Y-86676384D01*
X121390667Y-86840316D01*
X121517329Y-86980988D01*
X121670465Y-87092248D01*
X121670470Y-87092251D01*
X121843392Y-87169242D01*
X121843397Y-87169244D01*
X122028554Y-87208600D01*
X122028555Y-87208600D01*
X122217844Y-87208600D01*
X122217846Y-87208600D01*
X122403003Y-87169244D01*
X122575930Y-87092251D01*
X122729071Y-86980988D01*
X122855733Y-86840316D01*
X122950379Y-86676384D01*
X123008874Y-86496356D01*
X123019775Y-86392636D01*
X123046358Y-86328024D01*
X123103656Y-86288039D01*
X123143095Y-86281600D01*
X123572979Y-86281600D01*
X123581077Y-86282130D01*
X123601637Y-86284837D01*
X123616499Y-86286794D01*
X123616500Y-86286794D01*
X123616501Y-86286794D01*
X123651921Y-86282131D01*
X123654027Y-86281853D01*
X123654053Y-86281851D01*
X123655959Y-86281600D01*
X123655960Y-86281600D01*
X123773680Y-86266102D01*
X123803113Y-86253909D01*
X123850854Y-86247065D01*
X123850854Y-86244500D01*
X124046644Y-86244500D01*
X124046646Y-86244500D01*
X124231803Y-86205144D01*
X124404730Y-86128151D01*
X124557871Y-86016888D01*
X124684533Y-85876216D01*
X124779179Y-85712284D01*
X124837674Y-85532256D01*
X124857460Y-85344000D01*
X124837674Y-85155744D01*
X124779179Y-84975716D01*
X124684533Y-84811784D01*
X124557871Y-84671112D01*
X124535212Y-84654649D01*
X124404734Y-84559851D01*
X124404729Y-84559848D01*
X124231807Y-84482857D01*
X124231802Y-84482855D01*
X124086001Y-84451865D01*
X124046646Y-84443500D01*
X123857354Y-84443500D01*
X123824897Y-84450398D01*
X123672197Y-84482855D01*
X123672192Y-84482857D01*
X123499270Y-84559848D01*
X123499266Y-84559851D01*
X123441789Y-84601610D01*
X123375983Y-84625089D01*
X123307929Y-84609263D01*
X123261518Y-84563292D01*
X123249564Y-84542588D01*
X123236052Y-84519184D01*
X123109390Y-84378512D01*
X123109389Y-84378511D01*
X122956253Y-84267251D01*
X122956248Y-84267248D01*
X122783326Y-84190257D01*
X122783321Y-84190255D01*
X122629117Y-84157479D01*
X122598165Y-84150900D01*
X122408873Y-84150900D01*
X122377921Y-84157479D01*
X122223716Y-84190255D01*
X122223711Y-84190257D01*
X122058038Y-84264021D01*
X121988788Y-84273306D01*
X121925511Y-84243678D01*
X121919921Y-84238423D01*
X121551198Y-83869700D01*
X127974140Y-83869700D01*
X127993926Y-84057956D01*
X127993927Y-84057959D01*
X128052418Y-84237977D01*
X128052421Y-84237984D01*
X128147067Y-84401916D01*
X128184510Y-84443500D01*
X128273729Y-84542588D01*
X128426865Y-84653848D01*
X128426870Y-84653851D01*
X128599792Y-84730842D01*
X128599797Y-84730844D01*
X128784954Y-84770200D01*
X128784955Y-84770200D01*
X128974244Y-84770200D01*
X128974246Y-84770200D01*
X129159403Y-84730844D01*
X129332330Y-84653851D01*
X129485471Y-84542588D01*
X129612133Y-84401916D01*
X129706779Y-84237984D01*
X129765274Y-84057956D01*
X129785060Y-83869700D01*
X129765274Y-83681444D01*
X129706779Y-83501416D01*
X129612133Y-83337484D01*
X129485471Y-83196812D01*
X129481678Y-83194056D01*
X129332334Y-83085551D01*
X129332329Y-83085548D01*
X129159407Y-83008557D01*
X129159402Y-83008555D01*
X129013601Y-82977565D01*
X128974246Y-82969200D01*
X128784954Y-82969200D01*
X128752497Y-82976098D01*
X128599797Y-83008555D01*
X128599792Y-83008557D01*
X128426870Y-83085548D01*
X128426865Y-83085551D01*
X128273729Y-83196811D01*
X128147066Y-83337485D01*
X128052421Y-83501415D01*
X128052418Y-83501422D01*
X127993927Y-83681440D01*
X127993926Y-83681444D01*
X127974140Y-83869700D01*
X121551198Y-83869700D01*
X121213152Y-83531654D01*
X121179667Y-83470331D01*
X121184651Y-83400639D01*
X121226523Y-83344706D01*
X121250397Y-83330694D01*
X121269517Y-83322181D01*
X121356730Y-83283351D01*
X121509871Y-83172088D01*
X121536667Y-83142327D01*
X121596154Y-83105679D01*
X121628817Y-83101300D01*
X122105079Y-83101300D01*
X122113177Y-83101830D01*
X122133737Y-83104537D01*
X122148599Y-83106494D01*
X122148600Y-83106494D01*
X122148601Y-83106494D01*
X122184021Y-83101831D01*
X122186127Y-83101553D01*
X122186153Y-83101551D01*
X122188060Y-83101300D01*
X122305780Y-83085802D01*
X122452247Y-83025133D01*
X122469390Y-83011979D01*
X122546447Y-82952851D01*
X122546447Y-82952850D01*
X122554540Y-82946641D01*
X122554545Y-82946636D01*
X122557273Y-82944542D01*
X122578022Y-82928622D01*
X122599779Y-82900266D01*
X122605119Y-82894177D01*
X129807297Y-75692000D01*
X138286540Y-75692000D01*
X138306326Y-75880256D01*
X138306327Y-75880259D01*
X138364818Y-76060277D01*
X138364821Y-76060284D01*
X138459467Y-76224216D01*
X138586129Y-76364887D01*
X138586129Y-76364888D01*
X138739265Y-76476148D01*
X138739270Y-76476151D01*
X138912192Y-76553142D01*
X138912197Y-76553144D01*
X139097354Y-76592500D01*
X139097355Y-76592500D01*
X139286644Y-76592500D01*
X139286646Y-76592500D01*
X139471803Y-76553144D01*
X139644730Y-76476151D01*
X139797871Y-76364888D01*
X139924533Y-76224216D01*
X140019179Y-76060284D01*
X140077674Y-75880256D01*
X140097460Y-75692000D01*
X140077674Y-75503744D01*
X140019179Y-75323716D01*
X139924533Y-75159784D01*
X139797871Y-75019112D01*
X139797870Y-75019111D01*
X139644734Y-74907851D01*
X139644729Y-74907848D01*
X139471807Y-74830857D01*
X139471802Y-74830855D01*
X139326000Y-74799865D01*
X139286646Y-74791500D01*
X139097354Y-74791500D01*
X139064897Y-74798398D01*
X138912197Y-74830855D01*
X138912192Y-74830857D01*
X138739270Y-74907848D01*
X138739265Y-74907851D01*
X138586129Y-75019111D01*
X138459466Y-75159785D01*
X138364821Y-75323715D01*
X138364818Y-75323722D01*
X138326290Y-75442300D01*
X138306326Y-75503744D01*
X138286540Y-75692000D01*
X129807297Y-75692000D01*
X131302478Y-74196819D01*
X131363802Y-74163334D01*
X131390160Y-74160500D01*
X131941653Y-74160500D01*
X131941660Y-74160500D01*
X132059380Y-74145002D01*
X132059383Y-74145000D01*
X132067231Y-74142898D01*
X132067452Y-74143726D01*
X132105295Y-74136200D01*
X133666583Y-74136200D01*
X133733622Y-74155885D01*
X133758733Y-74177228D01*
X133785529Y-74206988D01*
X133938665Y-74318248D01*
X133938670Y-74318251D01*
X134111592Y-74395242D01*
X134111597Y-74395244D01*
X134296754Y-74434600D01*
X134296755Y-74434600D01*
X134486044Y-74434600D01*
X134486046Y-74434600D01*
X134671203Y-74395244D01*
X134844130Y-74318251D01*
X134997271Y-74206988D01*
X135123933Y-74066316D01*
X135218579Y-73902384D01*
X135277074Y-73722356D01*
X135296860Y-73534100D01*
X135277074Y-73345844D01*
X135218579Y-73165816D01*
X135123933Y-73001884D01*
X134997271Y-72861212D01*
X134997270Y-72861211D01*
X134844134Y-72749951D01*
X134844129Y-72749948D01*
X134671207Y-72672957D01*
X134671202Y-72672955D01*
X134525400Y-72641965D01*
X134486046Y-72633600D01*
X134296754Y-72633600D01*
X134264297Y-72640498D01*
X134111597Y-72672955D01*
X134111592Y-72672957D01*
X133938670Y-72749948D01*
X133938665Y-72749951D01*
X133785529Y-72861211D01*
X133758733Y-72890972D01*
X133699246Y-72927621D01*
X133666583Y-72932000D01*
X131862740Y-72932000D01*
X131862734Y-72932000D01*
X131862730Y-72932001D01*
X131745021Y-72947497D01*
X131737169Y-72949602D01*
X131736947Y-72948773D01*
X131699105Y-72956300D01*
X131132927Y-72956300D01*
X131124828Y-72955769D01*
X131089400Y-72951105D01*
X131089399Y-72951105D01*
X130932221Y-72971797D01*
X130932216Y-72971799D01*
X130785754Y-73032464D01*
X130785752Y-73032466D01*
X130691556Y-73104744D01*
X130691557Y-73104745D01*
X130659978Y-73128977D01*
X130638221Y-73157329D01*
X130632870Y-73163430D01*
X122865962Y-80930338D01*
X122804639Y-80963823D01*
X122734947Y-80958839D01*
X122679014Y-80916967D01*
X122660350Y-80880975D01*
X122645581Y-80835522D01*
X122645580Y-80835521D01*
X122645579Y-80835516D01*
X122550933Y-80671584D01*
X122424271Y-80530912D01*
X122424270Y-80530911D01*
X122271134Y-80419651D01*
X122271129Y-80419648D01*
X122098207Y-80342657D01*
X122098202Y-80342655D01*
X121952400Y-80311665D01*
X121913046Y-80303300D01*
X121723754Y-80303300D01*
X121691297Y-80310198D01*
X121538597Y-80342655D01*
X121450464Y-80381895D01*
X121381214Y-80391179D01*
X121317938Y-80361551D01*
X121307879Y-80351587D01*
X121299838Y-80342657D01*
X121217771Y-80251512D01*
X121217770Y-80251511D01*
X121064634Y-80140251D01*
X121064629Y-80140248D01*
X120891707Y-80063257D01*
X120891702Y-80063255D01*
X120745901Y-80032265D01*
X120706546Y-80023900D01*
X120517254Y-80023900D01*
X120467275Y-80034523D01*
X120332099Y-80063255D01*
X120262152Y-80094398D01*
X120192902Y-80103682D01*
X120129625Y-80074054D01*
X120092412Y-80014919D01*
X120093077Y-79945052D01*
X120104324Y-79919128D01*
X120143334Y-79851561D01*
X120201829Y-79671533D01*
X120221615Y-79483277D01*
X120210716Y-79379579D01*
X120223286Y-79310852D01*
X120241881Y-79283655D01*
X120366533Y-79145216D01*
X120461179Y-78981284D01*
X120519674Y-78801256D01*
X120539460Y-78613000D01*
X120519674Y-78424744D01*
X120461179Y-78244716D01*
X120366533Y-78080784D01*
X120239871Y-77940112D01*
X120239870Y-77940111D01*
X120086734Y-77828851D01*
X120086729Y-77828848D01*
X119913807Y-77751857D01*
X119913802Y-77751855D01*
X119768000Y-77720865D01*
X119728646Y-77712500D01*
X119539354Y-77712500D01*
X119506897Y-77719398D01*
X119354197Y-77751855D01*
X119354192Y-77751857D01*
X119181270Y-77828848D01*
X119181265Y-77828851D01*
X119028129Y-77940111D01*
X119001333Y-77969872D01*
X118941846Y-78006521D01*
X118909183Y-78010900D01*
X102761127Y-78010900D01*
X102753028Y-78010369D01*
X102717600Y-78005705D01*
X102717599Y-78005705D01*
X102560421Y-78026397D01*
X102560416Y-78026399D01*
X102413954Y-78087064D01*
X102413952Y-78087066D01*
X102319756Y-78159344D01*
X102319757Y-78159345D01*
X102288178Y-78183577D01*
X102266421Y-78211929D01*
X102261071Y-78218030D01*
X101551120Y-78927981D01*
X101489797Y-78961466D01*
X101463439Y-78964300D01*
X101359959Y-78964300D01*
X101292920Y-78944615D01*
X101247165Y-78891811D01*
X101237221Y-78822653D01*
X101266246Y-78759097D01*
X101272278Y-78752619D01*
X105294679Y-74730219D01*
X105356002Y-74696734D01*
X105382360Y-74693900D01*
X105789701Y-74693900D01*
X105856740Y-74713585D01*
X105902495Y-74766389D01*
X105913701Y-74817900D01*
X105913701Y-74989676D01*
X105920108Y-75049283D01*
X105970402Y-75184128D01*
X105970406Y-75184135D01*
X106056652Y-75299344D01*
X106056655Y-75299347D01*
X106171864Y-75385593D01*
X106171871Y-75385597D01*
X106306717Y-75435891D01*
X106306716Y-75435891D01*
X106313644Y-75436635D01*
X106366327Y-75442300D01*
X108162072Y-75442299D01*
X108221683Y-75435891D01*
X108356531Y-75385596D01*
X108471746Y-75299346D01*
X108557996Y-75184131D01*
X108608291Y-75049283D01*
X108614700Y-74989673D01*
X108614700Y-74817899D01*
X108634385Y-74750861D01*
X108687189Y-74705106D01*
X108738700Y-74693900D01*
X123857679Y-74693900D01*
X123865777Y-74694430D01*
X123883273Y-74696734D01*
X123901199Y-74699094D01*
X123901200Y-74699094D01*
X123901201Y-74699094D01*
X123936621Y-74694431D01*
X123938727Y-74694153D01*
X123938753Y-74694151D01*
X123940660Y-74693900D01*
X124058380Y-74678402D01*
X124204847Y-74617733D01*
X124204846Y-74617733D01*
X124204847Y-74617731D01*
X124242371Y-74602189D01*
X124266022Y-74570791D01*
X124299047Y-74545451D01*
X124299047Y-74545449D01*
X124307137Y-74539243D01*
X124307145Y-74539236D01*
X124309115Y-74537723D01*
X124330622Y-74521222D01*
X124352384Y-74492861D01*
X124357714Y-74486783D01*
X126406678Y-72437819D01*
X126468002Y-72404334D01*
X126494360Y-72401500D01*
X126586644Y-72401500D01*
X126586646Y-72401500D01*
X126771803Y-72362144D01*
X126944730Y-72285151D01*
X127097871Y-72173888D01*
X127224533Y-72033216D01*
X127319179Y-71869284D01*
X127377674Y-71689256D01*
X127397460Y-71501000D01*
X127377674Y-71312744D01*
X127319179Y-71132716D01*
X127224533Y-70968784D01*
X127097871Y-70828112D01*
X127097870Y-70828111D01*
X126944734Y-70716851D01*
X126944729Y-70716848D01*
X126771807Y-70639857D01*
X126771802Y-70639855D01*
X126626001Y-70608865D01*
X126586646Y-70600500D01*
X126397354Y-70600500D01*
X126364897Y-70607398D01*
X126212197Y-70639855D01*
X126212192Y-70639857D01*
X126039270Y-70716848D01*
X126039265Y-70716851D01*
X125886129Y-70828111D01*
X125759466Y-70968785D01*
X125664821Y-71132715D01*
X125664818Y-71132722D01*
X125606327Y-71312740D01*
X125606326Y-71312744D01*
X125592121Y-71447900D01*
X125586540Y-71501002D01*
X125586540Y-71503599D01*
X125586114Y-71505046D01*
X125585861Y-71507463D01*
X125585419Y-71507416D01*
X125566855Y-71570638D01*
X125550221Y-71591280D01*
X123688121Y-73453381D01*
X123626798Y-73486866D01*
X123600440Y-73489700D01*
X123181036Y-73489700D01*
X123113997Y-73470015D01*
X123068242Y-73417211D01*
X123058298Y-73348053D01*
X123059656Y-73340417D01*
X123059672Y-73340260D01*
X123059674Y-73340256D01*
X123079460Y-73152000D01*
X123059674Y-72963744D01*
X123001179Y-72783716D01*
X122906533Y-72619784D01*
X122779871Y-72479112D01*
X122779870Y-72479111D01*
X122626734Y-72367851D01*
X122626729Y-72367848D01*
X122453807Y-72290857D01*
X122453802Y-72290855D01*
X122308000Y-72259865D01*
X122268646Y-72251500D01*
X122079354Y-72251500D01*
X122046897Y-72258398D01*
X121894197Y-72290855D01*
X121894192Y-72290857D01*
X121721270Y-72367848D01*
X121721265Y-72367851D01*
X121568129Y-72479111D01*
X121441466Y-72619785D01*
X121346821Y-72783715D01*
X121346818Y-72783722D01*
X121288327Y-72963740D01*
X121288326Y-72963744D01*
X121268540Y-73152000D01*
X121288326Y-73340256D01*
X121288327Y-73340259D01*
X121289006Y-73346719D01*
X121287728Y-73346853D01*
X121282934Y-73409597D01*
X121240792Y-73465327D01*
X121175210Y-73489426D01*
X121166964Y-73489700D01*
X108738699Y-73489700D01*
X108671660Y-73470015D01*
X108625905Y-73417211D01*
X108614699Y-73365700D01*
X108614699Y-73193929D01*
X108614698Y-73193923D01*
X108614697Y-73193916D01*
X108608291Y-73134317D01*
X108606299Y-73128977D01*
X108557997Y-72999471D01*
X108557993Y-72999464D01*
X108471747Y-72884255D01*
X108471744Y-72884252D01*
X108356535Y-72798006D01*
X108356528Y-72798002D01*
X108221682Y-72747708D01*
X108221683Y-72747708D01*
X108162083Y-72741301D01*
X108162081Y-72741300D01*
X108162073Y-72741300D01*
X108162064Y-72741300D01*
X106366329Y-72741300D01*
X106366323Y-72741301D01*
X106306716Y-72747708D01*
X106171871Y-72798002D01*
X106171864Y-72798006D01*
X106056655Y-72884252D01*
X106056652Y-72884255D01*
X105970406Y-72999464D01*
X105970402Y-72999471D01*
X105920108Y-73134317D01*
X105913701Y-73193916D01*
X105913701Y-73193923D01*
X105913700Y-73193935D01*
X105913700Y-73365700D01*
X105894015Y-73432739D01*
X105841211Y-73478494D01*
X105789700Y-73489700D01*
X105125120Y-73489700D01*
X105117021Y-73489169D01*
X105095287Y-73486307D01*
X105081601Y-73484506D01*
X105081596Y-73484506D01*
X105045332Y-73489280D01*
X105045298Y-73489283D01*
X104924421Y-73505197D01*
X104924419Y-73505198D01*
X104795980Y-73558400D01*
X104777951Y-73565867D01*
X104685777Y-73636594D01*
X104685712Y-73636645D01*
X104683753Y-73638149D01*
X104683750Y-73638151D01*
X104672717Y-73646616D01*
X104652177Y-73662378D01*
X104630421Y-73690729D01*
X104625070Y-73696830D01*
X99542226Y-78779675D01*
X99536123Y-78785027D01*
X99507777Y-78806778D01*
X99483548Y-78838352D01*
X99483549Y-78838353D01*
X99423472Y-78916647D01*
X99418172Y-78923553D01*
X99411266Y-78932553D01*
X99350598Y-79079019D01*
X99350597Y-79079021D01*
X99334568Y-79200775D01*
X99334569Y-79200776D01*
X99329906Y-79236201D01*
X99334569Y-79271618D01*
X99335100Y-79279720D01*
X99335100Y-93418050D01*
X99334569Y-93426151D01*
X99329906Y-93461569D01*
X98184200Y-93461569D01*
X98184200Y-69593500D01*
X98203885Y-69526461D01*
X98256689Y-69480706D01*
X98308200Y-69469500D01*
X113473799Y-69469500D01*
X113540838Y-69489185D01*
G37*
%TD.AperFunction*%
%TD*%
M02*
