%TF.GenerationSoftware,KiCad,Pcbnew,7.0.5*%
%TF.CreationDate,2023-11-05T09:22:57-05:00*%
%TF.ProjectId,radio,72616469-6f2e-46b6-9963-61645f706362,rev?*%
%TF.SameCoordinates,Original*%
%TF.FileFunction,Soldermask,Top*%
%TF.FilePolarity,Negative*%
%FSLAX46Y46*%
G04 Gerber Fmt 4.6, Leading zero omitted, Abs format (unit mm)*
G04 Created by KiCad (PCBNEW 7.0.5) date 2023-11-05 09:22:57*
%MOMM*%
%LPD*%
G01*
G04 APERTURE LIST*
G04 Aperture macros list*
%AMRoundRect*
0 Rectangle with rounded corners*
0 $1 Rounding radius*
0 $2 $3 $4 $5 $6 $7 $8 $9 X,Y pos of 4 corners*
0 Add a 4 corners polygon primitive as box body*
4,1,4,$2,$3,$4,$5,$6,$7,$8,$9,$2,$3,0*
0 Add four circle primitives for the rounded corners*
1,1,$1+$1,$2,$3*
1,1,$1+$1,$4,$5*
1,1,$1+$1,$6,$7*
1,1,$1+$1,$8,$9*
0 Add four rect primitives between the rounded corners*
20,1,$1+$1,$2,$3,$4,$5,0*
20,1,$1+$1,$4,$5,$6,$7,0*
20,1,$1+$1,$6,$7,$8,$9,0*
20,1,$1+$1,$8,$9,$2,$3,0*%
G04 Aperture macros list end*
%ADD10RoundRect,0.102000X0.465000X-0.405000X0.465000X0.405000X-0.465000X0.405000X-0.465000X-0.405000X0*%
%ADD11R,1.700000X1.700000*%
%ADD12O,1.700000X1.700000*%
%ADD13RoundRect,0.237500X-0.237500X0.250000X-0.237500X-0.250000X0.237500X-0.250000X0.237500X0.250000X0*%
%ADD14RoundRect,0.237500X0.237500X-0.250000X0.237500X0.250000X-0.237500X0.250000X-0.237500X-0.250000X0*%
%ADD15RoundRect,0.237500X0.237500X-0.300000X0.237500X0.300000X-0.237500X0.300000X-0.237500X-0.300000X0*%
%ADD16R,2.250000X2.250000*%
%ADD17C,2.400000*%
%ADD18RoundRect,0.102000X0.325000X-0.525000X0.325000X0.525000X-0.325000X0.525000X-0.325000X-0.525000X0*%
%ADD19RoundRect,0.102000X-0.300000X0.400000X-0.300000X-0.400000X0.300000X-0.400000X0.300000X0.400000X0*%
%ADD20RoundRect,0.237500X0.250000X0.237500X-0.250000X0.237500X-0.250000X-0.237500X0.250000X-0.237500X0*%
%ADD21RoundRect,0.237500X0.300000X0.237500X-0.300000X0.237500X-0.300000X-0.237500X0.300000X-0.237500X0*%
%ADD22R,0.800000X0.350000*%
%ADD23R,0.350000X0.800000*%
%ADD24R,4.800000X4.800000*%
%ADD25RoundRect,0.102000X-0.825000X-0.825000X0.825000X-0.825000X0.825000X0.825000X-0.825000X0.825000X0*%
%ADD26C,1.854000*%
G04 APERTURE END LIST*
D10*
%TO.C,D2*%
X127203200Y-72774400D03*
X127203200Y-74394400D03*
%TD*%
D11*
%TO.C,J2*%
X105079800Y-90119200D03*
D12*
X105079800Y-87579200D03*
X105079800Y-85039200D03*
X105079800Y-82499200D03*
%TD*%
D11*
%TO.C,J3*%
X107264200Y-74091800D03*
%TD*%
D13*
%TO.C,R3*%
X125323600Y-72671900D03*
X125323600Y-74496900D03*
%TD*%
D14*
%TO.C,R2*%
X137464800Y-75310200D03*
X137464800Y-73485200D03*
%TD*%
D15*
%TO.C,C7*%
X110159800Y-82371100D03*
X110159800Y-80646100D03*
%TD*%
D16*
%TO.C,J6*%
X119964200Y-98806000D03*
D17*
X122504200Y-96266000D03*
X117424200Y-96266000D03*
X117424200Y-101346000D03*
X122504200Y-101346000D03*
%TD*%
D15*
%TO.C,C5*%
X113360200Y-82371100D03*
X113360200Y-80646100D03*
%TD*%
D18*
%TO.C,S1*%
X131665400Y-75405900D03*
X131665400Y-71255900D03*
X133815400Y-75405900D03*
X133815400Y-71255900D03*
%TD*%
D19*
%TO.C,Y1*%
X127620600Y-82583900D03*
X125820600Y-82583900D03*
X125820600Y-83783900D03*
X127620600Y-83783900D03*
%TD*%
D10*
%TO.C,D1*%
X123342400Y-72749000D03*
X123342400Y-74369000D03*
%TD*%
D20*
%TO.C,R1*%
X124305700Y-83793500D03*
X122480700Y-83793500D03*
%TD*%
D15*
%TO.C,C6*%
X111785400Y-82371100D03*
X111785400Y-80646100D03*
%TD*%
D16*
%TO.C,J5*%
X135940800Y-87579200D03*
D17*
X133400800Y-85039200D03*
X133400800Y-90119200D03*
X138480800Y-90119200D03*
X138480800Y-85039200D03*
%TD*%
D21*
%TO.C,C2*%
X116153100Y-91160600D03*
X114428100Y-91160600D03*
%TD*%
D15*
%TO.C,C1*%
X124282200Y-82065200D03*
X124282200Y-80340200D03*
%TD*%
D22*
%TO.C,U1*%
X121033800Y-87573400D03*
X121033800Y-86923400D03*
X121033800Y-86273400D03*
X121033800Y-85623400D03*
X121033800Y-84973400D03*
X121033800Y-84323400D03*
X121033800Y-83673400D03*
D23*
X119983800Y-82623400D03*
X119333800Y-82623400D03*
X118683800Y-82623400D03*
X118033800Y-82623400D03*
X117383800Y-82623400D03*
X116733800Y-82623400D03*
X116083800Y-82623400D03*
D22*
X115033800Y-83673400D03*
X115033800Y-84323400D03*
X115033800Y-84973400D03*
X115033800Y-85623400D03*
X115033800Y-86273400D03*
X115033800Y-86923400D03*
X115033800Y-87573400D03*
D23*
X116083800Y-88623400D03*
X116733800Y-88623400D03*
X117383800Y-88623400D03*
X118033800Y-88623400D03*
X118683800Y-88623400D03*
X119333800Y-88623400D03*
X119983800Y-88623400D03*
D24*
X118033800Y-85623400D03*
%TD*%
D15*
%TO.C,C3*%
X122758200Y-79958100D03*
X122758200Y-78233100D03*
%TD*%
%TO.C,C4*%
X121081800Y-79932700D03*
X121081800Y-78207700D03*
%TD*%
D11*
%TO.C,J1*%
X101015800Y-80314800D03*
D12*
X101015800Y-82854800D03*
X101015800Y-85394800D03*
X101015800Y-87934800D03*
X101015800Y-90474800D03*
X101015800Y-93014800D03*
%TD*%
D25*
%TO.C,J4*%
X118849300Y-70993000D03*
D26*
X113849300Y-70993000D03*
%TD*%
D13*
%TO.C,R4*%
X128930400Y-72697300D03*
X128930400Y-74522300D03*
%TD*%
M02*
