%TF.GenerationSoftware,KiCad,Pcbnew,7.0.5*%
%TF.CreationDate,2023-11-05T09:22:55-05:00*%
%TF.ProjectId,radio,72616469-6f2e-46b6-9963-61645f706362,rev?*%
%TF.SameCoordinates,Original*%
%TF.FileFunction,Drillmap*%
%TF.FilePolarity,Positive*%
%FSLAX45Y45*%
G04 Gerber Fmt 4.5, Leading zero omitted, Abs format (unit mm)*
G04 Created by KiCad (PCBNEW 7.0.5) date 2023-11-05 09:22:55*
%MOMM*%
%LPD*%
G01*
G04 APERTURE LIST*
%ADD10C,0.100000*%
%ADD11C,0.200000*%
%ADD12C,0.040000*%
%ADD13C,0.130000*%
%ADD14C,0.150000*%
%ADD15C,0.160000*%
G04 APERTURE END LIST*
D10*
X9818370Y-6946900D02*
X14062710Y-6946900D01*
X14062710Y-10373360D01*
X9818370Y-10373360D01*
X9818370Y-6946900D01*
D11*
D12*
X9936800Y-9581200D02*
X9976800Y-9621200D01*
X9976800Y-9581200D02*
X9936800Y-9621200D01*
X9987600Y-7142800D02*
X10027600Y-7182800D01*
X10027600Y-7142800D02*
X9987600Y-7182800D01*
X9987600Y-7498400D02*
X10027600Y-7538400D01*
X10027600Y-7498400D02*
X9987600Y-7538400D01*
X9987600Y-9835200D02*
X10027600Y-9875200D01*
X10027600Y-9835200D02*
X9987600Y-9875200D01*
X9987600Y-10089200D02*
X10027600Y-10129200D01*
X10027600Y-10089200D02*
X9987600Y-10129200D01*
X10140000Y-10241600D02*
X10180000Y-10281600D01*
X10180000Y-10241600D02*
X10140000Y-10281600D01*
X10141149Y-7348436D02*
X10181149Y-7388436D01*
X10181149Y-7348436D02*
X10141149Y-7388436D01*
X10190800Y-9632000D02*
X10230800Y-9672000D01*
X10230800Y-9632000D02*
X10190800Y-9672000D01*
X10190800Y-9987600D02*
X10230800Y-10027600D01*
X10230800Y-9987600D02*
X10190800Y-10027600D01*
X10343200Y-7041200D02*
X10383200Y-7081200D01*
X10383200Y-7041200D02*
X10343200Y-7081200D01*
X10343200Y-9784400D02*
X10383200Y-9824400D01*
X10383200Y-9784400D02*
X10343200Y-9824400D01*
X10394000Y-10190800D02*
X10434000Y-10230800D01*
X10434000Y-10190800D02*
X10394000Y-10230800D01*
X10444800Y-9581200D02*
X10484800Y-9621200D01*
X10484800Y-9581200D02*
X10444800Y-9621200D01*
X10495600Y-7650800D02*
X10535600Y-7690800D01*
X10535600Y-7650800D02*
X10495600Y-7690800D01*
X10495600Y-9987600D02*
X10535600Y-10027600D01*
X10535600Y-9987600D02*
X10495600Y-10027600D01*
X10597200Y-9784400D02*
X10637200Y-9824400D01*
X10637200Y-9784400D02*
X10597200Y-9824400D01*
X10698800Y-9581200D02*
X10738800Y-9621200D01*
X10738800Y-9581200D02*
X10698800Y-9621200D01*
X10698800Y-9936800D02*
X10738800Y-9976800D01*
X10738800Y-9936800D02*
X10698800Y-9976800D01*
X10726032Y-7629034D02*
X10766032Y-7669034D01*
X10766032Y-7629034D02*
X10726032Y-7669034D01*
X10749600Y-9073200D02*
X10789600Y-9113200D01*
X10789600Y-9073200D02*
X10749600Y-9113200D01*
X10749600Y-10190800D02*
X10789600Y-10230800D01*
X10789600Y-10190800D02*
X10749600Y-10230800D01*
X10825800Y-8146100D02*
X10865800Y-8186100D01*
X10865800Y-8146100D02*
X10825800Y-8186100D01*
X10851200Y-9428800D02*
X10891200Y-9468800D01*
X10891200Y-9428800D02*
X10851200Y-9468800D01*
X10851200Y-9784400D02*
X10891200Y-9824400D01*
X10891200Y-9784400D02*
X10851200Y-9824400D01*
X10889300Y-8336600D02*
X10929300Y-8376600D01*
X10929300Y-8336600D02*
X10889300Y-8376600D01*
X10902000Y-8870000D02*
X10942000Y-8910000D01*
X10942000Y-8870000D02*
X10902000Y-8910000D01*
X10952800Y-9581200D02*
X10992800Y-9621200D01*
X10992800Y-9581200D02*
X10952800Y-9621200D01*
X10952800Y-9987600D02*
X10992800Y-10027600D01*
X10992800Y-9987600D02*
X10952800Y-10027600D01*
X11003600Y-9225600D02*
X11043600Y-9265600D01*
X11043600Y-9225600D02*
X11003600Y-9265600D01*
X11054400Y-8768400D02*
X11094400Y-8808400D01*
X11094400Y-8768400D02*
X11054400Y-8808400D01*
X11054400Y-9733600D02*
X11094400Y-9773600D01*
X11094400Y-9733600D02*
X11054400Y-9773600D01*
X11054400Y-10241600D02*
X11094400Y-10281600D01*
X11094400Y-10241600D02*
X11054400Y-10281600D01*
X11081335Y-7658187D02*
X11121335Y-7698187D01*
X11121335Y-7658187D02*
X11081335Y-7698187D01*
X11105200Y-9428800D02*
X11145200Y-9468800D01*
X11145200Y-9428800D02*
X11105200Y-9468800D01*
X11156000Y-9073200D02*
X11196000Y-9113200D01*
X11196000Y-9073200D02*
X11156000Y-9113200D01*
X11206800Y-9225600D02*
X11246800Y-9265600D01*
X11246800Y-9225600D02*
X11206800Y-9265600D01*
X11244900Y-8336600D02*
X11284900Y-8376600D01*
X11284900Y-8336600D02*
X11244900Y-8376600D01*
X11257600Y-9632000D02*
X11297600Y-9672000D01*
X11297600Y-9632000D02*
X11257600Y-9672000D01*
X11257600Y-9835200D02*
X11297600Y-9875200D01*
X11297600Y-9835200D02*
X11257600Y-9875200D01*
X11257600Y-10089200D02*
X11297600Y-10129200D01*
X11297600Y-10089200D02*
X11257600Y-10129200D01*
X11308400Y-9428800D02*
X11348400Y-9468800D01*
X11348400Y-9428800D02*
X11308400Y-9468800D01*
X11354120Y-8687120D02*
X11394120Y-8727120D01*
X11394120Y-8687120D02*
X11354120Y-8727120D01*
X11359200Y-7650800D02*
X11399200Y-7690800D01*
X11399200Y-7650800D02*
X11359200Y-7690800D01*
X11410000Y-8870000D02*
X11450000Y-8910000D01*
X11450000Y-8870000D02*
X11410000Y-8910000D01*
X11460800Y-9276400D02*
X11500800Y-9316400D01*
X11500800Y-9276400D02*
X11460800Y-9316400D01*
X11460800Y-9530400D02*
X11500800Y-9570400D01*
X11500800Y-9530400D02*
X11460800Y-9570400D01*
X11460800Y-9733600D02*
X11500800Y-9773600D01*
X11500800Y-9733600D02*
X11460800Y-9773600D01*
X11460800Y-9987600D02*
X11500800Y-10027600D01*
X11500800Y-9987600D02*
X11460800Y-10027600D01*
X11473500Y-8247700D02*
X11513500Y-8287700D01*
X11513500Y-8247700D02*
X11473500Y-8287700D01*
X11511600Y-8146100D02*
X11551600Y-8186100D01*
X11551600Y-8146100D02*
X11511600Y-8186100D01*
X11655570Y-8156431D02*
X11695570Y-8196431D01*
X11695570Y-8156431D02*
X11655570Y-8196431D01*
X11658920Y-8971600D02*
X11698920Y-9011600D01*
X11698920Y-8971600D02*
X11658920Y-9011600D01*
X11664000Y-9276400D02*
X11704000Y-9316400D01*
X11704000Y-9276400D02*
X11664000Y-9316400D01*
X11676700Y-8056510D02*
X11716700Y-8096510D01*
X11716700Y-8056510D02*
X11676700Y-8096510D01*
X11765600Y-7650800D02*
X11805600Y-7690800D01*
X11805600Y-7650800D02*
X11765600Y-7690800D01*
X11770512Y-8011003D02*
X11810512Y-8051003D01*
X11810512Y-8011003D02*
X11770512Y-8051003D01*
X11863160Y-8011686D02*
X11903160Y-8051686D01*
X11903160Y-8011686D02*
X11863160Y-8051686D01*
X11902760Y-8941120D02*
X11942760Y-8981120D01*
X11942760Y-8941120D02*
X11902760Y-8981120D01*
X11902760Y-9064310D02*
X11942760Y-9104310D01*
X11942760Y-9064310D02*
X11902760Y-9104310D01*
X11902760Y-9187500D02*
X11942760Y-9227500D01*
X11942760Y-9187500D02*
X11902760Y-9227500D01*
X11902760Y-9310690D02*
X11942760Y-9350690D01*
X11942760Y-9310690D02*
X11902760Y-9350690D01*
X11902760Y-9433880D02*
X11942760Y-9473880D01*
X11942760Y-9433880D02*
X11902760Y-9473880D01*
X11902760Y-9557070D02*
X11942760Y-9597070D01*
X11942760Y-9557070D02*
X11902760Y-9597070D01*
X11902760Y-9680260D02*
X11942760Y-9720260D01*
X11942760Y-9680260D02*
X11902760Y-9720260D01*
X11911615Y-7928328D02*
X11951615Y-7968328D01*
X11951615Y-7928328D02*
X11911615Y-7968328D01*
X11943400Y-7841300D02*
X11983400Y-7881300D01*
X11983400Y-7841300D02*
X11943400Y-7881300D01*
X12041190Y-8072440D02*
X12081190Y-8112440D01*
X12081190Y-8072440D02*
X12041190Y-8112440D01*
X12057700Y-8936040D02*
X12097700Y-8976040D01*
X12097700Y-8936040D02*
X12057700Y-8976040D01*
X12057700Y-9059230D02*
X12097700Y-9099230D01*
X12097700Y-9059230D02*
X12057700Y-9099230D01*
X12057700Y-9182420D02*
X12097700Y-9222420D01*
X12097700Y-9182420D02*
X12057700Y-9222420D01*
X12057700Y-9305610D02*
X12097700Y-9345610D01*
X12097700Y-9305610D02*
X12057700Y-9345610D01*
X12057700Y-9428800D02*
X12097700Y-9468800D01*
X12097700Y-9428800D02*
X12057700Y-9468800D01*
X12057700Y-9551990D02*
X12097700Y-9591990D01*
X12097700Y-9551990D02*
X12057700Y-9591990D01*
X12057700Y-9675180D02*
X12097700Y-9715180D01*
X12097700Y-9675180D02*
X12057700Y-9715180D01*
X12070400Y-8229920D02*
X12110400Y-8269920D01*
X12110400Y-8229920D02*
X12070400Y-8269920D01*
X12078020Y-8824280D02*
X12118020Y-8864280D01*
X12118020Y-8824280D02*
X12078020Y-8864280D01*
X12161840Y-8100380D02*
X12201840Y-8140380D01*
X12201840Y-8100380D02*
X12161840Y-8140380D01*
X12192320Y-8610810D02*
X12232320Y-8650810D01*
X12232320Y-8610810D02*
X12192320Y-8650810D01*
X12197400Y-7295200D02*
X12237400Y-7335200D01*
X12237400Y-7295200D02*
X12197400Y-7335200D01*
X12202480Y-8824280D02*
X12242480Y-8864280D01*
X12242480Y-8824280D02*
X12202480Y-8864280D01*
X12230352Y-8485140D02*
X12270352Y-8525140D01*
X12270352Y-8485140D02*
X12230352Y-8525140D01*
X12273600Y-8971600D02*
X12313600Y-9011600D01*
X12313600Y-8971600D02*
X12273600Y-9011600D01*
X12326940Y-8824280D02*
X12366940Y-8864280D01*
X12366940Y-8824280D02*
X12326940Y-8864280D01*
X12375200Y-8514400D02*
X12415200Y-8554400D01*
X12415200Y-8514400D02*
X12375200Y-8554400D01*
X12426000Y-9174800D02*
X12466000Y-9214800D01*
X12466000Y-9174800D02*
X12426000Y-9214800D01*
X12451400Y-7155500D02*
X12491400Y-7195500D01*
X12491400Y-7155500D02*
X12451400Y-7195500D01*
X12459020Y-8824280D02*
X12499020Y-8864280D01*
X12499020Y-8824280D02*
X12459020Y-8864280D01*
X12461560Y-8661720D02*
X12501560Y-8701720D01*
X12501560Y-8661720D02*
X12461560Y-8701720D01*
X12535220Y-7996130D02*
X12575220Y-8036130D01*
X12575220Y-7996130D02*
X12535220Y-8036130D01*
X12563160Y-8115510D02*
X12603160Y-8155510D01*
X12603160Y-8115510D02*
X12563160Y-8155510D01*
X12578400Y-8971600D02*
X12618400Y-9011600D01*
X12618400Y-8971600D02*
X12578400Y-9011600D01*
X12578400Y-9378000D02*
X12618400Y-9418000D01*
X12618400Y-9378000D02*
X12578400Y-9418000D01*
X12603800Y-8824280D02*
X12643800Y-8864280D01*
X12643800Y-8824280D02*
X12603800Y-8864280D01*
X12606340Y-8661720D02*
X12646340Y-8701720D01*
X12646340Y-8661720D02*
X12606340Y-8701720D01*
X12629200Y-7130100D02*
X12669200Y-7170100D01*
X12669200Y-7130100D02*
X12629200Y-7170100D01*
X12680000Y-10089200D02*
X12720000Y-10129200D01*
X12720000Y-10089200D02*
X12680000Y-10129200D01*
X12730800Y-8006400D02*
X12770800Y-8046400D01*
X12770800Y-8006400D02*
X12730800Y-8046400D01*
X12730800Y-9733600D02*
X12770800Y-9773600D01*
X12770800Y-9733600D02*
X12730800Y-9773600D01*
X12735880Y-8824280D02*
X12775880Y-8864280D01*
X12775880Y-8824280D02*
X12735880Y-8864280D01*
X12738420Y-8661720D02*
X12778420Y-8701720D01*
X12778420Y-8661720D02*
X12738420Y-8701720D01*
X12781600Y-9174800D02*
X12821600Y-9214800D01*
X12821600Y-9174800D02*
X12781600Y-9214800D01*
X12860340Y-8237430D02*
X12900340Y-8277430D01*
X12900340Y-8237430D02*
X12860340Y-8277430D01*
X12860340Y-8824280D02*
X12900340Y-8864280D01*
X12900340Y-8824280D02*
X12860340Y-8864280D01*
X12862880Y-8661720D02*
X12902880Y-8701720D01*
X12902880Y-8661720D02*
X12862880Y-8701720D01*
X12867960Y-8366970D02*
X12907960Y-8406970D01*
X12907960Y-8366970D02*
X12867960Y-8406970D01*
X12883200Y-7803200D02*
X12923200Y-7843200D01*
X12923200Y-7803200D02*
X12883200Y-7843200D01*
X12883200Y-8971600D02*
X12923200Y-9011600D01*
X12923200Y-8971600D02*
X12883200Y-9011600D01*
X12911170Y-7132670D02*
X12951170Y-7172670D01*
X12951170Y-7132670D02*
X12911170Y-7172670D01*
X12934000Y-9428800D02*
X12974000Y-9468800D01*
X12974000Y-9428800D02*
X12934000Y-9468800D01*
X12984800Y-8824280D02*
X13024800Y-8864280D01*
X13024800Y-8824280D02*
X12984800Y-8864280D01*
X12987340Y-8661720D02*
X13027340Y-8701720D01*
X13027340Y-8661720D02*
X12987340Y-8701720D01*
X13035600Y-7904800D02*
X13075600Y-7944800D01*
X13075600Y-7904800D02*
X13035600Y-7944800D01*
X13086400Y-10038400D02*
X13126400Y-10078400D01*
X13126400Y-10038400D02*
X13086400Y-10078400D01*
X13116880Y-8824280D02*
X13156880Y-8864280D01*
X13156880Y-8824280D02*
X13116880Y-8864280D01*
X13119420Y-8661720D02*
X13159420Y-8701720D01*
X13159420Y-8661720D02*
X13119420Y-8701720D01*
X13137200Y-8158800D02*
X13177200Y-8198800D01*
X13177200Y-8158800D02*
X13137200Y-8198800D01*
X13137200Y-9733600D02*
X13177200Y-9773600D01*
X13177200Y-9733600D02*
X13137200Y-9773600D01*
X13238800Y-9327200D02*
X13278800Y-9367200D01*
X13278800Y-9327200D02*
X13238800Y-9367200D01*
X13261660Y-8824280D02*
X13301660Y-8864280D01*
X13301660Y-8824280D02*
X13261660Y-8864280D01*
X13264200Y-8661720D02*
X13304200Y-8701720D01*
X13304200Y-8661720D02*
X13264200Y-8701720D01*
X13289600Y-8006400D02*
X13329600Y-8046400D01*
X13329600Y-8006400D02*
X13289600Y-8046400D01*
X13419140Y-7333410D02*
X13459140Y-7373410D01*
X13459140Y-7333410D02*
X13419140Y-7373410D01*
X13442000Y-9530400D02*
X13482000Y-9570400D01*
X13482000Y-9530400D02*
X13442000Y-9570400D01*
X13442000Y-10089200D02*
X13482000Y-10129200D01*
X13482000Y-10089200D02*
X13442000Y-10129200D01*
X13488284Y-7853148D02*
X13528284Y-7893148D01*
X13528284Y-7853148D02*
X13488284Y-7893148D01*
X13492800Y-8108000D02*
X13532800Y-8148000D01*
X13532800Y-8108000D02*
X13492800Y-8148000D01*
X13492800Y-9733600D02*
X13532800Y-9773600D01*
X13532800Y-9733600D02*
X13492800Y-9773600D01*
X13502960Y-7607730D02*
X13542960Y-7647730D01*
X13542960Y-7607730D02*
X13502960Y-7647730D01*
X13505500Y-7122590D02*
X13545500Y-7162590D01*
X13545500Y-7122590D02*
X13505500Y-7162590D01*
X13645200Y-9327200D02*
X13685200Y-9367200D01*
X13685200Y-9327200D02*
X13645200Y-9367200D01*
X13696000Y-8006400D02*
X13736000Y-8046400D01*
X13736000Y-8006400D02*
X13696000Y-8046400D01*
X13696000Y-9936800D02*
X13736000Y-9976800D01*
X13736000Y-9936800D02*
X13696000Y-9976800D01*
X13797600Y-7904800D02*
X13837600Y-7944800D01*
X13837600Y-7904800D02*
X13797600Y-7944800D01*
X13797600Y-9632000D02*
X13837600Y-9672000D01*
X13837600Y-9632000D02*
X13797600Y-9672000D01*
X13881851Y-7058727D02*
X13921851Y-7098727D01*
X13921851Y-7058727D02*
X13881851Y-7098727D01*
X13899200Y-7549200D02*
X13939200Y-7589200D01*
X13939200Y-7549200D02*
X13899200Y-7589200D01*
X14000800Y-7396800D02*
X14040800Y-7436800D01*
X14040800Y-7396800D02*
X14000800Y-7436800D01*
D10*
X10151580Y-8031480D02*
G75*
G03*
X10151580Y-8031480I-50000J0D01*
G01*
X10151580Y-8285480D02*
G75*
G03*
X10151580Y-8285480I-50000J0D01*
G01*
X10151580Y-8539480D02*
G75*
G03*
X10151580Y-8539480I-50000J0D01*
G01*
X10151580Y-8793480D02*
G75*
G03*
X10151580Y-8793480I-50000J0D01*
G01*
X10151580Y-9047480D02*
G75*
G03*
X10151580Y-9047480I-50000J0D01*
G01*
X10151580Y-9301480D02*
G75*
G03*
X10151580Y-9301480I-50000J0D01*
G01*
X10557980Y-8249920D02*
G75*
G03*
X10557980Y-8249920I-50000J0D01*
G01*
X10557980Y-8503920D02*
G75*
G03*
X10557980Y-8503920I-50000J0D01*
G01*
X10557980Y-8757920D02*
G75*
G03*
X10557980Y-8757920I-50000J0D01*
G01*
X10557980Y-9011920D02*
G75*
G03*
X10557980Y-9011920I-50000J0D01*
G01*
X10776420Y-7409180D02*
G75*
G03*
X10776420Y-7409180I-50000J0D01*
G01*
D13*
X11384930Y-7034300D02*
X11384930Y-7164300D01*
X11319930Y-7099300D02*
X11449930Y-7099300D01*
X11884930Y-7034300D02*
X11884930Y-7164300D01*
X11819930Y-7099300D02*
X11949930Y-7099300D01*
D14*
X12049453Y-9933634D02*
X12049453Y-9827567D01*
X11943386Y-9827567D01*
X11943386Y-9933634D01*
X12049453Y-9933634D01*
X13647113Y-8810954D02*
X13647113Y-8704887D01*
X13541046Y-8704887D01*
X13541046Y-8810954D01*
X13647113Y-8810954D01*
D15*
X11742420Y-9706600D02*
X11822420Y-9626600D01*
X11742420Y-9546600D01*
X11662420Y-9626600D01*
X11742420Y-9706600D01*
X11742420Y-10214600D02*
X11822420Y-10134600D01*
X11742420Y-10054600D01*
X11662420Y-10134600D01*
X11742420Y-10214600D01*
X12250420Y-9706600D02*
X12330420Y-9626600D01*
X12250420Y-9546600D01*
X12170420Y-9626600D01*
X12250420Y-9706600D01*
X12250420Y-10214600D02*
X12330420Y-10134600D01*
X12250420Y-10054600D01*
X12170420Y-10134600D01*
X12250420Y-10214600D01*
X13340080Y-8583920D02*
X13420080Y-8503920D01*
X13340080Y-8423920D01*
X13260080Y-8503920D01*
X13340080Y-8583920D01*
X13340080Y-9091920D02*
X13420080Y-9011920D01*
X13340080Y-8931920D01*
X13260080Y-9011920D01*
X13340080Y-9091920D01*
X13848080Y-8583920D02*
X13928080Y-8503920D01*
X13848080Y-8423920D01*
X13768080Y-8503920D01*
X13848080Y-8583920D01*
X13848080Y-9091920D02*
X13928080Y-9011920D01*
X13848080Y-8931920D01*
X13768080Y-9011920D01*
X13848080Y-9091920D01*
D11*
X10074147Y-10689844D02*
X10074147Y-10489844D01*
X10074147Y-10489844D02*
X10121766Y-10489844D01*
X10121766Y-10489844D02*
X10150337Y-10499368D01*
X10150337Y-10499368D02*
X10169385Y-10518415D01*
X10169385Y-10518415D02*
X10178909Y-10537463D01*
X10178909Y-10537463D02*
X10188433Y-10575558D01*
X10188433Y-10575558D02*
X10188433Y-10604130D01*
X10188433Y-10604130D02*
X10178909Y-10642225D01*
X10178909Y-10642225D02*
X10169385Y-10661272D01*
X10169385Y-10661272D02*
X10150337Y-10680320D01*
X10150337Y-10680320D02*
X10121766Y-10689844D01*
X10121766Y-10689844D02*
X10074147Y-10689844D01*
X10274147Y-10689844D02*
X10274147Y-10556510D01*
X10274147Y-10594606D02*
X10283671Y-10575558D01*
X10283671Y-10575558D02*
X10293194Y-10566034D01*
X10293194Y-10566034D02*
X10312242Y-10556510D01*
X10312242Y-10556510D02*
X10331290Y-10556510D01*
X10397956Y-10689844D02*
X10397956Y-10556510D01*
X10397956Y-10489844D02*
X10388433Y-10499368D01*
X10388433Y-10499368D02*
X10397956Y-10508891D01*
X10397956Y-10508891D02*
X10407480Y-10499368D01*
X10407480Y-10499368D02*
X10397956Y-10489844D01*
X10397956Y-10489844D02*
X10397956Y-10508891D01*
X10521766Y-10689844D02*
X10502718Y-10680320D01*
X10502718Y-10680320D02*
X10493194Y-10661272D01*
X10493194Y-10661272D02*
X10493194Y-10489844D01*
X10626528Y-10689844D02*
X10607480Y-10680320D01*
X10607480Y-10680320D02*
X10597956Y-10661272D01*
X10597956Y-10661272D02*
X10597956Y-10489844D01*
X10855099Y-10689844D02*
X10855099Y-10489844D01*
X10855099Y-10489844D02*
X10921766Y-10632701D01*
X10921766Y-10632701D02*
X10988433Y-10489844D01*
X10988433Y-10489844D02*
X10988433Y-10689844D01*
X11169385Y-10689844D02*
X11169385Y-10585082D01*
X11169385Y-10585082D02*
X11159861Y-10566034D01*
X11159861Y-10566034D02*
X11140814Y-10556510D01*
X11140814Y-10556510D02*
X11102718Y-10556510D01*
X11102718Y-10556510D02*
X11083671Y-10566034D01*
X11169385Y-10680320D02*
X11150337Y-10689844D01*
X11150337Y-10689844D02*
X11102718Y-10689844D01*
X11102718Y-10689844D02*
X11083671Y-10680320D01*
X11083671Y-10680320D02*
X11074147Y-10661272D01*
X11074147Y-10661272D02*
X11074147Y-10642225D01*
X11074147Y-10642225D02*
X11083671Y-10623177D01*
X11083671Y-10623177D02*
X11102718Y-10613653D01*
X11102718Y-10613653D02*
X11150337Y-10613653D01*
X11150337Y-10613653D02*
X11169385Y-10604130D01*
X11264623Y-10556510D02*
X11264623Y-10756510D01*
X11264623Y-10566034D02*
X11283671Y-10556510D01*
X11283671Y-10556510D02*
X11321766Y-10556510D01*
X11321766Y-10556510D02*
X11340813Y-10566034D01*
X11340813Y-10566034D02*
X11350337Y-10575558D01*
X11350337Y-10575558D02*
X11359861Y-10594606D01*
X11359861Y-10594606D02*
X11359861Y-10651749D01*
X11359861Y-10651749D02*
X11350337Y-10670796D01*
X11350337Y-10670796D02*
X11340813Y-10680320D01*
X11340813Y-10680320D02*
X11321766Y-10689844D01*
X11321766Y-10689844D02*
X11283671Y-10689844D01*
X11283671Y-10689844D02*
X11264623Y-10680320D01*
X11445575Y-10670796D02*
X11455099Y-10680320D01*
X11455099Y-10680320D02*
X11445575Y-10689844D01*
X11445575Y-10689844D02*
X11436052Y-10680320D01*
X11436052Y-10680320D02*
X11445575Y-10670796D01*
X11445575Y-10670796D02*
X11445575Y-10689844D01*
X11445575Y-10566034D02*
X11455099Y-10575558D01*
X11455099Y-10575558D02*
X11445575Y-10585082D01*
X11445575Y-10585082D02*
X11436052Y-10575558D01*
X11436052Y-10575558D02*
X11445575Y-10566034D01*
X11445575Y-10566034D02*
X11445575Y-10585082D01*
D12*
X9773370Y-10998360D02*
X9813370Y-11038360D01*
X9813370Y-10998360D02*
X9773370Y-11038360D01*
D11*
X10112242Y-10909844D02*
X10131290Y-10909844D01*
X10131290Y-10909844D02*
X10150337Y-10919368D01*
X10150337Y-10919368D02*
X10159861Y-10928891D01*
X10159861Y-10928891D02*
X10169385Y-10947939D01*
X10169385Y-10947939D02*
X10178909Y-10986034D01*
X10178909Y-10986034D02*
X10178909Y-11033653D01*
X10178909Y-11033653D02*
X10169385Y-11071749D01*
X10169385Y-11071749D02*
X10159861Y-11090796D01*
X10159861Y-11090796D02*
X10150337Y-11100320D01*
X10150337Y-11100320D02*
X10131290Y-11109844D01*
X10131290Y-11109844D02*
X10112242Y-11109844D01*
X10112242Y-11109844D02*
X10093194Y-11100320D01*
X10093194Y-11100320D02*
X10083671Y-11090796D01*
X10083671Y-11090796D02*
X10074147Y-11071749D01*
X10074147Y-11071749D02*
X10064623Y-11033653D01*
X10064623Y-11033653D02*
X10064623Y-10986034D01*
X10064623Y-10986034D02*
X10074147Y-10947939D01*
X10074147Y-10947939D02*
X10083671Y-10928891D01*
X10083671Y-10928891D02*
X10093194Y-10919368D01*
X10093194Y-10919368D02*
X10112242Y-10909844D01*
X10264623Y-11090796D02*
X10274147Y-11100320D01*
X10274147Y-11100320D02*
X10264623Y-11109844D01*
X10264623Y-11109844D02*
X10255099Y-11100320D01*
X10255099Y-11100320D02*
X10264623Y-11090796D01*
X10264623Y-11090796D02*
X10264623Y-11109844D01*
X10445575Y-10976510D02*
X10445575Y-11109844D01*
X10397956Y-10900320D02*
X10350337Y-11043177D01*
X10350337Y-11043177D02*
X10474147Y-11043177D01*
X10588433Y-10909844D02*
X10607480Y-10909844D01*
X10607480Y-10909844D02*
X10626528Y-10919368D01*
X10626528Y-10919368D02*
X10636052Y-10928891D01*
X10636052Y-10928891D02*
X10645575Y-10947939D01*
X10645575Y-10947939D02*
X10655099Y-10986034D01*
X10655099Y-10986034D02*
X10655099Y-11033653D01*
X10655099Y-11033653D02*
X10645575Y-11071749D01*
X10645575Y-11071749D02*
X10636052Y-11090796D01*
X10636052Y-11090796D02*
X10626528Y-11100320D01*
X10626528Y-11100320D02*
X10607480Y-11109844D01*
X10607480Y-11109844D02*
X10588433Y-11109844D01*
X10588433Y-11109844D02*
X10569385Y-11100320D01*
X10569385Y-11100320D02*
X10559861Y-11090796D01*
X10559861Y-11090796D02*
X10550337Y-11071749D01*
X10550337Y-11071749D02*
X10540814Y-11033653D01*
X10540814Y-11033653D02*
X10540814Y-10986034D01*
X10540814Y-10986034D02*
X10550337Y-10947939D01*
X10550337Y-10947939D02*
X10559861Y-10928891D01*
X10559861Y-10928891D02*
X10569385Y-10919368D01*
X10569385Y-10919368D02*
X10588433Y-10909844D01*
X10778909Y-10909844D02*
X10797956Y-10909844D01*
X10797956Y-10909844D02*
X10817004Y-10919368D01*
X10817004Y-10919368D02*
X10826528Y-10928891D01*
X10826528Y-10928891D02*
X10836052Y-10947939D01*
X10836052Y-10947939D02*
X10845575Y-10986034D01*
X10845575Y-10986034D02*
X10845575Y-11033653D01*
X10845575Y-11033653D02*
X10836052Y-11071749D01*
X10836052Y-11071749D02*
X10826528Y-11090796D01*
X10826528Y-11090796D02*
X10817004Y-11100320D01*
X10817004Y-11100320D02*
X10797956Y-11109844D01*
X10797956Y-11109844D02*
X10778909Y-11109844D01*
X10778909Y-11109844D02*
X10759861Y-11100320D01*
X10759861Y-11100320D02*
X10750337Y-11090796D01*
X10750337Y-11090796D02*
X10740814Y-11071749D01*
X10740814Y-11071749D02*
X10731290Y-11033653D01*
X10731290Y-11033653D02*
X10731290Y-10986034D01*
X10731290Y-10986034D02*
X10740814Y-10947939D01*
X10740814Y-10947939D02*
X10750337Y-10928891D01*
X10750337Y-10928891D02*
X10759861Y-10919368D01*
X10759861Y-10919368D02*
X10778909Y-10909844D01*
X10931290Y-11109844D02*
X10931290Y-10976510D01*
X10931290Y-10995558D02*
X10940814Y-10986034D01*
X10940814Y-10986034D02*
X10959861Y-10976510D01*
X10959861Y-10976510D02*
X10988433Y-10976510D01*
X10988433Y-10976510D02*
X11007480Y-10986034D01*
X11007480Y-10986034D02*
X11017004Y-11005082D01*
X11017004Y-11005082D02*
X11017004Y-11109844D01*
X11017004Y-11005082D02*
X11026528Y-10986034D01*
X11026528Y-10986034D02*
X11045575Y-10976510D01*
X11045575Y-10976510D02*
X11074147Y-10976510D01*
X11074147Y-10976510D02*
X11093195Y-10986034D01*
X11093195Y-10986034D02*
X11102718Y-11005082D01*
X11102718Y-11005082D02*
X11102718Y-11109844D01*
X11197956Y-11109844D02*
X11197956Y-10976510D01*
X11197956Y-10995558D02*
X11207480Y-10986034D01*
X11207480Y-10986034D02*
X11226528Y-10976510D01*
X11226528Y-10976510D02*
X11255099Y-10976510D01*
X11255099Y-10976510D02*
X11274147Y-10986034D01*
X11274147Y-10986034D02*
X11283671Y-11005082D01*
X11283671Y-11005082D02*
X11283671Y-11109844D01*
X11283671Y-11005082D02*
X11293194Y-10986034D01*
X11293194Y-10986034D02*
X11312242Y-10976510D01*
X11312242Y-10976510D02*
X11340813Y-10976510D01*
X11340813Y-10976510D02*
X11359861Y-10986034D01*
X11359861Y-10986034D02*
X11369385Y-11005082D01*
X11369385Y-11005082D02*
X11369385Y-11109844D01*
X11759861Y-10900320D02*
X11588433Y-11157463D01*
X12017004Y-10909844D02*
X12036052Y-10909844D01*
X12036052Y-10909844D02*
X12055099Y-10919368D01*
X12055099Y-10919368D02*
X12064623Y-10928891D01*
X12064623Y-10928891D02*
X12074147Y-10947939D01*
X12074147Y-10947939D02*
X12083671Y-10986034D01*
X12083671Y-10986034D02*
X12083671Y-11033653D01*
X12083671Y-11033653D02*
X12074147Y-11071749D01*
X12074147Y-11071749D02*
X12064623Y-11090796D01*
X12064623Y-11090796D02*
X12055099Y-11100320D01*
X12055099Y-11100320D02*
X12036052Y-11109844D01*
X12036052Y-11109844D02*
X12017004Y-11109844D01*
X12017004Y-11109844D02*
X11997956Y-11100320D01*
X11997956Y-11100320D02*
X11988433Y-11090796D01*
X11988433Y-11090796D02*
X11978909Y-11071749D01*
X11978909Y-11071749D02*
X11969385Y-11033653D01*
X11969385Y-11033653D02*
X11969385Y-10986034D01*
X11969385Y-10986034D02*
X11978909Y-10947939D01*
X11978909Y-10947939D02*
X11988433Y-10928891D01*
X11988433Y-10928891D02*
X11997956Y-10919368D01*
X11997956Y-10919368D02*
X12017004Y-10909844D01*
X12169385Y-11090796D02*
X12178909Y-11100320D01*
X12178909Y-11100320D02*
X12169385Y-11109844D01*
X12169385Y-11109844D02*
X12159861Y-11100320D01*
X12159861Y-11100320D02*
X12169385Y-11090796D01*
X12169385Y-11090796D02*
X12169385Y-11109844D01*
X12302718Y-10909844D02*
X12321766Y-10909844D01*
X12321766Y-10909844D02*
X12340814Y-10919368D01*
X12340814Y-10919368D02*
X12350337Y-10928891D01*
X12350337Y-10928891D02*
X12359861Y-10947939D01*
X12359861Y-10947939D02*
X12369385Y-10986034D01*
X12369385Y-10986034D02*
X12369385Y-11033653D01*
X12369385Y-11033653D02*
X12359861Y-11071749D01*
X12359861Y-11071749D02*
X12350337Y-11090796D01*
X12350337Y-11090796D02*
X12340814Y-11100320D01*
X12340814Y-11100320D02*
X12321766Y-11109844D01*
X12321766Y-11109844D02*
X12302718Y-11109844D01*
X12302718Y-11109844D02*
X12283671Y-11100320D01*
X12283671Y-11100320D02*
X12274147Y-11090796D01*
X12274147Y-11090796D02*
X12264623Y-11071749D01*
X12264623Y-11071749D02*
X12255099Y-11033653D01*
X12255099Y-11033653D02*
X12255099Y-10986034D01*
X12255099Y-10986034D02*
X12264623Y-10947939D01*
X12264623Y-10947939D02*
X12274147Y-10928891D01*
X12274147Y-10928891D02*
X12283671Y-10919368D01*
X12283671Y-10919368D02*
X12302718Y-10909844D01*
X12559861Y-11109844D02*
X12445576Y-11109844D01*
X12502718Y-11109844D02*
X12502718Y-10909844D01*
X12502718Y-10909844D02*
X12483671Y-10938415D01*
X12483671Y-10938415D02*
X12464623Y-10957463D01*
X12464623Y-10957463D02*
X12445576Y-10966987D01*
X12740814Y-10909844D02*
X12645576Y-10909844D01*
X12645576Y-10909844D02*
X12636052Y-11005082D01*
X12636052Y-11005082D02*
X12645576Y-10995558D01*
X12645576Y-10995558D02*
X12664623Y-10986034D01*
X12664623Y-10986034D02*
X12712242Y-10986034D01*
X12712242Y-10986034D02*
X12731290Y-10995558D01*
X12731290Y-10995558D02*
X12740814Y-11005082D01*
X12740814Y-11005082D02*
X12750337Y-11024130D01*
X12750337Y-11024130D02*
X12750337Y-11071749D01*
X12750337Y-11071749D02*
X12740814Y-11090796D01*
X12740814Y-11090796D02*
X12731290Y-11100320D01*
X12731290Y-11100320D02*
X12712242Y-11109844D01*
X12712242Y-11109844D02*
X12664623Y-11109844D01*
X12664623Y-11109844D02*
X12645576Y-11100320D01*
X12645576Y-11100320D02*
X12636052Y-11090796D01*
X12817004Y-10909844D02*
X12950337Y-10909844D01*
X12950337Y-10909844D02*
X12864623Y-11109844D01*
X13017004Y-10909844D02*
X13017004Y-10947939D01*
X13093195Y-10909844D02*
X13093195Y-10947939D01*
X13388433Y-11186034D02*
X13378909Y-11176510D01*
X13378909Y-11176510D02*
X13359861Y-11147939D01*
X13359861Y-11147939D02*
X13350338Y-11128891D01*
X13350338Y-11128891D02*
X13340814Y-11100320D01*
X13340814Y-11100320D02*
X13331290Y-11052701D01*
X13331290Y-11052701D02*
X13331290Y-11014606D01*
X13331290Y-11014606D02*
X13340814Y-10966987D01*
X13340814Y-10966987D02*
X13350338Y-10938415D01*
X13350338Y-10938415D02*
X13359861Y-10919368D01*
X13359861Y-10919368D02*
X13378909Y-10890796D01*
X13378909Y-10890796D02*
X13388433Y-10881272D01*
X13569385Y-11109844D02*
X13455099Y-11109844D01*
X13512242Y-11109844D02*
X13512242Y-10909844D01*
X13512242Y-10909844D02*
X13493195Y-10938415D01*
X13493195Y-10938415D02*
X13474147Y-10957463D01*
X13474147Y-10957463D02*
X13455099Y-10966987D01*
X13636052Y-10909844D02*
X13759861Y-10909844D01*
X13759861Y-10909844D02*
X13693195Y-10986034D01*
X13693195Y-10986034D02*
X13721766Y-10986034D01*
X13721766Y-10986034D02*
X13740814Y-10995558D01*
X13740814Y-10995558D02*
X13750338Y-11005082D01*
X13750338Y-11005082D02*
X13759861Y-11024130D01*
X13759861Y-11024130D02*
X13759861Y-11071749D01*
X13759861Y-11071749D02*
X13750338Y-11090796D01*
X13750338Y-11090796D02*
X13740814Y-11100320D01*
X13740814Y-11100320D02*
X13721766Y-11109844D01*
X13721766Y-11109844D02*
X13664623Y-11109844D01*
X13664623Y-11109844D02*
X13645576Y-11100320D01*
X13645576Y-11100320D02*
X13636052Y-11090796D01*
X13826528Y-10909844D02*
X13959861Y-10909844D01*
X13959861Y-10909844D02*
X13874147Y-11109844D01*
X14188433Y-11109844D02*
X14188433Y-10909844D01*
X14274147Y-11109844D02*
X14274147Y-11005082D01*
X14274147Y-11005082D02*
X14264623Y-10986034D01*
X14264623Y-10986034D02*
X14245576Y-10976510D01*
X14245576Y-10976510D02*
X14217004Y-10976510D01*
X14217004Y-10976510D02*
X14197957Y-10986034D01*
X14197957Y-10986034D02*
X14188433Y-10995558D01*
X14397957Y-11109844D02*
X14378909Y-11100320D01*
X14378909Y-11100320D02*
X14369385Y-11090796D01*
X14369385Y-11090796D02*
X14359861Y-11071749D01*
X14359861Y-11071749D02*
X14359861Y-11014606D01*
X14359861Y-11014606D02*
X14369385Y-10995558D01*
X14369385Y-10995558D02*
X14378909Y-10986034D01*
X14378909Y-10986034D02*
X14397957Y-10976510D01*
X14397957Y-10976510D02*
X14426528Y-10976510D01*
X14426528Y-10976510D02*
X14445576Y-10986034D01*
X14445576Y-10986034D02*
X14455100Y-10995558D01*
X14455100Y-10995558D02*
X14464623Y-11014606D01*
X14464623Y-11014606D02*
X14464623Y-11071749D01*
X14464623Y-11071749D02*
X14455100Y-11090796D01*
X14455100Y-11090796D02*
X14445576Y-11100320D01*
X14445576Y-11100320D02*
X14426528Y-11109844D01*
X14426528Y-11109844D02*
X14397957Y-11109844D01*
X14578909Y-11109844D02*
X14559861Y-11100320D01*
X14559861Y-11100320D02*
X14550338Y-11081272D01*
X14550338Y-11081272D02*
X14550338Y-10909844D01*
X14731290Y-11100320D02*
X14712242Y-11109844D01*
X14712242Y-11109844D02*
X14674147Y-11109844D01*
X14674147Y-11109844D02*
X14655100Y-11100320D01*
X14655100Y-11100320D02*
X14645576Y-11081272D01*
X14645576Y-11081272D02*
X14645576Y-11005082D01*
X14645576Y-11005082D02*
X14655100Y-10986034D01*
X14655100Y-10986034D02*
X14674147Y-10976510D01*
X14674147Y-10976510D02*
X14712242Y-10976510D01*
X14712242Y-10976510D02*
X14731290Y-10986034D01*
X14731290Y-10986034D02*
X14740814Y-11005082D01*
X14740814Y-11005082D02*
X14740814Y-11024130D01*
X14740814Y-11024130D02*
X14645576Y-11043177D01*
X14817004Y-11100320D02*
X14836052Y-11109844D01*
X14836052Y-11109844D02*
X14874147Y-11109844D01*
X14874147Y-11109844D02*
X14893195Y-11100320D01*
X14893195Y-11100320D02*
X14902719Y-11081272D01*
X14902719Y-11081272D02*
X14902719Y-11071749D01*
X14902719Y-11071749D02*
X14893195Y-11052701D01*
X14893195Y-11052701D02*
X14874147Y-11043177D01*
X14874147Y-11043177D02*
X14845576Y-11043177D01*
X14845576Y-11043177D02*
X14826528Y-11033653D01*
X14826528Y-11033653D02*
X14817004Y-11014606D01*
X14817004Y-11014606D02*
X14817004Y-11005082D01*
X14817004Y-11005082D02*
X14826528Y-10986034D01*
X14826528Y-10986034D02*
X14845576Y-10976510D01*
X14845576Y-10976510D02*
X14874147Y-10976510D01*
X14874147Y-10976510D02*
X14893195Y-10986034D01*
X14969385Y-11186034D02*
X14978909Y-11176510D01*
X14978909Y-11176510D02*
X14997957Y-11147939D01*
X14997957Y-11147939D02*
X15007481Y-11128891D01*
X15007481Y-11128891D02*
X15017004Y-11100320D01*
X15017004Y-11100320D02*
X15026528Y-11052701D01*
X15026528Y-11052701D02*
X15026528Y-11014606D01*
X15026528Y-11014606D02*
X15017004Y-10966987D01*
X15017004Y-10966987D02*
X15007481Y-10938415D01*
X15007481Y-10938415D02*
X14997957Y-10919368D01*
X14997957Y-10919368D02*
X14978909Y-10890796D01*
X14978909Y-10890796D02*
X14969385Y-10881272D01*
D10*
X9813370Y-11282360D02*
G75*
G03*
X9813370Y-11282360I-50000J0D01*
G01*
D11*
X10178909Y-11373844D02*
X10064623Y-11373844D01*
X10121766Y-11373844D02*
X10121766Y-11173844D01*
X10121766Y-11173844D02*
X10102718Y-11202415D01*
X10102718Y-11202415D02*
X10083671Y-11221463D01*
X10083671Y-11221463D02*
X10064623Y-11230987D01*
X10264623Y-11354796D02*
X10274147Y-11364320D01*
X10274147Y-11364320D02*
X10264623Y-11373844D01*
X10264623Y-11373844D02*
X10255099Y-11364320D01*
X10255099Y-11364320D02*
X10264623Y-11354796D01*
X10264623Y-11354796D02*
X10264623Y-11373844D01*
X10397956Y-11173844D02*
X10417004Y-11173844D01*
X10417004Y-11173844D02*
X10436052Y-11183368D01*
X10436052Y-11183368D02*
X10445575Y-11192891D01*
X10445575Y-11192891D02*
X10455099Y-11211939D01*
X10455099Y-11211939D02*
X10464623Y-11250034D01*
X10464623Y-11250034D02*
X10464623Y-11297653D01*
X10464623Y-11297653D02*
X10455099Y-11335748D01*
X10455099Y-11335748D02*
X10445575Y-11354796D01*
X10445575Y-11354796D02*
X10436052Y-11364320D01*
X10436052Y-11364320D02*
X10417004Y-11373844D01*
X10417004Y-11373844D02*
X10397956Y-11373844D01*
X10397956Y-11373844D02*
X10378909Y-11364320D01*
X10378909Y-11364320D02*
X10369385Y-11354796D01*
X10369385Y-11354796D02*
X10359861Y-11335748D01*
X10359861Y-11335748D02*
X10350337Y-11297653D01*
X10350337Y-11297653D02*
X10350337Y-11250034D01*
X10350337Y-11250034D02*
X10359861Y-11211939D01*
X10359861Y-11211939D02*
X10369385Y-11192891D01*
X10369385Y-11192891D02*
X10378909Y-11183368D01*
X10378909Y-11183368D02*
X10397956Y-11173844D01*
X10588433Y-11173844D02*
X10607480Y-11173844D01*
X10607480Y-11173844D02*
X10626528Y-11183368D01*
X10626528Y-11183368D02*
X10636052Y-11192891D01*
X10636052Y-11192891D02*
X10645575Y-11211939D01*
X10645575Y-11211939D02*
X10655099Y-11250034D01*
X10655099Y-11250034D02*
X10655099Y-11297653D01*
X10655099Y-11297653D02*
X10645575Y-11335748D01*
X10645575Y-11335748D02*
X10636052Y-11354796D01*
X10636052Y-11354796D02*
X10626528Y-11364320D01*
X10626528Y-11364320D02*
X10607480Y-11373844D01*
X10607480Y-11373844D02*
X10588433Y-11373844D01*
X10588433Y-11373844D02*
X10569385Y-11364320D01*
X10569385Y-11364320D02*
X10559861Y-11354796D01*
X10559861Y-11354796D02*
X10550337Y-11335748D01*
X10550337Y-11335748D02*
X10540814Y-11297653D01*
X10540814Y-11297653D02*
X10540814Y-11250034D01*
X10540814Y-11250034D02*
X10550337Y-11211939D01*
X10550337Y-11211939D02*
X10559861Y-11192891D01*
X10559861Y-11192891D02*
X10569385Y-11183368D01*
X10569385Y-11183368D02*
X10588433Y-11173844D01*
X10778909Y-11173844D02*
X10797956Y-11173844D01*
X10797956Y-11173844D02*
X10817004Y-11183368D01*
X10817004Y-11183368D02*
X10826528Y-11192891D01*
X10826528Y-11192891D02*
X10836052Y-11211939D01*
X10836052Y-11211939D02*
X10845575Y-11250034D01*
X10845575Y-11250034D02*
X10845575Y-11297653D01*
X10845575Y-11297653D02*
X10836052Y-11335748D01*
X10836052Y-11335748D02*
X10826528Y-11354796D01*
X10826528Y-11354796D02*
X10817004Y-11364320D01*
X10817004Y-11364320D02*
X10797956Y-11373844D01*
X10797956Y-11373844D02*
X10778909Y-11373844D01*
X10778909Y-11373844D02*
X10759861Y-11364320D01*
X10759861Y-11364320D02*
X10750337Y-11354796D01*
X10750337Y-11354796D02*
X10740814Y-11335748D01*
X10740814Y-11335748D02*
X10731290Y-11297653D01*
X10731290Y-11297653D02*
X10731290Y-11250034D01*
X10731290Y-11250034D02*
X10740814Y-11211939D01*
X10740814Y-11211939D02*
X10750337Y-11192891D01*
X10750337Y-11192891D02*
X10759861Y-11183368D01*
X10759861Y-11183368D02*
X10778909Y-11173844D01*
X10931290Y-11373844D02*
X10931290Y-11240510D01*
X10931290Y-11259558D02*
X10940814Y-11250034D01*
X10940814Y-11250034D02*
X10959861Y-11240510D01*
X10959861Y-11240510D02*
X10988433Y-11240510D01*
X10988433Y-11240510D02*
X11007480Y-11250034D01*
X11007480Y-11250034D02*
X11017004Y-11269082D01*
X11017004Y-11269082D02*
X11017004Y-11373844D01*
X11017004Y-11269082D02*
X11026528Y-11250034D01*
X11026528Y-11250034D02*
X11045575Y-11240510D01*
X11045575Y-11240510D02*
X11074147Y-11240510D01*
X11074147Y-11240510D02*
X11093195Y-11250034D01*
X11093195Y-11250034D02*
X11102718Y-11269082D01*
X11102718Y-11269082D02*
X11102718Y-11373844D01*
X11197956Y-11373844D02*
X11197956Y-11240510D01*
X11197956Y-11259558D02*
X11207480Y-11250034D01*
X11207480Y-11250034D02*
X11226528Y-11240510D01*
X11226528Y-11240510D02*
X11255099Y-11240510D01*
X11255099Y-11240510D02*
X11274147Y-11250034D01*
X11274147Y-11250034D02*
X11283671Y-11269082D01*
X11283671Y-11269082D02*
X11283671Y-11373844D01*
X11283671Y-11269082D02*
X11293194Y-11250034D01*
X11293194Y-11250034D02*
X11312242Y-11240510D01*
X11312242Y-11240510D02*
X11340813Y-11240510D01*
X11340813Y-11240510D02*
X11359861Y-11250034D01*
X11359861Y-11250034D02*
X11369385Y-11269082D01*
X11369385Y-11269082D02*
X11369385Y-11373844D01*
X11759861Y-11164320D02*
X11588433Y-11421463D01*
X12017004Y-11173844D02*
X12036052Y-11173844D01*
X12036052Y-11173844D02*
X12055099Y-11183368D01*
X12055099Y-11183368D02*
X12064623Y-11192891D01*
X12064623Y-11192891D02*
X12074147Y-11211939D01*
X12074147Y-11211939D02*
X12083671Y-11250034D01*
X12083671Y-11250034D02*
X12083671Y-11297653D01*
X12083671Y-11297653D02*
X12074147Y-11335748D01*
X12074147Y-11335748D02*
X12064623Y-11354796D01*
X12064623Y-11354796D02*
X12055099Y-11364320D01*
X12055099Y-11364320D02*
X12036052Y-11373844D01*
X12036052Y-11373844D02*
X12017004Y-11373844D01*
X12017004Y-11373844D02*
X11997956Y-11364320D01*
X11997956Y-11364320D02*
X11988433Y-11354796D01*
X11988433Y-11354796D02*
X11978909Y-11335748D01*
X11978909Y-11335748D02*
X11969385Y-11297653D01*
X11969385Y-11297653D02*
X11969385Y-11250034D01*
X11969385Y-11250034D02*
X11978909Y-11211939D01*
X11978909Y-11211939D02*
X11988433Y-11192891D01*
X11988433Y-11192891D02*
X11997956Y-11183368D01*
X11997956Y-11183368D02*
X12017004Y-11173844D01*
X12169385Y-11354796D02*
X12178909Y-11364320D01*
X12178909Y-11364320D02*
X12169385Y-11373844D01*
X12169385Y-11373844D02*
X12159861Y-11364320D01*
X12159861Y-11364320D02*
X12169385Y-11354796D01*
X12169385Y-11354796D02*
X12169385Y-11373844D01*
X12302718Y-11173844D02*
X12321766Y-11173844D01*
X12321766Y-11173844D02*
X12340814Y-11183368D01*
X12340814Y-11183368D02*
X12350337Y-11192891D01*
X12350337Y-11192891D02*
X12359861Y-11211939D01*
X12359861Y-11211939D02*
X12369385Y-11250034D01*
X12369385Y-11250034D02*
X12369385Y-11297653D01*
X12369385Y-11297653D02*
X12359861Y-11335748D01*
X12359861Y-11335748D02*
X12350337Y-11354796D01*
X12350337Y-11354796D02*
X12340814Y-11364320D01*
X12340814Y-11364320D02*
X12321766Y-11373844D01*
X12321766Y-11373844D02*
X12302718Y-11373844D01*
X12302718Y-11373844D02*
X12283671Y-11364320D01*
X12283671Y-11364320D02*
X12274147Y-11354796D01*
X12274147Y-11354796D02*
X12264623Y-11335748D01*
X12264623Y-11335748D02*
X12255099Y-11297653D01*
X12255099Y-11297653D02*
X12255099Y-11250034D01*
X12255099Y-11250034D02*
X12264623Y-11211939D01*
X12264623Y-11211939D02*
X12274147Y-11192891D01*
X12274147Y-11192891D02*
X12283671Y-11183368D01*
X12283671Y-11183368D02*
X12302718Y-11173844D01*
X12436052Y-11173844D02*
X12559861Y-11173844D01*
X12559861Y-11173844D02*
X12493195Y-11250034D01*
X12493195Y-11250034D02*
X12521766Y-11250034D01*
X12521766Y-11250034D02*
X12540814Y-11259558D01*
X12540814Y-11259558D02*
X12550337Y-11269082D01*
X12550337Y-11269082D02*
X12559861Y-11288129D01*
X12559861Y-11288129D02*
X12559861Y-11335748D01*
X12559861Y-11335748D02*
X12550337Y-11354796D01*
X12550337Y-11354796D02*
X12540814Y-11364320D01*
X12540814Y-11364320D02*
X12521766Y-11373844D01*
X12521766Y-11373844D02*
X12464623Y-11373844D01*
X12464623Y-11373844D02*
X12445576Y-11364320D01*
X12445576Y-11364320D02*
X12436052Y-11354796D01*
X12655099Y-11373844D02*
X12693195Y-11373844D01*
X12693195Y-11373844D02*
X12712242Y-11364320D01*
X12712242Y-11364320D02*
X12721766Y-11354796D01*
X12721766Y-11354796D02*
X12740814Y-11326225D01*
X12740814Y-11326225D02*
X12750337Y-11288129D01*
X12750337Y-11288129D02*
X12750337Y-11211939D01*
X12750337Y-11211939D02*
X12740814Y-11192891D01*
X12740814Y-11192891D02*
X12731290Y-11183368D01*
X12731290Y-11183368D02*
X12712242Y-11173844D01*
X12712242Y-11173844D02*
X12674147Y-11173844D01*
X12674147Y-11173844D02*
X12655099Y-11183368D01*
X12655099Y-11183368D02*
X12645576Y-11192891D01*
X12645576Y-11192891D02*
X12636052Y-11211939D01*
X12636052Y-11211939D02*
X12636052Y-11259558D01*
X12636052Y-11259558D02*
X12645576Y-11278606D01*
X12645576Y-11278606D02*
X12655099Y-11288129D01*
X12655099Y-11288129D02*
X12674147Y-11297653D01*
X12674147Y-11297653D02*
X12712242Y-11297653D01*
X12712242Y-11297653D02*
X12731290Y-11288129D01*
X12731290Y-11288129D02*
X12740814Y-11278606D01*
X12740814Y-11278606D02*
X12750337Y-11259558D01*
X12921766Y-11240510D02*
X12921766Y-11373844D01*
X12874147Y-11164320D02*
X12826528Y-11307177D01*
X12826528Y-11307177D02*
X12950337Y-11307177D01*
X13017004Y-11173844D02*
X13017004Y-11211939D01*
X13093195Y-11173844D02*
X13093195Y-11211939D01*
X13388433Y-11450034D02*
X13378909Y-11440510D01*
X13378909Y-11440510D02*
X13359861Y-11411939D01*
X13359861Y-11411939D02*
X13350338Y-11392891D01*
X13350338Y-11392891D02*
X13340814Y-11364320D01*
X13340814Y-11364320D02*
X13331290Y-11316701D01*
X13331290Y-11316701D02*
X13331290Y-11278606D01*
X13331290Y-11278606D02*
X13340814Y-11230987D01*
X13340814Y-11230987D02*
X13350338Y-11202415D01*
X13350338Y-11202415D02*
X13359861Y-11183368D01*
X13359861Y-11183368D02*
X13378909Y-11154796D01*
X13378909Y-11154796D02*
X13388433Y-11145272D01*
X13569385Y-11373844D02*
X13455099Y-11373844D01*
X13512242Y-11373844D02*
X13512242Y-11173844D01*
X13512242Y-11173844D02*
X13493195Y-11202415D01*
X13493195Y-11202415D02*
X13474147Y-11221463D01*
X13474147Y-11221463D02*
X13455099Y-11230987D01*
X13759861Y-11373844D02*
X13645576Y-11373844D01*
X13702718Y-11373844D02*
X13702718Y-11173844D01*
X13702718Y-11173844D02*
X13683671Y-11202415D01*
X13683671Y-11202415D02*
X13664623Y-11221463D01*
X13664623Y-11221463D02*
X13645576Y-11230987D01*
X13997957Y-11373844D02*
X13997957Y-11173844D01*
X14083671Y-11373844D02*
X14083671Y-11269082D01*
X14083671Y-11269082D02*
X14074147Y-11250034D01*
X14074147Y-11250034D02*
X14055100Y-11240510D01*
X14055100Y-11240510D02*
X14026528Y-11240510D01*
X14026528Y-11240510D02*
X14007480Y-11250034D01*
X14007480Y-11250034D02*
X13997957Y-11259558D01*
X14207480Y-11373844D02*
X14188433Y-11364320D01*
X14188433Y-11364320D02*
X14178909Y-11354796D01*
X14178909Y-11354796D02*
X14169385Y-11335748D01*
X14169385Y-11335748D02*
X14169385Y-11278606D01*
X14169385Y-11278606D02*
X14178909Y-11259558D01*
X14178909Y-11259558D02*
X14188433Y-11250034D01*
X14188433Y-11250034D02*
X14207480Y-11240510D01*
X14207480Y-11240510D02*
X14236052Y-11240510D01*
X14236052Y-11240510D02*
X14255100Y-11250034D01*
X14255100Y-11250034D02*
X14264623Y-11259558D01*
X14264623Y-11259558D02*
X14274147Y-11278606D01*
X14274147Y-11278606D02*
X14274147Y-11335748D01*
X14274147Y-11335748D02*
X14264623Y-11354796D01*
X14264623Y-11354796D02*
X14255100Y-11364320D01*
X14255100Y-11364320D02*
X14236052Y-11373844D01*
X14236052Y-11373844D02*
X14207480Y-11373844D01*
X14388433Y-11373844D02*
X14369385Y-11364320D01*
X14369385Y-11364320D02*
X14359861Y-11345272D01*
X14359861Y-11345272D02*
X14359861Y-11173844D01*
X14540814Y-11364320D02*
X14521766Y-11373844D01*
X14521766Y-11373844D02*
X14483671Y-11373844D01*
X14483671Y-11373844D02*
X14464623Y-11364320D01*
X14464623Y-11364320D02*
X14455100Y-11345272D01*
X14455100Y-11345272D02*
X14455100Y-11269082D01*
X14455100Y-11269082D02*
X14464623Y-11250034D01*
X14464623Y-11250034D02*
X14483671Y-11240510D01*
X14483671Y-11240510D02*
X14521766Y-11240510D01*
X14521766Y-11240510D02*
X14540814Y-11250034D01*
X14540814Y-11250034D02*
X14550338Y-11269082D01*
X14550338Y-11269082D02*
X14550338Y-11288129D01*
X14550338Y-11288129D02*
X14455100Y-11307177D01*
X14626528Y-11364320D02*
X14645576Y-11373844D01*
X14645576Y-11373844D02*
X14683671Y-11373844D01*
X14683671Y-11373844D02*
X14702719Y-11364320D01*
X14702719Y-11364320D02*
X14712242Y-11345272D01*
X14712242Y-11345272D02*
X14712242Y-11335748D01*
X14712242Y-11335748D02*
X14702719Y-11316701D01*
X14702719Y-11316701D02*
X14683671Y-11307177D01*
X14683671Y-11307177D02*
X14655100Y-11307177D01*
X14655100Y-11307177D02*
X14636052Y-11297653D01*
X14636052Y-11297653D02*
X14626528Y-11278606D01*
X14626528Y-11278606D02*
X14626528Y-11269082D01*
X14626528Y-11269082D02*
X14636052Y-11250034D01*
X14636052Y-11250034D02*
X14655100Y-11240510D01*
X14655100Y-11240510D02*
X14683671Y-11240510D01*
X14683671Y-11240510D02*
X14702719Y-11250034D01*
X14778909Y-11450034D02*
X14788433Y-11440510D01*
X14788433Y-11440510D02*
X14807481Y-11411939D01*
X14807481Y-11411939D02*
X14817004Y-11392891D01*
X14817004Y-11392891D02*
X14826528Y-11364320D01*
X14826528Y-11364320D02*
X14836052Y-11316701D01*
X14836052Y-11316701D02*
X14836052Y-11278606D01*
X14836052Y-11278606D02*
X14826528Y-11230987D01*
X14826528Y-11230987D02*
X14817004Y-11202415D01*
X14817004Y-11202415D02*
X14807481Y-11183368D01*
X14807481Y-11183368D02*
X14788433Y-11154796D01*
X14788433Y-11154796D02*
X14778909Y-11145272D01*
D13*
X9748370Y-11481360D02*
X9748370Y-11611360D01*
X9683370Y-11546360D02*
X9813370Y-11546360D01*
D11*
X10178909Y-11637844D02*
X10064623Y-11637844D01*
X10121766Y-11637844D02*
X10121766Y-11437844D01*
X10121766Y-11437844D02*
X10102718Y-11466415D01*
X10102718Y-11466415D02*
X10083671Y-11485463D01*
X10083671Y-11485463D02*
X10064623Y-11494987D01*
X10264623Y-11618796D02*
X10274147Y-11628320D01*
X10274147Y-11628320D02*
X10264623Y-11637844D01*
X10264623Y-11637844D02*
X10255099Y-11628320D01*
X10255099Y-11628320D02*
X10264623Y-11618796D01*
X10264623Y-11618796D02*
X10264623Y-11637844D01*
X10340814Y-11437844D02*
X10464623Y-11437844D01*
X10464623Y-11437844D02*
X10397956Y-11514034D01*
X10397956Y-11514034D02*
X10426528Y-11514034D01*
X10426528Y-11514034D02*
X10445575Y-11523558D01*
X10445575Y-11523558D02*
X10455099Y-11533082D01*
X10455099Y-11533082D02*
X10464623Y-11552129D01*
X10464623Y-11552129D02*
X10464623Y-11599748D01*
X10464623Y-11599748D02*
X10455099Y-11618796D01*
X10455099Y-11618796D02*
X10445575Y-11628320D01*
X10445575Y-11628320D02*
X10426528Y-11637844D01*
X10426528Y-11637844D02*
X10369385Y-11637844D01*
X10369385Y-11637844D02*
X10350337Y-11628320D01*
X10350337Y-11628320D02*
X10340814Y-11618796D01*
X10588433Y-11437844D02*
X10607480Y-11437844D01*
X10607480Y-11437844D02*
X10626528Y-11447368D01*
X10626528Y-11447368D02*
X10636052Y-11456891D01*
X10636052Y-11456891D02*
X10645575Y-11475939D01*
X10645575Y-11475939D02*
X10655099Y-11514034D01*
X10655099Y-11514034D02*
X10655099Y-11561653D01*
X10655099Y-11561653D02*
X10645575Y-11599748D01*
X10645575Y-11599748D02*
X10636052Y-11618796D01*
X10636052Y-11618796D02*
X10626528Y-11628320D01*
X10626528Y-11628320D02*
X10607480Y-11637844D01*
X10607480Y-11637844D02*
X10588433Y-11637844D01*
X10588433Y-11637844D02*
X10569385Y-11628320D01*
X10569385Y-11628320D02*
X10559861Y-11618796D01*
X10559861Y-11618796D02*
X10550337Y-11599748D01*
X10550337Y-11599748D02*
X10540814Y-11561653D01*
X10540814Y-11561653D02*
X10540814Y-11514034D01*
X10540814Y-11514034D02*
X10550337Y-11475939D01*
X10550337Y-11475939D02*
X10559861Y-11456891D01*
X10559861Y-11456891D02*
X10569385Y-11447368D01*
X10569385Y-11447368D02*
X10588433Y-11437844D01*
X10778909Y-11437844D02*
X10797956Y-11437844D01*
X10797956Y-11437844D02*
X10817004Y-11447368D01*
X10817004Y-11447368D02*
X10826528Y-11456891D01*
X10826528Y-11456891D02*
X10836052Y-11475939D01*
X10836052Y-11475939D02*
X10845575Y-11514034D01*
X10845575Y-11514034D02*
X10845575Y-11561653D01*
X10845575Y-11561653D02*
X10836052Y-11599748D01*
X10836052Y-11599748D02*
X10826528Y-11618796D01*
X10826528Y-11618796D02*
X10817004Y-11628320D01*
X10817004Y-11628320D02*
X10797956Y-11637844D01*
X10797956Y-11637844D02*
X10778909Y-11637844D01*
X10778909Y-11637844D02*
X10759861Y-11628320D01*
X10759861Y-11628320D02*
X10750337Y-11618796D01*
X10750337Y-11618796D02*
X10740814Y-11599748D01*
X10740814Y-11599748D02*
X10731290Y-11561653D01*
X10731290Y-11561653D02*
X10731290Y-11514034D01*
X10731290Y-11514034D02*
X10740814Y-11475939D01*
X10740814Y-11475939D02*
X10750337Y-11456891D01*
X10750337Y-11456891D02*
X10759861Y-11447368D01*
X10759861Y-11447368D02*
X10778909Y-11437844D01*
X10931290Y-11637844D02*
X10931290Y-11504510D01*
X10931290Y-11523558D02*
X10940814Y-11514034D01*
X10940814Y-11514034D02*
X10959861Y-11504510D01*
X10959861Y-11504510D02*
X10988433Y-11504510D01*
X10988433Y-11504510D02*
X11007480Y-11514034D01*
X11007480Y-11514034D02*
X11017004Y-11533082D01*
X11017004Y-11533082D02*
X11017004Y-11637844D01*
X11017004Y-11533082D02*
X11026528Y-11514034D01*
X11026528Y-11514034D02*
X11045575Y-11504510D01*
X11045575Y-11504510D02*
X11074147Y-11504510D01*
X11074147Y-11504510D02*
X11093195Y-11514034D01*
X11093195Y-11514034D02*
X11102718Y-11533082D01*
X11102718Y-11533082D02*
X11102718Y-11637844D01*
X11197956Y-11637844D02*
X11197956Y-11504510D01*
X11197956Y-11523558D02*
X11207480Y-11514034D01*
X11207480Y-11514034D02*
X11226528Y-11504510D01*
X11226528Y-11504510D02*
X11255099Y-11504510D01*
X11255099Y-11504510D02*
X11274147Y-11514034D01*
X11274147Y-11514034D02*
X11283671Y-11533082D01*
X11283671Y-11533082D02*
X11283671Y-11637844D01*
X11283671Y-11533082D02*
X11293194Y-11514034D01*
X11293194Y-11514034D02*
X11312242Y-11504510D01*
X11312242Y-11504510D02*
X11340813Y-11504510D01*
X11340813Y-11504510D02*
X11359861Y-11514034D01*
X11359861Y-11514034D02*
X11369385Y-11533082D01*
X11369385Y-11533082D02*
X11369385Y-11637844D01*
X11759861Y-11428320D02*
X11588433Y-11685463D01*
X12017004Y-11437844D02*
X12036052Y-11437844D01*
X12036052Y-11437844D02*
X12055099Y-11447368D01*
X12055099Y-11447368D02*
X12064623Y-11456891D01*
X12064623Y-11456891D02*
X12074147Y-11475939D01*
X12074147Y-11475939D02*
X12083671Y-11514034D01*
X12083671Y-11514034D02*
X12083671Y-11561653D01*
X12083671Y-11561653D02*
X12074147Y-11599748D01*
X12074147Y-11599748D02*
X12064623Y-11618796D01*
X12064623Y-11618796D02*
X12055099Y-11628320D01*
X12055099Y-11628320D02*
X12036052Y-11637844D01*
X12036052Y-11637844D02*
X12017004Y-11637844D01*
X12017004Y-11637844D02*
X11997956Y-11628320D01*
X11997956Y-11628320D02*
X11988433Y-11618796D01*
X11988433Y-11618796D02*
X11978909Y-11599748D01*
X11978909Y-11599748D02*
X11969385Y-11561653D01*
X11969385Y-11561653D02*
X11969385Y-11514034D01*
X11969385Y-11514034D02*
X11978909Y-11475939D01*
X11978909Y-11475939D02*
X11988433Y-11456891D01*
X11988433Y-11456891D02*
X11997956Y-11447368D01*
X11997956Y-11447368D02*
X12017004Y-11437844D01*
X12169385Y-11618796D02*
X12178909Y-11628320D01*
X12178909Y-11628320D02*
X12169385Y-11637844D01*
X12169385Y-11637844D02*
X12159861Y-11628320D01*
X12159861Y-11628320D02*
X12169385Y-11618796D01*
X12169385Y-11618796D02*
X12169385Y-11637844D01*
X12302718Y-11437844D02*
X12321766Y-11437844D01*
X12321766Y-11437844D02*
X12340814Y-11447368D01*
X12340814Y-11447368D02*
X12350337Y-11456891D01*
X12350337Y-11456891D02*
X12359861Y-11475939D01*
X12359861Y-11475939D02*
X12369385Y-11514034D01*
X12369385Y-11514034D02*
X12369385Y-11561653D01*
X12369385Y-11561653D02*
X12359861Y-11599748D01*
X12359861Y-11599748D02*
X12350337Y-11618796D01*
X12350337Y-11618796D02*
X12340814Y-11628320D01*
X12340814Y-11628320D02*
X12321766Y-11637844D01*
X12321766Y-11637844D02*
X12302718Y-11637844D01*
X12302718Y-11637844D02*
X12283671Y-11628320D01*
X12283671Y-11628320D02*
X12274147Y-11618796D01*
X12274147Y-11618796D02*
X12264623Y-11599748D01*
X12264623Y-11599748D02*
X12255099Y-11561653D01*
X12255099Y-11561653D02*
X12255099Y-11514034D01*
X12255099Y-11514034D02*
X12264623Y-11475939D01*
X12264623Y-11475939D02*
X12274147Y-11456891D01*
X12274147Y-11456891D02*
X12283671Y-11447368D01*
X12283671Y-11447368D02*
X12302718Y-11437844D01*
X12550337Y-11437844D02*
X12455099Y-11437844D01*
X12455099Y-11437844D02*
X12445576Y-11533082D01*
X12445576Y-11533082D02*
X12455099Y-11523558D01*
X12455099Y-11523558D02*
X12474147Y-11514034D01*
X12474147Y-11514034D02*
X12521766Y-11514034D01*
X12521766Y-11514034D02*
X12540814Y-11523558D01*
X12540814Y-11523558D02*
X12550337Y-11533082D01*
X12550337Y-11533082D02*
X12559861Y-11552129D01*
X12559861Y-11552129D02*
X12559861Y-11599748D01*
X12559861Y-11599748D02*
X12550337Y-11618796D01*
X12550337Y-11618796D02*
X12540814Y-11628320D01*
X12540814Y-11628320D02*
X12521766Y-11637844D01*
X12521766Y-11637844D02*
X12474147Y-11637844D01*
X12474147Y-11637844D02*
X12455099Y-11628320D01*
X12455099Y-11628320D02*
X12445576Y-11618796D01*
X12750337Y-11637844D02*
X12636052Y-11637844D01*
X12693195Y-11637844D02*
X12693195Y-11437844D01*
X12693195Y-11437844D02*
X12674147Y-11466415D01*
X12674147Y-11466415D02*
X12655099Y-11485463D01*
X12655099Y-11485463D02*
X12636052Y-11494987D01*
X12826528Y-11456891D02*
X12836052Y-11447368D01*
X12836052Y-11447368D02*
X12855099Y-11437844D01*
X12855099Y-11437844D02*
X12902718Y-11437844D01*
X12902718Y-11437844D02*
X12921766Y-11447368D01*
X12921766Y-11447368D02*
X12931290Y-11456891D01*
X12931290Y-11456891D02*
X12940814Y-11475939D01*
X12940814Y-11475939D02*
X12940814Y-11494987D01*
X12940814Y-11494987D02*
X12931290Y-11523558D01*
X12931290Y-11523558D02*
X12817004Y-11637844D01*
X12817004Y-11637844D02*
X12940814Y-11637844D01*
X13017004Y-11437844D02*
X13017004Y-11475939D01*
X13093195Y-11437844D02*
X13093195Y-11475939D01*
X13388433Y-11714034D02*
X13378909Y-11704510D01*
X13378909Y-11704510D02*
X13359861Y-11675939D01*
X13359861Y-11675939D02*
X13350338Y-11656891D01*
X13350338Y-11656891D02*
X13340814Y-11628320D01*
X13340814Y-11628320D02*
X13331290Y-11580701D01*
X13331290Y-11580701D02*
X13331290Y-11542606D01*
X13331290Y-11542606D02*
X13340814Y-11494987D01*
X13340814Y-11494987D02*
X13350338Y-11466415D01*
X13350338Y-11466415D02*
X13359861Y-11447368D01*
X13359861Y-11447368D02*
X13378909Y-11418796D01*
X13378909Y-11418796D02*
X13388433Y-11409272D01*
X13455099Y-11456891D02*
X13464623Y-11447368D01*
X13464623Y-11447368D02*
X13483671Y-11437844D01*
X13483671Y-11437844D02*
X13531290Y-11437844D01*
X13531290Y-11437844D02*
X13550338Y-11447368D01*
X13550338Y-11447368D02*
X13559861Y-11456891D01*
X13559861Y-11456891D02*
X13569385Y-11475939D01*
X13569385Y-11475939D02*
X13569385Y-11494987D01*
X13569385Y-11494987D02*
X13559861Y-11523558D01*
X13559861Y-11523558D02*
X13445576Y-11637844D01*
X13445576Y-11637844D02*
X13569385Y-11637844D01*
X13807480Y-11637844D02*
X13807480Y-11437844D01*
X13893195Y-11637844D02*
X13893195Y-11533082D01*
X13893195Y-11533082D02*
X13883671Y-11514034D01*
X13883671Y-11514034D02*
X13864623Y-11504510D01*
X13864623Y-11504510D02*
X13836052Y-11504510D01*
X13836052Y-11504510D02*
X13817004Y-11514034D01*
X13817004Y-11514034D02*
X13807480Y-11523558D01*
X14017004Y-11637844D02*
X13997957Y-11628320D01*
X13997957Y-11628320D02*
X13988433Y-11618796D01*
X13988433Y-11618796D02*
X13978909Y-11599748D01*
X13978909Y-11599748D02*
X13978909Y-11542606D01*
X13978909Y-11542606D02*
X13988433Y-11523558D01*
X13988433Y-11523558D02*
X13997957Y-11514034D01*
X13997957Y-11514034D02*
X14017004Y-11504510D01*
X14017004Y-11504510D02*
X14045576Y-11504510D01*
X14045576Y-11504510D02*
X14064623Y-11514034D01*
X14064623Y-11514034D02*
X14074147Y-11523558D01*
X14074147Y-11523558D02*
X14083671Y-11542606D01*
X14083671Y-11542606D02*
X14083671Y-11599748D01*
X14083671Y-11599748D02*
X14074147Y-11618796D01*
X14074147Y-11618796D02*
X14064623Y-11628320D01*
X14064623Y-11628320D02*
X14045576Y-11637844D01*
X14045576Y-11637844D02*
X14017004Y-11637844D01*
X14197957Y-11637844D02*
X14178909Y-11628320D01*
X14178909Y-11628320D02*
X14169385Y-11609272D01*
X14169385Y-11609272D02*
X14169385Y-11437844D01*
X14350338Y-11628320D02*
X14331290Y-11637844D01*
X14331290Y-11637844D02*
X14293195Y-11637844D01*
X14293195Y-11637844D02*
X14274147Y-11628320D01*
X14274147Y-11628320D02*
X14264623Y-11609272D01*
X14264623Y-11609272D02*
X14264623Y-11533082D01*
X14264623Y-11533082D02*
X14274147Y-11514034D01*
X14274147Y-11514034D02*
X14293195Y-11504510D01*
X14293195Y-11504510D02*
X14331290Y-11504510D01*
X14331290Y-11504510D02*
X14350338Y-11514034D01*
X14350338Y-11514034D02*
X14359861Y-11533082D01*
X14359861Y-11533082D02*
X14359861Y-11552129D01*
X14359861Y-11552129D02*
X14264623Y-11571177D01*
X14436052Y-11628320D02*
X14455100Y-11637844D01*
X14455100Y-11637844D02*
X14493195Y-11637844D01*
X14493195Y-11637844D02*
X14512242Y-11628320D01*
X14512242Y-11628320D02*
X14521766Y-11609272D01*
X14521766Y-11609272D02*
X14521766Y-11599748D01*
X14521766Y-11599748D02*
X14512242Y-11580701D01*
X14512242Y-11580701D02*
X14493195Y-11571177D01*
X14493195Y-11571177D02*
X14464623Y-11571177D01*
X14464623Y-11571177D02*
X14445576Y-11561653D01*
X14445576Y-11561653D02*
X14436052Y-11542606D01*
X14436052Y-11542606D02*
X14436052Y-11533082D01*
X14436052Y-11533082D02*
X14445576Y-11514034D01*
X14445576Y-11514034D02*
X14464623Y-11504510D01*
X14464623Y-11504510D02*
X14493195Y-11504510D01*
X14493195Y-11504510D02*
X14512242Y-11514034D01*
X14588433Y-11714034D02*
X14597957Y-11704510D01*
X14597957Y-11704510D02*
X14617004Y-11675939D01*
X14617004Y-11675939D02*
X14626528Y-11656891D01*
X14626528Y-11656891D02*
X14636052Y-11628320D01*
X14636052Y-11628320D02*
X14645576Y-11580701D01*
X14645576Y-11580701D02*
X14645576Y-11542606D01*
X14645576Y-11542606D02*
X14636052Y-11494987D01*
X14636052Y-11494987D02*
X14626528Y-11466415D01*
X14626528Y-11466415D02*
X14617004Y-11447368D01*
X14617004Y-11447368D02*
X14597957Y-11418796D01*
X14597957Y-11418796D02*
X14588433Y-11409272D01*
D14*
X9791404Y-11863393D02*
X9791404Y-11757326D01*
X9685337Y-11757326D01*
X9685337Y-11863393D01*
X9791404Y-11863393D01*
D11*
X10178909Y-11901844D02*
X10064623Y-11901844D01*
X10121766Y-11901844D02*
X10121766Y-11701844D01*
X10121766Y-11701844D02*
X10102718Y-11730415D01*
X10102718Y-11730415D02*
X10083671Y-11749463D01*
X10083671Y-11749463D02*
X10064623Y-11758987D01*
X10264623Y-11882796D02*
X10274147Y-11892320D01*
X10274147Y-11892320D02*
X10264623Y-11901844D01*
X10264623Y-11901844D02*
X10255099Y-11892320D01*
X10255099Y-11892320D02*
X10264623Y-11882796D01*
X10264623Y-11882796D02*
X10264623Y-11901844D01*
X10455099Y-11701844D02*
X10359861Y-11701844D01*
X10359861Y-11701844D02*
X10350337Y-11797082D01*
X10350337Y-11797082D02*
X10359861Y-11787558D01*
X10359861Y-11787558D02*
X10378909Y-11778034D01*
X10378909Y-11778034D02*
X10426528Y-11778034D01*
X10426528Y-11778034D02*
X10445575Y-11787558D01*
X10445575Y-11787558D02*
X10455099Y-11797082D01*
X10455099Y-11797082D02*
X10464623Y-11816129D01*
X10464623Y-11816129D02*
X10464623Y-11863748D01*
X10464623Y-11863748D02*
X10455099Y-11882796D01*
X10455099Y-11882796D02*
X10445575Y-11892320D01*
X10445575Y-11892320D02*
X10426528Y-11901844D01*
X10426528Y-11901844D02*
X10378909Y-11901844D01*
X10378909Y-11901844D02*
X10359861Y-11892320D01*
X10359861Y-11892320D02*
X10350337Y-11882796D01*
X10588433Y-11701844D02*
X10607480Y-11701844D01*
X10607480Y-11701844D02*
X10626528Y-11711368D01*
X10626528Y-11711368D02*
X10636052Y-11720891D01*
X10636052Y-11720891D02*
X10645575Y-11739939D01*
X10645575Y-11739939D02*
X10655099Y-11778034D01*
X10655099Y-11778034D02*
X10655099Y-11825653D01*
X10655099Y-11825653D02*
X10645575Y-11863748D01*
X10645575Y-11863748D02*
X10636052Y-11882796D01*
X10636052Y-11882796D02*
X10626528Y-11892320D01*
X10626528Y-11892320D02*
X10607480Y-11901844D01*
X10607480Y-11901844D02*
X10588433Y-11901844D01*
X10588433Y-11901844D02*
X10569385Y-11892320D01*
X10569385Y-11892320D02*
X10559861Y-11882796D01*
X10559861Y-11882796D02*
X10550337Y-11863748D01*
X10550337Y-11863748D02*
X10540814Y-11825653D01*
X10540814Y-11825653D02*
X10540814Y-11778034D01*
X10540814Y-11778034D02*
X10550337Y-11739939D01*
X10550337Y-11739939D02*
X10559861Y-11720891D01*
X10559861Y-11720891D02*
X10569385Y-11711368D01*
X10569385Y-11711368D02*
X10588433Y-11701844D01*
X10778909Y-11701844D02*
X10797956Y-11701844D01*
X10797956Y-11701844D02*
X10817004Y-11711368D01*
X10817004Y-11711368D02*
X10826528Y-11720891D01*
X10826528Y-11720891D02*
X10836052Y-11739939D01*
X10836052Y-11739939D02*
X10845575Y-11778034D01*
X10845575Y-11778034D02*
X10845575Y-11825653D01*
X10845575Y-11825653D02*
X10836052Y-11863748D01*
X10836052Y-11863748D02*
X10826528Y-11882796D01*
X10826528Y-11882796D02*
X10817004Y-11892320D01*
X10817004Y-11892320D02*
X10797956Y-11901844D01*
X10797956Y-11901844D02*
X10778909Y-11901844D01*
X10778909Y-11901844D02*
X10759861Y-11892320D01*
X10759861Y-11892320D02*
X10750337Y-11882796D01*
X10750337Y-11882796D02*
X10740814Y-11863748D01*
X10740814Y-11863748D02*
X10731290Y-11825653D01*
X10731290Y-11825653D02*
X10731290Y-11778034D01*
X10731290Y-11778034D02*
X10740814Y-11739939D01*
X10740814Y-11739939D02*
X10750337Y-11720891D01*
X10750337Y-11720891D02*
X10759861Y-11711368D01*
X10759861Y-11711368D02*
X10778909Y-11701844D01*
X10931290Y-11901844D02*
X10931290Y-11768510D01*
X10931290Y-11787558D02*
X10940814Y-11778034D01*
X10940814Y-11778034D02*
X10959861Y-11768510D01*
X10959861Y-11768510D02*
X10988433Y-11768510D01*
X10988433Y-11768510D02*
X11007480Y-11778034D01*
X11007480Y-11778034D02*
X11017004Y-11797082D01*
X11017004Y-11797082D02*
X11017004Y-11901844D01*
X11017004Y-11797082D02*
X11026528Y-11778034D01*
X11026528Y-11778034D02*
X11045575Y-11768510D01*
X11045575Y-11768510D02*
X11074147Y-11768510D01*
X11074147Y-11768510D02*
X11093195Y-11778034D01*
X11093195Y-11778034D02*
X11102718Y-11797082D01*
X11102718Y-11797082D02*
X11102718Y-11901844D01*
X11197956Y-11901844D02*
X11197956Y-11768510D01*
X11197956Y-11787558D02*
X11207480Y-11778034D01*
X11207480Y-11778034D02*
X11226528Y-11768510D01*
X11226528Y-11768510D02*
X11255099Y-11768510D01*
X11255099Y-11768510D02*
X11274147Y-11778034D01*
X11274147Y-11778034D02*
X11283671Y-11797082D01*
X11283671Y-11797082D02*
X11283671Y-11901844D01*
X11283671Y-11797082D02*
X11293194Y-11778034D01*
X11293194Y-11778034D02*
X11312242Y-11768510D01*
X11312242Y-11768510D02*
X11340813Y-11768510D01*
X11340813Y-11768510D02*
X11359861Y-11778034D01*
X11359861Y-11778034D02*
X11369385Y-11797082D01*
X11369385Y-11797082D02*
X11369385Y-11901844D01*
X11759861Y-11692320D02*
X11588433Y-11949463D01*
X12017004Y-11701844D02*
X12036052Y-11701844D01*
X12036052Y-11701844D02*
X12055099Y-11711368D01*
X12055099Y-11711368D02*
X12064623Y-11720891D01*
X12064623Y-11720891D02*
X12074147Y-11739939D01*
X12074147Y-11739939D02*
X12083671Y-11778034D01*
X12083671Y-11778034D02*
X12083671Y-11825653D01*
X12083671Y-11825653D02*
X12074147Y-11863748D01*
X12074147Y-11863748D02*
X12064623Y-11882796D01*
X12064623Y-11882796D02*
X12055099Y-11892320D01*
X12055099Y-11892320D02*
X12036052Y-11901844D01*
X12036052Y-11901844D02*
X12017004Y-11901844D01*
X12017004Y-11901844D02*
X11997956Y-11892320D01*
X11997956Y-11892320D02*
X11988433Y-11882796D01*
X11988433Y-11882796D02*
X11978909Y-11863748D01*
X11978909Y-11863748D02*
X11969385Y-11825653D01*
X11969385Y-11825653D02*
X11969385Y-11778034D01*
X11969385Y-11778034D02*
X11978909Y-11739939D01*
X11978909Y-11739939D02*
X11988433Y-11720891D01*
X11988433Y-11720891D02*
X11997956Y-11711368D01*
X11997956Y-11711368D02*
X12017004Y-11701844D01*
X12169385Y-11882796D02*
X12178909Y-11892320D01*
X12178909Y-11892320D02*
X12169385Y-11901844D01*
X12169385Y-11901844D02*
X12159861Y-11892320D01*
X12159861Y-11892320D02*
X12169385Y-11882796D01*
X12169385Y-11882796D02*
X12169385Y-11901844D01*
X12302718Y-11701844D02*
X12321766Y-11701844D01*
X12321766Y-11701844D02*
X12340814Y-11711368D01*
X12340814Y-11711368D02*
X12350337Y-11720891D01*
X12350337Y-11720891D02*
X12359861Y-11739939D01*
X12359861Y-11739939D02*
X12369385Y-11778034D01*
X12369385Y-11778034D02*
X12369385Y-11825653D01*
X12369385Y-11825653D02*
X12359861Y-11863748D01*
X12359861Y-11863748D02*
X12350337Y-11882796D01*
X12350337Y-11882796D02*
X12340814Y-11892320D01*
X12340814Y-11892320D02*
X12321766Y-11901844D01*
X12321766Y-11901844D02*
X12302718Y-11901844D01*
X12302718Y-11901844D02*
X12283671Y-11892320D01*
X12283671Y-11892320D02*
X12274147Y-11882796D01*
X12274147Y-11882796D02*
X12264623Y-11863748D01*
X12264623Y-11863748D02*
X12255099Y-11825653D01*
X12255099Y-11825653D02*
X12255099Y-11778034D01*
X12255099Y-11778034D02*
X12264623Y-11739939D01*
X12264623Y-11739939D02*
X12274147Y-11720891D01*
X12274147Y-11720891D02*
X12283671Y-11711368D01*
X12283671Y-11711368D02*
X12302718Y-11701844D01*
X12550337Y-11701844D02*
X12455099Y-11701844D01*
X12455099Y-11701844D02*
X12445576Y-11797082D01*
X12445576Y-11797082D02*
X12455099Y-11787558D01*
X12455099Y-11787558D02*
X12474147Y-11778034D01*
X12474147Y-11778034D02*
X12521766Y-11778034D01*
X12521766Y-11778034D02*
X12540814Y-11787558D01*
X12540814Y-11787558D02*
X12550337Y-11797082D01*
X12550337Y-11797082D02*
X12559861Y-11816129D01*
X12559861Y-11816129D02*
X12559861Y-11863748D01*
X12559861Y-11863748D02*
X12550337Y-11882796D01*
X12550337Y-11882796D02*
X12540814Y-11892320D01*
X12540814Y-11892320D02*
X12521766Y-11901844D01*
X12521766Y-11901844D02*
X12474147Y-11901844D01*
X12474147Y-11901844D02*
X12455099Y-11892320D01*
X12455099Y-11892320D02*
X12445576Y-11882796D01*
X12655099Y-11901844D02*
X12693195Y-11901844D01*
X12693195Y-11901844D02*
X12712242Y-11892320D01*
X12712242Y-11892320D02*
X12721766Y-11882796D01*
X12721766Y-11882796D02*
X12740814Y-11854225D01*
X12740814Y-11854225D02*
X12750337Y-11816129D01*
X12750337Y-11816129D02*
X12750337Y-11739939D01*
X12750337Y-11739939D02*
X12740814Y-11720891D01*
X12740814Y-11720891D02*
X12731290Y-11711368D01*
X12731290Y-11711368D02*
X12712242Y-11701844D01*
X12712242Y-11701844D02*
X12674147Y-11701844D01*
X12674147Y-11701844D02*
X12655099Y-11711368D01*
X12655099Y-11711368D02*
X12645576Y-11720891D01*
X12645576Y-11720891D02*
X12636052Y-11739939D01*
X12636052Y-11739939D02*
X12636052Y-11787558D01*
X12636052Y-11787558D02*
X12645576Y-11806606D01*
X12645576Y-11806606D02*
X12655099Y-11816129D01*
X12655099Y-11816129D02*
X12674147Y-11825653D01*
X12674147Y-11825653D02*
X12712242Y-11825653D01*
X12712242Y-11825653D02*
X12731290Y-11816129D01*
X12731290Y-11816129D02*
X12740814Y-11806606D01*
X12740814Y-11806606D02*
X12750337Y-11787558D01*
X12940814Y-11901844D02*
X12826528Y-11901844D01*
X12883671Y-11901844D02*
X12883671Y-11701844D01*
X12883671Y-11701844D02*
X12864623Y-11730415D01*
X12864623Y-11730415D02*
X12845576Y-11749463D01*
X12845576Y-11749463D02*
X12826528Y-11758987D01*
X13017004Y-11701844D02*
X13017004Y-11739939D01*
X13093195Y-11701844D02*
X13093195Y-11739939D01*
X13388433Y-11978034D02*
X13378909Y-11968510D01*
X13378909Y-11968510D02*
X13359861Y-11939939D01*
X13359861Y-11939939D02*
X13350338Y-11920891D01*
X13350338Y-11920891D02*
X13340814Y-11892320D01*
X13340814Y-11892320D02*
X13331290Y-11844701D01*
X13331290Y-11844701D02*
X13331290Y-11806606D01*
X13331290Y-11806606D02*
X13340814Y-11758987D01*
X13340814Y-11758987D02*
X13350338Y-11730415D01*
X13350338Y-11730415D02*
X13359861Y-11711368D01*
X13359861Y-11711368D02*
X13378909Y-11682796D01*
X13378909Y-11682796D02*
X13388433Y-11673272D01*
X13455099Y-11720891D02*
X13464623Y-11711368D01*
X13464623Y-11711368D02*
X13483671Y-11701844D01*
X13483671Y-11701844D02*
X13531290Y-11701844D01*
X13531290Y-11701844D02*
X13550338Y-11711368D01*
X13550338Y-11711368D02*
X13559861Y-11720891D01*
X13559861Y-11720891D02*
X13569385Y-11739939D01*
X13569385Y-11739939D02*
X13569385Y-11758987D01*
X13569385Y-11758987D02*
X13559861Y-11787558D01*
X13559861Y-11787558D02*
X13445576Y-11901844D01*
X13445576Y-11901844D02*
X13569385Y-11901844D01*
X13807480Y-11901844D02*
X13807480Y-11701844D01*
X13893195Y-11901844D02*
X13893195Y-11797082D01*
X13893195Y-11797082D02*
X13883671Y-11778034D01*
X13883671Y-11778034D02*
X13864623Y-11768510D01*
X13864623Y-11768510D02*
X13836052Y-11768510D01*
X13836052Y-11768510D02*
X13817004Y-11778034D01*
X13817004Y-11778034D02*
X13807480Y-11787558D01*
X14017004Y-11901844D02*
X13997957Y-11892320D01*
X13997957Y-11892320D02*
X13988433Y-11882796D01*
X13988433Y-11882796D02*
X13978909Y-11863748D01*
X13978909Y-11863748D02*
X13978909Y-11806606D01*
X13978909Y-11806606D02*
X13988433Y-11787558D01*
X13988433Y-11787558D02*
X13997957Y-11778034D01*
X13997957Y-11778034D02*
X14017004Y-11768510D01*
X14017004Y-11768510D02*
X14045576Y-11768510D01*
X14045576Y-11768510D02*
X14064623Y-11778034D01*
X14064623Y-11778034D02*
X14074147Y-11787558D01*
X14074147Y-11787558D02*
X14083671Y-11806606D01*
X14083671Y-11806606D02*
X14083671Y-11863748D01*
X14083671Y-11863748D02*
X14074147Y-11882796D01*
X14074147Y-11882796D02*
X14064623Y-11892320D01*
X14064623Y-11892320D02*
X14045576Y-11901844D01*
X14045576Y-11901844D02*
X14017004Y-11901844D01*
X14197957Y-11901844D02*
X14178909Y-11892320D01*
X14178909Y-11892320D02*
X14169385Y-11873272D01*
X14169385Y-11873272D02*
X14169385Y-11701844D01*
X14350338Y-11892320D02*
X14331290Y-11901844D01*
X14331290Y-11901844D02*
X14293195Y-11901844D01*
X14293195Y-11901844D02*
X14274147Y-11892320D01*
X14274147Y-11892320D02*
X14264623Y-11873272D01*
X14264623Y-11873272D02*
X14264623Y-11797082D01*
X14264623Y-11797082D02*
X14274147Y-11778034D01*
X14274147Y-11778034D02*
X14293195Y-11768510D01*
X14293195Y-11768510D02*
X14331290Y-11768510D01*
X14331290Y-11768510D02*
X14350338Y-11778034D01*
X14350338Y-11778034D02*
X14359861Y-11797082D01*
X14359861Y-11797082D02*
X14359861Y-11816129D01*
X14359861Y-11816129D02*
X14264623Y-11835177D01*
X14436052Y-11892320D02*
X14455100Y-11901844D01*
X14455100Y-11901844D02*
X14493195Y-11901844D01*
X14493195Y-11901844D02*
X14512242Y-11892320D01*
X14512242Y-11892320D02*
X14521766Y-11873272D01*
X14521766Y-11873272D02*
X14521766Y-11863748D01*
X14521766Y-11863748D02*
X14512242Y-11844701D01*
X14512242Y-11844701D02*
X14493195Y-11835177D01*
X14493195Y-11835177D02*
X14464623Y-11835177D01*
X14464623Y-11835177D02*
X14445576Y-11825653D01*
X14445576Y-11825653D02*
X14436052Y-11806606D01*
X14436052Y-11806606D02*
X14436052Y-11797082D01*
X14436052Y-11797082D02*
X14445576Y-11778034D01*
X14445576Y-11778034D02*
X14464623Y-11768510D01*
X14464623Y-11768510D02*
X14493195Y-11768510D01*
X14493195Y-11768510D02*
X14512242Y-11778034D01*
X14588433Y-11978034D02*
X14597957Y-11968510D01*
X14597957Y-11968510D02*
X14617004Y-11939939D01*
X14617004Y-11939939D02*
X14626528Y-11920891D01*
X14626528Y-11920891D02*
X14636052Y-11892320D01*
X14636052Y-11892320D02*
X14645576Y-11844701D01*
X14645576Y-11844701D02*
X14645576Y-11806606D01*
X14645576Y-11806606D02*
X14636052Y-11758987D01*
X14636052Y-11758987D02*
X14626528Y-11730415D01*
X14626528Y-11730415D02*
X14617004Y-11711368D01*
X14617004Y-11711368D02*
X14597957Y-11682796D01*
X14597957Y-11682796D02*
X14588433Y-11673272D01*
D15*
X9733370Y-12160360D02*
X9813370Y-12080360D01*
X9733370Y-12000360D01*
X9653370Y-12080360D01*
X9733370Y-12160360D01*
D11*
X10178909Y-12171844D02*
X10064623Y-12171844D01*
X10121766Y-12171844D02*
X10121766Y-11971844D01*
X10121766Y-11971844D02*
X10102718Y-12000415D01*
X10102718Y-12000415D02*
X10083671Y-12019463D01*
X10083671Y-12019463D02*
X10064623Y-12028987D01*
X10264623Y-12152796D02*
X10274147Y-12162320D01*
X10274147Y-12162320D02*
X10264623Y-12171844D01*
X10264623Y-12171844D02*
X10255099Y-12162320D01*
X10255099Y-12162320D02*
X10264623Y-12152796D01*
X10264623Y-12152796D02*
X10264623Y-12171844D01*
X10445575Y-11971844D02*
X10407480Y-11971844D01*
X10407480Y-11971844D02*
X10388433Y-11981368D01*
X10388433Y-11981368D02*
X10378909Y-11990891D01*
X10378909Y-11990891D02*
X10359861Y-12019463D01*
X10359861Y-12019463D02*
X10350337Y-12057558D01*
X10350337Y-12057558D02*
X10350337Y-12133748D01*
X10350337Y-12133748D02*
X10359861Y-12152796D01*
X10359861Y-12152796D02*
X10369385Y-12162320D01*
X10369385Y-12162320D02*
X10388433Y-12171844D01*
X10388433Y-12171844D02*
X10426528Y-12171844D01*
X10426528Y-12171844D02*
X10445575Y-12162320D01*
X10445575Y-12162320D02*
X10455099Y-12152796D01*
X10455099Y-12152796D02*
X10464623Y-12133748D01*
X10464623Y-12133748D02*
X10464623Y-12086129D01*
X10464623Y-12086129D02*
X10455099Y-12067082D01*
X10455099Y-12067082D02*
X10445575Y-12057558D01*
X10445575Y-12057558D02*
X10426528Y-12048034D01*
X10426528Y-12048034D02*
X10388433Y-12048034D01*
X10388433Y-12048034D02*
X10369385Y-12057558D01*
X10369385Y-12057558D02*
X10359861Y-12067082D01*
X10359861Y-12067082D02*
X10350337Y-12086129D01*
X10588433Y-11971844D02*
X10607480Y-11971844D01*
X10607480Y-11971844D02*
X10626528Y-11981368D01*
X10626528Y-11981368D02*
X10636052Y-11990891D01*
X10636052Y-11990891D02*
X10645575Y-12009939D01*
X10645575Y-12009939D02*
X10655099Y-12048034D01*
X10655099Y-12048034D02*
X10655099Y-12095653D01*
X10655099Y-12095653D02*
X10645575Y-12133748D01*
X10645575Y-12133748D02*
X10636052Y-12152796D01*
X10636052Y-12152796D02*
X10626528Y-12162320D01*
X10626528Y-12162320D02*
X10607480Y-12171844D01*
X10607480Y-12171844D02*
X10588433Y-12171844D01*
X10588433Y-12171844D02*
X10569385Y-12162320D01*
X10569385Y-12162320D02*
X10559861Y-12152796D01*
X10559861Y-12152796D02*
X10550337Y-12133748D01*
X10550337Y-12133748D02*
X10540814Y-12095653D01*
X10540814Y-12095653D02*
X10540814Y-12048034D01*
X10540814Y-12048034D02*
X10550337Y-12009939D01*
X10550337Y-12009939D02*
X10559861Y-11990891D01*
X10559861Y-11990891D02*
X10569385Y-11981368D01*
X10569385Y-11981368D02*
X10588433Y-11971844D01*
X10778909Y-11971844D02*
X10797956Y-11971844D01*
X10797956Y-11971844D02*
X10817004Y-11981368D01*
X10817004Y-11981368D02*
X10826528Y-11990891D01*
X10826528Y-11990891D02*
X10836052Y-12009939D01*
X10836052Y-12009939D02*
X10845575Y-12048034D01*
X10845575Y-12048034D02*
X10845575Y-12095653D01*
X10845575Y-12095653D02*
X10836052Y-12133748D01*
X10836052Y-12133748D02*
X10826528Y-12152796D01*
X10826528Y-12152796D02*
X10817004Y-12162320D01*
X10817004Y-12162320D02*
X10797956Y-12171844D01*
X10797956Y-12171844D02*
X10778909Y-12171844D01*
X10778909Y-12171844D02*
X10759861Y-12162320D01*
X10759861Y-12162320D02*
X10750337Y-12152796D01*
X10750337Y-12152796D02*
X10740814Y-12133748D01*
X10740814Y-12133748D02*
X10731290Y-12095653D01*
X10731290Y-12095653D02*
X10731290Y-12048034D01*
X10731290Y-12048034D02*
X10740814Y-12009939D01*
X10740814Y-12009939D02*
X10750337Y-11990891D01*
X10750337Y-11990891D02*
X10759861Y-11981368D01*
X10759861Y-11981368D02*
X10778909Y-11971844D01*
X10931290Y-12171844D02*
X10931290Y-12038510D01*
X10931290Y-12057558D02*
X10940814Y-12048034D01*
X10940814Y-12048034D02*
X10959861Y-12038510D01*
X10959861Y-12038510D02*
X10988433Y-12038510D01*
X10988433Y-12038510D02*
X11007480Y-12048034D01*
X11007480Y-12048034D02*
X11017004Y-12067082D01*
X11017004Y-12067082D02*
X11017004Y-12171844D01*
X11017004Y-12067082D02*
X11026528Y-12048034D01*
X11026528Y-12048034D02*
X11045575Y-12038510D01*
X11045575Y-12038510D02*
X11074147Y-12038510D01*
X11074147Y-12038510D02*
X11093195Y-12048034D01*
X11093195Y-12048034D02*
X11102718Y-12067082D01*
X11102718Y-12067082D02*
X11102718Y-12171844D01*
X11197956Y-12171844D02*
X11197956Y-12038510D01*
X11197956Y-12057558D02*
X11207480Y-12048034D01*
X11207480Y-12048034D02*
X11226528Y-12038510D01*
X11226528Y-12038510D02*
X11255099Y-12038510D01*
X11255099Y-12038510D02*
X11274147Y-12048034D01*
X11274147Y-12048034D02*
X11283671Y-12067082D01*
X11283671Y-12067082D02*
X11283671Y-12171844D01*
X11283671Y-12067082D02*
X11293194Y-12048034D01*
X11293194Y-12048034D02*
X11312242Y-12038510D01*
X11312242Y-12038510D02*
X11340813Y-12038510D01*
X11340813Y-12038510D02*
X11359861Y-12048034D01*
X11359861Y-12048034D02*
X11369385Y-12067082D01*
X11369385Y-12067082D02*
X11369385Y-12171844D01*
X11759861Y-11962320D02*
X11588433Y-12219463D01*
X12017004Y-11971844D02*
X12036052Y-11971844D01*
X12036052Y-11971844D02*
X12055099Y-11981368D01*
X12055099Y-11981368D02*
X12064623Y-11990891D01*
X12064623Y-11990891D02*
X12074147Y-12009939D01*
X12074147Y-12009939D02*
X12083671Y-12048034D01*
X12083671Y-12048034D02*
X12083671Y-12095653D01*
X12083671Y-12095653D02*
X12074147Y-12133748D01*
X12074147Y-12133748D02*
X12064623Y-12152796D01*
X12064623Y-12152796D02*
X12055099Y-12162320D01*
X12055099Y-12162320D02*
X12036052Y-12171844D01*
X12036052Y-12171844D02*
X12017004Y-12171844D01*
X12017004Y-12171844D02*
X11997956Y-12162320D01*
X11997956Y-12162320D02*
X11988433Y-12152796D01*
X11988433Y-12152796D02*
X11978909Y-12133748D01*
X11978909Y-12133748D02*
X11969385Y-12095653D01*
X11969385Y-12095653D02*
X11969385Y-12048034D01*
X11969385Y-12048034D02*
X11978909Y-12009939D01*
X11978909Y-12009939D02*
X11988433Y-11990891D01*
X11988433Y-11990891D02*
X11997956Y-11981368D01*
X11997956Y-11981368D02*
X12017004Y-11971844D01*
X12169385Y-12152796D02*
X12178909Y-12162320D01*
X12178909Y-12162320D02*
X12169385Y-12171844D01*
X12169385Y-12171844D02*
X12159861Y-12162320D01*
X12159861Y-12162320D02*
X12169385Y-12152796D01*
X12169385Y-12152796D02*
X12169385Y-12171844D01*
X12302718Y-11971844D02*
X12321766Y-11971844D01*
X12321766Y-11971844D02*
X12340814Y-11981368D01*
X12340814Y-11981368D02*
X12350337Y-11990891D01*
X12350337Y-11990891D02*
X12359861Y-12009939D01*
X12359861Y-12009939D02*
X12369385Y-12048034D01*
X12369385Y-12048034D02*
X12369385Y-12095653D01*
X12369385Y-12095653D02*
X12359861Y-12133748D01*
X12359861Y-12133748D02*
X12350337Y-12152796D01*
X12350337Y-12152796D02*
X12340814Y-12162320D01*
X12340814Y-12162320D02*
X12321766Y-12171844D01*
X12321766Y-12171844D02*
X12302718Y-12171844D01*
X12302718Y-12171844D02*
X12283671Y-12162320D01*
X12283671Y-12162320D02*
X12274147Y-12152796D01*
X12274147Y-12152796D02*
X12264623Y-12133748D01*
X12264623Y-12133748D02*
X12255099Y-12095653D01*
X12255099Y-12095653D02*
X12255099Y-12048034D01*
X12255099Y-12048034D02*
X12264623Y-12009939D01*
X12264623Y-12009939D02*
X12274147Y-11990891D01*
X12274147Y-11990891D02*
X12283671Y-11981368D01*
X12283671Y-11981368D02*
X12302718Y-11971844D01*
X12540814Y-11971844D02*
X12502718Y-11971844D01*
X12502718Y-11971844D02*
X12483671Y-11981368D01*
X12483671Y-11981368D02*
X12474147Y-11990891D01*
X12474147Y-11990891D02*
X12455099Y-12019463D01*
X12455099Y-12019463D02*
X12445576Y-12057558D01*
X12445576Y-12057558D02*
X12445576Y-12133748D01*
X12445576Y-12133748D02*
X12455099Y-12152796D01*
X12455099Y-12152796D02*
X12464623Y-12162320D01*
X12464623Y-12162320D02*
X12483671Y-12171844D01*
X12483671Y-12171844D02*
X12521766Y-12171844D01*
X12521766Y-12171844D02*
X12540814Y-12162320D01*
X12540814Y-12162320D02*
X12550337Y-12152796D01*
X12550337Y-12152796D02*
X12559861Y-12133748D01*
X12559861Y-12133748D02*
X12559861Y-12086129D01*
X12559861Y-12086129D02*
X12550337Y-12067082D01*
X12550337Y-12067082D02*
X12540814Y-12057558D01*
X12540814Y-12057558D02*
X12521766Y-12048034D01*
X12521766Y-12048034D02*
X12483671Y-12048034D01*
X12483671Y-12048034D02*
X12464623Y-12057558D01*
X12464623Y-12057558D02*
X12455099Y-12067082D01*
X12455099Y-12067082D02*
X12445576Y-12086129D01*
X12626528Y-11971844D02*
X12750337Y-11971844D01*
X12750337Y-11971844D02*
X12683671Y-12048034D01*
X12683671Y-12048034D02*
X12712242Y-12048034D01*
X12712242Y-12048034D02*
X12731290Y-12057558D01*
X12731290Y-12057558D02*
X12740814Y-12067082D01*
X12740814Y-12067082D02*
X12750337Y-12086129D01*
X12750337Y-12086129D02*
X12750337Y-12133748D01*
X12750337Y-12133748D02*
X12740814Y-12152796D01*
X12740814Y-12152796D02*
X12731290Y-12162320D01*
X12731290Y-12162320D02*
X12712242Y-12171844D01*
X12712242Y-12171844D02*
X12655099Y-12171844D01*
X12655099Y-12171844D02*
X12636052Y-12162320D01*
X12636052Y-12162320D02*
X12626528Y-12152796D01*
X12874147Y-11971844D02*
X12893195Y-11971844D01*
X12893195Y-11971844D02*
X12912242Y-11981368D01*
X12912242Y-11981368D02*
X12921766Y-11990891D01*
X12921766Y-11990891D02*
X12931290Y-12009939D01*
X12931290Y-12009939D02*
X12940814Y-12048034D01*
X12940814Y-12048034D02*
X12940814Y-12095653D01*
X12940814Y-12095653D02*
X12931290Y-12133748D01*
X12931290Y-12133748D02*
X12921766Y-12152796D01*
X12921766Y-12152796D02*
X12912242Y-12162320D01*
X12912242Y-12162320D02*
X12893195Y-12171844D01*
X12893195Y-12171844D02*
X12874147Y-12171844D01*
X12874147Y-12171844D02*
X12855099Y-12162320D01*
X12855099Y-12162320D02*
X12845576Y-12152796D01*
X12845576Y-12152796D02*
X12836052Y-12133748D01*
X12836052Y-12133748D02*
X12826528Y-12095653D01*
X12826528Y-12095653D02*
X12826528Y-12048034D01*
X12826528Y-12048034D02*
X12836052Y-12009939D01*
X12836052Y-12009939D02*
X12845576Y-11990891D01*
X12845576Y-11990891D02*
X12855099Y-11981368D01*
X12855099Y-11981368D02*
X12874147Y-11971844D01*
X13017004Y-11971844D02*
X13017004Y-12009939D01*
X13093195Y-11971844D02*
X13093195Y-12009939D01*
X13388433Y-12248034D02*
X13378909Y-12238510D01*
X13378909Y-12238510D02*
X13359861Y-12209939D01*
X13359861Y-12209939D02*
X13350338Y-12190891D01*
X13350338Y-12190891D02*
X13340814Y-12162320D01*
X13340814Y-12162320D02*
X13331290Y-12114701D01*
X13331290Y-12114701D02*
X13331290Y-12076606D01*
X13331290Y-12076606D02*
X13340814Y-12028987D01*
X13340814Y-12028987D02*
X13350338Y-12000415D01*
X13350338Y-12000415D02*
X13359861Y-11981368D01*
X13359861Y-11981368D02*
X13378909Y-11952796D01*
X13378909Y-11952796D02*
X13388433Y-11943272D01*
X13493195Y-12057558D02*
X13474147Y-12048034D01*
X13474147Y-12048034D02*
X13464623Y-12038510D01*
X13464623Y-12038510D02*
X13455099Y-12019463D01*
X13455099Y-12019463D02*
X13455099Y-12009939D01*
X13455099Y-12009939D02*
X13464623Y-11990891D01*
X13464623Y-11990891D02*
X13474147Y-11981368D01*
X13474147Y-11981368D02*
X13493195Y-11971844D01*
X13493195Y-11971844D02*
X13531290Y-11971844D01*
X13531290Y-11971844D02*
X13550338Y-11981368D01*
X13550338Y-11981368D02*
X13559861Y-11990891D01*
X13559861Y-11990891D02*
X13569385Y-12009939D01*
X13569385Y-12009939D02*
X13569385Y-12019463D01*
X13569385Y-12019463D02*
X13559861Y-12038510D01*
X13559861Y-12038510D02*
X13550338Y-12048034D01*
X13550338Y-12048034D02*
X13531290Y-12057558D01*
X13531290Y-12057558D02*
X13493195Y-12057558D01*
X13493195Y-12057558D02*
X13474147Y-12067082D01*
X13474147Y-12067082D02*
X13464623Y-12076606D01*
X13464623Y-12076606D02*
X13455099Y-12095653D01*
X13455099Y-12095653D02*
X13455099Y-12133748D01*
X13455099Y-12133748D02*
X13464623Y-12152796D01*
X13464623Y-12152796D02*
X13474147Y-12162320D01*
X13474147Y-12162320D02*
X13493195Y-12171844D01*
X13493195Y-12171844D02*
X13531290Y-12171844D01*
X13531290Y-12171844D02*
X13550338Y-12162320D01*
X13550338Y-12162320D02*
X13559861Y-12152796D01*
X13559861Y-12152796D02*
X13569385Y-12133748D01*
X13569385Y-12133748D02*
X13569385Y-12095653D01*
X13569385Y-12095653D02*
X13559861Y-12076606D01*
X13559861Y-12076606D02*
X13550338Y-12067082D01*
X13550338Y-12067082D02*
X13531290Y-12057558D01*
X13807480Y-12171844D02*
X13807480Y-11971844D01*
X13893195Y-12171844D02*
X13893195Y-12067082D01*
X13893195Y-12067082D02*
X13883671Y-12048034D01*
X13883671Y-12048034D02*
X13864623Y-12038510D01*
X13864623Y-12038510D02*
X13836052Y-12038510D01*
X13836052Y-12038510D02*
X13817004Y-12048034D01*
X13817004Y-12048034D02*
X13807480Y-12057558D01*
X14017004Y-12171844D02*
X13997957Y-12162320D01*
X13997957Y-12162320D02*
X13988433Y-12152796D01*
X13988433Y-12152796D02*
X13978909Y-12133748D01*
X13978909Y-12133748D02*
X13978909Y-12076606D01*
X13978909Y-12076606D02*
X13988433Y-12057558D01*
X13988433Y-12057558D02*
X13997957Y-12048034D01*
X13997957Y-12048034D02*
X14017004Y-12038510D01*
X14017004Y-12038510D02*
X14045576Y-12038510D01*
X14045576Y-12038510D02*
X14064623Y-12048034D01*
X14064623Y-12048034D02*
X14074147Y-12057558D01*
X14074147Y-12057558D02*
X14083671Y-12076606D01*
X14083671Y-12076606D02*
X14083671Y-12133748D01*
X14083671Y-12133748D02*
X14074147Y-12152796D01*
X14074147Y-12152796D02*
X14064623Y-12162320D01*
X14064623Y-12162320D02*
X14045576Y-12171844D01*
X14045576Y-12171844D02*
X14017004Y-12171844D01*
X14197957Y-12171844D02*
X14178909Y-12162320D01*
X14178909Y-12162320D02*
X14169385Y-12143272D01*
X14169385Y-12143272D02*
X14169385Y-11971844D01*
X14350338Y-12162320D02*
X14331290Y-12171844D01*
X14331290Y-12171844D02*
X14293195Y-12171844D01*
X14293195Y-12171844D02*
X14274147Y-12162320D01*
X14274147Y-12162320D02*
X14264623Y-12143272D01*
X14264623Y-12143272D02*
X14264623Y-12067082D01*
X14264623Y-12067082D02*
X14274147Y-12048034D01*
X14274147Y-12048034D02*
X14293195Y-12038510D01*
X14293195Y-12038510D02*
X14331290Y-12038510D01*
X14331290Y-12038510D02*
X14350338Y-12048034D01*
X14350338Y-12048034D02*
X14359861Y-12067082D01*
X14359861Y-12067082D02*
X14359861Y-12086129D01*
X14359861Y-12086129D02*
X14264623Y-12105177D01*
X14436052Y-12162320D02*
X14455100Y-12171844D01*
X14455100Y-12171844D02*
X14493195Y-12171844D01*
X14493195Y-12171844D02*
X14512242Y-12162320D01*
X14512242Y-12162320D02*
X14521766Y-12143272D01*
X14521766Y-12143272D02*
X14521766Y-12133748D01*
X14521766Y-12133748D02*
X14512242Y-12114701D01*
X14512242Y-12114701D02*
X14493195Y-12105177D01*
X14493195Y-12105177D02*
X14464623Y-12105177D01*
X14464623Y-12105177D02*
X14445576Y-12095653D01*
X14445576Y-12095653D02*
X14436052Y-12076606D01*
X14436052Y-12076606D02*
X14436052Y-12067082D01*
X14436052Y-12067082D02*
X14445576Y-12048034D01*
X14445576Y-12048034D02*
X14464623Y-12038510D01*
X14464623Y-12038510D02*
X14493195Y-12038510D01*
X14493195Y-12038510D02*
X14512242Y-12048034D01*
X14588433Y-12248034D02*
X14597957Y-12238510D01*
X14597957Y-12238510D02*
X14617004Y-12209939D01*
X14617004Y-12209939D02*
X14626528Y-12190891D01*
X14626528Y-12190891D02*
X14636052Y-12162320D01*
X14636052Y-12162320D02*
X14645576Y-12114701D01*
X14645576Y-12114701D02*
X14645576Y-12076606D01*
X14645576Y-12076606D02*
X14636052Y-12028987D01*
X14636052Y-12028987D02*
X14626528Y-12000415D01*
X14626528Y-12000415D02*
X14617004Y-11981368D01*
X14617004Y-11981368D02*
X14597957Y-11952796D01*
X14597957Y-11952796D02*
X14588433Y-11943272D01*
M02*
