%TF.GenerationSoftware,KiCad,Pcbnew,7.0.5*%
%TF.CreationDate,2023-11-04T20:08:50-04:00*%
%TF.ProjectId,LNA,4c4e412e-6b69-4636-9164-5f7063625858,rev?*%
%TF.SameCoordinates,Original*%
%TF.FileFunction,Copper,L3,Inr*%
%TF.FilePolarity,Positive*%
%FSLAX46Y46*%
G04 Gerber Fmt 4.6, Leading zero omitted, Abs format (unit mm)*
G04 Created by KiCad (PCBNEW 7.0.5) date 2023-11-04 20:08:50*
%MOMM*%
%LPD*%
G01*
G04 APERTURE LIST*
%TA.AperFunction,ComponentPad*%
%ADD10R,2.250000X2.250000*%
%TD*%
%TA.AperFunction,ComponentPad*%
%ADD11C,2.400000*%
%TD*%
%TA.AperFunction,ComponentPad*%
%ADD12C,4.500000*%
%TD*%
%TA.AperFunction,ComponentPad*%
%ADD13R,1.650000X1.650000*%
%TD*%
%TA.AperFunction,ComponentPad*%
%ADD14C,1.650000*%
%TD*%
%TA.AperFunction,ViaPad*%
%ADD15C,0.800000*%
%TD*%
G04 APERTURE END LIST*
D10*
%TO.N,LNA_INPUT*%
%TO.C,J2*%
X151355000Y-118710000D03*
D11*
%TO.N,GND*%
X153895000Y-121250000D03*
X153895000Y-116170000D03*
X148815000Y-116170000D03*
X148815000Y-121250000D03*
%TD*%
D12*
%TO.N,N/C*%
%TO.C,*%
X149770000Y-130930000D03*
%TD*%
D13*
%TO.N,+3.3V*%
%TO.C,J1*%
X172420000Y-108600000D03*
D14*
%TO.N,GND*%
X167420000Y-108600000D03*
%TD*%
D12*
%TO.N,N/C*%
%TO.C,*%
X194020000Y-130930000D03*
%TD*%
%TO.N,N/C*%
%TO.C,*%
X149770000Y-107350000D03*
%TD*%
D10*
%TO.N,LNA_OUTPUT*%
%TO.C,J3*%
X192575000Y-120000000D03*
D11*
%TO.N,GND*%
X190035000Y-117460000D03*
X190035000Y-122540000D03*
X195115000Y-122540000D03*
X195115000Y-117460000D03*
%TD*%
D12*
%TO.N,N/C*%
%TO.C,*%
X194020000Y-107350000D03*
%TD*%
D15*
%TO.N,GND*%
X171610000Y-120100000D03*
X165652856Y-120100000D03*
X187960000Y-133350000D03*
X181610000Y-111760000D03*
X163890000Y-117470000D03*
X152400000Y-127000000D03*
X186809272Y-130222354D03*
X178868558Y-131194686D03*
X169520000Y-120080000D03*
X185890000Y-118650000D03*
X178808568Y-121320000D03*
X188468000Y-118872000D03*
X160315712Y-117470000D03*
X182287140Y-118630000D03*
X190500000Y-128270000D03*
X158515712Y-120020000D03*
X165100000Y-130810000D03*
X172720000Y-132080000D03*
X156210000Y-124460000D03*
X158708870Y-109317211D03*
X182771428Y-121320000D03*
X163830000Y-106680000D03*
X166242856Y-117540000D03*
X152400000Y-111760000D03*
X179360000Y-115830000D03*
X181095712Y-118630000D03*
X183962856Y-121320000D03*
X159707140Y-120020000D03*
X189230000Y-127000000D03*
X155176063Y-113498239D03*
X164461428Y-120100000D03*
X178712856Y-118630000D03*
X165051428Y-117540000D03*
X174470000Y-115860000D03*
X170420000Y-119530000D03*
X184150000Y-132080000D03*
X168035712Y-120100000D03*
X185420000Y-127000000D03*
X168910000Y-130810000D03*
X162090000Y-120020000D03*
X162209266Y-128050812D03*
X166357884Y-115572548D03*
X157480000Y-111760000D03*
X186971327Y-114697449D03*
X187730000Y-120980000D03*
X185448007Y-123221562D03*
X185154284Y-121320000D03*
X181610000Y-129540000D03*
X157480000Y-128270000D03*
X156741428Y-117470000D03*
X156132856Y-120020000D03*
X161290000Y-109220000D03*
X161507140Y-117470000D03*
X162954721Y-113012073D03*
X184670000Y-118630000D03*
X173990000Y-125730000D03*
X159746024Y-113919583D03*
X157324284Y-120020000D03*
X187651960Y-109479266D03*
X180391879Y-126559902D03*
X182880000Y-115570000D03*
X168625712Y-117540000D03*
X176530000Y-129540000D03*
X181180000Y-107610000D03*
X171008568Y-117540000D03*
X187960000Y-107950000D03*
X176425712Y-121320000D03*
X148590000Y-111760000D03*
X162698568Y-117470000D03*
X153670000Y-109220000D03*
X179904284Y-118630000D03*
X172200000Y-117540000D03*
X167434284Y-117540000D03*
X169696224Y-114243694D03*
X170180000Y-128270000D03*
X185420000Y-107950000D03*
X177521428Y-118630000D03*
X149860000Y-113030000D03*
X195657495Y-111974919D03*
X184150000Y-111760000D03*
X177617140Y-121320000D03*
X157480000Y-130810000D03*
X186560000Y-121270000D03*
X169817140Y-117540000D03*
X176530000Y-124460000D03*
X180000000Y-121320000D03*
X162403732Y-111002586D03*
X160898568Y-120020000D03*
X172418755Y-115442904D03*
X165100000Y-125730000D03*
X189230000Y-111760000D03*
X161290000Y-111760000D03*
X162533377Y-115507726D03*
X187110000Y-118830000D03*
X159124284Y-117470000D03*
X160199779Y-106497447D03*
X148590000Y-124460000D03*
X166844284Y-120100000D03*
X157932856Y-117470000D03*
X160020000Y-124460000D03*
X167640000Y-124460000D03*
X154592663Y-106043692D03*
X183478568Y-118630000D03*
X156210000Y-106680000D03*
%TO.N,+3.3V*%
X173920000Y-117400000D03*
X179630000Y-117240000D03*
%TD*%
%TA.AperFunction,Conductor*%
%TO.N,+3.3V*%
G36*
X197392539Y-104130185D02*
G01*
X197438294Y-104182989D01*
X197449500Y-104234500D01*
X197449500Y-133915500D01*
X197429815Y-133982539D01*
X197377011Y-134028294D01*
X197325500Y-134039500D01*
X188816499Y-134039500D01*
X188749460Y-134019815D01*
X188703705Y-133967011D01*
X188693761Y-133897853D01*
X188709112Y-133853500D01*
X188787179Y-133718284D01*
X188845674Y-133538256D01*
X188865460Y-133350000D01*
X188845674Y-133161744D01*
X188787179Y-132981716D01*
X188692533Y-132817784D01*
X188565871Y-132677112D01*
X188565870Y-132677111D01*
X188412734Y-132565851D01*
X188412729Y-132565848D01*
X188239807Y-132488857D01*
X188239802Y-132488855D01*
X188094000Y-132457865D01*
X188054646Y-132449500D01*
X187865354Y-132449500D01*
X187832897Y-132456398D01*
X187680197Y-132488855D01*
X187680192Y-132488857D01*
X187507270Y-132565848D01*
X187507265Y-132565851D01*
X187354129Y-132677111D01*
X187227466Y-132817785D01*
X187132821Y-132981715D01*
X187132818Y-132981722D01*
X187074327Y-133161740D01*
X187074326Y-133161744D01*
X187054540Y-133350000D01*
X187074326Y-133538256D01*
X187074327Y-133538259D01*
X187132818Y-133718277D01*
X187132821Y-133718284D01*
X187210888Y-133853500D01*
X187227361Y-133921400D01*
X187204508Y-133987427D01*
X187149587Y-134030618D01*
X187103501Y-134039500D01*
X146774500Y-134039500D01*
X146707461Y-134019815D01*
X146661706Y-133967011D01*
X146650500Y-133915500D01*
X146650500Y-130930000D01*
X147014473Y-130930000D01*
X147034563Y-131262136D01*
X147034563Y-131262141D01*
X147034564Y-131262142D01*
X147094544Y-131589441D01*
X147094545Y-131589445D01*
X147094546Y-131589449D01*
X147193530Y-131907104D01*
X147193534Y-131907116D01*
X147193537Y-131907123D01*
X147330102Y-132210557D01*
X147473809Y-132448277D01*
X147502251Y-132495326D01*
X147707460Y-132757255D01*
X147942744Y-132992539D01*
X148204673Y-133197748D01*
X148204678Y-133197751D01*
X148204682Y-133197754D01*
X148489443Y-133369898D01*
X148792877Y-133506463D01*
X148792890Y-133506467D01*
X148792895Y-133506469D01*
X149004665Y-133572458D01*
X149110559Y-133605456D01*
X149437858Y-133665436D01*
X149770000Y-133685527D01*
X150102142Y-133665436D01*
X150429441Y-133605456D01*
X150747123Y-133506463D01*
X151050557Y-133369898D01*
X151335318Y-133197754D01*
X151381282Y-133161744D01*
X151411740Y-133137881D01*
X151597252Y-132992542D01*
X151832542Y-132757252D01*
X152037754Y-132495318D01*
X152209898Y-132210557D01*
X152268657Y-132080000D01*
X171814540Y-132080000D01*
X171834326Y-132268256D01*
X171834327Y-132268259D01*
X171892818Y-132448277D01*
X171892821Y-132448284D01*
X171987467Y-132612216D01*
X172045899Y-132677111D01*
X172114129Y-132752888D01*
X172267265Y-132864148D01*
X172267270Y-132864151D01*
X172440192Y-132941142D01*
X172440197Y-132941144D01*
X172625354Y-132980500D01*
X172625355Y-132980500D01*
X172814644Y-132980500D01*
X172814646Y-132980500D01*
X172999803Y-132941144D01*
X173172730Y-132864151D01*
X173325871Y-132752888D01*
X173452533Y-132612216D01*
X173547179Y-132448284D01*
X173605674Y-132268256D01*
X173625460Y-132080000D01*
X173605674Y-131891744D01*
X173547179Y-131711716D01*
X173452533Y-131547784D01*
X173325871Y-131407112D01*
X173292604Y-131382942D01*
X173172734Y-131295851D01*
X173172729Y-131295848D01*
X172999807Y-131218857D01*
X172999802Y-131218855D01*
X172886092Y-131194686D01*
X177963098Y-131194686D01*
X177982884Y-131382942D01*
X177982885Y-131382945D01*
X178041376Y-131562963D01*
X178041379Y-131562970D01*
X178136025Y-131726902D01*
X178262687Y-131867574D01*
X178415823Y-131978834D01*
X178415828Y-131978837D01*
X178588750Y-132055828D01*
X178588755Y-132055830D01*
X178773912Y-132095186D01*
X178773913Y-132095186D01*
X178963202Y-132095186D01*
X178963204Y-132095186D01*
X179034649Y-132080000D01*
X183244540Y-132080000D01*
X183264326Y-132268256D01*
X183264327Y-132268259D01*
X183322818Y-132448277D01*
X183322821Y-132448284D01*
X183417467Y-132612216D01*
X183475899Y-132677111D01*
X183544129Y-132752888D01*
X183697265Y-132864148D01*
X183697270Y-132864151D01*
X183870192Y-132941142D01*
X183870197Y-132941144D01*
X184055354Y-132980500D01*
X184055355Y-132980500D01*
X184244644Y-132980500D01*
X184244646Y-132980500D01*
X184429803Y-132941144D01*
X184602730Y-132864151D01*
X184755871Y-132752888D01*
X184882533Y-132612216D01*
X184977179Y-132448284D01*
X185035674Y-132268256D01*
X185055460Y-132080000D01*
X185035674Y-131891744D01*
X184977179Y-131711716D01*
X184882533Y-131547784D01*
X184755871Y-131407112D01*
X184722604Y-131382942D01*
X184602734Y-131295851D01*
X184602729Y-131295848D01*
X184429807Y-131218857D01*
X184429802Y-131218855D01*
X184284000Y-131187865D01*
X184244646Y-131179500D01*
X184055354Y-131179500D01*
X184022897Y-131186398D01*
X183870197Y-131218855D01*
X183870192Y-131218857D01*
X183697270Y-131295848D01*
X183697265Y-131295851D01*
X183544129Y-131407111D01*
X183417466Y-131547785D01*
X183322821Y-131711715D01*
X183322818Y-131711722D01*
X183272179Y-131867574D01*
X183264326Y-131891744D01*
X183247577Y-132051101D01*
X183247081Y-132055828D01*
X183244540Y-132080000D01*
X179034649Y-132080000D01*
X179148361Y-132055830D01*
X179321288Y-131978837D01*
X179474429Y-131867574D01*
X179601091Y-131726902D01*
X179695737Y-131562970D01*
X179754232Y-131382942D01*
X179774018Y-131194686D01*
X179754232Y-131006430D01*
X179695737Y-130826402D01*
X179601091Y-130662470D01*
X179474429Y-130521798D01*
X179474428Y-130521797D01*
X179321292Y-130410537D01*
X179321287Y-130410534D01*
X179148365Y-130333543D01*
X179148360Y-130333541D01*
X179002558Y-130302551D01*
X178963204Y-130294186D01*
X178773912Y-130294186D01*
X178741455Y-130301084D01*
X178588755Y-130333541D01*
X178588750Y-130333543D01*
X178415828Y-130410534D01*
X178415823Y-130410537D01*
X178262687Y-130521797D01*
X178136024Y-130662471D01*
X178041379Y-130826401D01*
X178041376Y-130826408D01*
X177985540Y-130998256D01*
X177982884Y-131006430D01*
X177963098Y-131194686D01*
X172886092Y-131194686D01*
X172854001Y-131187865D01*
X172814646Y-131179500D01*
X172625354Y-131179500D01*
X172592897Y-131186398D01*
X172440197Y-131218855D01*
X172440192Y-131218857D01*
X172267270Y-131295848D01*
X172267265Y-131295851D01*
X172114129Y-131407111D01*
X171987466Y-131547785D01*
X171892821Y-131711715D01*
X171892818Y-131711722D01*
X171842179Y-131867574D01*
X171834326Y-131891744D01*
X171814540Y-132080000D01*
X152268657Y-132080000D01*
X152346463Y-131907123D01*
X152445456Y-131589441D01*
X152505436Y-131262142D01*
X152525527Y-130930000D01*
X152518268Y-130810000D01*
X156574540Y-130810000D01*
X156594326Y-130998256D01*
X156594327Y-130998259D01*
X156652818Y-131178277D01*
X156652821Y-131178284D01*
X156747467Y-131342216D01*
X156784140Y-131382945D01*
X156874129Y-131482888D01*
X157027265Y-131594148D01*
X157027270Y-131594151D01*
X157200192Y-131671142D01*
X157200197Y-131671144D01*
X157385354Y-131710500D01*
X157385355Y-131710500D01*
X157574644Y-131710500D01*
X157574646Y-131710500D01*
X157759803Y-131671144D01*
X157932730Y-131594151D01*
X158085871Y-131482888D01*
X158212533Y-131342216D01*
X158307179Y-131178284D01*
X158365674Y-130998256D01*
X158385460Y-130810000D01*
X164194540Y-130810000D01*
X164214326Y-130998256D01*
X164214327Y-130998259D01*
X164272818Y-131178277D01*
X164272821Y-131178284D01*
X164367467Y-131342216D01*
X164404140Y-131382945D01*
X164494129Y-131482888D01*
X164647265Y-131594148D01*
X164647270Y-131594151D01*
X164820192Y-131671142D01*
X164820197Y-131671144D01*
X165005354Y-131710500D01*
X165005355Y-131710500D01*
X165194644Y-131710500D01*
X165194646Y-131710500D01*
X165379803Y-131671144D01*
X165552730Y-131594151D01*
X165705871Y-131482888D01*
X165832533Y-131342216D01*
X165927179Y-131178284D01*
X165985674Y-130998256D01*
X166005460Y-130810000D01*
X168004540Y-130810000D01*
X168024326Y-130998256D01*
X168024327Y-130998259D01*
X168082818Y-131178277D01*
X168082821Y-131178284D01*
X168177467Y-131342216D01*
X168214140Y-131382945D01*
X168304129Y-131482888D01*
X168457265Y-131594148D01*
X168457270Y-131594151D01*
X168630192Y-131671142D01*
X168630197Y-131671144D01*
X168815354Y-131710500D01*
X168815355Y-131710500D01*
X169004644Y-131710500D01*
X169004646Y-131710500D01*
X169189803Y-131671144D01*
X169362730Y-131594151D01*
X169515871Y-131482888D01*
X169642533Y-131342216D01*
X169737179Y-131178284D01*
X169795674Y-130998256D01*
X169815460Y-130810000D01*
X169795674Y-130621744D01*
X169737179Y-130441716D01*
X169642533Y-130277784D01*
X169515871Y-130137112D01*
X169515870Y-130137111D01*
X169362734Y-130025851D01*
X169362729Y-130025848D01*
X169189807Y-129948857D01*
X169189802Y-129948855D01*
X169044001Y-129917865D01*
X169004646Y-129909500D01*
X168815354Y-129909500D01*
X168782897Y-129916398D01*
X168630197Y-129948855D01*
X168630192Y-129948857D01*
X168457270Y-130025848D01*
X168457265Y-130025851D01*
X168304129Y-130137111D01*
X168177466Y-130277785D01*
X168082821Y-130441715D01*
X168082818Y-130441722D01*
X168034435Y-130590631D01*
X168024326Y-130621744D01*
X168004540Y-130810000D01*
X166005460Y-130810000D01*
X165985674Y-130621744D01*
X165927179Y-130441716D01*
X165832533Y-130277784D01*
X165705871Y-130137112D01*
X165705870Y-130137111D01*
X165552734Y-130025851D01*
X165552729Y-130025848D01*
X165379807Y-129948857D01*
X165379802Y-129948855D01*
X165234001Y-129917865D01*
X165194646Y-129909500D01*
X165005354Y-129909500D01*
X164972897Y-129916398D01*
X164820197Y-129948855D01*
X164820192Y-129948857D01*
X164647270Y-130025848D01*
X164647265Y-130025851D01*
X164494129Y-130137111D01*
X164367466Y-130277785D01*
X164272821Y-130441715D01*
X164272818Y-130441722D01*
X164224435Y-130590631D01*
X164214326Y-130621744D01*
X164194540Y-130810000D01*
X158385460Y-130810000D01*
X158365674Y-130621744D01*
X158307179Y-130441716D01*
X158212533Y-130277784D01*
X158085871Y-130137112D01*
X158085870Y-130137111D01*
X157932734Y-130025851D01*
X157932729Y-130025848D01*
X157759807Y-129948857D01*
X157759802Y-129948855D01*
X157614001Y-129917865D01*
X157574646Y-129909500D01*
X157385354Y-129909500D01*
X157352897Y-129916398D01*
X157200197Y-129948855D01*
X157200192Y-129948857D01*
X157027270Y-130025848D01*
X157027265Y-130025851D01*
X156874129Y-130137111D01*
X156747466Y-130277785D01*
X156652821Y-130441715D01*
X156652818Y-130441722D01*
X156604435Y-130590631D01*
X156594326Y-130621744D01*
X156574540Y-130810000D01*
X152518268Y-130810000D01*
X152505436Y-130597858D01*
X152445456Y-130270559D01*
X152383650Y-130072214D01*
X152346469Y-129952895D01*
X152346467Y-129952890D01*
X152346463Y-129952877D01*
X152209898Y-129649443D01*
X152143737Y-129540000D01*
X175624540Y-129540000D01*
X175644326Y-129728256D01*
X175644327Y-129728259D01*
X175702818Y-129908277D01*
X175702821Y-129908284D01*
X175797467Y-130072216D01*
X175855899Y-130137111D01*
X175924129Y-130212888D01*
X176077265Y-130324148D01*
X176077270Y-130324151D01*
X176250192Y-130401142D01*
X176250197Y-130401144D01*
X176435354Y-130440500D01*
X176435355Y-130440500D01*
X176624644Y-130440500D01*
X176624646Y-130440500D01*
X176809803Y-130401144D01*
X176982730Y-130324151D01*
X177135871Y-130212888D01*
X177262533Y-130072216D01*
X177357179Y-129908284D01*
X177415674Y-129728256D01*
X177435460Y-129540000D01*
X180704540Y-129540000D01*
X180724326Y-129728256D01*
X180724327Y-129728259D01*
X180782818Y-129908277D01*
X180782821Y-129908284D01*
X180877467Y-130072216D01*
X180935899Y-130137111D01*
X181004129Y-130212888D01*
X181157265Y-130324148D01*
X181157270Y-130324151D01*
X181330192Y-130401142D01*
X181330197Y-130401144D01*
X181515354Y-130440500D01*
X181515355Y-130440500D01*
X181704644Y-130440500D01*
X181704646Y-130440500D01*
X181889803Y-130401144D01*
X182062730Y-130324151D01*
X182202842Y-130222354D01*
X185903812Y-130222354D01*
X185923598Y-130410610D01*
X185923599Y-130410613D01*
X185982090Y-130590631D01*
X185982093Y-130590638D01*
X186076739Y-130754570D01*
X186203401Y-130895241D01*
X186203401Y-130895242D01*
X186356537Y-131006502D01*
X186356542Y-131006505D01*
X186529464Y-131083496D01*
X186529469Y-131083498D01*
X186714626Y-131122854D01*
X186714627Y-131122854D01*
X186903916Y-131122854D01*
X186903918Y-131122854D01*
X187089075Y-131083498D01*
X187262002Y-131006505D01*
X187367304Y-130929999D01*
X191264473Y-130929999D01*
X191284563Y-131262136D01*
X191284563Y-131262141D01*
X191284564Y-131262142D01*
X191344544Y-131589441D01*
X191344545Y-131589445D01*
X191344546Y-131589449D01*
X191443530Y-131907104D01*
X191443534Y-131907116D01*
X191443537Y-131907123D01*
X191580102Y-132210557D01*
X191723809Y-132448277D01*
X191752251Y-132495326D01*
X191957460Y-132757255D01*
X192192744Y-132992539D01*
X192454673Y-133197748D01*
X192454678Y-133197751D01*
X192454682Y-133197754D01*
X192739443Y-133369898D01*
X193042877Y-133506463D01*
X193042890Y-133506467D01*
X193042895Y-133506469D01*
X193254665Y-133572458D01*
X193360559Y-133605456D01*
X193687858Y-133665436D01*
X194020000Y-133685527D01*
X194352142Y-133665436D01*
X194679441Y-133605456D01*
X194997123Y-133506463D01*
X195300557Y-133369898D01*
X195585318Y-133197754D01*
X195631282Y-133161744D01*
X195661740Y-133137881D01*
X195847252Y-132992542D01*
X196082542Y-132757252D01*
X196287754Y-132495318D01*
X196459898Y-132210557D01*
X196596463Y-131907123D01*
X196695456Y-131589441D01*
X196755436Y-131262142D01*
X196775527Y-130930000D01*
X196755436Y-130597858D01*
X196695456Y-130270559D01*
X196633650Y-130072214D01*
X196596469Y-129952895D01*
X196596467Y-129952890D01*
X196596463Y-129952877D01*
X196459898Y-129649443D01*
X196287754Y-129364682D01*
X196287751Y-129364678D01*
X196287748Y-129364673D01*
X196082539Y-129102744D01*
X195847255Y-128867460D01*
X195585326Y-128662251D01*
X195585318Y-128662246D01*
X195300557Y-128490102D01*
X194997123Y-128353537D01*
X194997116Y-128353534D01*
X194997104Y-128353530D01*
X194679449Y-128254546D01*
X194679445Y-128254545D01*
X194679441Y-128254544D01*
X194352142Y-128194564D01*
X194352141Y-128194563D01*
X194352136Y-128194563D01*
X194020000Y-128174473D01*
X193687863Y-128194563D01*
X193687857Y-128194564D01*
X193687858Y-128194564D01*
X193360559Y-128254544D01*
X193360556Y-128254544D01*
X193360550Y-128254546D01*
X193042895Y-128353530D01*
X193042879Y-128353536D01*
X193042877Y-128353537D01*
X192849656Y-128440498D01*
X192739447Y-128490100D01*
X192739445Y-128490101D01*
X192454673Y-128662251D01*
X192192744Y-128867460D01*
X191957460Y-129102744D01*
X191752251Y-129364673D01*
X191580101Y-129649445D01*
X191580100Y-129649447D01*
X191561786Y-129690139D01*
X191445347Y-129948857D01*
X191443536Y-129952880D01*
X191443530Y-129952895D01*
X191344546Y-130270550D01*
X191344544Y-130270556D01*
X191344544Y-130270559D01*
X191313178Y-130441716D01*
X191284563Y-130597863D01*
X191264473Y-130929999D01*
X187367304Y-130929999D01*
X187415143Y-130895242D01*
X187541805Y-130754570D01*
X187636451Y-130590638D01*
X187694946Y-130410610D01*
X187714732Y-130222354D01*
X187694946Y-130034098D01*
X187636451Y-129854070D01*
X187541805Y-129690138D01*
X187415143Y-129549466D01*
X187415142Y-129549465D01*
X187262006Y-129438205D01*
X187262001Y-129438202D01*
X187089079Y-129361211D01*
X187089074Y-129361209D01*
X186943273Y-129330219D01*
X186903918Y-129321854D01*
X186714626Y-129321854D01*
X186682169Y-129328752D01*
X186529469Y-129361209D01*
X186529464Y-129361211D01*
X186356542Y-129438202D01*
X186356537Y-129438205D01*
X186203401Y-129549465D01*
X186076738Y-129690139D01*
X185982093Y-129854069D01*
X185982090Y-129854076D01*
X185923599Y-130034094D01*
X185923598Y-130034098D01*
X185903812Y-130222354D01*
X182202842Y-130222354D01*
X182215871Y-130212888D01*
X182342533Y-130072216D01*
X182437179Y-129908284D01*
X182495674Y-129728256D01*
X182515460Y-129540000D01*
X182495674Y-129351744D01*
X182437179Y-129171716D01*
X182342533Y-129007784D01*
X182215871Y-128867112D01*
X182171622Y-128834963D01*
X182062734Y-128755851D01*
X182062729Y-128755848D01*
X181889807Y-128678857D01*
X181889802Y-128678855D01*
X181744000Y-128647865D01*
X181704646Y-128639500D01*
X181515354Y-128639500D01*
X181482897Y-128646398D01*
X181330197Y-128678855D01*
X181330192Y-128678857D01*
X181157270Y-128755848D01*
X181157265Y-128755851D01*
X181004129Y-128867111D01*
X180877466Y-129007785D01*
X180782821Y-129171715D01*
X180782818Y-129171722D01*
X180724327Y-129351740D01*
X180724326Y-129351744D01*
X180704540Y-129540000D01*
X177435460Y-129540000D01*
X177415674Y-129351744D01*
X177357179Y-129171716D01*
X177262533Y-129007784D01*
X177135871Y-128867112D01*
X177091622Y-128834963D01*
X176982734Y-128755851D01*
X176982729Y-128755848D01*
X176809807Y-128678857D01*
X176809802Y-128678855D01*
X176664000Y-128647865D01*
X176624646Y-128639500D01*
X176435354Y-128639500D01*
X176402897Y-128646398D01*
X176250197Y-128678855D01*
X176250192Y-128678857D01*
X176077270Y-128755848D01*
X176077265Y-128755851D01*
X175924129Y-128867111D01*
X175797466Y-129007785D01*
X175702821Y-129171715D01*
X175702818Y-129171722D01*
X175644327Y-129351740D01*
X175644326Y-129351744D01*
X175624540Y-129540000D01*
X152143737Y-129540000D01*
X152037754Y-129364682D01*
X152037751Y-129364678D01*
X152037748Y-129364673D01*
X151832539Y-129102744D01*
X151597255Y-128867460D01*
X151335326Y-128662251D01*
X151335318Y-128662246D01*
X151050557Y-128490102D01*
X150747123Y-128353537D01*
X150747116Y-128353534D01*
X150747104Y-128353530D01*
X150479043Y-128270000D01*
X156574540Y-128270000D01*
X156594326Y-128458256D01*
X156594327Y-128458259D01*
X156652818Y-128638277D01*
X156652821Y-128638284D01*
X156747467Y-128802216D01*
X156846276Y-128911954D01*
X156874129Y-128942888D01*
X157027265Y-129054148D01*
X157027270Y-129054151D01*
X157200192Y-129131142D01*
X157200197Y-129131144D01*
X157385354Y-129170500D01*
X157385355Y-129170500D01*
X157574644Y-129170500D01*
X157574646Y-129170500D01*
X157759803Y-129131144D01*
X157932730Y-129054151D01*
X158085871Y-128942888D01*
X158212533Y-128802216D01*
X158307179Y-128638284D01*
X158365674Y-128458256D01*
X158385460Y-128270000D01*
X158365674Y-128081744D01*
X158355624Y-128050812D01*
X161303806Y-128050812D01*
X161323592Y-128239068D01*
X161323593Y-128239071D01*
X161382084Y-128419089D01*
X161382087Y-128419096D01*
X161476733Y-128583028D01*
X161563017Y-128678856D01*
X161603395Y-128723700D01*
X161756531Y-128834960D01*
X161756536Y-128834963D01*
X161929458Y-128911954D01*
X161929463Y-128911956D01*
X162114620Y-128951312D01*
X162114621Y-128951312D01*
X162303910Y-128951312D01*
X162303912Y-128951312D01*
X162489069Y-128911956D01*
X162661996Y-128834963D01*
X162815137Y-128723700D01*
X162941799Y-128583028D01*
X163036445Y-128419096D01*
X163084890Y-128270000D01*
X169274540Y-128270000D01*
X169294326Y-128458256D01*
X169294327Y-128458259D01*
X169352818Y-128638277D01*
X169352821Y-128638284D01*
X169447467Y-128802216D01*
X169546276Y-128911954D01*
X169574129Y-128942888D01*
X169727265Y-129054148D01*
X169727270Y-129054151D01*
X169900192Y-129131142D01*
X169900197Y-129131144D01*
X170085354Y-129170500D01*
X170085355Y-129170500D01*
X170274644Y-129170500D01*
X170274646Y-129170500D01*
X170459803Y-129131144D01*
X170632730Y-129054151D01*
X170785871Y-128942888D01*
X170912533Y-128802216D01*
X171007179Y-128638284D01*
X171065674Y-128458256D01*
X171085460Y-128270000D01*
X171065674Y-128081744D01*
X171007179Y-127901716D01*
X170912533Y-127737784D01*
X170785871Y-127597112D01*
X170785870Y-127597111D01*
X170632734Y-127485851D01*
X170632729Y-127485848D01*
X170459807Y-127408857D01*
X170459802Y-127408855D01*
X170314000Y-127377865D01*
X170274646Y-127369500D01*
X170085354Y-127369500D01*
X170052897Y-127376398D01*
X169900197Y-127408855D01*
X169900192Y-127408857D01*
X169727270Y-127485848D01*
X169727265Y-127485851D01*
X169574129Y-127597111D01*
X169447466Y-127737785D01*
X169352821Y-127901715D01*
X169352818Y-127901722D01*
X169294327Y-128081740D01*
X169294326Y-128081744D01*
X169274540Y-128270000D01*
X163084890Y-128270000D01*
X163094940Y-128239068D01*
X163114726Y-128050812D01*
X163094940Y-127862556D01*
X163036445Y-127682528D01*
X162941799Y-127518596D01*
X162815137Y-127377924D01*
X162815136Y-127377923D01*
X162662000Y-127266663D01*
X162661995Y-127266660D01*
X162489073Y-127189669D01*
X162489068Y-127189667D01*
X162343266Y-127158677D01*
X162303912Y-127150312D01*
X162114620Y-127150312D01*
X162082163Y-127157210D01*
X161929463Y-127189667D01*
X161929458Y-127189669D01*
X161756536Y-127266660D01*
X161756531Y-127266663D01*
X161603395Y-127377923D01*
X161476732Y-127518597D01*
X161382087Y-127682527D01*
X161382084Y-127682534D01*
X161323593Y-127862552D01*
X161323592Y-127862556D01*
X161303806Y-128050812D01*
X158355624Y-128050812D01*
X158307179Y-127901716D01*
X158212533Y-127737784D01*
X158085871Y-127597112D01*
X158085870Y-127597111D01*
X157932734Y-127485851D01*
X157932729Y-127485848D01*
X157759807Y-127408857D01*
X157759802Y-127408855D01*
X157614001Y-127377865D01*
X157574646Y-127369500D01*
X157385354Y-127369500D01*
X157352897Y-127376398D01*
X157200197Y-127408855D01*
X157200192Y-127408857D01*
X157027270Y-127485848D01*
X157027265Y-127485851D01*
X156874129Y-127597111D01*
X156747466Y-127737785D01*
X156652821Y-127901715D01*
X156652818Y-127901722D01*
X156594327Y-128081740D01*
X156594326Y-128081744D01*
X156574540Y-128270000D01*
X150479043Y-128270000D01*
X150429449Y-128254546D01*
X150429445Y-128254545D01*
X150429441Y-128254544D01*
X150102142Y-128194564D01*
X150102141Y-128194563D01*
X150102136Y-128194563D01*
X149770000Y-128174473D01*
X149437863Y-128194563D01*
X149437857Y-128194564D01*
X149437858Y-128194564D01*
X149110559Y-128254544D01*
X149110556Y-128254544D01*
X149110550Y-128254546D01*
X148792895Y-128353530D01*
X148792879Y-128353536D01*
X148792877Y-128353537D01*
X148599656Y-128440498D01*
X148489447Y-128490100D01*
X148489445Y-128490101D01*
X148204673Y-128662251D01*
X147942744Y-128867460D01*
X147707460Y-129102744D01*
X147502251Y-129364673D01*
X147330101Y-129649445D01*
X147330100Y-129649447D01*
X147311786Y-129690139D01*
X147195347Y-129948857D01*
X147193536Y-129952880D01*
X147193530Y-129952895D01*
X147094546Y-130270550D01*
X147094544Y-130270556D01*
X147094544Y-130270559D01*
X147063178Y-130441716D01*
X147034563Y-130597863D01*
X147014473Y-130930000D01*
X146650500Y-130930000D01*
X146650500Y-127000000D01*
X151494540Y-127000000D01*
X151514326Y-127188256D01*
X151514327Y-127188259D01*
X151572818Y-127368277D01*
X151572821Y-127368284D01*
X151667467Y-127532216D01*
X151725899Y-127597111D01*
X151794129Y-127672888D01*
X151947265Y-127784148D01*
X151947270Y-127784151D01*
X152120192Y-127861142D01*
X152120197Y-127861144D01*
X152305354Y-127900500D01*
X152305355Y-127900500D01*
X152494644Y-127900500D01*
X152494646Y-127900500D01*
X152679803Y-127861144D01*
X152852730Y-127784151D01*
X153005871Y-127672888D01*
X153132533Y-127532216D01*
X153227179Y-127368284D01*
X153285674Y-127188256D01*
X153305460Y-127000000D01*
X153285674Y-126811744D01*
X153227179Y-126631716D01*
X153132533Y-126467784D01*
X153005871Y-126327112D01*
X153005870Y-126327111D01*
X152852734Y-126215851D01*
X152852729Y-126215848D01*
X152679807Y-126138857D01*
X152679802Y-126138855D01*
X152534000Y-126107865D01*
X152494646Y-126099500D01*
X152305354Y-126099500D01*
X152272897Y-126106398D01*
X152120197Y-126138855D01*
X152120192Y-126138857D01*
X151947270Y-126215848D01*
X151947265Y-126215851D01*
X151794129Y-126327111D01*
X151667466Y-126467785D01*
X151572821Y-126631715D01*
X151572818Y-126631722D01*
X151534986Y-126748158D01*
X151514326Y-126811744D01*
X151494540Y-127000000D01*
X146650500Y-127000000D01*
X146650500Y-125730000D01*
X164194540Y-125730000D01*
X164214326Y-125918256D01*
X164214327Y-125918259D01*
X164272818Y-126098277D01*
X164272821Y-126098284D01*
X164367467Y-126262216D01*
X164494129Y-126402888D01*
X164647265Y-126514148D01*
X164647270Y-126514151D01*
X164820192Y-126591142D01*
X164820197Y-126591144D01*
X165005354Y-126630500D01*
X165005355Y-126630500D01*
X165194644Y-126630500D01*
X165194646Y-126630500D01*
X165379803Y-126591144D01*
X165552730Y-126514151D01*
X165705871Y-126402888D01*
X165832533Y-126262216D01*
X165927179Y-126098284D01*
X165985674Y-125918256D01*
X166005460Y-125730000D01*
X173084540Y-125730000D01*
X173104326Y-125918256D01*
X173104327Y-125918259D01*
X173162818Y-126098277D01*
X173162821Y-126098284D01*
X173257467Y-126262216D01*
X173384128Y-126402887D01*
X173384129Y-126402888D01*
X173537265Y-126514148D01*
X173537270Y-126514151D01*
X173710192Y-126591142D01*
X173710197Y-126591144D01*
X173895354Y-126630500D01*
X173895355Y-126630500D01*
X174084644Y-126630500D01*
X174084646Y-126630500D01*
X174269803Y-126591144D01*
X174339973Y-126559902D01*
X179486419Y-126559902D01*
X179506205Y-126748158D01*
X179506206Y-126748161D01*
X179564697Y-126928179D01*
X179564700Y-126928186D01*
X179659346Y-127092118D01*
X179745912Y-127188259D01*
X179786008Y-127232790D01*
X179939144Y-127344050D01*
X179939149Y-127344053D01*
X180112071Y-127421044D01*
X180112076Y-127421046D01*
X180297233Y-127460402D01*
X180297234Y-127460402D01*
X180486523Y-127460402D01*
X180486525Y-127460402D01*
X180671682Y-127421046D01*
X180844609Y-127344053D01*
X180997750Y-127232790D01*
X181124412Y-127092118D01*
X181177596Y-127000000D01*
X184514540Y-127000000D01*
X184534326Y-127188256D01*
X184534327Y-127188259D01*
X184592818Y-127368277D01*
X184592821Y-127368284D01*
X184687467Y-127532216D01*
X184745899Y-127597111D01*
X184814129Y-127672888D01*
X184967265Y-127784148D01*
X184967270Y-127784151D01*
X185140192Y-127861142D01*
X185140197Y-127861144D01*
X185325354Y-127900500D01*
X185325355Y-127900500D01*
X185514644Y-127900500D01*
X185514646Y-127900500D01*
X185699803Y-127861144D01*
X185872730Y-127784151D01*
X186025871Y-127672888D01*
X186152533Y-127532216D01*
X186247179Y-127368284D01*
X186305674Y-127188256D01*
X186325460Y-127000000D01*
X188324540Y-127000000D01*
X188344326Y-127188256D01*
X188344327Y-127188259D01*
X188402818Y-127368277D01*
X188402821Y-127368284D01*
X188497467Y-127532216D01*
X188555899Y-127597111D01*
X188624129Y-127672888D01*
X188777265Y-127784148D01*
X188777270Y-127784151D01*
X188950192Y-127861142D01*
X188950197Y-127861144D01*
X189135354Y-127900500D01*
X189135355Y-127900500D01*
X189324644Y-127900500D01*
X189324646Y-127900500D01*
X189488994Y-127865567D01*
X189558661Y-127870883D01*
X189614395Y-127913020D01*
X189638500Y-127978600D01*
X189632706Y-128025174D01*
X189614327Y-128081739D01*
X189614327Y-128081740D01*
X189614326Y-128081744D01*
X189594540Y-128270000D01*
X189614326Y-128458256D01*
X189614327Y-128458259D01*
X189672818Y-128638277D01*
X189672821Y-128638284D01*
X189767467Y-128802216D01*
X189866276Y-128911954D01*
X189894129Y-128942888D01*
X190047265Y-129054148D01*
X190047270Y-129054151D01*
X190220192Y-129131142D01*
X190220197Y-129131144D01*
X190405354Y-129170500D01*
X190405355Y-129170500D01*
X190594644Y-129170500D01*
X190594646Y-129170500D01*
X190779803Y-129131144D01*
X190952730Y-129054151D01*
X191105871Y-128942888D01*
X191232533Y-128802216D01*
X191327179Y-128638284D01*
X191385674Y-128458256D01*
X191405460Y-128270000D01*
X191385674Y-128081744D01*
X191327179Y-127901716D01*
X191232533Y-127737784D01*
X191105871Y-127597112D01*
X191105870Y-127597111D01*
X190952734Y-127485851D01*
X190952729Y-127485848D01*
X190779807Y-127408857D01*
X190779802Y-127408855D01*
X190634001Y-127377865D01*
X190594646Y-127369500D01*
X190405354Y-127369500D01*
X190291148Y-127393774D01*
X190241004Y-127404433D01*
X190171337Y-127399116D01*
X190115604Y-127356978D01*
X190091499Y-127291398D01*
X190097294Y-127244822D01*
X190115674Y-127188256D01*
X190135460Y-127000000D01*
X190115674Y-126811744D01*
X190057179Y-126631716D01*
X189962533Y-126467784D01*
X189835871Y-126327112D01*
X189835870Y-126327111D01*
X189682734Y-126215851D01*
X189682729Y-126215848D01*
X189509807Y-126138857D01*
X189509802Y-126138855D01*
X189364000Y-126107865D01*
X189324646Y-126099500D01*
X189135354Y-126099500D01*
X189102897Y-126106398D01*
X188950197Y-126138855D01*
X188950192Y-126138857D01*
X188777270Y-126215848D01*
X188777265Y-126215851D01*
X188624129Y-126327111D01*
X188497466Y-126467785D01*
X188402821Y-126631715D01*
X188402818Y-126631722D01*
X188364986Y-126748158D01*
X188344326Y-126811744D01*
X188324540Y-127000000D01*
X186325460Y-127000000D01*
X186305674Y-126811744D01*
X186247179Y-126631716D01*
X186152533Y-126467784D01*
X186025871Y-126327112D01*
X186025870Y-126327111D01*
X185872734Y-126215851D01*
X185872729Y-126215848D01*
X185699807Y-126138857D01*
X185699802Y-126138855D01*
X185554000Y-126107865D01*
X185514646Y-126099500D01*
X185325354Y-126099500D01*
X185292897Y-126106398D01*
X185140197Y-126138855D01*
X185140192Y-126138857D01*
X184967270Y-126215848D01*
X184967265Y-126215851D01*
X184814129Y-126327111D01*
X184687466Y-126467785D01*
X184592821Y-126631715D01*
X184592818Y-126631722D01*
X184554986Y-126748158D01*
X184534326Y-126811744D01*
X184514540Y-127000000D01*
X181177596Y-127000000D01*
X181219058Y-126928186D01*
X181277553Y-126748158D01*
X181297339Y-126559902D01*
X181277553Y-126371646D01*
X181219058Y-126191618D01*
X181124412Y-126027686D01*
X180997750Y-125887014D01*
X180997749Y-125887013D01*
X180844613Y-125775753D01*
X180844608Y-125775750D01*
X180671686Y-125698759D01*
X180671681Y-125698757D01*
X180525879Y-125667767D01*
X180486525Y-125659402D01*
X180297233Y-125659402D01*
X180264776Y-125666300D01*
X180112076Y-125698757D01*
X180112071Y-125698759D01*
X179939149Y-125775750D01*
X179939144Y-125775753D01*
X179786008Y-125887013D01*
X179659345Y-126027687D01*
X179564700Y-126191617D01*
X179564697Y-126191624D01*
X179520675Y-126327111D01*
X179506205Y-126371646D01*
X179486419Y-126559902D01*
X174339973Y-126559902D01*
X174442730Y-126514151D01*
X174595871Y-126402888D01*
X174722533Y-126262216D01*
X174817179Y-126098284D01*
X174875674Y-125918256D01*
X174895460Y-125730000D01*
X174875674Y-125541744D01*
X174817179Y-125361716D01*
X174722533Y-125197784D01*
X174595871Y-125057112D01*
X174595870Y-125057111D01*
X174442734Y-124945851D01*
X174442729Y-124945848D01*
X174269807Y-124868857D01*
X174269802Y-124868855D01*
X174124000Y-124837865D01*
X174084646Y-124829500D01*
X173895354Y-124829500D01*
X173862897Y-124836398D01*
X173710197Y-124868855D01*
X173710192Y-124868857D01*
X173537270Y-124945848D01*
X173537265Y-124945851D01*
X173384129Y-125057111D01*
X173257466Y-125197785D01*
X173162821Y-125361715D01*
X173162818Y-125361722D01*
X173104327Y-125541740D01*
X173104326Y-125541744D01*
X173084540Y-125730000D01*
X166005460Y-125730000D01*
X165985674Y-125541744D01*
X165927179Y-125361716D01*
X165832533Y-125197784D01*
X165705871Y-125057112D01*
X165705870Y-125057111D01*
X165552734Y-124945851D01*
X165552729Y-124945848D01*
X165379807Y-124868857D01*
X165379802Y-124868855D01*
X165234001Y-124837865D01*
X165194646Y-124829500D01*
X165005354Y-124829500D01*
X164972897Y-124836398D01*
X164820197Y-124868855D01*
X164820192Y-124868857D01*
X164647270Y-124945848D01*
X164647265Y-124945851D01*
X164494129Y-125057111D01*
X164367466Y-125197785D01*
X164272821Y-125361715D01*
X164272818Y-125361722D01*
X164214327Y-125541740D01*
X164214326Y-125541744D01*
X164194540Y-125730000D01*
X146650500Y-125730000D01*
X146650500Y-124460000D01*
X147684540Y-124460000D01*
X147704326Y-124648256D01*
X147704327Y-124648259D01*
X147762818Y-124828277D01*
X147762821Y-124828284D01*
X147857467Y-124992216D01*
X147915899Y-125057111D01*
X147984129Y-125132888D01*
X148137265Y-125244148D01*
X148137270Y-125244151D01*
X148310192Y-125321142D01*
X148310197Y-125321144D01*
X148495354Y-125360500D01*
X148495355Y-125360500D01*
X148684644Y-125360500D01*
X148684646Y-125360500D01*
X148869803Y-125321144D01*
X149042730Y-125244151D01*
X149195871Y-125132888D01*
X149322533Y-124992216D01*
X149417179Y-124828284D01*
X149475674Y-124648256D01*
X149495460Y-124460000D01*
X155304540Y-124460000D01*
X155324326Y-124648256D01*
X155324327Y-124648259D01*
X155382818Y-124828277D01*
X155382821Y-124828284D01*
X155477467Y-124992216D01*
X155535899Y-125057111D01*
X155604129Y-125132888D01*
X155757265Y-125244148D01*
X155757270Y-125244151D01*
X155930192Y-125321142D01*
X155930197Y-125321144D01*
X156115354Y-125360500D01*
X156115355Y-125360500D01*
X156304644Y-125360500D01*
X156304646Y-125360500D01*
X156489803Y-125321144D01*
X156662730Y-125244151D01*
X156815871Y-125132888D01*
X156942533Y-124992216D01*
X157037179Y-124828284D01*
X157095674Y-124648256D01*
X157115460Y-124460000D01*
X159114540Y-124460000D01*
X159134326Y-124648256D01*
X159134327Y-124648259D01*
X159192818Y-124828277D01*
X159192821Y-124828284D01*
X159287467Y-124992216D01*
X159345899Y-125057111D01*
X159414129Y-125132888D01*
X159567265Y-125244148D01*
X159567270Y-125244151D01*
X159740192Y-125321142D01*
X159740197Y-125321144D01*
X159925354Y-125360500D01*
X159925355Y-125360500D01*
X160114644Y-125360500D01*
X160114646Y-125360500D01*
X160299803Y-125321144D01*
X160472730Y-125244151D01*
X160625871Y-125132888D01*
X160752533Y-124992216D01*
X160847179Y-124828284D01*
X160905674Y-124648256D01*
X160925460Y-124460000D01*
X166734540Y-124460000D01*
X166754326Y-124648256D01*
X166754327Y-124648259D01*
X166812818Y-124828277D01*
X166812821Y-124828284D01*
X166907467Y-124992216D01*
X166965899Y-125057111D01*
X167034129Y-125132888D01*
X167187265Y-125244148D01*
X167187270Y-125244151D01*
X167360192Y-125321142D01*
X167360197Y-125321144D01*
X167545354Y-125360500D01*
X167545355Y-125360500D01*
X167734644Y-125360500D01*
X167734646Y-125360500D01*
X167919803Y-125321144D01*
X168092730Y-125244151D01*
X168245871Y-125132888D01*
X168372533Y-124992216D01*
X168467179Y-124828284D01*
X168525674Y-124648256D01*
X168545460Y-124460000D01*
X175624540Y-124460000D01*
X175644326Y-124648256D01*
X175644327Y-124648259D01*
X175702818Y-124828277D01*
X175702821Y-124828284D01*
X175797467Y-124992216D01*
X175855899Y-125057111D01*
X175924129Y-125132888D01*
X176077265Y-125244148D01*
X176077270Y-125244151D01*
X176250192Y-125321142D01*
X176250197Y-125321144D01*
X176435354Y-125360500D01*
X176435355Y-125360500D01*
X176624644Y-125360500D01*
X176624646Y-125360500D01*
X176809803Y-125321144D01*
X176982730Y-125244151D01*
X177135871Y-125132888D01*
X177262533Y-124992216D01*
X177357179Y-124828284D01*
X177415674Y-124648256D01*
X177435460Y-124460000D01*
X177415674Y-124271744D01*
X177357179Y-124091716D01*
X177262533Y-123927784D01*
X177135871Y-123787112D01*
X177135870Y-123787111D01*
X176982734Y-123675851D01*
X176982729Y-123675848D01*
X176809807Y-123598857D01*
X176809802Y-123598855D01*
X176664000Y-123567865D01*
X176624646Y-123559500D01*
X176435354Y-123559500D01*
X176402897Y-123566398D01*
X176250197Y-123598855D01*
X176250192Y-123598857D01*
X176077270Y-123675848D01*
X176077265Y-123675851D01*
X175924129Y-123787111D01*
X175797466Y-123927785D01*
X175702821Y-124091715D01*
X175702818Y-124091722D01*
X175644327Y-124271740D01*
X175644326Y-124271744D01*
X175624540Y-124460000D01*
X168545460Y-124460000D01*
X168525674Y-124271744D01*
X168467179Y-124091716D01*
X168372533Y-123927784D01*
X168245871Y-123787112D01*
X168245870Y-123787111D01*
X168092734Y-123675851D01*
X168092729Y-123675848D01*
X167919807Y-123598857D01*
X167919802Y-123598855D01*
X167774001Y-123567865D01*
X167734646Y-123559500D01*
X167545354Y-123559500D01*
X167512897Y-123566398D01*
X167360197Y-123598855D01*
X167360192Y-123598857D01*
X167187270Y-123675848D01*
X167187265Y-123675851D01*
X167034129Y-123787111D01*
X166907466Y-123927785D01*
X166812821Y-124091715D01*
X166812818Y-124091722D01*
X166754327Y-124271740D01*
X166754326Y-124271744D01*
X166734540Y-124460000D01*
X160925460Y-124460000D01*
X160905674Y-124271744D01*
X160847179Y-124091716D01*
X160752533Y-123927784D01*
X160625871Y-123787112D01*
X160625870Y-123787111D01*
X160472734Y-123675851D01*
X160472729Y-123675848D01*
X160299807Y-123598857D01*
X160299802Y-123598855D01*
X160154000Y-123567865D01*
X160114646Y-123559500D01*
X159925354Y-123559500D01*
X159892897Y-123566398D01*
X159740197Y-123598855D01*
X159740192Y-123598857D01*
X159567270Y-123675848D01*
X159567265Y-123675851D01*
X159414129Y-123787111D01*
X159287466Y-123927785D01*
X159192821Y-124091715D01*
X159192818Y-124091722D01*
X159134327Y-124271740D01*
X159134326Y-124271744D01*
X159114540Y-124460000D01*
X157115460Y-124460000D01*
X157095674Y-124271744D01*
X157037179Y-124091716D01*
X156942533Y-123927784D01*
X156815871Y-123787112D01*
X156815870Y-123787111D01*
X156662734Y-123675851D01*
X156662729Y-123675848D01*
X156489807Y-123598857D01*
X156489802Y-123598855D01*
X156344000Y-123567865D01*
X156304646Y-123559500D01*
X156115354Y-123559500D01*
X156082897Y-123566398D01*
X155930197Y-123598855D01*
X155930192Y-123598857D01*
X155757270Y-123675848D01*
X155757265Y-123675851D01*
X155604129Y-123787111D01*
X155477466Y-123927785D01*
X155382821Y-124091715D01*
X155382818Y-124091722D01*
X155324327Y-124271740D01*
X155324326Y-124271744D01*
X155304540Y-124460000D01*
X149495460Y-124460000D01*
X149475674Y-124271744D01*
X149417179Y-124091716D01*
X149322533Y-123927784D01*
X149195871Y-123787112D01*
X149195870Y-123787111D01*
X149042734Y-123675851D01*
X149042729Y-123675848D01*
X148869807Y-123598857D01*
X148869802Y-123598855D01*
X148724001Y-123567865D01*
X148684646Y-123559500D01*
X148495354Y-123559500D01*
X148462897Y-123566398D01*
X148310197Y-123598855D01*
X148310192Y-123598857D01*
X148137270Y-123675848D01*
X148137265Y-123675851D01*
X147984129Y-123787111D01*
X147857466Y-123927785D01*
X147762821Y-124091715D01*
X147762818Y-124091722D01*
X147704327Y-124271740D01*
X147704326Y-124271744D01*
X147684540Y-124460000D01*
X146650500Y-124460000D01*
X146650500Y-121250004D01*
X147109732Y-121250004D01*
X147128777Y-121504154D01*
X147181326Y-121734387D01*
X147185492Y-121752637D01*
X147260240Y-121943091D01*
X147278608Y-121989890D01*
X147284599Y-122000266D01*
X147406041Y-122210612D01*
X147564950Y-122409877D01*
X147751783Y-122583232D01*
X147962366Y-122726805D01*
X147962371Y-122726807D01*
X147962372Y-122726808D01*
X147962373Y-122726809D01*
X148084328Y-122785538D01*
X148191992Y-122837387D01*
X148191993Y-122837387D01*
X148191996Y-122837389D01*
X148435542Y-122912513D01*
X148687565Y-122950500D01*
X148942435Y-122950500D01*
X149194458Y-122912513D01*
X149438004Y-122837389D01*
X149667634Y-122726805D01*
X149878217Y-122583232D01*
X150065050Y-122409877D01*
X150223959Y-122210612D01*
X150351393Y-121989888D01*
X150444508Y-121752637D01*
X150501222Y-121504157D01*
X150512903Y-121348284D01*
X150520268Y-121250004D01*
X150520268Y-121249995D01*
X150501222Y-120995845D01*
X150497605Y-120980000D01*
X150444508Y-120747363D01*
X150351393Y-120510112D01*
X150351392Y-120510110D01*
X150349698Y-120505794D01*
X150351576Y-120505056D01*
X150341572Y-120444387D01*
X150369280Y-120380246D01*
X150427267Y-120341268D01*
X150464648Y-120335499D01*
X152245352Y-120335499D01*
X152312391Y-120355184D01*
X152358146Y-120407988D01*
X152368090Y-120477146D01*
X152359457Y-120505462D01*
X152360302Y-120505794D01*
X152358607Y-120510110D01*
X152358607Y-120510112D01*
X152324462Y-120597112D01*
X152265492Y-120747362D01*
X152265490Y-120747369D01*
X152208777Y-120995845D01*
X152189732Y-121249995D01*
X152189732Y-121250004D01*
X152208777Y-121504154D01*
X152261326Y-121734387D01*
X152265492Y-121752637D01*
X152340240Y-121943091D01*
X152358608Y-121989890D01*
X152364599Y-122000266D01*
X152486041Y-122210612D01*
X152644950Y-122409877D01*
X152831783Y-122583232D01*
X153042366Y-122726805D01*
X153042371Y-122726807D01*
X153042372Y-122726808D01*
X153042373Y-122726809D01*
X153164328Y-122785538D01*
X153271992Y-122837387D01*
X153271993Y-122837387D01*
X153271996Y-122837389D01*
X153515542Y-122912513D01*
X153767565Y-122950500D01*
X154022435Y-122950500D01*
X154274458Y-122912513D01*
X154518004Y-122837389D01*
X154747634Y-122726805D01*
X154958217Y-122583232D01*
X155145050Y-122409877D01*
X155303959Y-122210612D01*
X155431393Y-121989888D01*
X155524508Y-121752637D01*
X155581222Y-121504157D01*
X155592903Y-121348284D01*
X155595023Y-121320000D01*
X175520252Y-121320000D01*
X175540038Y-121508256D01*
X175540039Y-121508259D01*
X175598530Y-121688277D01*
X175598533Y-121688284D01*
X175693179Y-121852216D01*
X175790623Y-121960438D01*
X175819841Y-121992888D01*
X175972977Y-122104148D01*
X175972982Y-122104151D01*
X176145904Y-122181142D01*
X176145909Y-122181144D01*
X176331066Y-122220500D01*
X176331067Y-122220500D01*
X176520356Y-122220500D01*
X176520358Y-122220500D01*
X176705515Y-122181144D01*
X176878442Y-122104151D01*
X176948540Y-122053221D01*
X177014344Y-122029741D01*
X177082399Y-122045566D01*
X177094310Y-122053221D01*
X177164405Y-122104148D01*
X177164410Y-122104151D01*
X177337332Y-122181142D01*
X177337337Y-122181144D01*
X177522494Y-122220500D01*
X177522495Y-122220500D01*
X177711784Y-122220500D01*
X177711786Y-122220500D01*
X177896943Y-122181144D01*
X178069870Y-122104151D01*
X178139970Y-122053220D01*
X178205774Y-122029741D01*
X178273828Y-122045566D01*
X178285730Y-122053214D01*
X178355834Y-122104148D01*
X178355838Y-122104151D01*
X178528760Y-122181142D01*
X178528765Y-122181144D01*
X178713922Y-122220500D01*
X178713923Y-122220500D01*
X178903212Y-122220500D01*
X178903214Y-122220500D01*
X179088371Y-122181144D01*
X179261298Y-122104151D01*
X179331400Y-122053218D01*
X179397203Y-122029740D01*
X179465257Y-122045565D01*
X179477168Y-122053220D01*
X179547265Y-122104148D01*
X179547270Y-122104151D01*
X179720192Y-122181142D01*
X179720197Y-122181144D01*
X179905354Y-122220500D01*
X179905355Y-122220500D01*
X180094644Y-122220500D01*
X180094646Y-122220500D01*
X180279803Y-122181144D01*
X180452730Y-122104151D01*
X180605871Y-121992888D01*
X180732533Y-121852216D01*
X180827179Y-121688284D01*
X180885674Y-121508256D01*
X180905460Y-121320000D01*
X180885674Y-121131744D01*
X180827179Y-120951716D01*
X180732533Y-120787784D01*
X180605871Y-120647112D01*
X180605870Y-120647111D01*
X180452734Y-120535851D01*
X180452729Y-120535848D01*
X180279807Y-120458857D01*
X180279802Y-120458855D01*
X180134001Y-120427865D01*
X180094646Y-120419500D01*
X179905354Y-120419500D01*
X179872897Y-120426398D01*
X179720197Y-120458855D01*
X179720192Y-120458857D01*
X179547270Y-120535848D01*
X179547266Y-120535851D01*
X179477168Y-120586779D01*
X179411361Y-120610258D01*
X179343307Y-120594432D01*
X179331400Y-120586779D01*
X179261301Y-120535851D01*
X179261297Y-120535848D01*
X179088375Y-120458857D01*
X179088370Y-120458855D01*
X178942569Y-120427865D01*
X178903214Y-120419500D01*
X178713922Y-120419500D01*
X178681465Y-120426398D01*
X178528765Y-120458855D01*
X178528760Y-120458857D01*
X178355838Y-120535848D01*
X178355833Y-120535851D01*
X178285739Y-120586778D01*
X178219933Y-120610258D01*
X178151879Y-120594432D01*
X178139969Y-120586778D01*
X178069874Y-120535851D01*
X178069869Y-120535848D01*
X177896947Y-120458857D01*
X177896942Y-120458855D01*
X177751140Y-120427865D01*
X177711786Y-120419500D01*
X177522494Y-120419500D01*
X177490037Y-120426398D01*
X177337337Y-120458855D01*
X177337332Y-120458857D01*
X177164410Y-120535848D01*
X177094309Y-120586779D01*
X177028502Y-120610258D01*
X176960448Y-120594432D01*
X176948541Y-120586779D01*
X176878442Y-120535849D01*
X176878441Y-120535848D01*
X176705519Y-120458857D01*
X176705514Y-120458855D01*
X176559712Y-120427865D01*
X176520358Y-120419500D01*
X176331066Y-120419500D01*
X176298609Y-120426398D01*
X176145909Y-120458855D01*
X176145904Y-120458857D01*
X175972982Y-120535848D01*
X175972977Y-120535851D01*
X175819841Y-120647111D01*
X175693178Y-120787785D01*
X175598533Y-120951715D01*
X175598530Y-120951722D01*
X175540039Y-121131740D01*
X175540038Y-121131744D01*
X175520252Y-121320000D01*
X155595023Y-121320000D01*
X155600268Y-121250004D01*
X155600268Y-121249995D01*
X155581223Y-120995846D01*
X155576503Y-120975168D01*
X155580776Y-120905429D01*
X155622074Y-120849071D01*
X155687286Y-120823987D01*
X155747828Y-120834294D01*
X155853053Y-120881144D01*
X156038210Y-120920500D01*
X156038211Y-120920500D01*
X156227500Y-120920500D01*
X156227502Y-120920500D01*
X156412659Y-120881144D01*
X156585586Y-120804151D01*
X156655684Y-120753221D01*
X156721488Y-120729741D01*
X156789543Y-120745566D01*
X156801454Y-120753221D01*
X156871549Y-120804148D01*
X156871554Y-120804151D01*
X157044476Y-120881142D01*
X157044481Y-120881144D01*
X157229638Y-120920500D01*
X157229639Y-120920500D01*
X157418928Y-120920500D01*
X157418930Y-120920500D01*
X157604087Y-120881144D01*
X157777014Y-120804151D01*
X157847114Y-120753220D01*
X157912918Y-120729741D01*
X157980972Y-120745566D01*
X157992874Y-120753214D01*
X158062978Y-120804148D01*
X158062982Y-120804151D01*
X158235904Y-120881142D01*
X158235909Y-120881144D01*
X158421066Y-120920500D01*
X158421067Y-120920500D01*
X158610356Y-120920500D01*
X158610358Y-120920500D01*
X158795515Y-120881144D01*
X158968442Y-120804151D01*
X159038542Y-120753220D01*
X159104346Y-120729741D01*
X159172400Y-120745566D01*
X159184302Y-120753214D01*
X159254406Y-120804148D01*
X159254410Y-120804151D01*
X159427332Y-120881142D01*
X159427337Y-120881144D01*
X159612494Y-120920500D01*
X159612495Y-120920500D01*
X159801784Y-120920500D01*
X159801786Y-120920500D01*
X159986943Y-120881144D01*
X160159870Y-120804151D01*
X160229970Y-120753220D01*
X160295774Y-120729741D01*
X160363828Y-120745566D01*
X160375730Y-120753214D01*
X160445834Y-120804148D01*
X160445838Y-120804151D01*
X160618760Y-120881142D01*
X160618765Y-120881144D01*
X160803922Y-120920500D01*
X160803923Y-120920500D01*
X160993212Y-120920500D01*
X160993214Y-120920500D01*
X161178371Y-120881144D01*
X161351298Y-120804151D01*
X161421399Y-120753219D01*
X161487205Y-120729740D01*
X161555259Y-120745565D01*
X161567163Y-120753215D01*
X161614743Y-120787784D01*
X161637270Y-120804151D01*
X161810192Y-120881142D01*
X161810197Y-120881144D01*
X161995354Y-120920500D01*
X161995355Y-120920500D01*
X162184644Y-120920500D01*
X162184646Y-120920500D01*
X162369803Y-120881144D01*
X162542730Y-120804151D01*
X162695871Y-120692888D01*
X162822533Y-120552216D01*
X162917179Y-120388284D01*
X162975674Y-120208256D01*
X162987052Y-120100000D01*
X163555968Y-120100000D01*
X163575754Y-120288256D01*
X163575755Y-120288259D01*
X163634246Y-120468277D01*
X163634249Y-120468284D01*
X163728895Y-120632216D01*
X163816707Y-120729741D01*
X163855557Y-120772888D01*
X164008693Y-120884148D01*
X164008698Y-120884151D01*
X164181620Y-120961142D01*
X164181625Y-120961144D01*
X164366782Y-121000500D01*
X164366783Y-121000500D01*
X164556072Y-121000500D01*
X164556074Y-121000500D01*
X164741231Y-120961144D01*
X164914158Y-120884151D01*
X164984258Y-120833220D01*
X165050062Y-120809741D01*
X165118116Y-120825566D01*
X165130018Y-120833214D01*
X165195987Y-120881144D01*
X165200126Y-120884151D01*
X165373048Y-120961142D01*
X165373053Y-120961144D01*
X165558210Y-121000500D01*
X165558211Y-121000500D01*
X165747500Y-121000500D01*
X165747502Y-121000500D01*
X165932659Y-120961144D01*
X166105586Y-120884151D01*
X166175686Y-120833220D01*
X166241490Y-120809741D01*
X166309544Y-120825566D01*
X166321446Y-120833214D01*
X166387415Y-120881144D01*
X166391554Y-120884151D01*
X166564476Y-120961142D01*
X166564481Y-120961144D01*
X166749638Y-121000500D01*
X166749639Y-121000500D01*
X166938928Y-121000500D01*
X166938930Y-121000500D01*
X167124087Y-120961144D01*
X167297014Y-120884151D01*
X167367112Y-120833221D01*
X167432916Y-120809741D01*
X167500971Y-120825566D01*
X167512882Y-120833221D01*
X167582977Y-120884148D01*
X167582982Y-120884151D01*
X167755904Y-120961142D01*
X167755909Y-120961144D01*
X167941066Y-121000500D01*
X167941067Y-121000500D01*
X168130356Y-121000500D01*
X168130358Y-121000500D01*
X168315515Y-120961144D01*
X168488442Y-120884151D01*
X168641583Y-120772888D01*
X168694711Y-120713883D01*
X168754196Y-120677235D01*
X168824053Y-120678565D01*
X168879008Y-120713883D01*
X168893364Y-120729826D01*
X168914129Y-120752888D01*
X169067265Y-120864148D01*
X169067270Y-120864151D01*
X169240192Y-120941142D01*
X169240197Y-120941144D01*
X169425354Y-120980500D01*
X169425355Y-120980500D01*
X169614644Y-120980500D01*
X169614646Y-120980500D01*
X169799803Y-120941144D01*
X169972730Y-120864151D01*
X170125871Y-120752888D01*
X170252533Y-120612216D01*
X170321650Y-120492500D01*
X170372218Y-120444285D01*
X170429038Y-120430500D01*
X170514644Y-120430500D01*
X170514646Y-120430500D01*
X170646051Y-120402569D01*
X170715716Y-120407885D01*
X170771450Y-120450022D01*
X170779014Y-120462978D01*
X170779572Y-120462656D01*
X170782820Y-120468282D01*
X170782821Y-120468284D01*
X170877467Y-120632216D01*
X170965279Y-120729741D01*
X171004129Y-120772888D01*
X171157265Y-120884148D01*
X171157270Y-120884151D01*
X171330192Y-120961142D01*
X171330197Y-120961144D01*
X171515354Y-121000500D01*
X171515355Y-121000500D01*
X171704644Y-121000500D01*
X171704646Y-121000500D01*
X171889803Y-120961144D01*
X172062730Y-120884151D01*
X172215871Y-120772888D01*
X172342533Y-120632216D01*
X172437179Y-120468284D01*
X172495674Y-120288256D01*
X172515460Y-120100000D01*
X172495674Y-119911744D01*
X172437179Y-119731716D01*
X172342533Y-119567784D01*
X172215871Y-119427112D01*
X172215870Y-119427111D01*
X172062734Y-119315851D01*
X172062729Y-119315848D01*
X171889807Y-119238857D01*
X171889802Y-119238855D01*
X171744000Y-119207865D01*
X171704646Y-119199500D01*
X171515354Y-119199500D01*
X171515353Y-119199500D01*
X171383950Y-119227430D01*
X171314283Y-119222114D01*
X171258550Y-119179977D01*
X171250990Y-119167019D01*
X171250429Y-119167344D01*
X171152534Y-118997785D01*
X171025870Y-118857111D01*
X170872734Y-118745851D01*
X170872729Y-118745848D01*
X170699807Y-118668857D01*
X170699802Y-118668855D01*
X170554000Y-118637865D01*
X170516998Y-118630000D01*
X176615968Y-118630000D01*
X176635754Y-118818256D01*
X176635755Y-118818259D01*
X176694246Y-118998277D01*
X176694249Y-118998284D01*
X176788895Y-119162216D01*
X176901052Y-119286779D01*
X176915557Y-119302888D01*
X177068693Y-119414148D01*
X177068698Y-119414151D01*
X177241620Y-119491142D01*
X177241625Y-119491144D01*
X177426782Y-119530500D01*
X177426783Y-119530500D01*
X177616072Y-119530500D01*
X177616074Y-119530500D01*
X177801231Y-119491144D01*
X177974158Y-119414151D01*
X178044258Y-119363220D01*
X178110062Y-119339741D01*
X178178116Y-119355566D01*
X178190018Y-119363214D01*
X178227498Y-119390445D01*
X178260126Y-119414151D01*
X178433048Y-119491142D01*
X178433053Y-119491144D01*
X178618210Y-119530500D01*
X178618211Y-119530500D01*
X178807500Y-119530500D01*
X178807502Y-119530500D01*
X178992659Y-119491144D01*
X179165586Y-119414151D01*
X179235686Y-119363220D01*
X179301490Y-119339741D01*
X179369544Y-119355566D01*
X179381446Y-119363214D01*
X179418926Y-119390445D01*
X179451554Y-119414151D01*
X179624476Y-119491142D01*
X179624481Y-119491144D01*
X179809638Y-119530500D01*
X179809639Y-119530500D01*
X179998928Y-119530500D01*
X179998930Y-119530500D01*
X180184087Y-119491144D01*
X180357014Y-119414151D01*
X180427114Y-119363220D01*
X180492918Y-119339741D01*
X180560972Y-119355566D01*
X180572874Y-119363214D01*
X180610354Y-119390445D01*
X180642982Y-119414151D01*
X180815904Y-119491142D01*
X180815909Y-119491144D01*
X181001066Y-119530500D01*
X181001067Y-119530500D01*
X181190356Y-119530500D01*
X181190358Y-119530500D01*
X181375515Y-119491144D01*
X181548442Y-119414151D01*
X181618542Y-119363220D01*
X181684346Y-119339741D01*
X181752400Y-119355566D01*
X181764302Y-119363214D01*
X181801782Y-119390445D01*
X181834410Y-119414151D01*
X182007332Y-119491142D01*
X182007337Y-119491144D01*
X182192494Y-119530500D01*
X182192495Y-119530500D01*
X182381784Y-119530500D01*
X182381786Y-119530500D01*
X182566943Y-119491144D01*
X182739870Y-119414151D01*
X182809970Y-119363220D01*
X182875774Y-119339741D01*
X182943828Y-119355566D01*
X182955730Y-119363214D01*
X182993210Y-119390445D01*
X183025838Y-119414151D01*
X183198760Y-119491142D01*
X183198765Y-119491144D01*
X183383922Y-119530500D01*
X183383923Y-119530500D01*
X183573212Y-119530500D01*
X183573214Y-119530500D01*
X183758371Y-119491144D01*
X183931298Y-119414151D01*
X184001399Y-119363219D01*
X184067205Y-119339740D01*
X184135259Y-119355565D01*
X184147163Y-119363215D01*
X184203593Y-119404214D01*
X184217270Y-119414151D01*
X184390192Y-119491142D01*
X184390197Y-119491144D01*
X184575354Y-119530500D01*
X184575355Y-119530500D01*
X184764644Y-119530500D01*
X184764646Y-119530500D01*
X184949803Y-119491144D01*
X185122730Y-119414151D01*
X185193349Y-119362842D01*
X185259155Y-119339362D01*
X185327209Y-119355187D01*
X185339120Y-119362842D01*
X185437265Y-119434148D01*
X185437270Y-119434151D01*
X185610192Y-119511142D01*
X185610197Y-119511144D01*
X185795354Y-119550500D01*
X185795355Y-119550500D01*
X185984644Y-119550500D01*
X185984646Y-119550500D01*
X186169803Y-119511144D01*
X186331460Y-119439168D01*
X186400707Y-119429883D01*
X186463984Y-119459511D01*
X186474044Y-119469476D01*
X186504123Y-119502883D01*
X186504130Y-119502889D01*
X186657265Y-119614148D01*
X186657270Y-119614151D01*
X186830192Y-119691142D01*
X186830197Y-119691144D01*
X187015354Y-119730500D01*
X187015355Y-119730500D01*
X187204644Y-119730500D01*
X187204646Y-119730500D01*
X187389803Y-119691144D01*
X187562730Y-119614151D01*
X187691101Y-119520884D01*
X187756906Y-119497405D01*
X187824960Y-119513230D01*
X187856135Y-119538231D01*
X187862129Y-119544888D01*
X187862135Y-119544893D01*
X188015265Y-119656148D01*
X188015270Y-119656151D01*
X188188192Y-119733142D01*
X188188197Y-119733144D01*
X188373354Y-119772500D01*
X188373355Y-119772500D01*
X188562644Y-119772500D01*
X188562646Y-119772500D01*
X188747803Y-119733144D01*
X188920730Y-119656151D01*
X189073871Y-119544888D01*
X189200533Y-119404216D01*
X189295179Y-119240284D01*
X189325037Y-119148389D01*
X189364474Y-119090714D01*
X189428832Y-119063515D01*
X189479514Y-119068215D01*
X189655542Y-119122513D01*
X189907565Y-119160500D01*
X190162435Y-119160500D01*
X190414458Y-119122513D01*
X190658004Y-119047389D01*
X190771700Y-118992635D01*
X190840639Y-118981284D01*
X190904774Y-119009006D01*
X190943740Y-119067001D01*
X190949500Y-119104356D01*
X190949500Y-120895643D01*
X190929815Y-120962682D01*
X190877011Y-121008437D01*
X190807853Y-121018381D01*
X190771699Y-121007363D01*
X190658006Y-120952612D01*
X190658008Y-120952612D01*
X190414466Y-120877489D01*
X190414462Y-120877488D01*
X190414458Y-120877487D01*
X190293231Y-120859214D01*
X190162440Y-120839500D01*
X190162435Y-120839500D01*
X189907565Y-120839500D01*
X189907559Y-120839500D01*
X189750609Y-120863157D01*
X189655542Y-120877487D01*
X189655538Y-120877488D01*
X189655539Y-120877488D01*
X189655533Y-120877489D01*
X189411992Y-120952612D01*
X189182373Y-121063190D01*
X189182372Y-121063191D01*
X188971782Y-121206768D01*
X188793741Y-121371965D01*
X188731208Y-121403133D01*
X188661752Y-121395546D01*
X188607423Y-121351612D01*
X188585472Y-121285280D01*
X188591467Y-121242754D01*
X188615674Y-121168256D01*
X188635460Y-120980000D01*
X188615674Y-120791744D01*
X188561112Y-120623823D01*
X188557181Y-120611722D01*
X188557180Y-120611721D01*
X188557179Y-120611716D01*
X188462533Y-120447784D01*
X188335871Y-120307112D01*
X188309918Y-120288256D01*
X188182734Y-120195851D01*
X188182729Y-120195848D01*
X188009807Y-120118857D01*
X188009802Y-120118855D01*
X187864000Y-120087865D01*
X187824646Y-120079500D01*
X187635354Y-120079500D01*
X187602897Y-120086398D01*
X187450197Y-120118855D01*
X187450192Y-120118857D01*
X187277270Y-120195848D01*
X187277265Y-120195851D01*
X187124129Y-120307111D01*
X187124128Y-120307112D01*
X187037651Y-120403154D01*
X186978164Y-120439802D01*
X186908307Y-120438471D01*
X186895067Y-120433461D01*
X186839802Y-120408855D01*
X186694000Y-120377865D01*
X186654646Y-120369500D01*
X186465354Y-120369500D01*
X186432897Y-120376398D01*
X186280197Y-120408855D01*
X186280192Y-120408857D01*
X186107270Y-120485848D01*
X186107265Y-120485851D01*
X185954131Y-120597110D01*
X185954128Y-120597112D01*
X185924909Y-120629563D01*
X185865422Y-120666211D01*
X185795565Y-120664880D01*
X185759875Y-120646908D01*
X185607018Y-120535851D01*
X185607013Y-120535848D01*
X185434091Y-120458857D01*
X185434086Y-120458855D01*
X185288284Y-120427865D01*
X185248930Y-120419500D01*
X185059638Y-120419500D01*
X185027181Y-120426398D01*
X184874481Y-120458855D01*
X184874476Y-120458857D01*
X184701554Y-120535848D01*
X184701549Y-120535851D01*
X184631455Y-120586778D01*
X184565649Y-120610258D01*
X184497595Y-120594432D01*
X184485685Y-120586778D01*
X184415590Y-120535851D01*
X184415585Y-120535848D01*
X184242663Y-120458857D01*
X184242658Y-120458855D01*
X184096857Y-120427865D01*
X184057502Y-120419500D01*
X183868210Y-120419500D01*
X183835753Y-120426398D01*
X183683053Y-120458855D01*
X183683048Y-120458857D01*
X183510126Y-120535848D01*
X183510121Y-120535851D01*
X183440027Y-120586778D01*
X183374221Y-120610258D01*
X183306167Y-120594432D01*
X183294257Y-120586778D01*
X183224162Y-120535851D01*
X183224157Y-120535848D01*
X183051235Y-120458857D01*
X183051230Y-120458855D01*
X182905429Y-120427865D01*
X182866074Y-120419500D01*
X182676782Y-120419500D01*
X182644325Y-120426398D01*
X182491625Y-120458855D01*
X182491620Y-120458857D01*
X182318698Y-120535848D01*
X182318693Y-120535851D01*
X182165557Y-120647111D01*
X182038894Y-120787785D01*
X181944249Y-120951715D01*
X181944246Y-120951722D01*
X181885755Y-121131740D01*
X181885754Y-121131744D01*
X181865968Y-121320000D01*
X181885754Y-121508256D01*
X181885755Y-121508259D01*
X181944246Y-121688277D01*
X181944249Y-121688284D01*
X182038895Y-121852216D01*
X182136339Y-121960438D01*
X182165557Y-121992888D01*
X182318693Y-122104148D01*
X182318698Y-122104151D01*
X182491620Y-122181142D01*
X182491625Y-122181144D01*
X182676782Y-122220500D01*
X182676783Y-122220500D01*
X182866072Y-122220500D01*
X182866074Y-122220500D01*
X183051231Y-122181144D01*
X183224158Y-122104151D01*
X183294258Y-122053220D01*
X183360062Y-122029741D01*
X183428116Y-122045566D01*
X183440018Y-122053214D01*
X183510122Y-122104148D01*
X183510126Y-122104151D01*
X183683048Y-122181142D01*
X183683053Y-122181144D01*
X183868210Y-122220500D01*
X183868211Y-122220500D01*
X184057500Y-122220500D01*
X184057502Y-122220500D01*
X184242659Y-122181144D01*
X184415586Y-122104151D01*
X184485686Y-122053220D01*
X184551490Y-122029741D01*
X184619544Y-122045566D01*
X184631446Y-122053214D01*
X184701550Y-122104148D01*
X184701554Y-122104151D01*
X184874476Y-122181142D01*
X184874477Y-122181142D01*
X184874481Y-122181144D01*
X184954832Y-122198223D01*
X184972540Y-122201987D01*
X185034022Y-122235179D01*
X185067799Y-122296342D01*
X185063147Y-122366056D01*
X185021543Y-122422189D01*
X184997204Y-122436553D01*
X184995276Y-122437411D01*
X184995272Y-122437413D01*
X184842136Y-122548673D01*
X184715473Y-122689347D01*
X184620828Y-122853277D01*
X184620825Y-122853284D01*
X184589238Y-122950500D01*
X184562333Y-123033306D01*
X184542547Y-123221562D01*
X184562333Y-123409818D01*
X184562334Y-123409821D01*
X184620825Y-123589839D01*
X184620828Y-123589846D01*
X184715474Y-123753778D01*
X184823030Y-123873231D01*
X184842136Y-123894450D01*
X184995272Y-124005710D01*
X184995277Y-124005713D01*
X185168199Y-124082704D01*
X185168204Y-124082706D01*
X185353361Y-124122062D01*
X185353362Y-124122062D01*
X185542651Y-124122062D01*
X185542653Y-124122062D01*
X185727810Y-124082706D01*
X185900737Y-124005713D01*
X186053878Y-123894450D01*
X186180540Y-123753778D01*
X186275186Y-123589846D01*
X186333681Y-123409818D01*
X186353467Y-123221562D01*
X186333681Y-123033306D01*
X186275186Y-122853278D01*
X186180540Y-122689346D01*
X186053878Y-122548674D01*
X186041945Y-122540004D01*
X185900741Y-122437413D01*
X185900736Y-122437410D01*
X185727814Y-122360419D01*
X185727809Y-122360417D01*
X185629749Y-122339574D01*
X185568267Y-122306381D01*
X185534491Y-122245218D01*
X185539143Y-122175504D01*
X185580748Y-122119372D01*
X185605097Y-122105004D01*
X185607014Y-122104151D01*
X185760155Y-121992888D01*
X185762855Y-121989890D01*
X185789373Y-121960438D01*
X185848859Y-121923789D01*
X185918716Y-121925118D01*
X185954404Y-121943088D01*
X186095452Y-122045565D01*
X186107270Y-122054151D01*
X186280192Y-122131142D01*
X186280197Y-122131144D01*
X186465354Y-122170500D01*
X186465355Y-122170500D01*
X186654644Y-122170500D01*
X186654646Y-122170500D01*
X186839803Y-122131144D01*
X187012730Y-122054151D01*
X187165871Y-121942888D01*
X187252348Y-121846844D01*
X187311833Y-121810197D01*
X187381690Y-121811527D01*
X187394933Y-121816539D01*
X187450192Y-121841142D01*
X187450197Y-121841144D01*
X187635354Y-121880500D01*
X187635355Y-121880500D01*
X187824644Y-121880500D01*
X187824646Y-121880500D01*
X188009803Y-121841144D01*
X188182730Y-121764151D01*
X188300975Y-121678241D01*
X188366776Y-121654763D01*
X188434830Y-121670588D01*
X188483525Y-121720693D01*
X188497401Y-121789171D01*
X188489284Y-121823863D01*
X188405493Y-122037357D01*
X188405490Y-122037369D01*
X188348777Y-122285845D01*
X188329732Y-122539995D01*
X188329732Y-122540004D01*
X188348777Y-122794154D01*
X188375791Y-122912511D01*
X188405492Y-123042637D01*
X188498607Y-123279888D01*
X188626041Y-123500612D01*
X188784950Y-123699877D01*
X188971783Y-123873232D01*
X189182366Y-124016805D01*
X189182371Y-124016807D01*
X189182372Y-124016808D01*
X189182373Y-124016809D01*
X189304328Y-124075538D01*
X189411992Y-124127387D01*
X189411993Y-124127387D01*
X189411996Y-124127389D01*
X189655542Y-124202513D01*
X189907565Y-124240500D01*
X190162435Y-124240500D01*
X190414458Y-124202513D01*
X190658004Y-124127389D01*
X190887634Y-124016805D01*
X191098217Y-123873232D01*
X191285050Y-123699877D01*
X191443959Y-123500612D01*
X191571393Y-123279888D01*
X191664508Y-123042637D01*
X191721222Y-122794157D01*
X191737028Y-122583232D01*
X191740268Y-122540004D01*
X191740268Y-122539995D01*
X191721222Y-122285845D01*
X191711949Y-122245218D01*
X191664508Y-122037363D01*
X191571393Y-121800112D01*
X191571392Y-121800110D01*
X191569698Y-121795794D01*
X191571576Y-121795056D01*
X191561572Y-121734387D01*
X191589280Y-121670246D01*
X191647267Y-121631268D01*
X191684648Y-121625499D01*
X193465352Y-121625499D01*
X193532391Y-121645184D01*
X193578146Y-121697988D01*
X193588090Y-121767146D01*
X193579457Y-121795462D01*
X193580302Y-121795794D01*
X193578607Y-121800110D01*
X193578607Y-121800112D01*
X193562504Y-121841142D01*
X193485492Y-122037362D01*
X193485490Y-122037369D01*
X193428777Y-122285845D01*
X193409732Y-122539995D01*
X193409732Y-122540004D01*
X193428777Y-122794154D01*
X193455791Y-122912511D01*
X193485492Y-123042637D01*
X193578607Y-123279888D01*
X193706041Y-123500612D01*
X193864950Y-123699877D01*
X194051783Y-123873232D01*
X194262366Y-124016805D01*
X194262371Y-124016807D01*
X194262372Y-124016808D01*
X194262373Y-124016809D01*
X194384328Y-124075538D01*
X194491992Y-124127387D01*
X194491993Y-124127387D01*
X194491996Y-124127389D01*
X194735542Y-124202513D01*
X194987565Y-124240500D01*
X195242435Y-124240500D01*
X195494458Y-124202513D01*
X195738004Y-124127389D01*
X195967634Y-124016805D01*
X196178217Y-123873232D01*
X196365050Y-123699877D01*
X196523959Y-123500612D01*
X196651393Y-123279888D01*
X196744508Y-123042637D01*
X196801222Y-122794157D01*
X196817028Y-122583232D01*
X196820268Y-122540004D01*
X196820268Y-122539995D01*
X196801222Y-122285845D01*
X196791949Y-122245218D01*
X196744508Y-122037363D01*
X196651393Y-121800112D01*
X196523959Y-121579388D01*
X196365050Y-121380123D01*
X196178217Y-121206768D01*
X195967634Y-121063195D01*
X195967630Y-121063193D01*
X195967627Y-121063191D01*
X195967626Y-121063190D01*
X195738006Y-120952612D01*
X195738008Y-120952612D01*
X195494466Y-120877489D01*
X195494462Y-120877488D01*
X195494458Y-120877487D01*
X195373231Y-120859214D01*
X195242440Y-120839500D01*
X195242435Y-120839500D01*
X194987565Y-120839500D01*
X194987559Y-120839500D01*
X194830609Y-120863157D01*
X194735542Y-120877487D01*
X194735538Y-120877488D01*
X194735539Y-120877488D01*
X194735533Y-120877489D01*
X194491995Y-120952611D01*
X194471083Y-120962682D01*
X194378299Y-121007364D01*
X194309359Y-121018716D01*
X194245225Y-120990994D01*
X194206259Y-120932998D01*
X194200499Y-120895644D01*
X194200499Y-119104356D01*
X194220184Y-119037317D01*
X194272988Y-118991562D01*
X194342146Y-118981618D01*
X194378298Y-118992635D01*
X194491996Y-119047389D01*
X194735542Y-119122513D01*
X194987565Y-119160500D01*
X195242435Y-119160500D01*
X195494458Y-119122513D01*
X195738004Y-119047389D01*
X195967634Y-118936805D01*
X196178217Y-118793232D01*
X196365050Y-118619877D01*
X196523959Y-118420612D01*
X196651393Y-118199888D01*
X196744508Y-117962637D01*
X196801222Y-117714157D01*
X196817028Y-117503232D01*
X196820268Y-117460004D01*
X196820268Y-117459995D01*
X196801222Y-117205845D01*
X196793432Y-117171716D01*
X196744508Y-116957363D01*
X196651393Y-116720112D01*
X196523959Y-116499388D01*
X196365050Y-116300123D01*
X196178217Y-116126768D01*
X195967634Y-115983195D01*
X195967630Y-115983193D01*
X195967627Y-115983191D01*
X195967626Y-115983190D01*
X195738006Y-115872612D01*
X195738008Y-115872612D01*
X195494466Y-115797489D01*
X195494462Y-115797488D01*
X195494458Y-115797487D01*
X195373231Y-115779214D01*
X195242440Y-115759500D01*
X195242435Y-115759500D01*
X194987565Y-115759500D01*
X194987559Y-115759500D01*
X194830609Y-115783157D01*
X194735542Y-115797487D01*
X194735538Y-115797488D01*
X194735539Y-115797488D01*
X194735533Y-115797489D01*
X194491992Y-115872612D01*
X194262373Y-115983190D01*
X194262372Y-115983191D01*
X194051782Y-116126768D01*
X193864952Y-116300121D01*
X193864950Y-116300123D01*
X193706041Y-116499388D01*
X193578608Y-116720109D01*
X193485492Y-116957362D01*
X193485490Y-116957369D01*
X193428777Y-117205845D01*
X193409732Y-117459995D01*
X193409732Y-117460004D01*
X193428777Y-117714154D01*
X193484230Y-117957111D01*
X193485492Y-117962637D01*
X193578302Y-118199112D01*
X193580302Y-118204206D01*
X193578433Y-118204939D01*
X193588420Y-118265664D01*
X193560685Y-118329793D01*
X193502682Y-118368747D01*
X193465351Y-118374500D01*
X191684649Y-118374500D01*
X191617610Y-118354815D01*
X191571855Y-118302011D01*
X191561911Y-118232853D01*
X191570542Y-118204538D01*
X191569698Y-118204207D01*
X191593764Y-118142888D01*
X191664508Y-117962637D01*
X191721222Y-117714157D01*
X191737028Y-117503232D01*
X191740268Y-117460004D01*
X191740268Y-117459995D01*
X191721222Y-117205845D01*
X191713432Y-117171716D01*
X191664508Y-116957363D01*
X191571393Y-116720112D01*
X191443959Y-116499388D01*
X191285050Y-116300123D01*
X191098217Y-116126768D01*
X190887634Y-115983195D01*
X190887630Y-115983193D01*
X190887627Y-115983191D01*
X190887626Y-115983190D01*
X190658006Y-115872612D01*
X190658008Y-115872612D01*
X190414466Y-115797489D01*
X190414462Y-115797488D01*
X190414458Y-115797487D01*
X190293231Y-115779214D01*
X190162440Y-115759500D01*
X190162435Y-115759500D01*
X189907565Y-115759500D01*
X189907559Y-115759500D01*
X189750609Y-115783157D01*
X189655542Y-115797487D01*
X189655538Y-115797488D01*
X189655539Y-115797488D01*
X189655533Y-115797489D01*
X189411992Y-115872612D01*
X189182373Y-115983190D01*
X189182372Y-115983191D01*
X188971782Y-116126768D01*
X188784952Y-116300121D01*
X188784950Y-116300123D01*
X188626041Y-116499388D01*
X188498608Y-116720109D01*
X188405492Y-116957362D01*
X188405490Y-116957369D01*
X188348777Y-117205845D01*
X188329732Y-117459995D01*
X188329732Y-117460004D01*
X188348777Y-117714155D01*
X188348777Y-117714157D01*
X188377925Y-117841862D01*
X188373652Y-117911600D01*
X188332353Y-117967958D01*
X188282815Y-117990744D01*
X188188197Y-118010855D01*
X188188192Y-118010857D01*
X188015271Y-118087848D01*
X187886899Y-118181115D01*
X187821092Y-118204594D01*
X187753038Y-118188768D01*
X187721864Y-118163768D01*
X187715870Y-118157111D01*
X187715864Y-118157106D01*
X187562734Y-118045851D01*
X187562729Y-118045848D01*
X187389807Y-117968857D01*
X187389802Y-117968855D01*
X187244000Y-117937865D01*
X187204646Y-117929500D01*
X187015354Y-117929500D01*
X186982897Y-117936398D01*
X186830197Y-117968855D01*
X186830192Y-117968857D01*
X186668541Y-118040830D01*
X186599291Y-118050115D01*
X186536014Y-118020487D01*
X186525955Y-118010523D01*
X186495876Y-117977116D01*
X186495869Y-117977110D01*
X186342734Y-117865851D01*
X186342729Y-117865848D01*
X186169807Y-117788857D01*
X186169802Y-117788855D01*
X186021752Y-117757387D01*
X185984646Y-117749500D01*
X185795354Y-117749500D01*
X185762897Y-117756398D01*
X185610197Y-117788855D01*
X185610192Y-117788857D01*
X185437270Y-117865848D01*
X185437266Y-117865851D01*
X185366647Y-117917158D01*
X185300841Y-117940637D01*
X185232787Y-117924811D01*
X185220878Y-117917157D01*
X185122734Y-117845851D01*
X185122729Y-117845848D01*
X184949807Y-117768857D01*
X184949802Y-117768855D01*
X184804001Y-117737865D01*
X184764646Y-117729500D01*
X184575354Y-117729500D01*
X184542897Y-117736398D01*
X184390197Y-117768855D01*
X184390192Y-117768857D01*
X184217270Y-117845848D01*
X184217267Y-117845850D01*
X184147166Y-117896780D01*
X184081359Y-117920258D01*
X184013306Y-117904431D01*
X184001399Y-117896779D01*
X183931301Y-117845850D01*
X183931297Y-117845848D01*
X183758375Y-117768857D01*
X183758370Y-117768855D01*
X183612568Y-117737865D01*
X183573214Y-117729500D01*
X183383922Y-117729500D01*
X183351465Y-117736398D01*
X183198765Y-117768855D01*
X183198760Y-117768857D01*
X183025838Y-117845848D01*
X183025833Y-117845851D01*
X182955739Y-117896778D01*
X182889933Y-117920258D01*
X182821879Y-117904432D01*
X182809969Y-117896778D01*
X182739874Y-117845851D01*
X182739869Y-117845848D01*
X182566947Y-117768857D01*
X182566942Y-117768855D01*
X182421140Y-117737865D01*
X182381786Y-117729500D01*
X182192494Y-117729500D01*
X182160037Y-117736398D01*
X182007337Y-117768855D01*
X182007332Y-117768857D01*
X181834410Y-117845848D01*
X181764309Y-117896779D01*
X181698502Y-117920258D01*
X181630448Y-117904432D01*
X181618546Y-117896783D01*
X181548445Y-117845851D01*
X181548441Y-117845848D01*
X181375519Y-117768857D01*
X181375514Y-117768855D01*
X181229712Y-117737865D01*
X181190358Y-117729500D01*
X181001066Y-117729500D01*
X180968609Y-117736398D01*
X180815909Y-117768855D01*
X180815904Y-117768857D01*
X180642982Y-117845848D01*
X180642977Y-117845851D01*
X180572883Y-117896778D01*
X180507077Y-117920258D01*
X180439023Y-117904432D01*
X180427113Y-117896778D01*
X180357018Y-117845851D01*
X180357013Y-117845848D01*
X180184091Y-117768857D01*
X180184086Y-117768855D01*
X180038285Y-117737865D01*
X179998930Y-117729500D01*
X179809638Y-117729500D01*
X179777181Y-117736398D01*
X179624481Y-117768855D01*
X179624476Y-117768857D01*
X179451554Y-117845848D01*
X179451549Y-117845851D01*
X179381455Y-117896778D01*
X179315649Y-117920258D01*
X179247595Y-117904432D01*
X179235685Y-117896778D01*
X179165590Y-117845851D01*
X179165585Y-117845848D01*
X178992663Y-117768857D01*
X178992658Y-117768855D01*
X178846857Y-117737865D01*
X178807502Y-117729500D01*
X178618210Y-117729500D01*
X178585753Y-117736398D01*
X178433053Y-117768855D01*
X178433048Y-117768857D01*
X178260126Y-117845848D01*
X178260121Y-117845851D01*
X178190027Y-117896778D01*
X178124221Y-117920258D01*
X178056167Y-117904432D01*
X178044257Y-117896778D01*
X177974162Y-117845851D01*
X177974157Y-117845848D01*
X177801235Y-117768857D01*
X177801230Y-117768855D01*
X177655428Y-117737865D01*
X177616074Y-117729500D01*
X177426782Y-117729500D01*
X177394325Y-117736398D01*
X177241625Y-117768855D01*
X177241620Y-117768857D01*
X177068698Y-117845848D01*
X177068693Y-117845851D01*
X176915557Y-117957111D01*
X176788894Y-118097785D01*
X176694249Y-118261715D01*
X176694246Y-118261722D01*
X176642620Y-118420612D01*
X176635754Y-118441744D01*
X176619005Y-118601101D01*
X176616021Y-118629500D01*
X176615968Y-118630000D01*
X170516998Y-118630000D01*
X170514646Y-118629500D01*
X170325354Y-118629500D01*
X170292897Y-118636398D01*
X170140197Y-118668855D01*
X170140192Y-118668857D01*
X169967270Y-118745848D01*
X169967265Y-118745851D01*
X169814129Y-118857111D01*
X169687466Y-118997785D01*
X169618349Y-119117500D01*
X169567782Y-119165715D01*
X169510962Y-119179500D01*
X169425354Y-119179500D01*
X169392897Y-119186398D01*
X169240197Y-119218855D01*
X169240192Y-119218857D01*
X169067270Y-119295848D01*
X169067265Y-119295851D01*
X168914129Y-119407111D01*
X168914128Y-119407112D01*
X168861000Y-119466116D01*
X168801513Y-119502764D01*
X168731656Y-119501433D01*
X168676702Y-119466115D01*
X168641583Y-119427112D01*
X168641582Y-119427111D01*
X168488446Y-119315851D01*
X168488441Y-119315848D01*
X168315519Y-119238857D01*
X168315514Y-119238855D01*
X168169713Y-119207865D01*
X168130358Y-119199500D01*
X167941066Y-119199500D01*
X167908609Y-119206398D01*
X167755909Y-119238855D01*
X167755904Y-119238857D01*
X167582982Y-119315848D01*
X167582977Y-119315851D01*
X167512883Y-119366778D01*
X167447077Y-119390258D01*
X167379023Y-119374432D01*
X167367113Y-119366778D01*
X167297018Y-119315851D01*
X167297013Y-119315848D01*
X167124091Y-119238857D01*
X167124086Y-119238855D01*
X166978285Y-119207865D01*
X166938930Y-119199500D01*
X166749638Y-119199500D01*
X166717181Y-119206398D01*
X166564481Y-119238855D01*
X166564476Y-119238857D01*
X166391554Y-119315848D01*
X166391549Y-119315851D01*
X166321455Y-119366778D01*
X166255649Y-119390258D01*
X166187595Y-119374432D01*
X166175685Y-119366778D01*
X166105590Y-119315851D01*
X166105585Y-119315848D01*
X165932663Y-119238857D01*
X165932658Y-119238855D01*
X165786857Y-119207865D01*
X165747502Y-119199500D01*
X165558210Y-119199500D01*
X165525753Y-119206398D01*
X165373053Y-119238855D01*
X165373048Y-119238857D01*
X165200126Y-119315848D01*
X165200121Y-119315851D01*
X165130027Y-119366778D01*
X165064221Y-119390258D01*
X164996167Y-119374432D01*
X164984257Y-119366778D01*
X164914162Y-119315851D01*
X164914157Y-119315848D01*
X164741235Y-119238857D01*
X164741230Y-119238855D01*
X164595428Y-119207865D01*
X164556074Y-119199500D01*
X164366782Y-119199500D01*
X164334325Y-119206398D01*
X164181625Y-119238855D01*
X164181620Y-119238857D01*
X164008698Y-119315848D01*
X164008693Y-119315851D01*
X163855557Y-119427111D01*
X163728894Y-119567785D01*
X163634249Y-119731715D01*
X163634246Y-119731722D01*
X163575755Y-119911740D01*
X163575754Y-119911744D01*
X163555968Y-120100000D01*
X162987052Y-120100000D01*
X162995460Y-120020000D01*
X162975674Y-119831744D01*
X162917179Y-119651716D01*
X162822533Y-119487784D01*
X162695871Y-119347112D01*
X162685726Y-119339741D01*
X162542734Y-119235851D01*
X162542729Y-119235848D01*
X162369807Y-119158857D01*
X162369802Y-119158855D01*
X162198821Y-119122513D01*
X162184646Y-119119500D01*
X161995354Y-119119500D01*
X161981179Y-119122513D01*
X161810197Y-119158855D01*
X161810192Y-119158857D01*
X161637270Y-119235848D01*
X161637266Y-119235851D01*
X161567168Y-119286779D01*
X161501361Y-119310258D01*
X161433307Y-119294432D01*
X161421400Y-119286779D01*
X161351301Y-119235851D01*
X161351297Y-119235848D01*
X161178375Y-119158857D01*
X161178370Y-119158855D01*
X161007389Y-119122513D01*
X160993214Y-119119500D01*
X160803922Y-119119500D01*
X160789747Y-119122513D01*
X160618765Y-119158855D01*
X160618760Y-119158857D01*
X160445838Y-119235848D01*
X160445833Y-119235851D01*
X160375739Y-119286778D01*
X160309933Y-119310258D01*
X160241879Y-119294432D01*
X160229969Y-119286778D01*
X160159874Y-119235851D01*
X160159869Y-119235848D01*
X159986947Y-119158857D01*
X159986942Y-119158855D01*
X159815961Y-119122513D01*
X159801786Y-119119500D01*
X159612494Y-119119500D01*
X159598319Y-119122513D01*
X159427337Y-119158855D01*
X159427332Y-119158857D01*
X159254410Y-119235848D01*
X159254405Y-119235851D01*
X159184311Y-119286778D01*
X159118505Y-119310258D01*
X159050451Y-119294432D01*
X159038541Y-119286778D01*
X158968446Y-119235851D01*
X158968441Y-119235848D01*
X158795519Y-119158857D01*
X158795514Y-119158855D01*
X158624533Y-119122513D01*
X158610358Y-119119500D01*
X158421066Y-119119500D01*
X158406891Y-119122513D01*
X158235909Y-119158855D01*
X158235904Y-119158857D01*
X158062982Y-119235848D01*
X157992881Y-119286779D01*
X157927074Y-119310258D01*
X157859020Y-119294432D01*
X157847113Y-119286779D01*
X157797519Y-119250747D01*
X157777013Y-119235848D01*
X157604091Y-119158857D01*
X157604086Y-119158855D01*
X157433105Y-119122513D01*
X157418930Y-119119500D01*
X157229638Y-119119500D01*
X157215463Y-119122513D01*
X157044481Y-119158855D01*
X157044476Y-119158857D01*
X156871554Y-119235848D01*
X156871549Y-119235851D01*
X156801455Y-119286778D01*
X156735649Y-119310258D01*
X156667595Y-119294432D01*
X156655685Y-119286778D01*
X156585590Y-119235851D01*
X156585585Y-119235848D01*
X156412663Y-119158857D01*
X156412658Y-119158855D01*
X156241677Y-119122513D01*
X156227502Y-119119500D01*
X156038210Y-119119500D01*
X156024035Y-119122513D01*
X155853053Y-119158855D01*
X155853048Y-119158857D01*
X155680126Y-119235848D01*
X155680121Y-119235851D01*
X155526985Y-119347111D01*
X155400322Y-119487785D01*
X155305677Y-119651715D01*
X155305674Y-119651722D01*
X155247183Y-119831740D01*
X155247182Y-119831744D01*
X155239279Y-119906938D01*
X155212694Y-119971552D01*
X155155396Y-120011536D01*
X155085577Y-120014196D01*
X155031617Y-119984873D01*
X154958221Y-119916771D01*
X154943799Y-119906938D01*
X154747634Y-119773195D01*
X154747630Y-119773193D01*
X154747627Y-119773191D01*
X154747626Y-119773190D01*
X154518006Y-119662612D01*
X154518008Y-119662612D01*
X154274466Y-119587489D01*
X154274462Y-119587488D01*
X154274458Y-119587487D01*
X154143746Y-119567785D01*
X154022440Y-119549500D01*
X154022435Y-119549500D01*
X153767565Y-119549500D01*
X153767559Y-119549500D01*
X153610609Y-119573157D01*
X153515542Y-119587487D01*
X153515538Y-119587488D01*
X153515539Y-119587488D01*
X153515533Y-119587489D01*
X153271995Y-119662611D01*
X153251083Y-119672682D01*
X153158299Y-119717364D01*
X153089359Y-119728716D01*
X153025225Y-119700994D01*
X152986259Y-119642998D01*
X152980499Y-119605644D01*
X152980499Y-117814356D01*
X153000184Y-117747317D01*
X153052988Y-117701562D01*
X153122146Y-117691618D01*
X153158298Y-117702635D01*
X153271996Y-117757389D01*
X153515542Y-117832513D01*
X153767565Y-117870500D01*
X154022435Y-117870500D01*
X154274458Y-117832513D01*
X154518004Y-117757389D01*
X154747634Y-117646805D01*
X154958217Y-117503232D01*
X154994033Y-117470000D01*
X155835968Y-117470000D01*
X155855754Y-117658256D01*
X155855755Y-117658259D01*
X155914246Y-117838277D01*
X155914249Y-117838284D01*
X156008895Y-118002216D01*
X156085999Y-118087848D01*
X156135557Y-118142888D01*
X156288693Y-118254148D01*
X156288698Y-118254151D01*
X156461620Y-118331142D01*
X156461625Y-118331144D01*
X156646782Y-118370500D01*
X156646783Y-118370500D01*
X156836072Y-118370500D01*
X156836074Y-118370500D01*
X157021231Y-118331144D01*
X157194158Y-118254151D01*
X157264256Y-118203221D01*
X157330060Y-118179741D01*
X157398115Y-118195566D01*
X157410026Y-118203221D01*
X157480121Y-118254148D01*
X157480126Y-118254151D01*
X157653048Y-118331142D01*
X157653053Y-118331144D01*
X157838210Y-118370500D01*
X157838211Y-118370500D01*
X158027500Y-118370500D01*
X158027502Y-118370500D01*
X158212659Y-118331144D01*
X158385586Y-118254151D01*
X158455686Y-118203220D01*
X158521490Y-118179741D01*
X158589544Y-118195566D01*
X158601446Y-118203214D01*
X158664628Y-118249119D01*
X158671554Y-118254151D01*
X158844476Y-118331142D01*
X158844481Y-118331144D01*
X159029638Y-118370500D01*
X159029639Y-118370500D01*
X159218928Y-118370500D01*
X159218930Y-118370500D01*
X159404087Y-118331144D01*
X159577014Y-118254151D01*
X159647114Y-118203220D01*
X159712918Y-118179741D01*
X159780972Y-118195566D01*
X159792874Y-118203214D01*
X159856056Y-118249119D01*
X159862982Y-118254151D01*
X160035904Y-118331142D01*
X160035909Y-118331144D01*
X160221066Y-118370500D01*
X160221067Y-118370500D01*
X160410356Y-118370500D01*
X160410358Y-118370500D01*
X160595515Y-118331144D01*
X160768442Y-118254151D01*
X160838542Y-118203220D01*
X160904346Y-118179741D01*
X160972400Y-118195566D01*
X160984302Y-118203214D01*
X161047484Y-118249119D01*
X161054410Y-118254151D01*
X161227332Y-118331142D01*
X161227337Y-118331144D01*
X161412494Y-118370500D01*
X161412495Y-118370500D01*
X161601784Y-118370500D01*
X161601786Y-118370500D01*
X161786943Y-118331144D01*
X161959870Y-118254151D01*
X162029969Y-118203220D01*
X162095772Y-118179741D01*
X162163827Y-118195566D01*
X162175738Y-118203221D01*
X162245833Y-118254148D01*
X162245838Y-118254151D01*
X162418760Y-118331142D01*
X162418765Y-118331144D01*
X162603922Y-118370500D01*
X162603923Y-118370500D01*
X162793212Y-118370500D01*
X162793214Y-118370500D01*
X162978371Y-118331144D01*
X163151298Y-118254151D01*
X163221399Y-118203219D01*
X163287205Y-118179740D01*
X163355259Y-118195565D01*
X163367163Y-118203215D01*
X163398028Y-118225640D01*
X163437270Y-118254151D01*
X163610192Y-118331142D01*
X163610197Y-118331144D01*
X163795354Y-118370500D01*
X163795355Y-118370500D01*
X163984644Y-118370500D01*
X163984646Y-118370500D01*
X164169803Y-118331144D01*
X164317094Y-118265565D01*
X164342728Y-118254152D01*
X164342728Y-118254151D01*
X164342730Y-118254151D01*
X164349649Y-118249123D01*
X164415453Y-118225640D01*
X164483508Y-118241460D01*
X164495416Y-118249112D01*
X164568225Y-118302011D01*
X164598698Y-118324151D01*
X164771620Y-118401142D01*
X164771625Y-118401144D01*
X164956782Y-118440500D01*
X164956783Y-118440500D01*
X165146072Y-118440500D01*
X165146074Y-118440500D01*
X165331231Y-118401144D01*
X165504158Y-118324151D01*
X165574258Y-118273220D01*
X165640062Y-118249741D01*
X165708116Y-118265566D01*
X165720018Y-118273214D01*
X165759653Y-118302011D01*
X165790126Y-118324151D01*
X165963048Y-118401142D01*
X165963053Y-118401144D01*
X166148210Y-118440500D01*
X166148211Y-118440500D01*
X166337500Y-118440500D01*
X166337502Y-118440500D01*
X166522659Y-118401144D01*
X166695586Y-118324151D01*
X166765684Y-118273221D01*
X166831488Y-118249741D01*
X166899543Y-118265566D01*
X166911454Y-118273221D01*
X166981549Y-118324148D01*
X166981554Y-118324151D01*
X167154476Y-118401142D01*
X167154481Y-118401144D01*
X167339638Y-118440500D01*
X167339639Y-118440500D01*
X167528928Y-118440500D01*
X167528930Y-118440500D01*
X167714087Y-118401144D01*
X167887014Y-118324151D01*
X167957114Y-118273220D01*
X168022918Y-118249741D01*
X168090972Y-118265566D01*
X168102874Y-118273214D01*
X168142509Y-118302011D01*
X168172982Y-118324151D01*
X168345904Y-118401142D01*
X168345909Y-118401144D01*
X168531066Y-118440500D01*
X168531067Y-118440500D01*
X168720356Y-118440500D01*
X168720358Y-118440500D01*
X168905515Y-118401144D01*
X169078442Y-118324151D01*
X169148541Y-118273220D01*
X169214344Y-118249741D01*
X169282399Y-118265566D01*
X169294310Y-118273221D01*
X169364405Y-118324148D01*
X169364410Y-118324151D01*
X169537332Y-118401142D01*
X169537337Y-118401144D01*
X169722494Y-118440500D01*
X169722495Y-118440500D01*
X169911784Y-118440500D01*
X169911786Y-118440500D01*
X170096943Y-118401144D01*
X170269870Y-118324151D01*
X170339970Y-118273220D01*
X170405774Y-118249741D01*
X170473828Y-118265566D01*
X170485730Y-118273214D01*
X170525365Y-118302011D01*
X170555838Y-118324151D01*
X170728760Y-118401142D01*
X170728765Y-118401144D01*
X170913922Y-118440500D01*
X170913923Y-118440500D01*
X171103212Y-118440500D01*
X171103214Y-118440500D01*
X171288371Y-118401144D01*
X171461298Y-118324151D01*
X171531399Y-118273219D01*
X171597205Y-118249740D01*
X171665259Y-118265565D01*
X171677163Y-118273215D01*
X171716797Y-118302011D01*
X171747270Y-118324151D01*
X171920192Y-118401142D01*
X171920197Y-118401144D01*
X172105354Y-118440500D01*
X172105355Y-118440500D01*
X172294644Y-118440500D01*
X172294646Y-118440500D01*
X172479803Y-118401144D01*
X172652730Y-118324151D01*
X172805871Y-118212888D01*
X172932533Y-118072216D01*
X173027179Y-117908284D01*
X173085674Y-117728256D01*
X173105460Y-117540000D01*
X173085674Y-117351744D01*
X173027179Y-117171716D01*
X172932533Y-117007784D01*
X172805871Y-116867112D01*
X172795715Y-116859733D01*
X172652734Y-116755851D01*
X172652729Y-116755848D01*
X172479807Y-116678857D01*
X172479802Y-116678855D01*
X172316513Y-116644148D01*
X172294646Y-116639500D01*
X172105354Y-116639500D01*
X172083487Y-116644148D01*
X171920197Y-116678855D01*
X171920192Y-116678857D01*
X171747270Y-116755848D01*
X171747267Y-116755850D01*
X171677166Y-116806780D01*
X171611359Y-116830258D01*
X171543306Y-116814431D01*
X171531399Y-116806779D01*
X171461301Y-116755850D01*
X171461297Y-116755848D01*
X171288375Y-116678857D01*
X171288370Y-116678855D01*
X171125081Y-116644148D01*
X171103214Y-116639500D01*
X170913922Y-116639500D01*
X170892055Y-116644148D01*
X170728765Y-116678855D01*
X170728760Y-116678857D01*
X170555838Y-116755848D01*
X170555833Y-116755851D01*
X170485739Y-116806778D01*
X170419933Y-116830258D01*
X170351879Y-116814432D01*
X170339969Y-116806778D01*
X170269874Y-116755851D01*
X170269869Y-116755848D01*
X170096947Y-116678857D01*
X170096942Y-116678855D01*
X169933653Y-116644148D01*
X169911786Y-116639500D01*
X169722494Y-116639500D01*
X169700627Y-116644148D01*
X169537337Y-116678855D01*
X169537332Y-116678857D01*
X169364410Y-116755848D01*
X169364405Y-116755851D01*
X169294311Y-116806778D01*
X169228505Y-116830258D01*
X169160451Y-116814432D01*
X169148541Y-116806778D01*
X169078446Y-116755851D01*
X169078441Y-116755848D01*
X168905519Y-116678857D01*
X168905514Y-116678855D01*
X168742225Y-116644148D01*
X168720358Y-116639500D01*
X168531066Y-116639500D01*
X168509199Y-116644148D01*
X168345909Y-116678855D01*
X168345904Y-116678857D01*
X168172982Y-116755848D01*
X168172977Y-116755851D01*
X168102883Y-116806778D01*
X168037077Y-116830258D01*
X167969023Y-116814432D01*
X167957113Y-116806778D01*
X167887018Y-116755851D01*
X167887013Y-116755848D01*
X167714091Y-116678857D01*
X167714086Y-116678855D01*
X167550797Y-116644148D01*
X167528930Y-116639500D01*
X167339638Y-116639500D01*
X167317771Y-116644148D01*
X167154481Y-116678855D01*
X167154476Y-116678857D01*
X166981554Y-116755848D01*
X166981549Y-116755851D01*
X166911455Y-116806778D01*
X166845649Y-116830258D01*
X166777595Y-116814432D01*
X166765685Y-116806778D01*
X166695590Y-116755851D01*
X166695585Y-116755848D01*
X166535755Y-116684686D01*
X166482518Y-116639436D01*
X166462197Y-116572586D01*
X166481243Y-116505363D01*
X166533609Y-116459108D01*
X166560399Y-116450119D01*
X166637687Y-116433692D01*
X166637691Y-116433690D01*
X166637692Y-116433690D01*
X166733935Y-116390839D01*
X166810614Y-116356699D01*
X166963755Y-116245436D01*
X167090417Y-116104764D01*
X167185063Y-115940832D01*
X167243558Y-115760804D01*
X167263344Y-115572548D01*
X167249718Y-115442904D01*
X171513295Y-115442904D01*
X171533081Y-115631160D01*
X171533082Y-115631163D01*
X171591573Y-115811181D01*
X171591576Y-115811188D01*
X171686222Y-115975120D01*
X171752077Y-116048259D01*
X171812884Y-116115792D01*
X171966020Y-116227052D01*
X171966025Y-116227055D01*
X172138947Y-116304046D01*
X172138952Y-116304048D01*
X172324109Y-116343404D01*
X172324110Y-116343404D01*
X172513399Y-116343404D01*
X172513401Y-116343404D01*
X172698558Y-116304048D01*
X172871485Y-116227055D01*
X173024626Y-116115792D01*
X173151288Y-115975120D01*
X173217752Y-115860000D01*
X173564540Y-115860000D01*
X173584326Y-116048256D01*
X173584327Y-116048259D01*
X173642818Y-116228277D01*
X173642821Y-116228284D01*
X173737467Y-116392216D01*
X173837117Y-116502888D01*
X173864129Y-116532888D01*
X174017265Y-116644148D01*
X174017270Y-116644151D01*
X174190192Y-116721142D01*
X174190197Y-116721144D01*
X174375354Y-116760500D01*
X174375355Y-116760500D01*
X174564644Y-116760500D01*
X174564646Y-116760500D01*
X174749803Y-116721144D01*
X174922730Y-116644151D01*
X175075871Y-116532888D01*
X175202533Y-116392216D01*
X175297179Y-116228284D01*
X175355674Y-116048256D01*
X175375460Y-115860000D01*
X175372307Y-115830000D01*
X178454540Y-115830000D01*
X178474326Y-116018256D01*
X178474327Y-116018259D01*
X178532818Y-116198277D01*
X178532821Y-116198284D01*
X178627467Y-116362216D01*
X178706613Y-116450116D01*
X178754129Y-116502888D01*
X178907265Y-116614148D01*
X178907270Y-116614151D01*
X179080192Y-116691142D01*
X179080197Y-116691144D01*
X179265354Y-116730500D01*
X179265355Y-116730500D01*
X179454644Y-116730500D01*
X179454646Y-116730500D01*
X179639803Y-116691144D01*
X179812730Y-116614151D01*
X179965871Y-116502888D01*
X180092533Y-116362216D01*
X180187179Y-116198284D01*
X180245674Y-116018256D01*
X180265460Y-115830000D01*
X180245674Y-115641744D01*
X180222363Y-115570000D01*
X181974540Y-115570000D01*
X181994326Y-115758256D01*
X181994327Y-115758259D01*
X182052818Y-115938277D01*
X182052821Y-115938284D01*
X182147467Y-116102216D01*
X182274128Y-116242887D01*
X182274129Y-116242888D01*
X182427265Y-116354148D01*
X182427270Y-116354151D01*
X182600192Y-116431142D01*
X182600197Y-116431144D01*
X182785354Y-116470500D01*
X182785355Y-116470500D01*
X182974644Y-116470500D01*
X182974646Y-116470500D01*
X183159803Y-116431144D01*
X183332730Y-116354151D01*
X183485871Y-116242888D01*
X183612533Y-116102216D01*
X183707179Y-115938284D01*
X183765674Y-115758256D01*
X183785460Y-115570000D01*
X183765674Y-115381744D01*
X183707179Y-115201716D01*
X183612533Y-115037784D01*
X183485871Y-114897112D01*
X183470171Y-114885705D01*
X183332734Y-114785851D01*
X183332729Y-114785848D01*
X183159807Y-114708857D01*
X183159802Y-114708855D01*
X183106139Y-114697449D01*
X186065867Y-114697449D01*
X186085653Y-114885705D01*
X186085654Y-114885708D01*
X186144145Y-115065726D01*
X186144148Y-115065733D01*
X186238794Y-115229665D01*
X186319655Y-115319470D01*
X186365456Y-115370337D01*
X186518592Y-115481597D01*
X186518597Y-115481600D01*
X186691519Y-115558591D01*
X186691524Y-115558593D01*
X186876681Y-115597949D01*
X186876682Y-115597949D01*
X187065971Y-115597949D01*
X187065973Y-115597949D01*
X187251130Y-115558593D01*
X187424057Y-115481600D01*
X187577198Y-115370337D01*
X187703860Y-115229665D01*
X187798506Y-115065733D01*
X187857001Y-114885705D01*
X187876787Y-114697449D01*
X187857001Y-114509193D01*
X187798506Y-114329165D01*
X187703860Y-114165233D01*
X187577198Y-114024561D01*
X187577197Y-114024560D01*
X187424061Y-113913300D01*
X187424056Y-113913297D01*
X187251134Y-113836306D01*
X187251129Y-113836304D01*
X187105328Y-113805314D01*
X187065973Y-113796949D01*
X186876681Y-113796949D01*
X186844224Y-113803847D01*
X186691524Y-113836304D01*
X186691519Y-113836306D01*
X186518597Y-113913297D01*
X186518592Y-113913300D01*
X186365456Y-114024560D01*
X186238793Y-114165234D01*
X186144148Y-114329164D01*
X186144145Y-114329171D01*
X186085654Y-114509189D01*
X186085653Y-114509193D01*
X186075350Y-114607226D01*
X186066315Y-114693191D01*
X186065867Y-114697449D01*
X183106139Y-114697449D01*
X182986633Y-114672048D01*
X182974646Y-114669500D01*
X182785354Y-114669500D01*
X182773367Y-114672048D01*
X182600197Y-114708855D01*
X182600192Y-114708857D01*
X182427270Y-114785848D01*
X182427265Y-114785851D01*
X182274129Y-114897111D01*
X182147466Y-115037785D01*
X182052821Y-115201715D01*
X182052818Y-115201722D01*
X182011858Y-115327785D01*
X181994326Y-115381744D01*
X181974540Y-115570000D01*
X180222363Y-115570000D01*
X180187179Y-115461716D01*
X180092533Y-115297784D01*
X179965871Y-115157112D01*
X179948091Y-115144194D01*
X179812734Y-115045851D01*
X179812729Y-115045848D01*
X179639807Y-114968857D01*
X179639802Y-114968855D01*
X179494001Y-114937865D01*
X179454646Y-114929500D01*
X179265354Y-114929500D01*
X179232897Y-114936398D01*
X179080197Y-114968855D01*
X179080192Y-114968857D01*
X178907270Y-115045848D01*
X178907265Y-115045851D01*
X178754129Y-115157111D01*
X178627466Y-115297785D01*
X178532821Y-115461715D01*
X178532818Y-115461722D01*
X178477765Y-115631160D01*
X178474326Y-115641744D01*
X178454540Y-115830000D01*
X175372307Y-115830000D01*
X175355674Y-115671744D01*
X175297179Y-115491716D01*
X175202533Y-115327784D01*
X175075871Y-115187112D01*
X175075870Y-115187111D01*
X174922734Y-115075851D01*
X174922729Y-115075848D01*
X174749807Y-114998857D01*
X174749802Y-114998855D01*
X174604001Y-114967865D01*
X174564646Y-114959500D01*
X174375354Y-114959500D01*
X174342897Y-114966398D01*
X174190197Y-114998855D01*
X174190192Y-114998857D01*
X174017270Y-115075848D01*
X174017265Y-115075851D01*
X173864129Y-115187111D01*
X173737466Y-115327785D01*
X173642821Y-115491715D01*
X173642818Y-115491722D01*
X173584327Y-115671740D01*
X173584326Y-115671744D01*
X173564540Y-115860000D01*
X173217752Y-115860000D01*
X173245934Y-115811188D01*
X173304429Y-115631160D01*
X173324215Y-115442904D01*
X173304429Y-115254648D01*
X173245934Y-115074620D01*
X173151288Y-114910688D01*
X173024626Y-114770016D01*
X173024625Y-114770015D01*
X172871489Y-114658755D01*
X172871484Y-114658752D01*
X172698562Y-114581761D01*
X172698557Y-114581759D01*
X172552755Y-114550769D01*
X172513401Y-114542404D01*
X172324109Y-114542404D01*
X172291652Y-114549302D01*
X172138952Y-114581759D01*
X172138947Y-114581761D01*
X171966025Y-114658752D01*
X171966020Y-114658755D01*
X171812884Y-114770015D01*
X171686221Y-114910689D01*
X171591576Y-115074619D01*
X171591573Y-115074626D01*
X171533082Y-115254644D01*
X171533081Y-115254648D01*
X171513295Y-115442904D01*
X167249718Y-115442904D01*
X167243558Y-115384292D01*
X167185063Y-115204264D01*
X167090417Y-115040332D01*
X166963755Y-114899660D01*
X166944548Y-114885705D01*
X166810618Y-114788399D01*
X166810613Y-114788396D01*
X166637691Y-114711405D01*
X166637686Y-114711403D01*
X166491885Y-114680413D01*
X166452530Y-114672048D01*
X166263238Y-114672048D01*
X166230781Y-114678946D01*
X166078081Y-114711403D01*
X166078076Y-114711405D01*
X165905154Y-114788396D01*
X165905149Y-114788399D01*
X165752013Y-114899659D01*
X165625350Y-115040333D01*
X165530705Y-115204263D01*
X165530702Y-115204270D01*
X165490570Y-115327785D01*
X165472210Y-115384292D01*
X165452424Y-115572548D01*
X165472210Y-115760804D01*
X165472211Y-115760807D01*
X165530702Y-115940825D01*
X165530705Y-115940832D01*
X165625351Y-116104764D01*
X165684090Y-116170000D01*
X165752013Y-116245436D01*
X165905149Y-116356696D01*
X165905154Y-116356699D01*
X166064984Y-116427861D01*
X166118221Y-116473111D01*
X166138542Y-116539960D01*
X166119497Y-116607184D01*
X166067130Y-116653439D01*
X166040329Y-116662430D01*
X165963053Y-116678855D01*
X165963048Y-116678857D01*
X165790126Y-116755848D01*
X165790121Y-116755851D01*
X165720027Y-116806778D01*
X165654221Y-116830258D01*
X165586167Y-116814432D01*
X165574257Y-116806778D01*
X165504162Y-116755851D01*
X165504157Y-116755848D01*
X165331235Y-116678857D01*
X165331230Y-116678855D01*
X165167941Y-116644148D01*
X165146074Y-116639500D01*
X164956782Y-116639500D01*
X164934915Y-116644148D01*
X164771625Y-116678855D01*
X164771620Y-116678857D01*
X164598698Y-116755848D01*
X164591766Y-116760885D01*
X164525958Y-116784360D01*
X164457905Y-116768531D01*
X164446002Y-116760880D01*
X164342734Y-116685851D01*
X164342729Y-116685848D01*
X164169807Y-116608857D01*
X164169802Y-116608855D01*
X164024001Y-116577865D01*
X163984646Y-116569500D01*
X163795354Y-116569500D01*
X163762897Y-116576398D01*
X163610197Y-116608855D01*
X163610192Y-116608857D01*
X163437270Y-116685848D01*
X163437266Y-116685851D01*
X163367168Y-116736779D01*
X163301361Y-116760258D01*
X163233307Y-116744432D01*
X163221400Y-116736779D01*
X163151301Y-116685851D01*
X163151297Y-116685848D01*
X162978375Y-116608857D01*
X162978370Y-116608855D01*
X162875012Y-116586886D01*
X162813530Y-116553693D01*
X162779754Y-116492530D01*
X162784406Y-116422816D01*
X162826011Y-116366684D01*
X162850346Y-116352322D01*
X162986107Y-116291877D01*
X163139248Y-116180614D01*
X163265910Y-116039942D01*
X163360556Y-115876010D01*
X163419051Y-115695982D01*
X163438837Y-115507726D01*
X163419051Y-115319470D01*
X163360556Y-115139442D01*
X163265910Y-114975510D01*
X163139248Y-114834838D01*
X163139247Y-114834837D01*
X162986111Y-114723577D01*
X162986106Y-114723574D01*
X162813184Y-114646583D01*
X162813179Y-114646581D01*
X162667378Y-114615591D01*
X162628023Y-114607226D01*
X162438731Y-114607226D01*
X162406274Y-114614124D01*
X162253574Y-114646581D01*
X162253569Y-114646583D01*
X162080647Y-114723574D01*
X162080642Y-114723577D01*
X161927506Y-114834837D01*
X161800843Y-114975511D01*
X161706198Y-115139441D01*
X161706195Y-115139448D01*
X161668766Y-115254644D01*
X161647703Y-115319470D01*
X161627917Y-115507726D01*
X161647703Y-115695982D01*
X161647704Y-115695985D01*
X161706195Y-115876003D01*
X161706198Y-115876010D01*
X161800844Y-116039942D01*
X161869140Y-116115792D01*
X161927506Y-116180614D01*
X162080642Y-116291874D01*
X162080647Y-116291877D01*
X162253569Y-116368868D01*
X162253570Y-116368868D01*
X162253574Y-116368870D01*
X162356931Y-116390839D01*
X162418413Y-116424031D01*
X162452190Y-116485194D01*
X162447538Y-116554908D01*
X162405934Y-116611041D01*
X162381588Y-116625408D01*
X162245835Y-116685850D01*
X162245833Y-116685851D01*
X162175739Y-116736778D01*
X162109933Y-116760258D01*
X162041879Y-116744432D01*
X162029969Y-116736778D01*
X161959874Y-116685851D01*
X161959869Y-116685848D01*
X161786947Y-116608857D01*
X161786942Y-116608855D01*
X161641141Y-116577865D01*
X161601786Y-116569500D01*
X161412494Y-116569500D01*
X161380037Y-116576398D01*
X161227337Y-116608855D01*
X161227332Y-116608857D01*
X161054410Y-116685848D01*
X161054405Y-116685851D01*
X160984311Y-116736778D01*
X160918505Y-116760258D01*
X160850451Y-116744432D01*
X160838541Y-116736778D01*
X160768446Y-116685851D01*
X160768441Y-116685848D01*
X160595519Y-116608857D01*
X160595514Y-116608855D01*
X160449713Y-116577865D01*
X160410358Y-116569500D01*
X160221066Y-116569500D01*
X160188609Y-116576398D01*
X160035909Y-116608855D01*
X160035904Y-116608857D01*
X159862982Y-116685848D01*
X159862978Y-116685850D01*
X159792881Y-116736779D01*
X159727075Y-116760258D01*
X159659021Y-116744432D01*
X159647123Y-116736785D01*
X159577017Y-116685851D01*
X159577013Y-116685848D01*
X159404091Y-116608857D01*
X159404086Y-116608855D01*
X159258285Y-116577865D01*
X159218930Y-116569500D01*
X159029638Y-116569500D01*
X158997181Y-116576398D01*
X158844481Y-116608855D01*
X158844476Y-116608857D01*
X158671554Y-116685848D01*
X158671549Y-116685851D01*
X158601455Y-116736778D01*
X158535649Y-116760258D01*
X158467595Y-116744432D01*
X158455685Y-116736778D01*
X158385590Y-116685851D01*
X158385585Y-116685848D01*
X158212663Y-116608857D01*
X158212658Y-116608855D01*
X158066856Y-116577865D01*
X158027502Y-116569500D01*
X157838210Y-116569500D01*
X157805753Y-116576398D01*
X157653053Y-116608855D01*
X157653048Y-116608857D01*
X157480126Y-116685848D01*
X157480121Y-116685851D01*
X157410027Y-116736778D01*
X157344221Y-116760258D01*
X157276167Y-116744432D01*
X157264257Y-116736778D01*
X157194162Y-116685851D01*
X157194157Y-116685848D01*
X157021235Y-116608857D01*
X157021230Y-116608855D01*
X156875428Y-116577865D01*
X156836074Y-116569500D01*
X156646782Y-116569500D01*
X156614325Y-116576398D01*
X156461625Y-116608855D01*
X156461620Y-116608857D01*
X156288698Y-116685848D01*
X156288693Y-116685851D01*
X156135557Y-116797111D01*
X156008894Y-116937785D01*
X155914249Y-117101715D01*
X155914246Y-117101722D01*
X155880415Y-117205845D01*
X155855754Y-117281744D01*
X155848397Y-117351744D01*
X155837020Y-117459995D01*
X155835968Y-117470000D01*
X154994033Y-117470000D01*
X155145050Y-117329877D01*
X155303959Y-117130612D01*
X155431393Y-116909888D01*
X155524508Y-116672637D01*
X155581222Y-116424157D01*
X155595901Y-116228277D01*
X155600268Y-116170004D01*
X155600268Y-116169995D01*
X155581222Y-115915845D01*
X155572128Y-115876003D01*
X155524508Y-115667363D01*
X155431393Y-115430112D01*
X155303959Y-115209388D01*
X155145050Y-115010123D01*
X154958217Y-114836768D01*
X154747634Y-114693195D01*
X154747630Y-114693193D01*
X154747627Y-114693191D01*
X154747626Y-114693190D01*
X154518006Y-114582612D01*
X154518008Y-114582612D01*
X154274466Y-114507489D01*
X154274462Y-114507488D01*
X154274458Y-114507487D01*
X154153231Y-114489214D01*
X154022440Y-114469500D01*
X154022435Y-114469500D01*
X153767565Y-114469500D01*
X153767559Y-114469500D01*
X153610609Y-114493157D01*
X153515542Y-114507487D01*
X153515538Y-114507488D01*
X153515539Y-114507488D01*
X153515533Y-114507489D01*
X153271992Y-114582612D01*
X153042373Y-114693190D01*
X153042372Y-114693191D01*
X152831782Y-114836768D01*
X152644952Y-115010121D01*
X152644950Y-115010123D01*
X152486041Y-115209388D01*
X152358608Y-115430109D01*
X152265492Y-115667362D01*
X152265490Y-115667369D01*
X152208777Y-115915845D01*
X152189732Y-116169995D01*
X152189732Y-116170004D01*
X152208777Y-116424154D01*
X152258989Y-116644148D01*
X152265492Y-116672637D01*
X152338922Y-116859733D01*
X152360302Y-116914206D01*
X152358433Y-116914939D01*
X152368420Y-116975664D01*
X152340685Y-117039793D01*
X152282682Y-117078747D01*
X152245351Y-117084500D01*
X150464649Y-117084500D01*
X150397610Y-117064815D01*
X150351855Y-117012011D01*
X150341911Y-116942853D01*
X150350542Y-116914538D01*
X150349698Y-116914207D01*
X150368182Y-116867111D01*
X150444508Y-116672637D01*
X150501222Y-116424157D01*
X150515901Y-116228277D01*
X150520268Y-116170004D01*
X150520268Y-116169995D01*
X150501222Y-115915845D01*
X150492128Y-115876003D01*
X150444508Y-115667363D01*
X150351393Y-115430112D01*
X150223959Y-115209388D01*
X150065050Y-115010123D01*
X149878217Y-114836768D01*
X149667634Y-114693195D01*
X149667630Y-114693193D01*
X149667627Y-114693191D01*
X149667626Y-114693190D01*
X149438006Y-114582612D01*
X149438008Y-114582612D01*
X149194466Y-114507489D01*
X149194462Y-114507488D01*
X149194458Y-114507487D01*
X149073231Y-114489214D01*
X148942440Y-114469500D01*
X148942435Y-114469500D01*
X148687565Y-114469500D01*
X148687559Y-114469500D01*
X148530609Y-114493157D01*
X148435542Y-114507487D01*
X148435538Y-114507488D01*
X148435539Y-114507488D01*
X148435533Y-114507489D01*
X148191992Y-114582612D01*
X147962373Y-114693190D01*
X147962372Y-114693191D01*
X147751782Y-114836768D01*
X147564952Y-115010121D01*
X147564950Y-115010123D01*
X147406041Y-115209388D01*
X147278608Y-115430109D01*
X147185492Y-115667362D01*
X147185490Y-115667369D01*
X147128777Y-115915845D01*
X147109732Y-116169995D01*
X147109732Y-116170004D01*
X147128777Y-116424154D01*
X147178989Y-116644148D01*
X147185492Y-116672637D01*
X147258922Y-116859733D01*
X147278608Y-116909890D01*
X147281292Y-116914538D01*
X147406041Y-117130612D01*
X147564950Y-117329877D01*
X147751783Y-117503232D01*
X147962366Y-117646805D01*
X147962371Y-117646807D01*
X147962372Y-117646808D01*
X147962373Y-117646809D01*
X148055421Y-117691618D01*
X148191992Y-117757387D01*
X148191993Y-117757387D01*
X148191996Y-117757389D01*
X148435542Y-117832513D01*
X148687565Y-117870500D01*
X148942435Y-117870500D01*
X149194458Y-117832513D01*
X149438004Y-117757389D01*
X149551700Y-117702635D01*
X149620639Y-117691284D01*
X149684774Y-117719006D01*
X149723740Y-117777001D01*
X149729500Y-117814356D01*
X149729500Y-119605643D01*
X149709815Y-119672682D01*
X149657011Y-119718437D01*
X149587853Y-119728381D01*
X149551699Y-119717363D01*
X149438006Y-119662612D01*
X149438008Y-119662612D01*
X149194466Y-119587489D01*
X149194462Y-119587488D01*
X149194458Y-119587487D01*
X149063746Y-119567785D01*
X148942440Y-119549500D01*
X148942435Y-119549500D01*
X148687565Y-119549500D01*
X148687559Y-119549500D01*
X148530609Y-119573157D01*
X148435542Y-119587487D01*
X148435538Y-119587488D01*
X148435539Y-119587488D01*
X148435533Y-119587489D01*
X148191992Y-119662612D01*
X147962373Y-119773190D01*
X147962372Y-119773191D01*
X147751782Y-119916768D01*
X147564952Y-120090121D01*
X147564950Y-120090123D01*
X147406041Y-120289388D01*
X147278608Y-120510109D01*
X147185492Y-120747362D01*
X147185490Y-120747369D01*
X147128777Y-120995845D01*
X147109732Y-121249995D01*
X147109732Y-121250004D01*
X146650500Y-121250004D01*
X146650500Y-111760000D01*
X147684540Y-111760000D01*
X147704326Y-111948256D01*
X147704327Y-111948259D01*
X147762818Y-112128277D01*
X147762821Y-112128284D01*
X147857467Y-112292216D01*
X147915899Y-112357111D01*
X147984129Y-112432888D01*
X148137265Y-112544148D01*
X148137270Y-112544151D01*
X148310192Y-112621142D01*
X148310197Y-112621144D01*
X148495354Y-112660500D01*
X148495355Y-112660500D01*
X148684644Y-112660500D01*
X148684646Y-112660500D01*
X148848994Y-112625567D01*
X148918661Y-112630883D01*
X148974395Y-112673020D01*
X148998500Y-112738600D01*
X148992706Y-112785174D01*
X148974327Y-112841739D01*
X148974327Y-112841740D01*
X148974326Y-112841744D01*
X148954540Y-113030000D01*
X148974326Y-113218256D01*
X148974327Y-113218259D01*
X149032818Y-113398277D01*
X149032821Y-113398284D01*
X149127467Y-113562216D01*
X149239369Y-113686495D01*
X149254129Y-113702888D01*
X149407265Y-113814148D01*
X149407270Y-113814151D01*
X149580192Y-113891142D01*
X149580197Y-113891144D01*
X149765354Y-113930500D01*
X149765355Y-113930500D01*
X149954644Y-113930500D01*
X149954646Y-113930500D01*
X150139803Y-113891144D01*
X150312730Y-113814151D01*
X150465871Y-113702888D01*
X150592533Y-113562216D01*
X150629470Y-113498239D01*
X154270603Y-113498239D01*
X154290389Y-113686495D01*
X154290390Y-113686498D01*
X154348881Y-113866516D01*
X154348884Y-113866523D01*
X154443530Y-114030455D01*
X154513207Y-114107839D01*
X154570192Y-114171127D01*
X154723328Y-114282387D01*
X154723333Y-114282390D01*
X154896255Y-114359381D01*
X154896260Y-114359383D01*
X155081417Y-114398739D01*
X155081418Y-114398739D01*
X155270707Y-114398739D01*
X155270709Y-114398739D01*
X155455866Y-114359383D01*
X155628793Y-114282390D01*
X155781934Y-114171127D01*
X155908596Y-114030455D01*
X155972608Y-113919583D01*
X158840564Y-113919583D01*
X158860350Y-114107839D01*
X158860351Y-114107842D01*
X158918842Y-114287860D01*
X158918845Y-114287867D01*
X159013491Y-114451799D01*
X159130508Y-114581759D01*
X159140153Y-114592471D01*
X159293289Y-114703731D01*
X159293294Y-114703734D01*
X159466216Y-114780725D01*
X159466221Y-114780727D01*
X159651378Y-114820083D01*
X159651379Y-114820083D01*
X159840668Y-114820083D01*
X159840670Y-114820083D01*
X160025827Y-114780727D01*
X160198754Y-114703734D01*
X160351895Y-114592471D01*
X160478557Y-114451799D01*
X160573203Y-114287867D01*
X160587556Y-114243694D01*
X168790764Y-114243694D01*
X168810550Y-114431950D01*
X168810551Y-114431953D01*
X168869042Y-114611971D01*
X168869045Y-114611978D01*
X168963691Y-114775910D01*
X169075116Y-114899660D01*
X169090353Y-114916582D01*
X169243489Y-115027842D01*
X169243494Y-115027845D01*
X169416416Y-115104836D01*
X169416421Y-115104838D01*
X169601578Y-115144194D01*
X169601579Y-115144194D01*
X169790868Y-115144194D01*
X169790870Y-115144194D01*
X169976027Y-115104838D01*
X170148954Y-115027845D01*
X170302095Y-114916582D01*
X170428757Y-114775910D01*
X170523403Y-114611978D01*
X170581898Y-114431950D01*
X170601684Y-114243694D01*
X170581898Y-114055438D01*
X170523403Y-113875410D01*
X170428757Y-113711478D01*
X170302095Y-113570806D01*
X170290272Y-113562216D01*
X170148958Y-113459545D01*
X170148953Y-113459542D01*
X169976031Y-113382551D01*
X169976026Y-113382549D01*
X169830225Y-113351559D01*
X169790870Y-113343194D01*
X169601578Y-113343194D01*
X169569121Y-113350092D01*
X169416421Y-113382549D01*
X169416416Y-113382551D01*
X169243494Y-113459542D01*
X169243489Y-113459545D01*
X169090353Y-113570805D01*
X168963690Y-113711479D01*
X168869045Y-113875409D01*
X168869042Y-113875416D01*
X168810551Y-114055434D01*
X168810550Y-114055438D01*
X168790764Y-114243694D01*
X160587556Y-114243694D01*
X160631698Y-114107839D01*
X160651484Y-113919583D01*
X160631698Y-113731327D01*
X160573203Y-113551299D01*
X160478557Y-113387367D01*
X160351895Y-113246695D01*
X160351894Y-113246694D01*
X160198758Y-113135434D01*
X160198753Y-113135431D01*
X160025831Y-113058440D01*
X160025826Y-113058438D01*
X159880025Y-113027448D01*
X159840670Y-113019083D01*
X159651378Y-113019083D01*
X159618921Y-113025981D01*
X159466221Y-113058438D01*
X159466216Y-113058440D01*
X159293294Y-113135431D01*
X159293289Y-113135434D01*
X159140153Y-113246694D01*
X159013490Y-113387368D01*
X158918845Y-113551298D01*
X158918842Y-113551305D01*
X158869590Y-113702888D01*
X158860350Y-113731327D01*
X158840564Y-113919583D01*
X155972608Y-113919583D01*
X156003242Y-113866523D01*
X156061737Y-113686495D01*
X156081523Y-113498239D01*
X156061737Y-113309983D01*
X156003242Y-113129955D01*
X155935183Y-113012073D01*
X162049261Y-113012073D01*
X162069047Y-113200329D01*
X162069048Y-113200332D01*
X162127539Y-113380350D01*
X162127542Y-113380357D01*
X162222188Y-113544289D01*
X162348849Y-113684961D01*
X162348850Y-113684961D01*
X162501986Y-113796221D01*
X162501991Y-113796224D01*
X162674913Y-113873215D01*
X162674918Y-113873217D01*
X162860075Y-113912573D01*
X162860076Y-113912573D01*
X163049365Y-113912573D01*
X163049367Y-113912573D01*
X163234524Y-113873217D01*
X163407451Y-113796224D01*
X163560592Y-113684961D01*
X163687254Y-113544289D01*
X163781900Y-113380357D01*
X163840395Y-113200329D01*
X163860181Y-113012073D01*
X163840395Y-112823817D01*
X163781900Y-112643789D01*
X163687254Y-112479857D01*
X163560592Y-112339185D01*
X163556433Y-112336163D01*
X163407455Y-112227924D01*
X163407450Y-112227921D01*
X163234528Y-112150930D01*
X163234523Y-112150928D01*
X163088721Y-112119938D01*
X163049367Y-112111573D01*
X162860075Y-112111573D01*
X162834646Y-112116978D01*
X162674918Y-112150928D01*
X162674913Y-112150930D01*
X162501991Y-112227921D01*
X162501986Y-112227924D01*
X162348850Y-112339184D01*
X162222187Y-112479858D01*
X162127542Y-112643788D01*
X162127539Y-112643795D01*
X162069048Y-112823813D01*
X162069047Y-112823817D01*
X162049261Y-113012073D01*
X155935183Y-113012073D01*
X155908596Y-112966023D01*
X155781934Y-112825351D01*
X155779823Y-112823817D01*
X155628797Y-112714090D01*
X155628792Y-112714087D01*
X155455870Y-112637096D01*
X155455865Y-112637094D01*
X155310064Y-112606104D01*
X155270709Y-112597739D01*
X155081417Y-112597739D01*
X155048960Y-112604637D01*
X154896260Y-112637094D01*
X154896255Y-112637096D01*
X154723333Y-112714087D01*
X154723328Y-112714090D01*
X154570192Y-112825350D01*
X154443529Y-112966024D01*
X154348884Y-113129954D01*
X154348881Y-113129961D01*
X154290390Y-113309979D01*
X154290389Y-113309983D01*
X154270603Y-113498239D01*
X150629470Y-113498239D01*
X150687179Y-113398284D01*
X150745674Y-113218256D01*
X150765460Y-113030000D01*
X150745674Y-112841744D01*
X150687179Y-112661716D01*
X150592533Y-112497784D01*
X150465871Y-112357112D01*
X150446727Y-112343203D01*
X150312734Y-112245851D01*
X150312729Y-112245848D01*
X150139807Y-112168857D01*
X150139802Y-112168855D01*
X149994001Y-112137865D01*
X149954646Y-112129500D01*
X149765354Y-112129500D01*
X149664538Y-112150929D01*
X149601004Y-112164433D01*
X149531337Y-112159116D01*
X149475604Y-112116978D01*
X149451499Y-112051398D01*
X149457294Y-112004822D01*
X149475674Y-111948256D01*
X149495460Y-111760000D01*
X151494540Y-111760000D01*
X151514326Y-111948256D01*
X151514327Y-111948259D01*
X151572818Y-112128277D01*
X151572821Y-112128284D01*
X151667467Y-112292216D01*
X151725899Y-112357111D01*
X151794129Y-112432888D01*
X151947265Y-112544148D01*
X151947270Y-112544151D01*
X152120192Y-112621142D01*
X152120197Y-112621144D01*
X152305354Y-112660500D01*
X152305355Y-112660500D01*
X152494644Y-112660500D01*
X152494646Y-112660500D01*
X152679803Y-112621144D01*
X152852730Y-112544151D01*
X153005871Y-112432888D01*
X153132533Y-112292216D01*
X153227179Y-112128284D01*
X153285674Y-111948256D01*
X153305460Y-111760000D01*
X156574540Y-111760000D01*
X156594326Y-111948256D01*
X156594327Y-111948259D01*
X156652818Y-112128277D01*
X156652821Y-112128284D01*
X156747467Y-112292216D01*
X156805899Y-112357111D01*
X156874129Y-112432888D01*
X157027265Y-112544148D01*
X157027270Y-112544151D01*
X157200192Y-112621142D01*
X157200197Y-112621144D01*
X157385354Y-112660500D01*
X157385355Y-112660500D01*
X157574644Y-112660500D01*
X157574646Y-112660500D01*
X157759803Y-112621144D01*
X157932730Y-112544151D01*
X158085871Y-112432888D01*
X158212533Y-112292216D01*
X158307179Y-112128284D01*
X158365674Y-111948256D01*
X158385460Y-111760000D01*
X160384540Y-111760000D01*
X160404326Y-111948256D01*
X160404327Y-111948259D01*
X160462818Y-112128277D01*
X160462821Y-112128284D01*
X160557467Y-112292216D01*
X160615899Y-112357111D01*
X160684129Y-112432888D01*
X160837265Y-112544148D01*
X160837270Y-112544151D01*
X161010192Y-112621142D01*
X161010197Y-112621144D01*
X161195354Y-112660500D01*
X161195355Y-112660500D01*
X161384644Y-112660500D01*
X161384646Y-112660500D01*
X161569803Y-112621144D01*
X161742730Y-112544151D01*
X161895871Y-112432888D01*
X162022533Y-112292216D01*
X162117179Y-112128284D01*
X162163520Y-111985661D01*
X162202956Y-111927988D01*
X162267315Y-111900789D01*
X162302622Y-111902471D01*
X162302629Y-111902407D01*
X162303765Y-111902526D01*
X162307230Y-111902691D01*
X162309086Y-111903086D01*
X162309091Y-111903086D01*
X162498376Y-111903086D01*
X162498378Y-111903086D01*
X162683535Y-111863730D01*
X162856462Y-111786737D01*
X162893262Y-111760000D01*
X180704540Y-111760000D01*
X180724326Y-111948256D01*
X180724327Y-111948259D01*
X180782818Y-112128277D01*
X180782821Y-112128284D01*
X180877467Y-112292216D01*
X180935899Y-112357111D01*
X181004129Y-112432888D01*
X181157265Y-112544148D01*
X181157270Y-112544151D01*
X181330192Y-112621142D01*
X181330197Y-112621144D01*
X181515354Y-112660500D01*
X181515355Y-112660500D01*
X181704644Y-112660500D01*
X181704646Y-112660500D01*
X181889803Y-112621144D01*
X182062730Y-112544151D01*
X182215871Y-112432888D01*
X182342533Y-112292216D01*
X182437179Y-112128284D01*
X182495674Y-111948256D01*
X182515460Y-111760000D01*
X183244540Y-111760000D01*
X183264326Y-111948256D01*
X183264327Y-111948259D01*
X183322818Y-112128277D01*
X183322821Y-112128284D01*
X183417467Y-112292216D01*
X183475899Y-112357111D01*
X183544129Y-112432888D01*
X183697265Y-112544148D01*
X183697270Y-112544151D01*
X183870192Y-112621142D01*
X183870197Y-112621144D01*
X184055354Y-112660500D01*
X184055355Y-112660500D01*
X184244644Y-112660500D01*
X184244646Y-112660500D01*
X184429803Y-112621144D01*
X184602730Y-112544151D01*
X184755871Y-112432888D01*
X184882533Y-112292216D01*
X184977179Y-112128284D01*
X185035674Y-111948256D01*
X185055460Y-111760000D01*
X188324540Y-111760000D01*
X188344326Y-111948256D01*
X188344327Y-111948259D01*
X188402818Y-112128277D01*
X188402821Y-112128284D01*
X188497467Y-112292216D01*
X188555899Y-112357111D01*
X188624129Y-112432888D01*
X188777265Y-112544148D01*
X188777270Y-112544151D01*
X188950192Y-112621142D01*
X188950197Y-112621144D01*
X189135354Y-112660500D01*
X189135355Y-112660500D01*
X189324644Y-112660500D01*
X189324646Y-112660500D01*
X189509803Y-112621144D01*
X189682730Y-112544151D01*
X189835871Y-112432888D01*
X189962533Y-112292216D01*
X190057179Y-112128284D01*
X190107011Y-111974919D01*
X194752035Y-111974919D01*
X194771821Y-112163175D01*
X194771822Y-112163178D01*
X194830313Y-112343196D01*
X194830316Y-112343203D01*
X194924962Y-112507135D01*
X195031599Y-112625567D01*
X195051624Y-112647807D01*
X195204760Y-112759067D01*
X195204765Y-112759070D01*
X195377687Y-112836061D01*
X195377692Y-112836063D01*
X195562849Y-112875419D01*
X195562850Y-112875419D01*
X195752139Y-112875419D01*
X195752141Y-112875419D01*
X195937298Y-112836063D01*
X196110225Y-112759070D01*
X196263366Y-112647807D01*
X196390028Y-112507135D01*
X196484674Y-112343203D01*
X196543169Y-112163175D01*
X196562955Y-111974919D01*
X196543169Y-111786663D01*
X196484674Y-111606635D01*
X196390028Y-111442703D01*
X196263366Y-111302031D01*
X196263365Y-111302030D01*
X196110229Y-111190770D01*
X196110224Y-111190767D01*
X195937302Y-111113776D01*
X195937297Y-111113774D01*
X195791495Y-111082784D01*
X195752141Y-111074419D01*
X195562849Y-111074419D01*
X195530392Y-111081317D01*
X195377692Y-111113774D01*
X195377687Y-111113776D01*
X195204765Y-111190767D01*
X195204760Y-111190770D01*
X195051624Y-111302030D01*
X194924961Y-111442704D01*
X194830316Y-111606634D01*
X194830313Y-111606641D01*
X194780484Y-111760000D01*
X194771821Y-111786663D01*
X194752035Y-111974919D01*
X190107011Y-111974919D01*
X190115674Y-111948256D01*
X190135460Y-111760000D01*
X190115674Y-111571744D01*
X190057179Y-111391716D01*
X189962533Y-111227784D01*
X189835871Y-111087112D01*
X189818401Y-111074419D01*
X189682734Y-110975851D01*
X189682729Y-110975848D01*
X189509807Y-110898857D01*
X189509802Y-110898855D01*
X189364001Y-110867865D01*
X189324646Y-110859500D01*
X189135354Y-110859500D01*
X189132160Y-110860179D01*
X188950197Y-110898855D01*
X188950192Y-110898857D01*
X188777270Y-110975848D01*
X188777265Y-110975851D01*
X188624129Y-111087111D01*
X188497466Y-111227785D01*
X188402821Y-111391715D01*
X188402818Y-111391722D01*
X188356329Y-111534802D01*
X188344326Y-111571744D01*
X188324540Y-111760000D01*
X185055460Y-111760000D01*
X185035674Y-111571744D01*
X184977179Y-111391716D01*
X184882533Y-111227784D01*
X184755871Y-111087112D01*
X184738401Y-111074419D01*
X184602734Y-110975851D01*
X184602729Y-110975848D01*
X184429807Y-110898857D01*
X184429802Y-110898855D01*
X184284000Y-110867865D01*
X184244646Y-110859500D01*
X184055354Y-110859500D01*
X184052160Y-110860179D01*
X183870197Y-110898855D01*
X183870192Y-110898857D01*
X183697270Y-110975848D01*
X183697265Y-110975851D01*
X183544129Y-111087111D01*
X183417466Y-111227785D01*
X183322821Y-111391715D01*
X183322818Y-111391722D01*
X183276329Y-111534802D01*
X183264326Y-111571744D01*
X183244540Y-111760000D01*
X182515460Y-111760000D01*
X182495674Y-111571744D01*
X182437179Y-111391716D01*
X182342533Y-111227784D01*
X182215871Y-111087112D01*
X182198401Y-111074419D01*
X182062734Y-110975851D01*
X182062729Y-110975848D01*
X181889807Y-110898857D01*
X181889802Y-110898855D01*
X181744000Y-110867865D01*
X181704646Y-110859500D01*
X181515354Y-110859500D01*
X181512160Y-110860179D01*
X181330197Y-110898855D01*
X181330192Y-110898857D01*
X181157270Y-110975848D01*
X181157265Y-110975851D01*
X181004129Y-111087111D01*
X180877466Y-111227785D01*
X180782821Y-111391715D01*
X180782818Y-111391722D01*
X180736329Y-111534802D01*
X180724326Y-111571744D01*
X180704540Y-111760000D01*
X162893262Y-111760000D01*
X163009603Y-111675474D01*
X163136265Y-111534802D01*
X163230911Y-111370870D01*
X163289406Y-111190842D01*
X163309192Y-111002586D01*
X163289406Y-110814330D01*
X163230911Y-110634302D01*
X163136265Y-110470370D01*
X163009603Y-110329698D01*
X163009602Y-110329697D01*
X162856466Y-110218437D01*
X162856461Y-110218434D01*
X162683539Y-110141443D01*
X162683534Y-110141441D01*
X162537733Y-110110451D01*
X162498378Y-110102086D01*
X162309086Y-110102086D01*
X162276629Y-110108984D01*
X162123929Y-110141441D01*
X162123924Y-110141443D01*
X161951002Y-110218434D01*
X161950997Y-110218437D01*
X161797861Y-110329697D01*
X161671198Y-110470371D01*
X161576553Y-110634301D01*
X161576551Y-110634305D01*
X161530212Y-110776922D01*
X161490774Y-110834597D01*
X161426415Y-110861795D01*
X161391120Y-110860113D01*
X161391114Y-110860179D01*
X161389974Y-110860059D01*
X161386504Y-110859894D01*
X161384650Y-110859500D01*
X161384646Y-110859500D01*
X161195354Y-110859500D01*
X161192160Y-110860179D01*
X161010197Y-110898855D01*
X161010192Y-110898857D01*
X160837270Y-110975848D01*
X160837265Y-110975851D01*
X160684129Y-111087111D01*
X160557466Y-111227785D01*
X160462821Y-111391715D01*
X160462818Y-111391722D01*
X160416329Y-111534802D01*
X160404326Y-111571744D01*
X160384540Y-111760000D01*
X158385460Y-111760000D01*
X158365674Y-111571744D01*
X158307179Y-111391716D01*
X158212533Y-111227784D01*
X158085871Y-111087112D01*
X158068401Y-111074419D01*
X157932734Y-110975851D01*
X157932729Y-110975848D01*
X157759807Y-110898857D01*
X157759802Y-110898855D01*
X157614001Y-110867865D01*
X157574646Y-110859500D01*
X157385354Y-110859500D01*
X157382160Y-110860179D01*
X157200197Y-110898855D01*
X157200192Y-110898857D01*
X157027270Y-110975848D01*
X157027265Y-110975851D01*
X156874129Y-111087111D01*
X156747466Y-111227785D01*
X156652821Y-111391715D01*
X156652818Y-111391722D01*
X156606329Y-111534802D01*
X156594326Y-111571744D01*
X156574540Y-111760000D01*
X153305460Y-111760000D01*
X153285674Y-111571744D01*
X153227179Y-111391716D01*
X153132533Y-111227784D01*
X153005871Y-111087112D01*
X152988401Y-111074419D01*
X152852734Y-110975851D01*
X152852729Y-110975848D01*
X152679807Y-110898857D01*
X152679802Y-110898855D01*
X152534001Y-110867865D01*
X152494646Y-110859500D01*
X152305354Y-110859500D01*
X152302160Y-110860179D01*
X152120197Y-110898855D01*
X152120192Y-110898857D01*
X151947270Y-110975848D01*
X151947265Y-110975851D01*
X151794129Y-111087111D01*
X151667466Y-111227785D01*
X151572821Y-111391715D01*
X151572818Y-111391722D01*
X151526329Y-111534802D01*
X151514326Y-111571744D01*
X151494540Y-111760000D01*
X149495460Y-111760000D01*
X149475674Y-111571744D01*
X149417179Y-111391716D01*
X149322533Y-111227784D01*
X149195871Y-111087112D01*
X149178401Y-111074419D01*
X149042734Y-110975851D01*
X149042729Y-110975848D01*
X148869807Y-110898857D01*
X148869802Y-110898855D01*
X148724001Y-110867865D01*
X148684646Y-110859500D01*
X148495354Y-110859500D01*
X148492160Y-110860179D01*
X148310197Y-110898855D01*
X148310192Y-110898857D01*
X148137270Y-110975848D01*
X148137265Y-110975851D01*
X147984129Y-111087111D01*
X147857466Y-111227785D01*
X147762821Y-111391715D01*
X147762818Y-111391722D01*
X147716329Y-111534802D01*
X147704326Y-111571744D01*
X147684540Y-111760000D01*
X146650500Y-111760000D01*
X146650500Y-107349999D01*
X147014473Y-107349999D01*
X147034563Y-107682136D01*
X147034563Y-107682141D01*
X147034564Y-107682142D01*
X147094544Y-108009441D01*
X147094545Y-108009445D01*
X147094546Y-108009449D01*
X147193530Y-108327104D01*
X147193534Y-108327116D01*
X147193537Y-108327123D01*
X147330102Y-108630557D01*
X147502246Y-108915318D01*
X147502251Y-108915326D01*
X147707460Y-109177255D01*
X147942744Y-109412539D01*
X148204673Y-109617748D01*
X148204678Y-109617751D01*
X148204682Y-109617754D01*
X148489443Y-109789898D01*
X148792877Y-109926463D01*
X148792890Y-109926467D01*
X148792895Y-109926469D01*
X148997094Y-109990099D01*
X149110559Y-110025456D01*
X149437858Y-110085436D01*
X149770000Y-110105527D01*
X150102142Y-110085436D01*
X150429441Y-110025456D01*
X150747123Y-109926463D01*
X151050557Y-109789898D01*
X151335318Y-109617754D01*
X151597252Y-109412542D01*
X151789794Y-109220000D01*
X152764540Y-109220000D01*
X152784326Y-109408256D01*
X152784327Y-109408259D01*
X152842818Y-109588277D01*
X152842821Y-109588284D01*
X152937467Y-109752216D01*
X153064128Y-109892887D01*
X153064129Y-109892888D01*
X153217265Y-110004148D01*
X153217270Y-110004151D01*
X153390192Y-110081142D01*
X153390197Y-110081144D01*
X153575354Y-110120500D01*
X153575355Y-110120500D01*
X153764644Y-110120500D01*
X153764646Y-110120500D01*
X153949803Y-110081144D01*
X154122730Y-110004151D01*
X154275871Y-109892888D01*
X154402533Y-109752216D01*
X154497179Y-109588284D01*
X154555674Y-109408256D01*
X154565243Y-109317211D01*
X157803410Y-109317211D01*
X157823196Y-109505467D01*
X157823197Y-109505470D01*
X157881688Y-109685488D01*
X157881691Y-109685495D01*
X157976337Y-109849427D01*
X158102998Y-109990099D01*
X158102999Y-109990099D01*
X158256135Y-110101359D01*
X158256140Y-110101362D01*
X158429062Y-110178353D01*
X158429067Y-110178355D01*
X158614224Y-110217711D01*
X158614225Y-110217711D01*
X158803514Y-110217711D01*
X158803516Y-110217711D01*
X158988673Y-110178355D01*
X159161600Y-110101362D01*
X159314741Y-109990099D01*
X159441403Y-109849427D01*
X159536049Y-109685495D01*
X159594544Y-109505467D01*
X159614330Y-109317211D01*
X159604113Y-109220000D01*
X160384540Y-109220000D01*
X160404326Y-109408256D01*
X160404327Y-109408259D01*
X160462818Y-109588277D01*
X160462821Y-109588284D01*
X160557467Y-109752216D01*
X160684128Y-109892887D01*
X160684129Y-109892888D01*
X160837265Y-110004148D01*
X160837270Y-110004151D01*
X161010192Y-110081142D01*
X161010197Y-110081144D01*
X161195354Y-110120500D01*
X161195355Y-110120500D01*
X161384644Y-110120500D01*
X161384646Y-110120500D01*
X161569803Y-110081144D01*
X161742730Y-110004151D01*
X161895871Y-109892888D01*
X162022533Y-109752216D01*
X162117179Y-109588284D01*
X162175674Y-109408256D01*
X162195460Y-109220000D01*
X162175674Y-109031744D01*
X162117179Y-108851716D01*
X162022533Y-108687784D01*
X161943493Y-108600001D01*
X166089437Y-108600001D01*
X166109650Y-108831044D01*
X166109651Y-108831051D01*
X166169678Y-109055074D01*
X166169679Y-109055076D01*
X166169680Y-109055079D01*
X166267699Y-109265282D01*
X166400730Y-109455269D01*
X166564731Y-109619270D01*
X166754718Y-109752301D01*
X166964921Y-109850320D01*
X167188950Y-109910349D01*
X167353985Y-109924787D01*
X167419998Y-109930563D01*
X167420000Y-109930563D01*
X167420002Y-109930563D01*
X167483586Y-109925000D01*
X167651050Y-109910349D01*
X167875079Y-109850320D01*
X168085282Y-109752301D01*
X168275269Y-109619270D01*
X168421695Y-109472844D01*
X171095000Y-109472844D01*
X171101401Y-109532372D01*
X171101403Y-109532379D01*
X171151645Y-109667086D01*
X171151649Y-109667093D01*
X171237809Y-109782187D01*
X171237812Y-109782190D01*
X171352906Y-109868350D01*
X171352913Y-109868354D01*
X171487620Y-109918596D01*
X171487627Y-109918598D01*
X171547155Y-109924999D01*
X171547172Y-109925000D01*
X172170000Y-109925000D01*
X172170000Y-109204310D01*
X172178817Y-109209158D01*
X172337886Y-109250000D01*
X172460894Y-109250000D01*
X172582933Y-109234583D01*
X172670000Y-109200110D01*
X172670000Y-109925000D01*
X173292828Y-109925000D01*
X173292844Y-109924999D01*
X173352372Y-109918598D01*
X173352379Y-109918596D01*
X173487086Y-109868354D01*
X173487093Y-109868350D01*
X173602187Y-109782190D01*
X173602190Y-109782187D01*
X173688350Y-109667093D01*
X173688354Y-109667086D01*
X173738596Y-109532379D01*
X173738598Y-109532372D01*
X173744308Y-109479266D01*
X186746500Y-109479266D01*
X186766286Y-109667522D01*
X186766287Y-109667525D01*
X186824778Y-109847543D01*
X186824781Y-109847550D01*
X186919427Y-110011482D01*
X187004105Y-110105526D01*
X187046089Y-110152154D01*
X187199225Y-110263414D01*
X187199230Y-110263417D01*
X187372152Y-110340408D01*
X187372157Y-110340410D01*
X187557314Y-110379766D01*
X187557315Y-110379766D01*
X187746604Y-110379766D01*
X187746606Y-110379766D01*
X187931763Y-110340410D01*
X188104690Y-110263417D01*
X188257831Y-110152154D01*
X188384493Y-110011482D01*
X188479139Y-109847550D01*
X188537634Y-109667522D01*
X188557420Y-109479266D01*
X188537634Y-109291010D01*
X188479139Y-109110982D01*
X188384493Y-108947050D01*
X188369935Y-108930882D01*
X188339705Y-108867891D01*
X188348330Y-108798556D01*
X188393071Y-108744890D01*
X188411644Y-108734634D01*
X188412730Y-108734151D01*
X188565871Y-108622888D01*
X188692533Y-108482216D01*
X188787179Y-108318284D01*
X188845674Y-108138256D01*
X188865460Y-107950000D01*
X188845674Y-107761744D01*
X188787179Y-107581716D01*
X188692533Y-107417784D01*
X188631499Y-107349999D01*
X191264473Y-107349999D01*
X191284563Y-107682136D01*
X191284563Y-107682141D01*
X191284564Y-107682142D01*
X191344544Y-108009441D01*
X191344545Y-108009445D01*
X191344546Y-108009449D01*
X191443530Y-108327104D01*
X191443534Y-108327116D01*
X191443537Y-108327123D01*
X191580102Y-108630557D01*
X191752246Y-108915318D01*
X191752251Y-108915326D01*
X191957460Y-109177255D01*
X192192744Y-109412539D01*
X192454673Y-109617748D01*
X192454678Y-109617751D01*
X192454682Y-109617754D01*
X192739443Y-109789898D01*
X193042877Y-109926463D01*
X193042890Y-109926467D01*
X193042895Y-109926469D01*
X193247094Y-109990099D01*
X193360559Y-110025456D01*
X193687858Y-110085436D01*
X194020000Y-110105527D01*
X194352142Y-110085436D01*
X194679441Y-110025456D01*
X194997123Y-109926463D01*
X195300557Y-109789898D01*
X195585318Y-109617754D01*
X195847252Y-109412542D01*
X196082542Y-109177252D01*
X196259756Y-108951055D01*
X196287748Y-108915326D01*
X196287748Y-108915324D01*
X196287754Y-108915318D01*
X196459898Y-108630557D01*
X196596463Y-108327123D01*
X196695456Y-108009441D01*
X196755436Y-107682142D01*
X196775527Y-107350000D01*
X196755436Y-107017858D01*
X196695456Y-106690559D01*
X196608647Y-106411976D01*
X196596469Y-106372895D01*
X196596467Y-106372890D01*
X196596463Y-106372877D01*
X196459898Y-106069443D01*
X196287754Y-105784682D01*
X196287751Y-105784678D01*
X196287748Y-105784673D01*
X196082539Y-105522744D01*
X195847255Y-105287460D01*
X195585326Y-105082251D01*
X195585318Y-105082246D01*
X195300557Y-104910102D01*
X194997123Y-104773537D01*
X194997116Y-104773534D01*
X194997104Y-104773530D01*
X194679449Y-104674546D01*
X194679445Y-104674545D01*
X194679441Y-104674544D01*
X194352142Y-104614564D01*
X194352141Y-104614563D01*
X194352136Y-104614563D01*
X194020000Y-104594473D01*
X193687863Y-104614563D01*
X193687857Y-104614564D01*
X193687858Y-104614564D01*
X193360559Y-104674544D01*
X193360556Y-104674544D01*
X193360550Y-104674546D01*
X193042895Y-104773530D01*
X193042879Y-104773536D01*
X193042877Y-104773537D01*
X192849656Y-104860498D01*
X192739447Y-104910100D01*
X192739445Y-104910101D01*
X192454673Y-105082251D01*
X192192744Y-105287460D01*
X191957460Y-105522744D01*
X191752251Y-105784673D01*
X191580101Y-106069445D01*
X191580100Y-106069447D01*
X191553224Y-106129163D01*
X191471064Y-106311716D01*
X191443536Y-106372880D01*
X191443530Y-106372895D01*
X191344546Y-106690550D01*
X191344544Y-106690556D01*
X191344544Y-106690559D01*
X191299361Y-106937112D01*
X191284563Y-107017863D01*
X191264473Y-107349999D01*
X188631499Y-107349999D01*
X188565871Y-107277112D01*
X188562964Y-107275000D01*
X188412734Y-107165851D01*
X188412729Y-107165848D01*
X188239807Y-107088857D01*
X188239802Y-107088855D01*
X188094001Y-107057865D01*
X188054646Y-107049500D01*
X187865354Y-107049500D01*
X187832897Y-107056398D01*
X187680197Y-107088855D01*
X187680192Y-107088857D01*
X187507270Y-107165848D01*
X187507265Y-107165851D01*
X187354129Y-107277111D01*
X187227466Y-107417785D01*
X187132821Y-107581715D01*
X187132818Y-107581722D01*
X187074327Y-107761740D01*
X187074326Y-107761744D01*
X187054540Y-107950000D01*
X187074326Y-108138256D01*
X187074327Y-108138259D01*
X187132818Y-108318277D01*
X187132821Y-108318284D01*
X187227467Y-108482216D01*
X187242023Y-108498382D01*
X187272253Y-108561373D01*
X187263628Y-108630709D01*
X187218886Y-108684374D01*
X187200326Y-108694626D01*
X187199230Y-108695113D01*
X187046089Y-108806377D01*
X186919426Y-108947051D01*
X186824781Y-109110981D01*
X186824778Y-109110988D01*
X186766287Y-109291006D01*
X186766286Y-109291010D01*
X186746500Y-109479266D01*
X173744308Y-109479266D01*
X173744999Y-109472844D01*
X173745000Y-109472827D01*
X173745000Y-108850000D01*
X173020728Y-108850000D01*
X173043100Y-108802457D01*
X173073873Y-108641138D01*
X173063561Y-108477234D01*
X173022220Y-108350000D01*
X173745000Y-108350000D01*
X173745000Y-107727172D01*
X173744999Y-107727155D01*
X173738598Y-107667627D01*
X173738596Y-107667620D01*
X173717105Y-107610000D01*
X180274540Y-107610000D01*
X180294326Y-107798256D01*
X180294327Y-107798259D01*
X180352818Y-107978277D01*
X180352821Y-107978284D01*
X180447467Y-108142216D01*
X180574128Y-108282887D01*
X180574129Y-108282888D01*
X180727265Y-108394148D01*
X180727270Y-108394151D01*
X180900192Y-108471142D01*
X180900197Y-108471144D01*
X181085354Y-108510500D01*
X181085355Y-108510500D01*
X181274644Y-108510500D01*
X181274646Y-108510500D01*
X181459803Y-108471144D01*
X181632730Y-108394151D01*
X181785871Y-108282888D01*
X181912533Y-108142216D01*
X182007179Y-107978284D01*
X182016369Y-107950000D01*
X184514540Y-107950000D01*
X184534326Y-108138256D01*
X184534327Y-108138259D01*
X184592818Y-108318277D01*
X184592821Y-108318284D01*
X184687467Y-108482216D01*
X184814128Y-108622888D01*
X184814129Y-108622888D01*
X184967265Y-108734148D01*
X184967270Y-108734151D01*
X185140192Y-108811142D01*
X185140197Y-108811144D01*
X185325354Y-108850500D01*
X185325355Y-108850500D01*
X185514644Y-108850500D01*
X185514646Y-108850500D01*
X185699803Y-108811144D01*
X185872730Y-108734151D01*
X186025871Y-108622888D01*
X186152533Y-108482216D01*
X186247179Y-108318284D01*
X186305674Y-108138256D01*
X186325460Y-107950000D01*
X186305674Y-107761744D01*
X186247179Y-107581716D01*
X186152533Y-107417784D01*
X186025871Y-107277112D01*
X186022964Y-107275000D01*
X185872734Y-107165851D01*
X185872729Y-107165848D01*
X185699807Y-107088857D01*
X185699802Y-107088855D01*
X185554000Y-107057865D01*
X185514646Y-107049500D01*
X185325354Y-107049500D01*
X185292897Y-107056398D01*
X185140197Y-107088855D01*
X185140192Y-107088857D01*
X184967270Y-107165848D01*
X184967265Y-107165851D01*
X184814129Y-107277111D01*
X184687466Y-107417785D01*
X184592821Y-107581715D01*
X184592818Y-107581722D01*
X184534327Y-107761740D01*
X184534326Y-107761744D01*
X184514540Y-107950000D01*
X182016369Y-107950000D01*
X182065674Y-107798256D01*
X182085460Y-107610000D01*
X182065674Y-107421744D01*
X182007179Y-107241716D01*
X181912533Y-107077784D01*
X181785871Y-106937112D01*
X181741447Y-106904836D01*
X181632734Y-106825851D01*
X181632729Y-106825848D01*
X181459807Y-106748857D01*
X181459802Y-106748855D01*
X181307955Y-106716580D01*
X181274646Y-106709500D01*
X181085354Y-106709500D01*
X181052897Y-106716398D01*
X180900197Y-106748855D01*
X180900192Y-106748857D01*
X180727270Y-106825848D01*
X180727265Y-106825851D01*
X180574129Y-106937111D01*
X180447466Y-107077785D01*
X180352821Y-107241715D01*
X180352818Y-107241722D01*
X180294327Y-107421740D01*
X180294326Y-107421744D01*
X180274540Y-107610000D01*
X173717105Y-107610000D01*
X173688354Y-107532913D01*
X173688350Y-107532906D01*
X173602190Y-107417812D01*
X173602187Y-107417809D01*
X173487093Y-107331649D01*
X173487086Y-107331645D01*
X173352379Y-107281403D01*
X173352372Y-107281401D01*
X173292844Y-107275000D01*
X172670000Y-107275000D01*
X172670000Y-107995689D01*
X172661183Y-107990842D01*
X172502114Y-107950000D01*
X172379106Y-107950000D01*
X172257067Y-107965417D01*
X172170000Y-107999889D01*
X172170000Y-107275000D01*
X171547155Y-107275000D01*
X171487627Y-107281401D01*
X171487620Y-107281403D01*
X171352913Y-107331645D01*
X171352906Y-107331649D01*
X171237812Y-107417809D01*
X171237809Y-107417812D01*
X171151649Y-107532906D01*
X171151645Y-107532913D01*
X171101403Y-107667620D01*
X171101401Y-107667627D01*
X171095000Y-107727155D01*
X171095000Y-108350000D01*
X171819272Y-108350000D01*
X171796900Y-108397543D01*
X171766127Y-108558862D01*
X171776439Y-108722766D01*
X171817780Y-108850000D01*
X171095000Y-108850000D01*
X171095000Y-109472844D01*
X168421695Y-109472844D01*
X168439270Y-109455269D01*
X168572301Y-109265282D01*
X168670320Y-109055079D01*
X168730349Y-108831050D01*
X168750563Y-108600000D01*
X168730349Y-108368950D01*
X168670320Y-108144921D01*
X168572301Y-107934719D01*
X168572299Y-107934716D01*
X168572298Y-107934714D01*
X168439273Y-107744735D01*
X168439268Y-107744729D01*
X168275269Y-107580730D01*
X168274941Y-107580500D01*
X168085282Y-107447699D01*
X167875079Y-107349680D01*
X167875076Y-107349679D01*
X167875074Y-107349678D01*
X167651051Y-107289651D01*
X167651044Y-107289650D01*
X167420002Y-107269437D01*
X167419998Y-107269437D01*
X167188955Y-107289650D01*
X167188948Y-107289651D01*
X166964917Y-107349681D01*
X166754718Y-107447699D01*
X166754714Y-107447701D01*
X166564735Y-107580726D01*
X166564729Y-107580731D01*
X166400731Y-107744729D01*
X166400726Y-107744735D01*
X166267701Y-107934714D01*
X166267699Y-107934718D01*
X166169681Y-108144917D01*
X166109651Y-108368948D01*
X166109650Y-108368955D01*
X166089437Y-108599998D01*
X166089437Y-108600001D01*
X161943493Y-108600001D01*
X161895871Y-108547112D01*
X161828800Y-108498382D01*
X161742734Y-108435851D01*
X161742729Y-108435848D01*
X161569807Y-108358857D01*
X161569802Y-108358855D01*
X161420420Y-108327104D01*
X161384646Y-108319500D01*
X161195354Y-108319500D01*
X161162897Y-108326398D01*
X161010197Y-108358855D01*
X161010192Y-108358857D01*
X160837270Y-108435848D01*
X160837265Y-108435851D01*
X160684129Y-108547111D01*
X160557466Y-108687785D01*
X160462821Y-108851715D01*
X160462818Y-108851722D01*
X160404327Y-109031740D01*
X160404326Y-109031744D01*
X160394109Y-109128955D01*
X160385680Y-109209158D01*
X160384540Y-109220000D01*
X159604113Y-109220000D01*
X159594544Y-109128955D01*
X159536049Y-108948927D01*
X159441403Y-108784995D01*
X159314741Y-108644323D01*
X159314740Y-108644322D01*
X159161604Y-108533062D01*
X159161599Y-108533059D01*
X158988677Y-108456068D01*
X158988672Y-108456066D01*
X158842871Y-108425076D01*
X158803516Y-108416711D01*
X158614224Y-108416711D01*
X158581767Y-108423609D01*
X158429067Y-108456066D01*
X158429062Y-108456068D01*
X158256140Y-108533059D01*
X158256135Y-108533062D01*
X158102999Y-108644322D01*
X157976336Y-108784996D01*
X157881691Y-108948926D01*
X157881688Y-108948933D01*
X157823197Y-109128951D01*
X157823196Y-109128955D01*
X157803410Y-109317211D01*
X154565243Y-109317211D01*
X154575460Y-109220000D01*
X154555674Y-109031744D01*
X154497179Y-108851716D01*
X154402533Y-108687784D01*
X154275871Y-108547112D01*
X154208800Y-108498382D01*
X154122734Y-108435851D01*
X154122729Y-108435848D01*
X153949807Y-108358857D01*
X153949802Y-108358855D01*
X153800420Y-108327104D01*
X153764646Y-108319500D01*
X153575354Y-108319500D01*
X153542897Y-108326398D01*
X153390197Y-108358855D01*
X153390192Y-108358857D01*
X153217270Y-108435848D01*
X153217265Y-108435851D01*
X153064129Y-108547111D01*
X152937466Y-108687785D01*
X152842821Y-108851715D01*
X152842818Y-108851722D01*
X152784327Y-109031740D01*
X152784326Y-109031744D01*
X152764540Y-109220000D01*
X151789794Y-109220000D01*
X151832542Y-109177252D01*
X152009756Y-108951055D01*
X152037748Y-108915326D01*
X152037748Y-108915324D01*
X152037754Y-108915318D01*
X152209898Y-108630557D01*
X152346463Y-108327123D01*
X152445456Y-108009441D01*
X152505436Y-107682142D01*
X152525527Y-107350000D01*
X152505436Y-107017858D01*
X152445456Y-106690559D01*
X152358647Y-106411976D01*
X152346469Y-106372895D01*
X152346467Y-106372890D01*
X152346463Y-106372877D01*
X152209898Y-106069443D01*
X152194331Y-106043692D01*
X153687203Y-106043692D01*
X153706989Y-106231948D01*
X153706990Y-106231951D01*
X153765481Y-106411969D01*
X153765484Y-106411976D01*
X153860130Y-106575908D01*
X153963363Y-106690559D01*
X153986792Y-106716580D01*
X154139928Y-106827840D01*
X154139933Y-106827843D01*
X154312855Y-106904834D01*
X154312860Y-106904836D01*
X154498017Y-106944192D01*
X154498018Y-106944192D01*
X154687307Y-106944192D01*
X154687309Y-106944192D01*
X154872466Y-106904836D01*
X155045393Y-106827843D01*
X155126836Y-106768671D01*
X155192641Y-106745192D01*
X155260694Y-106761017D01*
X155309389Y-106811123D01*
X155323040Y-106856025D01*
X155324325Y-106868253D01*
X155324326Y-106868257D01*
X155382818Y-107048277D01*
X155382821Y-107048284D01*
X155477467Y-107212216D01*
X155601241Y-107349681D01*
X155604129Y-107352888D01*
X155757265Y-107464148D01*
X155757270Y-107464151D01*
X155930192Y-107541142D01*
X155930197Y-107541144D01*
X156115354Y-107580500D01*
X156115355Y-107580500D01*
X156304644Y-107580500D01*
X156304646Y-107580500D01*
X156489803Y-107541144D01*
X156662730Y-107464151D01*
X156815871Y-107352888D01*
X156942533Y-107212216D01*
X157037179Y-107048284D01*
X157095674Y-106868256D01*
X157115460Y-106680000D01*
X157096273Y-106497447D01*
X159294319Y-106497447D01*
X159314105Y-106685703D01*
X159314106Y-106685706D01*
X159372597Y-106865724D01*
X159372600Y-106865731D01*
X159467246Y-107029663D01*
X159520543Y-107088855D01*
X159593908Y-107170335D01*
X159747044Y-107281595D01*
X159747049Y-107281598D01*
X159919971Y-107358589D01*
X159919976Y-107358591D01*
X160105133Y-107397947D01*
X160105134Y-107397947D01*
X160294423Y-107397947D01*
X160294425Y-107397947D01*
X160479582Y-107358591D01*
X160652509Y-107281598D01*
X160805650Y-107170335D01*
X160932312Y-107029663D01*
X161026958Y-106865731D01*
X161085453Y-106685703D01*
X161086052Y-106680000D01*
X162924540Y-106680000D01*
X162944326Y-106868256D01*
X162944327Y-106868259D01*
X163002818Y-107048277D01*
X163002821Y-107048284D01*
X163097467Y-107212216D01*
X163221241Y-107349681D01*
X163224129Y-107352888D01*
X163377265Y-107464148D01*
X163377270Y-107464151D01*
X163550192Y-107541142D01*
X163550197Y-107541144D01*
X163735354Y-107580500D01*
X163735355Y-107580500D01*
X163924644Y-107580500D01*
X163924646Y-107580500D01*
X164109803Y-107541144D01*
X164282730Y-107464151D01*
X164435871Y-107352888D01*
X164562533Y-107212216D01*
X164657179Y-107048284D01*
X164715674Y-106868256D01*
X164735460Y-106680000D01*
X164715674Y-106491744D01*
X164657179Y-106311716D01*
X164562533Y-106147784D01*
X164435871Y-106007112D01*
X164435870Y-106007111D01*
X164282734Y-105895851D01*
X164282729Y-105895848D01*
X164109807Y-105818857D01*
X164109802Y-105818855D01*
X163964000Y-105787865D01*
X163924646Y-105779500D01*
X163735354Y-105779500D01*
X163702897Y-105786398D01*
X163550197Y-105818855D01*
X163550192Y-105818857D01*
X163377270Y-105895848D01*
X163377265Y-105895851D01*
X163224129Y-106007111D01*
X163097466Y-106147785D01*
X163002821Y-106311715D01*
X163002818Y-106311722D01*
X162970244Y-106411976D01*
X162944326Y-106491744D01*
X162924540Y-106680000D01*
X161086052Y-106680000D01*
X161105239Y-106497447D01*
X161085453Y-106309191D01*
X161026958Y-106129163D01*
X160932312Y-105965231D01*
X160805650Y-105824559D01*
X160797802Y-105818857D01*
X160652513Y-105713298D01*
X160652508Y-105713295D01*
X160479586Y-105636304D01*
X160479581Y-105636302D01*
X160333779Y-105605312D01*
X160294425Y-105596947D01*
X160105133Y-105596947D01*
X160072676Y-105603845D01*
X159919976Y-105636302D01*
X159919971Y-105636304D01*
X159747049Y-105713295D01*
X159747044Y-105713298D01*
X159593908Y-105824558D01*
X159467245Y-105965232D01*
X159372600Y-106129162D01*
X159372597Y-106129169D01*
X159314106Y-106309187D01*
X159314105Y-106309191D01*
X159294319Y-106497447D01*
X157096273Y-106497447D01*
X157095674Y-106491744D01*
X157037179Y-106311716D01*
X156942533Y-106147784D01*
X156815871Y-106007112D01*
X156815870Y-106007111D01*
X156662734Y-105895851D01*
X156662729Y-105895848D01*
X156489807Y-105818857D01*
X156489802Y-105818855D01*
X156344000Y-105787865D01*
X156304646Y-105779500D01*
X156115354Y-105779500D01*
X156082897Y-105786398D01*
X155930197Y-105818855D01*
X155930192Y-105818857D01*
X155757270Y-105895848D01*
X155757266Y-105895850D01*
X155675826Y-105955020D01*
X155610020Y-105978499D01*
X155541966Y-105962673D01*
X155493272Y-105912567D01*
X155479622Y-105867665D01*
X155478337Y-105855436D01*
X155419842Y-105675408D01*
X155325196Y-105511476D01*
X155198534Y-105370804D01*
X155198533Y-105370803D01*
X155045397Y-105259543D01*
X155045392Y-105259540D01*
X154872470Y-105182549D01*
X154872465Y-105182547D01*
X154726663Y-105151557D01*
X154687309Y-105143192D01*
X154498017Y-105143192D01*
X154465560Y-105150090D01*
X154312860Y-105182547D01*
X154312855Y-105182549D01*
X154139933Y-105259540D01*
X154139928Y-105259543D01*
X153986792Y-105370803D01*
X153860129Y-105511477D01*
X153765484Y-105675407D01*
X153765481Y-105675414D01*
X153706990Y-105855432D01*
X153706989Y-105855436D01*
X153687203Y-106043692D01*
X152194331Y-106043692D01*
X152037754Y-105784682D01*
X152037751Y-105784678D01*
X152037748Y-105784673D01*
X151832539Y-105522744D01*
X151597255Y-105287460D01*
X151335326Y-105082251D01*
X151335318Y-105082246D01*
X151050557Y-104910102D01*
X150747123Y-104773537D01*
X150747116Y-104773534D01*
X150747104Y-104773530D01*
X150429449Y-104674546D01*
X150429445Y-104674545D01*
X150429441Y-104674544D01*
X150102142Y-104614564D01*
X150102141Y-104614563D01*
X150102136Y-104614563D01*
X149770000Y-104594473D01*
X149437863Y-104614563D01*
X149437857Y-104614564D01*
X149437858Y-104614564D01*
X149110559Y-104674544D01*
X149110556Y-104674544D01*
X149110550Y-104674546D01*
X148792895Y-104773530D01*
X148792879Y-104773536D01*
X148792877Y-104773537D01*
X148599656Y-104860498D01*
X148489447Y-104910100D01*
X148489445Y-104910101D01*
X148204673Y-105082251D01*
X147942744Y-105287460D01*
X147707460Y-105522744D01*
X147502251Y-105784673D01*
X147330101Y-106069445D01*
X147330100Y-106069447D01*
X147303224Y-106129163D01*
X147221064Y-106311716D01*
X147193536Y-106372880D01*
X147193530Y-106372895D01*
X147094546Y-106690550D01*
X147094544Y-106690556D01*
X147094544Y-106690559D01*
X147049361Y-106937112D01*
X147034563Y-107017863D01*
X147014473Y-107349999D01*
X146650500Y-107349999D01*
X146650500Y-104234500D01*
X146670185Y-104167461D01*
X146722989Y-104121706D01*
X146774500Y-104110500D01*
X197325500Y-104110500D01*
X197392539Y-104130185D01*
G37*
%TD.AperFunction*%
%TD*%
M02*
