%TF.GenerationSoftware,KiCad,Pcbnew,7.0.5*%
%TF.CreationDate,2023-11-04T20:08:50-04:00*%
%TF.ProjectId,LNA,4c4e412e-6b69-4636-9164-5f7063625858,rev?*%
%TF.SameCoordinates,Original*%
%TF.FileFunction,Copper,L1,Top*%
%TF.FilePolarity,Positive*%
%FSLAX46Y46*%
G04 Gerber Fmt 4.6, Leading zero omitted, Abs format (unit mm)*
G04 Created by KiCad (PCBNEW 7.0.5) date 2023-11-04 20:08:50*
%MOMM*%
%LPD*%
G01*
G04 APERTURE LIST*
G04 Aperture macros list*
%AMRoundRect*
0 Rectangle with rounded corners*
0 $1 Rounding radius*
0 $2 $3 $4 $5 $6 $7 $8 $9 X,Y pos of 4 corners*
0 Add a 4 corners polygon primitive as box body*
4,1,4,$2,$3,$4,$5,$6,$7,$8,$9,$2,$3,0*
0 Add four circle primitives for the rounded corners*
1,1,$1+$1,$2,$3*
1,1,$1+$1,$4,$5*
1,1,$1+$1,$6,$7*
1,1,$1+$1,$8,$9*
0 Add four rect primitives between the rounded corners*
20,1,$1+$1,$2,$3,$4,$5,0*
20,1,$1+$1,$4,$5,$6,$7,0*
20,1,$1+$1,$6,$7,$8,$9,0*
20,1,$1+$1,$8,$9,$2,$3,0*%
G04 Aperture macros list end*
%TA.AperFunction,SMDPad,CuDef*%
%ADD10RoundRect,0.237500X-0.300000X-0.237500X0.300000X-0.237500X0.300000X0.237500X-0.300000X0.237500X0*%
%TD*%
%TA.AperFunction,SMDPad,CuDef*%
%ADD11RoundRect,0.237500X-0.287500X-0.237500X0.287500X-0.237500X0.287500X0.237500X-0.287500X0.237500X0*%
%TD*%
%TA.AperFunction,SMDPad,CuDef*%
%ADD12RoundRect,0.237500X0.300000X0.237500X-0.300000X0.237500X-0.300000X-0.237500X0.300000X-0.237500X0*%
%TD*%
%TA.AperFunction,SMDPad,CuDef*%
%ADD13RoundRect,0.237500X-0.237500X0.300000X-0.237500X-0.300000X0.237500X-0.300000X0.237500X0.300000X0*%
%TD*%
%TA.AperFunction,SMDPad,CuDef*%
%ADD14RoundRect,0.237500X0.237500X-0.300000X0.237500X0.300000X-0.237500X0.300000X-0.237500X-0.300000X0*%
%TD*%
%TA.AperFunction,ComponentPad*%
%ADD15R,2.250000X2.250000*%
%TD*%
%TA.AperFunction,ComponentPad*%
%ADD16C,2.400000*%
%TD*%
%TA.AperFunction,ComponentPad*%
%ADD17C,4.500000*%
%TD*%
%TA.AperFunction,ComponentPad*%
%ADD18R,1.650000X1.650000*%
%TD*%
%TA.AperFunction,ComponentPad*%
%ADD19C,1.650000*%
%TD*%
%TA.AperFunction,SMDPad,CuDef*%
%ADD20R,0.800000X0.600000*%
%TD*%
%TA.AperFunction,SMDPad,CuDef*%
%ADD21R,0.800000X0.900000*%
%TD*%
%TA.AperFunction,SMDPad,CuDef*%
%ADD22R,0.930000X0.810000*%
%TD*%
%TA.AperFunction,SMDPad,CuDef*%
%ADD23RoundRect,0.237500X0.237500X-0.287500X0.237500X0.287500X-0.237500X0.287500X-0.237500X-0.287500X0*%
%TD*%
%TA.AperFunction,SMDPad,CuDef*%
%ADD24RoundRect,0.237500X-0.237500X0.250000X-0.237500X-0.250000X0.237500X-0.250000X0.237500X0.250000X0*%
%TD*%
%TA.AperFunction,ViaPad*%
%ADD25C,0.800000*%
%TD*%
%TA.AperFunction,Conductor*%
%ADD26C,0.348996*%
%TD*%
%TA.AperFunction,Conductor*%
%ADD27C,0.203200*%
%TD*%
G04 APERTURE END LIST*
D10*
%TO.P,C5,1*%
%TO.N,Net-(C3-Pad1)*%
X184117500Y-119960000D03*
%TO.P,C5,2*%
%TO.N,LNA_OUTPUT*%
X185842500Y-119960000D03*
%TD*%
D11*
%TO.P,L1,1,1*%
%TO.N,LNA_INPUT*%
X158415000Y-118740000D03*
%TO.P,L1,2,2*%
%TO.N,Net-(C1-Pad1)*%
X160165000Y-118740000D03*
%TD*%
D12*
%TO.P,C2,1*%
%TO.N,Net-(IC1-IN)*%
X168602500Y-118790000D03*
%TO.P,C2,2*%
%TO.N,Net-(C1-Pad1)*%
X166877500Y-118790000D03*
%TD*%
D13*
%TO.P,C1,1*%
%TO.N,Net-(C1-Pad1)*%
X163330000Y-118717500D03*
%TO.P,C1,2*%
%TO.N,GND*%
X163330000Y-120442500D03*
%TD*%
D14*
%TO.P,C4,1*%
%TO.N,+3.3V*%
X175890000Y-117182500D03*
%TO.P,C4,2*%
%TO.N,GND*%
X175890000Y-115457500D03*
%TD*%
D15*
%TO.P,J2,1,1*%
%TO.N,LNA_INPUT*%
X151355000Y-118710000D03*
D16*
%TO.P,J2,2,2*%
%TO.N,GND*%
X153895000Y-121250000D03*
%TO.P,J2,3,3*%
X153895000Y-116170000D03*
%TO.P,J2,4,4*%
X148815000Y-116170000D03*
%TO.P,J2,5,5*%
X148815000Y-121250000D03*
%TD*%
D17*
%TO.P,,1*%
%TO.N,N/C*%
X149770000Y-130930000D03*
%TD*%
D18*
%TO.P,J1,01,01*%
%TO.N,+3.3V*%
X172420000Y-108600000D03*
D19*
%TO.P,J1,02,02*%
%TO.N,GND*%
X167420000Y-108600000D03*
%TD*%
D20*
%TO.P,IC1,1,IN*%
%TO.N,Net-(IC1-IN)*%
X172640000Y-118780000D03*
D21*
%TO.P,IC1,2,GND*%
%TO.N,GND*%
X172640000Y-119930000D03*
D20*
%TO.P,IC1,3,OUT*%
%TO.N,Net-(IC1-OUT)*%
X174240000Y-120080000D03*
%TO.P,IC1,4,VD*%
%TO.N,+3.3V*%
X174240000Y-118780000D03*
%TD*%
D22*
%TO.P,D1,A*%
%TO.N,+3.3V*%
X177130000Y-108630000D03*
%TO.P,D1,C*%
%TO.N,Net-(D1-PadC)*%
X177130000Y-110250000D03*
%TD*%
D23*
%TO.P,L2,1,1*%
%TO.N,GND*%
X181300000Y-121695000D03*
%TO.P,L2,2,2*%
%TO.N,Net-(C3-Pad1)*%
X181300000Y-119945000D03*
%TD*%
D24*
%TO.P,R1,1*%
%TO.N,GND*%
X179280000Y-108537500D03*
%TO.P,R1,2*%
%TO.N,Net-(D1-PadC)*%
X179280000Y-110362500D03*
%TD*%
D14*
%TO.P,C6,1*%
%TO.N,+3.3V*%
X177910000Y-117112500D03*
%TO.P,C6,2*%
%TO.N,GND*%
X177910000Y-115387500D03*
%TD*%
D17*
%TO.P,,1*%
%TO.N,N/C*%
X194020000Y-130930000D03*
%TD*%
%TO.P,,1*%
%TO.N,N/C*%
X149770000Y-107350000D03*
%TD*%
D12*
%TO.P,C3,1*%
%TO.N,Net-(C3-Pad1)*%
X178552500Y-120010000D03*
%TO.P,C3,2*%
%TO.N,Net-(IC1-OUT)*%
X176827500Y-120010000D03*
%TD*%
D15*
%TO.P,J3,1,1*%
%TO.N,LNA_OUTPUT*%
X192575000Y-120000000D03*
D16*
%TO.P,J3,2,2*%
%TO.N,GND*%
X190035000Y-117460000D03*
%TO.P,J3,3,3*%
X190035000Y-122540000D03*
%TO.P,J3,4,4*%
X195115000Y-122540000D03*
%TO.P,J3,5,5*%
X195115000Y-117460000D03*
%TD*%
D17*
%TO.P,,1*%
%TO.N,N/C*%
X194020000Y-107350000D03*
%TD*%
D25*
%TO.N,GND*%
X171610000Y-120100000D03*
X165652856Y-120100000D03*
X187960000Y-133350000D03*
X181610000Y-111760000D03*
X163890000Y-117470000D03*
X152400000Y-127000000D03*
X186809272Y-130222354D03*
X178868558Y-131194686D03*
X169520000Y-120080000D03*
X185890000Y-118650000D03*
X178808568Y-121320000D03*
X188468000Y-118872000D03*
X160315712Y-117470000D03*
X182287140Y-118630000D03*
X190500000Y-128270000D03*
X158515712Y-120020000D03*
X165100000Y-130810000D03*
X172720000Y-132080000D03*
X156210000Y-124460000D03*
X158708870Y-109317211D03*
X182771428Y-121320000D03*
X163830000Y-106680000D03*
X166242856Y-117540000D03*
X152400000Y-111760000D03*
X179360000Y-115830000D03*
X181095712Y-118630000D03*
X183962856Y-121320000D03*
X159707140Y-120020000D03*
X189230000Y-127000000D03*
X155176063Y-113498239D03*
X164461428Y-120100000D03*
X178712856Y-118630000D03*
X165051428Y-117540000D03*
X174470000Y-115860000D03*
X170420000Y-119530000D03*
X184150000Y-132080000D03*
X168035712Y-120100000D03*
X185420000Y-127000000D03*
X168910000Y-130810000D03*
X162090000Y-120020000D03*
X162209266Y-128050812D03*
X166357884Y-115572548D03*
X157480000Y-111760000D03*
X186971327Y-114697449D03*
X187730000Y-120980000D03*
X185448007Y-123221562D03*
X185154284Y-121320000D03*
X181610000Y-129540000D03*
X157480000Y-128270000D03*
X156741428Y-117470000D03*
X156132856Y-120020000D03*
X161290000Y-109220000D03*
X161507140Y-117470000D03*
X162954721Y-113012073D03*
X184670000Y-118630000D03*
X173990000Y-125730000D03*
X159746024Y-113919583D03*
X157324284Y-120020000D03*
X187651960Y-109479266D03*
X180391879Y-126559902D03*
X182880000Y-115570000D03*
X168625712Y-117540000D03*
X176530000Y-129540000D03*
X181180000Y-107610000D03*
X171008568Y-117540000D03*
X187960000Y-107950000D03*
X176425712Y-121320000D03*
X148590000Y-111760000D03*
X162698568Y-117470000D03*
X153670000Y-109220000D03*
X179904284Y-118630000D03*
X172200000Y-117540000D03*
X167434284Y-117540000D03*
X169696224Y-114243694D03*
X170180000Y-128270000D03*
X185420000Y-107950000D03*
X177521428Y-118630000D03*
X149860000Y-113030000D03*
X195657495Y-111974919D03*
X184150000Y-111760000D03*
X177617140Y-121320000D03*
X157480000Y-130810000D03*
X186560000Y-121270000D03*
X169817140Y-117540000D03*
X176530000Y-124460000D03*
X180000000Y-121320000D03*
X162403732Y-111002586D03*
X160898568Y-120020000D03*
X172418755Y-115442904D03*
X165100000Y-125730000D03*
X189230000Y-111760000D03*
X161290000Y-111760000D03*
X162533377Y-115507726D03*
X187110000Y-118830000D03*
X159124284Y-117470000D03*
X160199779Y-106497447D03*
X148590000Y-124460000D03*
X166844284Y-120100000D03*
X157932856Y-117470000D03*
X160020000Y-124460000D03*
X167640000Y-124460000D03*
X154592663Y-106043692D03*
X183478568Y-118630000D03*
X156210000Y-106680000D03*
%TO.N,+3.3V*%
X173920000Y-117400000D03*
X179630000Y-117240000D03*
%TD*%
D26*
%TO.N,Net-(C1-Pad1)*%
X163307500Y-118740000D02*
X163330000Y-118717500D01*
X163330000Y-118717500D02*
X166805000Y-118717500D01*
X166805000Y-118717500D02*
X166877500Y-118790000D01*
X160165000Y-118740000D02*
X163307500Y-118740000D01*
D27*
%TO.N,GND*%
X174872500Y-115457500D02*
X174470000Y-115860000D01*
X175890000Y-115457500D02*
X174872500Y-115457500D01*
X172640000Y-119930000D02*
X171780000Y-119930000D01*
X171780000Y-119930000D02*
X171610000Y-120100000D01*
X179280000Y-108537500D02*
X180252500Y-108537500D01*
X180252500Y-108537500D02*
X181180000Y-107610000D01*
X177910000Y-115387500D02*
X178917500Y-115387500D01*
X178917500Y-115387500D02*
X179360000Y-115830000D01*
D26*
%TO.N,Net-(IC1-IN)*%
X168612500Y-118780000D02*
X172640000Y-118780000D01*
X168602500Y-118790000D02*
X168612500Y-118780000D01*
%TO.N,Net-(C3-Pad1)*%
X181235000Y-120010000D02*
X181300000Y-119945000D01*
X178552500Y-120010000D02*
X181235000Y-120010000D01*
X181300000Y-119945000D02*
X184102500Y-119945000D01*
X184102500Y-119945000D02*
X184117500Y-119960000D01*
%TO.N,Net-(IC1-OUT)*%
X174240000Y-120080000D02*
X176757500Y-120080000D01*
X176757500Y-120080000D02*
X176827500Y-120010000D01*
D27*
%TO.N,+3.3V*%
X176242500Y-118780000D02*
X174240000Y-118780000D01*
X174137500Y-117182500D02*
X173920000Y-117400000D01*
X175890000Y-117182500D02*
X174137500Y-117182500D01*
X175837500Y-117182500D02*
X174240000Y-118780000D01*
X177910000Y-117112500D02*
X179502500Y-117112500D01*
X172400000Y-108630000D02*
X177130000Y-108630000D01*
X177910000Y-117112500D02*
X176242500Y-118780000D01*
X175890000Y-117182500D02*
X175837500Y-117182500D01*
X179502500Y-117112500D02*
X179630000Y-117240000D01*
D26*
%TO.N,LNA_OUTPUT*%
X185842500Y-119960000D02*
X185882500Y-120000000D01*
X185882500Y-120000000D02*
X192575000Y-120000000D01*
D27*
%TO.N,Net-(D1-PadC)*%
X177130000Y-110250000D02*
X179167500Y-110250000D01*
X179167500Y-110250000D02*
X179280000Y-110362500D01*
D26*
%TO.N,LNA_INPUT*%
X158385000Y-118710000D02*
X158415000Y-118740000D01*
X151355000Y-118710000D02*
X158385000Y-118710000D01*
%TD*%
%TA.AperFunction,Conductor*%
%TO.N,GND*%
G36*
X197392539Y-104130185D02*
G01*
X197438294Y-104182989D01*
X197449500Y-104234500D01*
X197449500Y-133915500D01*
X197429815Y-133982539D01*
X197377011Y-134028294D01*
X197325500Y-134039500D01*
X146774500Y-134039500D01*
X146707461Y-134019815D01*
X146661706Y-133967011D01*
X146650500Y-133915500D01*
X146650500Y-130930000D01*
X147014473Y-130930000D01*
X147034563Y-131262136D01*
X147034563Y-131262141D01*
X147034564Y-131262142D01*
X147094544Y-131589441D01*
X147094545Y-131589445D01*
X147094546Y-131589449D01*
X147193530Y-131907104D01*
X147193534Y-131907116D01*
X147193537Y-131907123D01*
X147330102Y-132210557D01*
X147502246Y-132495318D01*
X147502251Y-132495326D01*
X147707460Y-132757255D01*
X147942744Y-132992539D01*
X148204673Y-133197748D01*
X148204678Y-133197751D01*
X148204682Y-133197754D01*
X148489443Y-133369898D01*
X148792877Y-133506463D01*
X148792890Y-133506467D01*
X148792895Y-133506469D01*
X149004665Y-133572458D01*
X149110559Y-133605456D01*
X149437858Y-133665436D01*
X149770000Y-133685527D01*
X150102142Y-133665436D01*
X150429441Y-133605456D01*
X150747123Y-133506463D01*
X151050557Y-133369898D01*
X151335318Y-133197754D01*
X151597252Y-132992542D01*
X151832542Y-132757252D01*
X152037754Y-132495318D01*
X152209898Y-132210557D01*
X152346463Y-131907123D01*
X152445456Y-131589441D01*
X152505436Y-131262142D01*
X152525527Y-130930000D01*
X152525527Y-130929999D01*
X191264473Y-130929999D01*
X191284563Y-131262136D01*
X191284563Y-131262141D01*
X191284564Y-131262142D01*
X191344544Y-131589441D01*
X191344545Y-131589445D01*
X191344546Y-131589449D01*
X191443530Y-131907104D01*
X191443534Y-131907116D01*
X191443537Y-131907123D01*
X191580102Y-132210557D01*
X191752246Y-132495318D01*
X191752251Y-132495326D01*
X191957460Y-132757255D01*
X192192744Y-132992539D01*
X192454673Y-133197748D01*
X192454678Y-133197751D01*
X192454682Y-133197754D01*
X192739443Y-133369898D01*
X193042877Y-133506463D01*
X193042890Y-133506467D01*
X193042895Y-133506469D01*
X193254665Y-133572458D01*
X193360559Y-133605456D01*
X193687858Y-133665436D01*
X194020000Y-133685527D01*
X194352142Y-133665436D01*
X194679441Y-133605456D01*
X194997123Y-133506463D01*
X195300557Y-133369898D01*
X195585318Y-133197754D01*
X195847252Y-132992542D01*
X196082542Y-132757252D01*
X196287754Y-132495318D01*
X196459898Y-132210557D01*
X196596463Y-131907123D01*
X196695456Y-131589441D01*
X196755436Y-131262142D01*
X196775527Y-130930000D01*
X196755436Y-130597858D01*
X196695456Y-130270559D01*
X196596463Y-129952877D01*
X196459898Y-129649443D01*
X196287754Y-129364682D01*
X196287751Y-129364678D01*
X196287748Y-129364673D01*
X196082539Y-129102744D01*
X195847255Y-128867460D01*
X195585326Y-128662251D01*
X195585318Y-128662246D01*
X195300557Y-128490102D01*
X194997123Y-128353537D01*
X194997116Y-128353534D01*
X194997104Y-128353530D01*
X194679449Y-128254546D01*
X194679445Y-128254545D01*
X194679441Y-128254544D01*
X194352142Y-128194564D01*
X194352141Y-128194563D01*
X194352136Y-128194563D01*
X194020000Y-128174473D01*
X193687863Y-128194563D01*
X193687857Y-128194564D01*
X193687858Y-128194564D01*
X193360559Y-128254544D01*
X193360556Y-128254544D01*
X193360550Y-128254546D01*
X193042895Y-128353530D01*
X193042879Y-128353536D01*
X193042877Y-128353537D01*
X192849656Y-128440498D01*
X192739447Y-128490100D01*
X192739445Y-128490101D01*
X192454673Y-128662251D01*
X192192744Y-128867460D01*
X191957460Y-129102744D01*
X191752251Y-129364673D01*
X191580101Y-129649445D01*
X191580100Y-129649447D01*
X191443536Y-129952880D01*
X191443530Y-129952895D01*
X191344546Y-130270550D01*
X191284563Y-130597863D01*
X191264473Y-130929999D01*
X152525527Y-130929999D01*
X152505436Y-130597858D01*
X152445456Y-130270559D01*
X152346463Y-129952877D01*
X152209898Y-129649443D01*
X152037754Y-129364682D01*
X152037751Y-129364678D01*
X152037748Y-129364673D01*
X151832539Y-129102744D01*
X151597255Y-128867460D01*
X151335326Y-128662251D01*
X151335318Y-128662246D01*
X151050557Y-128490102D01*
X150747123Y-128353537D01*
X150747116Y-128353534D01*
X150747104Y-128353530D01*
X150429449Y-128254546D01*
X150429445Y-128254545D01*
X150429441Y-128254544D01*
X150102142Y-128194564D01*
X150102141Y-128194563D01*
X150102136Y-128194563D01*
X149770000Y-128174473D01*
X149437863Y-128194563D01*
X149437857Y-128194564D01*
X149437858Y-128194564D01*
X149110559Y-128254544D01*
X149110556Y-128254544D01*
X149110550Y-128254546D01*
X148792895Y-128353530D01*
X148792879Y-128353536D01*
X148792877Y-128353537D01*
X148599656Y-128440498D01*
X148489447Y-128490100D01*
X148489445Y-128490101D01*
X148204673Y-128662251D01*
X147942744Y-128867460D01*
X147707460Y-129102744D01*
X147502251Y-129364673D01*
X147330101Y-129649445D01*
X147330100Y-129649447D01*
X147193536Y-129952880D01*
X147193530Y-129952895D01*
X147094546Y-130270550D01*
X147034563Y-130597863D01*
X147014473Y-130930000D01*
X146650500Y-130930000D01*
X146650500Y-121250004D01*
X147110233Y-121250004D01*
X147129273Y-121504079D01*
X147185968Y-121752477D01*
X147185973Y-121752494D01*
X147279058Y-121989671D01*
X147279057Y-121989671D01*
X147406457Y-122210332D01*
X147448452Y-122262993D01*
X147448453Y-122262993D01*
X148098338Y-121613108D01*
X148185577Y-121751948D01*
X148313052Y-121879423D01*
X148451890Y-121966661D01*
X147801813Y-122616737D01*
X147962623Y-122726375D01*
X147962624Y-122726376D01*
X148192176Y-122836921D01*
X148192174Y-122836921D01*
X148435652Y-122912024D01*
X148435658Y-122912026D01*
X148687595Y-122949999D01*
X148687604Y-122950000D01*
X148942396Y-122950000D01*
X148942404Y-122949999D01*
X149194341Y-122912026D01*
X149194347Y-122912024D01*
X149437824Y-122836921D01*
X149667381Y-122726373D01*
X149828185Y-122616737D01*
X149178108Y-121966661D01*
X149316948Y-121879423D01*
X149444423Y-121751948D01*
X149531661Y-121613108D01*
X150181545Y-122262993D01*
X150223545Y-122210327D01*
X150350941Y-121989671D01*
X150444026Y-121752494D01*
X150444031Y-121752477D01*
X150500726Y-121504079D01*
X150519767Y-121250004D01*
X150519767Y-121249995D01*
X150500726Y-120995920D01*
X150444031Y-120747522D01*
X150444026Y-120747505D01*
X150349247Y-120506010D01*
X150351051Y-120505301D01*
X150341023Y-120444341D01*
X150368755Y-120380210D01*
X150426756Y-120341254D01*
X150464087Y-120335499D01*
X152245907Y-120335499D01*
X152312946Y-120355184D01*
X152358701Y-120407988D01*
X152368645Y-120477146D01*
X152359947Y-120505693D01*
X152360753Y-120506010D01*
X152265973Y-120747505D01*
X152265968Y-120747522D01*
X152209273Y-120995920D01*
X152190233Y-121249995D01*
X152190233Y-121250004D01*
X152209273Y-121504079D01*
X152265968Y-121752477D01*
X152265973Y-121752494D01*
X152359058Y-121989671D01*
X152359057Y-121989671D01*
X152486457Y-122210332D01*
X152528452Y-122262993D01*
X153178338Y-121613107D01*
X153265577Y-121751948D01*
X153393052Y-121879423D01*
X153531890Y-121966661D01*
X152881813Y-122616737D01*
X153042623Y-122726375D01*
X153042624Y-122726376D01*
X153272176Y-122836921D01*
X153272174Y-122836921D01*
X153515652Y-122912024D01*
X153515658Y-122912026D01*
X153767595Y-122949999D01*
X153767604Y-122950000D01*
X154022396Y-122950000D01*
X154022404Y-122949999D01*
X154274341Y-122912026D01*
X154274347Y-122912024D01*
X154517824Y-122836921D01*
X154747381Y-122726373D01*
X154908185Y-122616737D01*
X154258108Y-121966661D01*
X154396948Y-121879423D01*
X154524423Y-121751948D01*
X154611661Y-121613109D01*
X155261545Y-122262993D01*
X155303545Y-122210327D01*
X155430941Y-121989671D01*
X155448473Y-121945000D01*
X180325001Y-121945000D01*
X180325001Y-122031654D01*
X180335319Y-122132652D01*
X180389546Y-122296300D01*
X180389551Y-122296311D01*
X180480052Y-122443034D01*
X180480055Y-122443038D01*
X180601961Y-122564944D01*
X180601965Y-122564947D01*
X180748688Y-122655448D01*
X180748699Y-122655453D01*
X180912347Y-122709680D01*
X181013352Y-122719999D01*
X181050000Y-122719999D01*
X181050000Y-121945000D01*
X181550000Y-121945000D01*
X181550000Y-122719999D01*
X181586640Y-122719999D01*
X181586654Y-122719998D01*
X181687652Y-122709680D01*
X181851300Y-122655453D01*
X181851311Y-122655448D01*
X181998034Y-122564947D01*
X181998038Y-122564944D01*
X182119944Y-122443038D01*
X182119947Y-122443034D01*
X182210448Y-122296311D01*
X182210453Y-122296300D01*
X182264680Y-122132652D01*
X182274999Y-122031654D01*
X182275000Y-122031641D01*
X182275000Y-121945000D01*
X181550000Y-121945000D01*
X181050000Y-121945000D01*
X180325001Y-121945000D01*
X155448473Y-121945000D01*
X155524026Y-121752494D01*
X155524031Y-121752477D01*
X155580726Y-121504079D01*
X155599767Y-121250004D01*
X155599767Y-121249995D01*
X155580726Y-120995920D01*
X155524031Y-120747522D01*
X155524026Y-120747505D01*
X155502438Y-120692500D01*
X162355001Y-120692500D01*
X162355001Y-120791654D01*
X162365319Y-120892652D01*
X162419546Y-121056300D01*
X162419551Y-121056311D01*
X162510052Y-121203034D01*
X162510055Y-121203038D01*
X162631961Y-121324944D01*
X162631965Y-121324947D01*
X162778688Y-121415448D01*
X162778699Y-121415453D01*
X162942347Y-121469680D01*
X163043352Y-121479999D01*
X163080000Y-121479999D01*
X163080000Y-120692500D01*
X163580000Y-120692500D01*
X163580000Y-121479999D01*
X163616640Y-121479999D01*
X163616654Y-121479998D01*
X163717652Y-121469680D01*
X163881300Y-121415453D01*
X163881311Y-121415448D01*
X164028034Y-121324947D01*
X164028038Y-121324944D01*
X164149944Y-121203038D01*
X164149947Y-121203034D01*
X164240448Y-121056311D01*
X164240453Y-121056300D01*
X164294680Y-120892652D01*
X164304999Y-120791654D01*
X164305000Y-120791641D01*
X164305000Y-120692500D01*
X163580000Y-120692500D01*
X163080000Y-120692500D01*
X162355001Y-120692500D01*
X155502438Y-120692500D01*
X155430941Y-120510328D01*
X155430942Y-120510328D01*
X155303544Y-120289671D01*
X155261545Y-120237005D01*
X154611660Y-120886890D01*
X154524423Y-120748052D01*
X154396948Y-120620577D01*
X154258108Y-120533338D01*
X154908185Y-119883261D01*
X154747377Y-119773624D01*
X154747376Y-119773623D01*
X154517823Y-119663078D01*
X154517825Y-119663078D01*
X154402447Y-119627489D01*
X154344188Y-119588918D01*
X154316030Y-119524974D01*
X154326914Y-119455957D01*
X154373383Y-119403780D01*
X154438997Y-119384998D01*
X157442545Y-119384998D01*
X157509584Y-119404683D01*
X157538436Y-119434060D01*
X157540179Y-119432683D01*
X157544660Y-119438350D01*
X157666650Y-119560340D01*
X157813484Y-119650908D01*
X157977247Y-119705174D01*
X158078323Y-119715500D01*
X158751676Y-119715499D01*
X158751684Y-119715498D01*
X158751687Y-119715498D01*
X158807030Y-119709844D01*
X158852753Y-119705174D01*
X159016516Y-119650908D01*
X159163350Y-119560340D01*
X159202319Y-119521370D01*
X159263640Y-119487886D01*
X159333331Y-119492870D01*
X159377679Y-119521370D01*
X159406310Y-119550000D01*
X159416650Y-119560340D01*
X159563484Y-119650908D01*
X159727247Y-119705174D01*
X159828323Y-119715500D01*
X160501676Y-119715499D01*
X160501684Y-119715498D01*
X160501687Y-119715498D01*
X160557030Y-119709844D01*
X160602753Y-119705174D01*
X160766516Y-119650908D01*
X160913350Y-119560340D01*
X161022374Y-119451315D01*
X161083697Y-119417832D01*
X161110055Y-119414998D01*
X162401377Y-119414998D01*
X162468416Y-119434683D01*
X162506914Y-119473899D01*
X162509657Y-119478346D01*
X162509660Y-119478350D01*
X162523982Y-119492672D01*
X162557467Y-119553995D01*
X162552483Y-119623687D01*
X162523985Y-119668032D01*
X162510052Y-119681965D01*
X162419551Y-119828688D01*
X162419546Y-119828699D01*
X162365319Y-119992347D01*
X162355000Y-120093345D01*
X162355000Y-120192500D01*
X164304999Y-120192500D01*
X164304999Y-120180000D01*
X171740000Y-120180000D01*
X171740000Y-120427844D01*
X171746401Y-120487372D01*
X171746403Y-120487379D01*
X171796645Y-120622086D01*
X171796649Y-120622093D01*
X171882809Y-120737187D01*
X171882812Y-120737190D01*
X171997906Y-120823350D01*
X171997913Y-120823354D01*
X172132620Y-120873596D01*
X172132627Y-120873598D01*
X172192155Y-120879999D01*
X172192172Y-120880000D01*
X172390000Y-120880000D01*
X172390000Y-120180000D01*
X171740000Y-120180000D01*
X164304999Y-120180000D01*
X164304999Y-120093360D01*
X164304998Y-120093345D01*
X164294680Y-119992347D01*
X164240453Y-119828699D01*
X164240448Y-119828688D01*
X164149947Y-119681965D01*
X164149944Y-119681961D01*
X164136017Y-119668034D01*
X164102532Y-119606711D01*
X164107516Y-119537019D01*
X164136017Y-119492672D01*
X164150340Y-119478350D01*
X164150342Y-119478347D01*
X164166963Y-119451401D01*
X164218911Y-119404676D01*
X164272501Y-119392498D01*
X165866331Y-119392498D01*
X165933370Y-119412183D01*
X165971869Y-119451401D01*
X165994657Y-119488346D01*
X165994660Y-119488350D01*
X166116650Y-119610340D01*
X166263484Y-119700908D01*
X166427247Y-119755174D01*
X166528323Y-119765500D01*
X167226676Y-119765499D01*
X167226684Y-119765498D01*
X167226687Y-119765498D01*
X167282030Y-119759844D01*
X167327753Y-119755174D01*
X167491516Y-119700908D01*
X167638350Y-119610340D01*
X167652319Y-119596371D01*
X167713642Y-119562886D01*
X167783334Y-119567870D01*
X167827681Y-119596371D01*
X167841650Y-119610340D01*
X167988484Y-119700908D01*
X168152247Y-119755174D01*
X168253323Y-119765500D01*
X168951676Y-119765499D01*
X168951684Y-119765498D01*
X168951687Y-119765498D01*
X169007030Y-119759844D01*
X169052753Y-119755174D01*
X169216516Y-119700908D01*
X169363350Y-119610340D01*
X169482372Y-119491317D01*
X169543696Y-119457832D01*
X169570054Y-119454998D01*
X171616000Y-119454998D01*
X171683039Y-119474683D01*
X171728794Y-119527487D01*
X171740000Y-119578998D01*
X171740000Y-119680000D01*
X172766000Y-119680000D01*
X172833039Y-119699685D01*
X172878794Y-119752489D01*
X172890000Y-119804000D01*
X172890000Y-120880000D01*
X173087828Y-120880000D01*
X173087844Y-120879999D01*
X173147372Y-120873598D01*
X173147379Y-120873596D01*
X173282086Y-120823354D01*
X173282089Y-120823352D01*
X173365271Y-120761082D01*
X173430735Y-120736664D01*
X173499008Y-120751515D01*
X173513887Y-120761077D01*
X173597076Y-120823352D01*
X173597668Y-120823795D01*
X173597671Y-120823797D01*
X173732517Y-120874091D01*
X173732516Y-120874091D01*
X173739444Y-120874835D01*
X173792127Y-120880500D01*
X174687872Y-120880499D01*
X174747483Y-120874091D01*
X174882331Y-120823796D01*
X174941194Y-120779730D01*
X175006658Y-120755314D01*
X175015505Y-120754998D01*
X175939946Y-120754998D01*
X176006985Y-120774683D01*
X176027626Y-120791317D01*
X176066650Y-120830340D01*
X176213484Y-120920908D01*
X176377247Y-120975174D01*
X176478323Y-120985500D01*
X177176676Y-120985499D01*
X177176684Y-120985498D01*
X177176687Y-120985498D01*
X177232030Y-120979844D01*
X177277753Y-120975174D01*
X177441516Y-120920908D01*
X177588350Y-120830340D01*
X177602319Y-120816370D01*
X177663642Y-120782886D01*
X177733334Y-120787870D01*
X177777681Y-120816371D01*
X177791650Y-120830340D01*
X177938484Y-120920908D01*
X178102247Y-120975174D01*
X178203323Y-120985500D01*
X178901676Y-120985499D01*
X178901684Y-120985498D01*
X178901687Y-120985498D01*
X178957030Y-120979844D01*
X179002753Y-120975174D01*
X179166516Y-120920908D01*
X179313350Y-120830340D01*
X179422374Y-120721315D01*
X179483697Y-120687832D01*
X179510055Y-120684998D01*
X180419946Y-120684998D01*
X180486985Y-120704683D01*
X180507627Y-120721317D01*
X180518982Y-120732672D01*
X180552467Y-120793995D01*
X180547483Y-120863687D01*
X180518983Y-120908033D01*
X180480055Y-120946961D01*
X180480052Y-120946965D01*
X180389551Y-121093688D01*
X180389546Y-121093699D01*
X180335319Y-121257347D01*
X180325000Y-121358345D01*
X180325000Y-121445000D01*
X182274999Y-121445000D01*
X182274999Y-121358360D01*
X182274998Y-121358345D01*
X182264680Y-121257347D01*
X182210453Y-121093699D01*
X182210448Y-121093688D01*
X182119947Y-120946965D01*
X182119944Y-120946961D01*
X182081017Y-120908034D01*
X182047532Y-120846711D01*
X182052516Y-120777019D01*
X182081016Y-120732673D01*
X182120340Y-120693350D01*
X182129252Y-120678900D01*
X182181201Y-120632176D01*
X182234791Y-120619998D01*
X183144946Y-120619998D01*
X183211985Y-120639683D01*
X183232627Y-120656317D01*
X183234659Y-120658349D01*
X183234660Y-120658350D01*
X183356650Y-120780340D01*
X183503484Y-120870908D01*
X183667247Y-120925174D01*
X183768323Y-120935500D01*
X184466676Y-120935499D01*
X184466684Y-120935498D01*
X184466687Y-120935498D01*
X184522030Y-120929844D01*
X184567753Y-120925174D01*
X184731516Y-120870908D01*
X184878350Y-120780340D01*
X184892320Y-120766369D01*
X184953639Y-120732885D01*
X185023331Y-120737868D01*
X185067678Y-120766368D01*
X185081650Y-120780340D01*
X185228484Y-120870908D01*
X185392247Y-120925174D01*
X185493323Y-120935500D01*
X186191676Y-120935499D01*
X186191684Y-120935498D01*
X186191687Y-120935498D01*
X186247030Y-120929844D01*
X186292753Y-120925174D01*
X186456516Y-120870908D01*
X186603350Y-120780340D01*
X186672372Y-120711317D01*
X186733696Y-120677832D01*
X186760054Y-120674998D01*
X189491003Y-120674998D01*
X189558042Y-120694683D01*
X189603797Y-120747487D01*
X189613741Y-120816645D01*
X189584716Y-120880201D01*
X189527553Y-120917489D01*
X189412175Y-120953078D01*
X189182624Y-121063623D01*
X189182616Y-121063628D01*
X189021813Y-121173261D01*
X189671891Y-121823338D01*
X189533052Y-121910577D01*
X189405577Y-122038052D01*
X189318338Y-122176891D01*
X188668453Y-121527006D01*
X188626455Y-121579670D01*
X188499058Y-121800328D01*
X188405973Y-122037505D01*
X188405968Y-122037522D01*
X188349273Y-122285920D01*
X188330233Y-122539995D01*
X188330233Y-122540004D01*
X188349273Y-122794079D01*
X188405968Y-123042477D01*
X188405973Y-123042494D01*
X188499058Y-123279671D01*
X188499057Y-123279671D01*
X188626457Y-123500332D01*
X188668452Y-123552993D01*
X188668453Y-123552993D01*
X189318338Y-122903108D01*
X189405577Y-123041948D01*
X189533052Y-123169423D01*
X189671890Y-123256660D01*
X189021813Y-123906737D01*
X189182623Y-124016375D01*
X189182624Y-124016376D01*
X189412176Y-124126921D01*
X189412174Y-124126921D01*
X189655652Y-124202024D01*
X189655658Y-124202026D01*
X189907595Y-124239999D01*
X189907604Y-124240000D01*
X190162396Y-124240000D01*
X190162404Y-124239999D01*
X190414341Y-124202026D01*
X190414347Y-124202024D01*
X190657824Y-124126921D01*
X190887381Y-124016373D01*
X191048185Y-123906737D01*
X190398109Y-123256660D01*
X190536948Y-123169423D01*
X190664423Y-123041948D01*
X190751661Y-122903108D01*
X191401545Y-123552993D01*
X191443545Y-123500327D01*
X191570941Y-123279671D01*
X191664026Y-123042494D01*
X191664031Y-123042477D01*
X191720726Y-122794079D01*
X191739767Y-122540004D01*
X191739767Y-122539995D01*
X191720726Y-122285920D01*
X191664031Y-122037522D01*
X191664026Y-122037505D01*
X191569247Y-121796010D01*
X191571051Y-121795301D01*
X191561023Y-121734341D01*
X191588755Y-121670210D01*
X191646756Y-121631254D01*
X191684087Y-121625499D01*
X193465907Y-121625499D01*
X193532946Y-121645184D01*
X193578701Y-121697988D01*
X193588645Y-121767146D01*
X193579947Y-121795693D01*
X193580753Y-121796010D01*
X193485973Y-122037505D01*
X193485968Y-122037522D01*
X193429273Y-122285920D01*
X193410233Y-122539995D01*
X193410233Y-122540004D01*
X193429273Y-122794079D01*
X193485968Y-123042477D01*
X193485973Y-123042494D01*
X193579058Y-123279671D01*
X193579057Y-123279671D01*
X193706457Y-123500332D01*
X193748452Y-123552993D01*
X194398338Y-122903107D01*
X194485577Y-123041948D01*
X194613052Y-123169423D01*
X194751890Y-123256661D01*
X194101813Y-123906737D01*
X194262623Y-124016375D01*
X194262624Y-124016376D01*
X194492176Y-124126921D01*
X194492174Y-124126921D01*
X194735652Y-124202024D01*
X194735658Y-124202026D01*
X194987595Y-124239999D01*
X194987604Y-124240000D01*
X195242396Y-124240000D01*
X195242404Y-124239999D01*
X195494341Y-124202026D01*
X195494347Y-124202024D01*
X195737824Y-124126921D01*
X195967381Y-124016373D01*
X196128185Y-123906737D01*
X195478108Y-123256661D01*
X195616948Y-123169423D01*
X195744423Y-123041948D01*
X195831661Y-122903108D01*
X196481545Y-123552993D01*
X196523545Y-123500327D01*
X196650941Y-123279671D01*
X196744026Y-123042494D01*
X196744031Y-123042477D01*
X196800726Y-122794079D01*
X196819767Y-122540004D01*
X196819767Y-122539995D01*
X196800726Y-122285920D01*
X196744031Y-122037522D01*
X196744026Y-122037505D01*
X196650941Y-121800328D01*
X196650942Y-121800328D01*
X196523544Y-121579671D01*
X196481546Y-121527006D01*
X195831661Y-122176890D01*
X195744423Y-122038052D01*
X195616948Y-121910577D01*
X195478108Y-121823338D01*
X196128185Y-121173261D01*
X195967377Y-121063624D01*
X195967376Y-121063623D01*
X195737823Y-120953078D01*
X195737825Y-120953078D01*
X195494347Y-120877975D01*
X195494341Y-120877973D01*
X195242404Y-120840000D01*
X194987595Y-120840000D01*
X194735658Y-120877973D01*
X194735652Y-120877975D01*
X194492175Y-120953078D01*
X194378300Y-121007918D01*
X194309359Y-121019270D01*
X194245225Y-120991548D01*
X194206259Y-120933552D01*
X194200499Y-120896203D01*
X194200499Y-119103801D01*
X194220184Y-119036763D01*
X194272988Y-118991008D01*
X194342146Y-118981064D01*
X194378300Y-118992082D01*
X194492176Y-119046921D01*
X194492174Y-119046921D01*
X194735652Y-119122024D01*
X194735658Y-119122026D01*
X194987595Y-119159999D01*
X194987604Y-119160000D01*
X195242396Y-119160000D01*
X195242404Y-119159999D01*
X195494341Y-119122026D01*
X195494347Y-119122024D01*
X195737824Y-119046921D01*
X195967381Y-118936373D01*
X196128185Y-118826737D01*
X195478108Y-118176661D01*
X195616948Y-118089423D01*
X195744423Y-117961948D01*
X195831661Y-117823108D01*
X196481545Y-118472993D01*
X196523545Y-118420327D01*
X196650941Y-118199671D01*
X196744026Y-117962494D01*
X196744031Y-117962477D01*
X196800726Y-117714079D01*
X196819767Y-117460004D01*
X196819767Y-117459995D01*
X196800726Y-117205920D01*
X196744031Y-116957522D01*
X196744026Y-116957505D01*
X196650941Y-116720328D01*
X196650942Y-116720328D01*
X196523544Y-116499671D01*
X196481546Y-116447006D01*
X195831661Y-117096890D01*
X195744423Y-116958052D01*
X195616948Y-116830577D01*
X195478108Y-116743338D01*
X196128185Y-116093261D01*
X195967377Y-115983624D01*
X195967376Y-115983623D01*
X195737823Y-115873078D01*
X195737825Y-115873078D01*
X195494347Y-115797975D01*
X195494341Y-115797973D01*
X195242404Y-115760000D01*
X194987595Y-115760000D01*
X194735658Y-115797973D01*
X194735652Y-115797975D01*
X194492175Y-115873078D01*
X194262624Y-115983623D01*
X194262616Y-115983628D01*
X194101813Y-116093261D01*
X194751891Y-116743338D01*
X194613052Y-116830577D01*
X194485577Y-116958052D01*
X194398338Y-117096891D01*
X193748453Y-116447006D01*
X193706455Y-116499670D01*
X193579058Y-116720328D01*
X193485973Y-116957505D01*
X193485968Y-116957522D01*
X193429273Y-117205920D01*
X193410233Y-117459995D01*
X193410233Y-117460004D01*
X193429273Y-117714079D01*
X193485968Y-117962477D01*
X193485973Y-117962494D01*
X193580753Y-118203990D01*
X193578940Y-118204701D01*
X193588982Y-118265618D01*
X193561271Y-118329758D01*
X193503282Y-118368733D01*
X193465907Y-118374500D01*
X191684093Y-118374500D01*
X191617054Y-118354815D01*
X191571299Y-118302011D01*
X191561355Y-118232853D01*
X191570056Y-118204307D01*
X191569247Y-118203990D01*
X191664026Y-117962494D01*
X191664031Y-117962477D01*
X191720726Y-117714079D01*
X191739767Y-117460004D01*
X191739767Y-117459995D01*
X191720726Y-117205920D01*
X191664031Y-116957522D01*
X191664026Y-116957505D01*
X191570941Y-116720328D01*
X191570942Y-116720328D01*
X191443544Y-116499671D01*
X191401545Y-116447005D01*
X190751660Y-117096890D01*
X190664423Y-116958052D01*
X190536948Y-116830577D01*
X190398108Y-116743338D01*
X191048185Y-116093261D01*
X190887377Y-115983624D01*
X190887376Y-115983623D01*
X190657823Y-115873078D01*
X190657825Y-115873078D01*
X190414347Y-115797975D01*
X190414341Y-115797973D01*
X190162404Y-115760000D01*
X189907595Y-115760000D01*
X189655658Y-115797973D01*
X189655652Y-115797975D01*
X189412175Y-115873078D01*
X189182624Y-115983623D01*
X189182616Y-115983628D01*
X189021813Y-116093261D01*
X189671891Y-116743338D01*
X189533052Y-116830577D01*
X189405577Y-116958052D01*
X189318338Y-117096891D01*
X188668453Y-116447006D01*
X188626455Y-116499670D01*
X188499058Y-116720328D01*
X188405973Y-116957505D01*
X188405968Y-116957522D01*
X188349273Y-117205920D01*
X188330233Y-117459995D01*
X188330233Y-117460004D01*
X188349273Y-117714079D01*
X188405968Y-117962477D01*
X188405973Y-117962494D01*
X188499058Y-118199671D01*
X188499057Y-118199671D01*
X188626457Y-118420332D01*
X188668452Y-118472993D01*
X188668453Y-118472993D01*
X189318338Y-117823108D01*
X189405577Y-117961948D01*
X189533052Y-118089423D01*
X189671890Y-118176661D01*
X189021813Y-118826737D01*
X189182623Y-118936375D01*
X189182624Y-118936376D01*
X189412176Y-119046921D01*
X189412174Y-119046921D01*
X189527553Y-119082511D01*
X189585812Y-119121082D01*
X189613970Y-119185026D01*
X189603086Y-119254043D01*
X189556617Y-119306220D01*
X189491003Y-119325002D01*
X186833623Y-119325002D01*
X186766584Y-119305317D01*
X186728086Y-119266101D01*
X186725342Y-119261653D01*
X186725339Y-119261649D01*
X186603351Y-119139661D01*
X186603350Y-119139660D01*
X186456516Y-119049092D01*
X186292753Y-118994826D01*
X186292751Y-118994825D01*
X186191678Y-118984500D01*
X185493330Y-118984500D01*
X185493312Y-118984501D01*
X185392247Y-118994825D01*
X185228484Y-119049092D01*
X185228481Y-119049093D01*
X185081648Y-119139661D01*
X185067681Y-119153629D01*
X185006358Y-119187114D01*
X184936666Y-119182130D01*
X184892319Y-119153629D01*
X184878351Y-119139661D01*
X184878351Y-119139660D01*
X184878350Y-119139660D01*
X184731516Y-119049092D01*
X184567753Y-118994826D01*
X184567751Y-118994825D01*
X184466678Y-118984500D01*
X183768330Y-118984500D01*
X183768312Y-118984501D01*
X183667247Y-118994825D01*
X183503484Y-119049092D01*
X183503481Y-119049093D01*
X183356648Y-119139661D01*
X183262627Y-119233683D01*
X183201304Y-119267168D01*
X183174946Y-119270002D01*
X182234791Y-119270002D01*
X182167752Y-119250317D01*
X182129253Y-119211100D01*
X182120340Y-119196650D01*
X181998351Y-119074661D01*
X181998350Y-119074660D01*
X181852179Y-118984501D01*
X181851518Y-118984093D01*
X181851513Y-118984091D01*
X181784880Y-118962011D01*
X181687753Y-118929826D01*
X181687751Y-118929825D01*
X181586678Y-118919500D01*
X181013330Y-118919500D01*
X181013312Y-118919501D01*
X180912247Y-118929825D01*
X180748484Y-118984092D01*
X180748481Y-118984093D01*
X180601648Y-119074661D01*
X180479661Y-119196648D01*
X180475354Y-119203631D01*
X180434417Y-119270002D01*
X180430656Y-119276099D01*
X180378708Y-119322823D01*
X180325117Y-119335002D01*
X179510055Y-119335002D01*
X179443016Y-119315317D01*
X179422374Y-119298684D01*
X179374007Y-119250317D01*
X179313350Y-119189660D01*
X179203695Y-119122024D01*
X179166518Y-119099093D01*
X179166513Y-119099091D01*
X179116478Y-119082511D01*
X179002753Y-119044826D01*
X179002751Y-119044825D01*
X178901678Y-119034500D01*
X178203330Y-119034500D01*
X178203312Y-119034501D01*
X178102247Y-119044825D01*
X177938484Y-119099092D01*
X177938481Y-119099093D01*
X177791650Y-119189660D01*
X177777679Y-119203631D01*
X177716355Y-119237114D01*
X177646663Y-119232128D01*
X177602321Y-119203631D01*
X177595338Y-119196648D01*
X177588350Y-119189660D01*
X177441516Y-119099092D01*
X177277753Y-119044826D01*
X177277751Y-119044825D01*
X177176684Y-119034500D01*
X177176677Y-119034500D01*
X177138859Y-119034500D01*
X177071820Y-119014815D01*
X177026065Y-118962011D01*
X177016121Y-118892853D01*
X177045146Y-118829297D01*
X177051178Y-118822819D01*
X177687179Y-118186818D01*
X177748502Y-118153333D01*
X177774860Y-118150499D01*
X178196670Y-118150499D01*
X178196676Y-118150499D01*
X178297753Y-118140174D01*
X178461516Y-118085908D01*
X178608350Y-117995340D01*
X178730340Y-117873350D01*
X178748392Y-117844082D01*
X178800340Y-117797358D01*
X178869302Y-117786135D01*
X178933385Y-117813979D01*
X178946079Y-117826205D01*
X178985512Y-117870000D01*
X179024129Y-117912888D01*
X179177265Y-118024148D01*
X179177270Y-118024151D01*
X179350192Y-118101142D01*
X179350197Y-118101144D01*
X179535354Y-118140500D01*
X179535355Y-118140500D01*
X179724644Y-118140500D01*
X179724646Y-118140500D01*
X179909803Y-118101144D01*
X180082730Y-118024151D01*
X180235871Y-117912888D01*
X180362533Y-117772216D01*
X180457179Y-117608284D01*
X180515674Y-117428256D01*
X180535460Y-117240000D01*
X180515674Y-117051744D01*
X180457179Y-116871716D01*
X180362533Y-116707784D01*
X180235871Y-116567112D01*
X180235870Y-116567111D01*
X180082734Y-116455851D01*
X180082729Y-116455848D01*
X179909807Y-116378857D01*
X179909802Y-116378855D01*
X179755245Y-116346004D01*
X179724646Y-116339500D01*
X179535354Y-116339500D01*
X179504755Y-116346004D01*
X179350197Y-116378855D01*
X179350192Y-116378857D01*
X179177270Y-116455848D01*
X179146558Y-116478161D01*
X179134781Y-116486718D01*
X179068976Y-116510198D01*
X179061897Y-116510400D01*
X178897464Y-116510400D01*
X178830425Y-116490715D01*
X178791926Y-116451497D01*
X178730340Y-116351650D01*
X178716017Y-116337327D01*
X178682532Y-116276004D01*
X178687516Y-116206312D01*
X178716021Y-116161960D01*
X178729947Y-116148035D01*
X178820448Y-116001311D01*
X178820453Y-116001300D01*
X178874680Y-115837652D01*
X178884999Y-115736654D01*
X178885000Y-115736641D01*
X178885000Y-115637500D01*
X176935001Y-115637500D01*
X176901320Y-115671181D01*
X176839997Y-115704666D01*
X176813639Y-115707500D01*
X174915001Y-115707500D01*
X174915001Y-115806654D01*
X174925319Y-115907652D01*
X174979546Y-116071300D01*
X174979551Y-116071311D01*
X175070052Y-116218034D01*
X175070055Y-116218038D01*
X175083982Y-116231965D01*
X175117467Y-116293288D01*
X175112483Y-116362980D01*
X175083984Y-116407325D01*
X175069659Y-116421650D01*
X175029906Y-116486100D01*
X175008073Y-116521497D01*
X174956127Y-116568221D01*
X174902536Y-116580400D01*
X174319468Y-116580400D01*
X174269032Y-116569679D01*
X174246820Y-116559789D01*
X174199802Y-116538855D01*
X174054001Y-116507865D01*
X174014646Y-116499500D01*
X173825354Y-116499500D01*
X173799351Y-116505027D01*
X173640197Y-116538855D01*
X173640192Y-116538857D01*
X173467270Y-116615848D01*
X173467265Y-116615851D01*
X173314129Y-116727111D01*
X173187466Y-116867785D01*
X173092821Y-117031715D01*
X173092818Y-117031722D01*
X173036218Y-117205920D01*
X173034326Y-117211744D01*
X173014540Y-117400000D01*
X173034326Y-117588256D01*
X173034327Y-117588259D01*
X173092818Y-117768277D01*
X173092822Y-117768286D01*
X173107380Y-117793502D01*
X173123851Y-117861403D01*
X173100998Y-117927429D01*
X173046076Y-117970619D01*
X172999992Y-117979500D01*
X172192129Y-117979500D01*
X172192123Y-117979501D01*
X172132516Y-117985908D01*
X171997671Y-118036202D01*
X171997669Y-118036203D01*
X171938806Y-118080269D01*
X171873342Y-118104686D01*
X171864495Y-118105002D01*
X169550055Y-118105002D01*
X169483016Y-118085317D01*
X169462374Y-118068684D01*
X169416507Y-118022817D01*
X169363350Y-117969660D01*
X169216516Y-117879092D01*
X169052753Y-117824826D01*
X169052751Y-117824825D01*
X168951678Y-117814500D01*
X168253330Y-117814500D01*
X168253312Y-117814501D01*
X168152247Y-117824825D01*
X167988484Y-117879092D01*
X167988481Y-117879093D01*
X167841648Y-117969661D01*
X167827681Y-117983629D01*
X167766358Y-118017114D01*
X167696666Y-118012130D01*
X167652319Y-117983629D01*
X167638351Y-117969661D01*
X167638350Y-117969660D01*
X167491516Y-117879092D01*
X167327753Y-117824826D01*
X167327751Y-117824825D01*
X167226678Y-117814500D01*
X166528330Y-117814500D01*
X166528312Y-117814501D01*
X166427247Y-117824825D01*
X166263484Y-117879092D01*
X166263481Y-117879093D01*
X166116648Y-117969661D01*
X166080127Y-118006183D01*
X166018804Y-118039668D01*
X165992446Y-118042502D01*
X164272501Y-118042502D01*
X164205462Y-118022817D01*
X164166963Y-117983599D01*
X164150342Y-117956653D01*
X164150339Y-117956649D01*
X164028351Y-117834661D01*
X164028350Y-117834660D01*
X163920741Y-117768286D01*
X163881518Y-117744093D01*
X163881513Y-117744091D01*
X163828475Y-117726516D01*
X163717753Y-117689826D01*
X163717751Y-117689825D01*
X163616678Y-117679500D01*
X163043330Y-117679500D01*
X163043312Y-117679501D01*
X162942247Y-117689825D01*
X162778484Y-117744092D01*
X162778481Y-117744093D01*
X162631648Y-117834661D01*
X162509661Y-117956648D01*
X162479160Y-118006099D01*
X162427212Y-118052823D01*
X162373621Y-118065002D01*
X161110055Y-118065002D01*
X161043016Y-118045317D01*
X161022374Y-118028684D01*
X160973190Y-117979500D01*
X160913350Y-117919660D01*
X160832837Y-117869999D01*
X160766518Y-117829093D01*
X160766513Y-117829091D01*
X160753639Y-117824825D01*
X160602753Y-117774826D01*
X160602751Y-117774825D01*
X160501678Y-117764500D01*
X159828330Y-117764500D01*
X159828312Y-117764501D01*
X159727247Y-117774825D01*
X159563484Y-117829092D01*
X159563481Y-117829093D01*
X159416648Y-117919661D01*
X159377678Y-117958630D01*
X159316354Y-117992114D01*
X159246663Y-117987128D01*
X159202318Y-117958628D01*
X159163351Y-117919661D01*
X159163350Y-117919660D01*
X159021270Y-117832024D01*
X159016518Y-117829093D01*
X159016513Y-117829091D01*
X159003639Y-117824825D01*
X158852753Y-117774826D01*
X158852751Y-117774825D01*
X158751678Y-117764500D01*
X158078330Y-117764500D01*
X158078312Y-117764501D01*
X157977247Y-117774825D01*
X157813484Y-117829092D01*
X157813481Y-117829093D01*
X157666648Y-117919661D01*
X157587627Y-117998683D01*
X157526304Y-118032168D01*
X157499946Y-118035002D01*
X154438997Y-118035002D01*
X154371958Y-118015317D01*
X154326203Y-117962513D01*
X154316259Y-117893355D01*
X154345284Y-117829799D01*
X154402447Y-117792511D01*
X154517824Y-117756921D01*
X154747381Y-117646373D01*
X154908185Y-117536737D01*
X154258108Y-116886661D01*
X154396948Y-116799423D01*
X154524423Y-116671948D01*
X154611661Y-116533108D01*
X155261545Y-117182993D01*
X155303545Y-117130327D01*
X155430941Y-116909671D01*
X155524026Y-116672494D01*
X155524031Y-116672477D01*
X155580726Y-116424079D01*
X155599767Y-116170004D01*
X155599767Y-116169995D01*
X155580726Y-115915920D01*
X155524031Y-115667522D01*
X155524026Y-115667505D01*
X155430941Y-115430328D01*
X155430942Y-115430328D01*
X155303544Y-115209671D01*
X155301813Y-115207500D01*
X174915000Y-115207500D01*
X175640000Y-115207500D01*
X176140000Y-115207500D01*
X176864999Y-115207500D01*
X176898680Y-115173819D01*
X176960003Y-115140334D01*
X176986361Y-115137500D01*
X177660000Y-115137500D01*
X177660000Y-114350000D01*
X178160000Y-114350000D01*
X178160000Y-115137500D01*
X178884999Y-115137500D01*
X178884999Y-115038360D01*
X178884998Y-115038345D01*
X178874680Y-114937347D01*
X178820453Y-114773699D01*
X178820448Y-114773688D01*
X178729947Y-114626965D01*
X178729944Y-114626961D01*
X178608038Y-114505055D01*
X178608034Y-114505052D01*
X178461311Y-114414551D01*
X178461300Y-114414546D01*
X178297652Y-114360319D01*
X178196654Y-114350000D01*
X178160000Y-114350000D01*
X177660000Y-114350000D01*
X177623361Y-114350000D01*
X177623343Y-114350001D01*
X177522347Y-114360319D01*
X177358699Y-114414546D01*
X177358688Y-114414551D01*
X177211965Y-114505052D01*
X177211961Y-114505055D01*
X177090055Y-114626961D01*
X177090052Y-114626965D01*
X176999551Y-114773688D01*
X176999544Y-114773704D01*
X176998519Y-114776798D01*
X176997242Y-114778641D01*
X176996497Y-114780240D01*
X176996223Y-114780112D01*
X176958742Y-114834240D01*
X176894224Y-114861058D01*
X176825449Y-114848738D01*
X176775278Y-114802882D01*
X176709947Y-114696965D01*
X176709944Y-114696961D01*
X176588038Y-114575055D01*
X176588034Y-114575052D01*
X176441311Y-114484551D01*
X176441300Y-114484546D01*
X176277652Y-114430319D01*
X176176654Y-114420000D01*
X176140000Y-114420000D01*
X176140000Y-115207500D01*
X175640000Y-115207500D01*
X175640000Y-114420000D01*
X175603361Y-114420000D01*
X175603343Y-114420001D01*
X175502347Y-114430319D01*
X175338699Y-114484546D01*
X175338688Y-114484551D01*
X175191965Y-114575052D01*
X175191961Y-114575055D01*
X175070055Y-114696961D01*
X175070052Y-114696965D01*
X174979551Y-114843688D01*
X174979546Y-114843699D01*
X174925319Y-115007347D01*
X174915000Y-115108345D01*
X174915000Y-115207500D01*
X155301813Y-115207500D01*
X155261546Y-115157006D01*
X154611661Y-115806890D01*
X154524423Y-115668052D01*
X154396948Y-115540577D01*
X154258108Y-115453338D01*
X154908185Y-114803261D01*
X154747377Y-114693624D01*
X154747376Y-114693623D01*
X154517823Y-114583078D01*
X154517825Y-114583078D01*
X154274347Y-114507975D01*
X154274341Y-114507973D01*
X154022404Y-114470000D01*
X153767595Y-114470000D01*
X153515658Y-114507973D01*
X153515652Y-114507975D01*
X153272175Y-114583078D01*
X153042624Y-114693623D01*
X153042616Y-114693628D01*
X152881813Y-114803261D01*
X153531891Y-115453338D01*
X153393052Y-115540577D01*
X153265577Y-115668052D01*
X153178338Y-115806891D01*
X152528453Y-115157006D01*
X152486455Y-115209670D01*
X152359058Y-115430328D01*
X152265973Y-115667505D01*
X152265968Y-115667522D01*
X152209273Y-115915920D01*
X152190233Y-116169995D01*
X152190233Y-116170004D01*
X152209273Y-116424079D01*
X152265968Y-116672477D01*
X152265973Y-116672494D01*
X152360753Y-116913990D01*
X152358940Y-116914701D01*
X152368982Y-116975618D01*
X152341271Y-117039758D01*
X152283282Y-117078733D01*
X152245907Y-117084500D01*
X150464093Y-117084500D01*
X150397054Y-117064815D01*
X150351299Y-117012011D01*
X150341355Y-116942853D01*
X150350056Y-116914307D01*
X150349247Y-116913990D01*
X150444026Y-116672494D01*
X150444031Y-116672477D01*
X150500726Y-116424079D01*
X150519767Y-116170004D01*
X150519767Y-116169995D01*
X150500726Y-115915920D01*
X150444031Y-115667522D01*
X150444026Y-115667505D01*
X150350941Y-115430328D01*
X150350942Y-115430328D01*
X150223544Y-115209671D01*
X150181545Y-115157005D01*
X149531660Y-115806890D01*
X149444423Y-115668052D01*
X149316948Y-115540577D01*
X149178108Y-115453338D01*
X149828185Y-114803261D01*
X149667377Y-114693624D01*
X149667376Y-114693623D01*
X149437823Y-114583078D01*
X149437825Y-114583078D01*
X149194347Y-114507975D01*
X149194341Y-114507973D01*
X148942404Y-114470000D01*
X148687595Y-114470000D01*
X148435658Y-114507973D01*
X148435652Y-114507975D01*
X148192175Y-114583078D01*
X147962624Y-114693623D01*
X147962616Y-114693628D01*
X147801813Y-114803261D01*
X148451891Y-115453338D01*
X148313052Y-115540577D01*
X148185577Y-115668052D01*
X148098339Y-115806890D01*
X147448453Y-115157006D01*
X147406455Y-115209670D01*
X147279058Y-115430328D01*
X147185973Y-115667505D01*
X147185968Y-115667522D01*
X147129273Y-115915920D01*
X147110233Y-116169995D01*
X147110233Y-116170004D01*
X147129273Y-116424079D01*
X147185968Y-116672477D01*
X147185973Y-116672494D01*
X147279058Y-116909671D01*
X147279057Y-116909671D01*
X147406457Y-117130332D01*
X147448452Y-117182993D01*
X148098338Y-116533107D01*
X148185577Y-116671948D01*
X148313052Y-116799423D01*
X148451890Y-116886661D01*
X147801813Y-117536737D01*
X147962623Y-117646375D01*
X147962624Y-117646376D01*
X148192176Y-117756921D01*
X148192174Y-117756921D01*
X148435652Y-117832024D01*
X148435658Y-117832026D01*
X148687595Y-117869999D01*
X148687604Y-117870000D01*
X148942396Y-117870000D01*
X148942404Y-117869999D01*
X149194341Y-117832026D01*
X149194347Y-117832024D01*
X149437821Y-117756922D01*
X149551698Y-117702082D01*
X149620639Y-117690730D01*
X149684774Y-117718452D01*
X149723740Y-117776447D01*
X149729500Y-117813802D01*
X149729500Y-119606197D01*
X149709815Y-119673236D01*
X149657011Y-119718991D01*
X149587853Y-119728935D01*
X149551699Y-119717917D01*
X149437823Y-119663078D01*
X149437825Y-119663078D01*
X149194347Y-119587975D01*
X149194341Y-119587973D01*
X148942404Y-119550000D01*
X148687595Y-119550000D01*
X148435658Y-119587973D01*
X148435652Y-119587975D01*
X148192175Y-119663078D01*
X147962624Y-119773623D01*
X147962616Y-119773628D01*
X147801813Y-119883261D01*
X148451891Y-120533338D01*
X148313052Y-120620577D01*
X148185577Y-120748052D01*
X148098338Y-120886891D01*
X147448453Y-120237006D01*
X147406455Y-120289670D01*
X147279058Y-120510328D01*
X147185973Y-120747505D01*
X147185968Y-120747522D01*
X147129273Y-120995920D01*
X147110233Y-121249995D01*
X147110233Y-121250004D01*
X146650500Y-121250004D01*
X146650500Y-107349999D01*
X147014473Y-107349999D01*
X147034563Y-107682136D01*
X147034563Y-107682141D01*
X147034564Y-107682142D01*
X147094544Y-108009441D01*
X147094545Y-108009445D01*
X147094546Y-108009449D01*
X147193530Y-108327104D01*
X147193534Y-108327116D01*
X147193537Y-108327123D01*
X147330102Y-108630557D01*
X147502246Y-108915318D01*
X147502251Y-108915326D01*
X147707460Y-109177255D01*
X147942744Y-109412539D01*
X148204673Y-109617748D01*
X148204678Y-109617751D01*
X148204682Y-109617754D01*
X148489443Y-109789898D01*
X148792877Y-109926463D01*
X148792890Y-109926467D01*
X148792895Y-109926469D01*
X149004665Y-109992458D01*
X149110559Y-110025456D01*
X149437858Y-110085436D01*
X149770000Y-110105527D01*
X150102142Y-110085436D01*
X150429441Y-110025456D01*
X150747123Y-109926463D01*
X151050557Y-109789898D01*
X151335318Y-109617754D01*
X151343198Y-109611581D01*
X151411740Y-109557881D01*
X151597252Y-109412542D01*
X151832542Y-109177252D01*
X152011373Y-108948991D01*
X152037748Y-108915326D01*
X152037748Y-108915324D01*
X152037754Y-108915318D01*
X152209898Y-108630557D01*
X152223651Y-108600000D01*
X166089939Y-108600000D01*
X166110145Y-108830958D01*
X166110147Y-108830968D01*
X166170148Y-109054900D01*
X166170152Y-109054909D01*
X166268132Y-109265029D01*
X166268133Y-109265031D01*
X166323023Y-109343422D01*
X166323024Y-109343423D01*
X166817452Y-108848994D01*
X166827188Y-108878956D01*
X166915186Y-109017619D01*
X167034903Y-109130040D01*
X167169510Y-109204041D01*
X166676575Y-109696975D01*
X166754973Y-109751868D01*
X166965090Y-109849847D01*
X166965099Y-109849851D01*
X167189031Y-109909852D01*
X167189041Y-109909854D01*
X167419999Y-109930061D01*
X167420001Y-109930061D01*
X167650958Y-109909854D01*
X167650968Y-109909852D01*
X167874900Y-109849851D01*
X167874909Y-109849847D01*
X168085030Y-109751867D01*
X168163423Y-109696975D01*
X167939318Y-109472870D01*
X171094500Y-109472870D01*
X171094501Y-109472876D01*
X171100908Y-109532483D01*
X171151202Y-109667328D01*
X171151206Y-109667335D01*
X171237452Y-109782544D01*
X171237455Y-109782547D01*
X171352664Y-109868793D01*
X171352671Y-109868797D01*
X171487517Y-109919091D01*
X171487516Y-109919091D01*
X171494444Y-109919835D01*
X171547127Y-109925500D01*
X173292872Y-109925499D01*
X173352483Y-109919091D01*
X173487331Y-109868796D01*
X173602546Y-109782546D01*
X173688796Y-109667331D01*
X173739091Y-109532483D01*
X173745500Y-109472873D01*
X173745500Y-109356099D01*
X173765185Y-109289061D01*
X173817989Y-109243306D01*
X173869500Y-109232100D01*
X176125274Y-109232100D01*
X176192313Y-109251785D01*
X176224540Y-109281789D01*
X176287348Y-109365689D01*
X176311766Y-109431153D01*
X176296915Y-109499426D01*
X176287349Y-109514311D01*
X176221203Y-109602669D01*
X176221202Y-109602671D01*
X176170908Y-109737517D01*
X176164501Y-109797116D01*
X176164500Y-109797135D01*
X176164500Y-110702870D01*
X176164501Y-110702876D01*
X176170908Y-110762483D01*
X176221202Y-110897328D01*
X176221206Y-110897335D01*
X176307452Y-111012544D01*
X176307455Y-111012547D01*
X176422664Y-111098793D01*
X176422671Y-111098797D01*
X176557517Y-111149091D01*
X176557516Y-111149091D01*
X176564444Y-111149835D01*
X176617127Y-111155500D01*
X177642872Y-111155499D01*
X177702483Y-111149091D01*
X177837331Y-111098796D01*
X177952546Y-111012546D01*
X178019056Y-110923700D01*
X178035460Y-110901788D01*
X178091394Y-110859918D01*
X178134726Y-110852100D01*
X178255395Y-110852100D01*
X178322434Y-110871785D01*
X178365020Y-110920541D01*
X178365301Y-110920369D01*
X178366337Y-110922050D01*
X178367779Y-110923700D01*
X178369090Y-110926512D01*
X178369091Y-110926513D01*
X178369092Y-110926516D01*
X178459660Y-111073350D01*
X178581650Y-111195340D01*
X178728484Y-111285908D01*
X178892247Y-111340174D01*
X178993323Y-111350500D01*
X179566676Y-111350499D01*
X179566684Y-111350498D01*
X179566687Y-111350498D01*
X179622030Y-111344844D01*
X179667753Y-111340174D01*
X179831516Y-111285908D01*
X179978350Y-111195340D01*
X180100340Y-111073350D01*
X180190908Y-110926516D01*
X180245174Y-110762753D01*
X180255500Y-110661677D01*
X180255499Y-110063324D01*
X180251630Y-110025453D01*
X180245174Y-109962247D01*
X180245173Y-109962247D01*
X180190908Y-109798484D01*
X180100340Y-109651650D01*
X179986017Y-109537326D01*
X179952532Y-109476004D01*
X179957516Y-109406312D01*
X179986017Y-109361964D01*
X180099948Y-109248033D01*
X180190448Y-109101311D01*
X180190453Y-109101300D01*
X180244680Y-108937652D01*
X180254999Y-108836654D01*
X180255000Y-108836641D01*
X180255000Y-108787500D01*
X179154000Y-108787500D01*
X179086961Y-108767815D01*
X179041206Y-108715011D01*
X179030000Y-108663500D01*
X179030000Y-107550000D01*
X179530000Y-107550000D01*
X179530000Y-108287500D01*
X180254999Y-108287500D01*
X180254999Y-108238360D01*
X180254998Y-108238345D01*
X180244680Y-108137347D01*
X180190453Y-107973699D01*
X180190448Y-107973688D01*
X180099947Y-107826965D01*
X180099944Y-107826961D01*
X179978038Y-107705055D01*
X179978034Y-107705052D01*
X179831311Y-107614551D01*
X179831300Y-107614546D01*
X179667652Y-107560319D01*
X179566654Y-107550000D01*
X179530000Y-107550000D01*
X179030000Y-107550000D01*
X178993361Y-107550000D01*
X178993343Y-107550001D01*
X178892347Y-107560319D01*
X178728699Y-107614546D01*
X178728688Y-107614551D01*
X178581965Y-107705052D01*
X178581961Y-107705055D01*
X178460055Y-107826961D01*
X178460052Y-107826965D01*
X178369551Y-107973688D01*
X178369546Y-107973699D01*
X178323162Y-108113678D01*
X178283389Y-108171123D01*
X178218873Y-108197946D01*
X178150098Y-108185631D01*
X178098898Y-108138088D01*
X178089274Y-108118007D01*
X178038797Y-107982671D01*
X178038793Y-107982664D01*
X177952547Y-107867455D01*
X177952544Y-107867452D01*
X177837335Y-107781206D01*
X177837328Y-107781202D01*
X177702482Y-107730908D01*
X177702483Y-107730908D01*
X177642883Y-107724501D01*
X177642881Y-107724500D01*
X177642873Y-107724500D01*
X177642864Y-107724500D01*
X176617129Y-107724500D01*
X176617123Y-107724501D01*
X176557516Y-107730908D01*
X176422671Y-107781202D01*
X176422664Y-107781206D01*
X176307455Y-107867452D01*
X176224540Y-107978212D01*
X176168606Y-108020082D01*
X176125274Y-108027900D01*
X173869499Y-108027900D01*
X173802460Y-108008215D01*
X173756705Y-107955411D01*
X173745499Y-107903900D01*
X173745499Y-107727129D01*
X173745498Y-107727123D01*
X173745497Y-107727116D01*
X173739091Y-107667517D01*
X173695260Y-107550001D01*
X173688797Y-107532671D01*
X173688793Y-107532664D01*
X173602547Y-107417455D01*
X173602544Y-107417452D01*
X173512439Y-107349999D01*
X191264473Y-107349999D01*
X191284563Y-107682136D01*
X191284563Y-107682141D01*
X191284564Y-107682142D01*
X191344544Y-108009441D01*
X191344545Y-108009445D01*
X191344546Y-108009449D01*
X191443530Y-108327104D01*
X191443534Y-108327116D01*
X191443537Y-108327123D01*
X191580102Y-108630557D01*
X191752246Y-108915318D01*
X191752251Y-108915326D01*
X191957460Y-109177255D01*
X192192744Y-109412539D01*
X192454673Y-109617748D01*
X192454678Y-109617751D01*
X192454682Y-109617754D01*
X192739443Y-109789898D01*
X193042877Y-109926463D01*
X193042890Y-109926467D01*
X193042895Y-109926469D01*
X193254664Y-109992458D01*
X193360559Y-110025456D01*
X193687858Y-110085436D01*
X194020000Y-110105527D01*
X194352142Y-110085436D01*
X194679441Y-110025456D01*
X194997123Y-109926463D01*
X195300557Y-109789898D01*
X195585318Y-109617754D01*
X195593198Y-109611581D01*
X195661740Y-109557881D01*
X195847252Y-109412542D01*
X196082542Y-109177252D01*
X196261373Y-108948991D01*
X196287748Y-108915326D01*
X196287748Y-108915324D01*
X196287754Y-108915318D01*
X196459898Y-108630557D01*
X196596463Y-108327123D01*
X196695456Y-108009441D01*
X196755436Y-107682142D01*
X196775527Y-107350000D01*
X196755436Y-107017858D01*
X196695456Y-106690559D01*
X196596463Y-106372877D01*
X196459898Y-106069443D01*
X196287754Y-105784682D01*
X196287751Y-105784678D01*
X196287748Y-105784673D01*
X196082539Y-105522744D01*
X195847255Y-105287460D01*
X195585326Y-105082251D01*
X195585318Y-105082246D01*
X195300557Y-104910102D01*
X194997123Y-104773537D01*
X194997116Y-104773534D01*
X194997104Y-104773530D01*
X194679449Y-104674546D01*
X194679445Y-104674545D01*
X194679441Y-104674544D01*
X194352142Y-104614564D01*
X194352141Y-104614563D01*
X194352136Y-104614563D01*
X194020000Y-104594473D01*
X193687863Y-104614563D01*
X193687857Y-104614564D01*
X193687858Y-104614564D01*
X193360559Y-104674544D01*
X193360556Y-104674544D01*
X193360550Y-104674546D01*
X193042895Y-104773530D01*
X193042879Y-104773536D01*
X193042877Y-104773537D01*
X192849656Y-104860498D01*
X192739447Y-104910100D01*
X192739445Y-104910101D01*
X192454673Y-105082251D01*
X192192744Y-105287460D01*
X191957460Y-105522744D01*
X191752251Y-105784673D01*
X191580101Y-106069445D01*
X191580100Y-106069447D01*
X191443536Y-106372880D01*
X191443530Y-106372895D01*
X191344546Y-106690550D01*
X191284563Y-107017863D01*
X191264473Y-107349999D01*
X173512439Y-107349999D01*
X173487335Y-107331206D01*
X173487328Y-107331202D01*
X173352482Y-107280908D01*
X173352483Y-107280908D01*
X173292883Y-107274501D01*
X173292881Y-107274500D01*
X173292873Y-107274500D01*
X173292864Y-107274500D01*
X171547129Y-107274500D01*
X171547123Y-107274501D01*
X171487516Y-107280908D01*
X171352671Y-107331202D01*
X171352664Y-107331206D01*
X171237455Y-107417452D01*
X171237452Y-107417455D01*
X171151206Y-107532664D01*
X171151202Y-107532671D01*
X171100908Y-107667517D01*
X171096873Y-107705052D01*
X171094501Y-107727123D01*
X171094500Y-107727135D01*
X171094500Y-109472870D01*
X167939318Y-109472870D01*
X167667534Y-109201086D01*
X167735629Y-109174126D01*
X167868492Y-109077595D01*
X167973175Y-108951055D01*
X168021631Y-108848079D01*
X168516975Y-109343423D01*
X168571867Y-109265030D01*
X168669847Y-109054909D01*
X168669851Y-109054900D01*
X168729852Y-108830968D01*
X168729854Y-108830958D01*
X168750060Y-108600000D01*
X168750060Y-108599999D01*
X168729854Y-108369041D01*
X168729852Y-108369031D01*
X168669851Y-108145099D01*
X168669847Y-108145090D01*
X168571868Y-107934972D01*
X168516974Y-107856576D01*
X168022546Y-108351004D01*
X168012812Y-108321044D01*
X167924814Y-108182381D01*
X167805097Y-108069960D01*
X167670489Y-107995958D01*
X168163423Y-107503024D01*
X168163422Y-107503023D01*
X168085031Y-107448133D01*
X168085029Y-107448132D01*
X167874909Y-107350152D01*
X167874900Y-107350148D01*
X167650968Y-107290147D01*
X167650958Y-107290145D01*
X167420001Y-107269939D01*
X167419999Y-107269939D01*
X167189041Y-107290145D01*
X167189031Y-107290147D01*
X166965099Y-107350148D01*
X166965090Y-107350152D01*
X166754971Y-107448132D01*
X166754969Y-107448133D01*
X166676577Y-107503024D01*
X166676576Y-107503024D01*
X167172465Y-107998913D01*
X167104371Y-108025874D01*
X166971508Y-108122405D01*
X166866825Y-108248945D01*
X166818368Y-108351920D01*
X166323024Y-107856576D01*
X166323024Y-107856577D01*
X166268133Y-107934969D01*
X166268132Y-107934971D01*
X166170152Y-108145090D01*
X166170148Y-108145099D01*
X166110147Y-108369031D01*
X166110145Y-108369041D01*
X166089939Y-108599999D01*
X166089939Y-108600000D01*
X152223651Y-108600000D01*
X152346463Y-108327123D01*
X152445456Y-108009441D01*
X152505436Y-107682142D01*
X152525527Y-107350000D01*
X152505436Y-107017858D01*
X152445456Y-106690559D01*
X152346463Y-106372877D01*
X152209898Y-106069443D01*
X152037754Y-105784682D01*
X152037751Y-105784678D01*
X152037748Y-105784673D01*
X151832539Y-105522744D01*
X151597255Y-105287460D01*
X151335326Y-105082251D01*
X151335318Y-105082246D01*
X151050557Y-104910102D01*
X150747123Y-104773537D01*
X150747116Y-104773534D01*
X150747104Y-104773530D01*
X150429449Y-104674546D01*
X150429445Y-104674545D01*
X150429441Y-104674544D01*
X150102142Y-104614564D01*
X150102141Y-104614563D01*
X150102136Y-104614563D01*
X149770000Y-104594473D01*
X149437863Y-104614563D01*
X149437857Y-104614564D01*
X149437858Y-104614564D01*
X149110559Y-104674544D01*
X149110556Y-104674544D01*
X149110550Y-104674546D01*
X148792895Y-104773530D01*
X148792879Y-104773536D01*
X148792877Y-104773537D01*
X148599656Y-104860498D01*
X148489447Y-104910100D01*
X148489445Y-104910101D01*
X148204673Y-105082251D01*
X147942744Y-105287460D01*
X147707460Y-105522744D01*
X147502251Y-105784673D01*
X147330101Y-106069445D01*
X147330100Y-106069447D01*
X147193536Y-106372880D01*
X147193530Y-106372895D01*
X147094546Y-106690550D01*
X147034563Y-107017863D01*
X147014473Y-107349999D01*
X146650500Y-107349999D01*
X146650500Y-104234500D01*
X146670185Y-104167461D01*
X146722989Y-104121706D01*
X146774500Y-104110500D01*
X197325500Y-104110500D01*
X197392539Y-104130185D01*
G37*
%TD.AperFunction*%
%TD*%
M02*
