M48
; DRILL file {KiCad 7.0.5} date Sat Nov  4 20:08:42 2023
; FORMAT={-:-/ absolute / inch / decimal}
; #@! TF.CreationDate,2023-11-04T20:08:42-04:00
; #@! TF.GenerationSoftware,Kicad,Pcbnew,7.0.5
; #@! TF.FileFunction,Plated,1,4,PTH
FMAT,2
INCH
; #@! TA.AperFunction,Plated,PTH,ViaDrill
T1C0.0157
; #@! TA.AperFunction,Plated,PTH,ComponentDrill
T2C0.0512
; #@! TA.AperFunction,Plated,PTH,ComponentDrill
T3C0.0591
; #@! TA.AperFunction,Plated,PTH,ComponentDrill
T4C0.0630
; #@! TA.AperFunction,Plated,PTH,ComponentDrill
T5C0.1063
%
G90
G05
T1
X5.85Y-4.4
X5.85Y-4.9
X5.9Y-4.45
X6.0Y-4.4
X6.0Y-5.0
X6.05Y-4.3
X6.0863Y-4.1749
X6.1093Y-4.4684
X6.147Y-4.7252
X6.15Y-4.2
X6.15Y-4.9
X6.1709Y-4.6248
X6.1939Y-4.7252
X6.2Y-4.4
X6.2Y-5.05
X6.2Y-5.15
X6.2178Y-4.6248
X6.2408Y-4.7252
X6.2484Y-4.3038
X6.2647Y-4.6248
X6.2877Y-4.7252
X6.2892Y-4.485
X6.3Y-4.9
X6.3071Y-4.1928
X6.3116Y-4.6248
X6.3346Y-4.7252
X6.35Y-4.3
X6.35Y-4.4
X6.3585Y-4.6248
X6.3815Y-4.7252
X6.3862Y-5.0414
X6.3938Y-4.3702
X6.399Y-4.5475
X6.4055Y-4.6248
X6.4155Y-4.4493
X6.45Y-4.2
X6.4524Y-4.6248
X6.4749Y-4.7283
X6.4981Y-4.6276
X6.5Y-4.95
X6.5Y-5.15
X6.5218Y-4.7283
X6.545Y-4.6276
X6.5495Y-4.5501
X6.5687Y-4.7283
X6.5919Y-4.6276
X6.6Y-4.9
X6.6156Y-4.7283
X6.6388Y-4.6276
X6.65Y-5.15
X6.674Y-4.7276
X6.681Y-4.4978
X6.6857Y-4.6276
X6.7Y-5.05
X6.7094Y-4.7059
X6.7326Y-4.6276
X6.7563Y-4.7283
X6.7795Y-4.6276
X6.7881Y-4.545
X6.8Y-5.2
X6.8472Y-4.622
X6.85Y-4.95
X6.8689Y-4.5614
X6.9459Y-4.7764
X6.95Y-4.9
X6.95Y-5.1
X6.989Y-4.6705
X6.9928Y-4.7764
X7.0359Y-4.6705
X7.0397Y-4.7764
X7.0421Y-5.1651
X7.0614Y-4.5602
X7.072Y-4.6157
X7.0828Y-4.6705
X7.0866Y-4.7764
X7.102Y-4.9827
X7.1298Y-4.6705
X7.1331Y-4.2366
X7.15Y-4.4
X7.15Y-5.1
X7.1767Y-4.6705
X7.1957Y-4.7764
X7.2Y-4.55
X7.2236Y-4.6705
X7.2426Y-4.7764
X7.25Y-4.4
X7.25Y-5.2
X7.2705Y-4.6705
X7.2895Y-4.7764
X7.3Y-4.25
X7.3Y-5.0
X7.3011Y-4.8512
X7.3185Y-4.6713
X7.3449Y-4.7744
X7.3547Y-5.1269
X7.3611Y-4.5156
X7.3665Y-4.6783
X7.3879Y-4.3102
X7.3909Y-4.763
X7.4Y-4.25
X7.4Y-5.25
X7.42Y-4.68
X7.45Y-4.4
X7.45Y-5.0
X7.5Y-5.05
X7.7031Y-4.4085
T2
X6.5913Y-4.2756
X6.7882Y-4.2756
T3
X5.9589Y-4.6736
X7.5817Y-4.7244
T4
X5.8589Y-4.5736
X5.8589Y-4.7736
X6.0589Y-4.5736
X6.0589Y-4.7736
X7.4817Y-4.6244
X7.4817Y-4.8244
X7.6817Y-4.6244
X7.6817Y-4.8244
T5
X5.8965Y-4.2264
X5.8965Y-5.1547
X7.6386Y-4.2264
X7.6386Y-5.1547
T0
M30
