%TF.GenerationSoftware,KiCad,Pcbnew,7.0.5*%
%TF.CreationDate,2023-11-04T20:08:50-04:00*%
%TF.ProjectId,LNA,4c4e412e-6b69-4636-9164-5f7063625858,rev?*%
%TF.SameCoordinates,Original*%
%TF.FileFunction,Copper,L4,Bot*%
%TF.FilePolarity,Positive*%
%FSLAX46Y46*%
G04 Gerber Fmt 4.6, Leading zero omitted, Abs format (unit mm)*
G04 Created by KiCad (PCBNEW 7.0.5) date 2023-11-04 20:08:50*
%MOMM*%
%LPD*%
G01*
G04 APERTURE LIST*
%TA.AperFunction,ComponentPad*%
%ADD10R,2.250000X2.250000*%
%TD*%
%TA.AperFunction,ComponentPad*%
%ADD11C,2.400000*%
%TD*%
%TA.AperFunction,ComponentPad*%
%ADD12C,4.500000*%
%TD*%
%TA.AperFunction,ComponentPad*%
%ADD13R,1.650000X1.650000*%
%TD*%
%TA.AperFunction,ComponentPad*%
%ADD14C,1.650000*%
%TD*%
%TA.AperFunction,ViaPad*%
%ADD15C,0.800000*%
%TD*%
G04 APERTURE END LIST*
D10*
%TO.P,J2,1,1*%
%TO.N,LNA_INPUT*%
X151355000Y-118710000D03*
D11*
%TO.P,J2,2,2*%
%TO.N,GND*%
X153895000Y-121250000D03*
%TO.P,J2,3,3*%
X153895000Y-116170000D03*
%TO.P,J2,4,4*%
X148815000Y-116170000D03*
%TO.P,J2,5,5*%
X148815000Y-121250000D03*
%TD*%
D12*
%TO.P,,1*%
%TO.N,N/C*%
X149770000Y-130930000D03*
%TD*%
D13*
%TO.P,J1,01,01*%
%TO.N,+3.3V*%
X172420000Y-108600000D03*
D14*
%TO.P,J1,02,02*%
%TO.N,GND*%
X167420000Y-108600000D03*
%TD*%
D12*
%TO.P,,1*%
%TO.N,N/C*%
X194020000Y-130930000D03*
%TD*%
%TO.P,,1*%
%TO.N,N/C*%
X149770000Y-107350000D03*
%TD*%
D10*
%TO.P,J3,1,1*%
%TO.N,LNA_OUTPUT*%
X192575000Y-120000000D03*
D11*
%TO.P,J3,2,2*%
%TO.N,GND*%
X190035000Y-117460000D03*
%TO.P,J3,3,3*%
X190035000Y-122540000D03*
%TO.P,J3,4,4*%
X195115000Y-122540000D03*
%TO.P,J3,5,5*%
X195115000Y-117460000D03*
%TD*%
D12*
%TO.P,,1*%
%TO.N,N/C*%
X194020000Y-107350000D03*
%TD*%
D15*
%TO.N,GND*%
X171610000Y-120100000D03*
X165652856Y-120100000D03*
X187960000Y-133350000D03*
X181610000Y-111760000D03*
X163890000Y-117470000D03*
X152400000Y-127000000D03*
X186809272Y-130222354D03*
X178868558Y-131194686D03*
X169520000Y-120080000D03*
X185890000Y-118650000D03*
X178808568Y-121320000D03*
X188468000Y-118872000D03*
X160315712Y-117470000D03*
X182287140Y-118630000D03*
X190500000Y-128270000D03*
X158515712Y-120020000D03*
X165100000Y-130810000D03*
X172720000Y-132080000D03*
X156210000Y-124460000D03*
X158708870Y-109317211D03*
X182771428Y-121320000D03*
X163830000Y-106680000D03*
X166242856Y-117540000D03*
X152400000Y-111760000D03*
X179360000Y-115830000D03*
X181095712Y-118630000D03*
X183962856Y-121320000D03*
X159707140Y-120020000D03*
X189230000Y-127000000D03*
X155176063Y-113498239D03*
X164461428Y-120100000D03*
X178712856Y-118630000D03*
X165051428Y-117540000D03*
X174470000Y-115860000D03*
X170420000Y-119530000D03*
X184150000Y-132080000D03*
X168035712Y-120100000D03*
X185420000Y-127000000D03*
X168910000Y-130810000D03*
X162090000Y-120020000D03*
X162209266Y-128050812D03*
X166357884Y-115572548D03*
X157480000Y-111760000D03*
X186971327Y-114697449D03*
X187730000Y-120980000D03*
X185448007Y-123221562D03*
X185154284Y-121320000D03*
X181610000Y-129540000D03*
X157480000Y-128270000D03*
X156741428Y-117470000D03*
X156132856Y-120020000D03*
X161290000Y-109220000D03*
X161507140Y-117470000D03*
X162954721Y-113012073D03*
X184670000Y-118630000D03*
X173990000Y-125730000D03*
X159746024Y-113919583D03*
X157324284Y-120020000D03*
X187651960Y-109479266D03*
X180391879Y-126559902D03*
X182880000Y-115570000D03*
X168625712Y-117540000D03*
X176530000Y-129540000D03*
X181180000Y-107610000D03*
X171008568Y-117540000D03*
X187960000Y-107950000D03*
X176425712Y-121320000D03*
X148590000Y-111760000D03*
X162698568Y-117470000D03*
X153670000Y-109220000D03*
X179904284Y-118630000D03*
X172200000Y-117540000D03*
X167434284Y-117540000D03*
X169696224Y-114243694D03*
X170180000Y-128270000D03*
X185420000Y-107950000D03*
X177521428Y-118630000D03*
X149860000Y-113030000D03*
X195657495Y-111974919D03*
X184150000Y-111760000D03*
X177617140Y-121320000D03*
X157480000Y-130810000D03*
X186560000Y-121270000D03*
X169817140Y-117540000D03*
X176530000Y-124460000D03*
X180000000Y-121320000D03*
X162403732Y-111002586D03*
X160898568Y-120020000D03*
X172418755Y-115442904D03*
X165100000Y-125730000D03*
X189230000Y-111760000D03*
X161290000Y-111760000D03*
X162533377Y-115507726D03*
X187110000Y-118830000D03*
X159124284Y-117470000D03*
X160199779Y-106497447D03*
X148590000Y-124460000D03*
X166844284Y-120100000D03*
X157932856Y-117470000D03*
X160020000Y-124460000D03*
X167640000Y-124460000D03*
X154592663Y-106043692D03*
X183478568Y-118630000D03*
X156210000Y-106680000D03*
%TO.N,+3.3V*%
X173920000Y-117400000D03*
X179630000Y-117240000D03*
%TD*%
%TA.AperFunction,Conductor*%
%TO.N,GND*%
G36*
X197392539Y-104130185D02*
G01*
X197438294Y-104182989D01*
X197449500Y-104234500D01*
X197449500Y-133915500D01*
X197429815Y-133982539D01*
X197377011Y-134028294D01*
X197325500Y-134039500D01*
X146774500Y-134039500D01*
X146707461Y-134019815D01*
X146661706Y-133967011D01*
X146650500Y-133915500D01*
X146650500Y-130930000D01*
X147014473Y-130930000D01*
X147034563Y-131262136D01*
X147034563Y-131262141D01*
X147034564Y-131262142D01*
X147094544Y-131589441D01*
X147094545Y-131589445D01*
X147094546Y-131589449D01*
X147193530Y-131907104D01*
X147193534Y-131907116D01*
X147193537Y-131907123D01*
X147330102Y-132210557D01*
X147502246Y-132495318D01*
X147502251Y-132495326D01*
X147707460Y-132757255D01*
X147942744Y-132992539D01*
X148204673Y-133197748D01*
X148204678Y-133197751D01*
X148204682Y-133197754D01*
X148489443Y-133369898D01*
X148792877Y-133506463D01*
X148792890Y-133506467D01*
X148792895Y-133506469D01*
X149004665Y-133572458D01*
X149110559Y-133605456D01*
X149437858Y-133665436D01*
X149770000Y-133685527D01*
X150102142Y-133665436D01*
X150429441Y-133605456D01*
X150747123Y-133506463D01*
X151050557Y-133369898D01*
X151335318Y-133197754D01*
X151597252Y-132992542D01*
X151832542Y-132757252D01*
X152037754Y-132495318D01*
X152209898Y-132210557D01*
X152346463Y-131907123D01*
X152445456Y-131589441D01*
X152505436Y-131262142D01*
X152525527Y-130930000D01*
X152525527Y-130929999D01*
X191264473Y-130929999D01*
X191284563Y-131262136D01*
X191284563Y-131262141D01*
X191284564Y-131262142D01*
X191344544Y-131589441D01*
X191344545Y-131589445D01*
X191344546Y-131589449D01*
X191443530Y-131907104D01*
X191443534Y-131907116D01*
X191443537Y-131907123D01*
X191580102Y-132210557D01*
X191752246Y-132495318D01*
X191752251Y-132495326D01*
X191957460Y-132757255D01*
X192192744Y-132992539D01*
X192454673Y-133197748D01*
X192454678Y-133197751D01*
X192454682Y-133197754D01*
X192739443Y-133369898D01*
X193042877Y-133506463D01*
X193042890Y-133506467D01*
X193042895Y-133506469D01*
X193254665Y-133572458D01*
X193360559Y-133605456D01*
X193687858Y-133665436D01*
X194020000Y-133685527D01*
X194352142Y-133665436D01*
X194679441Y-133605456D01*
X194997123Y-133506463D01*
X195300557Y-133369898D01*
X195585318Y-133197754D01*
X195847252Y-132992542D01*
X196082542Y-132757252D01*
X196287754Y-132495318D01*
X196459898Y-132210557D01*
X196596463Y-131907123D01*
X196695456Y-131589441D01*
X196755436Y-131262142D01*
X196775527Y-130930000D01*
X196755436Y-130597858D01*
X196695456Y-130270559D01*
X196596463Y-129952877D01*
X196459898Y-129649443D01*
X196287754Y-129364682D01*
X196287751Y-129364678D01*
X196287748Y-129364673D01*
X196082539Y-129102744D01*
X195847255Y-128867460D01*
X195585326Y-128662251D01*
X195585318Y-128662246D01*
X195300557Y-128490102D01*
X194997123Y-128353537D01*
X194997116Y-128353534D01*
X194997104Y-128353530D01*
X194679449Y-128254546D01*
X194679445Y-128254545D01*
X194679441Y-128254544D01*
X194352142Y-128194564D01*
X194352141Y-128194563D01*
X194352136Y-128194563D01*
X194020000Y-128174473D01*
X193687863Y-128194563D01*
X193687857Y-128194564D01*
X193687858Y-128194564D01*
X193360559Y-128254544D01*
X193360556Y-128254544D01*
X193360550Y-128254546D01*
X193042895Y-128353530D01*
X193042879Y-128353536D01*
X193042877Y-128353537D01*
X192849656Y-128440498D01*
X192739447Y-128490100D01*
X192739445Y-128490101D01*
X192454673Y-128662251D01*
X192192744Y-128867460D01*
X191957460Y-129102744D01*
X191752251Y-129364673D01*
X191580101Y-129649445D01*
X191580100Y-129649447D01*
X191443536Y-129952880D01*
X191443530Y-129952895D01*
X191344546Y-130270550D01*
X191284563Y-130597863D01*
X191264473Y-130929999D01*
X152525527Y-130929999D01*
X152505436Y-130597858D01*
X152445456Y-130270559D01*
X152346463Y-129952877D01*
X152209898Y-129649443D01*
X152037754Y-129364682D01*
X152037751Y-129364678D01*
X152037748Y-129364673D01*
X151832539Y-129102744D01*
X151597255Y-128867460D01*
X151335326Y-128662251D01*
X151335318Y-128662246D01*
X151050557Y-128490102D01*
X150747123Y-128353537D01*
X150747116Y-128353534D01*
X150747104Y-128353530D01*
X150429449Y-128254546D01*
X150429445Y-128254545D01*
X150429441Y-128254544D01*
X150102142Y-128194564D01*
X150102141Y-128194563D01*
X150102136Y-128194563D01*
X149770000Y-128174473D01*
X149437863Y-128194563D01*
X149437857Y-128194564D01*
X149437858Y-128194564D01*
X149110559Y-128254544D01*
X149110556Y-128254544D01*
X149110550Y-128254546D01*
X148792895Y-128353530D01*
X148792879Y-128353536D01*
X148792877Y-128353537D01*
X148599656Y-128440498D01*
X148489447Y-128490100D01*
X148489445Y-128490101D01*
X148204673Y-128662251D01*
X147942744Y-128867460D01*
X147707460Y-129102744D01*
X147502251Y-129364673D01*
X147330101Y-129649445D01*
X147330100Y-129649447D01*
X147193536Y-129952880D01*
X147193530Y-129952895D01*
X147094546Y-130270550D01*
X147034563Y-130597863D01*
X147014473Y-130930000D01*
X146650500Y-130930000D01*
X146650500Y-121250004D01*
X147110233Y-121250004D01*
X147129273Y-121504079D01*
X147185968Y-121752477D01*
X147185973Y-121752494D01*
X147279058Y-121989671D01*
X147279057Y-121989671D01*
X147406457Y-122210332D01*
X147448452Y-122262993D01*
X147448453Y-122262993D01*
X148098338Y-121613108D01*
X148185577Y-121751948D01*
X148313052Y-121879423D01*
X148451890Y-121966661D01*
X147801813Y-122616737D01*
X147962623Y-122726375D01*
X147962624Y-122726376D01*
X148192176Y-122836921D01*
X148192174Y-122836921D01*
X148435652Y-122912024D01*
X148435658Y-122912026D01*
X148687595Y-122949999D01*
X148687604Y-122950000D01*
X148942396Y-122950000D01*
X148942404Y-122949999D01*
X149194341Y-122912026D01*
X149194347Y-122912024D01*
X149437824Y-122836921D01*
X149667381Y-122726373D01*
X149828185Y-122616737D01*
X149178108Y-121966661D01*
X149316948Y-121879423D01*
X149444423Y-121751948D01*
X149531661Y-121613108D01*
X150181545Y-122262993D01*
X150223545Y-122210327D01*
X150350941Y-121989671D01*
X150444026Y-121752494D01*
X150444031Y-121752477D01*
X150500726Y-121504079D01*
X150519767Y-121250004D01*
X150519767Y-121249995D01*
X150500726Y-120995920D01*
X150444031Y-120747522D01*
X150444026Y-120747505D01*
X150349247Y-120506010D01*
X150351051Y-120505301D01*
X150341023Y-120444341D01*
X150368755Y-120380210D01*
X150426756Y-120341254D01*
X150464087Y-120335499D01*
X152245907Y-120335499D01*
X152312946Y-120355184D01*
X152358701Y-120407988D01*
X152368645Y-120477146D01*
X152359947Y-120505693D01*
X152360753Y-120506010D01*
X152265973Y-120747505D01*
X152265968Y-120747522D01*
X152209273Y-120995920D01*
X152190233Y-121249995D01*
X152190233Y-121250004D01*
X152209273Y-121504079D01*
X152265968Y-121752477D01*
X152265973Y-121752494D01*
X152359058Y-121989671D01*
X152359057Y-121989671D01*
X152486457Y-122210332D01*
X152528452Y-122262993D01*
X153178338Y-121613107D01*
X153265577Y-121751948D01*
X153393052Y-121879423D01*
X153531890Y-121966661D01*
X152881813Y-122616737D01*
X153042623Y-122726375D01*
X153042624Y-122726376D01*
X153272176Y-122836921D01*
X153272174Y-122836921D01*
X153515652Y-122912024D01*
X153515658Y-122912026D01*
X153767595Y-122949999D01*
X153767604Y-122950000D01*
X154022396Y-122950000D01*
X154022404Y-122949999D01*
X154274341Y-122912026D01*
X154274347Y-122912024D01*
X154517824Y-122836921D01*
X154747381Y-122726373D01*
X154908185Y-122616737D01*
X154831452Y-122540004D01*
X188330233Y-122540004D01*
X188349273Y-122794079D01*
X188405968Y-123042477D01*
X188405973Y-123042494D01*
X188499058Y-123279671D01*
X188499057Y-123279671D01*
X188626457Y-123500332D01*
X188668452Y-123552993D01*
X188668453Y-123552993D01*
X189318338Y-122903108D01*
X189405577Y-123041948D01*
X189533052Y-123169423D01*
X189671890Y-123256660D01*
X189021813Y-123906737D01*
X189182623Y-124016375D01*
X189182624Y-124016376D01*
X189412176Y-124126921D01*
X189412174Y-124126921D01*
X189655652Y-124202024D01*
X189655658Y-124202026D01*
X189907595Y-124239999D01*
X189907604Y-124240000D01*
X190162396Y-124240000D01*
X190162404Y-124239999D01*
X190414341Y-124202026D01*
X190414347Y-124202024D01*
X190657824Y-124126921D01*
X190887381Y-124016373D01*
X191048185Y-123906737D01*
X190398109Y-123256660D01*
X190536948Y-123169423D01*
X190664423Y-123041948D01*
X190751661Y-122903108D01*
X191401545Y-123552993D01*
X191443545Y-123500327D01*
X191570941Y-123279671D01*
X191664026Y-123042494D01*
X191664031Y-123042477D01*
X191720726Y-122794079D01*
X191739767Y-122540004D01*
X191739767Y-122539995D01*
X191720726Y-122285920D01*
X191664031Y-122037522D01*
X191664026Y-122037505D01*
X191569247Y-121796010D01*
X191571051Y-121795301D01*
X191561023Y-121734341D01*
X191588755Y-121670210D01*
X191646756Y-121631254D01*
X191684087Y-121625499D01*
X193465907Y-121625499D01*
X193532946Y-121645184D01*
X193578701Y-121697988D01*
X193588645Y-121767146D01*
X193579947Y-121795693D01*
X193580753Y-121796010D01*
X193485973Y-122037505D01*
X193485968Y-122037522D01*
X193429273Y-122285920D01*
X193410233Y-122539995D01*
X193410233Y-122540004D01*
X193429273Y-122794079D01*
X193485968Y-123042477D01*
X193485973Y-123042494D01*
X193579058Y-123279671D01*
X193579057Y-123279671D01*
X193706457Y-123500332D01*
X193748452Y-123552993D01*
X194398338Y-122903107D01*
X194485577Y-123041948D01*
X194613052Y-123169423D01*
X194751890Y-123256661D01*
X194101813Y-123906737D01*
X194262623Y-124016375D01*
X194262624Y-124016376D01*
X194492176Y-124126921D01*
X194492174Y-124126921D01*
X194735652Y-124202024D01*
X194735658Y-124202026D01*
X194987595Y-124239999D01*
X194987604Y-124240000D01*
X195242396Y-124240000D01*
X195242404Y-124239999D01*
X195494341Y-124202026D01*
X195494347Y-124202024D01*
X195737824Y-124126921D01*
X195967381Y-124016373D01*
X196128185Y-123906737D01*
X195478108Y-123256661D01*
X195616948Y-123169423D01*
X195744423Y-123041948D01*
X195831661Y-122903108D01*
X196481545Y-123552993D01*
X196523545Y-123500327D01*
X196650941Y-123279671D01*
X196744026Y-123042494D01*
X196744031Y-123042477D01*
X196800726Y-122794079D01*
X196819767Y-122540004D01*
X196819767Y-122539995D01*
X196800726Y-122285920D01*
X196744031Y-122037522D01*
X196744026Y-122037505D01*
X196650941Y-121800328D01*
X196650942Y-121800328D01*
X196523544Y-121579671D01*
X196481546Y-121527006D01*
X195831661Y-122176890D01*
X195744423Y-122038052D01*
X195616948Y-121910577D01*
X195478108Y-121823338D01*
X196128185Y-121173261D01*
X195967377Y-121063624D01*
X195967376Y-121063623D01*
X195737823Y-120953078D01*
X195737825Y-120953078D01*
X195494347Y-120877975D01*
X195494341Y-120877973D01*
X195242404Y-120840000D01*
X194987595Y-120840000D01*
X194735658Y-120877973D01*
X194735652Y-120877975D01*
X194492175Y-120953078D01*
X194378300Y-121007918D01*
X194309359Y-121019270D01*
X194245225Y-120991548D01*
X194206259Y-120933552D01*
X194200499Y-120896203D01*
X194200499Y-119103801D01*
X194220184Y-119036763D01*
X194272988Y-118991008D01*
X194342146Y-118981064D01*
X194378300Y-118992082D01*
X194492176Y-119046921D01*
X194492174Y-119046921D01*
X194735652Y-119122024D01*
X194735658Y-119122026D01*
X194987595Y-119159999D01*
X194987604Y-119160000D01*
X195242396Y-119160000D01*
X195242404Y-119159999D01*
X195494341Y-119122026D01*
X195494347Y-119122024D01*
X195737824Y-119046921D01*
X195967381Y-118936373D01*
X196128185Y-118826737D01*
X195478108Y-118176661D01*
X195616948Y-118089423D01*
X195744423Y-117961948D01*
X195831661Y-117823108D01*
X196481545Y-118472993D01*
X196523545Y-118420327D01*
X196650941Y-118199671D01*
X196744026Y-117962494D01*
X196744031Y-117962477D01*
X196800726Y-117714079D01*
X196819767Y-117460004D01*
X196819767Y-117459995D01*
X196800726Y-117205920D01*
X196744031Y-116957522D01*
X196744026Y-116957505D01*
X196650941Y-116720328D01*
X196650942Y-116720328D01*
X196523544Y-116499671D01*
X196481546Y-116447006D01*
X195831661Y-117096890D01*
X195744423Y-116958052D01*
X195616948Y-116830577D01*
X195478108Y-116743338D01*
X196128185Y-116093261D01*
X195967377Y-115983624D01*
X195967376Y-115983623D01*
X195737823Y-115873078D01*
X195737825Y-115873078D01*
X195494347Y-115797975D01*
X195494341Y-115797973D01*
X195242404Y-115760000D01*
X194987595Y-115760000D01*
X194735658Y-115797973D01*
X194735652Y-115797975D01*
X194492175Y-115873078D01*
X194262624Y-115983623D01*
X194262616Y-115983628D01*
X194101813Y-116093261D01*
X194751891Y-116743338D01*
X194613052Y-116830577D01*
X194485577Y-116958052D01*
X194398338Y-117096891D01*
X193748453Y-116447006D01*
X193706455Y-116499670D01*
X193579058Y-116720328D01*
X193485973Y-116957505D01*
X193485968Y-116957522D01*
X193429273Y-117205920D01*
X193410233Y-117459995D01*
X193410233Y-117460004D01*
X193429273Y-117714079D01*
X193485968Y-117962477D01*
X193485973Y-117962494D01*
X193580753Y-118203990D01*
X193578940Y-118204701D01*
X193588982Y-118265618D01*
X193561271Y-118329758D01*
X193503282Y-118368733D01*
X193465907Y-118374500D01*
X191684093Y-118374500D01*
X191617054Y-118354815D01*
X191571299Y-118302011D01*
X191561355Y-118232853D01*
X191570056Y-118204307D01*
X191569247Y-118203990D01*
X191664026Y-117962494D01*
X191664031Y-117962477D01*
X191720726Y-117714079D01*
X191739767Y-117460004D01*
X191739767Y-117459995D01*
X191720726Y-117205920D01*
X191664031Y-116957522D01*
X191664026Y-116957505D01*
X191570941Y-116720328D01*
X191570942Y-116720328D01*
X191443544Y-116499671D01*
X191401545Y-116447005D01*
X190751660Y-117096890D01*
X190664423Y-116958052D01*
X190536948Y-116830577D01*
X190398108Y-116743338D01*
X191048185Y-116093261D01*
X190887377Y-115983624D01*
X190887376Y-115983623D01*
X190657823Y-115873078D01*
X190657825Y-115873078D01*
X190414347Y-115797975D01*
X190414341Y-115797973D01*
X190162404Y-115760000D01*
X189907595Y-115760000D01*
X189655658Y-115797973D01*
X189655652Y-115797975D01*
X189412175Y-115873078D01*
X189182624Y-115983623D01*
X189182616Y-115983628D01*
X189021813Y-116093261D01*
X189671891Y-116743338D01*
X189533052Y-116830577D01*
X189405577Y-116958052D01*
X189318338Y-117096891D01*
X188668453Y-116447006D01*
X188626455Y-116499670D01*
X188499058Y-116720328D01*
X188405973Y-116957505D01*
X188405968Y-116957522D01*
X188349273Y-117205920D01*
X188330233Y-117459995D01*
X188330233Y-117460004D01*
X188349273Y-117714079D01*
X188405968Y-117962477D01*
X188405973Y-117962494D01*
X188499058Y-118199671D01*
X188499057Y-118199671D01*
X188626457Y-118420332D01*
X188668452Y-118472993D01*
X188668453Y-118472993D01*
X189318338Y-117823108D01*
X189405577Y-117961948D01*
X189533052Y-118089423D01*
X189671890Y-118176661D01*
X189021813Y-118826737D01*
X189182623Y-118936375D01*
X189182624Y-118936376D01*
X189412176Y-119046921D01*
X189412174Y-119046921D01*
X189655652Y-119122024D01*
X189655658Y-119122026D01*
X189907595Y-119159999D01*
X189907604Y-119160000D01*
X190162396Y-119160000D01*
X190162404Y-119159999D01*
X190414341Y-119122026D01*
X190414347Y-119122024D01*
X190657821Y-119046922D01*
X190771698Y-118992082D01*
X190840639Y-118980730D01*
X190904774Y-119008452D01*
X190943740Y-119066447D01*
X190949500Y-119103802D01*
X190949500Y-120896197D01*
X190929815Y-120963236D01*
X190877011Y-121008991D01*
X190807853Y-121018935D01*
X190771699Y-121007917D01*
X190657823Y-120953078D01*
X190657825Y-120953078D01*
X190414347Y-120877975D01*
X190414341Y-120877973D01*
X190162404Y-120840000D01*
X189907595Y-120840000D01*
X189655658Y-120877973D01*
X189655652Y-120877975D01*
X189412175Y-120953078D01*
X189182624Y-121063623D01*
X189182616Y-121063628D01*
X189021813Y-121173261D01*
X189671891Y-121823338D01*
X189533052Y-121910577D01*
X189405577Y-122038052D01*
X189318338Y-122176891D01*
X188668453Y-121527006D01*
X188626455Y-121579670D01*
X188499058Y-121800328D01*
X188405973Y-122037505D01*
X188405968Y-122037522D01*
X188349273Y-122285920D01*
X188330233Y-122539995D01*
X188330233Y-122540004D01*
X154831452Y-122540004D01*
X154258108Y-121966661D01*
X154396948Y-121879423D01*
X154524423Y-121751948D01*
X154611661Y-121613109D01*
X155261545Y-122262993D01*
X155303545Y-122210327D01*
X155430941Y-121989671D01*
X155524026Y-121752494D01*
X155524031Y-121752477D01*
X155580726Y-121504079D01*
X155599767Y-121250004D01*
X155599767Y-121249995D01*
X155580726Y-120995920D01*
X155524031Y-120747522D01*
X155524026Y-120747505D01*
X155430941Y-120510328D01*
X155430942Y-120510328D01*
X155303544Y-120289671D01*
X155261545Y-120237005D01*
X154611660Y-120886890D01*
X154524423Y-120748052D01*
X154396948Y-120620577D01*
X154258108Y-120533338D01*
X154908185Y-119883261D01*
X154747377Y-119773624D01*
X154747376Y-119773623D01*
X154517823Y-119663078D01*
X154517825Y-119663078D01*
X154274347Y-119587975D01*
X154274341Y-119587973D01*
X154022404Y-119550000D01*
X153767595Y-119550000D01*
X153515658Y-119587973D01*
X153515652Y-119587975D01*
X153272175Y-119663078D01*
X153158300Y-119717918D01*
X153089359Y-119729270D01*
X153025225Y-119701548D01*
X152986259Y-119643552D01*
X152980499Y-119606203D01*
X152980499Y-117813801D01*
X153000184Y-117746763D01*
X153052988Y-117701008D01*
X153122146Y-117691064D01*
X153158300Y-117702082D01*
X153272176Y-117756921D01*
X153272174Y-117756921D01*
X153515652Y-117832024D01*
X153515658Y-117832026D01*
X153767595Y-117869999D01*
X153767604Y-117870000D01*
X154022396Y-117870000D01*
X154022404Y-117869999D01*
X154274341Y-117832026D01*
X154274347Y-117832024D01*
X154517824Y-117756921D01*
X154747381Y-117646373D01*
X154908185Y-117536737D01*
X154771448Y-117400000D01*
X173014540Y-117400000D01*
X173034326Y-117588256D01*
X173034327Y-117588259D01*
X173092818Y-117768277D01*
X173092821Y-117768284D01*
X173187467Y-117932216D01*
X173214730Y-117962494D01*
X173314129Y-118072888D01*
X173467265Y-118184148D01*
X173467270Y-118184151D01*
X173640192Y-118261142D01*
X173640197Y-118261144D01*
X173825354Y-118300500D01*
X173825355Y-118300500D01*
X174014644Y-118300500D01*
X174014646Y-118300500D01*
X174199803Y-118261144D01*
X174372730Y-118184151D01*
X174525871Y-118072888D01*
X174652533Y-117932216D01*
X174747179Y-117768284D01*
X174805674Y-117588256D01*
X174825460Y-117400000D01*
X174808644Y-117240000D01*
X178724540Y-117240000D01*
X178744326Y-117428256D01*
X178744327Y-117428259D01*
X178802818Y-117608277D01*
X178802821Y-117608284D01*
X178897467Y-117772216D01*
X179024128Y-117912888D01*
X179024129Y-117912888D01*
X179177265Y-118024148D01*
X179177270Y-118024151D01*
X179350192Y-118101142D01*
X179350197Y-118101144D01*
X179535354Y-118140500D01*
X179535355Y-118140500D01*
X179724644Y-118140500D01*
X179724646Y-118140500D01*
X179909803Y-118101144D01*
X180082730Y-118024151D01*
X180235871Y-117912888D01*
X180362533Y-117772216D01*
X180457179Y-117608284D01*
X180515674Y-117428256D01*
X180535460Y-117240000D01*
X180515674Y-117051744D01*
X180457179Y-116871716D01*
X180362533Y-116707784D01*
X180235871Y-116567112D01*
X180235870Y-116567111D01*
X180082734Y-116455851D01*
X180082729Y-116455848D01*
X179909807Y-116378857D01*
X179909802Y-116378855D01*
X179764001Y-116347865D01*
X179724646Y-116339500D01*
X179535354Y-116339500D01*
X179502897Y-116346398D01*
X179350197Y-116378855D01*
X179350192Y-116378857D01*
X179177270Y-116455848D01*
X179177265Y-116455851D01*
X179024129Y-116567111D01*
X178897466Y-116707785D01*
X178802821Y-116871715D01*
X178802818Y-116871722D01*
X178744327Y-117051740D01*
X178744326Y-117051744D01*
X178724540Y-117240000D01*
X174808644Y-117240000D01*
X174805674Y-117211744D01*
X174747179Y-117031716D01*
X174652533Y-116867784D01*
X174525871Y-116727112D01*
X174499270Y-116707785D01*
X174372734Y-116615851D01*
X174372729Y-116615848D01*
X174199807Y-116538857D01*
X174199802Y-116538855D01*
X174015450Y-116499671D01*
X174014646Y-116499500D01*
X173825354Y-116499500D01*
X173824550Y-116499671D01*
X173640197Y-116538855D01*
X173640192Y-116538857D01*
X173467270Y-116615848D01*
X173467265Y-116615851D01*
X173314129Y-116727111D01*
X173187466Y-116867785D01*
X173092821Y-117031715D01*
X173092818Y-117031722D01*
X173036218Y-117205920D01*
X173034326Y-117211744D01*
X173014540Y-117400000D01*
X154771448Y-117400000D01*
X154258108Y-116886661D01*
X154396948Y-116799423D01*
X154524423Y-116671948D01*
X154611661Y-116533108D01*
X155261545Y-117182993D01*
X155303545Y-117130327D01*
X155430941Y-116909671D01*
X155524026Y-116672494D01*
X155524031Y-116672477D01*
X155580726Y-116424079D01*
X155599767Y-116170004D01*
X155599767Y-116169995D01*
X155580726Y-115915920D01*
X155524031Y-115667522D01*
X155524026Y-115667505D01*
X155430941Y-115430328D01*
X155430942Y-115430328D01*
X155303544Y-115209671D01*
X155261546Y-115157006D01*
X154611661Y-115806890D01*
X154524423Y-115668052D01*
X154396948Y-115540577D01*
X154258108Y-115453338D01*
X154908185Y-114803261D01*
X154747377Y-114693624D01*
X154747376Y-114693623D01*
X154517823Y-114583078D01*
X154517825Y-114583078D01*
X154274347Y-114507975D01*
X154274341Y-114507973D01*
X154022404Y-114470000D01*
X153767595Y-114470000D01*
X153515658Y-114507973D01*
X153515652Y-114507975D01*
X153272175Y-114583078D01*
X153042624Y-114693623D01*
X153042616Y-114693628D01*
X152881813Y-114803261D01*
X153531891Y-115453338D01*
X153393052Y-115540577D01*
X153265577Y-115668052D01*
X153178338Y-115806891D01*
X152528453Y-115157006D01*
X152486455Y-115209670D01*
X152359058Y-115430328D01*
X152265973Y-115667505D01*
X152265968Y-115667522D01*
X152209273Y-115915920D01*
X152190233Y-116169995D01*
X152190233Y-116170004D01*
X152209273Y-116424079D01*
X152265968Y-116672477D01*
X152265973Y-116672494D01*
X152360753Y-116913990D01*
X152358940Y-116914701D01*
X152368982Y-116975618D01*
X152341271Y-117039758D01*
X152283282Y-117078733D01*
X152245907Y-117084500D01*
X150464093Y-117084500D01*
X150397054Y-117064815D01*
X150351299Y-117012011D01*
X150341355Y-116942853D01*
X150350056Y-116914307D01*
X150349247Y-116913990D01*
X150444026Y-116672494D01*
X150444031Y-116672477D01*
X150500726Y-116424079D01*
X150519767Y-116170004D01*
X150519767Y-116169995D01*
X150500726Y-115915920D01*
X150444031Y-115667522D01*
X150444026Y-115667505D01*
X150350941Y-115430328D01*
X150350942Y-115430328D01*
X150223544Y-115209671D01*
X150181545Y-115157005D01*
X149531660Y-115806890D01*
X149444423Y-115668052D01*
X149316948Y-115540577D01*
X149178108Y-115453338D01*
X149828185Y-114803261D01*
X149667377Y-114693624D01*
X149667376Y-114693623D01*
X149437823Y-114583078D01*
X149437825Y-114583078D01*
X149194347Y-114507975D01*
X149194341Y-114507973D01*
X148942404Y-114470000D01*
X148687595Y-114470000D01*
X148435658Y-114507973D01*
X148435652Y-114507975D01*
X148192175Y-114583078D01*
X147962624Y-114693623D01*
X147962616Y-114693628D01*
X147801813Y-114803261D01*
X148451891Y-115453338D01*
X148313052Y-115540577D01*
X148185577Y-115668052D01*
X148098339Y-115806890D01*
X147448453Y-115157006D01*
X147406455Y-115209670D01*
X147279058Y-115430328D01*
X147185973Y-115667505D01*
X147185968Y-115667522D01*
X147129273Y-115915920D01*
X147110233Y-116169995D01*
X147110233Y-116170004D01*
X147129273Y-116424079D01*
X147185968Y-116672477D01*
X147185973Y-116672494D01*
X147279058Y-116909671D01*
X147279057Y-116909671D01*
X147406457Y-117130332D01*
X147448452Y-117182993D01*
X148098338Y-116533107D01*
X148185577Y-116671948D01*
X148313052Y-116799423D01*
X148451890Y-116886661D01*
X147801813Y-117536737D01*
X147962623Y-117646375D01*
X147962624Y-117646376D01*
X148192176Y-117756921D01*
X148192174Y-117756921D01*
X148435652Y-117832024D01*
X148435658Y-117832026D01*
X148687595Y-117869999D01*
X148687604Y-117870000D01*
X148942396Y-117870000D01*
X148942404Y-117869999D01*
X149194341Y-117832026D01*
X149194347Y-117832024D01*
X149437821Y-117756922D01*
X149551698Y-117702082D01*
X149620639Y-117690730D01*
X149684774Y-117718452D01*
X149723740Y-117776447D01*
X149729500Y-117813802D01*
X149729500Y-119606197D01*
X149709815Y-119673236D01*
X149657011Y-119718991D01*
X149587853Y-119728935D01*
X149551699Y-119717917D01*
X149437823Y-119663078D01*
X149437825Y-119663078D01*
X149194347Y-119587975D01*
X149194341Y-119587973D01*
X148942404Y-119550000D01*
X148687595Y-119550000D01*
X148435658Y-119587973D01*
X148435652Y-119587975D01*
X148192175Y-119663078D01*
X147962624Y-119773623D01*
X147962616Y-119773628D01*
X147801813Y-119883261D01*
X148451891Y-120533338D01*
X148313052Y-120620577D01*
X148185577Y-120748052D01*
X148098338Y-120886891D01*
X147448453Y-120237006D01*
X147406455Y-120289670D01*
X147279058Y-120510328D01*
X147185973Y-120747505D01*
X147185968Y-120747522D01*
X147129273Y-120995920D01*
X147110233Y-121249995D01*
X147110233Y-121250004D01*
X146650500Y-121250004D01*
X146650500Y-107349999D01*
X147014473Y-107349999D01*
X147034563Y-107682136D01*
X147034563Y-107682141D01*
X147034564Y-107682142D01*
X147094544Y-108009441D01*
X147094545Y-108009445D01*
X147094546Y-108009449D01*
X147193530Y-108327104D01*
X147193534Y-108327116D01*
X147193537Y-108327123D01*
X147330102Y-108630557D01*
X147502246Y-108915318D01*
X147502251Y-108915326D01*
X147707460Y-109177255D01*
X147942744Y-109412539D01*
X148204673Y-109617748D01*
X148204678Y-109617751D01*
X148204682Y-109617754D01*
X148489443Y-109789898D01*
X148792877Y-109926463D01*
X148792890Y-109926467D01*
X148792895Y-109926469D01*
X149004665Y-109992458D01*
X149110559Y-110025456D01*
X149437858Y-110085436D01*
X149770000Y-110105527D01*
X150102142Y-110085436D01*
X150429441Y-110025456D01*
X150747123Y-109926463D01*
X151050557Y-109789898D01*
X151335318Y-109617754D01*
X151597252Y-109412542D01*
X151832542Y-109177252D01*
X152037754Y-108915318D01*
X152209898Y-108630557D01*
X152223651Y-108600000D01*
X166089939Y-108600000D01*
X166110145Y-108830958D01*
X166110147Y-108830968D01*
X166170148Y-109054900D01*
X166170152Y-109054909D01*
X166268132Y-109265029D01*
X166268133Y-109265031D01*
X166323023Y-109343422D01*
X166323024Y-109343423D01*
X166817452Y-108848994D01*
X166827188Y-108878956D01*
X166915186Y-109017619D01*
X167034903Y-109130040D01*
X167169510Y-109204041D01*
X166676575Y-109696975D01*
X166754973Y-109751868D01*
X166965090Y-109849847D01*
X166965099Y-109849851D01*
X167189031Y-109909852D01*
X167189041Y-109909854D01*
X167419999Y-109930061D01*
X167420001Y-109930061D01*
X167650958Y-109909854D01*
X167650968Y-109909852D01*
X167874900Y-109849851D01*
X167874909Y-109849847D01*
X168085030Y-109751867D01*
X168163423Y-109696975D01*
X167939318Y-109472870D01*
X171094500Y-109472870D01*
X171094501Y-109472876D01*
X171100908Y-109532483D01*
X171151202Y-109667328D01*
X171151206Y-109667335D01*
X171237452Y-109782544D01*
X171237455Y-109782547D01*
X171352664Y-109868793D01*
X171352671Y-109868797D01*
X171487517Y-109919091D01*
X171487516Y-109919091D01*
X171494444Y-109919835D01*
X171547127Y-109925500D01*
X173292872Y-109925499D01*
X173352483Y-109919091D01*
X173487331Y-109868796D01*
X173602546Y-109782546D01*
X173688796Y-109667331D01*
X173739091Y-109532483D01*
X173745500Y-109472873D01*
X173745499Y-107727128D01*
X173739091Y-107667517D01*
X173688796Y-107532669D01*
X173688795Y-107532668D01*
X173688793Y-107532664D01*
X173602547Y-107417455D01*
X173602544Y-107417452D01*
X173512439Y-107349999D01*
X191264473Y-107349999D01*
X191284563Y-107682136D01*
X191284563Y-107682141D01*
X191284564Y-107682142D01*
X191344544Y-108009441D01*
X191344545Y-108009445D01*
X191344546Y-108009449D01*
X191443530Y-108327104D01*
X191443534Y-108327116D01*
X191443537Y-108327123D01*
X191580102Y-108630557D01*
X191752246Y-108915318D01*
X191752251Y-108915326D01*
X191957460Y-109177255D01*
X192192744Y-109412539D01*
X192454673Y-109617748D01*
X192454678Y-109617751D01*
X192454682Y-109617754D01*
X192739443Y-109789898D01*
X193042877Y-109926463D01*
X193042890Y-109926467D01*
X193042895Y-109926469D01*
X193254664Y-109992458D01*
X193360559Y-110025456D01*
X193687858Y-110085436D01*
X194020000Y-110105527D01*
X194352142Y-110085436D01*
X194679441Y-110025456D01*
X194997123Y-109926463D01*
X195300557Y-109789898D01*
X195585318Y-109617754D01*
X195847252Y-109412542D01*
X196082542Y-109177252D01*
X196287754Y-108915318D01*
X196459898Y-108630557D01*
X196596463Y-108327123D01*
X196695456Y-108009441D01*
X196755436Y-107682142D01*
X196775527Y-107350000D01*
X196755436Y-107017858D01*
X196695456Y-106690559D01*
X196596463Y-106372877D01*
X196459898Y-106069443D01*
X196287754Y-105784682D01*
X196287751Y-105784678D01*
X196287748Y-105784673D01*
X196082539Y-105522744D01*
X195847255Y-105287460D01*
X195585326Y-105082251D01*
X195585318Y-105082246D01*
X195300557Y-104910102D01*
X194997123Y-104773537D01*
X194997116Y-104773534D01*
X194997104Y-104773530D01*
X194679449Y-104674546D01*
X194679445Y-104674545D01*
X194679441Y-104674544D01*
X194352142Y-104614564D01*
X194352141Y-104614563D01*
X194352136Y-104614563D01*
X194020000Y-104594473D01*
X193687863Y-104614563D01*
X193687857Y-104614564D01*
X193687858Y-104614564D01*
X193360559Y-104674544D01*
X193360556Y-104674544D01*
X193360550Y-104674546D01*
X193042895Y-104773530D01*
X193042879Y-104773536D01*
X193042877Y-104773537D01*
X192849656Y-104860498D01*
X192739447Y-104910100D01*
X192739445Y-104910101D01*
X192454673Y-105082251D01*
X192192744Y-105287460D01*
X191957460Y-105522744D01*
X191752251Y-105784673D01*
X191580101Y-106069445D01*
X191580100Y-106069447D01*
X191443536Y-106372880D01*
X191443530Y-106372895D01*
X191344546Y-106690550D01*
X191284563Y-107017863D01*
X191264473Y-107349999D01*
X173512439Y-107349999D01*
X173487335Y-107331206D01*
X173487328Y-107331202D01*
X173352482Y-107280908D01*
X173352483Y-107280908D01*
X173292883Y-107274501D01*
X173292881Y-107274500D01*
X173292873Y-107274500D01*
X173292864Y-107274500D01*
X171547129Y-107274500D01*
X171547123Y-107274501D01*
X171487516Y-107280908D01*
X171352671Y-107331202D01*
X171352664Y-107331206D01*
X171237455Y-107417452D01*
X171237452Y-107417455D01*
X171151206Y-107532664D01*
X171151202Y-107532671D01*
X171100908Y-107667517D01*
X171094501Y-107727116D01*
X171094501Y-107727123D01*
X171094500Y-107727135D01*
X171094500Y-109472870D01*
X167939318Y-109472870D01*
X167667534Y-109201086D01*
X167735629Y-109174126D01*
X167868492Y-109077595D01*
X167973175Y-108951055D01*
X168021631Y-108848079D01*
X168516975Y-109343423D01*
X168571867Y-109265030D01*
X168669847Y-109054909D01*
X168669851Y-109054900D01*
X168729852Y-108830968D01*
X168729854Y-108830958D01*
X168750060Y-108600000D01*
X168750060Y-108599999D01*
X168729854Y-108369041D01*
X168729852Y-108369031D01*
X168669851Y-108145099D01*
X168669847Y-108145090D01*
X168571868Y-107934972D01*
X168516974Y-107856576D01*
X168022546Y-108351004D01*
X168012812Y-108321044D01*
X167924814Y-108182381D01*
X167805097Y-108069960D01*
X167670489Y-107995958D01*
X168163423Y-107503024D01*
X168163422Y-107503023D01*
X168085031Y-107448133D01*
X168085029Y-107448132D01*
X167874909Y-107350152D01*
X167874900Y-107350148D01*
X167650968Y-107290147D01*
X167650958Y-107290145D01*
X167420001Y-107269939D01*
X167419999Y-107269939D01*
X167189041Y-107290145D01*
X167189031Y-107290147D01*
X166965099Y-107350148D01*
X166965090Y-107350152D01*
X166754971Y-107448132D01*
X166754969Y-107448133D01*
X166676577Y-107503024D01*
X166676576Y-107503024D01*
X167172465Y-107998913D01*
X167104371Y-108025874D01*
X166971508Y-108122405D01*
X166866825Y-108248945D01*
X166818368Y-108351920D01*
X166323024Y-107856576D01*
X166323024Y-107856577D01*
X166268133Y-107934969D01*
X166268132Y-107934971D01*
X166170152Y-108145090D01*
X166170148Y-108145099D01*
X166110147Y-108369031D01*
X166110145Y-108369041D01*
X166089939Y-108599999D01*
X166089939Y-108600000D01*
X152223651Y-108600000D01*
X152346463Y-108327123D01*
X152445456Y-108009441D01*
X152505436Y-107682142D01*
X152525527Y-107350000D01*
X152505436Y-107017858D01*
X152445456Y-106690559D01*
X152346463Y-106372877D01*
X152209898Y-106069443D01*
X152037754Y-105784682D01*
X152037751Y-105784678D01*
X152037748Y-105784673D01*
X151832539Y-105522744D01*
X151597255Y-105287460D01*
X151335326Y-105082251D01*
X151335318Y-105082246D01*
X151050557Y-104910102D01*
X150747123Y-104773537D01*
X150747116Y-104773534D01*
X150747104Y-104773530D01*
X150429449Y-104674546D01*
X150429445Y-104674545D01*
X150429441Y-104674544D01*
X150102142Y-104614564D01*
X150102141Y-104614563D01*
X150102136Y-104614563D01*
X149770000Y-104594473D01*
X149437863Y-104614563D01*
X149437857Y-104614564D01*
X149437858Y-104614564D01*
X149110559Y-104674544D01*
X149110556Y-104674544D01*
X149110550Y-104674546D01*
X148792895Y-104773530D01*
X148792879Y-104773536D01*
X148792877Y-104773537D01*
X148599656Y-104860498D01*
X148489447Y-104910100D01*
X148489445Y-104910101D01*
X148204673Y-105082251D01*
X147942744Y-105287460D01*
X147707460Y-105522744D01*
X147502251Y-105784673D01*
X147330101Y-106069445D01*
X147330100Y-106069447D01*
X147193536Y-106372880D01*
X147193530Y-106372895D01*
X147094546Y-106690550D01*
X147034563Y-107017863D01*
X147014473Y-107349999D01*
X146650500Y-107349999D01*
X146650500Y-104234500D01*
X146670185Y-104167461D01*
X146722989Y-104121706D01*
X146774500Y-104110500D01*
X197325500Y-104110500D01*
X197392539Y-104130185D01*
G37*
%TD.AperFunction*%
%TD*%
M02*
