%TF.GenerationSoftware,KiCad,Pcbnew,7.0.5*%
%TF.CreationDate,2023-11-04T20:08:50-04:00*%
%TF.ProjectId,LNA,4c4e412e-6b69-4636-9164-5f7063625858,rev?*%
%TF.SameCoordinates,Original*%
%TF.FileFunction,Legend,Top*%
%TF.FilePolarity,Positive*%
%FSLAX46Y46*%
G04 Gerber Fmt 4.6, Leading zero omitted, Abs format (unit mm)*
G04 Created by KiCad (PCBNEW 7.0.5) date 2023-11-04 20:08:50*
%MOMM*%
%LPD*%
G01*
G04 APERTURE LIST*
%ADD10C,0.300000*%
%ADD11C,0.076200*%
%ADD12C,0.150000*%
%ADD13C,0.254000*%
%ADD14C,0.158750*%
%ADD15C,0.120000*%
%ADD16C,0.100000*%
%ADD17C,0.200000*%
%ADD18C,0.127000*%
G04 APERTURE END LIST*
D10*
X166924510Y-110989400D02*
X168067368Y-110989400D01*
D11*
X190742029Y-114929143D02*
X190379172Y-114929143D01*
X190379172Y-114929143D02*
X190379172Y-114167143D01*
X190996029Y-114929143D02*
X190996029Y-114167143D01*
X190996029Y-114167143D02*
X191431458Y-114929143D01*
X191431458Y-114929143D02*
X191431458Y-114167143D01*
X191758029Y-114711429D02*
X192120887Y-114711429D01*
X191685458Y-114929143D02*
X191939458Y-114167143D01*
X191939458Y-114167143D02*
X192193458Y-114929143D01*
X193173172Y-114167143D02*
X193318315Y-114167143D01*
X193318315Y-114167143D02*
X193390886Y-114203429D01*
X193390886Y-114203429D02*
X193463458Y-114276000D01*
X193463458Y-114276000D02*
X193499743Y-114421143D01*
X193499743Y-114421143D02*
X193499743Y-114675143D01*
X193499743Y-114675143D02*
X193463458Y-114820286D01*
X193463458Y-114820286D02*
X193390886Y-114892858D01*
X193390886Y-114892858D02*
X193318315Y-114929143D01*
X193318315Y-114929143D02*
X193173172Y-114929143D01*
X193173172Y-114929143D02*
X193100601Y-114892858D01*
X193100601Y-114892858D02*
X193028029Y-114820286D01*
X193028029Y-114820286D02*
X192991743Y-114675143D01*
X192991743Y-114675143D02*
X192991743Y-114421143D01*
X192991743Y-114421143D02*
X193028029Y-114276000D01*
X193028029Y-114276000D02*
X193100601Y-114203429D01*
X193100601Y-114203429D02*
X193173172Y-114167143D01*
X193826315Y-114167143D02*
X193826315Y-114784000D01*
X193826315Y-114784000D02*
X193862601Y-114856572D01*
X193862601Y-114856572D02*
X193898887Y-114892858D01*
X193898887Y-114892858D02*
X193971458Y-114929143D01*
X193971458Y-114929143D02*
X194116601Y-114929143D01*
X194116601Y-114929143D02*
X194189172Y-114892858D01*
X194189172Y-114892858D02*
X194225458Y-114856572D01*
X194225458Y-114856572D02*
X194261744Y-114784000D01*
X194261744Y-114784000D02*
X194261744Y-114167143D01*
X194515744Y-114167143D02*
X194951173Y-114167143D01*
X194733458Y-114929143D02*
X194733458Y-114167143D01*
X195205172Y-114929143D02*
X195205172Y-114167143D01*
X195205172Y-114167143D02*
X195495458Y-114167143D01*
X195495458Y-114167143D02*
X195568029Y-114203429D01*
X195568029Y-114203429D02*
X195604315Y-114239715D01*
X195604315Y-114239715D02*
X195640601Y-114312286D01*
X195640601Y-114312286D02*
X195640601Y-114421143D01*
X195640601Y-114421143D02*
X195604315Y-114493715D01*
X195604315Y-114493715D02*
X195568029Y-114530000D01*
X195568029Y-114530000D02*
X195495458Y-114566286D01*
X195495458Y-114566286D02*
X195205172Y-114566286D01*
X195967172Y-114167143D02*
X195967172Y-114784000D01*
X195967172Y-114784000D02*
X196003458Y-114856572D01*
X196003458Y-114856572D02*
X196039744Y-114892858D01*
X196039744Y-114892858D02*
X196112315Y-114929143D01*
X196112315Y-114929143D02*
X196257458Y-114929143D01*
X196257458Y-114929143D02*
X196330029Y-114892858D01*
X196330029Y-114892858D02*
X196366315Y-114856572D01*
X196366315Y-114856572D02*
X196402601Y-114784000D01*
X196402601Y-114784000D02*
X196402601Y-114167143D01*
X196656601Y-114167143D02*
X197092030Y-114167143D01*
X196874315Y-114929143D02*
X196874315Y-114167143D01*
X148348343Y-113827166D02*
X147985486Y-113827166D01*
X147985486Y-113827166D02*
X147985486Y-113065166D01*
X148602343Y-113827166D02*
X148602343Y-113065166D01*
X148602343Y-113065166D02*
X149037772Y-113827166D01*
X149037772Y-113827166D02*
X149037772Y-113065166D01*
X149364343Y-113609452D02*
X149727201Y-113609452D01*
X149291772Y-113827166D02*
X149545772Y-113065166D01*
X149545772Y-113065166D02*
X149799772Y-113827166D01*
X150634343Y-113827166D02*
X150634343Y-113065166D01*
X150997200Y-113827166D02*
X150997200Y-113065166D01*
X150997200Y-113065166D02*
X151432629Y-113827166D01*
X151432629Y-113827166D02*
X151432629Y-113065166D01*
X151795486Y-113827166D02*
X151795486Y-113065166D01*
X151795486Y-113065166D02*
X152085772Y-113065166D01*
X152085772Y-113065166D02*
X152158343Y-113101452D01*
X152158343Y-113101452D02*
X152194629Y-113137738D01*
X152194629Y-113137738D02*
X152230915Y-113210309D01*
X152230915Y-113210309D02*
X152230915Y-113319166D01*
X152230915Y-113319166D02*
X152194629Y-113391738D01*
X152194629Y-113391738D02*
X152158343Y-113428023D01*
X152158343Y-113428023D02*
X152085772Y-113464309D01*
X152085772Y-113464309D02*
X151795486Y-113464309D01*
X152557486Y-113065166D02*
X152557486Y-113682023D01*
X152557486Y-113682023D02*
X152593772Y-113754595D01*
X152593772Y-113754595D02*
X152630058Y-113790881D01*
X152630058Y-113790881D02*
X152702629Y-113827166D01*
X152702629Y-113827166D02*
X152847772Y-113827166D01*
X152847772Y-113827166D02*
X152920343Y-113790881D01*
X152920343Y-113790881D02*
X152956629Y-113754595D01*
X152956629Y-113754595D02*
X152992915Y-113682023D01*
X152992915Y-113682023D02*
X152992915Y-113065166D01*
X153246915Y-113065166D02*
X153682344Y-113065166D01*
X153464629Y-113827166D02*
X153464629Y-113065166D01*
D10*
X172004510Y-110989400D02*
X173147368Y-110989400D01*
X172575939Y-111560828D02*
X172575939Y-110417971D01*
X156208796Y-131880828D02*
X155494510Y-131880828D01*
X155494510Y-131880828D02*
X155494510Y-130380828D01*
X156923082Y-131880828D02*
X156780225Y-131809400D01*
X156780225Y-131809400D02*
X156708796Y-131737971D01*
X156708796Y-131737971D02*
X156637368Y-131595114D01*
X156637368Y-131595114D02*
X156637368Y-131166542D01*
X156637368Y-131166542D02*
X156708796Y-131023685D01*
X156708796Y-131023685D02*
X156780225Y-130952257D01*
X156780225Y-130952257D02*
X156923082Y-130880828D01*
X156923082Y-130880828D02*
X157137368Y-130880828D01*
X157137368Y-130880828D02*
X157280225Y-130952257D01*
X157280225Y-130952257D02*
X157351654Y-131023685D01*
X157351654Y-131023685D02*
X157423082Y-131166542D01*
X157423082Y-131166542D02*
X157423082Y-131595114D01*
X157423082Y-131595114D02*
X157351654Y-131737971D01*
X157351654Y-131737971D02*
X157280225Y-131809400D01*
X157280225Y-131809400D02*
X157137368Y-131880828D01*
X157137368Y-131880828D02*
X156923082Y-131880828D01*
X157923082Y-130880828D02*
X158208797Y-131880828D01*
X158208797Y-131880828D02*
X158494511Y-131166542D01*
X158494511Y-131166542D02*
X158780225Y-131880828D01*
X158780225Y-131880828D02*
X159065939Y-130880828D01*
X160780225Y-131880828D02*
X160780225Y-130380828D01*
X160780225Y-130380828D02*
X161637368Y-131880828D01*
X161637368Y-131880828D02*
X161637368Y-130380828D01*
X162565940Y-131880828D02*
X162423083Y-131809400D01*
X162423083Y-131809400D02*
X162351654Y-131737971D01*
X162351654Y-131737971D02*
X162280226Y-131595114D01*
X162280226Y-131595114D02*
X162280226Y-131166542D01*
X162280226Y-131166542D02*
X162351654Y-131023685D01*
X162351654Y-131023685D02*
X162423083Y-130952257D01*
X162423083Y-130952257D02*
X162565940Y-130880828D01*
X162565940Y-130880828D02*
X162780226Y-130880828D01*
X162780226Y-130880828D02*
X162923083Y-130952257D01*
X162923083Y-130952257D02*
X162994512Y-131023685D01*
X162994512Y-131023685D02*
X163065940Y-131166542D01*
X163065940Y-131166542D02*
X163065940Y-131595114D01*
X163065940Y-131595114D02*
X162994512Y-131737971D01*
X162994512Y-131737971D02*
X162923083Y-131809400D01*
X162923083Y-131809400D02*
X162780226Y-131880828D01*
X162780226Y-131880828D02*
X162565940Y-131880828D01*
X163708797Y-131880828D02*
X163708797Y-130880828D01*
X163708797Y-130380828D02*
X163637369Y-130452257D01*
X163637369Y-130452257D02*
X163708797Y-130523685D01*
X163708797Y-130523685D02*
X163780226Y-130452257D01*
X163780226Y-130452257D02*
X163708797Y-130380828D01*
X163708797Y-130380828D02*
X163708797Y-130523685D01*
X164351655Y-131809400D02*
X164494512Y-131880828D01*
X164494512Y-131880828D02*
X164780226Y-131880828D01*
X164780226Y-131880828D02*
X164923083Y-131809400D01*
X164923083Y-131809400D02*
X164994512Y-131666542D01*
X164994512Y-131666542D02*
X164994512Y-131595114D01*
X164994512Y-131595114D02*
X164923083Y-131452257D01*
X164923083Y-131452257D02*
X164780226Y-131380828D01*
X164780226Y-131380828D02*
X164565941Y-131380828D01*
X164565941Y-131380828D02*
X164423083Y-131309400D01*
X164423083Y-131309400D02*
X164351655Y-131166542D01*
X164351655Y-131166542D02*
X164351655Y-131095114D01*
X164351655Y-131095114D02*
X164423083Y-130952257D01*
X164423083Y-130952257D02*
X164565941Y-130880828D01*
X164565941Y-130880828D02*
X164780226Y-130880828D01*
X164780226Y-130880828D02*
X164923083Y-130952257D01*
X166208798Y-131809400D02*
X166065941Y-131880828D01*
X166065941Y-131880828D02*
X165780227Y-131880828D01*
X165780227Y-131880828D02*
X165637369Y-131809400D01*
X165637369Y-131809400D02*
X165565941Y-131666542D01*
X165565941Y-131666542D02*
X165565941Y-131095114D01*
X165565941Y-131095114D02*
X165637369Y-130952257D01*
X165637369Y-130952257D02*
X165780227Y-130880828D01*
X165780227Y-130880828D02*
X166065941Y-130880828D01*
X166065941Y-130880828D02*
X166208798Y-130952257D01*
X166208798Y-130952257D02*
X166280227Y-131095114D01*
X166280227Y-131095114D02*
X166280227Y-131237971D01*
X166280227Y-131237971D02*
X165565941Y-131380828D01*
X167994512Y-131452257D02*
X168708798Y-131452257D01*
X167851655Y-131880828D02*
X168351655Y-130380828D01*
X168351655Y-130380828D02*
X168851655Y-131880828D01*
X169351654Y-131880828D02*
X169351654Y-130880828D01*
X169351654Y-131023685D02*
X169423083Y-130952257D01*
X169423083Y-130952257D02*
X169565940Y-130880828D01*
X169565940Y-130880828D02*
X169780226Y-130880828D01*
X169780226Y-130880828D02*
X169923083Y-130952257D01*
X169923083Y-130952257D02*
X169994512Y-131095114D01*
X169994512Y-131095114D02*
X169994512Y-131880828D01*
X169994512Y-131095114D02*
X170065940Y-130952257D01*
X170065940Y-130952257D02*
X170208797Y-130880828D01*
X170208797Y-130880828D02*
X170423083Y-130880828D01*
X170423083Y-130880828D02*
X170565940Y-130952257D01*
X170565940Y-130952257D02*
X170637369Y-131095114D01*
X170637369Y-131095114D02*
X170637369Y-131880828D01*
X171351654Y-130880828D02*
X171351654Y-132380828D01*
X171351654Y-130952257D02*
X171494512Y-130880828D01*
X171494512Y-130880828D02*
X171780226Y-130880828D01*
X171780226Y-130880828D02*
X171923083Y-130952257D01*
X171923083Y-130952257D02*
X171994512Y-131023685D01*
X171994512Y-131023685D02*
X172065940Y-131166542D01*
X172065940Y-131166542D02*
X172065940Y-131595114D01*
X172065940Y-131595114D02*
X171994512Y-131737971D01*
X171994512Y-131737971D02*
X171923083Y-131809400D01*
X171923083Y-131809400D02*
X171780226Y-131880828D01*
X171780226Y-131880828D02*
X171494512Y-131880828D01*
X171494512Y-131880828D02*
X171351654Y-131809400D01*
X172923083Y-131880828D02*
X172780226Y-131809400D01*
X172780226Y-131809400D02*
X172708797Y-131666542D01*
X172708797Y-131666542D02*
X172708797Y-130380828D01*
X173494511Y-131880828D02*
X173494511Y-130880828D01*
X173494511Y-130380828D02*
X173423083Y-130452257D01*
X173423083Y-130452257D02*
X173494511Y-130523685D01*
X173494511Y-130523685D02*
X173565940Y-130452257D01*
X173565940Y-130452257D02*
X173494511Y-130380828D01*
X173494511Y-130380828D02*
X173494511Y-130523685D01*
X173994512Y-130880828D02*
X174565940Y-130880828D01*
X174208797Y-131880828D02*
X174208797Y-130595114D01*
X174208797Y-130595114D02*
X174280226Y-130452257D01*
X174280226Y-130452257D02*
X174423083Y-130380828D01*
X174423083Y-130380828D02*
X174565940Y-130380828D01*
X175065940Y-131880828D02*
X175065940Y-130880828D01*
X175065940Y-130380828D02*
X174994512Y-130452257D01*
X174994512Y-130452257D02*
X175065940Y-130523685D01*
X175065940Y-130523685D02*
X175137369Y-130452257D01*
X175137369Y-130452257D02*
X175065940Y-130380828D01*
X175065940Y-130380828D02*
X175065940Y-130523685D01*
X176351655Y-131809400D02*
X176208798Y-131880828D01*
X176208798Y-131880828D02*
X175923084Y-131880828D01*
X175923084Y-131880828D02*
X175780226Y-131809400D01*
X175780226Y-131809400D02*
X175708798Y-131666542D01*
X175708798Y-131666542D02*
X175708798Y-131095114D01*
X175708798Y-131095114D02*
X175780226Y-130952257D01*
X175780226Y-130952257D02*
X175923084Y-130880828D01*
X175923084Y-130880828D02*
X176208798Y-130880828D01*
X176208798Y-130880828D02*
X176351655Y-130952257D01*
X176351655Y-130952257D02*
X176423084Y-131095114D01*
X176423084Y-131095114D02*
X176423084Y-131237971D01*
X176423084Y-131237971D02*
X175708798Y-131380828D01*
X177065940Y-131880828D02*
X177065940Y-130880828D01*
X177065940Y-131166542D02*
X177137369Y-131023685D01*
X177137369Y-131023685D02*
X177208798Y-130952257D01*
X177208798Y-130952257D02*
X177351655Y-130880828D01*
X177351655Y-130880828D02*
X177494512Y-130880828D01*
D11*
X155425559Y-132853639D02*
X155534416Y-132889925D01*
X155534416Y-132889925D02*
X155570702Y-132926211D01*
X155570702Y-132926211D02*
X155606988Y-132998782D01*
X155606988Y-132998782D02*
X155606988Y-133107639D01*
X155606988Y-133107639D02*
X155570702Y-133180211D01*
X155570702Y-133180211D02*
X155534416Y-133216497D01*
X155534416Y-133216497D02*
X155461845Y-133252782D01*
X155461845Y-133252782D02*
X155171559Y-133252782D01*
X155171559Y-133252782D02*
X155171559Y-132490782D01*
X155171559Y-132490782D02*
X155425559Y-132490782D01*
X155425559Y-132490782D02*
X155498131Y-132527068D01*
X155498131Y-132527068D02*
X155534416Y-132563354D01*
X155534416Y-132563354D02*
X155570702Y-132635925D01*
X155570702Y-132635925D02*
X155570702Y-132708497D01*
X155570702Y-132708497D02*
X155534416Y-132781068D01*
X155534416Y-132781068D02*
X155498131Y-132817354D01*
X155498131Y-132817354D02*
X155425559Y-132853639D01*
X155425559Y-132853639D02*
X155171559Y-132853639D01*
X155860988Y-132744782D02*
X156042416Y-133252782D01*
X156223845Y-132744782D02*
X156042416Y-133252782D01*
X156042416Y-133252782D02*
X155969845Y-133434211D01*
X155969845Y-133434211D02*
X155933559Y-133470497D01*
X155933559Y-133470497D02*
X155860988Y-133506782D01*
X156514130Y-133180211D02*
X156550416Y-133216497D01*
X156550416Y-133216497D02*
X156514130Y-133252782D01*
X156514130Y-133252782D02*
X156477844Y-133216497D01*
X156477844Y-133216497D02*
X156514130Y-133180211D01*
X156514130Y-133180211D02*
X156514130Y-133252782D01*
X156514130Y-132781068D02*
X156550416Y-132817354D01*
X156550416Y-132817354D02*
X156514130Y-132853639D01*
X156514130Y-132853639D02*
X156477844Y-132817354D01*
X156477844Y-132817354D02*
X156514130Y-132781068D01*
X156514130Y-132781068D02*
X156514130Y-132853639D01*
X157457558Y-133252782D02*
X157457558Y-132490782D01*
X157457558Y-132490782D02*
X157747844Y-132490782D01*
X157747844Y-132490782D02*
X157820415Y-132527068D01*
X157820415Y-132527068D02*
X157856701Y-132563354D01*
X157856701Y-132563354D02*
X157892987Y-132635925D01*
X157892987Y-132635925D02*
X157892987Y-132744782D01*
X157892987Y-132744782D02*
X157856701Y-132817354D01*
X157856701Y-132817354D02*
X157820415Y-132853639D01*
X157820415Y-132853639D02*
X157747844Y-132889925D01*
X157747844Y-132889925D02*
X157457558Y-132889925D01*
X158546130Y-133252782D02*
X158546130Y-132853639D01*
X158546130Y-132853639D02*
X158509844Y-132781068D01*
X158509844Y-132781068D02*
X158437272Y-132744782D01*
X158437272Y-132744782D02*
X158292130Y-132744782D01*
X158292130Y-132744782D02*
X158219558Y-132781068D01*
X158546130Y-133216497D02*
X158473558Y-133252782D01*
X158473558Y-133252782D02*
X158292130Y-133252782D01*
X158292130Y-133252782D02*
X158219558Y-133216497D01*
X158219558Y-133216497D02*
X158183272Y-133143925D01*
X158183272Y-133143925D02*
X158183272Y-133071354D01*
X158183272Y-133071354D02*
X158219558Y-132998782D01*
X158219558Y-132998782D02*
X158292130Y-132962497D01*
X158292130Y-132962497D02*
X158473558Y-132962497D01*
X158473558Y-132962497D02*
X158546130Y-132926211D01*
X158800130Y-132744782D02*
X159090416Y-132744782D01*
X158908987Y-132490782D02*
X158908987Y-133143925D01*
X158908987Y-133143925D02*
X158945273Y-133216497D01*
X158945273Y-133216497D02*
X159017844Y-133252782D01*
X159017844Y-133252782D02*
X159090416Y-133252782D01*
X159344416Y-133252782D02*
X159344416Y-132744782D01*
X159344416Y-132889925D02*
X159380702Y-132817354D01*
X159380702Y-132817354D02*
X159416988Y-132781068D01*
X159416988Y-132781068D02*
X159489559Y-132744782D01*
X159489559Y-132744782D02*
X159562130Y-132744782D01*
X159816130Y-133252782D02*
X159816130Y-132744782D01*
X159816130Y-132490782D02*
X159779844Y-132527068D01*
X159779844Y-132527068D02*
X159816130Y-132563354D01*
X159816130Y-132563354D02*
X159852416Y-132527068D01*
X159852416Y-132527068D02*
X159816130Y-132490782D01*
X159816130Y-132490782D02*
X159816130Y-132563354D01*
X160505559Y-133216497D02*
X160432987Y-133252782D01*
X160432987Y-133252782D02*
X160287844Y-133252782D01*
X160287844Y-133252782D02*
X160215273Y-133216497D01*
X160215273Y-133216497D02*
X160178987Y-133180211D01*
X160178987Y-133180211D02*
X160142701Y-133107639D01*
X160142701Y-133107639D02*
X160142701Y-132889925D01*
X160142701Y-132889925D02*
X160178987Y-132817354D01*
X160178987Y-132817354D02*
X160215273Y-132781068D01*
X160215273Y-132781068D02*
X160287844Y-132744782D01*
X160287844Y-132744782D02*
X160432987Y-132744782D01*
X160432987Y-132744782D02*
X160505559Y-132781068D01*
X160832130Y-133252782D02*
X160832130Y-132490782D01*
X160904702Y-132962497D02*
X161122416Y-133252782D01*
X161122416Y-132744782D02*
X160832130Y-133035068D01*
X162283558Y-132853639D02*
X162392415Y-132889925D01*
X162392415Y-132889925D02*
X162428701Y-132926211D01*
X162428701Y-132926211D02*
X162464987Y-132998782D01*
X162464987Y-132998782D02*
X162464987Y-133107639D01*
X162464987Y-133107639D02*
X162428701Y-133180211D01*
X162428701Y-133180211D02*
X162392415Y-133216497D01*
X162392415Y-133216497D02*
X162319844Y-133252782D01*
X162319844Y-133252782D02*
X162029558Y-133252782D01*
X162029558Y-133252782D02*
X162029558Y-132490782D01*
X162029558Y-132490782D02*
X162283558Y-132490782D01*
X162283558Y-132490782D02*
X162356130Y-132527068D01*
X162356130Y-132527068D02*
X162392415Y-132563354D01*
X162392415Y-132563354D02*
X162428701Y-132635925D01*
X162428701Y-132635925D02*
X162428701Y-132708497D01*
X162428701Y-132708497D02*
X162392415Y-132781068D01*
X162392415Y-132781068D02*
X162356130Y-132817354D01*
X162356130Y-132817354D02*
X162283558Y-132853639D01*
X162283558Y-132853639D02*
X162029558Y-132853639D01*
X162900415Y-133252782D02*
X162827844Y-133216497D01*
X162827844Y-133216497D02*
X162791558Y-133143925D01*
X162791558Y-133143925D02*
X162791558Y-132490782D01*
X163517273Y-133252782D02*
X163517273Y-132853639D01*
X163517273Y-132853639D02*
X163480987Y-132781068D01*
X163480987Y-132781068D02*
X163408415Y-132744782D01*
X163408415Y-132744782D02*
X163263273Y-132744782D01*
X163263273Y-132744782D02*
X163190701Y-132781068D01*
X163517273Y-133216497D02*
X163444701Y-133252782D01*
X163444701Y-133252782D02*
X163263273Y-133252782D01*
X163263273Y-133252782D02*
X163190701Y-133216497D01*
X163190701Y-133216497D02*
X163154415Y-133143925D01*
X163154415Y-133143925D02*
X163154415Y-133071354D01*
X163154415Y-133071354D02*
X163190701Y-132998782D01*
X163190701Y-132998782D02*
X163263273Y-132962497D01*
X163263273Y-132962497D02*
X163444701Y-132962497D01*
X163444701Y-132962497D02*
X163517273Y-132926211D01*
X163880130Y-132744782D02*
X163880130Y-133252782D01*
X163880130Y-132817354D02*
X163916416Y-132781068D01*
X163916416Y-132781068D02*
X163988987Y-132744782D01*
X163988987Y-132744782D02*
X164097844Y-132744782D01*
X164097844Y-132744782D02*
X164170416Y-132781068D01*
X164170416Y-132781068D02*
X164206702Y-132853639D01*
X164206702Y-132853639D02*
X164206702Y-133252782D01*
X164896131Y-133216497D02*
X164823559Y-133252782D01*
X164823559Y-133252782D02*
X164678416Y-133252782D01*
X164678416Y-133252782D02*
X164605845Y-133216497D01*
X164605845Y-133216497D02*
X164569559Y-133180211D01*
X164569559Y-133180211D02*
X164533273Y-133107639D01*
X164533273Y-133107639D02*
X164533273Y-132889925D01*
X164533273Y-132889925D02*
X164569559Y-132817354D01*
X164569559Y-132817354D02*
X164605845Y-132781068D01*
X164605845Y-132781068D02*
X164678416Y-132744782D01*
X164678416Y-132744782D02*
X164823559Y-132744782D01*
X164823559Y-132744782D02*
X164896131Y-132781068D01*
X165222702Y-133252782D02*
X165222702Y-132490782D01*
X165549274Y-133252782D02*
X165549274Y-132853639D01*
X165549274Y-132853639D02*
X165512988Y-132781068D01*
X165512988Y-132781068D02*
X165440416Y-132744782D01*
X165440416Y-132744782D02*
X165331559Y-132744782D01*
X165331559Y-132744782D02*
X165258988Y-132781068D01*
X165258988Y-132781068D02*
X165222702Y-132817354D01*
X166238703Y-133252782D02*
X166238703Y-132853639D01*
X166238703Y-132853639D02*
X166202417Y-132781068D01*
X166202417Y-132781068D02*
X166129845Y-132744782D01*
X166129845Y-132744782D02*
X165984703Y-132744782D01*
X165984703Y-132744782D02*
X165912131Y-132781068D01*
X166238703Y-133216497D02*
X166166131Y-133252782D01*
X166166131Y-133252782D02*
X165984703Y-133252782D01*
X165984703Y-133252782D02*
X165912131Y-133216497D01*
X165912131Y-133216497D02*
X165875845Y-133143925D01*
X165875845Y-133143925D02*
X165875845Y-133071354D01*
X165875845Y-133071354D02*
X165912131Y-132998782D01*
X165912131Y-132998782D02*
X165984703Y-132962497D01*
X165984703Y-132962497D02*
X166166131Y-132962497D01*
X166166131Y-132962497D02*
X166238703Y-132926211D01*
X166601560Y-133252782D02*
X166601560Y-132744782D01*
X166601560Y-132889925D02*
X166637846Y-132817354D01*
X166637846Y-132817354D02*
X166674132Y-132781068D01*
X166674132Y-132781068D02*
X166746703Y-132744782D01*
X166746703Y-132744782D02*
X166819274Y-132744782D01*
X167399846Y-133252782D02*
X167399846Y-132490782D01*
X167399846Y-133216497D02*
X167327274Y-133252782D01*
X167327274Y-133252782D02*
X167182131Y-133252782D01*
X167182131Y-133252782D02*
X167109560Y-133216497D01*
X167109560Y-133216497D02*
X167073274Y-133180211D01*
X167073274Y-133180211D02*
X167036988Y-133107639D01*
X167036988Y-133107639D02*
X167036988Y-132889925D01*
X167036988Y-132889925D02*
X167073274Y-132817354D01*
X167073274Y-132817354D02*
X167109560Y-132781068D01*
X167109560Y-132781068D02*
X167182131Y-132744782D01*
X167182131Y-132744782D02*
X167327274Y-132744782D01*
X167327274Y-132744782D02*
X167399846Y-132781068D01*
D12*
%TO.C,C5*%
X184853333Y-117809580D02*
X184805714Y-117857200D01*
X184805714Y-117857200D02*
X184662857Y-117904819D01*
X184662857Y-117904819D02*
X184567619Y-117904819D01*
X184567619Y-117904819D02*
X184424762Y-117857200D01*
X184424762Y-117857200D02*
X184329524Y-117761961D01*
X184329524Y-117761961D02*
X184281905Y-117666723D01*
X184281905Y-117666723D02*
X184234286Y-117476247D01*
X184234286Y-117476247D02*
X184234286Y-117333390D01*
X184234286Y-117333390D02*
X184281905Y-117142914D01*
X184281905Y-117142914D02*
X184329524Y-117047676D01*
X184329524Y-117047676D02*
X184424762Y-116952438D01*
X184424762Y-116952438D02*
X184567619Y-116904819D01*
X184567619Y-116904819D02*
X184662857Y-116904819D01*
X184662857Y-116904819D02*
X184805714Y-116952438D01*
X184805714Y-116952438D02*
X184853333Y-117000057D01*
X185758095Y-116904819D02*
X185281905Y-116904819D01*
X185281905Y-116904819D02*
X185234286Y-117381009D01*
X185234286Y-117381009D02*
X185281905Y-117333390D01*
X185281905Y-117333390D02*
X185377143Y-117285771D01*
X185377143Y-117285771D02*
X185615238Y-117285771D01*
X185615238Y-117285771D02*
X185710476Y-117333390D01*
X185710476Y-117333390D02*
X185758095Y-117381009D01*
X185758095Y-117381009D02*
X185805714Y-117476247D01*
X185805714Y-117476247D02*
X185805714Y-117714342D01*
X185805714Y-117714342D02*
X185758095Y-117809580D01*
X185758095Y-117809580D02*
X185710476Y-117857200D01*
X185710476Y-117857200D02*
X185615238Y-117904819D01*
X185615238Y-117904819D02*
X185377143Y-117904819D01*
X185377143Y-117904819D02*
X185281905Y-117857200D01*
X185281905Y-117857200D02*
X185234286Y-117809580D01*
%TO.C,L1*%
X159123333Y-117764819D02*
X158647143Y-117764819D01*
X158647143Y-117764819D02*
X158647143Y-116764819D01*
X159980476Y-117764819D02*
X159409048Y-117764819D01*
X159694762Y-117764819D02*
X159694762Y-116764819D01*
X159694762Y-116764819D02*
X159599524Y-116907676D01*
X159599524Y-116907676D02*
X159504286Y-117002914D01*
X159504286Y-117002914D02*
X159409048Y-117050533D01*
%TO.C,C2*%
X167643333Y-121739580D02*
X167595714Y-121787200D01*
X167595714Y-121787200D02*
X167452857Y-121834819D01*
X167452857Y-121834819D02*
X167357619Y-121834819D01*
X167357619Y-121834819D02*
X167214762Y-121787200D01*
X167214762Y-121787200D02*
X167119524Y-121691961D01*
X167119524Y-121691961D02*
X167071905Y-121596723D01*
X167071905Y-121596723D02*
X167024286Y-121406247D01*
X167024286Y-121406247D02*
X167024286Y-121263390D01*
X167024286Y-121263390D02*
X167071905Y-121072914D01*
X167071905Y-121072914D02*
X167119524Y-120977676D01*
X167119524Y-120977676D02*
X167214762Y-120882438D01*
X167214762Y-120882438D02*
X167357619Y-120834819D01*
X167357619Y-120834819D02*
X167452857Y-120834819D01*
X167452857Y-120834819D02*
X167595714Y-120882438D01*
X167595714Y-120882438D02*
X167643333Y-120930057D01*
X168024286Y-120930057D02*
X168071905Y-120882438D01*
X168071905Y-120882438D02*
X168167143Y-120834819D01*
X168167143Y-120834819D02*
X168405238Y-120834819D01*
X168405238Y-120834819D02*
X168500476Y-120882438D01*
X168500476Y-120882438D02*
X168548095Y-120930057D01*
X168548095Y-120930057D02*
X168595714Y-121025295D01*
X168595714Y-121025295D02*
X168595714Y-121120533D01*
X168595714Y-121120533D02*
X168548095Y-121263390D01*
X168548095Y-121263390D02*
X167976667Y-121834819D01*
X167976667Y-121834819D02*
X168595714Y-121834819D01*
%TO.C,C1*%
X163183333Y-122379580D02*
X163135714Y-122427200D01*
X163135714Y-122427200D02*
X162992857Y-122474819D01*
X162992857Y-122474819D02*
X162897619Y-122474819D01*
X162897619Y-122474819D02*
X162754762Y-122427200D01*
X162754762Y-122427200D02*
X162659524Y-122331961D01*
X162659524Y-122331961D02*
X162611905Y-122236723D01*
X162611905Y-122236723D02*
X162564286Y-122046247D01*
X162564286Y-122046247D02*
X162564286Y-121903390D01*
X162564286Y-121903390D02*
X162611905Y-121712914D01*
X162611905Y-121712914D02*
X162659524Y-121617676D01*
X162659524Y-121617676D02*
X162754762Y-121522438D01*
X162754762Y-121522438D02*
X162897619Y-121474819D01*
X162897619Y-121474819D02*
X162992857Y-121474819D01*
X162992857Y-121474819D02*
X163135714Y-121522438D01*
X163135714Y-121522438D02*
X163183333Y-121570057D01*
X164135714Y-122474819D02*
X163564286Y-122474819D01*
X163850000Y-122474819D02*
X163850000Y-121474819D01*
X163850000Y-121474819D02*
X163754762Y-121617676D01*
X163754762Y-121617676D02*
X163659524Y-121712914D01*
X163659524Y-121712914D02*
X163564286Y-121760533D01*
%TO.C,C4*%
X175613333Y-114409580D02*
X175565714Y-114457200D01*
X175565714Y-114457200D02*
X175422857Y-114504819D01*
X175422857Y-114504819D02*
X175327619Y-114504819D01*
X175327619Y-114504819D02*
X175184762Y-114457200D01*
X175184762Y-114457200D02*
X175089524Y-114361961D01*
X175089524Y-114361961D02*
X175041905Y-114266723D01*
X175041905Y-114266723D02*
X174994286Y-114076247D01*
X174994286Y-114076247D02*
X174994286Y-113933390D01*
X174994286Y-113933390D02*
X175041905Y-113742914D01*
X175041905Y-113742914D02*
X175089524Y-113647676D01*
X175089524Y-113647676D02*
X175184762Y-113552438D01*
X175184762Y-113552438D02*
X175327619Y-113504819D01*
X175327619Y-113504819D02*
X175422857Y-113504819D01*
X175422857Y-113504819D02*
X175565714Y-113552438D01*
X175565714Y-113552438D02*
X175613333Y-113600057D01*
X176470476Y-113838152D02*
X176470476Y-114504819D01*
X176232381Y-113457200D02*
X175994286Y-114171485D01*
X175994286Y-114171485D02*
X176613333Y-114171485D01*
D13*
%TO.C,J2*%
X147276667Y-118014318D02*
X147276667Y-118921461D01*
X147276667Y-118921461D02*
X147216190Y-119102889D01*
X147216190Y-119102889D02*
X147095238Y-119223842D01*
X147095238Y-119223842D02*
X146913809Y-119284318D01*
X146913809Y-119284318D02*
X146792857Y-119284318D01*
X147820952Y-118135270D02*
X147881428Y-118074794D01*
X147881428Y-118074794D02*
X148002381Y-118014318D01*
X148002381Y-118014318D02*
X148304762Y-118014318D01*
X148304762Y-118014318D02*
X148425714Y-118074794D01*
X148425714Y-118074794D02*
X148486190Y-118135270D01*
X148486190Y-118135270D02*
X148546667Y-118256222D01*
X148546667Y-118256222D02*
X148546667Y-118377175D01*
X148546667Y-118377175D02*
X148486190Y-118558603D01*
X148486190Y-118558603D02*
X147760476Y-119284318D01*
X147760476Y-119284318D02*
X148546667Y-119284318D01*
D12*
%TO.C,*%
%TO.C,J1*%
X167814666Y-113754819D02*
X167814666Y-114469104D01*
X167814666Y-114469104D02*
X167767047Y-114611961D01*
X167767047Y-114611961D02*
X167671809Y-114707200D01*
X167671809Y-114707200D02*
X167528952Y-114754819D01*
X167528952Y-114754819D02*
X167433714Y-114754819D01*
X168814666Y-114754819D02*
X168243238Y-114754819D01*
X168528952Y-114754819D02*
X168528952Y-113754819D01*
X168528952Y-113754819D02*
X168433714Y-113897676D01*
X168433714Y-113897676D02*
X168338476Y-113992914D01*
X168338476Y-113992914D02*
X168243238Y-114040533D01*
D14*
%TO.C,IC1*%
X172860119Y-121705508D02*
X172860119Y-121070508D01*
X173525357Y-121645031D02*
X173495119Y-121675270D01*
X173495119Y-121675270D02*
X173404405Y-121705508D01*
X173404405Y-121705508D02*
X173343929Y-121705508D01*
X173343929Y-121705508D02*
X173253214Y-121675270D01*
X173253214Y-121675270D02*
X173192738Y-121614793D01*
X173192738Y-121614793D02*
X173162500Y-121554317D01*
X173162500Y-121554317D02*
X173132262Y-121433365D01*
X173132262Y-121433365D02*
X173132262Y-121342650D01*
X173132262Y-121342650D02*
X173162500Y-121221698D01*
X173162500Y-121221698D02*
X173192738Y-121161222D01*
X173192738Y-121161222D02*
X173253214Y-121100746D01*
X173253214Y-121100746D02*
X173343929Y-121070508D01*
X173343929Y-121070508D02*
X173404405Y-121070508D01*
X173404405Y-121070508D02*
X173495119Y-121100746D01*
X173495119Y-121100746D02*
X173525357Y-121130984D01*
X174130119Y-121705508D02*
X173767262Y-121705508D01*
X173948690Y-121705508D02*
X173948690Y-121070508D01*
X173948690Y-121070508D02*
X173888214Y-121161222D01*
X173888214Y-121161222D02*
X173827738Y-121221698D01*
X173827738Y-121221698D02*
X173767262Y-121251936D01*
D12*
%TO.C,D1*%
X176509777Y-107526153D02*
X176509777Y-106523271D01*
X176509777Y-106523271D02*
X176748558Y-106523271D01*
X176748558Y-106523271D02*
X176891827Y-106571027D01*
X176891827Y-106571027D02*
X176987340Y-106666540D01*
X176987340Y-106666540D02*
X177035096Y-106762052D01*
X177035096Y-106762052D02*
X177082852Y-106953077D01*
X177082852Y-106953077D02*
X177082852Y-107096346D01*
X177082852Y-107096346D02*
X177035096Y-107287371D01*
X177035096Y-107287371D02*
X176987340Y-107382884D01*
X176987340Y-107382884D02*
X176891827Y-107478397D01*
X176891827Y-107478397D02*
X176748558Y-107526153D01*
X176748558Y-107526153D02*
X176509777Y-107526153D01*
X178037978Y-107526153D02*
X177464903Y-107526153D01*
X177751440Y-107526153D02*
X177751440Y-106523271D01*
X177751440Y-106523271D02*
X177655928Y-106666540D01*
X177655928Y-106666540D02*
X177560415Y-106762052D01*
X177560415Y-106762052D02*
X177464903Y-106809809D01*
%TO.C,L2*%
X181153333Y-123804819D02*
X180677143Y-123804819D01*
X180677143Y-123804819D02*
X180677143Y-122804819D01*
X181439048Y-122900057D02*
X181486667Y-122852438D01*
X181486667Y-122852438D02*
X181581905Y-122804819D01*
X181581905Y-122804819D02*
X181820000Y-122804819D01*
X181820000Y-122804819D02*
X181915238Y-122852438D01*
X181915238Y-122852438D02*
X181962857Y-122900057D01*
X181962857Y-122900057D02*
X182010476Y-122995295D01*
X182010476Y-122995295D02*
X182010476Y-123090533D01*
X182010476Y-123090533D02*
X181962857Y-123233390D01*
X181962857Y-123233390D02*
X181391429Y-123804819D01*
X181391429Y-123804819D02*
X182010476Y-123804819D01*
%TO.C,R1*%
X181164819Y-109616666D02*
X180688628Y-109949999D01*
X181164819Y-110188094D02*
X180164819Y-110188094D01*
X180164819Y-110188094D02*
X180164819Y-109807142D01*
X180164819Y-109807142D02*
X180212438Y-109711904D01*
X180212438Y-109711904D02*
X180260057Y-109664285D01*
X180260057Y-109664285D02*
X180355295Y-109616666D01*
X180355295Y-109616666D02*
X180498152Y-109616666D01*
X180498152Y-109616666D02*
X180593390Y-109664285D01*
X180593390Y-109664285D02*
X180641009Y-109711904D01*
X180641009Y-109711904D02*
X180688628Y-109807142D01*
X180688628Y-109807142D02*
X180688628Y-110188094D01*
X181164819Y-108664285D02*
X181164819Y-109235713D01*
X181164819Y-108949999D02*
X180164819Y-108949999D01*
X180164819Y-108949999D02*
X180307676Y-109045237D01*
X180307676Y-109045237D02*
X180402914Y-109140475D01*
X180402914Y-109140475D02*
X180450533Y-109235713D01*
%TO.C,C6*%
X177813333Y-114339580D02*
X177765714Y-114387200D01*
X177765714Y-114387200D02*
X177622857Y-114434819D01*
X177622857Y-114434819D02*
X177527619Y-114434819D01*
X177527619Y-114434819D02*
X177384762Y-114387200D01*
X177384762Y-114387200D02*
X177289524Y-114291961D01*
X177289524Y-114291961D02*
X177241905Y-114196723D01*
X177241905Y-114196723D02*
X177194286Y-114006247D01*
X177194286Y-114006247D02*
X177194286Y-113863390D01*
X177194286Y-113863390D02*
X177241905Y-113672914D01*
X177241905Y-113672914D02*
X177289524Y-113577676D01*
X177289524Y-113577676D02*
X177384762Y-113482438D01*
X177384762Y-113482438D02*
X177527619Y-113434819D01*
X177527619Y-113434819D02*
X177622857Y-113434819D01*
X177622857Y-113434819D02*
X177765714Y-113482438D01*
X177765714Y-113482438D02*
X177813333Y-113530057D01*
X178670476Y-113434819D02*
X178480000Y-113434819D01*
X178480000Y-113434819D02*
X178384762Y-113482438D01*
X178384762Y-113482438D02*
X178337143Y-113530057D01*
X178337143Y-113530057D02*
X178241905Y-113672914D01*
X178241905Y-113672914D02*
X178194286Y-113863390D01*
X178194286Y-113863390D02*
X178194286Y-114244342D01*
X178194286Y-114244342D02*
X178241905Y-114339580D01*
X178241905Y-114339580D02*
X178289524Y-114387200D01*
X178289524Y-114387200D02*
X178384762Y-114434819D01*
X178384762Y-114434819D02*
X178575238Y-114434819D01*
X178575238Y-114434819D02*
X178670476Y-114387200D01*
X178670476Y-114387200D02*
X178718095Y-114339580D01*
X178718095Y-114339580D02*
X178765714Y-114244342D01*
X178765714Y-114244342D02*
X178765714Y-114006247D01*
X178765714Y-114006247D02*
X178718095Y-113911009D01*
X178718095Y-113911009D02*
X178670476Y-113863390D01*
X178670476Y-113863390D02*
X178575238Y-113815771D01*
X178575238Y-113815771D02*
X178384762Y-113815771D01*
X178384762Y-113815771D02*
X178289524Y-113863390D01*
X178289524Y-113863390D02*
X178241905Y-113911009D01*
X178241905Y-113911009D02*
X178194286Y-114006247D01*
%TO.C,*%
%TO.C,C3*%
X177523333Y-121799580D02*
X177475714Y-121847200D01*
X177475714Y-121847200D02*
X177332857Y-121894819D01*
X177332857Y-121894819D02*
X177237619Y-121894819D01*
X177237619Y-121894819D02*
X177094762Y-121847200D01*
X177094762Y-121847200D02*
X176999524Y-121751961D01*
X176999524Y-121751961D02*
X176951905Y-121656723D01*
X176951905Y-121656723D02*
X176904286Y-121466247D01*
X176904286Y-121466247D02*
X176904286Y-121323390D01*
X176904286Y-121323390D02*
X176951905Y-121132914D01*
X176951905Y-121132914D02*
X176999524Y-121037676D01*
X176999524Y-121037676D02*
X177094762Y-120942438D01*
X177094762Y-120942438D02*
X177237619Y-120894819D01*
X177237619Y-120894819D02*
X177332857Y-120894819D01*
X177332857Y-120894819D02*
X177475714Y-120942438D01*
X177475714Y-120942438D02*
X177523333Y-120990057D01*
X177856667Y-120894819D02*
X178475714Y-120894819D01*
X178475714Y-120894819D02*
X178142381Y-121275771D01*
X178142381Y-121275771D02*
X178285238Y-121275771D01*
X178285238Y-121275771D02*
X178380476Y-121323390D01*
X178380476Y-121323390D02*
X178428095Y-121371009D01*
X178428095Y-121371009D02*
X178475714Y-121466247D01*
X178475714Y-121466247D02*
X178475714Y-121704342D01*
X178475714Y-121704342D02*
X178428095Y-121799580D01*
X178428095Y-121799580D02*
X178380476Y-121847200D01*
X178380476Y-121847200D02*
X178285238Y-121894819D01*
X178285238Y-121894819D02*
X177999524Y-121894819D01*
X177999524Y-121894819D02*
X177904286Y-121847200D01*
X177904286Y-121847200D02*
X177856667Y-121799580D01*
D13*
%TO.C,J3*%
X195806667Y-119304318D02*
X195806667Y-120211461D01*
X195806667Y-120211461D02*
X195746190Y-120392889D01*
X195746190Y-120392889D02*
X195625238Y-120513842D01*
X195625238Y-120513842D02*
X195443809Y-120574318D01*
X195443809Y-120574318D02*
X195322857Y-120574318D01*
X196290476Y-119304318D02*
X197076667Y-119304318D01*
X197076667Y-119304318D02*
X196653333Y-119788127D01*
X196653333Y-119788127D02*
X196834762Y-119788127D01*
X196834762Y-119788127D02*
X196955714Y-119848603D01*
X196955714Y-119848603D02*
X197016190Y-119909080D01*
X197016190Y-119909080D02*
X197076667Y-120030032D01*
X197076667Y-120030032D02*
X197076667Y-120332413D01*
X197076667Y-120332413D02*
X197016190Y-120453365D01*
X197016190Y-120453365D02*
X196955714Y-120513842D01*
X196955714Y-120513842D02*
X196834762Y-120574318D01*
X196834762Y-120574318D02*
X196471905Y-120574318D01*
X196471905Y-120574318D02*
X196350952Y-120513842D01*
X196350952Y-120513842D02*
X196290476Y-120453365D01*
D12*
%TO.C,*%
D15*
%TO.C,C5*%
X184833733Y-119450000D02*
X185126267Y-119450000D01*
X184833733Y-120470000D02*
X185126267Y-120470000D01*
%TO.C,L1*%
X159118733Y-118230000D02*
X159461267Y-118230000D01*
X159118733Y-119250000D02*
X159461267Y-119250000D01*
%TO.C,C2*%
X167886267Y-119300000D02*
X167593733Y-119300000D01*
X167886267Y-118280000D02*
X167593733Y-118280000D01*
%TO.C,C1*%
X163840000Y-119433733D02*
X163840000Y-119726267D01*
X162820000Y-119433733D02*
X162820000Y-119726267D01*
%TO.C,C4*%
X175380000Y-116466267D02*
X175380000Y-116173733D01*
X176400000Y-116466267D02*
X176400000Y-116173733D01*
D16*
%TO.C,J2*%
X155055000Y-118710000D02*
X155055000Y-118710000D01*
X154955000Y-118710000D02*
X154955000Y-118710000D01*
D17*
X154505000Y-117510000D02*
X154505000Y-119910000D01*
X152605000Y-121860000D02*
X150205000Y-121860000D01*
X150205000Y-115560000D02*
X152605000Y-115560000D01*
X148205000Y-119910000D02*
X148205000Y-117510000D01*
X147405000Y-121435000D02*
X140305000Y-121435000D01*
X140305000Y-121435000D02*
X140305000Y-115985000D01*
X140305000Y-115985000D02*
X147405000Y-115985000D01*
D16*
X154955000Y-118710000D02*
G75*
G03*
X155055000Y-118710000I50000J0D01*
G01*
X155055000Y-118710000D02*
G75*
G03*
X154955000Y-118710000I-50000J0D01*
G01*
D18*
%TO.C,J1*%
X164920000Y-113100000D02*
X164920000Y-104100000D01*
X174920000Y-104100000D02*
X164920000Y-104100000D01*
X174920000Y-104100000D02*
X174920000Y-113100000D01*
X174920000Y-113100000D02*
X164920000Y-113100000D01*
D17*
X175670000Y-108600000D02*
G75*
G03*
X175670000Y-108600000I-100000J0D01*
G01*
D13*
%TO.C,IC1*%
X173590000Y-118430000D02*
X173290000Y-118430000D01*
X173590000Y-120430000D02*
X173290000Y-120430000D01*
X172137080Y-118260000D02*
G75*
G03*
X172137080Y-118260000I-30080J0D01*
G01*
D18*
%TO.C,D1*%
X176680000Y-109525000D02*
X176680000Y-109355000D01*
X177580000Y-109355000D02*
X177580000Y-109525000D01*
D17*
X177230000Y-111440000D02*
G75*
G03*
X177230000Y-111440000I-100000J0D01*
G01*
D15*
%TO.C,L2*%
X180790000Y-120991267D02*
X180790000Y-120648733D01*
X181810000Y-120991267D02*
X181810000Y-120648733D01*
%TO.C,R1*%
X179802500Y-109195276D02*
X179802500Y-109704724D01*
X178757500Y-109195276D02*
X178757500Y-109704724D01*
%TO.C,C6*%
X177400000Y-116396267D02*
X177400000Y-116103733D01*
X178420000Y-116396267D02*
X178420000Y-116103733D01*
%TO.C,C3*%
X177836267Y-120520000D02*
X177543733Y-120520000D01*
X177836267Y-119500000D02*
X177543733Y-119500000D01*
D16*
%TO.C,J3*%
X188875000Y-120000000D02*
X188875000Y-120000000D01*
X188975000Y-120000000D02*
X188975000Y-120000000D01*
D17*
X189425000Y-121200000D02*
X189425000Y-118800000D01*
X191325000Y-116850000D02*
X193725000Y-116850000D01*
X193725000Y-123150000D02*
X191325000Y-123150000D01*
X195725000Y-118800000D02*
X195725000Y-121200000D01*
X196525000Y-117275000D02*
X203625000Y-117275000D01*
X203625000Y-117275000D02*
X203625000Y-122725000D01*
X203625000Y-122725000D02*
X196525000Y-122725000D01*
D16*
X188975000Y-120000000D02*
G75*
G03*
X188875000Y-120000000I-50000J0D01*
G01*
X188875000Y-120000000D02*
G75*
G03*
X188975000Y-120000000I50000J0D01*
G01*
%TD*%
M02*
