%TF.GenerationSoftware,KiCad,Pcbnew,7.0.5*%
%TF.CreationDate,2023-11-04T19:56:55-04:00*%
%TF.ProjectId,Switch,53776974-6368-42e6-9b69-6361645f7063,rev?*%
%TF.SameCoordinates,Original*%
%TF.FileFunction,Copper,L2,Inr*%
%TF.FilePolarity,Positive*%
%FSLAX46Y46*%
G04 Gerber Fmt 4.6, Leading zero omitted, Abs format (unit mm)*
G04 Created by KiCad (PCBNEW 7.0.5) date 2023-11-04 19:56:55*
%MOMM*%
%LPD*%
G01*
G04 APERTURE LIST*
G04 Aperture macros list*
%AMRotRect*
0 Rectangle, with rotation*
0 The origin of the aperture is its center*
0 $1 length*
0 $2 width*
0 $3 Rotation angle, in degrees counterclockwise*
0 Add horizontal line*
21,1,$1,$2,0,0,$3*%
G04 Aperture macros list end*
%TA.AperFunction,ComponentPad*%
%ADD10RotRect,1.650000X1.650000X339.000000*%
%TD*%
%TA.AperFunction,ComponentPad*%
%ADD11C,1.650000*%
%TD*%
%TA.AperFunction,ComponentPad*%
%ADD12RotRect,2.250000X2.250000X45.000000*%
%TD*%
%TA.AperFunction,ComponentPad*%
%ADD13C,2.400000*%
%TD*%
%TA.AperFunction,ComponentPad*%
%ADD14RotRect,2.250000X2.250000X315.000000*%
%TD*%
%TA.AperFunction,ComponentPad*%
%ADD15RotRect,1.700000X1.700000X21.000000*%
%TD*%
%TA.AperFunction,ComponentPad*%
%ADD16R,2.250000X2.250000*%
%TD*%
%TA.AperFunction,ViaPad*%
%ADD17C,0.800000*%
%TD*%
G04 APERTURE END LIST*
D10*
%TO.N,+3.3V*%
%TO.C,J1*%
X156972000Y-94996000D03*
D11*
%TO.N,GND*%
X152304098Y-93204160D03*
%TD*%
D12*
%TO.N,LNA_INPUT*%
%TO.C,J3*%
X169627525Y-73069476D03*
D13*
%TO.N,GND*%
X166035423Y-73069476D03*
X169627525Y-76661578D03*
X173219627Y-73069476D03*
X169627525Y-69477374D03*
%TD*%
D14*
%TO.N,Power_Amp_Out*%
%TO.C,J4*%
X169627525Y-93300525D03*
D13*
%TO.N,GND*%
X169627525Y-89708423D03*
X166035423Y-93300525D03*
X169627525Y-96892627D03*
X173219627Y-93300525D03*
%TD*%
D15*
%TO.N,Net-(J5-Pin_1)*%
%TO.C,J5*%
X153416000Y-73152000D03*
%TD*%
D16*
%TO.N,Filter_output*%
%TO.C,J2*%
X141732000Y-82804000D03*
D13*
%TO.N,GND*%
X144272000Y-85344000D03*
X144272000Y-80264000D03*
X139192000Y-80264000D03*
X139192000Y-85344000D03*
%TD*%
D17*
%TO.N,+3.3V*%
X173990000Y-86868000D03*
X152146000Y-76200000D03*
X160909000Y-74295000D03*
X165862000Y-98298000D03*
X174244000Y-81026000D03*
X162433000Y-93980000D03*
X166624000Y-68326000D03*
%TO.N,Net-(IC1-V1)*%
X154813000Y-79502000D03*
X163576000Y-81661000D03*
%TO.N,Net-(IC1-V2)*%
X152146000Y-78359000D03*
X163830000Y-84836000D03*
X161925000Y-77343000D03*
%TO.N,GND*%
X159385000Y-82042000D03*
X169164000Y-85852000D03*
X152908000Y-86614000D03*
X166116000Y-91186000D03*
X148590000Y-82042000D03*
X154178000Y-88900000D03*
X164719000Y-78486000D03*
X169164000Y-83312000D03*
X166751000Y-80391000D03*
X166751000Y-86106000D03*
X158496000Y-86868000D03*
X158242000Y-89408000D03*
X149860000Y-84582000D03*
X164719000Y-86741000D03*
X160528000Y-82042000D03*
X173228000Y-84836000D03*
X154178000Y-85344000D03*
X164719000Y-80518000D03*
X165354000Y-90424000D03*
X156464000Y-82042000D03*
X146785221Y-90451452D03*
X148971000Y-84963000D03*
X166878000Y-77343000D03*
X154940000Y-93472000D03*
X154813000Y-84582000D03*
X153924000Y-82042000D03*
X167005000Y-83312000D03*
X164592000Y-69088000D03*
X150114000Y-81915000D03*
X147574000Y-86487000D03*
X173228000Y-88900000D03*
X167386000Y-89789000D03*
X164719000Y-88011000D03*
X159258000Y-84582000D03*
X164846000Y-81534000D03*
X173736000Y-78740000D03*
X147193000Y-82169000D03*
X158242000Y-91694000D03*
X149860000Y-74168000D03*
X155194000Y-90678000D03*
X152400000Y-89916000D03*
X166751000Y-78359000D03*
X163068000Y-75692000D03*
X160274000Y-84582000D03*
X159566660Y-90396781D03*
X164719000Y-79502000D03*
X155321000Y-82042000D03*
X161671000Y-82042000D03*
X164719000Y-85598000D03*
X155956000Y-84582000D03*
X159258000Y-88392000D03*
X165227000Y-76200000D03*
X144697642Y-75664435D03*
X165989000Y-75311000D03*
X152527000Y-82042000D03*
X156464000Y-78486000D03*
X167513000Y-76454000D03*
X171704000Y-79756000D03*
X171196000Y-84328000D03*
X151257000Y-82042000D03*
X166751000Y-79375000D03*
X155942469Y-87049246D03*
X158242000Y-84582000D03*
X164846000Y-77216000D03*
X149860000Y-88392000D03*
X162052000Y-71628000D03*
X166751000Y-88646000D03*
X166751000Y-84963000D03*
X171196000Y-81788000D03*
X162511649Y-90903761D03*
X161544000Y-88265000D03*
X169164000Y-80772000D03*
X151003000Y-84582000D03*
X166751000Y-87376000D03*
X164719000Y-96774000D03*
X161036000Y-69596000D03*
X173228000Y-82296000D03*
X166751000Y-81534000D03*
X164846000Y-89281000D03*
X149606000Y-80391000D03*
X156718000Y-92202000D03*
X159258000Y-92964000D03*
X171196000Y-86868000D03*
X151511000Y-85344000D03*
X147828000Y-76708000D03*
X157099000Y-84582000D03*
X159004000Y-72136000D03*
X142748000Y-88900000D03*
%TD*%
%TA.AperFunction,Conductor*%
%TO.N,GND*%
G36*
X165886446Y-67584185D02*
G01*
X165932201Y-67636989D01*
X165942145Y-67706147D01*
X165913120Y-67769703D01*
X165911557Y-67771472D01*
X165891466Y-67793785D01*
X165796821Y-67957715D01*
X165796818Y-67957722D01*
X165782756Y-68001002D01*
X165738326Y-68137744D01*
X165718540Y-68326000D01*
X165738326Y-68514256D01*
X165738327Y-68514259D01*
X165796818Y-68694277D01*
X165796821Y-68694284D01*
X165891467Y-68858216D01*
X165992535Y-68970463D01*
X166018129Y-68998888D01*
X166171265Y-69110148D01*
X166171270Y-69110151D01*
X166344192Y-69187142D01*
X166344197Y-69187144D01*
X166529354Y-69226500D01*
X166529355Y-69226500D01*
X166718644Y-69226500D01*
X166718646Y-69226500D01*
X166903803Y-69187144D01*
X167076730Y-69110151D01*
X167229871Y-68998888D01*
X167356533Y-68858216D01*
X167451179Y-68694284D01*
X167509674Y-68514256D01*
X167529460Y-68326000D01*
X167509674Y-68137744D01*
X167451179Y-67957716D01*
X167356533Y-67793784D01*
X167336442Y-67771471D01*
X167306213Y-67708481D01*
X167314838Y-67639146D01*
X167359579Y-67585480D01*
X167426232Y-67564522D01*
X167428593Y-67564500D01*
X169257785Y-67564500D01*
X169324824Y-67584185D01*
X169370579Y-67636989D01*
X169380523Y-67706147D01*
X169351498Y-67769703D01*
X169292720Y-67807477D01*
X169276266Y-67811115D01*
X169248183Y-67815347D01*
X169248177Y-67815349D01*
X169004700Y-67890452D01*
X168775149Y-68000997D01*
X168775141Y-68001002D01*
X168564622Y-68144531D01*
X168377845Y-68317833D01*
X168218980Y-68517045D01*
X168091583Y-68737702D01*
X167998498Y-68974879D01*
X167998492Y-68974898D01*
X167941800Y-69223287D01*
X167941799Y-69223294D01*
X167941493Y-69227374D01*
X168867442Y-69227374D01*
X168842648Y-69298231D01*
X168822463Y-69477374D01*
X168842648Y-69656517D01*
X168867442Y-69727374D01*
X167941493Y-69727374D01*
X167941799Y-69731453D01*
X167941800Y-69731460D01*
X167998492Y-69979849D01*
X167998498Y-69979868D01*
X168091583Y-70217045D01*
X168091582Y-70217045D01*
X168218980Y-70437702D01*
X168377845Y-70636914D01*
X168564622Y-70810216D01*
X168775141Y-70953745D01*
X168775149Y-70953750D01*
X169004700Y-71064295D01*
X169059647Y-71081244D01*
X169117906Y-71119814D01*
X169146063Y-71183759D01*
X169135180Y-71252776D01*
X169110778Y-71287416D01*
X167845370Y-72552826D01*
X167784047Y-72586311D01*
X167714356Y-72581327D01*
X167658422Y-72539456D01*
X167642260Y-72510447D01*
X167571361Y-72329798D01*
X167443967Y-72109147D01*
X167285102Y-71909935D01*
X167098328Y-71736635D01*
X166887800Y-71593100D01*
X166887799Y-71593099D01*
X166658246Y-71482554D01*
X166658248Y-71482554D01*
X166414777Y-71407453D01*
X166414771Y-71407452D01*
X166285423Y-71387955D01*
X166285423Y-72309392D01*
X166214566Y-72284599D01*
X166080349Y-72269476D01*
X165990497Y-72269476D01*
X165856280Y-72284599D01*
X165785422Y-72309392D01*
X165785423Y-71387955D01*
X165656074Y-71407452D01*
X165656068Y-71407453D01*
X165412598Y-71482554D01*
X165183047Y-71593099D01*
X165183039Y-71593104D01*
X164972520Y-71736633D01*
X164785743Y-71909935D01*
X164626878Y-72109147D01*
X164499481Y-72329804D01*
X164406396Y-72566981D01*
X164406390Y-72567000D01*
X164349698Y-72815389D01*
X164349697Y-72815396D01*
X164349391Y-72819476D01*
X165275340Y-72819476D01*
X165250546Y-72890333D01*
X165230361Y-73069476D01*
X165250546Y-73248619D01*
X165275340Y-73319476D01*
X164349391Y-73319476D01*
X164349697Y-73323555D01*
X164349698Y-73323562D01*
X164406390Y-73571951D01*
X164406396Y-73571970D01*
X164499481Y-73809147D01*
X164499480Y-73809147D01*
X164626878Y-74029804D01*
X164785743Y-74229016D01*
X164972520Y-74402318D01*
X165183039Y-74545847D01*
X165183047Y-74545852D01*
X165412599Y-74656397D01*
X165412597Y-74656397D01*
X165656075Y-74731500D01*
X165656083Y-74731502D01*
X165785423Y-74750996D01*
X165785423Y-73829559D01*
X165856280Y-73854353D01*
X165990497Y-73869476D01*
X166080349Y-73869476D01*
X166214566Y-73854353D01*
X166285423Y-73829559D01*
X166285423Y-74750995D01*
X166414762Y-74731502D01*
X166414770Y-74731500D01*
X166658247Y-74656397D01*
X166887799Y-74545852D01*
X166887800Y-74545851D01*
X167098328Y-74402316D01*
X167285102Y-74229016D01*
X167443967Y-74029804D01*
X167571361Y-73809153D01*
X167642260Y-73628505D01*
X167685076Y-73573291D01*
X167750946Y-73549990D01*
X167818957Y-73566000D01*
X167845370Y-73586126D01*
X168185960Y-73926715D01*
X168805097Y-74545852D01*
X169110780Y-74851534D01*
X169144265Y-74912857D01*
X169139281Y-74982548D01*
X169097410Y-75038482D01*
X169059651Y-75057705D01*
X169004705Y-75074654D01*
X169004701Y-75074656D01*
X168775149Y-75185201D01*
X168775141Y-75185206D01*
X168564622Y-75328735D01*
X168377845Y-75502037D01*
X168218980Y-75701249D01*
X168091583Y-75921906D01*
X167998498Y-76159083D01*
X167998492Y-76159102D01*
X167941800Y-76407491D01*
X167941799Y-76407498D01*
X167941493Y-76411578D01*
X168867442Y-76411578D01*
X168842648Y-76482435D01*
X168822463Y-76661578D01*
X168842648Y-76840721D01*
X168867442Y-76911578D01*
X167941493Y-76911578D01*
X167941799Y-76915657D01*
X167941800Y-76915664D01*
X167998492Y-77164053D01*
X167998498Y-77164072D01*
X168091583Y-77401249D01*
X168091582Y-77401249D01*
X168218980Y-77621906D01*
X168377845Y-77821118D01*
X168564622Y-77994420D01*
X168775141Y-78137949D01*
X168775149Y-78137954D01*
X169004701Y-78248499D01*
X169004699Y-78248499D01*
X169248177Y-78323602D01*
X169248185Y-78323604D01*
X169377525Y-78343098D01*
X169377525Y-77421661D01*
X169448382Y-77446455D01*
X169582599Y-77461578D01*
X169672451Y-77461578D01*
X169806668Y-77446455D01*
X169877525Y-77421661D01*
X169877525Y-78343097D01*
X170006864Y-78323604D01*
X170006872Y-78323602D01*
X170250349Y-78248499D01*
X170479901Y-78137954D01*
X170479902Y-78137953D01*
X170690430Y-77994418D01*
X170877204Y-77821118D01*
X171036069Y-77621906D01*
X171163466Y-77401249D01*
X171256551Y-77164072D01*
X171256557Y-77164053D01*
X171313249Y-76915664D01*
X171313250Y-76915657D01*
X171313557Y-76911578D01*
X170387608Y-76911578D01*
X170412402Y-76840721D01*
X170432587Y-76661578D01*
X170412402Y-76482435D01*
X170387608Y-76411578D01*
X171313556Y-76411578D01*
X171313250Y-76407498D01*
X171313249Y-76407491D01*
X171256557Y-76159102D01*
X171256551Y-76159083D01*
X171163466Y-75921906D01*
X171163467Y-75921906D01*
X171036069Y-75701249D01*
X170877204Y-75502037D01*
X170690430Y-75328737D01*
X170479902Y-75185202D01*
X170479901Y-75185201D01*
X170250349Y-75074656D01*
X170195400Y-75057707D01*
X170137141Y-75019137D01*
X170108983Y-74955192D01*
X170119867Y-74886175D01*
X170144264Y-74851540D01*
X171409682Y-73586121D01*
X171471001Y-73552639D01*
X171540692Y-73557623D01*
X171596626Y-73599494D01*
X171612787Y-73628503D01*
X171683685Y-73809147D01*
X171683684Y-73809147D01*
X171811082Y-74029804D01*
X171969947Y-74229016D01*
X172156724Y-74402318D01*
X172367243Y-74545847D01*
X172367251Y-74545852D01*
X172596803Y-74656397D01*
X172596801Y-74656397D01*
X172840279Y-74731500D01*
X172840287Y-74731502D01*
X172969627Y-74750996D01*
X172969627Y-73829559D01*
X173040484Y-73854353D01*
X173174701Y-73869476D01*
X173264553Y-73869476D01*
X173398770Y-73854353D01*
X173469627Y-73829559D01*
X173469627Y-74750995D01*
X173598966Y-74731502D01*
X173598974Y-74731500D01*
X173842451Y-74656397D01*
X174072003Y-74545852D01*
X174072004Y-74545851D01*
X174282532Y-74402316D01*
X174469306Y-74229016D01*
X174628171Y-74029804D01*
X174755568Y-73809147D01*
X174848653Y-73571970D01*
X174848659Y-73571951D01*
X174905351Y-73323562D01*
X174905352Y-73323555D01*
X174905659Y-73319476D01*
X173979710Y-73319476D01*
X174004504Y-73248619D01*
X174024689Y-73069476D01*
X174004504Y-72890333D01*
X173979710Y-72819476D01*
X174905658Y-72819476D01*
X174905352Y-72815396D01*
X174905351Y-72815389D01*
X174848659Y-72567000D01*
X174847291Y-72562565D01*
X174849450Y-72561898D01*
X174844070Y-72501508D01*
X174876480Y-72439609D01*
X174937209Y-72405059D01*
X175006977Y-72408827D01*
X175053359Y-72438066D01*
X175223181Y-72607888D01*
X175256666Y-72669211D01*
X175259500Y-72695569D01*
X175259499Y-80521123D01*
X175239814Y-80588162D01*
X175187010Y-80633917D01*
X175117852Y-80643861D01*
X175054296Y-80614836D01*
X175028115Y-80583126D01*
X174976533Y-80493784D01*
X174849871Y-80353112D01*
X174849870Y-80353111D01*
X174696734Y-80241851D01*
X174696729Y-80241848D01*
X174523807Y-80164857D01*
X174523802Y-80164855D01*
X174378001Y-80133865D01*
X174338646Y-80125500D01*
X174149354Y-80125500D01*
X174116897Y-80132398D01*
X173964197Y-80164855D01*
X173964192Y-80164857D01*
X173791270Y-80241848D01*
X173791265Y-80241851D01*
X173638129Y-80353111D01*
X173511466Y-80493785D01*
X173416821Y-80657715D01*
X173416818Y-80657722D01*
X173370636Y-80799857D01*
X173358326Y-80837744D01*
X173338540Y-81026000D01*
X173358326Y-81214256D01*
X173358327Y-81214259D01*
X173416818Y-81394277D01*
X173416821Y-81394284D01*
X173511467Y-81558216D01*
X173638128Y-81698887D01*
X173638129Y-81698888D01*
X173791265Y-81810148D01*
X173791270Y-81810151D01*
X173964192Y-81887142D01*
X173964197Y-81887144D01*
X174149354Y-81926500D01*
X174149355Y-81926500D01*
X174338644Y-81926500D01*
X174338646Y-81926500D01*
X174523803Y-81887144D01*
X174696730Y-81810151D01*
X174849871Y-81698888D01*
X174976533Y-81558216D01*
X175028113Y-81468875D01*
X175078677Y-81420661D01*
X175147284Y-81407437D01*
X175212149Y-81433404D01*
X175252679Y-81490318D01*
X175259499Y-81530876D01*
X175259500Y-82803901D01*
X175259500Y-93674429D01*
X175239815Y-93741468D01*
X175223181Y-93762110D01*
X175053360Y-93931931D01*
X174992037Y-93965416D01*
X174922345Y-93960432D01*
X174866412Y-93918560D01*
X174841995Y-93853096D01*
X174848934Y-93807943D01*
X174847291Y-93807436D01*
X174848659Y-93803000D01*
X174905351Y-93554611D01*
X174905352Y-93554604D01*
X174905659Y-93550525D01*
X173979710Y-93550525D01*
X174004504Y-93479668D01*
X174024689Y-93300525D01*
X174004504Y-93121382D01*
X173979710Y-93050525D01*
X174905658Y-93050525D01*
X174905352Y-93046445D01*
X174905351Y-93046438D01*
X174848659Y-92798049D01*
X174848653Y-92798030D01*
X174755568Y-92560853D01*
X174755569Y-92560853D01*
X174628171Y-92340196D01*
X174469306Y-92140984D01*
X174282532Y-91967684D01*
X174072004Y-91824149D01*
X174072003Y-91824148D01*
X173842450Y-91713603D01*
X173842452Y-91713603D01*
X173598981Y-91638502D01*
X173598975Y-91638501D01*
X173469627Y-91619004D01*
X173469627Y-92540441D01*
X173398770Y-92515648D01*
X173264553Y-92500525D01*
X173174701Y-92500525D01*
X173040484Y-92515648D01*
X172969627Y-92540441D01*
X172969627Y-91619004D01*
X172840278Y-91638501D01*
X172840272Y-91638502D01*
X172596802Y-91713603D01*
X172367251Y-91824148D01*
X172367243Y-91824153D01*
X172156724Y-91967682D01*
X171969947Y-92140984D01*
X171811082Y-92340196D01*
X171683686Y-92560851D01*
X171612788Y-92741496D01*
X171569972Y-92796709D01*
X171504102Y-92820010D01*
X171436091Y-92803999D01*
X171409679Y-92783874D01*
X170499903Y-91874099D01*
X170144268Y-91518465D01*
X170110784Y-91457143D01*
X170115768Y-91387452D01*
X170157639Y-91331518D01*
X170195400Y-91312294D01*
X170250349Y-91295344D01*
X170479901Y-91184799D01*
X170479902Y-91184798D01*
X170690430Y-91041263D01*
X170877204Y-90867963D01*
X171036069Y-90668751D01*
X171163466Y-90448094D01*
X171256551Y-90210917D01*
X171256557Y-90210898D01*
X171313249Y-89962509D01*
X171313250Y-89962502D01*
X171313557Y-89958423D01*
X170387608Y-89958423D01*
X170412402Y-89887566D01*
X170432587Y-89708423D01*
X170412402Y-89529280D01*
X170387608Y-89458423D01*
X171313556Y-89458423D01*
X171313250Y-89454343D01*
X171313249Y-89454336D01*
X171256557Y-89205947D01*
X171256551Y-89205928D01*
X171163466Y-88968751D01*
X171163467Y-88968751D01*
X171036069Y-88748094D01*
X170877204Y-88548882D01*
X170690430Y-88375582D01*
X170479902Y-88232047D01*
X170479901Y-88232046D01*
X170250348Y-88121501D01*
X170250350Y-88121501D01*
X170006879Y-88046400D01*
X170006873Y-88046399D01*
X169877525Y-88026902D01*
X169877525Y-88948339D01*
X169806668Y-88923546D01*
X169672451Y-88908423D01*
X169582599Y-88908423D01*
X169448382Y-88923546D01*
X169377525Y-88948339D01*
X169377525Y-88026902D01*
X169248176Y-88046399D01*
X169248170Y-88046400D01*
X169004700Y-88121501D01*
X168775149Y-88232046D01*
X168775141Y-88232051D01*
X168564622Y-88375580D01*
X168377845Y-88548882D01*
X168218980Y-88748094D01*
X168091583Y-88968751D01*
X167998498Y-89205928D01*
X167998492Y-89205947D01*
X167941800Y-89454336D01*
X167941799Y-89454343D01*
X167941493Y-89458423D01*
X168867442Y-89458423D01*
X168842648Y-89529280D01*
X168822463Y-89708423D01*
X168842648Y-89887566D01*
X168867442Y-89958423D01*
X167941493Y-89958423D01*
X167941799Y-89962502D01*
X167941800Y-89962509D01*
X167998492Y-90210898D01*
X167998498Y-90210917D01*
X168091583Y-90448094D01*
X168091582Y-90448094D01*
X168218980Y-90668751D01*
X168377845Y-90867963D01*
X168564622Y-91041265D01*
X168775141Y-91184794D01*
X168775149Y-91184799D01*
X169004700Y-91295344D01*
X169059647Y-91312293D01*
X169117906Y-91350863D01*
X169146063Y-91414808D01*
X169135180Y-91483825D01*
X169110778Y-91518465D01*
X167845370Y-92783875D01*
X167784047Y-92817360D01*
X167714356Y-92812376D01*
X167658422Y-92770505D01*
X167642260Y-92741496D01*
X167571361Y-92560847D01*
X167443967Y-92340196D01*
X167285102Y-92140984D01*
X167098328Y-91967684D01*
X166887800Y-91824149D01*
X166887799Y-91824148D01*
X166658246Y-91713603D01*
X166658248Y-91713603D01*
X166414777Y-91638502D01*
X166414771Y-91638501D01*
X166285423Y-91619004D01*
X166285423Y-92540441D01*
X166214566Y-92515648D01*
X166080349Y-92500525D01*
X165990497Y-92500525D01*
X165856280Y-92515648D01*
X165785422Y-92540441D01*
X165785423Y-91619004D01*
X165656074Y-91638501D01*
X165656068Y-91638502D01*
X165412598Y-91713603D01*
X165183047Y-91824148D01*
X165183039Y-91824153D01*
X164972520Y-91967682D01*
X164785743Y-92140984D01*
X164626878Y-92340196D01*
X164499481Y-92560853D01*
X164406396Y-92798030D01*
X164406390Y-92798049D01*
X164349698Y-93046438D01*
X164349697Y-93046445D01*
X164349391Y-93050525D01*
X165275340Y-93050525D01*
X165250546Y-93121382D01*
X165230361Y-93300525D01*
X165250546Y-93479668D01*
X165275340Y-93550525D01*
X164349391Y-93550525D01*
X164349697Y-93554604D01*
X164349698Y-93554611D01*
X164406390Y-93803000D01*
X164406396Y-93803019D01*
X164499481Y-94040196D01*
X164499480Y-94040196D01*
X164626878Y-94260853D01*
X164785743Y-94460065D01*
X164972520Y-94633367D01*
X165183039Y-94776896D01*
X165183047Y-94776901D01*
X165412599Y-94887446D01*
X165412597Y-94887446D01*
X165656075Y-94962549D01*
X165656083Y-94962551D01*
X165785423Y-94982045D01*
X165785423Y-94060608D01*
X165856280Y-94085402D01*
X165990497Y-94100525D01*
X166080349Y-94100525D01*
X166214566Y-94085402D01*
X166285423Y-94060608D01*
X166285423Y-94982044D01*
X166414762Y-94962551D01*
X166414770Y-94962549D01*
X166658247Y-94887446D01*
X166887799Y-94776901D01*
X166887800Y-94776900D01*
X167098328Y-94633365D01*
X167285102Y-94460065D01*
X167443967Y-94260853D01*
X167571361Y-94040202D01*
X167642260Y-93859554D01*
X167685076Y-93804340D01*
X167750946Y-93781039D01*
X167818957Y-93797049D01*
X167845370Y-93817175D01*
X168196452Y-94168256D01*
X168869340Y-94841144D01*
X169110780Y-95082583D01*
X169144265Y-95143906D01*
X169139281Y-95213597D01*
X169097410Y-95269531D01*
X169059651Y-95288754D01*
X169004705Y-95305703D01*
X169004701Y-95305705D01*
X168775149Y-95416250D01*
X168775141Y-95416255D01*
X168564622Y-95559784D01*
X168377845Y-95733086D01*
X168218980Y-95932298D01*
X168091583Y-96152955D01*
X167998498Y-96390132D01*
X167998492Y-96390151D01*
X167941800Y-96638540D01*
X167941799Y-96638547D01*
X167941493Y-96642627D01*
X168867442Y-96642627D01*
X168842648Y-96713484D01*
X168822463Y-96892627D01*
X168842648Y-97071770D01*
X168867442Y-97142627D01*
X167941493Y-97142627D01*
X167941799Y-97146706D01*
X167941800Y-97146713D01*
X167998492Y-97395102D01*
X167998498Y-97395121D01*
X168091583Y-97632298D01*
X168091582Y-97632298D01*
X168218980Y-97852955D01*
X168377845Y-98052167D01*
X168564622Y-98225469D01*
X168775141Y-98368998D01*
X168775149Y-98369003D01*
X169004701Y-98479548D01*
X169004699Y-98479548D01*
X169248177Y-98554651D01*
X169248183Y-98554653D01*
X169276260Y-98558885D01*
X169339617Y-98588341D01*
X169376991Y-98647375D01*
X169376516Y-98717243D01*
X169338343Y-98775763D01*
X169274591Y-98804355D01*
X169257779Y-98805500D01*
X166814617Y-98805500D01*
X166747578Y-98785815D01*
X166701823Y-98733011D01*
X166691879Y-98663853D01*
X166696686Y-98643182D01*
X166738982Y-98513006D01*
X166747674Y-98486256D01*
X166767460Y-98298000D01*
X166747674Y-98109744D01*
X166689179Y-97929716D01*
X166594533Y-97765784D01*
X166467871Y-97625112D01*
X166467870Y-97625111D01*
X166314734Y-97513851D01*
X166314729Y-97513848D01*
X166141807Y-97436857D01*
X166141802Y-97436855D01*
X165968619Y-97400045D01*
X165956646Y-97397500D01*
X165767354Y-97397500D01*
X165755381Y-97400045D01*
X165582197Y-97436855D01*
X165582192Y-97436857D01*
X165409270Y-97513848D01*
X165409265Y-97513851D01*
X165256129Y-97625111D01*
X165129466Y-97765785D01*
X165034821Y-97929715D01*
X165034818Y-97929722D01*
X164976327Y-98109740D01*
X164976326Y-98109744D01*
X164956540Y-98298000D01*
X164976326Y-98486256D01*
X164976327Y-98486259D01*
X165027314Y-98643182D01*
X165029309Y-98713023D01*
X164993229Y-98772856D01*
X164930528Y-98803684D01*
X164909383Y-98805500D01*
X163091419Y-98805500D01*
X163046364Y-98797025D01*
X163024361Y-98788444D01*
X162424898Y-98554653D01*
X157715164Y-96717856D01*
X157659859Y-96675158D01*
X157636417Y-96609339D01*
X157652282Y-96541294D01*
X157694176Y-96497382D01*
X157774026Y-96447135D01*
X157869306Y-96339268D01*
X157896651Y-96285914D01*
X158522269Y-94656120D01*
X158537650Y-94598172D01*
X158539020Y-94454256D01*
X158499788Y-94315785D01*
X158499787Y-94315782D01*
X158423136Y-94193976D01*
X158423135Y-94193974D01*
X158315268Y-94098694D01*
X158315263Y-94098691D01*
X158315261Y-94098690D01*
X158261915Y-94071349D01*
X158261913Y-94071348D01*
X158023943Y-93980000D01*
X161527540Y-93980000D01*
X161547326Y-94168256D01*
X161547327Y-94168259D01*
X161605818Y-94348277D01*
X161605821Y-94348284D01*
X161700467Y-94512216D01*
X161795431Y-94617684D01*
X161827129Y-94652888D01*
X161980265Y-94764148D01*
X161980270Y-94764151D01*
X162153192Y-94841142D01*
X162153197Y-94841144D01*
X162338354Y-94880500D01*
X162338355Y-94880500D01*
X162527644Y-94880500D01*
X162527646Y-94880500D01*
X162712803Y-94841144D01*
X162885730Y-94764151D01*
X163038871Y-94652888D01*
X163165533Y-94512216D01*
X163260179Y-94348284D01*
X163318674Y-94168256D01*
X163338460Y-93980000D01*
X163318674Y-93791744D01*
X163260179Y-93611716D01*
X163165533Y-93447784D01*
X163038871Y-93307112D01*
X163029805Y-93300525D01*
X162885734Y-93195851D01*
X162885729Y-93195848D01*
X162712807Y-93118857D01*
X162712802Y-93118855D01*
X162567001Y-93087865D01*
X162527646Y-93079500D01*
X162338354Y-93079500D01*
X162305897Y-93086398D01*
X162153197Y-93118855D01*
X162153192Y-93118857D01*
X161980270Y-93195848D01*
X161980265Y-93195851D01*
X161827129Y-93307111D01*
X161700466Y-93447785D01*
X161605821Y-93611715D01*
X161605818Y-93611722D01*
X161548324Y-93788672D01*
X161547326Y-93791744D01*
X161527540Y-93980000D01*
X158023943Y-93980000D01*
X156632124Y-93445732D01*
X156621191Y-93442830D01*
X156574172Y-93430350D01*
X156574170Y-93430349D01*
X156574162Y-93430349D01*
X156430256Y-93428979D01*
X156291785Y-93468211D01*
X156291782Y-93468212D01*
X156169976Y-93544863D01*
X156169974Y-93544864D01*
X156169974Y-93544865D01*
X156161365Y-93554611D01*
X156074695Y-93652731D01*
X156074690Y-93652738D01*
X156047349Y-93706084D01*
X156047348Y-93706086D01*
X155421732Y-95335875D01*
X155406350Y-95393828D01*
X155406349Y-95393837D01*
X155404979Y-95537744D01*
X155425910Y-95611621D01*
X155425245Y-95681487D01*
X155386913Y-95739903D01*
X155323084Y-95768322D01*
X155261551Y-95760947D01*
X152608356Y-94726201D01*
X152553051Y-94683503D01*
X152529609Y-94617684D01*
X152545474Y-94549639D01*
X152595608Y-94500973D01*
X152604082Y-94497653D01*
X152605249Y-94495206D01*
X152319837Y-93854160D01*
X152344992Y-93854160D01*
X152467031Y-93838743D01*
X152619727Y-93778286D01*
X152752590Y-93681755D01*
X152777168Y-93652044D01*
X153061732Y-94291185D01*
X153159046Y-94223045D01*
X153322979Y-94059111D01*
X153455965Y-93869190D01*
X153553945Y-93659069D01*
X153553949Y-93659060D01*
X153613950Y-93435128D01*
X153613952Y-93435118D01*
X153634159Y-93204160D01*
X153634159Y-93204159D01*
X153613952Y-92973201D01*
X153613950Y-92973191D01*
X153595145Y-92903007D01*
X153595144Y-92903007D01*
X152954384Y-93188291D01*
X152947659Y-93081394D01*
X152896910Y-92925204D01*
X152808912Y-92786541D01*
X152750542Y-92731729D01*
X153391122Y-92446525D01*
X153322983Y-92349212D01*
X153159049Y-92185278D01*
X152969128Y-92052292D01*
X152759007Y-91954312D01*
X152758998Y-91954308D01*
X152535066Y-91894307D01*
X152535056Y-91894305D01*
X152304099Y-91874099D01*
X152304097Y-91874099D01*
X152073140Y-91894305D01*
X152073124Y-91894308D01*
X152002946Y-91913111D01*
X152002946Y-91913112D01*
X152288358Y-92554160D01*
X152263204Y-92554160D01*
X152141165Y-92569577D01*
X151988469Y-92630034D01*
X151855606Y-92726565D01*
X151831027Y-92756275D01*
X151546463Y-92117133D01*
X151449153Y-92185272D01*
X151449147Y-92185277D01*
X151285212Y-92349211D01*
X151152231Y-92539128D01*
X151152230Y-92539130D01*
X151054250Y-92749250D01*
X151054246Y-92749259D01*
X150994245Y-92973191D01*
X150994243Y-92973201D01*
X150974037Y-93204159D01*
X150974037Y-93204160D01*
X150994243Y-93435117D01*
X150994246Y-93435130D01*
X151013049Y-93505310D01*
X151653811Y-93220025D01*
X151660537Y-93326926D01*
X151711286Y-93483116D01*
X151799284Y-93621779D01*
X151857651Y-93676589D01*
X151217071Y-93961794D01*
X151212107Y-93979691D01*
X151218180Y-93997697D01*
X151201170Y-94065464D01*
X151150222Y-94113277D01*
X151081512Y-94125955D01*
X151049223Y-94118139D01*
X137747445Y-88930446D01*
X137692140Y-88887748D01*
X137668698Y-88821929D01*
X137668500Y-88814921D01*
X137668500Y-86479337D01*
X137688185Y-86412298D01*
X137740989Y-86366543D01*
X137799454Y-86355532D01*
X137825453Y-86356992D01*
X138475338Y-85707108D01*
X138562577Y-85845948D01*
X138690052Y-85973423D01*
X138828890Y-86060661D01*
X138178813Y-86710737D01*
X138339623Y-86820375D01*
X138339624Y-86820376D01*
X138569176Y-86930921D01*
X138569174Y-86930921D01*
X138812652Y-87006024D01*
X138812658Y-87006026D01*
X139064595Y-87043999D01*
X139064604Y-87044000D01*
X139319396Y-87044000D01*
X139319404Y-87043999D01*
X139571341Y-87006026D01*
X139571347Y-87006024D01*
X139814824Y-86930921D01*
X140044381Y-86820373D01*
X140205185Y-86710737D01*
X139555108Y-86060661D01*
X139693948Y-85973423D01*
X139821423Y-85845948D01*
X139908661Y-85707108D01*
X140558545Y-86356993D01*
X140600545Y-86304327D01*
X140727941Y-86083671D01*
X140821026Y-85846494D01*
X140821031Y-85846477D01*
X140877726Y-85598079D01*
X140896767Y-85344004D01*
X140896767Y-85343995D01*
X140877726Y-85089920D01*
X140821031Y-84841522D01*
X140821026Y-84841505D01*
X140726247Y-84600010D01*
X140728051Y-84599301D01*
X140718023Y-84538341D01*
X140745755Y-84474210D01*
X140803756Y-84435254D01*
X140841087Y-84429499D01*
X142622907Y-84429499D01*
X142689946Y-84449184D01*
X142735701Y-84501988D01*
X142745645Y-84571146D01*
X142736947Y-84599693D01*
X142737753Y-84600010D01*
X142642973Y-84841505D01*
X142642968Y-84841522D01*
X142586273Y-85089920D01*
X142567233Y-85343995D01*
X142567233Y-85344004D01*
X142586273Y-85598079D01*
X142642968Y-85846477D01*
X142642973Y-85846494D01*
X142736058Y-86083671D01*
X142736057Y-86083671D01*
X142863457Y-86304332D01*
X142905452Y-86356993D01*
X143555338Y-85707107D01*
X143642577Y-85845948D01*
X143770052Y-85973423D01*
X143908890Y-86060661D01*
X143258813Y-86710737D01*
X143419623Y-86820375D01*
X143419624Y-86820376D01*
X143649176Y-86930921D01*
X143649174Y-86930921D01*
X143892652Y-87006024D01*
X143892658Y-87006026D01*
X144144595Y-87043999D01*
X144144604Y-87044000D01*
X144399396Y-87044000D01*
X144399404Y-87043999D01*
X144651341Y-87006026D01*
X144651347Y-87006024D01*
X144894824Y-86930921D01*
X145025482Y-86868000D01*
X173084540Y-86868000D01*
X173104326Y-87056256D01*
X173104327Y-87056259D01*
X173162818Y-87236277D01*
X173162821Y-87236284D01*
X173257467Y-87400216D01*
X173384128Y-87540887D01*
X173384129Y-87540888D01*
X173537265Y-87652148D01*
X173537270Y-87652151D01*
X173710192Y-87729142D01*
X173710197Y-87729144D01*
X173895354Y-87768500D01*
X173895355Y-87768500D01*
X174084644Y-87768500D01*
X174084646Y-87768500D01*
X174269803Y-87729144D01*
X174442730Y-87652151D01*
X174595871Y-87540888D01*
X174722533Y-87400216D01*
X174817179Y-87236284D01*
X174875674Y-87056256D01*
X174895460Y-86868000D01*
X174875674Y-86679744D01*
X174817179Y-86499716D01*
X174722533Y-86335784D01*
X174595871Y-86195112D01*
X174595870Y-86195111D01*
X174442734Y-86083851D01*
X174442729Y-86083848D01*
X174269807Y-86006857D01*
X174269802Y-86006855D01*
X174124001Y-85975865D01*
X174084646Y-85967500D01*
X173895354Y-85967500D01*
X173867488Y-85973423D01*
X173710197Y-86006855D01*
X173710192Y-86006857D01*
X173537270Y-86083848D01*
X173537265Y-86083851D01*
X173384129Y-86195111D01*
X173257466Y-86335785D01*
X173162821Y-86499715D01*
X173162818Y-86499722D01*
X173104327Y-86679740D01*
X173104326Y-86679744D01*
X173084540Y-86868000D01*
X145025482Y-86868000D01*
X145124381Y-86820373D01*
X145285185Y-86710737D01*
X144635108Y-86060661D01*
X144773948Y-85973423D01*
X144901423Y-85845948D01*
X144988661Y-85707108D01*
X145638545Y-86356993D01*
X145680545Y-86304327D01*
X145807941Y-86083671D01*
X145901026Y-85846494D01*
X145901031Y-85846477D01*
X145957726Y-85598079D01*
X145976767Y-85344004D01*
X145976767Y-85343995D01*
X145957726Y-85089920D01*
X145901031Y-84841522D01*
X145901026Y-84841505D01*
X145898865Y-84836000D01*
X162924540Y-84836000D01*
X162944326Y-85024256D01*
X162944327Y-85024259D01*
X163002818Y-85204277D01*
X163002821Y-85204284D01*
X163097467Y-85368216D01*
X163224128Y-85508887D01*
X163224129Y-85508888D01*
X163377265Y-85620148D01*
X163377270Y-85620151D01*
X163550192Y-85697142D01*
X163550197Y-85697144D01*
X163735354Y-85736500D01*
X163735355Y-85736500D01*
X163924644Y-85736500D01*
X163924646Y-85736500D01*
X164109803Y-85697144D01*
X164282730Y-85620151D01*
X164435871Y-85508888D01*
X164562533Y-85368216D01*
X164657179Y-85204284D01*
X164715674Y-85024256D01*
X164735460Y-84836000D01*
X164715674Y-84647744D01*
X164657179Y-84467716D01*
X164562533Y-84303784D01*
X164435871Y-84163112D01*
X164435870Y-84163111D01*
X164282734Y-84051851D01*
X164282729Y-84051848D01*
X164109807Y-83974857D01*
X164109802Y-83974855D01*
X163964000Y-83943865D01*
X163924646Y-83935500D01*
X163735354Y-83935500D01*
X163702897Y-83942398D01*
X163550197Y-83974855D01*
X163550192Y-83974857D01*
X163377270Y-84051848D01*
X163377265Y-84051851D01*
X163224129Y-84163111D01*
X163097466Y-84303785D01*
X163002821Y-84467715D01*
X163002818Y-84467722D01*
X162944327Y-84647740D01*
X162944326Y-84647744D01*
X162924540Y-84836000D01*
X145898865Y-84836000D01*
X145807941Y-84604328D01*
X145807942Y-84604328D01*
X145680544Y-84383671D01*
X145638546Y-84331006D01*
X144988661Y-84980890D01*
X144901423Y-84842052D01*
X144773948Y-84714577D01*
X144635108Y-84627338D01*
X145285185Y-83977261D01*
X145124377Y-83867624D01*
X145124376Y-83867623D01*
X144894823Y-83757078D01*
X144894825Y-83757078D01*
X144651347Y-83681975D01*
X144651341Y-83681973D01*
X144399404Y-83644000D01*
X144144595Y-83644000D01*
X143892658Y-83681973D01*
X143892652Y-83681975D01*
X143649175Y-83757078D01*
X143535300Y-83811918D01*
X143466359Y-83823270D01*
X143402225Y-83795548D01*
X143363259Y-83737552D01*
X143357499Y-83700203D01*
X143357499Y-81907801D01*
X143377184Y-81840763D01*
X143429988Y-81795008D01*
X143499146Y-81785064D01*
X143535300Y-81796082D01*
X143649176Y-81850921D01*
X143649174Y-81850921D01*
X143892652Y-81926024D01*
X143892658Y-81926026D01*
X144144595Y-81963999D01*
X144144604Y-81964000D01*
X144399396Y-81964000D01*
X144399404Y-81963999D01*
X144651341Y-81926026D01*
X144651347Y-81926024D01*
X144894824Y-81850921D01*
X145124381Y-81740373D01*
X145240798Y-81661000D01*
X162670540Y-81661000D01*
X162690326Y-81849256D01*
X162690327Y-81849259D01*
X162748818Y-82029277D01*
X162748821Y-82029284D01*
X162843467Y-82193216D01*
X162970129Y-82333888D01*
X163123265Y-82445148D01*
X163123270Y-82445151D01*
X163296192Y-82522142D01*
X163296197Y-82522144D01*
X163481354Y-82561500D01*
X163481355Y-82561500D01*
X163670644Y-82561500D01*
X163670646Y-82561500D01*
X163855803Y-82522144D01*
X164028730Y-82445151D01*
X164181871Y-82333888D01*
X164308533Y-82193216D01*
X164403179Y-82029284D01*
X164461674Y-81849256D01*
X164481460Y-81661000D01*
X164461674Y-81472744D01*
X164403179Y-81292716D01*
X164308533Y-81128784D01*
X164181871Y-80988112D01*
X164181870Y-80988111D01*
X164028734Y-80876851D01*
X164028729Y-80876848D01*
X163855807Y-80799857D01*
X163855802Y-80799855D01*
X163696277Y-80765948D01*
X163670646Y-80760500D01*
X163481354Y-80760500D01*
X163455723Y-80765948D01*
X163296197Y-80799855D01*
X163296192Y-80799857D01*
X163123270Y-80876848D01*
X163123265Y-80876851D01*
X162970129Y-80988111D01*
X162843466Y-81128785D01*
X162748821Y-81292715D01*
X162748818Y-81292722D01*
X162691582Y-81468878D01*
X162690326Y-81472744D01*
X162670540Y-81661000D01*
X145240798Y-81661000D01*
X145285185Y-81630737D01*
X144635108Y-80980661D01*
X144773948Y-80893423D01*
X144901423Y-80765948D01*
X144988661Y-80627108D01*
X145638545Y-81276993D01*
X145680545Y-81224327D01*
X145807941Y-81003671D01*
X145901026Y-80766494D01*
X145901031Y-80766477D01*
X145957726Y-80518079D01*
X145976767Y-80264004D01*
X145976767Y-80263995D01*
X145957726Y-80009920D01*
X145901031Y-79761522D01*
X145901026Y-79761505D01*
X145807941Y-79524328D01*
X145807942Y-79524328D01*
X145795051Y-79502000D01*
X153907540Y-79502000D01*
X153927326Y-79690256D01*
X153927327Y-79690259D01*
X153985818Y-79870277D01*
X153985821Y-79870284D01*
X154080467Y-80034216D01*
X154162660Y-80125500D01*
X154207129Y-80174888D01*
X154360265Y-80286148D01*
X154360270Y-80286151D01*
X154533192Y-80363142D01*
X154533197Y-80363144D01*
X154718354Y-80402500D01*
X154718355Y-80402500D01*
X154907644Y-80402500D01*
X154907646Y-80402500D01*
X155092803Y-80363144D01*
X155265730Y-80286151D01*
X155418871Y-80174888D01*
X155545533Y-80034216D01*
X155640179Y-79870284D01*
X155698674Y-79690256D01*
X155718460Y-79502000D01*
X155698674Y-79313744D01*
X155640179Y-79133716D01*
X155545533Y-78969784D01*
X155418871Y-78829112D01*
X155418870Y-78829111D01*
X155265734Y-78717851D01*
X155265729Y-78717848D01*
X155092807Y-78640857D01*
X155092802Y-78640855D01*
X154947001Y-78609865D01*
X154907646Y-78601500D01*
X154718354Y-78601500D01*
X154685897Y-78608398D01*
X154533197Y-78640855D01*
X154533192Y-78640857D01*
X154360270Y-78717848D01*
X154360265Y-78717851D01*
X154207129Y-78829111D01*
X154080466Y-78969785D01*
X153985821Y-79133715D01*
X153985818Y-79133722D01*
X153944951Y-79259500D01*
X153927326Y-79313744D01*
X153907540Y-79502000D01*
X145795051Y-79502000D01*
X145680544Y-79303671D01*
X145638546Y-79251006D01*
X144988661Y-79900890D01*
X144901423Y-79762052D01*
X144773948Y-79634577D01*
X144635107Y-79547337D01*
X145285185Y-78897261D01*
X145124377Y-78787624D01*
X145124376Y-78787623D01*
X144894823Y-78677078D01*
X144894825Y-78677078D01*
X144651347Y-78601975D01*
X144651341Y-78601973D01*
X144399404Y-78564000D01*
X144144595Y-78564000D01*
X143892658Y-78601973D01*
X143892652Y-78601975D01*
X143649175Y-78677078D01*
X143419624Y-78787623D01*
X143419616Y-78787628D01*
X143258813Y-78897261D01*
X143908891Y-79547338D01*
X143770052Y-79634577D01*
X143642577Y-79762052D01*
X143555338Y-79900891D01*
X142905453Y-79251006D01*
X142863455Y-79303670D01*
X142736058Y-79524328D01*
X142642973Y-79761505D01*
X142642968Y-79761522D01*
X142586273Y-80009920D01*
X142567233Y-80263995D01*
X142567233Y-80264004D01*
X142586273Y-80518079D01*
X142642968Y-80766477D01*
X142642973Y-80766494D01*
X142737753Y-81007990D01*
X142735940Y-81008701D01*
X142745982Y-81069618D01*
X142718271Y-81133758D01*
X142660282Y-81172733D01*
X142622907Y-81178500D01*
X140841093Y-81178500D01*
X140774054Y-81158815D01*
X140728299Y-81106011D01*
X140718355Y-81036853D01*
X140727056Y-81008307D01*
X140726247Y-81007990D01*
X140821026Y-80766494D01*
X140821031Y-80766477D01*
X140877726Y-80518079D01*
X140896767Y-80264004D01*
X140896767Y-80263995D01*
X140877726Y-80009920D01*
X140821031Y-79761522D01*
X140821026Y-79761505D01*
X140727941Y-79524328D01*
X140727942Y-79524328D01*
X140600544Y-79303671D01*
X140558545Y-79251005D01*
X139908660Y-79900890D01*
X139821423Y-79762052D01*
X139693948Y-79634577D01*
X139555107Y-79547337D01*
X140205185Y-78897261D01*
X140044377Y-78787624D01*
X140044376Y-78787623D01*
X139814823Y-78677078D01*
X139814825Y-78677078D01*
X139571347Y-78601975D01*
X139571341Y-78601973D01*
X139319404Y-78564000D01*
X139064595Y-78564000D01*
X138812658Y-78601973D01*
X138812652Y-78601975D01*
X138569175Y-78677078D01*
X138339624Y-78787623D01*
X138339616Y-78787628D01*
X138178813Y-78897261D01*
X138828891Y-79547338D01*
X138690052Y-79634577D01*
X138562577Y-79762052D01*
X138475338Y-79900891D01*
X137825452Y-79251005D01*
X137799452Y-79252466D01*
X137731415Y-79236571D01*
X137682771Y-79186415D01*
X137668500Y-79128661D01*
X137668500Y-78359000D01*
X151240540Y-78359000D01*
X151260326Y-78547256D01*
X151260327Y-78547259D01*
X151318818Y-78727277D01*
X151318821Y-78727284D01*
X151413467Y-78891216D01*
X151484211Y-78969785D01*
X151540129Y-79031888D01*
X151693265Y-79143148D01*
X151693270Y-79143151D01*
X151866192Y-79220142D01*
X151866197Y-79220144D01*
X152051354Y-79259500D01*
X152051355Y-79259500D01*
X152240644Y-79259500D01*
X152240646Y-79259500D01*
X152425803Y-79220144D01*
X152598730Y-79143151D01*
X152751871Y-79031888D01*
X152878533Y-78891216D01*
X152973179Y-78727284D01*
X153031674Y-78547256D01*
X153051460Y-78359000D01*
X153031674Y-78170744D01*
X152973179Y-77990716D01*
X152878533Y-77826784D01*
X152751871Y-77686112D01*
X152751870Y-77686111D01*
X152598734Y-77574851D01*
X152598729Y-77574848D01*
X152425807Y-77497857D01*
X152425802Y-77497855D01*
X152280000Y-77466865D01*
X152240646Y-77458500D01*
X152051354Y-77458500D01*
X152018897Y-77465398D01*
X151866197Y-77497855D01*
X151866192Y-77497857D01*
X151693270Y-77574848D01*
X151693265Y-77574851D01*
X151540129Y-77686111D01*
X151413466Y-77826785D01*
X151318821Y-77990715D01*
X151318818Y-77990722D01*
X151270980Y-78137954D01*
X151260326Y-78170744D01*
X151240540Y-78359000D01*
X137668500Y-78359000D01*
X137668500Y-77555077D01*
X137688185Y-77488038D01*
X137740989Y-77442283D01*
X137747431Y-77439557D01*
X137995013Y-77343000D01*
X161019540Y-77343000D01*
X161039326Y-77531256D01*
X161039327Y-77531259D01*
X161097818Y-77711277D01*
X161097821Y-77711284D01*
X161192467Y-77875216D01*
X161299797Y-77994418D01*
X161319129Y-78015888D01*
X161472265Y-78127148D01*
X161472270Y-78127151D01*
X161645192Y-78204142D01*
X161645197Y-78204144D01*
X161830354Y-78243500D01*
X161830355Y-78243500D01*
X162019644Y-78243500D01*
X162019646Y-78243500D01*
X162204803Y-78204144D01*
X162377730Y-78127151D01*
X162530871Y-78015888D01*
X162657533Y-77875216D01*
X162752179Y-77711284D01*
X162810674Y-77531256D01*
X162830460Y-77343000D01*
X162810674Y-77154744D01*
X162752179Y-76974716D01*
X162657533Y-76810784D01*
X162530871Y-76670112D01*
X162519125Y-76661578D01*
X162377734Y-76558851D01*
X162377729Y-76558848D01*
X162204807Y-76481857D01*
X162204802Y-76481855D01*
X162059000Y-76450865D01*
X162019646Y-76442500D01*
X161830354Y-76442500D01*
X161797897Y-76449398D01*
X161645197Y-76481855D01*
X161645192Y-76481857D01*
X161472270Y-76558848D01*
X161472265Y-76558851D01*
X161319129Y-76670111D01*
X161192466Y-76810785D01*
X161097821Y-76974715D01*
X161097818Y-76974722D01*
X161056951Y-77100500D01*
X161039326Y-77154744D01*
X161019540Y-77343000D01*
X137995013Y-77343000D01*
X140925783Y-76200000D01*
X151240540Y-76200000D01*
X151260326Y-76388256D01*
X151260327Y-76388259D01*
X151318818Y-76568277D01*
X151318821Y-76568284D01*
X151413467Y-76732216D01*
X151484211Y-76810785D01*
X151540129Y-76872888D01*
X151693265Y-76984148D01*
X151693270Y-76984151D01*
X151866192Y-77061142D01*
X151866197Y-77061144D01*
X152051354Y-77100500D01*
X152051355Y-77100500D01*
X152240644Y-77100500D01*
X152240646Y-77100500D01*
X152425803Y-77061144D01*
X152598730Y-76984151D01*
X152751871Y-76872888D01*
X152878533Y-76732216D01*
X152973179Y-76568284D01*
X153031674Y-76388256D01*
X153051460Y-76200000D01*
X153031674Y-76011744D01*
X152973179Y-75831716D01*
X152878533Y-75667784D01*
X152751871Y-75527112D01*
X152751870Y-75527111D01*
X152598734Y-75415851D01*
X152598729Y-75415848D01*
X152425807Y-75338857D01*
X152425802Y-75338855D01*
X152280000Y-75307865D01*
X152240646Y-75299500D01*
X152051354Y-75299500D01*
X152018897Y-75306398D01*
X151866197Y-75338855D01*
X151866192Y-75338857D01*
X151693270Y-75415848D01*
X151693265Y-75415851D01*
X151540129Y-75527111D01*
X151413466Y-75667785D01*
X151318821Y-75831715D01*
X151318818Y-75831722D01*
X151304204Y-75876701D01*
X151260326Y-76011744D01*
X151240540Y-76200000D01*
X140925783Y-76200000D01*
X150167127Y-72595876D01*
X151816680Y-72595876D01*
X151817865Y-72720173D01*
X151818052Y-72739792D01*
X151833431Y-72797739D01*
X152203878Y-73762785D01*
X152476970Y-74474214D01*
X152481606Y-74483259D01*
X152504314Y-74527567D01*
X152599594Y-74635434D01*
X152643840Y-74663277D01*
X152721402Y-74712086D01*
X152721406Y-74712088D01*
X152773584Y-74726870D01*
X152859876Y-74751319D01*
X153003792Y-74749948D01*
X153061739Y-74734569D01*
X154206854Y-74295000D01*
X160003540Y-74295000D01*
X160023326Y-74483256D01*
X160023327Y-74483259D01*
X160081818Y-74663277D01*
X160081821Y-74663284D01*
X160176467Y-74827216D01*
X160303129Y-74967888D01*
X160456265Y-75079148D01*
X160456270Y-75079151D01*
X160629192Y-75156142D01*
X160629197Y-75156144D01*
X160814354Y-75195500D01*
X160814355Y-75195500D01*
X161003644Y-75195500D01*
X161003646Y-75195500D01*
X161188803Y-75156144D01*
X161361730Y-75079151D01*
X161514871Y-74967888D01*
X161641533Y-74827216D01*
X161736179Y-74663284D01*
X161794674Y-74483256D01*
X161814460Y-74295000D01*
X161794674Y-74106744D01*
X161736179Y-73926716D01*
X161641533Y-73762784D01*
X161514871Y-73622112D01*
X161483740Y-73599494D01*
X161361734Y-73510851D01*
X161361729Y-73510848D01*
X161188807Y-73433857D01*
X161188802Y-73433855D01*
X161043000Y-73402865D01*
X161003646Y-73394500D01*
X160814354Y-73394500D01*
X160781897Y-73401398D01*
X160629197Y-73433855D01*
X160629192Y-73433857D01*
X160456270Y-73510848D01*
X160456265Y-73510851D01*
X160303129Y-73622111D01*
X160176466Y-73762785D01*
X160081821Y-73926715D01*
X160081818Y-73926722D01*
X160048325Y-74029804D01*
X160023326Y-74106744D01*
X160003540Y-74295000D01*
X154206854Y-74295000D01*
X154738211Y-74091031D01*
X154791567Y-74063686D01*
X154899434Y-73968406D01*
X154976087Y-73846596D01*
X155015319Y-73708124D01*
X155013948Y-73564208D01*
X154998569Y-73506261D01*
X154355031Y-71829789D01*
X154327686Y-71776433D01*
X154232406Y-71668566D01*
X154232403Y-71668564D01*
X154110597Y-71591913D01*
X154110593Y-71591911D01*
X153972123Y-71552680D01*
X153828207Y-71554052D01*
X153770261Y-71569431D01*
X152093785Y-72212970D01*
X152040435Y-72240312D01*
X151932564Y-72335596D01*
X151855913Y-72457402D01*
X151855911Y-72457406D01*
X151816680Y-72595876D01*
X150167127Y-72595876D01*
X163046364Y-67572974D01*
X163091419Y-67564500D01*
X165819407Y-67564500D01*
X165886446Y-67584185D01*
G37*
%TD.AperFunction*%
%TA.AperFunction,Conductor*%
G36*
X171540692Y-93788672D02*
G01*
X171596626Y-93830543D01*
X171612787Y-93859552D01*
X171683685Y-94040196D01*
X171683684Y-94040196D01*
X171811082Y-94260853D01*
X171969947Y-94460065D01*
X172156724Y-94633367D01*
X172367243Y-94776896D01*
X172367251Y-94776901D01*
X172596803Y-94887446D01*
X172596801Y-94887446D01*
X172840279Y-94962549D01*
X172840287Y-94962551D01*
X172969627Y-94982045D01*
X172969627Y-94060608D01*
X173040484Y-94085402D01*
X173174701Y-94100525D01*
X173264553Y-94100525D01*
X173398770Y-94085402D01*
X173469627Y-94060608D01*
X173469627Y-94982044D01*
X173598966Y-94962551D01*
X173598974Y-94962549D01*
X173733984Y-94920904D01*
X173803847Y-94919954D01*
X173863133Y-94956925D01*
X173893020Y-95020080D01*
X173884019Y-95089367D01*
X173858215Y-95127076D01*
X171461258Y-97524033D01*
X171399935Y-97557518D01*
X171330243Y-97552534D01*
X171274310Y-97510662D01*
X171249893Y-97445198D01*
X171256832Y-97400045D01*
X171255189Y-97399538D01*
X171256557Y-97395102D01*
X171313249Y-97146713D01*
X171313250Y-97146706D01*
X171313557Y-97142627D01*
X170387608Y-97142627D01*
X170412402Y-97071770D01*
X170432587Y-96892627D01*
X170412402Y-96713484D01*
X170387608Y-96642627D01*
X171313556Y-96642627D01*
X171313250Y-96638547D01*
X171313249Y-96638540D01*
X171256557Y-96390151D01*
X171256551Y-96390132D01*
X171163466Y-96152955D01*
X171163467Y-96152955D01*
X171036069Y-95932298D01*
X170877204Y-95733086D01*
X170690430Y-95559786D01*
X170479902Y-95416251D01*
X170479901Y-95416250D01*
X170250349Y-95305705D01*
X170195400Y-95288756D01*
X170137141Y-95250186D01*
X170108983Y-95186241D01*
X170119867Y-95117224D01*
X170144264Y-95082589D01*
X171409682Y-93817170D01*
X171471001Y-93783688D01*
X171540692Y-93788672D01*
G37*
%TD.AperFunction*%
%TA.AperFunction,Conductor*%
G36*
X171414720Y-68816671D02*
G01*
X171461257Y-68845965D01*
X173858218Y-71242925D01*
X173891703Y-71304248D01*
X173886719Y-71373940D01*
X173844847Y-71429873D01*
X173779383Y-71454290D01*
X173733987Y-71449097D01*
X173598981Y-71407453D01*
X173598975Y-71407452D01*
X173469627Y-71387955D01*
X173469627Y-72309392D01*
X173398770Y-72284599D01*
X173264553Y-72269476D01*
X173174701Y-72269476D01*
X173040484Y-72284599D01*
X172969627Y-72309392D01*
X172969627Y-71387955D01*
X172840278Y-71407452D01*
X172840272Y-71407453D01*
X172596802Y-71482554D01*
X172367251Y-71593099D01*
X172367243Y-71593104D01*
X172156724Y-71736633D01*
X171969947Y-71909935D01*
X171811082Y-72109147D01*
X171683686Y-72329802D01*
X171612788Y-72510447D01*
X171569972Y-72565660D01*
X171504102Y-72588961D01*
X171436091Y-72572950D01*
X171409679Y-72552825D01*
X170525417Y-71668564D01*
X170144268Y-71287416D01*
X170110784Y-71226094D01*
X170115768Y-71156403D01*
X170157639Y-71100469D01*
X170195400Y-71081245D01*
X170250349Y-71064295D01*
X170479901Y-70953750D01*
X170479902Y-70953749D01*
X170690430Y-70810214D01*
X170877204Y-70636914D01*
X171036069Y-70437702D01*
X171163466Y-70217045D01*
X171256551Y-69979868D01*
X171256557Y-69979849D01*
X171313249Y-69731460D01*
X171313250Y-69731453D01*
X171313557Y-69727374D01*
X170387608Y-69727374D01*
X170412402Y-69656517D01*
X170432587Y-69477374D01*
X170412402Y-69298231D01*
X170387608Y-69227374D01*
X171313556Y-69227374D01*
X171313250Y-69223294D01*
X171313249Y-69223287D01*
X171256557Y-68974898D01*
X171255189Y-68970463D01*
X171257381Y-68969786D01*
X171251936Y-68909568D01*
X171284263Y-68847627D01*
X171344947Y-68812996D01*
X171414720Y-68816671D01*
G37*
%TD.AperFunction*%
%TD*%
M02*
