M48
; DRILL file {KiCad 7.0.5} date Sat Nov  4 19:56:52 2023
; FORMAT={-:-/ absolute / inch / decimal}
; #@! TF.CreationDate,2023-11-04T19:56:52-04:00
; #@! TF.GenerationSoftware,Kicad,Pcbnew,7.0.5
; #@! TF.FileFunction,Plated,1,4,PTH
FMAT,2
INCH
; #@! TA.AperFunction,Plated,PTH,ViaDrill
T1C0.0157
; #@! TA.AperFunction,Plated,PTH,ComponentDrill
T2C0.0394
; #@! TA.AperFunction,Plated,PTH,ComponentDrill
T3C0.0512
; #@! TA.AperFunction,Plated,PTH,ComponentDrill
T4C0.0591
; #@! TA.AperFunction,Plated,PTH,ComponentDrill
T5C0.0630
%
G90
G05
T1
X5.62Y-3.5
X5.6968Y-2.9789
X5.7789Y-3.5611
X5.795Y-3.235
X5.81Y-3.405
X5.82Y-3.02
X5.85Y-3.23
X5.865Y-3.345
X5.89Y-3.165
X5.9Y-2.92
X5.9Y-3.33
X5.9Y-3.48
X5.91Y-3.225
X5.945Y-3.33
X5.955Y-3.23
X5.965Y-3.36
X5.99Y-3.0
X5.99Y-3.085
X6.0Y-3.54
X6.005Y-3.23
X6.02Y-3.41
X6.06Y-3.23
X6.07Y-3.36
X6.07Y-3.5
X6.095Y-3.13
X6.095Y-3.33
X6.1Y-3.68
X6.11Y-3.57
X6.115Y-3.23
X6.1395Y-3.4271
X6.14Y-3.33
X6.16Y-3.09
X6.16Y-3.23
X6.17Y-3.63
X6.185Y-3.33
X6.23Y-3.33
X6.23Y-3.52
X6.23Y-3.61
X6.24Y-3.42
X6.26Y-2.84
X6.27Y-3.33
X6.27Y-3.48
X6.27Y-3.66
X6.275Y-3.23
X6.2822Y-3.5589
X6.31Y-3.33
X6.32Y-3.23
X6.335Y-2.925
X6.34Y-2.74
X6.36Y-3.475
X6.365Y-3.23
X6.375Y-3.045
X6.38Y-2.82
X6.395Y-3.7
X6.3981Y-3.5789
X6.42Y-2.98
X6.44Y-3.215
X6.45Y-3.34
X6.48Y-2.72
X6.485Y-3.09
X6.485Y-3.13
X6.485Y-3.17
X6.485Y-3.37
X6.485Y-3.415
X6.485Y-3.465
X6.485Y-3.81
X6.49Y-3.04
X6.49Y-3.21
X6.49Y-3.515
X6.505Y-3.0
X6.51Y-3.56
X6.53Y-3.87
X6.535Y-2.965
X6.54Y-3.59
X6.56Y-2.69
X6.565Y-3.085
X6.565Y-3.125
X6.565Y-3.165
X6.565Y-3.21
X6.565Y-3.345
X6.565Y-3.39
X6.565Y-3.44
X6.565Y-3.49
X6.57Y-3.045
X6.575Y-3.28
X6.59Y-3.535
X6.595Y-3.01
X6.66Y-3.18
X6.66Y-3.28
X6.66Y-3.38
X6.74Y-3.22
X6.74Y-3.32
X6.74Y-3.42
X6.76Y-3.14
X6.82Y-3.24
X6.82Y-3.34
X6.82Y-3.5
X6.84Y-3.1
X6.85Y-3.42
X6.86Y-3.19
T2
X6.04Y-2.88
T3
X5.9962Y-3.6695
X6.18Y-3.74
T4
X5.58Y-3.26
X6.6782Y-2.8768
X6.6782Y-3.6732
T5
X5.48Y-3.16
X5.48Y-3.36
X5.68Y-3.16
X5.68Y-3.36
X6.5368Y-2.8768
X6.5368Y-3.6732
X6.6782Y-2.7353
X6.6782Y-3.0182
X6.6782Y-3.5318
X6.6782Y-3.8147
X6.8197Y-2.8768
X6.8197Y-3.6732
T0
M30
