%TF.GenerationSoftware,KiCad,Pcbnew,7.0.5*%
%TF.CreationDate,2023-11-04T19:56:55-04:00*%
%TF.ProjectId,Switch,53776974-6368-42e6-9b69-6361645f7063,rev?*%
%TF.SameCoordinates,Original*%
%TF.FileFunction,Copper,L3,Inr*%
%TF.FilePolarity,Positive*%
%FSLAX46Y46*%
G04 Gerber Fmt 4.6, Leading zero omitted, Abs format (unit mm)*
G04 Created by KiCad (PCBNEW 7.0.5) date 2023-11-04 19:56:55*
%MOMM*%
%LPD*%
G01*
G04 APERTURE LIST*
G04 Aperture macros list*
%AMRotRect*
0 Rectangle, with rotation*
0 The origin of the aperture is its center*
0 $1 length*
0 $2 width*
0 $3 Rotation angle, in degrees counterclockwise*
0 Add horizontal line*
21,1,$1,$2,0,0,$3*%
G04 Aperture macros list end*
%TA.AperFunction,ComponentPad*%
%ADD10RotRect,1.650000X1.650000X339.000000*%
%TD*%
%TA.AperFunction,ComponentPad*%
%ADD11C,1.650000*%
%TD*%
%TA.AperFunction,ComponentPad*%
%ADD12RotRect,2.250000X2.250000X45.000000*%
%TD*%
%TA.AperFunction,ComponentPad*%
%ADD13C,2.400000*%
%TD*%
%TA.AperFunction,ComponentPad*%
%ADD14RotRect,2.250000X2.250000X315.000000*%
%TD*%
%TA.AperFunction,ComponentPad*%
%ADD15RotRect,1.700000X1.700000X21.000000*%
%TD*%
%TA.AperFunction,ComponentPad*%
%ADD16R,2.250000X2.250000*%
%TD*%
%TA.AperFunction,ViaPad*%
%ADD17C,0.800000*%
%TD*%
G04 APERTURE END LIST*
D10*
%TO.N,+3.3V*%
%TO.C,J1*%
X156972000Y-94996000D03*
D11*
%TO.N,GND*%
X152304098Y-93204160D03*
%TD*%
D12*
%TO.N,LNA_INPUT*%
%TO.C,J3*%
X169627525Y-73069476D03*
D13*
%TO.N,GND*%
X166035423Y-73069476D03*
X169627525Y-76661578D03*
X173219627Y-73069476D03*
X169627525Y-69477374D03*
%TD*%
D14*
%TO.N,Power_Amp_Out*%
%TO.C,J4*%
X169627525Y-93300525D03*
D13*
%TO.N,GND*%
X169627525Y-89708423D03*
X166035423Y-93300525D03*
X169627525Y-96892627D03*
X173219627Y-93300525D03*
%TD*%
D15*
%TO.N,Net-(J5-Pin_1)*%
%TO.C,J5*%
X153416000Y-73152000D03*
%TD*%
D16*
%TO.N,Filter_output*%
%TO.C,J2*%
X141732000Y-82804000D03*
D13*
%TO.N,GND*%
X144272000Y-85344000D03*
X144272000Y-80264000D03*
X139192000Y-80264000D03*
X139192000Y-85344000D03*
%TD*%
D17*
%TO.N,+3.3V*%
X173990000Y-86868000D03*
X152146000Y-76200000D03*
X160909000Y-74295000D03*
X165862000Y-98298000D03*
X174244000Y-81026000D03*
X162433000Y-93980000D03*
X166624000Y-68326000D03*
%TO.N,Net-(IC1-V1)*%
X154813000Y-79502000D03*
X163576000Y-81661000D03*
%TO.N,Net-(IC1-V2)*%
X152146000Y-78359000D03*
X163830000Y-84836000D03*
X161925000Y-77343000D03*
%TO.N,GND*%
X159385000Y-82042000D03*
X169164000Y-85852000D03*
X152908000Y-86614000D03*
X166116000Y-91186000D03*
X148590000Y-82042000D03*
X154178000Y-88900000D03*
X164719000Y-78486000D03*
X169164000Y-83312000D03*
X166751000Y-80391000D03*
X166751000Y-86106000D03*
X158496000Y-86868000D03*
X158242000Y-89408000D03*
X149860000Y-84582000D03*
X164719000Y-86741000D03*
X160528000Y-82042000D03*
X173228000Y-84836000D03*
X154178000Y-85344000D03*
X164719000Y-80518000D03*
X165354000Y-90424000D03*
X156464000Y-82042000D03*
X146785221Y-90451452D03*
X148971000Y-84963000D03*
X166878000Y-77343000D03*
X154940000Y-93472000D03*
X154813000Y-84582000D03*
X153924000Y-82042000D03*
X167005000Y-83312000D03*
X164592000Y-69088000D03*
X150114000Y-81915000D03*
X147574000Y-86487000D03*
X173228000Y-88900000D03*
X167386000Y-89789000D03*
X164719000Y-88011000D03*
X159258000Y-84582000D03*
X164846000Y-81534000D03*
X173736000Y-78740000D03*
X147193000Y-82169000D03*
X158242000Y-91694000D03*
X149860000Y-74168000D03*
X155194000Y-90678000D03*
X152400000Y-89916000D03*
X166751000Y-78359000D03*
X163068000Y-75692000D03*
X160274000Y-84582000D03*
X159566660Y-90396781D03*
X164719000Y-79502000D03*
X155321000Y-82042000D03*
X161671000Y-82042000D03*
X164719000Y-85598000D03*
X155956000Y-84582000D03*
X159258000Y-88392000D03*
X165227000Y-76200000D03*
X144697642Y-75664435D03*
X165989000Y-75311000D03*
X152527000Y-82042000D03*
X156464000Y-78486000D03*
X167513000Y-76454000D03*
X171704000Y-79756000D03*
X171196000Y-84328000D03*
X151257000Y-82042000D03*
X166751000Y-79375000D03*
X155942469Y-87049246D03*
X158242000Y-84582000D03*
X164846000Y-77216000D03*
X149860000Y-88392000D03*
X162052000Y-71628000D03*
X166751000Y-88646000D03*
X166751000Y-84963000D03*
X171196000Y-81788000D03*
X162511649Y-90903761D03*
X161544000Y-88265000D03*
X169164000Y-80772000D03*
X151003000Y-84582000D03*
X166751000Y-87376000D03*
X164719000Y-96774000D03*
X161036000Y-69596000D03*
X173228000Y-82296000D03*
X166751000Y-81534000D03*
X164846000Y-89281000D03*
X149606000Y-80391000D03*
X156718000Y-92202000D03*
X159258000Y-92964000D03*
X171196000Y-86868000D03*
X151511000Y-85344000D03*
X147828000Y-76708000D03*
X157099000Y-84582000D03*
X159004000Y-72136000D03*
X142748000Y-88900000D03*
%TD*%
%TA.AperFunction,Conductor*%
%TO.N,+3.3V*%
G36*
X169321480Y-67584185D02*
G01*
X169367235Y-67636989D01*
X169377179Y-67706147D01*
X169348154Y-67769703D01*
X169289376Y-67807477D01*
X169272930Y-67811113D01*
X169248067Y-67814861D01*
X169248063Y-67814862D01*
X169248064Y-67814862D01*
X169248058Y-67814863D01*
X169004517Y-67889986D01*
X168774898Y-68000564D01*
X168774897Y-68000565D01*
X168564307Y-68144142D01*
X168377477Y-68317495D01*
X168377475Y-68317497D01*
X168218566Y-68516762D01*
X168091133Y-68737483D01*
X167998017Y-68974736D01*
X167998015Y-68974743D01*
X167941302Y-69223219D01*
X167922257Y-69477369D01*
X167922257Y-69477378D01*
X167941302Y-69731528D01*
X167994425Y-69964277D01*
X167998017Y-69980011D01*
X168091132Y-70217262D01*
X168218566Y-70437986D01*
X168377475Y-70637251D01*
X168564308Y-70810606D01*
X168774891Y-70954179D01*
X168774896Y-70954181D01*
X168774897Y-70954182D01*
X168774898Y-70954183D01*
X168896853Y-71012912D01*
X169004521Y-71064763D01*
X169059249Y-71081644D01*
X169117506Y-71120213D01*
X169145664Y-71184157D01*
X169134782Y-71253174D01*
X169110379Y-71287815D01*
X167845756Y-72552440D01*
X167784433Y-72585925D01*
X167714742Y-72580941D01*
X167658808Y-72539070D01*
X167642647Y-72510062D01*
X167642647Y-72510061D01*
X167571816Y-72329588D01*
X167444382Y-72108864D01*
X167285473Y-71909599D01*
X167098640Y-71736244D01*
X166888057Y-71592671D01*
X166888053Y-71592669D01*
X166888050Y-71592667D01*
X166888049Y-71592666D01*
X166658429Y-71482088D01*
X166658431Y-71482088D01*
X166414889Y-71406965D01*
X166414885Y-71406964D01*
X166414881Y-71406963D01*
X166293654Y-71388690D01*
X166162863Y-71368976D01*
X166162858Y-71368976D01*
X165907988Y-71368976D01*
X165907982Y-71368976D01*
X165751032Y-71392633D01*
X165655965Y-71406963D01*
X165655961Y-71406964D01*
X165655962Y-71406964D01*
X165655956Y-71406965D01*
X165412415Y-71482088D01*
X165182796Y-71592666D01*
X165182795Y-71592667D01*
X164972205Y-71736244D01*
X164785375Y-71909597D01*
X164785373Y-71909599D01*
X164626464Y-72108864D01*
X164499031Y-72329585D01*
X164405915Y-72566838D01*
X164405913Y-72566845D01*
X164349200Y-72815321D01*
X164330155Y-73069471D01*
X164330155Y-73069480D01*
X164349200Y-73323630D01*
X164404607Y-73566386D01*
X164405915Y-73572113D01*
X164499030Y-73809364D01*
X164626464Y-74030088D01*
X164785373Y-74229353D01*
X164972206Y-74402708D01*
X165182789Y-74546281D01*
X165182792Y-74546282D01*
X165182793Y-74546283D01*
X165231180Y-74569585D01*
X165283039Y-74616408D01*
X165301352Y-74683835D01*
X165280304Y-74750459D01*
X165269531Y-74764274D01*
X165256468Y-74778782D01*
X165256464Y-74778787D01*
X165161821Y-74942715D01*
X165161818Y-74942722D01*
X165103327Y-75122739D01*
X165103327Y-75122740D01*
X165103326Y-75122744D01*
X165101999Y-75135370D01*
X165093077Y-75220253D01*
X165066492Y-75284867D01*
X165009194Y-75324851D01*
X164995539Y-75328580D01*
X164947194Y-75338856D01*
X164947192Y-75338857D01*
X164774270Y-75415848D01*
X164774265Y-75415851D01*
X164621129Y-75527111D01*
X164494466Y-75667785D01*
X164399821Y-75831715D01*
X164399818Y-75831722D01*
X164369884Y-75923851D01*
X164341326Y-76011744D01*
X164321540Y-76200000D01*
X164341326Y-76388256D01*
X164341326Y-76388258D01*
X164341785Y-76392618D01*
X164329215Y-76461347D01*
X164291351Y-76505896D01*
X164240128Y-76543112D01*
X164240123Y-76543116D01*
X164113466Y-76683785D01*
X164018821Y-76847715D01*
X164018818Y-76847722D01*
X163960327Y-77027740D01*
X163960326Y-77027744D01*
X163940540Y-77216000D01*
X163960326Y-77404256D01*
X163960327Y-77404259D01*
X164018818Y-77584277D01*
X164018823Y-77584289D01*
X164091118Y-77709508D01*
X164107591Y-77777408D01*
X164084738Y-77843435D01*
X164075881Y-77854479D01*
X163986466Y-77953784D01*
X163891821Y-78117715D01*
X163891818Y-78117722D01*
X163833328Y-78297738D01*
X163833326Y-78297744D01*
X163813540Y-78486000D01*
X163833326Y-78674256D01*
X163833327Y-78674259D01*
X163891820Y-78854283D01*
X163936690Y-78932001D01*
X163953162Y-78999901D01*
X163936690Y-79055999D01*
X163891820Y-79133716D01*
X163833328Y-79313737D01*
X163833326Y-79313744D01*
X163813540Y-79502000D01*
X163833326Y-79690256D01*
X163833327Y-79690259D01*
X163891821Y-79870285D01*
X163936689Y-79947999D01*
X163953162Y-80015899D01*
X163936690Y-80071997D01*
X163891821Y-80149713D01*
X163891820Y-80149717D01*
X163854686Y-80264004D01*
X163833326Y-80329744D01*
X163822906Y-80428888D01*
X163813540Y-80518000D01*
X163825035Y-80627373D01*
X163812465Y-80696103D01*
X163764733Y-80747127D01*
X163696992Y-80764244D01*
X163675935Y-80761624D01*
X163670646Y-80760500D01*
X163481354Y-80760500D01*
X163448897Y-80767398D01*
X163296197Y-80799855D01*
X163296192Y-80799857D01*
X163123270Y-80876848D01*
X163123265Y-80876851D01*
X162970129Y-80988111D01*
X162843466Y-81128785D01*
X162748821Y-81292715D01*
X162748818Y-81292722D01*
X162690572Y-81471986D01*
X162690326Y-81472744D01*
X162687870Y-81496111D01*
X162682755Y-81544777D01*
X162656170Y-81609391D01*
X162598872Y-81649375D01*
X162529053Y-81652035D01*
X162468879Y-81616524D01*
X162452050Y-81593819D01*
X162403533Y-81509784D01*
X162276871Y-81369112D01*
X162276863Y-81369106D01*
X162123734Y-81257851D01*
X162123729Y-81257848D01*
X161950807Y-81180857D01*
X161950802Y-81180855D01*
X161782973Y-81145183D01*
X161765646Y-81141500D01*
X161576354Y-81141500D01*
X161559027Y-81145183D01*
X161391197Y-81180855D01*
X161391192Y-81180857D01*
X161218270Y-81257848D01*
X161218266Y-81257851D01*
X161172384Y-81291186D01*
X161106578Y-81314665D01*
X161038524Y-81298839D01*
X161026616Y-81291186D01*
X160980733Y-81257851D01*
X160980729Y-81257848D01*
X160807807Y-81180857D01*
X160807802Y-81180855D01*
X160639973Y-81145183D01*
X160622646Y-81141500D01*
X160433354Y-81141500D01*
X160416027Y-81145183D01*
X160248197Y-81180855D01*
X160248192Y-81180857D01*
X160075270Y-81257848D01*
X160075266Y-81257851D01*
X160029384Y-81291186D01*
X159963578Y-81314665D01*
X159895524Y-81298839D01*
X159883616Y-81291186D01*
X159837733Y-81257851D01*
X159837729Y-81257848D01*
X159664807Y-81180857D01*
X159664802Y-81180855D01*
X159496973Y-81145183D01*
X159479646Y-81141500D01*
X159290354Y-81141500D01*
X159273027Y-81145183D01*
X159105197Y-81180855D01*
X159105192Y-81180857D01*
X158932270Y-81257848D01*
X158932265Y-81257851D01*
X158779129Y-81369111D01*
X158652466Y-81509785D01*
X158557821Y-81673715D01*
X158557818Y-81673722D01*
X158500091Y-81851389D01*
X158499326Y-81853744D01*
X158479540Y-82042000D01*
X158499326Y-82230256D01*
X158499327Y-82230259D01*
X158557818Y-82410277D01*
X158557821Y-82410284D01*
X158652467Y-82574216D01*
X158750000Y-82682537D01*
X158779129Y-82714888D01*
X158932265Y-82826148D01*
X158932270Y-82826151D01*
X159105192Y-82903142D01*
X159105197Y-82903144D01*
X159290354Y-82942500D01*
X159290355Y-82942500D01*
X159479644Y-82942500D01*
X159479646Y-82942500D01*
X159664803Y-82903144D01*
X159833092Y-82828216D01*
X159837728Y-82826152D01*
X159837728Y-82826151D01*
X159837730Y-82826151D01*
X159883614Y-82792813D01*
X159949421Y-82769334D01*
X160017475Y-82785159D01*
X160029386Y-82792814D01*
X160075271Y-82826152D01*
X160248192Y-82903142D01*
X160248197Y-82903144D01*
X160433354Y-82942500D01*
X160433355Y-82942500D01*
X160622644Y-82942500D01*
X160622646Y-82942500D01*
X160807803Y-82903144D01*
X160976092Y-82828216D01*
X160980728Y-82826152D01*
X160980728Y-82826151D01*
X160980730Y-82826151D01*
X161026614Y-82792813D01*
X161092421Y-82769334D01*
X161160475Y-82785159D01*
X161172386Y-82792814D01*
X161218271Y-82826152D01*
X161391192Y-82903142D01*
X161391197Y-82903144D01*
X161576354Y-82942500D01*
X161576355Y-82942500D01*
X161765644Y-82942500D01*
X161765646Y-82942500D01*
X161950803Y-82903144D01*
X162123730Y-82826151D01*
X162276871Y-82714888D01*
X162403533Y-82574216D01*
X162498179Y-82410284D01*
X162556674Y-82230256D01*
X162564244Y-82158221D01*
X162590828Y-82093609D01*
X162648126Y-82053624D01*
X162717945Y-82050964D01*
X162778118Y-82086473D01*
X162794952Y-82109186D01*
X162843463Y-82193211D01*
X162843465Y-82193214D01*
X162970129Y-82333888D01*
X163123265Y-82445148D01*
X163123270Y-82445151D01*
X163296192Y-82522142D01*
X163296197Y-82522144D01*
X163481354Y-82561500D01*
X163481355Y-82561500D01*
X163670644Y-82561500D01*
X163670646Y-82561500D01*
X163855803Y-82522144D01*
X164028730Y-82445151D01*
X164181871Y-82333888D01*
X164199329Y-82314498D01*
X164258812Y-82277850D01*
X164328669Y-82279177D01*
X164364365Y-82297151D01*
X164393265Y-82318148D01*
X164393270Y-82318151D01*
X164566192Y-82395142D01*
X164566197Y-82395144D01*
X164751354Y-82434500D01*
X164751355Y-82434500D01*
X164940644Y-82434500D01*
X164940646Y-82434500D01*
X165125803Y-82395144D01*
X165298730Y-82318151D01*
X165451871Y-82206888D01*
X165578533Y-82066216D01*
X165673179Y-81902284D01*
X165680568Y-81879541D01*
X165720006Y-81821865D01*
X165784364Y-81794666D01*
X165853210Y-81806580D01*
X165904687Y-81853824D01*
X165916431Y-81879541D01*
X165923817Y-81902275D01*
X165923821Y-81902284D01*
X166018467Y-82066216D01*
X166132814Y-82193211D01*
X166145129Y-82206888D01*
X166298265Y-82318148D01*
X166298266Y-82318148D01*
X166298270Y-82318151D01*
X166438511Y-82380591D01*
X166491748Y-82425841D01*
X166512069Y-82492690D01*
X166493024Y-82559914D01*
X166460961Y-82594187D01*
X166399131Y-82639109D01*
X166399129Y-82639111D01*
X166272466Y-82779785D01*
X166177821Y-82943715D01*
X166177818Y-82943722D01*
X166136951Y-83069500D01*
X166119326Y-83123744D01*
X166099540Y-83312000D01*
X166119326Y-83500256D01*
X166119327Y-83500259D01*
X166177818Y-83680277D01*
X166177821Y-83680284D01*
X166272467Y-83844216D01*
X166308415Y-83884140D01*
X166380731Y-83964455D01*
X166410961Y-84027446D01*
X166402336Y-84096782D01*
X166357594Y-84150447D01*
X166339019Y-84160705D01*
X166298272Y-84178847D01*
X166298265Y-84178851D01*
X166145129Y-84290111D01*
X166018466Y-84430785D01*
X165923821Y-84594715D01*
X165923818Y-84594722D01*
X165877636Y-84736857D01*
X165865326Y-84774744D01*
X165845540Y-84963000D01*
X165865326Y-85151256D01*
X165865327Y-85151259D01*
X165923818Y-85331277D01*
X165923820Y-85331281D01*
X165923821Y-85331284D01*
X165943952Y-85366152D01*
X166005352Y-85472501D01*
X166021824Y-85540401D01*
X166005352Y-85596499D01*
X165947246Y-85697142D01*
X165934917Y-85718498D01*
X165923820Y-85737718D01*
X165923818Y-85737722D01*
X165882951Y-85863500D01*
X165865326Y-85917744D01*
X165845540Y-86106000D01*
X165865326Y-86294256D01*
X165865327Y-86294259D01*
X165923818Y-86474277D01*
X165923821Y-86474284D01*
X166018467Y-86638216D01*
X166028806Y-86649699D01*
X166036307Y-86658030D01*
X166066535Y-86721022D01*
X166057909Y-86790357D01*
X166036307Y-86823970D01*
X166018466Y-86843785D01*
X165923821Y-87007715D01*
X165923818Y-87007722D01*
X165890819Y-87109284D01*
X165865326Y-87187744D01*
X165845540Y-87376000D01*
X165865326Y-87564256D01*
X165865327Y-87564259D01*
X165923818Y-87744277D01*
X165923821Y-87744284D01*
X166018467Y-87908216D01*
X166036305Y-87928027D01*
X166066535Y-87991018D01*
X166057910Y-88060354D01*
X166036308Y-88093968D01*
X166018466Y-88113784D01*
X165923821Y-88277715D01*
X165923818Y-88277722D01*
X165866784Y-88453256D01*
X165865326Y-88457744D01*
X165845540Y-88646000D01*
X165856240Y-88747811D01*
X165857194Y-88756880D01*
X165844624Y-88825610D01*
X165796892Y-88876633D01*
X165729152Y-88893751D01*
X165662911Y-88871528D01*
X165626486Y-88831841D01*
X165593580Y-88774847D01*
X165578533Y-88748784D01*
X165489117Y-88649478D01*
X165458888Y-88586488D01*
X165467513Y-88517153D01*
X165473876Y-88504515D01*
X165546179Y-88379284D01*
X165604674Y-88199256D01*
X165624460Y-88011000D01*
X165604674Y-87822744D01*
X165546179Y-87642716D01*
X165451533Y-87478784D01*
X165433693Y-87458971D01*
X165403464Y-87395981D01*
X165412089Y-87326646D01*
X165433694Y-87293028D01*
X165433695Y-87293027D01*
X165451533Y-87273216D01*
X165546179Y-87109284D01*
X165604674Y-86929256D01*
X165624460Y-86741000D01*
X165604674Y-86552744D01*
X165546179Y-86372716D01*
X165464647Y-86231499D01*
X165448175Y-86163600D01*
X165464648Y-86107500D01*
X165478303Y-86083849D01*
X165546179Y-85966284D01*
X165604674Y-85786256D01*
X165624460Y-85598000D01*
X165604674Y-85409744D01*
X165546179Y-85229716D01*
X165451533Y-85065784D01*
X165324871Y-84925112D01*
X165324870Y-84925111D01*
X165171734Y-84813851D01*
X165171729Y-84813848D01*
X164998807Y-84736857D01*
X164998802Y-84736855D01*
X164813646Y-84697500D01*
X164809023Y-84697014D01*
X164744410Y-84670424D01*
X164704430Y-84613124D01*
X164704102Y-84612130D01*
X164668315Y-84501988D01*
X164657182Y-84467724D01*
X164657180Y-84467720D01*
X164657179Y-84467716D01*
X164562533Y-84303784D01*
X164435871Y-84163112D01*
X164432558Y-84160705D01*
X164282734Y-84051851D01*
X164282729Y-84051848D01*
X164109807Y-83974857D01*
X164109802Y-83974855D01*
X163964000Y-83943865D01*
X163924646Y-83935500D01*
X163735354Y-83935500D01*
X163702897Y-83942398D01*
X163550197Y-83974855D01*
X163550192Y-83974857D01*
X163377270Y-84051848D01*
X163377265Y-84051851D01*
X163224129Y-84163111D01*
X163097466Y-84303785D01*
X163002821Y-84467715D01*
X163002818Y-84467722D01*
X162944327Y-84647740D01*
X162944326Y-84647744D01*
X162924540Y-84836000D01*
X162944326Y-85024256D01*
X162944327Y-85024259D01*
X163002818Y-85204277D01*
X163002821Y-85204284D01*
X163097467Y-85368216D01*
X163204312Y-85486879D01*
X163224129Y-85508888D01*
X163377265Y-85620148D01*
X163377270Y-85620151D01*
X163550192Y-85697142D01*
X163550197Y-85697144D01*
X163735354Y-85736500D01*
X163735368Y-85736500D01*
X163739966Y-85736984D01*
X163804581Y-85763568D01*
X163844566Y-85820866D01*
X163844936Y-85821987D01*
X163891818Y-85966278D01*
X163891820Y-85966281D01*
X163891821Y-85966284D01*
X163934529Y-86040256D01*
X163973352Y-86107501D01*
X163989824Y-86175401D01*
X163973352Y-86231499D01*
X163891820Y-86372718D01*
X163891818Y-86372722D01*
X163842377Y-86524888D01*
X163833326Y-86552744D01*
X163813540Y-86741000D01*
X163833326Y-86929256D01*
X163833327Y-86929259D01*
X163891818Y-87109277D01*
X163891821Y-87109284D01*
X163986467Y-87273216D01*
X164004305Y-87293027D01*
X164034535Y-87356018D01*
X164025910Y-87425354D01*
X164004308Y-87458968D01*
X163986466Y-87478784D01*
X163891821Y-87642715D01*
X163891818Y-87642722D01*
X163858819Y-87744284D01*
X163833326Y-87822744D01*
X163813540Y-88011000D01*
X163833326Y-88199256D01*
X163833327Y-88199259D01*
X163891818Y-88379277D01*
X163891821Y-88379284D01*
X163986467Y-88543216D01*
X164059071Y-88623851D01*
X164075881Y-88642520D01*
X164106111Y-88705511D01*
X164097486Y-88774847D01*
X164091119Y-88787491D01*
X164065514Y-88831841D01*
X164020150Y-88910415D01*
X164018820Y-88912718D01*
X164018818Y-88912722D01*
X163972636Y-89054857D01*
X163960326Y-89092744D01*
X163940540Y-89281000D01*
X163960326Y-89469256D01*
X163960327Y-89469259D01*
X164018818Y-89649277D01*
X164018821Y-89649284D01*
X164113467Y-89813216D01*
X164208371Y-89918617D01*
X164240129Y-89953888D01*
X164393265Y-90065148D01*
X164393266Y-90065148D01*
X164393270Y-90065151D01*
X164405266Y-90070492D01*
X164458503Y-90115740D01*
X164478825Y-90182589D01*
X164472764Y-90222083D01*
X164468327Y-90235738D01*
X164468326Y-90235743D01*
X164460551Y-90309716D01*
X164448540Y-90424000D01*
X164468326Y-90612256D01*
X164468327Y-90612259D01*
X164526818Y-90792277D01*
X164526821Y-90792284D01*
X164621467Y-90956216D01*
X164679899Y-91021111D01*
X164748129Y-91096888D01*
X164901265Y-91208148D01*
X164901270Y-91208151D01*
X165074191Y-91285142D01*
X165074193Y-91285142D01*
X165074197Y-91285144D01*
X165140781Y-91299296D01*
X165202260Y-91332488D01*
X165232929Y-91382268D01*
X165288818Y-91554277D01*
X165288820Y-91554281D01*
X165288821Y-91554284D01*
X165315230Y-91600025D01*
X165320651Y-91609415D01*
X165337123Y-91677315D01*
X165314270Y-91743342D01*
X165267065Y-91783134D01*
X165182793Y-91823717D01*
X164972205Y-91967293D01*
X164785375Y-92140646D01*
X164785373Y-92140648D01*
X164626464Y-92339913D01*
X164499031Y-92560634D01*
X164405915Y-92797887D01*
X164405913Y-92797894D01*
X164349200Y-93046370D01*
X164330155Y-93300520D01*
X164330155Y-93300529D01*
X164349200Y-93554679D01*
X164404607Y-93797435D01*
X164405915Y-93803162D01*
X164499030Y-94040413D01*
X164626464Y-94261137D01*
X164785373Y-94460402D01*
X164972206Y-94633757D01*
X165182789Y-94777330D01*
X165182794Y-94777332D01*
X165182795Y-94777333D01*
X165182796Y-94777334D01*
X165304751Y-94836063D01*
X165412415Y-94887912D01*
X165412416Y-94887912D01*
X165412419Y-94887914D01*
X165655965Y-94963038D01*
X165907988Y-95001025D01*
X166162858Y-95001025D01*
X166414881Y-94963038D01*
X166658427Y-94887914D01*
X166888057Y-94777330D01*
X167098640Y-94633757D01*
X167285473Y-94460402D01*
X167444382Y-94261137D01*
X167571816Y-94040413D01*
X167642647Y-93859937D01*
X167685463Y-93804725D01*
X167751333Y-93781424D01*
X167819343Y-93797435D01*
X167845752Y-93817557D01*
X168880392Y-94852195D01*
X169110381Y-95082184D01*
X169143866Y-95143507D01*
X169138882Y-95213199D01*
X169097010Y-95269132D01*
X169059251Y-95288355D01*
X169004525Y-95305236D01*
X169004518Y-95305239D01*
X168774898Y-95415817D01*
X168774897Y-95415818D01*
X168564307Y-95559395D01*
X168377477Y-95732748D01*
X168377475Y-95732750D01*
X168218566Y-95932015D01*
X168091133Y-96152736D01*
X167998017Y-96389989D01*
X167998015Y-96389996D01*
X167941302Y-96638472D01*
X167922257Y-96892622D01*
X167922257Y-96892631D01*
X167941302Y-97146781D01*
X167941303Y-97146784D01*
X167998017Y-97395264D01*
X168091132Y-97632515D01*
X168218566Y-97853239D01*
X168377475Y-98052504D01*
X168564308Y-98225859D01*
X168774891Y-98369432D01*
X168774896Y-98369434D01*
X168774897Y-98369435D01*
X168774898Y-98369436D01*
X168896853Y-98428165D01*
X169004517Y-98480014D01*
X169004518Y-98480014D01*
X169004521Y-98480016D01*
X169248067Y-98555140D01*
X169272917Y-98558885D01*
X169336273Y-98588342D01*
X169373646Y-98647376D01*
X169373171Y-98717244D01*
X169334997Y-98775764D01*
X169271245Y-98804355D01*
X169254434Y-98805500D01*
X163091419Y-98805500D01*
X163046364Y-98797025D01*
X163024361Y-98788444D01*
X161137339Y-98052505D01*
X157859122Y-96774000D01*
X163813540Y-96774000D01*
X163833326Y-96962256D01*
X163833327Y-96962259D01*
X163891818Y-97142277D01*
X163891821Y-97142284D01*
X163986467Y-97306216D01*
X164070008Y-97398997D01*
X164113129Y-97446888D01*
X164266265Y-97558148D01*
X164266270Y-97558151D01*
X164439192Y-97635142D01*
X164439197Y-97635144D01*
X164624354Y-97674500D01*
X164624355Y-97674500D01*
X164813644Y-97674500D01*
X164813646Y-97674500D01*
X164998803Y-97635144D01*
X165171730Y-97558151D01*
X165324871Y-97446888D01*
X165451533Y-97306216D01*
X165546179Y-97142284D01*
X165604674Y-96962256D01*
X165624460Y-96774000D01*
X165604674Y-96585744D01*
X165546179Y-96405716D01*
X165451533Y-96241784D01*
X165324871Y-96101112D01*
X165305467Y-96087014D01*
X165171734Y-95989851D01*
X165171729Y-95989848D01*
X164998807Y-95912857D01*
X164998802Y-95912855D01*
X164853001Y-95881865D01*
X164813646Y-95873500D01*
X164624354Y-95873500D01*
X164591897Y-95880398D01*
X164439197Y-95912855D01*
X164439192Y-95912857D01*
X164266270Y-95989848D01*
X164266265Y-95989851D01*
X164113129Y-96101111D01*
X163986466Y-96241785D01*
X163891821Y-96405715D01*
X163891818Y-96405722D01*
X163862110Y-96497155D01*
X163833326Y-96585744D01*
X163813540Y-96774000D01*
X157859122Y-96774000D01*
X157714584Y-96717630D01*
X157659279Y-96674932D01*
X157635837Y-96609113D01*
X157651702Y-96541068D01*
X157693598Y-96497155D01*
X157773696Y-96446752D01*
X157773696Y-96446751D01*
X157868882Y-96338991D01*
X157868885Y-96338987D01*
X157896199Y-96285693D01*
X158119402Y-95704232D01*
X157444131Y-95445019D01*
X157525175Y-95347055D01*
X157595100Y-95198457D01*
X157625873Y-95037138D01*
X157622138Y-94977777D01*
X158298585Y-95237442D01*
X158521787Y-94655981D01*
X158537151Y-94598091D01*
X158538520Y-94454324D01*
X158499328Y-94315993D01*
X158499326Y-94315988D01*
X158422754Y-94194306D01*
X158422751Y-94194303D01*
X158314991Y-94099117D01*
X158314987Y-94099114D01*
X158261693Y-94071800D01*
X157680232Y-93848596D01*
X157420420Y-94525424D01*
X157357097Y-94465960D01*
X157213183Y-94386842D01*
X157054114Y-94346000D01*
X156953724Y-94346000D01*
X157213442Y-93669413D01*
X156631981Y-93446212D01*
X156631982Y-93446212D01*
X156574091Y-93430848D01*
X156430324Y-93429479D01*
X156291993Y-93468671D01*
X156291988Y-93468673D01*
X156170306Y-93545245D01*
X156170303Y-93545248D01*
X156075117Y-93653008D01*
X156075111Y-93653016D01*
X156065424Y-93671917D01*
X156017328Y-93722598D01*
X155949467Y-93739230D01*
X155883386Y-93716534D01*
X155840066Y-93661715D01*
X155831754Y-93602400D01*
X155845460Y-93472000D01*
X155825674Y-93283744D01*
X155767179Y-93103716D01*
X155672533Y-92939784D01*
X155545871Y-92799112D01*
X155544195Y-92797894D01*
X155392734Y-92687851D01*
X155392729Y-92687848D01*
X155219807Y-92610857D01*
X155219802Y-92610855D01*
X155074000Y-92579865D01*
X155034646Y-92571500D01*
X154845354Y-92571500D01*
X154812897Y-92578398D01*
X154660197Y-92610855D01*
X154660192Y-92610857D01*
X154487270Y-92687848D01*
X154487265Y-92687851D01*
X154334129Y-92799111D01*
X154207466Y-92939785D01*
X154112821Y-93103715D01*
X154112818Y-93103722D01*
X154080184Y-93204161D01*
X154054326Y-93283744D01*
X154034540Y-93472000D01*
X154054326Y-93660256D01*
X154054327Y-93660259D01*
X154112818Y-93840277D01*
X154112821Y-93840284D01*
X154207467Y-94004216D01*
X154311148Y-94119365D01*
X154334129Y-94144888D01*
X154487265Y-94256148D01*
X154487270Y-94256151D01*
X154660192Y-94333142D01*
X154660197Y-94333144D01*
X154845354Y-94372500D01*
X154845355Y-94372500D01*
X155034644Y-94372500D01*
X155034646Y-94372500D01*
X155219803Y-94333144D01*
X155392730Y-94256151D01*
X155545871Y-94144888D01*
X155672533Y-94004216D01*
X155672533Y-94004215D01*
X155676881Y-93999387D01*
X155677926Y-94000328D01*
X155727403Y-93962166D01*
X155797016Y-93956177D01*
X155858815Y-93988775D01*
X155893181Y-94049609D01*
X155889201Y-94119365D01*
X155888171Y-94122148D01*
X155824596Y-94287766D01*
X156499868Y-94546979D01*
X156418825Y-94644945D01*
X156348900Y-94793543D01*
X156318127Y-94954862D01*
X156321861Y-95014220D01*
X155645413Y-94754556D01*
X155422214Y-95336012D01*
X155422212Y-95336017D01*
X155406848Y-95393908D01*
X155405479Y-95537675D01*
X155426494Y-95611849D01*
X155425829Y-95681716D01*
X155387497Y-95740132D01*
X155323668Y-95768550D01*
X155262135Y-95761175D01*
X152609143Y-94726508D01*
X152553838Y-94683810D01*
X152530396Y-94617991D01*
X152546261Y-94549946D01*
X152596395Y-94501280D01*
X152622099Y-94491210D01*
X152759177Y-94454480D01*
X152969380Y-94356461D01*
X153159367Y-94223430D01*
X153323368Y-94059429D01*
X153456399Y-93869442D01*
X153554418Y-93659239D01*
X153614447Y-93435210D01*
X153634661Y-93204160D01*
X153614447Y-92973110D01*
X153554418Y-92749081D01*
X153456399Y-92538879D01*
X153456397Y-92538876D01*
X153456396Y-92538874D01*
X153323371Y-92348895D01*
X153323366Y-92348889D01*
X153176477Y-92202000D01*
X155812540Y-92202000D01*
X155832326Y-92390256D01*
X155832327Y-92390259D01*
X155890818Y-92570277D01*
X155890821Y-92570284D01*
X155985467Y-92734216D01*
X156059983Y-92816974D01*
X156112129Y-92874888D01*
X156265265Y-92986148D01*
X156265270Y-92986151D01*
X156438192Y-93063142D01*
X156438197Y-93063144D01*
X156623354Y-93102500D01*
X156623355Y-93102500D01*
X156812644Y-93102500D01*
X156812646Y-93102500D01*
X156997803Y-93063144D01*
X157170730Y-92986151D01*
X157323871Y-92874888D01*
X157450533Y-92734216D01*
X157545179Y-92570284D01*
X157548315Y-92560634D01*
X157563274Y-92514593D01*
X157602710Y-92456917D01*
X157667069Y-92429718D01*
X157735915Y-92441632D01*
X157754090Y-92452592D01*
X157789265Y-92478148D01*
X157789270Y-92478151D01*
X157962192Y-92555142D01*
X157962197Y-92555144D01*
X158147354Y-92594500D01*
X158147355Y-92594500D01*
X158260544Y-92594500D01*
X158327583Y-92614185D01*
X158373338Y-92666989D01*
X158383282Y-92736147D01*
X158378476Y-92756816D01*
X158372326Y-92775741D01*
X158367714Y-92819624D01*
X158352540Y-92964000D01*
X158372326Y-93152256D01*
X158372327Y-93152259D01*
X158430818Y-93332277D01*
X158430821Y-93332284D01*
X158525467Y-93496216D01*
X158621071Y-93602395D01*
X158652129Y-93636888D01*
X158805265Y-93748148D01*
X158805270Y-93748151D01*
X158978192Y-93825142D01*
X158978197Y-93825144D01*
X159163354Y-93864500D01*
X159163355Y-93864500D01*
X159352644Y-93864500D01*
X159352646Y-93864500D01*
X159537803Y-93825144D01*
X159710730Y-93748151D01*
X159863871Y-93636888D01*
X159990533Y-93496216D01*
X160085179Y-93332284D01*
X160143674Y-93152256D01*
X160163460Y-92964000D01*
X160143674Y-92775744D01*
X160085179Y-92595716D01*
X159990533Y-92431784D01*
X159863871Y-92291112D01*
X159863870Y-92291111D01*
X159710734Y-92179851D01*
X159710729Y-92179848D01*
X159537807Y-92102857D01*
X159537802Y-92102855D01*
X159392000Y-92071865D01*
X159352646Y-92063500D01*
X159239456Y-92063500D01*
X159172417Y-92043815D01*
X159126662Y-91991011D01*
X159116718Y-91921853D01*
X159121524Y-91901184D01*
X159123069Y-91896427D01*
X159127674Y-91882256D01*
X159147460Y-91694000D01*
X159127674Y-91505744D01*
X159092675Y-91398028D01*
X159090680Y-91328187D01*
X159126760Y-91268354D01*
X159189461Y-91237526D01*
X159258876Y-91245491D01*
X159260990Y-91246408D01*
X159286857Y-91257925D01*
X159472014Y-91297281D01*
X159472015Y-91297281D01*
X159661304Y-91297281D01*
X159661306Y-91297281D01*
X159846463Y-91257925D01*
X160019390Y-91180932D01*
X160172531Y-91069669D01*
X160299193Y-90928997D01*
X160313763Y-90903761D01*
X161606189Y-90903761D01*
X161625975Y-91092017D01*
X161625976Y-91092020D01*
X161684467Y-91272038D01*
X161684470Y-91272045D01*
X161779116Y-91435977D01*
X161889838Y-91558946D01*
X161905778Y-91576649D01*
X162058914Y-91687909D01*
X162058919Y-91687912D01*
X162231841Y-91764903D01*
X162231846Y-91764905D01*
X162417003Y-91804261D01*
X162417004Y-91804261D01*
X162606293Y-91804261D01*
X162606295Y-91804261D01*
X162791452Y-91764905D01*
X162964379Y-91687912D01*
X163117520Y-91576649D01*
X163244182Y-91435977D01*
X163338828Y-91272045D01*
X163397323Y-91092017D01*
X163417109Y-90903761D01*
X163397323Y-90715505D01*
X163338828Y-90535477D01*
X163244182Y-90371545D01*
X163117520Y-90230873D01*
X163090250Y-90211060D01*
X162964383Y-90119612D01*
X162964378Y-90119609D01*
X162791456Y-90042618D01*
X162791451Y-90042616D01*
X162645649Y-90011626D01*
X162606295Y-90003261D01*
X162417003Y-90003261D01*
X162384546Y-90010159D01*
X162231846Y-90042616D01*
X162231841Y-90042618D01*
X162058919Y-90119609D01*
X162058914Y-90119612D01*
X161905778Y-90230872D01*
X161779115Y-90371546D01*
X161684470Y-90535476D01*
X161684467Y-90535483D01*
X161625976Y-90715501D01*
X161625975Y-90715505D01*
X161606189Y-90903761D01*
X160313763Y-90903761D01*
X160393839Y-90765065D01*
X160452334Y-90585037D01*
X160472120Y-90396781D01*
X160452334Y-90208525D01*
X160393839Y-90028497D01*
X160299193Y-89864565D01*
X160172531Y-89723893D01*
X160151244Y-89708427D01*
X160019394Y-89612632D01*
X160019389Y-89612629D01*
X159846467Y-89535638D01*
X159846462Y-89535636D01*
X159700661Y-89504646D01*
X159661306Y-89496281D01*
X159572410Y-89496281D01*
X159505371Y-89476596D01*
X159459616Y-89423792D01*
X159449672Y-89354634D01*
X159478697Y-89291078D01*
X159531879Y-89255817D01*
X159531866Y-89255788D01*
X159532042Y-89255709D01*
X159534093Y-89254350D01*
X159537803Y-89253144D01*
X159560337Y-89243111D01*
X159710730Y-89176151D01*
X159863871Y-89064888D01*
X159990533Y-88924216D01*
X160085179Y-88760284D01*
X160143674Y-88580256D01*
X160163460Y-88392000D01*
X160150112Y-88265000D01*
X160638540Y-88265000D01*
X160658326Y-88453256D01*
X160658327Y-88453259D01*
X160716818Y-88633277D01*
X160716821Y-88633284D01*
X160811467Y-88797216D01*
X160918436Y-88916017D01*
X160938129Y-88937888D01*
X161091265Y-89049148D01*
X161091270Y-89049151D01*
X161264192Y-89126142D01*
X161264197Y-89126144D01*
X161449354Y-89165500D01*
X161449355Y-89165500D01*
X161638644Y-89165500D01*
X161638646Y-89165500D01*
X161823803Y-89126144D01*
X161996730Y-89049151D01*
X162149871Y-88937888D01*
X162276533Y-88797216D01*
X162371179Y-88633284D01*
X162429674Y-88453256D01*
X162449460Y-88265000D01*
X162429674Y-88076744D01*
X162371179Y-87896716D01*
X162276533Y-87732784D01*
X162149871Y-87592112D01*
X162149870Y-87592111D01*
X161996734Y-87480851D01*
X161996729Y-87480848D01*
X161823807Y-87403857D01*
X161823802Y-87403855D01*
X161678001Y-87372865D01*
X161638646Y-87364500D01*
X161449354Y-87364500D01*
X161416897Y-87371398D01*
X161264197Y-87403855D01*
X161264192Y-87403857D01*
X161091270Y-87480848D01*
X161091265Y-87480851D01*
X160938129Y-87592111D01*
X160811466Y-87732785D01*
X160716821Y-87896715D01*
X160716818Y-87896722D01*
X160668344Y-88045911D01*
X160658326Y-88076744D01*
X160638540Y-88265000D01*
X160150112Y-88265000D01*
X160143674Y-88203744D01*
X160085179Y-88023716D01*
X159990533Y-87859784D01*
X159863871Y-87719112D01*
X159863870Y-87719111D01*
X159710734Y-87607851D01*
X159710729Y-87607848D01*
X159537807Y-87530857D01*
X159537802Y-87530855D01*
X159362098Y-87493509D01*
X159300616Y-87460317D01*
X159266840Y-87399154D01*
X159271492Y-87329439D01*
X159280489Y-87310225D01*
X159323179Y-87236284D01*
X159381674Y-87056256D01*
X159401460Y-86868000D01*
X159381674Y-86679744D01*
X159323179Y-86499716D01*
X159228533Y-86335784D01*
X159101871Y-86195112D01*
X159092223Y-86188102D01*
X158948734Y-86083851D01*
X158948729Y-86083848D01*
X158775807Y-86006857D01*
X158775802Y-86006855D01*
X158630001Y-85975865D01*
X158590646Y-85967500D01*
X158401354Y-85967500D01*
X158368897Y-85974398D01*
X158216197Y-86006855D01*
X158216192Y-86006857D01*
X158043270Y-86083848D01*
X158043265Y-86083851D01*
X157890129Y-86195111D01*
X157763466Y-86335785D01*
X157668821Y-86499715D01*
X157668818Y-86499722D01*
X157611142Y-86677232D01*
X157610326Y-86679744D01*
X157590540Y-86868000D01*
X157610326Y-87056256D01*
X157610327Y-87056259D01*
X157668818Y-87236277D01*
X157668821Y-87236284D01*
X157763467Y-87400216D01*
X157866369Y-87514500D01*
X157890129Y-87540888D01*
X158043265Y-87652148D01*
X158043270Y-87652151D01*
X158216192Y-87729142D01*
X158216193Y-87729142D01*
X158216197Y-87729144D01*
X158391901Y-87766490D01*
X158453382Y-87799682D01*
X158487159Y-87860845D01*
X158482507Y-87930559D01*
X158473508Y-87949779D01*
X158430820Y-88023717D01*
X158430818Y-88023722D01*
X158373784Y-88199256D01*
X158372326Y-88203744D01*
X158364551Y-88277722D01*
X158352071Y-88396462D01*
X158325486Y-88461076D01*
X158268189Y-88501061D01*
X158228750Y-88507500D01*
X158147354Y-88507500D01*
X158118684Y-88513594D01*
X157962197Y-88546855D01*
X157962192Y-88546857D01*
X157789270Y-88623848D01*
X157789265Y-88623851D01*
X157636129Y-88735111D01*
X157509466Y-88875785D01*
X157414821Y-89039715D01*
X157414818Y-89039722D01*
X157360861Y-89205786D01*
X157356326Y-89219744D01*
X157336540Y-89408000D01*
X157356326Y-89596256D01*
X157356327Y-89596259D01*
X157414818Y-89776277D01*
X157414821Y-89776284D01*
X157509467Y-89940216D01*
X157636128Y-90080888D01*
X157636129Y-90080888D01*
X157789265Y-90192148D01*
X157789270Y-90192151D01*
X157962192Y-90269142D01*
X157962197Y-90269144D01*
X158147354Y-90308500D01*
X158147355Y-90308500D01*
X158336644Y-90308500D01*
X158336646Y-90308500D01*
X158511419Y-90271351D01*
X158581086Y-90276667D01*
X158636820Y-90318804D01*
X158660925Y-90384384D01*
X158661200Y-90392641D01*
X158661200Y-90396778D01*
X158661200Y-90396781D01*
X158680986Y-90585037D01*
X158680986Y-90585039D01*
X158680987Y-90585041D01*
X158715984Y-90692753D01*
X158717979Y-90762594D01*
X158681898Y-90822426D01*
X158619197Y-90853254D01*
X158549783Y-90845289D01*
X158547616Y-90844349D01*
X158521802Y-90832855D01*
X158376000Y-90801865D01*
X158336646Y-90793500D01*
X158147354Y-90793500D01*
X158114897Y-90800398D01*
X157962197Y-90832855D01*
X157962192Y-90832857D01*
X157789270Y-90909848D01*
X157789265Y-90909851D01*
X157636129Y-91021111D01*
X157509466Y-91161785D01*
X157414821Y-91325715D01*
X157414819Y-91325719D01*
X157396725Y-91381408D01*
X157357287Y-91439083D01*
X157292928Y-91466281D01*
X157224082Y-91454366D01*
X157205909Y-91443408D01*
X157195678Y-91435975D01*
X157170730Y-91417849D01*
X157170728Y-91417848D01*
X157170729Y-91417848D01*
X156997807Y-91340857D01*
X156997802Y-91340855D01*
X156852000Y-91309865D01*
X156812646Y-91301500D01*
X156623354Y-91301500D01*
X156590897Y-91308398D01*
X156438197Y-91340855D01*
X156438192Y-91340857D01*
X156265270Y-91417848D01*
X156265265Y-91417851D01*
X156112129Y-91529111D01*
X155985466Y-91669785D01*
X155890821Y-91833715D01*
X155890818Y-91833722D01*
X155839712Y-91991011D01*
X155832326Y-92013744D01*
X155812540Y-92202000D01*
X153176477Y-92202000D01*
X153159367Y-92184890D01*
X153042212Y-92102857D01*
X152969380Y-92051859D01*
X152759177Y-91953840D01*
X152759174Y-91953839D01*
X152759172Y-91953838D01*
X152535149Y-91893811D01*
X152535142Y-91893810D01*
X152304100Y-91873597D01*
X152304096Y-91873597D01*
X152073053Y-91893810D01*
X152073046Y-91893811D01*
X151849015Y-91953841D01*
X151638816Y-92051859D01*
X151638812Y-92051861D01*
X151448833Y-92184886D01*
X151448827Y-92184891D01*
X151284829Y-92348889D01*
X151284824Y-92348895D01*
X151151799Y-92538874D01*
X151151797Y-92538878D01*
X151053779Y-92749077D01*
X150993749Y-92973108D01*
X150993748Y-92973115D01*
X150973535Y-93204158D01*
X150973535Y-93204161D01*
X150993748Y-93435204D01*
X150993749Y-93435211D01*
X151053776Y-93659234D01*
X151053777Y-93659236D01*
X151053778Y-93659239D01*
X151151797Y-93869442D01*
X151195016Y-93931165D01*
X151217343Y-93997370D01*
X151200333Y-94065138D01*
X151149385Y-94112951D01*
X151080676Y-94125629D01*
X151048386Y-94117813D01*
X141647460Y-90451452D01*
X145879761Y-90451452D01*
X145899547Y-90639708D01*
X145899548Y-90639711D01*
X145958039Y-90819729D01*
X145958042Y-90819736D01*
X146052688Y-90983668D01*
X146086403Y-91021112D01*
X146179350Y-91124340D01*
X146332486Y-91235600D01*
X146332491Y-91235603D01*
X146505413Y-91312594D01*
X146505418Y-91312596D01*
X146690575Y-91351952D01*
X146690576Y-91351952D01*
X146879865Y-91351952D01*
X146879867Y-91351952D01*
X147065024Y-91312596D01*
X147237951Y-91235603D01*
X147391092Y-91124340D01*
X147517754Y-90983668D01*
X147612400Y-90819736D01*
X147670895Y-90639708D01*
X147690681Y-90451452D01*
X147670895Y-90263196D01*
X147612400Y-90083168D01*
X147517754Y-89919236D01*
X147514840Y-89916000D01*
X151494540Y-89916000D01*
X151514326Y-90104256D01*
X151514327Y-90104259D01*
X151572818Y-90284277D01*
X151572821Y-90284284D01*
X151667467Y-90448216D01*
X151746043Y-90535483D01*
X151794129Y-90588888D01*
X151947265Y-90700148D01*
X151947270Y-90700151D01*
X152120192Y-90777142D01*
X152120197Y-90777144D01*
X152305354Y-90816500D01*
X152305355Y-90816500D01*
X152494644Y-90816500D01*
X152494646Y-90816500D01*
X152679803Y-90777144D01*
X152852730Y-90700151D01*
X152883218Y-90678000D01*
X154288540Y-90678000D01*
X154308326Y-90866256D01*
X154308327Y-90866259D01*
X154366818Y-91046277D01*
X154366821Y-91046284D01*
X154461467Y-91210216D01*
X154543660Y-91301500D01*
X154588129Y-91350888D01*
X154741265Y-91462148D01*
X154741270Y-91462151D01*
X154914192Y-91539142D01*
X154914197Y-91539144D01*
X155099354Y-91578500D01*
X155099355Y-91578500D01*
X155288644Y-91578500D01*
X155288646Y-91578500D01*
X155473803Y-91539144D01*
X155646730Y-91462151D01*
X155799871Y-91350888D01*
X155926533Y-91210216D01*
X156021179Y-91046284D01*
X156079674Y-90866256D01*
X156099460Y-90678000D01*
X156079674Y-90489744D01*
X156021179Y-90309716D01*
X155926533Y-90145784D01*
X155799871Y-90005112D01*
X155799870Y-90005111D01*
X155646734Y-89893851D01*
X155646729Y-89893848D01*
X155473807Y-89816857D01*
X155473802Y-89816855D01*
X155328000Y-89785865D01*
X155288646Y-89777500D01*
X155099354Y-89777500D01*
X155049375Y-89788123D01*
X154914199Y-89816855D01*
X154788142Y-89872980D01*
X154736142Y-89879951D01*
X154714601Y-89912780D01*
X154707179Y-89918617D01*
X154588127Y-90005113D01*
X154461466Y-90145785D01*
X154366821Y-90309715D01*
X154366818Y-90309722D01*
X154317377Y-90461888D01*
X154308326Y-90489744D01*
X154288540Y-90678000D01*
X152883218Y-90678000D01*
X153005871Y-90588888D01*
X153132533Y-90448216D01*
X153227179Y-90284284D01*
X153285674Y-90104256D01*
X153305460Y-89916000D01*
X153285674Y-89727744D01*
X153244409Y-89600744D01*
X153225171Y-89541535D01*
X153227352Y-89540826D01*
X153219465Y-89481992D01*
X153241828Y-89434231D01*
X153199881Y-89433824D01*
X153141473Y-89395481D01*
X153135651Y-89388076D01*
X153132534Y-89383785D01*
X153132533Y-89383784D01*
X153005871Y-89243112D01*
X152973708Y-89219744D01*
X152852734Y-89131851D01*
X152852729Y-89131848D01*
X152679807Y-89054857D01*
X152679802Y-89054855D01*
X152534001Y-89023865D01*
X152494646Y-89015500D01*
X152305354Y-89015500D01*
X152272897Y-89022398D01*
X152120197Y-89054855D01*
X152120192Y-89054857D01*
X151947270Y-89131848D01*
X151947265Y-89131851D01*
X151794129Y-89243111D01*
X151667466Y-89383785D01*
X151572821Y-89547715D01*
X151572818Y-89547722D01*
X151515577Y-89723893D01*
X151514326Y-89727744D01*
X151494540Y-89916000D01*
X147514840Y-89916000D01*
X147391092Y-89778564D01*
X147387954Y-89776284D01*
X147237955Y-89667303D01*
X147237950Y-89667300D01*
X147065028Y-89590309D01*
X147065023Y-89590307D01*
X146919221Y-89559317D01*
X146879867Y-89550952D01*
X146690575Y-89550952D01*
X146658118Y-89557850D01*
X146505418Y-89590307D01*
X146505413Y-89590309D01*
X146332491Y-89667300D01*
X146332486Y-89667303D01*
X146179350Y-89778563D01*
X146052687Y-89919237D01*
X145958042Y-90083167D01*
X145958039Y-90083174D01*
X145899548Y-90263192D01*
X145899547Y-90263196D01*
X145879761Y-90451452D01*
X141647460Y-90451452D01*
X137747445Y-88930446D01*
X137708010Y-88900000D01*
X141842540Y-88900000D01*
X141862326Y-89088256D01*
X141862327Y-89088259D01*
X141920818Y-89268277D01*
X141920821Y-89268284D01*
X142015467Y-89432216D01*
X142122378Y-89550952D01*
X142142129Y-89572888D01*
X142295265Y-89684148D01*
X142295270Y-89684151D01*
X142468192Y-89761142D01*
X142468197Y-89761144D01*
X142653354Y-89800500D01*
X142653355Y-89800500D01*
X142842644Y-89800500D01*
X142842646Y-89800500D01*
X143027803Y-89761144D01*
X143200730Y-89684151D01*
X143353871Y-89572888D01*
X143480533Y-89432216D01*
X143575179Y-89268284D01*
X143633674Y-89088256D01*
X143653460Y-88900000D01*
X143633674Y-88711744D01*
X143575179Y-88531716D01*
X143494514Y-88392000D01*
X148954540Y-88392000D01*
X148974326Y-88580256D01*
X148974327Y-88580259D01*
X149032818Y-88760277D01*
X149032821Y-88760284D01*
X149127467Y-88924216D01*
X149236429Y-89045230D01*
X149254129Y-89064888D01*
X149407265Y-89176148D01*
X149407270Y-89176151D01*
X149580192Y-89253142D01*
X149580197Y-89253144D01*
X149765354Y-89292500D01*
X149765355Y-89292500D01*
X149954644Y-89292500D01*
X149954646Y-89292500D01*
X150139803Y-89253144D01*
X150312730Y-89176151D01*
X150465871Y-89064888D01*
X150592533Y-88924216D01*
X150606514Y-88900000D01*
X153272540Y-88900000D01*
X153292326Y-89088256D01*
X153292327Y-89088259D01*
X153352829Y-89274465D01*
X153350650Y-89275172D01*
X153358531Y-89334030D01*
X153336166Y-89381768D01*
X153378095Y-89382168D01*
X153436511Y-89420500D01*
X153442347Y-89427921D01*
X153445464Y-89432212D01*
X153445467Y-89432216D01*
X153465321Y-89454266D01*
X153572129Y-89572888D01*
X153725265Y-89684148D01*
X153725270Y-89684151D01*
X153898192Y-89761142D01*
X153898197Y-89761144D01*
X154083354Y-89800500D01*
X154083355Y-89800500D01*
X154272644Y-89800500D01*
X154272646Y-89800500D01*
X154457803Y-89761144D01*
X154583858Y-89705019D01*
X154635856Y-89698046D01*
X154657399Y-89665218D01*
X154664795Y-89659401D01*
X154783871Y-89572888D01*
X154910533Y-89432216D01*
X155005179Y-89268284D01*
X155063674Y-89088256D01*
X155083460Y-88900000D01*
X155063674Y-88711744D01*
X155005179Y-88531716D01*
X154910533Y-88367784D01*
X154783871Y-88227112D01*
X154751708Y-88203744D01*
X154630734Y-88115851D01*
X154630729Y-88115848D01*
X154457807Y-88038857D01*
X154457802Y-88038855D01*
X154312001Y-88007865D01*
X154272646Y-87999500D01*
X154083354Y-87999500D01*
X154050897Y-88006398D01*
X153898197Y-88038855D01*
X153898192Y-88038857D01*
X153725270Y-88115848D01*
X153725265Y-88115851D01*
X153572129Y-88227111D01*
X153445466Y-88367785D01*
X153350821Y-88531715D01*
X153350818Y-88531722D01*
X153312557Y-88649479D01*
X153292326Y-88711744D01*
X153272540Y-88900000D01*
X150606514Y-88900000D01*
X150687179Y-88760284D01*
X150745674Y-88580256D01*
X150765460Y-88392000D01*
X150745674Y-88203744D01*
X150687179Y-88023716D01*
X150592533Y-87859784D01*
X150465871Y-87719112D01*
X150465870Y-87719111D01*
X150312734Y-87607851D01*
X150312729Y-87607848D01*
X150139807Y-87530857D01*
X150139802Y-87530855D01*
X149975685Y-87495972D01*
X149954646Y-87491500D01*
X149765354Y-87491500D01*
X149744315Y-87495972D01*
X149580197Y-87530855D01*
X149580192Y-87530857D01*
X149407270Y-87607848D01*
X149407265Y-87607851D01*
X149254129Y-87719111D01*
X149127466Y-87859785D01*
X149032821Y-88023715D01*
X149032818Y-88023722D01*
X148975784Y-88199256D01*
X148974326Y-88203744D01*
X148954540Y-88392000D01*
X143494514Y-88392000D01*
X143480533Y-88367784D01*
X143353871Y-88227112D01*
X143321708Y-88203744D01*
X143200734Y-88115851D01*
X143200729Y-88115848D01*
X143027807Y-88038857D01*
X143027802Y-88038855D01*
X142882001Y-88007865D01*
X142842646Y-87999500D01*
X142653354Y-87999500D01*
X142620897Y-88006398D01*
X142468197Y-88038855D01*
X142468192Y-88038857D01*
X142295270Y-88115848D01*
X142295265Y-88115851D01*
X142142129Y-88227111D01*
X142015466Y-88367785D01*
X141920821Y-88531715D01*
X141920818Y-88531722D01*
X141882557Y-88649479D01*
X141862326Y-88711744D01*
X141842540Y-88900000D01*
X137708010Y-88900000D01*
X137692140Y-88887748D01*
X137668698Y-88821929D01*
X137668500Y-88814921D01*
X137668500Y-86515352D01*
X137688185Y-86448313D01*
X137740989Y-86402558D01*
X137810147Y-86392614D01*
X137873703Y-86421639D01*
X137889447Y-86438040D01*
X137938631Y-86499716D01*
X137941950Y-86503877D01*
X138128783Y-86677232D01*
X138339366Y-86820805D01*
X138339371Y-86820807D01*
X138339372Y-86820808D01*
X138339373Y-86820809D01*
X138422811Y-86860990D01*
X138568992Y-86931387D01*
X138568993Y-86931387D01*
X138568996Y-86931389D01*
X138812542Y-87006513D01*
X139064565Y-87044500D01*
X139319435Y-87044500D01*
X139571458Y-87006513D01*
X139815004Y-86931389D01*
X140044634Y-86820805D01*
X140255217Y-86677232D01*
X140442050Y-86503877D01*
X140600959Y-86304612D01*
X140728393Y-86083888D01*
X140821508Y-85846637D01*
X140878222Y-85598157D01*
X140887638Y-85472501D01*
X140897268Y-85344004D01*
X140897268Y-85343995D01*
X140878222Y-85089845D01*
X140873201Y-85067848D01*
X140821508Y-84841363D01*
X140728393Y-84604112D01*
X140728392Y-84604110D01*
X140726698Y-84599794D01*
X140728576Y-84599056D01*
X140718572Y-84538387D01*
X140746280Y-84474246D01*
X140804267Y-84435268D01*
X140841648Y-84429499D01*
X142622352Y-84429499D01*
X142689391Y-84449184D01*
X142735146Y-84501988D01*
X142745090Y-84571146D01*
X142736457Y-84599462D01*
X142737302Y-84599794D01*
X142642492Y-84841362D01*
X142642490Y-84841369D01*
X142585777Y-85089845D01*
X142566732Y-85343995D01*
X142566732Y-85344004D01*
X142585777Y-85598154D01*
X142637357Y-85824142D01*
X142642492Y-85846637D01*
X142735592Y-86083851D01*
X142735608Y-86083890D01*
X142747500Y-86104487D01*
X142863041Y-86304612D01*
X143021950Y-86503877D01*
X143208783Y-86677232D01*
X143419366Y-86820805D01*
X143419371Y-86820807D01*
X143419372Y-86820808D01*
X143419373Y-86820809D01*
X143502811Y-86860990D01*
X143648992Y-86931387D01*
X143648993Y-86931387D01*
X143648996Y-86931389D01*
X143892542Y-87006513D01*
X144144565Y-87044500D01*
X144399435Y-87044500D01*
X144651458Y-87006513D01*
X144895004Y-86931389D01*
X145124634Y-86820805D01*
X145335217Y-86677232D01*
X145522050Y-86503877D01*
X145535509Y-86487000D01*
X146668540Y-86487000D01*
X146688326Y-86675256D01*
X146688327Y-86675259D01*
X146746818Y-86855277D01*
X146746821Y-86855284D01*
X146841467Y-87019216D01*
X146874821Y-87056259D01*
X146968129Y-87159888D01*
X147121265Y-87271148D01*
X147121270Y-87271151D01*
X147294192Y-87348142D01*
X147294197Y-87348144D01*
X147479354Y-87387500D01*
X147479355Y-87387500D01*
X147668644Y-87387500D01*
X147668646Y-87387500D01*
X147853803Y-87348144D01*
X148026730Y-87271151D01*
X148179871Y-87159888D01*
X148306533Y-87019216D01*
X148401179Y-86855284D01*
X148459674Y-86675256D01*
X148479460Y-86487000D01*
X148459674Y-86298744D01*
X148401179Y-86118716D01*
X148306533Y-85954784D01*
X148179871Y-85814112D01*
X148156872Y-85797402D01*
X148026734Y-85702851D01*
X148026729Y-85702848D01*
X147853807Y-85625857D01*
X147853802Y-85625855D01*
X147708000Y-85594865D01*
X147668646Y-85586500D01*
X147479354Y-85586500D01*
X147446897Y-85593398D01*
X147294197Y-85625855D01*
X147294192Y-85625857D01*
X147121270Y-85702848D01*
X147121265Y-85702851D01*
X146968129Y-85814111D01*
X146841466Y-85954785D01*
X146746821Y-86118715D01*
X146746818Y-86118722D01*
X146689784Y-86294256D01*
X146688326Y-86298744D01*
X146668540Y-86487000D01*
X145535509Y-86487000D01*
X145680959Y-86304612D01*
X145808393Y-86083888D01*
X145901508Y-85846637D01*
X145958222Y-85598157D01*
X145967638Y-85472501D01*
X145977268Y-85344004D01*
X145977268Y-85343995D01*
X145958222Y-85089845D01*
X145953201Y-85067848D01*
X145929270Y-84963000D01*
X148065540Y-84963000D01*
X148085326Y-85151256D01*
X148085327Y-85151259D01*
X148143818Y-85331277D01*
X148143820Y-85331281D01*
X148143821Y-85331284D01*
X148238467Y-85495216D01*
X148331153Y-85598154D01*
X148365129Y-85635888D01*
X148518265Y-85747148D01*
X148518270Y-85747151D01*
X148691192Y-85824142D01*
X148691197Y-85824144D01*
X148876354Y-85863500D01*
X148876355Y-85863500D01*
X149065644Y-85863500D01*
X149065646Y-85863500D01*
X149250803Y-85824144D01*
X149423730Y-85747151D01*
X149576871Y-85635888D01*
X149662848Y-85540401D01*
X149678041Y-85523528D01*
X149737528Y-85486879D01*
X149770191Y-85482500D01*
X149954644Y-85482500D01*
X149954646Y-85482500D01*
X150139803Y-85443144D01*
X150300096Y-85371776D01*
X150312728Y-85366152D01*
X150312728Y-85366151D01*
X150312730Y-85366151D01*
X150358614Y-85332813D01*
X150424421Y-85309334D01*
X150492475Y-85325159D01*
X150504384Y-85332813D01*
X150534526Y-85354712D01*
X150550270Y-85366151D01*
X150555893Y-85369397D01*
X150554519Y-85371776D01*
X150598531Y-85409187D01*
X150618178Y-85464251D01*
X150625326Y-85532258D01*
X150625327Y-85532260D01*
X150683818Y-85712277D01*
X150683821Y-85712284D01*
X150778467Y-85876216D01*
X150859562Y-85966281D01*
X150905129Y-86016888D01*
X151058265Y-86128148D01*
X151058270Y-86128151D01*
X151231192Y-86205142D01*
X151231197Y-86205144D01*
X151416354Y-86244500D01*
X151416355Y-86244500D01*
X151605644Y-86244500D01*
X151605646Y-86244500D01*
X151790803Y-86205144D01*
X151890854Y-86160597D01*
X151960102Y-86151312D01*
X152023379Y-86180940D01*
X152060593Y-86240075D01*
X152059929Y-86309941D01*
X152059220Y-86312195D01*
X152022327Y-86425740D01*
X152022326Y-86425744D01*
X152002540Y-86614000D01*
X152022326Y-86802256D01*
X152022327Y-86802259D01*
X152080818Y-86982277D01*
X152080821Y-86982284D01*
X152175467Y-87146216D01*
X152287957Y-87271148D01*
X152302129Y-87286888D01*
X152455265Y-87398148D01*
X152455270Y-87398151D01*
X152628192Y-87475142D01*
X152628197Y-87475144D01*
X152813354Y-87514500D01*
X152813355Y-87514500D01*
X153002644Y-87514500D01*
X153002646Y-87514500D01*
X153187803Y-87475144D01*
X153360730Y-87398151D01*
X153513871Y-87286888D01*
X153640533Y-87146216D01*
X153696519Y-87049246D01*
X155037009Y-87049246D01*
X155056795Y-87237502D01*
X155056796Y-87237505D01*
X155115287Y-87417523D01*
X155115290Y-87417530D01*
X155209936Y-87581462D01*
X155273585Y-87652151D01*
X155336598Y-87722134D01*
X155489734Y-87833394D01*
X155489739Y-87833397D01*
X155662661Y-87910388D01*
X155662666Y-87910390D01*
X155847823Y-87949746D01*
X155847824Y-87949746D01*
X156037113Y-87949746D01*
X156037115Y-87949746D01*
X156222272Y-87910390D01*
X156395199Y-87833397D01*
X156548340Y-87722134D01*
X156675002Y-87581462D01*
X156769648Y-87417530D01*
X156828143Y-87237502D01*
X156847929Y-87049246D01*
X156828143Y-86860990D01*
X156769648Y-86680962D01*
X156675002Y-86517030D01*
X156548340Y-86376358D01*
X156548339Y-86376357D01*
X156395203Y-86265097D01*
X156395198Y-86265094D01*
X156222276Y-86188103D01*
X156222271Y-86188101D01*
X156076469Y-86157111D01*
X156037115Y-86148746D01*
X155847823Y-86148746D01*
X155835751Y-86151312D01*
X155662666Y-86188101D01*
X155662661Y-86188103D01*
X155489739Y-86265094D01*
X155489734Y-86265097D01*
X155336598Y-86376357D01*
X155209935Y-86517031D01*
X155115290Y-86680961D01*
X155115287Y-86680968D01*
X155062385Y-86843785D01*
X155056795Y-86860990D01*
X155037009Y-87049246D01*
X153696519Y-87049246D01*
X153735179Y-86982284D01*
X153793674Y-86802256D01*
X153813460Y-86614000D01*
X153793674Y-86425744D01*
X153775292Y-86369173D01*
X153773298Y-86299335D01*
X153809378Y-86239502D01*
X153872078Y-86208673D01*
X153919005Y-86209567D01*
X153989774Y-86224609D01*
X154083354Y-86244500D01*
X154083355Y-86244500D01*
X154272644Y-86244500D01*
X154272646Y-86244500D01*
X154457803Y-86205144D01*
X154630730Y-86128151D01*
X154783871Y-86016888D01*
X154910533Y-85876216D01*
X155005179Y-85712284D01*
X155063674Y-85532256D01*
X155064585Y-85523580D01*
X155091166Y-85458964D01*
X155137469Y-85423256D01*
X155265730Y-85366151D01*
X155311614Y-85332813D01*
X155377421Y-85309334D01*
X155445475Y-85325159D01*
X155457386Y-85332814D01*
X155503271Y-85366152D01*
X155676192Y-85443142D01*
X155676197Y-85443144D01*
X155861354Y-85482500D01*
X155861355Y-85482500D01*
X156050644Y-85482500D01*
X156050646Y-85482500D01*
X156235803Y-85443144D01*
X156396096Y-85371776D01*
X156408728Y-85366152D01*
X156408728Y-85366151D01*
X156408730Y-85366151D01*
X156454614Y-85332813D01*
X156520421Y-85309334D01*
X156588475Y-85325159D01*
X156600386Y-85332814D01*
X156646271Y-85366152D01*
X156819192Y-85443142D01*
X156819197Y-85443144D01*
X157004354Y-85482500D01*
X157004355Y-85482500D01*
X157193644Y-85482500D01*
X157193646Y-85482500D01*
X157378803Y-85443144D01*
X157539096Y-85371776D01*
X157551728Y-85366152D01*
X157551728Y-85366151D01*
X157551730Y-85366151D01*
X157597614Y-85332813D01*
X157663421Y-85309334D01*
X157731475Y-85325159D01*
X157743386Y-85332814D01*
X157789271Y-85366152D01*
X157962192Y-85443142D01*
X157962197Y-85443144D01*
X158147354Y-85482500D01*
X158147355Y-85482500D01*
X158336644Y-85482500D01*
X158336646Y-85482500D01*
X158521803Y-85443144D01*
X158694730Y-85366151D01*
X158694734Y-85366148D01*
X158699563Y-85363998D01*
X158768813Y-85354712D01*
X158800437Y-85363998D01*
X158805265Y-85366148D01*
X158805270Y-85366151D01*
X158978197Y-85443144D01*
X159163354Y-85482500D01*
X159163355Y-85482500D01*
X159352644Y-85482500D01*
X159352646Y-85482500D01*
X159537803Y-85443144D01*
X159710730Y-85366151D01*
X159710734Y-85366148D01*
X159715563Y-85363998D01*
X159784813Y-85354712D01*
X159816437Y-85363998D01*
X159821265Y-85366148D01*
X159821270Y-85366151D01*
X159994197Y-85443144D01*
X160179354Y-85482500D01*
X160179355Y-85482500D01*
X160368644Y-85482500D01*
X160368646Y-85482500D01*
X160553803Y-85443144D01*
X160726730Y-85366151D01*
X160879871Y-85254888D01*
X161006533Y-85114216D01*
X161101179Y-84950284D01*
X161159674Y-84770256D01*
X161179460Y-84582000D01*
X161159674Y-84393744D01*
X161101179Y-84213716D01*
X161006533Y-84049784D01*
X160879871Y-83909112D01*
X160845500Y-83884140D01*
X160726734Y-83797851D01*
X160726729Y-83797848D01*
X160553807Y-83720857D01*
X160553802Y-83720855D01*
X160408000Y-83689865D01*
X160368646Y-83681500D01*
X160179354Y-83681500D01*
X160146897Y-83688398D01*
X159994197Y-83720855D01*
X159994192Y-83720857D01*
X159816436Y-83800001D01*
X159747186Y-83809286D01*
X159715564Y-83800001D01*
X159537807Y-83720857D01*
X159537802Y-83720855D01*
X159392001Y-83689865D01*
X159352646Y-83681500D01*
X159163354Y-83681500D01*
X159130897Y-83688398D01*
X158978197Y-83720855D01*
X158978192Y-83720857D01*
X158800436Y-83800001D01*
X158731186Y-83809286D01*
X158699564Y-83800001D01*
X158521807Y-83720857D01*
X158521802Y-83720855D01*
X158376001Y-83689865D01*
X158336646Y-83681500D01*
X158147354Y-83681500D01*
X158114897Y-83688398D01*
X157962197Y-83720855D01*
X157962192Y-83720857D01*
X157789270Y-83797848D01*
X157789266Y-83797851D01*
X157743384Y-83831186D01*
X157677578Y-83854665D01*
X157609524Y-83838839D01*
X157597616Y-83831186D01*
X157551733Y-83797851D01*
X157551729Y-83797848D01*
X157378807Y-83720857D01*
X157378802Y-83720855D01*
X157233000Y-83689865D01*
X157193646Y-83681500D01*
X157004354Y-83681500D01*
X156971897Y-83688398D01*
X156819197Y-83720855D01*
X156819192Y-83720857D01*
X156646270Y-83797848D01*
X156646266Y-83797851D01*
X156600384Y-83831186D01*
X156534578Y-83854665D01*
X156466524Y-83838839D01*
X156454616Y-83831186D01*
X156408733Y-83797851D01*
X156408729Y-83797848D01*
X156235807Y-83720857D01*
X156235802Y-83720855D01*
X156090000Y-83689865D01*
X156050646Y-83681500D01*
X155861354Y-83681500D01*
X155828897Y-83688398D01*
X155676197Y-83720855D01*
X155676192Y-83720857D01*
X155503270Y-83797848D01*
X155503268Y-83797850D01*
X155457382Y-83831187D01*
X155391576Y-83854665D01*
X155323522Y-83838838D01*
X155311614Y-83831185D01*
X155265734Y-83797851D01*
X155265729Y-83797848D01*
X155092807Y-83720857D01*
X155092802Y-83720855D01*
X154947001Y-83689865D01*
X154907646Y-83681500D01*
X154718354Y-83681500D01*
X154685897Y-83688398D01*
X154533197Y-83720855D01*
X154533192Y-83720857D01*
X154360270Y-83797848D01*
X154360265Y-83797851D01*
X154207129Y-83909111D01*
X154080466Y-84049785D01*
X153985821Y-84213715D01*
X153985818Y-84213722D01*
X153927327Y-84393739D01*
X153927325Y-84393746D01*
X153926412Y-84402435D01*
X153899822Y-84467048D01*
X153853529Y-84502743D01*
X153725267Y-84559850D01*
X153725265Y-84559851D01*
X153572129Y-84671111D01*
X153445466Y-84811785D01*
X153350821Y-84975715D01*
X153350818Y-84975722D01*
X153306491Y-85112148D01*
X153292326Y-85155744D01*
X153272540Y-85344000D01*
X153292326Y-85532256D01*
X153292327Y-85532258D01*
X153292327Y-85532259D01*
X153310706Y-85588824D01*
X153312701Y-85658665D01*
X153276621Y-85718498D01*
X153213920Y-85749326D01*
X153166995Y-85748433D01*
X153140862Y-85742878D01*
X153002646Y-85713500D01*
X152813354Y-85713500D01*
X152789840Y-85718498D01*
X152628197Y-85752855D01*
X152528145Y-85797402D01*
X152458895Y-85806686D01*
X152395619Y-85777058D01*
X152358406Y-85717923D01*
X152359071Y-85648056D01*
X152359746Y-85645907D01*
X152396674Y-85532256D01*
X152416460Y-85344000D01*
X152396674Y-85155744D01*
X152338179Y-84975716D01*
X152243533Y-84811784D01*
X152116871Y-84671112D01*
X152084708Y-84647744D01*
X151963727Y-84559846D01*
X151958104Y-84556600D01*
X151959471Y-84554231D01*
X151915428Y-84516751D01*
X151895821Y-84461748D01*
X151888674Y-84393744D01*
X151830179Y-84213716D01*
X151735533Y-84049784D01*
X151608871Y-83909112D01*
X151574500Y-83884140D01*
X151455734Y-83797851D01*
X151455729Y-83797848D01*
X151282807Y-83720857D01*
X151282802Y-83720855D01*
X151137000Y-83689865D01*
X151097646Y-83681500D01*
X150908354Y-83681500D01*
X150875897Y-83688398D01*
X150723197Y-83720855D01*
X150723192Y-83720857D01*
X150550270Y-83797848D01*
X150550266Y-83797851D01*
X150504384Y-83831186D01*
X150438578Y-83854665D01*
X150370524Y-83838839D01*
X150358616Y-83831186D01*
X150312733Y-83797851D01*
X150312729Y-83797848D01*
X150139807Y-83720857D01*
X150139802Y-83720855D01*
X149994000Y-83689865D01*
X149954646Y-83681500D01*
X149765354Y-83681500D01*
X149732897Y-83688398D01*
X149580197Y-83720855D01*
X149580192Y-83720857D01*
X149407270Y-83797848D01*
X149407265Y-83797851D01*
X149254129Y-83909111D01*
X149152959Y-84021472D01*
X149093472Y-84058121D01*
X149060809Y-84062500D01*
X148876354Y-84062500D01*
X148843897Y-84069398D01*
X148691197Y-84101855D01*
X148691192Y-84101857D01*
X148518270Y-84178848D01*
X148518265Y-84178851D01*
X148365129Y-84290111D01*
X148238466Y-84430785D01*
X148143821Y-84594715D01*
X148143818Y-84594722D01*
X148097636Y-84736857D01*
X148085326Y-84774744D01*
X148065540Y-84963000D01*
X145929270Y-84963000D01*
X145901508Y-84841363D01*
X145808393Y-84604112D01*
X145680959Y-84383388D01*
X145522050Y-84184123D01*
X145335217Y-84010768D01*
X145124634Y-83867195D01*
X145124630Y-83867193D01*
X145124627Y-83867191D01*
X145124626Y-83867190D01*
X144895006Y-83756612D01*
X144895008Y-83756612D01*
X144651466Y-83681489D01*
X144651462Y-83681488D01*
X144651458Y-83681487D01*
X144530231Y-83663214D01*
X144399440Y-83643500D01*
X144399435Y-83643500D01*
X144144565Y-83643500D01*
X144144559Y-83643500D01*
X143987609Y-83667157D01*
X143892542Y-83681487D01*
X143892538Y-83681488D01*
X143892539Y-83681488D01*
X143892533Y-83681489D01*
X143648995Y-83756611D01*
X143628083Y-83766682D01*
X143535299Y-83811364D01*
X143466359Y-83822716D01*
X143402225Y-83794994D01*
X143363259Y-83736998D01*
X143357499Y-83699644D01*
X143357499Y-82169000D01*
X146287540Y-82169000D01*
X146307326Y-82357256D01*
X146307327Y-82357259D01*
X146365818Y-82537277D01*
X146365821Y-82537284D01*
X146460467Y-82701216D01*
X146552925Y-82803901D01*
X146587129Y-82841888D01*
X146740265Y-82953148D01*
X146740270Y-82953151D01*
X146913192Y-83030142D01*
X146913197Y-83030144D01*
X147098354Y-83069500D01*
X147098355Y-83069500D01*
X147287644Y-83069500D01*
X147287646Y-83069500D01*
X147472803Y-83030144D01*
X147645730Y-82953151D01*
X147798871Y-82841888D01*
X147866556Y-82766716D01*
X147926041Y-82730068D01*
X147995899Y-82731398D01*
X148031590Y-82749371D01*
X148137265Y-82826148D01*
X148137270Y-82826151D01*
X148310192Y-82903142D01*
X148310197Y-82903144D01*
X148495354Y-82942500D01*
X148495355Y-82942500D01*
X148684644Y-82942500D01*
X148684646Y-82942500D01*
X148869803Y-82903144D01*
X149042730Y-82826151D01*
X149195871Y-82714888D01*
X149317027Y-82580330D01*
X149376511Y-82543683D01*
X149446368Y-82545013D01*
X149501323Y-82580329D01*
X149508131Y-82587890D01*
X149508135Y-82587893D01*
X149661265Y-82699148D01*
X149661270Y-82699151D01*
X149834192Y-82776142D01*
X149834197Y-82776144D01*
X150019354Y-82815500D01*
X150019355Y-82815500D01*
X150208644Y-82815500D01*
X150208646Y-82815500D01*
X150393803Y-82776144D01*
X150540227Y-82710950D01*
X150609477Y-82701666D01*
X150663548Y-82723912D01*
X150804265Y-82826148D01*
X150804270Y-82826151D01*
X150977192Y-82903142D01*
X150977197Y-82903144D01*
X151162354Y-82942500D01*
X151162355Y-82942500D01*
X151351644Y-82942500D01*
X151351646Y-82942500D01*
X151536803Y-82903144D01*
X151709730Y-82826151D01*
X151819117Y-82746676D01*
X151884920Y-82723198D01*
X151952974Y-82739023D01*
X151964871Y-82746668D01*
X152059610Y-82815500D01*
X152074270Y-82826151D01*
X152247192Y-82903142D01*
X152247197Y-82903144D01*
X152432354Y-82942500D01*
X152432355Y-82942500D01*
X152621644Y-82942500D01*
X152621646Y-82942500D01*
X152806803Y-82903144D01*
X152979730Y-82826151D01*
X153132871Y-82714888D01*
X153133349Y-82714356D01*
X153133702Y-82714138D01*
X153137706Y-82710535D01*
X153138364Y-82711266D01*
X153192836Y-82677709D01*
X153262693Y-82679038D01*
X153312711Y-82711182D01*
X153313294Y-82710535D01*
X153317260Y-82714106D01*
X153317651Y-82714357D01*
X153318129Y-82714888D01*
X153318130Y-82714889D01*
X153471265Y-82826148D01*
X153471270Y-82826151D01*
X153644192Y-82903142D01*
X153644197Y-82903144D01*
X153829354Y-82942500D01*
X153829355Y-82942500D01*
X154018644Y-82942500D01*
X154018646Y-82942500D01*
X154203803Y-82903144D01*
X154376730Y-82826151D01*
X154529871Y-82714888D01*
X154530349Y-82714356D01*
X154530702Y-82714138D01*
X154534706Y-82710535D01*
X154535364Y-82711266D01*
X154589836Y-82677709D01*
X154659693Y-82679038D01*
X154709711Y-82711182D01*
X154710294Y-82710535D01*
X154714260Y-82714106D01*
X154714651Y-82714357D01*
X154715129Y-82714888D01*
X154715130Y-82714889D01*
X154868265Y-82826148D01*
X154868270Y-82826151D01*
X155041192Y-82903142D01*
X155041197Y-82903144D01*
X155226354Y-82942500D01*
X155226355Y-82942500D01*
X155415644Y-82942500D01*
X155415646Y-82942500D01*
X155600803Y-82903144D01*
X155769092Y-82828216D01*
X155773728Y-82826152D01*
X155773728Y-82826151D01*
X155773730Y-82826151D01*
X155819614Y-82792813D01*
X155885421Y-82769334D01*
X155953475Y-82785159D01*
X155965386Y-82792814D01*
X156011271Y-82826152D01*
X156184192Y-82903142D01*
X156184197Y-82903144D01*
X156369354Y-82942500D01*
X156369355Y-82942500D01*
X156558644Y-82942500D01*
X156558646Y-82942500D01*
X156743803Y-82903144D01*
X156916730Y-82826151D01*
X157069871Y-82714888D01*
X157196533Y-82574216D01*
X157291179Y-82410284D01*
X157349674Y-82230256D01*
X157369460Y-82042000D01*
X157349674Y-81853744D01*
X157291179Y-81673716D01*
X157196533Y-81509784D01*
X157069871Y-81369112D01*
X157069863Y-81369106D01*
X156916734Y-81257851D01*
X156916729Y-81257848D01*
X156743807Y-81180857D01*
X156743802Y-81180855D01*
X156575973Y-81145183D01*
X156558646Y-81141500D01*
X156369354Y-81141500D01*
X156352027Y-81145183D01*
X156184197Y-81180855D01*
X156184192Y-81180857D01*
X156011270Y-81257848D01*
X156011266Y-81257851D01*
X155965384Y-81291186D01*
X155899578Y-81314665D01*
X155831524Y-81298839D01*
X155819616Y-81291186D01*
X155773733Y-81257851D01*
X155773729Y-81257848D01*
X155600807Y-81180857D01*
X155600802Y-81180855D01*
X155432973Y-81145183D01*
X155415646Y-81141500D01*
X155226354Y-81141500D01*
X155209027Y-81145183D01*
X155041197Y-81180855D01*
X155041192Y-81180857D01*
X154868270Y-81257848D01*
X154868265Y-81257851D01*
X154715135Y-81369106D01*
X154715125Y-81369115D01*
X154714642Y-81369652D01*
X154714285Y-81369871D01*
X154710305Y-81373456D01*
X154709648Y-81372727D01*
X154655152Y-81406295D01*
X154585295Y-81404958D01*
X154535274Y-81372811D01*
X154534695Y-81373456D01*
X154530751Y-81369904D01*
X154530358Y-81369652D01*
X154529874Y-81369115D01*
X154529864Y-81369106D01*
X154376734Y-81257851D01*
X154376729Y-81257848D01*
X154203807Y-81180857D01*
X154203802Y-81180855D01*
X154035973Y-81145183D01*
X154018646Y-81141500D01*
X153829354Y-81141500D01*
X153812027Y-81145183D01*
X153644197Y-81180855D01*
X153644192Y-81180857D01*
X153471270Y-81257848D01*
X153471265Y-81257851D01*
X153318135Y-81369106D01*
X153318125Y-81369115D01*
X153317642Y-81369652D01*
X153317285Y-81369871D01*
X153313305Y-81373456D01*
X153312648Y-81372727D01*
X153258152Y-81406295D01*
X153188295Y-81404958D01*
X153138274Y-81372811D01*
X153137695Y-81373456D01*
X153133751Y-81369904D01*
X153133358Y-81369652D01*
X153132874Y-81369115D01*
X153132864Y-81369106D01*
X152979734Y-81257851D01*
X152979729Y-81257848D01*
X152806807Y-81180857D01*
X152806802Y-81180855D01*
X152638973Y-81145183D01*
X152621646Y-81141500D01*
X152432354Y-81141500D01*
X152415027Y-81145183D01*
X152247197Y-81180855D01*
X152247192Y-81180857D01*
X152074270Y-81257848D01*
X152074265Y-81257851D01*
X151964885Y-81337321D01*
X151899079Y-81360801D01*
X151831025Y-81344975D01*
X151819115Y-81337321D01*
X151709734Y-81257851D01*
X151709729Y-81257848D01*
X151536807Y-81180857D01*
X151536802Y-81180855D01*
X151368973Y-81145183D01*
X151351646Y-81141500D01*
X151162354Y-81141500D01*
X151145027Y-81145183D01*
X150977197Y-81180855D01*
X150830771Y-81246049D01*
X150761521Y-81255333D01*
X150707451Y-81233088D01*
X150614723Y-81165718D01*
X150566730Y-81130849D01*
X150566728Y-81130848D01*
X150566729Y-81130848D01*
X150415642Y-81063579D01*
X150362405Y-81018329D01*
X150342084Y-80951480D01*
X150358690Y-80888302D01*
X150433179Y-80759284D01*
X150491674Y-80579256D01*
X150511460Y-80391000D01*
X150491674Y-80202744D01*
X150433179Y-80022716D01*
X150338533Y-79858784D01*
X150211871Y-79718112D01*
X150211870Y-79718111D01*
X150058734Y-79606851D01*
X150058729Y-79606848D01*
X149885807Y-79529857D01*
X149885802Y-79529855D01*
X149754750Y-79502000D01*
X153907540Y-79502000D01*
X153927326Y-79690256D01*
X153927327Y-79690259D01*
X153985818Y-79870277D01*
X153985821Y-79870284D01*
X154080467Y-80034216D01*
X154207128Y-80174888D01*
X154207129Y-80174888D01*
X154360265Y-80286148D01*
X154360270Y-80286151D01*
X154533192Y-80363142D01*
X154533197Y-80363144D01*
X154718354Y-80402500D01*
X154718355Y-80402500D01*
X154907644Y-80402500D01*
X154907646Y-80402500D01*
X155092803Y-80363144D01*
X155265730Y-80286151D01*
X155418871Y-80174888D01*
X155545533Y-80034216D01*
X155640179Y-79870284D01*
X155698674Y-79690256D01*
X155718460Y-79502000D01*
X155698674Y-79313744D01*
X155698672Y-79313737D01*
X155697786Y-79309566D01*
X155703102Y-79239899D01*
X155745240Y-79184166D01*
X155810820Y-79160061D01*
X155879021Y-79175238D01*
X155891950Y-79183460D01*
X155969632Y-79239899D01*
X156011270Y-79270151D01*
X156184192Y-79347142D01*
X156184197Y-79347144D01*
X156369354Y-79386500D01*
X156369355Y-79386500D01*
X156558644Y-79386500D01*
X156558646Y-79386500D01*
X156743803Y-79347144D01*
X156916730Y-79270151D01*
X157069871Y-79158888D01*
X157196533Y-79018216D01*
X157291179Y-78854284D01*
X157349674Y-78674256D01*
X157369460Y-78486000D01*
X157349674Y-78297744D01*
X157291179Y-78117716D01*
X157196533Y-77953784D01*
X157069871Y-77813112D01*
X157069870Y-77813111D01*
X156916734Y-77701851D01*
X156916729Y-77701848D01*
X156743807Y-77624857D01*
X156743802Y-77624855D01*
X156598001Y-77593865D01*
X156558646Y-77585500D01*
X156369354Y-77585500D01*
X156336897Y-77592398D01*
X156184197Y-77624855D01*
X156184192Y-77624857D01*
X156011270Y-77701848D01*
X156011265Y-77701851D01*
X155858129Y-77813111D01*
X155731466Y-77953785D01*
X155636821Y-78117715D01*
X155636818Y-78117722D01*
X155578328Y-78297738D01*
X155578326Y-78297744D01*
X155567001Y-78405499D01*
X155558540Y-78486000D01*
X155578327Y-78674264D01*
X155579215Y-78678441D01*
X155573894Y-78748108D01*
X155531752Y-78803838D01*
X155466171Y-78827938D01*
X155397970Y-78812756D01*
X155385038Y-78804531D01*
X155265734Y-78717851D01*
X155265729Y-78717848D01*
X155092807Y-78640857D01*
X155092802Y-78640855D01*
X154947001Y-78609865D01*
X154907646Y-78601500D01*
X154718354Y-78601500D01*
X154685897Y-78608398D01*
X154533197Y-78640855D01*
X154533192Y-78640857D01*
X154360270Y-78717848D01*
X154360265Y-78717851D01*
X154207129Y-78829111D01*
X154080466Y-78969785D01*
X153985821Y-79133715D01*
X153985818Y-79133722D01*
X153927328Y-79313737D01*
X153927326Y-79313744D01*
X153907540Y-79502000D01*
X149754750Y-79502000D01*
X149740000Y-79498865D01*
X149700646Y-79490500D01*
X149511354Y-79490500D01*
X149487901Y-79495485D01*
X149326197Y-79529855D01*
X149326192Y-79529857D01*
X149153270Y-79606848D01*
X149153265Y-79606851D01*
X149000129Y-79718111D01*
X148873466Y-79858785D01*
X148778821Y-80022715D01*
X148778818Y-80022722D01*
X148729377Y-80174888D01*
X148720326Y-80202744D01*
X148700540Y-80391000D01*
X148720326Y-80579256D01*
X148720327Y-80579259D01*
X148778818Y-80759277D01*
X148778820Y-80759281D01*
X148778821Y-80759284D01*
X148873467Y-80923216D01*
X148883865Y-80934764D01*
X148905859Y-80959191D01*
X148936089Y-81022183D01*
X148927464Y-81091518D01*
X148882722Y-81145183D01*
X148816070Y-81166141D01*
X148787928Y-81163453D01*
X148701973Y-81145183D01*
X148684646Y-81141500D01*
X148495354Y-81141500D01*
X148478027Y-81145183D01*
X148310197Y-81180855D01*
X148310192Y-81180857D01*
X148137270Y-81257848D01*
X148137265Y-81257851D01*
X147984132Y-81369109D01*
X147984129Y-81369111D01*
X147984129Y-81369112D01*
X147934818Y-81423878D01*
X147916444Y-81444284D01*
X147856957Y-81480932D01*
X147787100Y-81479601D01*
X147751411Y-81461630D01*
X147645730Y-81384849D01*
X147645729Y-81384848D01*
X147472807Y-81307857D01*
X147472802Y-81307855D01*
X147327001Y-81276865D01*
X147287646Y-81268500D01*
X147098354Y-81268500D01*
X147065897Y-81275398D01*
X146913197Y-81307855D01*
X146913192Y-81307857D01*
X146740270Y-81384848D01*
X146740265Y-81384851D01*
X146587129Y-81496111D01*
X146460466Y-81636785D01*
X146365821Y-81800715D01*
X146365818Y-81800722D01*
X146312604Y-81964499D01*
X146307326Y-81980744D01*
X146287540Y-82169000D01*
X143357499Y-82169000D01*
X143357499Y-81908356D01*
X143377184Y-81841317D01*
X143429988Y-81795562D01*
X143499146Y-81785618D01*
X143535298Y-81796635D01*
X143648996Y-81851389D01*
X143892542Y-81926513D01*
X144144565Y-81964500D01*
X144399435Y-81964500D01*
X144651458Y-81926513D01*
X144895004Y-81851389D01*
X145124634Y-81740805D01*
X145335217Y-81597232D01*
X145522050Y-81423877D01*
X145680959Y-81224612D01*
X145808393Y-81003888D01*
X145901508Y-80766637D01*
X145958222Y-80518157D01*
X145972342Y-80329738D01*
X145977268Y-80264004D01*
X145977268Y-80263995D01*
X145959187Y-80022716D01*
X145958222Y-80009843D01*
X145901508Y-79761363D01*
X145808393Y-79524112D01*
X145680959Y-79303388D01*
X145522050Y-79104123D01*
X145335217Y-78930768D01*
X145124634Y-78787195D01*
X145124630Y-78787193D01*
X145124627Y-78787191D01*
X145124626Y-78787190D01*
X144895006Y-78676612D01*
X144895008Y-78676612D01*
X144651466Y-78601489D01*
X144651462Y-78601488D01*
X144651458Y-78601487D01*
X144530231Y-78583214D01*
X144399440Y-78563500D01*
X144399435Y-78563500D01*
X144144565Y-78563500D01*
X144144559Y-78563500D01*
X143987609Y-78587157D01*
X143892542Y-78601487D01*
X143892538Y-78601488D01*
X143892539Y-78601488D01*
X143892533Y-78601489D01*
X143648992Y-78676612D01*
X143419373Y-78787190D01*
X143419372Y-78787191D01*
X143208782Y-78930768D01*
X143021952Y-79104121D01*
X143021950Y-79104123D01*
X142863041Y-79303388D01*
X142735608Y-79524109D01*
X142642492Y-79761362D01*
X142642490Y-79761369D01*
X142585777Y-80009845D01*
X142566732Y-80263995D01*
X142566732Y-80264004D01*
X142585777Y-80518154D01*
X142641945Y-80764244D01*
X142642492Y-80766637D01*
X142735592Y-81003851D01*
X142737302Y-81008206D01*
X142735433Y-81008939D01*
X142745420Y-81069664D01*
X142717685Y-81133793D01*
X142659682Y-81172747D01*
X142622351Y-81178500D01*
X140841649Y-81178500D01*
X140774610Y-81158815D01*
X140728855Y-81106011D01*
X140718911Y-81036853D01*
X140727542Y-81008538D01*
X140726698Y-81008207D01*
X140755522Y-80934764D01*
X140821508Y-80766637D01*
X140878222Y-80518157D01*
X140892342Y-80329738D01*
X140897268Y-80264004D01*
X140897268Y-80263995D01*
X140879187Y-80022716D01*
X140878222Y-80009843D01*
X140821508Y-79761363D01*
X140728393Y-79524112D01*
X140600959Y-79303388D01*
X140442050Y-79104123D01*
X140255217Y-78930768D01*
X140044634Y-78787195D01*
X140044630Y-78787193D01*
X140044627Y-78787191D01*
X140044626Y-78787190D01*
X139815006Y-78676612D01*
X139815008Y-78676612D01*
X139571466Y-78601489D01*
X139571462Y-78601488D01*
X139571458Y-78601487D01*
X139450231Y-78583214D01*
X139319440Y-78563500D01*
X139319435Y-78563500D01*
X139064565Y-78563500D01*
X139064559Y-78563500D01*
X138907609Y-78587157D01*
X138812542Y-78601487D01*
X138812538Y-78601488D01*
X138812539Y-78601488D01*
X138812533Y-78601489D01*
X138568992Y-78676612D01*
X138339373Y-78787190D01*
X138339372Y-78787191D01*
X138128782Y-78930768D01*
X137954318Y-79092647D01*
X137941950Y-79104123D01*
X137898277Y-79158888D01*
X137889447Y-79169960D01*
X137832258Y-79210100D01*
X137762447Y-79212950D01*
X137702177Y-79177604D01*
X137670584Y-79115285D01*
X137668500Y-79092647D01*
X137668500Y-78359000D01*
X151240540Y-78359000D01*
X151260326Y-78547256D01*
X151260327Y-78547259D01*
X151318818Y-78727277D01*
X151318821Y-78727283D01*
X151318821Y-78727284D01*
X151413467Y-78891216D01*
X151527817Y-79018214D01*
X151540129Y-79031888D01*
X151693265Y-79143148D01*
X151693270Y-79143151D01*
X151866192Y-79220142D01*
X151866197Y-79220144D01*
X152051354Y-79259500D01*
X152051355Y-79259500D01*
X152240644Y-79259500D01*
X152240646Y-79259500D01*
X152425803Y-79220144D01*
X152598730Y-79143151D01*
X152751871Y-79031888D01*
X152878533Y-78891216D01*
X152973179Y-78727284D01*
X153031674Y-78547256D01*
X153051460Y-78359000D01*
X153031674Y-78170744D01*
X152973179Y-77990716D01*
X152878533Y-77826784D01*
X152751871Y-77686112D01*
X152751870Y-77686111D01*
X152598734Y-77574851D01*
X152598729Y-77574848D01*
X152425807Y-77497857D01*
X152425802Y-77497855D01*
X152252685Y-77461059D01*
X152240646Y-77458500D01*
X152051354Y-77458500D01*
X152039315Y-77461059D01*
X151866197Y-77497855D01*
X151866192Y-77497857D01*
X151693270Y-77574848D01*
X151693265Y-77574851D01*
X151540129Y-77686111D01*
X151413466Y-77826785D01*
X151318821Y-77990715D01*
X151318818Y-77990722D01*
X151270839Y-78138387D01*
X151260326Y-78170744D01*
X151240540Y-78359000D01*
X137668500Y-78359000D01*
X137668500Y-77555077D01*
X137688185Y-77488038D01*
X137740989Y-77442283D01*
X137747431Y-77439557D01*
X139623218Y-76708000D01*
X146922540Y-76708000D01*
X146942326Y-76896256D01*
X146942327Y-76896259D01*
X147000818Y-77076277D01*
X147000821Y-77076284D01*
X147095467Y-77240216D01*
X147222128Y-77380887D01*
X147222129Y-77380888D01*
X147375265Y-77492148D01*
X147375270Y-77492151D01*
X147548192Y-77569142D01*
X147548197Y-77569144D01*
X147733354Y-77608500D01*
X147733355Y-77608500D01*
X147922644Y-77608500D01*
X147922646Y-77608500D01*
X148107803Y-77569144D01*
X148280730Y-77492151D01*
X148433871Y-77380888D01*
X148467986Y-77343000D01*
X161019540Y-77343000D01*
X161039326Y-77531256D01*
X161039327Y-77531259D01*
X161097818Y-77711277D01*
X161097821Y-77711284D01*
X161192467Y-77875216D01*
X161298063Y-77992492D01*
X161319129Y-78015888D01*
X161472265Y-78127148D01*
X161472270Y-78127151D01*
X161645192Y-78204142D01*
X161645197Y-78204144D01*
X161830354Y-78243500D01*
X161830355Y-78243500D01*
X162019644Y-78243500D01*
X162019646Y-78243500D01*
X162204803Y-78204144D01*
X162377730Y-78127151D01*
X162530871Y-78015888D01*
X162657533Y-77875216D01*
X162752179Y-77711284D01*
X162810674Y-77531256D01*
X162830460Y-77343000D01*
X162810674Y-77154744D01*
X162752179Y-76974716D01*
X162657533Y-76810784D01*
X162573246Y-76717174D01*
X162543018Y-76654186D01*
X162551643Y-76584851D01*
X162596384Y-76531185D01*
X162663037Y-76510227D01*
X162715834Y-76520926D01*
X162788192Y-76553142D01*
X162788197Y-76553144D01*
X162973354Y-76592500D01*
X162973355Y-76592500D01*
X163162644Y-76592500D01*
X163162646Y-76592500D01*
X163347803Y-76553144D01*
X163520730Y-76476151D01*
X163673871Y-76364888D01*
X163800533Y-76224216D01*
X163895179Y-76060284D01*
X163953674Y-75880256D01*
X163973460Y-75692000D01*
X163953674Y-75503744D01*
X163895179Y-75323716D01*
X163800533Y-75159784D01*
X163673871Y-75019112D01*
X163673870Y-75019111D01*
X163520734Y-74907851D01*
X163520729Y-74907848D01*
X163347807Y-74830857D01*
X163347802Y-74830855D01*
X163202000Y-74799865D01*
X163162646Y-74791500D01*
X162973354Y-74791500D01*
X162940897Y-74798398D01*
X162788197Y-74830855D01*
X162788192Y-74830857D01*
X162615270Y-74907848D01*
X162615265Y-74907851D01*
X162462129Y-75019111D01*
X162335466Y-75159785D01*
X162240821Y-75323715D01*
X162240818Y-75323722D01*
X162191282Y-75476179D01*
X162182326Y-75503744D01*
X162162540Y-75692000D01*
X162182326Y-75880256D01*
X162182327Y-75880259D01*
X162240818Y-76060277D01*
X162240821Y-76060284D01*
X162335464Y-76224212D01*
X162335465Y-76224214D01*
X162335467Y-76224216D01*
X162419752Y-76317824D01*
X162449981Y-76380813D01*
X162441356Y-76450148D01*
X162396615Y-76503814D01*
X162329962Y-76524772D01*
X162277166Y-76514074D01*
X162204802Y-76481855D01*
X162055627Y-76450148D01*
X162019646Y-76442500D01*
X161830354Y-76442500D01*
X161801721Y-76448586D01*
X161645197Y-76481855D01*
X161645192Y-76481857D01*
X161472270Y-76558848D01*
X161472265Y-76558851D01*
X161319129Y-76670111D01*
X161192466Y-76810785D01*
X161097821Y-76974715D01*
X161097818Y-76974722D01*
X161064819Y-77076284D01*
X161039326Y-77154744D01*
X161019540Y-77343000D01*
X148467986Y-77343000D01*
X148560533Y-77240216D01*
X148655179Y-77076284D01*
X148713674Y-76896256D01*
X148733460Y-76708000D01*
X148713674Y-76519744D01*
X148655179Y-76339716D01*
X148560533Y-76175784D01*
X148433871Y-76035112D01*
X148433870Y-76035111D01*
X148280734Y-75923851D01*
X148280729Y-75923848D01*
X148107807Y-75846857D01*
X148107802Y-75846855D01*
X147962000Y-75815865D01*
X147922646Y-75807500D01*
X147733354Y-75807500D01*
X147700897Y-75814398D01*
X147548197Y-75846855D01*
X147548192Y-75846857D01*
X147375270Y-75923848D01*
X147375265Y-75923851D01*
X147222129Y-76035111D01*
X147095466Y-76175785D01*
X147000821Y-76339715D01*
X147000818Y-76339722D01*
X146946149Y-76507978D01*
X146942326Y-76519744D01*
X146922540Y-76708000D01*
X139623218Y-76708000D01*
X143723685Y-75108818D01*
X143793292Y-75102800D01*
X143855106Y-75135370D01*
X143889498Y-75196189D01*
X143885550Y-75265947D01*
X143876128Y-75286337D01*
X143870465Y-75296146D01*
X143870460Y-75296157D01*
X143811969Y-75476175D01*
X143811968Y-75476179D01*
X143792182Y-75664435D01*
X143811968Y-75852691D01*
X143811969Y-75852694D01*
X143870460Y-76032712D01*
X143870463Y-76032719D01*
X143965109Y-76196651D01*
X144027321Y-76265744D01*
X144091771Y-76337323D01*
X144244907Y-76448583D01*
X144244912Y-76448586D01*
X144417834Y-76525577D01*
X144417839Y-76525579D01*
X144602996Y-76564935D01*
X144602997Y-76564935D01*
X144792286Y-76564935D01*
X144792288Y-76564935D01*
X144977445Y-76525579D01*
X145150372Y-76448586D01*
X145303513Y-76337323D01*
X145430175Y-76196651D01*
X145524821Y-76032719D01*
X145583316Y-75852691D01*
X145603102Y-75664435D01*
X145583316Y-75476179D01*
X145524821Y-75296151D01*
X145430175Y-75132219D01*
X145303513Y-74991547D01*
X145303512Y-74991546D01*
X145150376Y-74880286D01*
X145150371Y-74880283D01*
X145029248Y-74826355D01*
X144976011Y-74781105D01*
X144955690Y-74714255D01*
X144974736Y-74647032D01*
X145027102Y-74600777D01*
X145034622Y-74597553D01*
X146136040Y-74168000D01*
X148954540Y-74168000D01*
X148974326Y-74356256D01*
X148974327Y-74356259D01*
X149032818Y-74536277D01*
X149032821Y-74536284D01*
X149127467Y-74700216D01*
X149241043Y-74826355D01*
X149254129Y-74840888D01*
X149407265Y-74952148D01*
X149407270Y-74952151D01*
X149580192Y-75029142D01*
X149580197Y-75029144D01*
X149765354Y-75068500D01*
X149765355Y-75068500D01*
X149954644Y-75068500D01*
X149954646Y-75068500D01*
X150139803Y-75029144D01*
X150312730Y-74952151D01*
X150465871Y-74840888D01*
X150592533Y-74700216D01*
X150687179Y-74536284D01*
X150745674Y-74356256D01*
X150765460Y-74168000D01*
X150745674Y-73979744D01*
X150691112Y-73811823D01*
X150687181Y-73799722D01*
X150687180Y-73799721D01*
X150687179Y-73799716D01*
X150592533Y-73635784D01*
X150465871Y-73495112D01*
X150465870Y-73495111D01*
X150312734Y-73383851D01*
X150312729Y-73383848D01*
X150139807Y-73306857D01*
X150139802Y-73306855D01*
X149994000Y-73275865D01*
X149954646Y-73267500D01*
X149765354Y-73267500D01*
X149732897Y-73274398D01*
X149580197Y-73306855D01*
X149580192Y-73306857D01*
X149407270Y-73383848D01*
X149407265Y-73383851D01*
X149254129Y-73495111D01*
X149127466Y-73635785D01*
X149032821Y-73799715D01*
X149032818Y-73799722D01*
X148978011Y-73968403D01*
X148974326Y-73979744D01*
X148954540Y-74168000D01*
X146136040Y-74168000D01*
X150167127Y-72595876D01*
X151816680Y-72595876D01*
X151817695Y-72702338D01*
X151818052Y-72739792D01*
X151833431Y-72797739D01*
X152218054Y-73799715D01*
X152476970Y-74474214D01*
X152504312Y-74527564D01*
X152504314Y-74527567D01*
X152599594Y-74635434D01*
X152633647Y-74656863D01*
X152721402Y-74712086D01*
X152721406Y-74712088D01*
X152773584Y-74726870D01*
X152859876Y-74751319D01*
X153003792Y-74749948D01*
X153061739Y-74734569D01*
X154738211Y-74091031D01*
X154791567Y-74063686D01*
X154899434Y-73968406D01*
X154976087Y-73846596D01*
X155015319Y-73708124D01*
X155013948Y-73564208D01*
X154998569Y-73506261D01*
X154472575Y-72136000D01*
X158098540Y-72136000D01*
X158118326Y-72324256D01*
X158118327Y-72324259D01*
X158176818Y-72504277D01*
X158176821Y-72504284D01*
X158271467Y-72668216D01*
X158388090Y-72797739D01*
X158398129Y-72808888D01*
X158551265Y-72920148D01*
X158551270Y-72920151D01*
X158724192Y-72997142D01*
X158724197Y-72997144D01*
X158909354Y-73036500D01*
X158909355Y-73036500D01*
X159098644Y-73036500D01*
X159098646Y-73036500D01*
X159283803Y-72997144D01*
X159456730Y-72920151D01*
X159609871Y-72808888D01*
X159736533Y-72668216D01*
X159831179Y-72504284D01*
X159889674Y-72324256D01*
X159909460Y-72136000D01*
X159889674Y-71947744D01*
X159831179Y-71767716D01*
X159750514Y-71628000D01*
X161146540Y-71628000D01*
X161166326Y-71816256D01*
X161166327Y-71816259D01*
X161224818Y-71996277D01*
X161224821Y-71996284D01*
X161319467Y-72160216D01*
X161391586Y-72240312D01*
X161446129Y-72300888D01*
X161599265Y-72412148D01*
X161599270Y-72412151D01*
X161772192Y-72489142D01*
X161772197Y-72489144D01*
X161957354Y-72528500D01*
X161957355Y-72528500D01*
X162146644Y-72528500D01*
X162146646Y-72528500D01*
X162331803Y-72489144D01*
X162504730Y-72412151D01*
X162657871Y-72300888D01*
X162784533Y-72160216D01*
X162879179Y-71996284D01*
X162937674Y-71816256D01*
X162957460Y-71628000D01*
X162937674Y-71439744D01*
X162879179Y-71259716D01*
X162784533Y-71095784D01*
X162657871Y-70955112D01*
X162657870Y-70955111D01*
X162504734Y-70843851D01*
X162504729Y-70843848D01*
X162331807Y-70766857D01*
X162331802Y-70766855D01*
X162186000Y-70735865D01*
X162146646Y-70727500D01*
X161957354Y-70727500D01*
X161924897Y-70734398D01*
X161772197Y-70766855D01*
X161772192Y-70766857D01*
X161599270Y-70843848D01*
X161599265Y-70843851D01*
X161446129Y-70955111D01*
X161319466Y-71095785D01*
X161224821Y-71259715D01*
X161224818Y-71259722D01*
X161176976Y-71406966D01*
X161166326Y-71439744D01*
X161146540Y-71628000D01*
X159750514Y-71628000D01*
X159736533Y-71603784D01*
X159609871Y-71463112D01*
X159596688Y-71453534D01*
X159456734Y-71351851D01*
X159456729Y-71351848D01*
X159283807Y-71274857D01*
X159283802Y-71274855D01*
X159130021Y-71242169D01*
X159098646Y-71235500D01*
X158909354Y-71235500D01*
X158877979Y-71242169D01*
X158724197Y-71274855D01*
X158724192Y-71274857D01*
X158551270Y-71351848D01*
X158551265Y-71351851D01*
X158398129Y-71463111D01*
X158271466Y-71603785D01*
X158176821Y-71767715D01*
X158176818Y-71767722D01*
X158130720Y-71909599D01*
X158118326Y-71947744D01*
X158098540Y-72136000D01*
X154472575Y-72136000D01*
X154355031Y-71829789D01*
X154327686Y-71776433D01*
X154232406Y-71668566D01*
X154232403Y-71668564D01*
X154110597Y-71591913D01*
X154110593Y-71591911D01*
X153972123Y-71552680D01*
X153828207Y-71554052D01*
X153770261Y-71569431D01*
X152093785Y-72212970D01*
X152040435Y-72240312D01*
X152040432Y-72240314D01*
X152040433Y-72240314D01*
X151939366Y-72329588D01*
X151932564Y-72335596D01*
X151855913Y-72457402D01*
X151855911Y-72457406D01*
X151816680Y-72595876D01*
X150167127Y-72595876D01*
X157859117Y-69596000D01*
X160130540Y-69596000D01*
X160150326Y-69784256D01*
X160150327Y-69784259D01*
X160208818Y-69964277D01*
X160208821Y-69964284D01*
X160303467Y-70128216D01*
X160430128Y-70268887D01*
X160430129Y-70268888D01*
X160583265Y-70380148D01*
X160583270Y-70380151D01*
X160756192Y-70457142D01*
X160756197Y-70457144D01*
X160941354Y-70496500D01*
X160941355Y-70496500D01*
X161130644Y-70496500D01*
X161130646Y-70496500D01*
X161315803Y-70457144D01*
X161488730Y-70380151D01*
X161641871Y-70268888D01*
X161768533Y-70128216D01*
X161863179Y-69964284D01*
X161921674Y-69784256D01*
X161941460Y-69596000D01*
X161921674Y-69407744D01*
X161863179Y-69227716D01*
X161782514Y-69088000D01*
X163686540Y-69088000D01*
X163706326Y-69276256D01*
X163706327Y-69276259D01*
X163764818Y-69456277D01*
X163764821Y-69456284D01*
X163859467Y-69620216D01*
X163959693Y-69731528D01*
X163986129Y-69760888D01*
X164139265Y-69872148D01*
X164139270Y-69872151D01*
X164312192Y-69949142D01*
X164312197Y-69949144D01*
X164497354Y-69988500D01*
X164497355Y-69988500D01*
X164686644Y-69988500D01*
X164686646Y-69988500D01*
X164871803Y-69949144D01*
X165044730Y-69872151D01*
X165197871Y-69760888D01*
X165324533Y-69620216D01*
X165419179Y-69456284D01*
X165477674Y-69276256D01*
X165497460Y-69088000D01*
X165477674Y-68899744D01*
X165419179Y-68719716D01*
X165324533Y-68555784D01*
X165197871Y-68415112D01*
X165197870Y-68415111D01*
X165044734Y-68303851D01*
X165044729Y-68303848D01*
X164871807Y-68226857D01*
X164871802Y-68226855D01*
X164726000Y-68195865D01*
X164686646Y-68187500D01*
X164497354Y-68187500D01*
X164464897Y-68194398D01*
X164312197Y-68226855D01*
X164312192Y-68226857D01*
X164139270Y-68303848D01*
X164139265Y-68303851D01*
X163986129Y-68415111D01*
X163859466Y-68555785D01*
X163764821Y-68719715D01*
X163764818Y-68719722D01*
X163723543Y-68846755D01*
X163706326Y-68899744D01*
X163686540Y-69088000D01*
X161782514Y-69088000D01*
X161768533Y-69063784D01*
X161641871Y-68923112D01*
X161609708Y-68899744D01*
X161488734Y-68811851D01*
X161488729Y-68811848D01*
X161315807Y-68734857D01*
X161315802Y-68734855D01*
X161170001Y-68703865D01*
X161130646Y-68695500D01*
X160941354Y-68695500D01*
X160908897Y-68702398D01*
X160756197Y-68734855D01*
X160756192Y-68734857D01*
X160583270Y-68811848D01*
X160583265Y-68811851D01*
X160430129Y-68923111D01*
X160303466Y-69063785D01*
X160208821Y-69227715D01*
X160208818Y-69227722D01*
X160150327Y-69407740D01*
X160150326Y-69407744D01*
X160130540Y-69596000D01*
X157859117Y-69596000D01*
X163046364Y-67572974D01*
X163091419Y-67564500D01*
X169254441Y-67564500D01*
X169321480Y-67584185D01*
G37*
%TD.AperFunction*%
%TA.AperFunction,Conductor*%
G36*
X156586903Y-95526040D02*
G01*
X156730817Y-95605158D01*
X156889886Y-95646000D01*
X156990273Y-95646000D01*
X156771467Y-96216008D01*
X156729065Y-96271540D01*
X156663371Y-96295333D01*
X156610648Y-96287095D01*
X156375869Y-96195531D01*
X156320564Y-96152833D01*
X156297122Y-96087014D01*
X156305160Y-96035568D01*
X156523577Y-95466573D01*
X156586903Y-95526040D01*
G37*
%TD.AperFunction*%
%TA.AperFunction,Conductor*%
G36*
X175016429Y-72413047D02*
G01*
X175054149Y-72438856D01*
X175223181Y-72607888D01*
X175256666Y-72669211D01*
X175259500Y-72695569D01*
X175259500Y-93674429D01*
X175239815Y-93741468D01*
X175223181Y-93762110D01*
X175054150Y-93931141D01*
X174992827Y-93964626D01*
X174923135Y-93959642D01*
X174867202Y-93917770D01*
X174842785Y-93852306D01*
X174847983Y-93806895D01*
X174849132Y-93803168D01*
X174849135Y-93803162D01*
X174905849Y-93554682D01*
X174924895Y-93300525D01*
X174923637Y-93283744D01*
X174905849Y-93046370D01*
X174892104Y-92986151D01*
X174849135Y-92797888D01*
X174756020Y-92560637D01*
X174628586Y-92339913D01*
X174469677Y-92140648D01*
X174282844Y-91967293D01*
X174072261Y-91823720D01*
X174072255Y-91823717D01*
X174072254Y-91823716D01*
X174072253Y-91823715D01*
X173842633Y-91713137D01*
X173842635Y-91713137D01*
X173599093Y-91638014D01*
X173599089Y-91638013D01*
X173599085Y-91638012D01*
X173477858Y-91619739D01*
X173347067Y-91600025D01*
X173347062Y-91600025D01*
X173092192Y-91600025D01*
X173092186Y-91600025D01*
X172935236Y-91623682D01*
X172840169Y-91638012D01*
X172840165Y-91638013D01*
X172840166Y-91638013D01*
X172840160Y-91638014D01*
X172596619Y-91713137D01*
X172367000Y-91823715D01*
X172366999Y-91823716D01*
X172156409Y-91967293D01*
X171969579Y-92140646D01*
X171969577Y-92140648D01*
X171810668Y-92339913D01*
X171683235Y-92560634D01*
X171612402Y-92741110D01*
X171569585Y-92796324D01*
X171503715Y-92819624D01*
X171435705Y-92803613D01*
X171409293Y-92783488D01*
X170465202Y-91839398D01*
X170144667Y-91518864D01*
X170111183Y-91457542D01*
X170116167Y-91387851D01*
X170158038Y-91331917D01*
X170195796Y-91312694D01*
X170250529Y-91295812D01*
X170480159Y-91185228D01*
X170690742Y-91041655D01*
X170877575Y-90868300D01*
X171036484Y-90669035D01*
X171163918Y-90448311D01*
X171257033Y-90211060D01*
X171313747Y-89962580D01*
X171328842Y-89761144D01*
X171332793Y-89708427D01*
X171332793Y-89708418D01*
X171317710Y-89507144D01*
X171313747Y-89454266D01*
X171257033Y-89205786D01*
X171163918Y-88968535D01*
X171124350Y-88900000D01*
X172322540Y-88900000D01*
X172342326Y-89088256D01*
X172342327Y-89088259D01*
X172400818Y-89268277D01*
X172400821Y-89268284D01*
X172495467Y-89432216D01*
X172602378Y-89550952D01*
X172622129Y-89572888D01*
X172775265Y-89684148D01*
X172775270Y-89684151D01*
X172948192Y-89761142D01*
X172948197Y-89761144D01*
X173133354Y-89800500D01*
X173133355Y-89800500D01*
X173322644Y-89800500D01*
X173322646Y-89800500D01*
X173507803Y-89761144D01*
X173680730Y-89684151D01*
X173833871Y-89572888D01*
X173960533Y-89432216D01*
X174055179Y-89268284D01*
X174113674Y-89088256D01*
X174133460Y-88900000D01*
X174113674Y-88711744D01*
X174055179Y-88531716D01*
X173960533Y-88367784D01*
X173833871Y-88227112D01*
X173801708Y-88203744D01*
X173680734Y-88115851D01*
X173680729Y-88115848D01*
X173507807Y-88038857D01*
X173507802Y-88038855D01*
X173362001Y-88007865D01*
X173322646Y-87999500D01*
X173133354Y-87999500D01*
X173100897Y-88006398D01*
X172948197Y-88038855D01*
X172948192Y-88038857D01*
X172775270Y-88115848D01*
X172775265Y-88115851D01*
X172622129Y-88227111D01*
X172495466Y-88367785D01*
X172400821Y-88531715D01*
X172400818Y-88531722D01*
X172362557Y-88649479D01*
X172342326Y-88711744D01*
X172322540Y-88900000D01*
X171124350Y-88900000D01*
X171036484Y-88747811D01*
X170877575Y-88548546D01*
X170690742Y-88375191D01*
X170480159Y-88231618D01*
X170480155Y-88231616D01*
X170480152Y-88231614D01*
X170480151Y-88231613D01*
X170250531Y-88121035D01*
X170250533Y-88121035D01*
X170006991Y-88045912D01*
X170006987Y-88045911D01*
X170006983Y-88045910D01*
X169885756Y-88027637D01*
X169754965Y-88007923D01*
X169754960Y-88007923D01*
X169500090Y-88007923D01*
X169500084Y-88007923D01*
X169347113Y-88030981D01*
X169248067Y-88045910D01*
X169248063Y-88045911D01*
X169248064Y-88045911D01*
X169248058Y-88045912D01*
X169004517Y-88121035D01*
X168774898Y-88231613D01*
X168774897Y-88231614D01*
X168564307Y-88375191D01*
X168377477Y-88548544D01*
X168377475Y-88548546D01*
X168218566Y-88747811D01*
X168091133Y-88968532D01*
X168082623Y-88990215D01*
X168039805Y-89045428D01*
X167973935Y-89068728D01*
X167905925Y-89052716D01*
X167894310Y-89045230D01*
X167877818Y-89033248D01*
X167838730Y-89004849D01*
X167838728Y-89004848D01*
X167838729Y-89004848D01*
X167710879Y-88947925D01*
X167657642Y-88902675D01*
X167637321Y-88835826D01*
X167637992Y-88821707D01*
X167656460Y-88646000D01*
X167636674Y-88457744D01*
X167578179Y-88277716D01*
X167483533Y-88113784D01*
X167465693Y-88093971D01*
X167435464Y-88030981D01*
X167444089Y-87961646D01*
X167465694Y-87928028D01*
X167465695Y-87928027D01*
X167483533Y-87908216D01*
X167578179Y-87744284D01*
X167636674Y-87564256D01*
X167656460Y-87376000D01*
X167636674Y-87187744D01*
X167578179Y-87007716D01*
X167497514Y-86868000D01*
X170290540Y-86868000D01*
X170310326Y-87056256D01*
X170310327Y-87056259D01*
X170368818Y-87236277D01*
X170368821Y-87236284D01*
X170463467Y-87400216D01*
X170566369Y-87514500D01*
X170590129Y-87540888D01*
X170743265Y-87652148D01*
X170743270Y-87652151D01*
X170916192Y-87729142D01*
X170916197Y-87729144D01*
X171101354Y-87768500D01*
X171101355Y-87768500D01*
X171290644Y-87768500D01*
X171290646Y-87768500D01*
X171475803Y-87729144D01*
X171648730Y-87652151D01*
X171801871Y-87540888D01*
X171928533Y-87400216D01*
X172023179Y-87236284D01*
X172081674Y-87056256D01*
X172101460Y-86868000D01*
X172081674Y-86679744D01*
X172023179Y-86499716D01*
X171928533Y-86335784D01*
X171801871Y-86195112D01*
X171792223Y-86188102D01*
X171648734Y-86083851D01*
X171648729Y-86083848D01*
X171475807Y-86006857D01*
X171475802Y-86006855D01*
X171330000Y-85975865D01*
X171290646Y-85967500D01*
X171101354Y-85967500D01*
X171068897Y-85974398D01*
X170916197Y-86006855D01*
X170916192Y-86006857D01*
X170743270Y-86083848D01*
X170743265Y-86083851D01*
X170590129Y-86195111D01*
X170463466Y-86335785D01*
X170368821Y-86499715D01*
X170368818Y-86499722D01*
X170311142Y-86677232D01*
X170310326Y-86679744D01*
X170290540Y-86868000D01*
X167497514Y-86868000D01*
X167483533Y-86843784D01*
X167465693Y-86823971D01*
X167435464Y-86760981D01*
X167444089Y-86691646D01*
X167465694Y-86658028D01*
X167483533Y-86638216D01*
X167578179Y-86474284D01*
X167636674Y-86294256D01*
X167656460Y-86106000D01*
X167636674Y-85917744D01*
X167615312Y-85852000D01*
X168258540Y-85852000D01*
X168278326Y-86040256D01*
X168278327Y-86040259D01*
X168336818Y-86220277D01*
X168336821Y-86220284D01*
X168431467Y-86384216D01*
X168549543Y-86515352D01*
X168558129Y-86524888D01*
X168711265Y-86636148D01*
X168711270Y-86636151D01*
X168884192Y-86713142D01*
X168884197Y-86713144D01*
X169069354Y-86752500D01*
X169069355Y-86752500D01*
X169258644Y-86752500D01*
X169258646Y-86752500D01*
X169443803Y-86713144D01*
X169616730Y-86636151D01*
X169769871Y-86524888D01*
X169896533Y-86384216D01*
X169991179Y-86220284D01*
X170049674Y-86040256D01*
X170069460Y-85852000D01*
X170049674Y-85663744D01*
X169991179Y-85483716D01*
X169896533Y-85319784D01*
X169769871Y-85179112D01*
X169737708Y-85155744D01*
X169616734Y-85067851D01*
X169616729Y-85067848D01*
X169443807Y-84990857D01*
X169443802Y-84990855D01*
X169298001Y-84959865D01*
X169258646Y-84951500D01*
X169069354Y-84951500D01*
X169036897Y-84958398D01*
X168884197Y-84990855D01*
X168884192Y-84990857D01*
X168711270Y-85067848D01*
X168711265Y-85067851D01*
X168558129Y-85179111D01*
X168431466Y-85319785D01*
X168336821Y-85483715D01*
X168336818Y-85483722D01*
X168290636Y-85625857D01*
X168278326Y-85663744D01*
X168258540Y-85852000D01*
X167615312Y-85852000D01*
X167578179Y-85737716D01*
X167496647Y-85596499D01*
X167480175Y-85528600D01*
X167496648Y-85472500D01*
X167496830Y-85472185D01*
X167578179Y-85331284D01*
X167636674Y-85151256D01*
X167656460Y-84963000D01*
X167636674Y-84774744D01*
X167578179Y-84594716D01*
X167483533Y-84430784D01*
X167390985Y-84328000D01*
X170290540Y-84328000D01*
X170310326Y-84516256D01*
X170310327Y-84516259D01*
X170368818Y-84696277D01*
X170368821Y-84696284D01*
X170463467Y-84860216D01*
X170581095Y-84990855D01*
X170590129Y-85000888D01*
X170743265Y-85112148D01*
X170743270Y-85112151D01*
X170916192Y-85189142D01*
X170916197Y-85189144D01*
X171101354Y-85228500D01*
X171101355Y-85228500D01*
X171290644Y-85228500D01*
X171290646Y-85228500D01*
X171475803Y-85189144D01*
X171648730Y-85112151D01*
X171801871Y-85000888D01*
X171928533Y-84860216D01*
X171942514Y-84836000D01*
X172322540Y-84836000D01*
X172342326Y-85024256D01*
X172342327Y-85024259D01*
X172400818Y-85204277D01*
X172400821Y-85204284D01*
X172495467Y-85368216D01*
X172602312Y-85486879D01*
X172622129Y-85508888D01*
X172775265Y-85620148D01*
X172775270Y-85620151D01*
X172948192Y-85697142D01*
X172948197Y-85697144D01*
X173133354Y-85736500D01*
X173133355Y-85736500D01*
X173322644Y-85736500D01*
X173322646Y-85736500D01*
X173507803Y-85697144D01*
X173680730Y-85620151D01*
X173833871Y-85508888D01*
X173960533Y-85368216D01*
X174055179Y-85204284D01*
X174113674Y-85024256D01*
X174133460Y-84836000D01*
X174113674Y-84647744D01*
X174055179Y-84467716D01*
X173960533Y-84303784D01*
X173833871Y-84163112D01*
X173830558Y-84160705D01*
X173680734Y-84051851D01*
X173680729Y-84051848D01*
X173507807Y-83974857D01*
X173507802Y-83974855D01*
X173362001Y-83943865D01*
X173322646Y-83935500D01*
X173133354Y-83935500D01*
X173100897Y-83942398D01*
X172948197Y-83974855D01*
X172948192Y-83974857D01*
X172775270Y-84051848D01*
X172775265Y-84051851D01*
X172622129Y-84163111D01*
X172495466Y-84303785D01*
X172400821Y-84467715D01*
X172400818Y-84467722D01*
X172342327Y-84647740D01*
X172342326Y-84647744D01*
X172322540Y-84836000D01*
X171942514Y-84836000D01*
X172023179Y-84696284D01*
X172081674Y-84516256D01*
X172101460Y-84328000D01*
X172081674Y-84139744D01*
X172023179Y-83959716D01*
X171928533Y-83795784D01*
X171801871Y-83655112D01*
X171801870Y-83655111D01*
X171648734Y-83543851D01*
X171648729Y-83543848D01*
X171475807Y-83466857D01*
X171475802Y-83466855D01*
X171330000Y-83435865D01*
X171290646Y-83427500D01*
X171101354Y-83427500D01*
X171068897Y-83434398D01*
X170916197Y-83466855D01*
X170916192Y-83466857D01*
X170743270Y-83543848D01*
X170743265Y-83543851D01*
X170590129Y-83655111D01*
X170463466Y-83795785D01*
X170368821Y-83959715D01*
X170368818Y-83959722D01*
X170322636Y-84101857D01*
X170310326Y-84139744D01*
X170290540Y-84328000D01*
X167390985Y-84328000D01*
X167375267Y-84310543D01*
X167345038Y-84247553D01*
X167353663Y-84178218D01*
X167398404Y-84124552D01*
X167416974Y-84114296D01*
X167457730Y-84096151D01*
X167610871Y-83984888D01*
X167737533Y-83844216D01*
X167832179Y-83680284D01*
X167890674Y-83500256D01*
X167910460Y-83312000D01*
X168258540Y-83312000D01*
X168278326Y-83500256D01*
X168278327Y-83500259D01*
X168336818Y-83680277D01*
X168336821Y-83680284D01*
X168431467Y-83844216D01*
X168539731Y-83964455D01*
X168558129Y-83984888D01*
X168711265Y-84096148D01*
X168711270Y-84096151D01*
X168884192Y-84173142D01*
X168884197Y-84173144D01*
X169069354Y-84212500D01*
X169069355Y-84212500D01*
X169258644Y-84212500D01*
X169258646Y-84212500D01*
X169443803Y-84173144D01*
X169616730Y-84096151D01*
X169769871Y-83984888D01*
X169896533Y-83844216D01*
X169991179Y-83680284D01*
X170049674Y-83500256D01*
X170069460Y-83312000D01*
X170049674Y-83123744D01*
X169991179Y-82943716D01*
X169896533Y-82779784D01*
X169769871Y-82639112D01*
X169769867Y-82639109D01*
X169616734Y-82527851D01*
X169616729Y-82527848D01*
X169443807Y-82450857D01*
X169443802Y-82450855D01*
X169298001Y-82419865D01*
X169258646Y-82411500D01*
X169069354Y-82411500D01*
X169036897Y-82418398D01*
X168884197Y-82450855D01*
X168884192Y-82450857D01*
X168711270Y-82527848D01*
X168711265Y-82527851D01*
X168558129Y-82639111D01*
X168431466Y-82779785D01*
X168336821Y-82943715D01*
X168336818Y-82943722D01*
X168295951Y-83069500D01*
X168278326Y-83123744D01*
X168258540Y-83312000D01*
X167910460Y-83312000D01*
X167890674Y-83123744D01*
X167832179Y-82943716D01*
X167737533Y-82779784D01*
X167610871Y-82639112D01*
X167610867Y-82639109D01*
X167457734Y-82527851D01*
X167457729Y-82527848D01*
X167317488Y-82465408D01*
X167264251Y-82420158D01*
X167243930Y-82353308D01*
X167262976Y-82286085D01*
X167295034Y-82251814D01*
X167356871Y-82206888D01*
X167483533Y-82066216D01*
X167578179Y-81902284D01*
X167615312Y-81788000D01*
X170290540Y-81788000D01*
X170310326Y-81976256D01*
X170310327Y-81976259D01*
X170368818Y-82156277D01*
X170368821Y-82156284D01*
X170463467Y-82320216D01*
X170566369Y-82434500D01*
X170590129Y-82460888D01*
X170743265Y-82572148D01*
X170743270Y-82572151D01*
X170916192Y-82649142D01*
X170916197Y-82649144D01*
X171101354Y-82688500D01*
X171101355Y-82688500D01*
X171290644Y-82688500D01*
X171290646Y-82688500D01*
X171475803Y-82649144D01*
X171648730Y-82572151D01*
X171801871Y-82460888D01*
X171928533Y-82320216D01*
X171942514Y-82296000D01*
X172322540Y-82296000D01*
X172342326Y-82484256D01*
X172342327Y-82484259D01*
X172400818Y-82664277D01*
X172400821Y-82664284D01*
X172495467Y-82828216D01*
X172607957Y-82953148D01*
X172622129Y-82968888D01*
X172775265Y-83080148D01*
X172775270Y-83080151D01*
X172948192Y-83157142D01*
X172948197Y-83157144D01*
X173133354Y-83196500D01*
X173133355Y-83196500D01*
X173322644Y-83196500D01*
X173322646Y-83196500D01*
X173507803Y-83157144D01*
X173680730Y-83080151D01*
X173833871Y-82968888D01*
X173960533Y-82828216D01*
X174055179Y-82664284D01*
X174113674Y-82484256D01*
X174133460Y-82296000D01*
X174113674Y-82107744D01*
X174055179Y-81927716D01*
X173960533Y-81763784D01*
X173833871Y-81623112D01*
X173833870Y-81623111D01*
X173680734Y-81511851D01*
X173680729Y-81511848D01*
X173507807Y-81434857D01*
X173507802Y-81434855D01*
X173350695Y-81401462D01*
X173322646Y-81395500D01*
X173133354Y-81395500D01*
X173105305Y-81401462D01*
X172948197Y-81434855D01*
X172948192Y-81434857D01*
X172775270Y-81511848D01*
X172775265Y-81511851D01*
X172622129Y-81623111D01*
X172495466Y-81763785D01*
X172400821Y-81927715D01*
X172400818Y-81927722D01*
X172342327Y-82107740D01*
X172342326Y-82107744D01*
X172322540Y-82296000D01*
X171942514Y-82296000D01*
X172023179Y-82156284D01*
X172081674Y-81976256D01*
X172101460Y-81788000D01*
X172081674Y-81599744D01*
X172023179Y-81419716D01*
X171928533Y-81255784D01*
X171801871Y-81115112D01*
X171801870Y-81115111D01*
X171648734Y-81003851D01*
X171648729Y-81003848D01*
X171475807Y-80926857D01*
X171475802Y-80926855D01*
X171330000Y-80895865D01*
X171290646Y-80887500D01*
X171101354Y-80887500D01*
X171068897Y-80894398D01*
X170916197Y-80926855D01*
X170916192Y-80926857D01*
X170743270Y-81003848D01*
X170743265Y-81003851D01*
X170590129Y-81115111D01*
X170463466Y-81255785D01*
X170368821Y-81419715D01*
X170368818Y-81419722D01*
X170311142Y-81597232D01*
X170310326Y-81599744D01*
X170290540Y-81788000D01*
X167615312Y-81788000D01*
X167636674Y-81722256D01*
X167656460Y-81534000D01*
X167636674Y-81345744D01*
X167578179Y-81165716D01*
X167496647Y-81024499D01*
X167480175Y-80956600D01*
X167496648Y-80900500D01*
X167503692Y-80888300D01*
X167570837Y-80772000D01*
X168258540Y-80772000D01*
X168278326Y-80960256D01*
X168278327Y-80960259D01*
X168336818Y-81140277D01*
X168336821Y-81140284D01*
X168431467Y-81304216D01*
X168549095Y-81434855D01*
X168558129Y-81444888D01*
X168711265Y-81556148D01*
X168711270Y-81556151D01*
X168884192Y-81633142D01*
X168884197Y-81633144D01*
X169069354Y-81672500D01*
X169069355Y-81672500D01*
X169258644Y-81672500D01*
X169258646Y-81672500D01*
X169443803Y-81633144D01*
X169616730Y-81556151D01*
X169769871Y-81444888D01*
X169896533Y-81304216D01*
X169991179Y-81140284D01*
X170049674Y-80960256D01*
X170069460Y-80772000D01*
X170049674Y-80583744D01*
X169991179Y-80403716D01*
X169896533Y-80239784D01*
X169769871Y-80099112D01*
X169769870Y-80099111D01*
X169616734Y-79987851D01*
X169616729Y-79987848D01*
X169443807Y-79910857D01*
X169443802Y-79910855D01*
X169284992Y-79877100D01*
X169258646Y-79871500D01*
X169069354Y-79871500D01*
X169043008Y-79877100D01*
X168884197Y-79910855D01*
X168884192Y-79910857D01*
X168711270Y-79987848D01*
X168711265Y-79987851D01*
X168558129Y-80099111D01*
X168431466Y-80239785D01*
X168336821Y-80403715D01*
X168336818Y-80403722D01*
X168279784Y-80579256D01*
X168278326Y-80583744D01*
X168258540Y-80772000D01*
X167570837Y-80772000D01*
X167578179Y-80759284D01*
X167636674Y-80579256D01*
X167656460Y-80391000D01*
X167636674Y-80202744D01*
X167578179Y-80022716D01*
X167533308Y-79944997D01*
X167516836Y-79877100D01*
X167533309Y-79821001D01*
X167570837Y-79756000D01*
X170798540Y-79756000D01*
X170818326Y-79944256D01*
X170818327Y-79944259D01*
X170876818Y-80124277D01*
X170876821Y-80124284D01*
X170971467Y-80288216D01*
X171076304Y-80404649D01*
X171098129Y-80428888D01*
X171251265Y-80540148D01*
X171251270Y-80540151D01*
X171424192Y-80617142D01*
X171424197Y-80617144D01*
X171609354Y-80656500D01*
X171609355Y-80656500D01*
X171798644Y-80656500D01*
X171798646Y-80656500D01*
X171983803Y-80617144D01*
X172156730Y-80540151D01*
X172309871Y-80428888D01*
X172436533Y-80288216D01*
X172531179Y-80124284D01*
X172589674Y-79944256D01*
X172609460Y-79756000D01*
X172589674Y-79567744D01*
X172531179Y-79387716D01*
X172436533Y-79223784D01*
X172309871Y-79083112D01*
X172309870Y-79083111D01*
X172156734Y-78971851D01*
X172156729Y-78971848D01*
X171983807Y-78894857D01*
X171983802Y-78894855D01*
X171824992Y-78861100D01*
X171798646Y-78855500D01*
X171609354Y-78855500D01*
X171583008Y-78861100D01*
X171424197Y-78894855D01*
X171424192Y-78894857D01*
X171251270Y-78971848D01*
X171251265Y-78971851D01*
X171098129Y-79083111D01*
X170971466Y-79223785D01*
X170876821Y-79387715D01*
X170876818Y-79387722D01*
X170819784Y-79563256D01*
X170818326Y-79567744D01*
X170798540Y-79756000D01*
X167570837Y-79756000D01*
X167578179Y-79743284D01*
X167636674Y-79563256D01*
X167656460Y-79375000D01*
X167636674Y-79186744D01*
X167578179Y-79006716D01*
X167533308Y-78928997D01*
X167516836Y-78861100D01*
X167533309Y-78805001D01*
X167570837Y-78740000D01*
X172830540Y-78740000D01*
X172850326Y-78928256D01*
X172850327Y-78928259D01*
X172908818Y-79108277D01*
X172908821Y-79108284D01*
X173003467Y-79272216D01*
X173108304Y-79388649D01*
X173130129Y-79412888D01*
X173283265Y-79524148D01*
X173283270Y-79524151D01*
X173456192Y-79601142D01*
X173456197Y-79601144D01*
X173641354Y-79640500D01*
X173641355Y-79640500D01*
X173830644Y-79640500D01*
X173830646Y-79640500D01*
X174015803Y-79601144D01*
X174188730Y-79524151D01*
X174341871Y-79412888D01*
X174468533Y-79272216D01*
X174563179Y-79108284D01*
X174621674Y-78928256D01*
X174641460Y-78740000D01*
X174621674Y-78551744D01*
X174563179Y-78371716D01*
X174468533Y-78207784D01*
X174341871Y-78067112D01*
X174341870Y-78067111D01*
X174188734Y-77955851D01*
X174188729Y-77955848D01*
X174015807Y-77878857D01*
X174015802Y-77878855D01*
X173868373Y-77847519D01*
X173830646Y-77839500D01*
X173641354Y-77839500D01*
X173608897Y-77846398D01*
X173456197Y-77878855D01*
X173456192Y-77878857D01*
X173283270Y-77955848D01*
X173283265Y-77955851D01*
X173130129Y-78067111D01*
X173003466Y-78207785D01*
X172908821Y-78371715D01*
X172908818Y-78371722D01*
X172851784Y-78547256D01*
X172850326Y-78551744D01*
X172830540Y-78740000D01*
X167570837Y-78740000D01*
X167578179Y-78727284D01*
X167636674Y-78547256D01*
X167656460Y-78359000D01*
X167636674Y-78170744D01*
X167581303Y-78000333D01*
X167579309Y-77930493D01*
X167607088Y-77879041D01*
X167610533Y-77875216D01*
X167705179Y-77711284D01*
X167763674Y-77531256D01*
X167778589Y-77389336D01*
X167805173Y-77324724D01*
X167851471Y-77289022D01*
X167899437Y-77267666D01*
X167968685Y-77258383D01*
X168031961Y-77288012D01*
X168065298Y-77335644D01*
X168091131Y-77401464D01*
X168091133Y-77401468D01*
X168118061Y-77448109D01*
X168218566Y-77622190D01*
X168377475Y-77821455D01*
X168564308Y-77994810D01*
X168774891Y-78138383D01*
X168774896Y-78138385D01*
X168774897Y-78138386D01*
X168774898Y-78138387D01*
X168842089Y-78170744D01*
X169004517Y-78248965D01*
X169004518Y-78248965D01*
X169004521Y-78248967D01*
X169248067Y-78324091D01*
X169500090Y-78362078D01*
X169754960Y-78362078D01*
X170006983Y-78324091D01*
X170250529Y-78248967D01*
X170480159Y-78138383D01*
X170690742Y-77994810D01*
X170877575Y-77821455D01*
X171036484Y-77622190D01*
X171163918Y-77401466D01*
X171257033Y-77164215D01*
X171313747Y-76915735D01*
X171327500Y-76732216D01*
X171332793Y-76661582D01*
X171332793Y-76661573D01*
X171317242Y-76454055D01*
X171313747Y-76407421D01*
X171257033Y-76158941D01*
X171163918Y-75921690D01*
X171036484Y-75700966D01*
X170877575Y-75501701D01*
X170690742Y-75328346D01*
X170480159Y-75184773D01*
X170480155Y-75184771D01*
X170480152Y-75184769D01*
X170480151Y-75184768D01*
X170250534Y-75074191D01*
X170250531Y-75074190D01*
X170250529Y-75074189D01*
X170195797Y-75057306D01*
X170137540Y-75018736D01*
X170109382Y-74954791D01*
X170120266Y-74885774D01*
X170144663Y-74851141D01*
X171409294Y-73586508D01*
X171470615Y-73553025D01*
X171540307Y-73558009D01*
X171596240Y-73599881D01*
X171612401Y-73628888D01*
X171643499Y-73708123D01*
X171683234Y-73809364D01*
X171810668Y-74030088D01*
X171969577Y-74229353D01*
X172156410Y-74402708D01*
X172366993Y-74546281D01*
X172366998Y-74546283D01*
X172366999Y-74546284D01*
X172367000Y-74546285D01*
X172473456Y-74597551D01*
X172596619Y-74656863D01*
X172596620Y-74656863D01*
X172596623Y-74656865D01*
X172840169Y-74731989D01*
X173092192Y-74769976D01*
X173347062Y-74769976D01*
X173599085Y-74731989D01*
X173842631Y-74656865D01*
X174072261Y-74546281D01*
X174282844Y-74402708D01*
X174469677Y-74229353D01*
X174628586Y-74030088D01*
X174756020Y-73809364D01*
X174849135Y-73572113D01*
X174905849Y-73323633D01*
X174924895Y-73069476D01*
X174919474Y-72997142D01*
X174905849Y-72815321D01*
X174849136Y-72566842D01*
X174847981Y-72563099D01*
X174847023Y-72493236D01*
X174883988Y-72433946D01*
X174947140Y-72404053D01*
X175016429Y-72413047D01*
G37*
%TD.AperFunction*%
%TD*%
M02*
